<svg xmlns="http://www.w3.org/2000/svg" version="1.1" xmlns:xlink="http://www.w3.org/1999/xlink" xmlns:svgjs="http://svgjs.com/svgjs" width="111.09" height="111.09"><svg id="SvgjsSvg1002" xmlns="http://www.w3.org/2000/svg" viewBox="0 0 111.09 111.09"><defs><style>.cls-1{fill:#fff;}.cls-2{fill:#2ba197;}</style></defs><g id="SvgjsG1001"><g id="SvgjsG1000"><rect class="cls-2" width="111.09" height="111.09" rx="10.38" ry="10.38"></rect><g><path class="cls-1" d="M11.29,47.69h5.38c1.21,0,2.14,.09,2.77,.28,.85,.25,1.59,.7,2.2,1.34s1.07,1.43,1.39,2.36c.32,.93,.48,2.08,.48,3.45,0,1.2-.15,2.23-.45,3.1-.36,1.06-.88,1.92-1.56,2.58-.51,.5-1.2,.88-2.07,1.16-.65,.21-1.52,.31-2.61,.31h-5.54v-14.58Zm2.94,2.47v9.65h2.2c.82,0,1.42-.05,1.78-.14,.48-.12,.87-.32,1.19-.61s.57-.75,.77-1.41c.2-.65,.3-1.54,.3-2.67s-.1-1.99-.3-2.6c-.2-.6-.48-1.07-.84-1.41s-.81-.57-1.36-.69c-.41-.09-1.22-.14-2.42-.14h-1.32Z"></path><path class="cls-1" d="M28.07,62.27l-3.48-14.58h3.01l2.2,10.01,2.67-10.01h3.5l2.56,10.18,2.24-10.18h2.96l-3.54,14.58h-3.12l-2.9-10.9-2.89,10.9h-3.19Z"></path><path class="cls-1" d="M45.23,62.27v-14.58h4.72c1.79,0,2.96,.07,3.5,.22,.83,.22,1.53,.7,2.1,1.43,.56,.73,.85,1.68,.85,2.84,0,.89-.16,1.65-.49,2.26-.33,.61-.74,1.09-1.24,1.44s-1.01,.58-1.53,.69c-.7,.14-1.72,.21-3.05,.21h-1.92v5.5h-2.94Zm2.94-12.11v4.13h1.61c1.16,0,1.94-.08,2.33-.23s.7-.39,.92-.71c.22-.33,.33-.7,.33-1.13,0-.53-.16-.97-.47-1.31-.31-.34-.71-.56-1.18-.65-.35-.06-1.06-.1-2.12-.1h-1.42Z"></path><path class="cls-1" d="M11.92,70.17h7.69c1.73,0,3.05,.13,3.96,.4,1.22,.36,2.27,1,3.14,1.92,.87,.92,1.53,2.04,1.99,3.38s.68,2.97,.68,4.92c0,1.71-.21,3.19-.64,4.43-.52,1.52-1.26,2.74-2.23,3.68-.73,.71-1.71,1.27-2.95,1.66-.93,.29-2.17,.44-3.72,.44h-7.91v-20.82Zm4.2,3.52v13.79h3.14c1.17,0,2.02-.06,2.54-.2,.68-.17,1.25-.46,1.7-.87s.82-1.08,1.1-2.01c.28-.93,.43-2.21,.43-3.81s-.14-2.85-.43-3.71c-.28-.86-.68-1.54-1.19-2.02s-1.16-.81-1.95-.98c-.59-.13-1.74-.2-3.45-.2h-1.89Z"></path><path class="cls-1" d="M32.94,73.87v-3.69h3.99v3.69h-3.99Zm0,17.13v-15.09h3.99v15.09h-3.99Z"></path><path class="cls-1" d="M40.69,91.99l4.56,.55c.08,.53,.25,.9,.53,1.09,.38,.29,.98,.43,1.79,.43,1.04,0,1.82-.16,2.34-.47,.35-.21,.62-.54,.8-1.01,.12-.33,.18-.94,.18-1.83v-2.2c-1.19,1.63-2.7,2.44-4.52,2.44-2.03,0-3.63-.86-4.81-2.57-.93-1.35-1.39-3.04-1.39-5.06,0-2.53,.61-4.46,1.83-5.79s2.73-2,4.54-2,3.4,.82,4.62,2.46v-2.12h3.74v13.54c0,1.78-.15,3.11-.44,3.99s-.71,1.57-1.24,2.07-1.24,.9-2.12,1.18c-.89,.29-2.01,.43-3.36,.43-2.56,0-4.37-.44-5.44-1.31-1.07-.88-1.6-1.99-1.6-3.33,0-.13,0-.29,.01-.48Zm3.57-8.85c0,1.6,.31,2.77,.93,3.52s1.39,1.12,2.29,1.12c.98,0,1.8-.38,2.47-1.14,.67-.76,1.01-1.89,1.01-3.39s-.32-2.72-.97-3.48c-.64-.76-1.46-1.14-2.44-1.14s-1.75,.37-2.37,1.12c-.62,.74-.93,1.88-.93,3.4Z"></path><path class="cls-1" d="M58.85,73.87v-3.69h3.99v3.69h-3.99Zm0,17.13v-15.09h3.99v15.09h-3.99Z"></path><path class="cls-1" d="M73.88,75.91v3.18h-2.73v6.08c0,1.23,.03,1.95,.08,2.15s.17,.37,.35,.5c.19,.13,.41,.2,.67,.2,.37,0,.9-.13,1.61-.38l.34,3.1c-.93,.4-1.98,.6-3.15,.6-.72,0-1.37-.12-1.95-.36-.58-.24-1-.55-1.27-.94-.27-.38-.46-.9-.56-1.56-.08-.46-.13-1.4-.13-2.81v-6.58h-1.83v-3.18h1.83v-3l4.01-2.33v5.33h2.73Z"></path><path class="cls-1" d="M79.67,80.51l-3.62-.65c.41-1.46,1.11-2.54,2.1-3.24,.99-.7,2.47-1.05,4.43-1.05,1.78,0,3.11,.21,3.98,.63,.87,.42,1.48,.96,1.84,1.61s.53,1.84,.53,3.57l-.04,4.66c0,1.32,.06,2.3,.19,2.93,.13,.63,.37,1.3,.72,2.03h-3.95c-.1-.27-.23-.66-.38-1.18-.07-.24-.11-.39-.14-.47-.68,.66-1.41,1.16-2.19,1.49-.78,.33-1.61,.5-2.49,.5-1.55,0-2.78-.42-3.67-1.26-.9-.84-1.34-1.91-1.34-3.2,0-.85,.2-1.61,.61-2.28,.41-.67,.98-1.18,1.71-1.53s1.79-.67,3.17-.93c1.87-.35,3.16-.68,3.88-.98v-.4c0-.77-.19-1.31-.57-1.64-.38-.33-1.09-.49-2.15-.49-.71,0-1.26,.14-1.66,.42-.4,.28-.72,.77-.97,1.47Zm5.34,3.24c-.51,.17-1.32,.37-2.43,.61-1.11,.24-1.83,.47-2.17,.7-.52,.37-.78,.84-.78,1.41s.21,1.04,.62,1.45c.42,.41,.95,.61,1.59,.61,.72,0,1.41-.24,2.06-.71,.48-.36,.8-.8,.95-1.32,.1-.34,.16-.99,.16-1.95v-.79Z"></path><path class="cls-1" d="M92.89,91v-20.82h3.99v20.82h-3.99Z"></path></g></g></g></svg><style>@media (prefers-color-scheme: light) { :root { filter: none; } }
</style></svg>