<svg xmlns="http://www.w3.org/2000/svg" xmlns:xlink="http://www.w3.org/1999/xlink" viewBox="0 0 110.48 119.24"><defs><style>.cls-1,.cls-17,.cls-21,.cls-24,.cls-30{fill:none;}.cls-2,.cls-33,.cls-4{fill:#fff;}.cls-3{fill:#999;}.cls-4{isolation:isolate;font-size:18.23px;}.cls-31,.cls-33,.cls-4{font-family:Arial-BoldMT, Arial;font-weight:700;}.cls-5{letter-spacing:-0.09em;}.cls-6{letter-spacing:0em;}.cls-7{fill:#ccc;}.cls-8{fill:#227868;}.cls-9{fill:red;}.cls-10{fill:#ff0;}.cls-11{fill:#39b54a;}.cls-12{opacity:0.86;}.cls-13{clip-path:url(#clip-path);}.cls-14{fill:#65aff5;opacity:0.21;}.cls-15{fill:#ff9c50;}.cls-16{fill:#d68343;}.cls-17{stroke:#d97e34;}.cls-17,.cls-21,.cls-24,.cls-30{stroke-miterlimit:10;}.cls-18{fill:#c6645a;}.cls-19{fill:#a15149;}.cls-20{fill:#412a74;}.cls-21{stroke:#2e3192;}.cls-21,.cls-24{stroke-linecap:round;}.cls-22{fill:url(#linear-gradient);}.cls-23{fill:#3c3378;}.cls-24{stroke:#3c3378;}.cls-25{fill:#7e7494;}.cls-26{fill:url(#linear-gradient-2);}.cls-27{fill:#ffb881;}.cls-28{fill:#ee786b;}.cls-29{fill:url(#linear-gradient-3);}.cls-30{stroke:#8cc63f;stroke-width:2px;}.cls-31{font-size:6.39px;}.cls-32{letter-spacing:-0.04em;}.cls-33{font-size:4.58px;}.cls-34{fill:#d1d1d1;}</style><clipPath id="clip-path"><circle class="cls-1" cx="49.46" cy="69.78" r="48.46"/></clipPath><linearGradient id="linear-gradient" x1="6755.67" y1="59.04" x2="6755.67" y2="51.19" gradientTransform="matrix(-1, 0, 0, 1, 6773.31, 0)" gradientUnits="userSpaceOnUse"><stop offset="0" stop-color="#a15149"/><stop offset="1" stop-color="#3c3378"/></linearGradient><linearGradient id="linear-gradient-2" x1="54.98" y1="105.81" x2="55.14" y2="113.92" gradientUnits="userSpaceOnUse"><stop offset="0.8" stop-color="#8d82a6"/><stop offset="1" stop-color="#554e63"/></linearGradient><linearGradient id="linear-gradient-3" x1="65.03" y1="80.02" x2="65.67" y2="113.02" gradientUnits="userSpaceOnUse"><stop offset="0.43" stop-color="#7e7494"/><stop offset="1" stop-color="#625a73"/></linearGradient><symbol id="screen-laptop-govuk" data-name="screen-laptop-govuk" viewBox="0 0 196.03 110.86"><path class="cls-2" d="M.2,110.86V.2H196V110.86Z"/><rect class="cls-3" width="196.03" height="11.62"/><rect y="11.82" width="196.03" height="30.57"/><text class="cls-4" transform="translate(63.28 33.28)">GO<tspan class="cls-5" x="28.35" y="0">V</tspan><tspan class="cls-6" x="38.84" y="0">.UK</tspan></text><rect class="cls-7" x="13.04" y="67.65" width="165.88" height="4.08"/><rect class="cls-7" x="41.16" y="74.18" width="105.96" height="4.08"/><rect class="cls-8" x="39.74" y="82.12" width="113.91" height="20.99"/><path class="cls-2" d="M20.52,17l.76,2h0a.25.25,0,0,0-.25.26h0l-1.53-.51V21.3l1.53-1h0a.24.24,0,0,0,.25.25l-1,3.06h0v.51c0,.76.76,1.27,1.27,1.53h.51a1.43,1.43,0,0,0,1.27-1.53V23.6h0l-1-3.06a.25.25,0,0,0,.26-.25h0l1.53,1V18.76l-1.53.51h0A.25.25,0,0,0,22.3,19h0l.77-2H20.52ZM14.41,20a1.32,1.32,0,0,0-1.28,1c-.25.76,0,1.27.77,1.78.76.26,1.27,0,1.78-.76.26-.76,0-1.27-.76-1.78C14.92,20,14.66,20,14.41,20Zm14.77,0h-.51a1.87,1.87,0,1,0,.51,0ZM17.72,21.31a1.31,1.31,0,0,0-1.28,1c-.25.77,0,1.28.77,1.79.76.25,1.27,0,1.78-.77.26-.76,0-1.27-.76-1.78C18.23,21.31,18,21.31,17.72,21.31Zm8.15,0h-.51a1.88,1.88,0,1,0,.51,0Zm-14.52.5a1.3,1.3,0,0,0-1.27,1c-.26.77,0,1.28.76,1.79.77.25,1.27,0,1.78-.77.26-.76,0-1.27-.76-1.78C11.86,21.81,11.61,21.81,11.35,21.81Zm20.89,0h-.51a1.37,1.37,0,1,0,1,2.55,1.31,1.31,0,0,0-.51-2.55ZM10.33,25.38a1.3,1.3,0,0,0-1.27,1c-.26.76,0,1.27.76,1.78.77.26,1.28,0,1.79-.76.25-.77,0-1.28-.77-1.78C10.84,25.38,10.59,25.38,10.33,25.38Zm22.93,0h-.51a1.37,1.37,0,1,0,1,2.55,1.42,1.42,0,0,0,.76-1.79C34,25.64,33.77,25.38,33.26,25.38Zm-18.09.26c-1.27,1.27-1,2.8.51,4.07-1-.51-2.29,0-1.27,1.53.51-1.27,1.27-1,1.53,0,.25.76-.26,1.27-1.28,1.53-.76.25-1.78-.26-2.55-2a1.41,1.41,0,0,1,1.28.76l-1-3c-.26,1-.51,1.27-1,1.53a2.85,2.85,0,0,1,0-2l-1.78.76c1,1.28,1.78,3.31,2.8,6.37a50.43,50.43,0,0,1,8.91-.76,48.4,48.4,0,0,1,8.92.76C31,31.75,31.73,30,33,28.69l-1.78-.76a2.85,2.85,0,0,1,0,2,7.64,7.64,0,0,1-1-1.53l-.51,3A2.32,2.32,0,0,1,31,30.73c-1,1.78-1.78,2.29-2.54,2a1.55,1.55,0,0,1-1.28-1.53c.26-1,1.28-1.27,1.53,0,1-1.53-.51-2.29-1.27-1.53,1.27-1.27,1.53-2.55.51-4.07-1.53,1.27-1.53,2.29-1,3.82-1-1.28-2.29-.51-1.78,1.27.76-1,1.52-.51,1.27.76,0,1-1.27,1.53-2.55,1.28-2-.26-2-1.53-2-2.8a3.72,3.72,0,0,1,2,1.27l.26-3.31a2.61,2.61,0,0,1-2.3,1,6.84,6.84,0,0,1,1.53-2.3H20A6.84,6.84,0,0,1,21.54,29a2.77,2.77,0,0,1-2.29-1l.25,3.31a2.09,2.09,0,0,1,2-1.27c0,1.27-.26,2.54-2,2.8C18.23,33,17,32.26,17,31.49c-.25-1,.77-1.52,1.28-.76.51-1.53-1-2.29-1.79-1.27.51-1.53.51-2.81-1.27-3.82Z"/><path class="cls-2" d="M189.72,4.08h-.82v-1a.43.43,0,0,0-.41-.41h-10V8.76h10a.43.43,0,0,0,.41-.41v-1h.82a.45.45,0,0,0,.41-.41V4.69C190.13,4.08,189.92,4.08,189.72,4.08ZM188.09,8h-8.77V3.46h8.77Zm1.22-1.43h-.41V4.89h.41Z"/><path class="cls-2" d="M186.66,7.54h-6.93V4.08h6.93Z"/><circle class="cls-9" cx="9.06" cy="5.38" r="2.79"/><circle class="cls-10" cx="18.47" cy="5.55" r="2.79"/><circle class="cls-11" cx="28.43" cy="5.55" r="2.79"/></symbol></defs><g id="Layer_2" data-name="Layer 2"><g id="MainLayer"><g id="stories" class="cls-12"><g id="attendancegroup"><g id="attendance2"><g class="cls-13"><circle class="cls-2" cx="49.46" cy="69.78" r="48.46"/><circle class="cls-14" cx="49.46" cy="69.78" r="48.46"/><path class="cls-15" d="M30.67,79c-2.55,3-1.09,6.33,1.16,21.71a14.08,14.08,0,0,0,2.22,5.81A5.1,5.1,0,0,0,43.46,105,127.48,127.48,0,0,0,37.1,79.09,4,4,0,0,0,34.47,77C32.66,76.68,31.13,78.44,30.67,79Z"/><path class="cls-15" d="M35.37,77.57l1.39,27.7c-7.92,4.59-15.52,2.24-26.21-1.76-.22-16.18-6.44-24.09-2.9-25.92C18.12,72.26,26.92,72.65,35.37,77.57Z"/><path class="cls-16" d="M33.82,77.82a4.31,4.31,0,0,0,1-2.88,4.5,4.5,0,0,0-3.13-3.84c-6.78-1.23-13.6-3-20,.89-1.27.76-1-.57-1.37,2.64-.22,2,1.17.7,2,1.09C20.9,79.88,26.83,87.69,33.82,77.82Z"/><path class="cls-17" d="M35.14,107.58a73.68,73.68,0,0,1-.15-25"/><path class="cls-15" d="M33.86,76.86a4.23,4.23,0,0,0,1-2.88,4.49,4.49,0,0,0-3.12-3.84c-6.78-1.23-13.6-3-20,.88-1.26.77-3.92,2.7-4.26,5.91-.22,2,3.93-1.52,4.77-1.16C21.75,79.86,28.64,86.59,33.86,76.86Z"/><path class="cls-16" d="M25.46,79.42c-6.55-2.37-10.41-2.66-13.53-6.14,6.38-5.68,12.71-5.52,20-.65C31.64,75.62,29.39,76.91,25.46,79.42Z"/><path class="cls-16" d="M24.16,79.69c-1.16,4.59-2.31,9.19-.78,13.2-.26.46-.45.54-.52-.09-1.79-4.16-.25-8.78.92-13.35Z"/><path class="cls-16" d="M26.62,80c1,4.59,2.07,9.19.7,13.21.22.45.4.54.46-.1C29.39,89,28,84.33,27,79.76Z"/><path class="cls-18" d="M16.69,65.06l-.23,9.61c1.42,1.34,4.33,2.76,8.94,4.59.43.26,1.87-1.07,2.8-1.52l-1.49-7.5Z"/><path class="cls-19" d="M27.65,75c-7.37-1.65-10.12-5.52-10-8.76l10,6.46Z"/><path class="cls-18" d="M34.33,54.43c1,6.59,1.18,11.83.24,15.74s-6.67,3-7.54,3c-6.29-.07-9.63-5.76-9.78-6a30.52,30.52,0,0,1-2-12.41c.18-3.58.31-6.33,2.36-8.4,3-3.06,8.8-3.26,12.38-.76C32.29,47.23,33.58,49.53,34.33,54.43Z"/><ellipse class="cls-20" cx="24.49" cy="58.83" rx="1.01" ry="1.39"/><ellipse class="cls-20" cx="31.54" cy="58.48" rx="1.01" ry="1.39"/><polygon class="cls-19" points="27.56 63.27 30.23 63.13 28.99 57.56 28.88 57.61 29.45 62.55 27.6 63.17 27.56 63.27"/><polygon class="cls-20" points="29.56 62.63 28.88 57.42 28.73 57.43 29.24 62.63 29.56 62.63"/><path class="cls-21" d="M33.09,55.86A1.57,1.57,0,0,0,31,55"/><path class="cls-21" d="M25.17,55.17c-1.24-.37-1.83.14-2.06.82"/><path class="cls-22" d="M19.45,58.35,17.72,59l-2.94-1.57c0-1.25.07-2.51.11-3.76A10.63,10.63,0,0,1,15,51.19h5.52c-.15.31-.28.61-.41.9A10.64,10.64,0,0,0,19.45,58.35Z"/><path class="cls-18" d="M18.45,59.56c-.7-2-2.93-3.43-4-2.91s-1,3.72.42,5.66c.1.14,1.45,1.94,2.56,1.62S19.06,61.28,18.45,59.56Z"/><path class="cls-19" d="M15.16,57.39c1.06-.16,2.3,3.56,2.27,3.58h0c-.08,0-.76-.38-1-.13a.72.72,0,0,0-.12.18.44.44,0,0,1,.12-.31c.23-.22.84.13,1,.23-.21-.34-1.23-3.06-2.13-3.2-.31,0-.67.26-.71.18S14.85,57.44,15.16,57.39Z"/><path class="cls-23" d="M13.64,48.57a1.92,1.92,0,0,1-.31-1,2.25,2.25,0,0,1,2.39-2.08h0A1.55,1.55,0,0,1,15.7,45a2.26,2.26,0,0,1,2.39-2.09,2.61,2.61,0,0,1,1.31.35,2.26,2.26,0,0,1,2.39-2.08,2.56,2.56,0,0,1,1.67.6,2.38,2.38,0,0,1,2.26-1.43,2.48,2.48,0,0,1,2.05,1,2.49,2.49,0,0,1,1.94-.87,2.25,2.25,0,0,1,2.38,2,2.91,2.91,0,0,1,.89-.15,2.26,2.26,0,0,1,2.39,2.09,1.92,1.92,0,0,1-.1.59,2,2,0,0,1,.62,1.4v.09a2.08,2.08,0,0,1,1.19,1.81,2.41,2.41,0,0,1-4.78,0c-.63-.07-1.64-.91-3-.9a10.06,10.06,0,0,0-2.23.46c-2.84.65-3.25.22-4.34.75a5,5,0,0,0-2.27,2.52H17.09a2.42,2.42,0,0,1-2.18,1.24,2.26,2.26,0,0,1-2.39-2.09A2,2,0,0,1,13.64,48.57Z"/><path class="cls-24" d="M24,47.8c-2.21,2.33-3.76,4.66-3.37,7"/><path class="cls-24" d="M29.3,46.69C33,48,33.55,50.58,35.4,52.5"/><path class="cls-15" d="M27.1,81.94a17.29,17.29,0,0,0-16-9.31L9.84,76.19C14.62,74.82,20.55,78.67,27.1,81.94Z"/><path class="cls-25" d="M38.19,115.53l-16.5-6.85,0-1.1,44.75-.13,22,6,.1,2.29-46.39.56A10.18,10.18,0,0,1,38.19,115.53Z"/><path class="cls-26" d="M38.12,113.29l-16.5-6.86,44.78-1.22,22.1,8.3-46.38.55A9.93,9.93,0,0,1,38.12,113.29Z"/><path class="cls-27" d="M64.65,76.56l-3.73,28.83c8.59,5,18.94,4.49,30.53.16l3.83-29C83.93,70.79,73.81,71.24,64.65,76.56Z"/><path class="cls-27" d="M65.62,91.6l-4.65,10-10.07.69c4.52-11.75,9-23.88,13.81-25.7Z"/><path class="cls-18" d="M83.64,63.75l.23,12c-1.53,1.46.24-.13-4.75,1.85-1.35,1-7.45.9-7.86-.06L72.77,71Z"/><path class="cls-19" d="M72.39,75.16c7.07-.09,10.63-4.51,11.3-9.41L73.24,71.67Z"/><path class="cls-15" d="M74.82,78.23l-3.17,4.92c-2.1-2.92-2.46-5.58-1.44-9.21.65-.39,1.28-1.26,2.16-1.32C72.19,76.11,72.83,78,74.82,78.23Z"/><path class="cls-15" d="M83.8,70.09c-1.54,6-4.5,8.38-9,8.12l3.64,6.07c3.92-2.75,7.18-6.64,7.12-11.55Z"/><path class="cls-27" d="M98.85,78.9c2.07,3.27.41,6.4-4.07,21.14-.83,2.71-.5,3.11-1.67,4.6-2.86,3.64-10.39,2.46-10.66-2.16,2.25-7.93,6.31-15.22,10.7-23.55.34-.42.39-2.47,1.87-2.46C96.84,76.47,98.48,78.32,98.85,78.9Z"/><path class="cls-28" d="M63.93,89.18a8.89,8.89,0,0,0-4.51.22c-2.46.83-5.06,3.15-4.38,5,.43,1.17,2.09,1.76,3.17,2.14a8.5,8.5,0,0,0,6.37-.35,9.33,9.33,0,0,0,2.73-1.72Z"/><path class="cls-27" d="M87.06,93.69a5.73,5.73,0,0,1-1.23,1.14c-.65.44-3.34,2.15-11.19,2.88,0,0-2,.19-6.16.25-.38,0-1,0-1.74,0a18.29,18.29,0,0,1-1.84-.22c-1.51-2.46-1.29-5.61-1-8.8,3.17.07,6.55,0,10.12-.15,4.32-.22,8.36-.62,12.08-1.13a3,3,0,0,1,2.09,2A4.94,4.94,0,0,1,87.06,93.69Z"/><path class="cls-28" d="M35.3,102.79a9.12,9.12,0,0,1,4.51.22c2.46.83,5.06,3.16,4.38,5-.44,1.17-2.09,1.75-3.17,2.14a8.5,8.5,0,0,1-6.37-.35,9.63,9.63,0,0,1-2.74-1.72Z"/><path class="cls-29" d="M87.64,78.82H46.74c-3,0-5.43,2.81-5.43,6.29l-3.86,26.54a1.8,1.8,0,0,0,1.65,1.92H87.34A1.8,1.8,0,0,0,89,111.65l4.34-26.24C93.33,81.77,90.78,78.82,87.64,78.82Z"/><path class="cls-2" d="M61.57,96.11c.1,1,2.39,1.72,4.05,1.86s4-.17,4.55-1.2S68.8,95,69.08,93.33c.2-1.16,1.18-1.41.94-2.13-.4-1.23-3.77-2-4.77-1.31-.72.54.46,1.42-.07,2.84C64.45,94.71,61.46,95,61.57,96.11Z"/><path class="cls-2" d="M67.39,90a1.18,1.18,0,0,0,.3-1.72l-.23,0,0-.23a1,1,0,0,1,.78-.11c.16.12.2.24.15.37s-.14.09-.21,0a1.52,1.52,0,0,1-.29,1.85Z"/><path class="cls-15" d="M4,80.68C1.88,84,3.53,87.08,8,101.82c.83,2.71.5,3.11,1.67,4.6,2.85,3.64,10.38,2.46,10.66-2.16C18.1,96.33,14,89,9.64,80.71c-.33-.42-.38-2.47-1.86-2.46C6,78.25,4.32,80.1,4,80.68Z"/><path class="cls-15" d="M12.09,107.08a5.83,5.83,0,0,0,1.25,1.13c.65.43,3.37,2.1,11.23,2.71,0,0,2,.16,6.16.16.37,0,1,0,1.74-.07s1.41-.17,1.83-.25c1.47-2.48,1.22-5.63.85-8.81-3.17.11-6.56.12-10.13,0-4.32-.16-8.37-.5-12.09-1a3.06,3.06,0,0,0-2.07,2A5,5,0,0,0,12.09,107.08Z"/><path class="cls-17" d="M6,95.29c2,7,3.46,12.12,4.65,12,5.35,3.17,14.64,3.92,23.23,3.79,1.22-.39,1.78-3.9,1.37-9-4.22.24-11.12-.79-18.19-1.9-1.46-4.67-2.65-9.36-4.69-13.8"/></g><circle class="cls-30" cx="49.46" cy="69.78" r="48.46"/><use width="196.03" height="110.86" transform="translate(38.35) scale(0.37)" xlink:href="#screen-laptop-govuk"/><text class="cls-31" transform="translate(39.72 22.74)">Attendance<tspan class="cls-32" x="34.81" y="0"> </tspan><tspan x="36.35" y="0">Allowance</tspan></text><text class="cls-33" transform="translate(62.59 35.5)">Apply Now</text><path class="cls-18" d="M62.16,56.43C62.82,63.63,64,69.18,66,73.05s7.82,1.45,8.73,1.21c6.6-1.71,8.61-8.57,8.7-8.9a33.16,33.16,0,0,0-1.13-13.58c-1.12-3.72-2-6.57-4.68-8.22-4-2.42-10.12-1.11-13.22,2.45C62.41,48.33,61.66,51.08,62.16,56.43Z"/><ellipse class="cls-20" cx="73.65" cy="58.48" rx="1.1" ry="1.51" transform="translate(-11.96 19.55) rotate(-14)"/><ellipse class="cls-20" cx="66.15" cy="59.96" rx="1.1" ry="1.51" transform="translate(-12.54 17.78) rotate(-14)"/><polygon class="cls-19" points="71.59 63.96 68.75 64.5 68.59 58.33 68.72 58.34 69.42 63.69 71.52 63.86 71.59 63.96"/><polygon class="cls-20" points="69.32 63.81 68.67 58.15 68.83 58.12 69.66 63.72 69.32 63.81"/><path class="cls-21" d="M63.65,57.15A2.41,2.41,0,0,1,66,56.64"/><path class="cls-21" d="M71.77,55.31a2.41,2.41,0,0,1,2.35-.52"/><path class="cls-34" d="M80.83,56.92l-2-.27a12.07,12.07,0,0,1-2.29-6.42c-.21-4.83-1.05-6.43-2-6.68-2-.51-5,4.86-6.48,4.14-.77-.38-.32-2.08-1.19-2.45-1.16-.5-3.19,2-3.31,1.88A7,7,0,0,1,66,44.4a11.65,11.65,0,0,1,7.35-2.15,9.69,9.69,0,0,1,6.51,2.69,9.31,9.31,0,0,1,2.59,5.64c.37,1.31.73,2.62,1.1,3.93Z"/><path class="cls-18" d="M80.2,57.67c.22-2.25,2.18-4.39,3.4-4.1s2,3.65,1.05,6.06c-.07.17-1,2.42-2.27,2.37S80,59.63,80.2,57.67Z"/><path class="cls-19" d="M83.09,54.52c-1.15.11-1.48,4.35-1.45,4.36v0c.08,0,.7-.59,1-.4.1.06.16.17.17.16a.44.44,0,0,0-.2-.29c-.31-.17-.86.35-1,.5.12-.42.48-3.54,1.39-3.92.32-.13.78.09.8,0S83.44,54.49,83.09,54.52Z"/><path class="cls-19" d="M72.37,59.85a2.68,2.68,0,0,0,3.82,0c-.62,1.51-1.75,2-3.77.51Z"/><path class="cls-19" d="M67.57,60.82c-.37,1.48-1.14,2-2.33,1.56,1,1.11,1.86,1.06,2.52-1.05Z"/></g></g></g></g></g></svg>