<?xml version="1.0" encoding="utf-8"?>
<!-- Generator: Adobe Illustrator 26.0.1, SVG Export Plug-In . SVG Version: 6.00 Build 0)  -->
<svg version="1.1" id="Layer_1" xmlns="http://www.w3.org/2000/svg" xmlns:xlink="http://www.w3.org/1999/xlink" x="0px" y="0px"
	 viewBox="0 0 129.1 129.4" style="enable-background:new 0 0 129.1 129.4;" xml:space="preserve">
<style type="text/css">
	.st0{opacity:0.86;}
	.st1{clip-path:url(#SVGID_00000158730691119081351780000013319042131737277834_);}
	.st2{opacity:0.79;fill:#8ACFB1;enable-background:new    ;}
	.st3{fill:#DBDBDB;}
	.st4{fill:#D4F3FF;}
	.st5{fill:#C99694;}
	.st6{fill:#595E66;}
	.st7{fill:#696F79;}
	.st8{fill:#9EABC6;}
	.st9{fill:#E9EAEE;}
	.st10{fill:#A77D7E;}
	.st11{fill:#E5E5E5;}
	.st12{fill:#91D4D5;}
	.st13{fill:#85C2C3;}
	.st14{fill:url(#SVGID_00000023977264186897939990000006384014492158917055_);}
	.st15{fill:url(#SVGID_00000008850371705065198670000000245506694843548082_);}
	.st16{fill:#9E7677;}
	.st17{fill:#8EBA42;}
	.st18{fill:url(#SVGID_00000000190217205599949480000017338334244483268277_);}
	.st19{fill:url(#SVGID_00000083795265620628571480000000504142018674864797_);}
	.st20{fill:url(#SVGID_00000013900695994028254550000017505393698501559202_);}
	.st21{fill:#373838;}
	.st22{fill:#FFE436;}
	.st23{fill:#DEA876;}
	.st24{fill:#DE8B76;}
	.st25{fill:url(#SVGID_00000072962715840549627230000003735691965486009746_);}
	.st26{fill:#C6645A;}
	.st27{fill:#FF9C50;}
	.st28{fill:#40485B;}
	.st29{fill:#2B303D;}
	.st30{fill:#858585;}
	.st31{fill:#5E5E5E;}
	.st32{fill:#FFFFFF;}
	.st33{fill:#D68343;}
	.st34{fill:none;stroke:#D97E34;stroke-miterlimit:10;}
	.st35{fill:#A15149;}
	.st36{fill:#412A74;}
	.st37{fill:none;stroke:#2E3192;stroke-linecap:round;stroke-miterlimit:10;}
	.st38{fill:url(#SVGID_00000121976267113695303150000015013419928357597593_);}
	.st39{fill:#3C3378;}
	.st40{fill:none;stroke:#3C3378;stroke-width:4;stroke-linecap:round;stroke-miterlimit:10;}
	.st41{fill:none;stroke:#8CC63F;stroke-width:2;stroke-miterlimit:10;}
</style>
<g>
	<g id="Layer_2_00000032624328114336036000000008360808476369180052_">
		<g id="MainLayer">
			<g id="stories" class="st0">
				<g id="attendancegroup">
					<g id="attendance5">
						<g>
							<defs>
								<circle id="SVGID_1_" cx="64.8" cy="64.8" r="62.7"/>
							</defs>
							<clipPath id="SVGID_00000081621108347007276180000014586763853865424831_">
								<use xlink:href="#SVGID_1_"  style="overflow:visible;"/>
							</clipPath>
							<g style="clip-path:url(#SVGID_00000081621108347007276180000014586763853865424831_);">
								<circle class="st2" cx="64.8" cy="64.8" r="62.7"/>
								<g id="attendance6">
									<polygon class="st3" points="0.2,62.3 58.8,55 46.3,45.9 70.2,43.6 86.5,50.9 125.2,44.6 167.3,55.4 83.8,70.9 -5.2,88.9 
																			"/>
									<rect x="4.5" y="-13.4" class="st4" width="139.3" height="50.8"/>
									<polygon class="st5" points="0.3,20.2 -0.2,48.7 75.4,43.6 74.9,29 									"/>
									<polygon class="st6" points="21.1,15.4 -1.3,20.9 79.2,29.9 61,22.4 									"/>
									<polygon class="st7" points="43.7,33.2 38.9,37.5 52,36 52.5,31.9 									"/>
									<path class="st8" d="M73.5,46.4c0,0.7-2,0.7-2,0S73.5,45.7,73.5,46.4z"/>
									<path class="st9" d="M73.5,46.2c0,0.7-2,0.7-2,0S73.5,45.5,73.5,46.2z"/>
									<polygon class="st10" points="34.8,23.4 34.7,32 25.9,31.6 26.2,23 31.3,20.7 									"/>
									<polygon class="st11" points="26.8,24.1 30.1,24.3 30.1,29.1 26.7,28.9 									"/>
									<polygon class="st12" points="27.1,24.6 29.8,24.7 29.8,28.6 27,28.5 									"/>
									<polygon class="st13" points="27.7,24.6 29.8,27.5 29.8,28.6 28.6,28.6 27.1,26.1 27.1,26.2 27.1,24.6 									"/>
									<polygon class="st11" points="30.7,24.4 34,24.6 34,29.3 30.6,29.1 									"/>
									<polygon class="st12" points="31,24.8 33.7,25 33.7,28.9 30.9,28.7 									"/>
									<polygon class="st13" points="31.6,24.9 33.7,27.8 33.7,28.9 32.5,28.8 31,26.4 31,26.4 31,24.8 									"/>
									<polygon class="st11" points="8.1,23.4 7.8,30.2 12.1,30.5 12.4,23.7 									"/>
									<polygon class="st12" points="8.2,29.6 8.5,24.1 11.9,24.4 11.6,29.7 									"/>
									<polygon class="st13" points="8.5,24.1 9.4,24.2 11.7,28.6 11.6,29.7 10,29.7 8.4,25.7 									"/>
									<polygon class="st11" points="12.8,23.7 12.5,30.5 16.8,30.8 17.1,24.1 									"/>
									<polygon class="st12" points="12.9,29.9 13.2,24.4 16.6,24.7 16.3,30 									"/>
									<polygon class="st13" points="13.2,24.4 14.1,24.5 16.4,29 16.3,30 14.7,30 13.1,26 									"/>
									<polygon class="st11" points="41.7,26.8 41.8,31.1 44.4,31.3 44.4,27.1 									"/>
									<polygon class="st12" points="42,30.7 42,27.3 44.1,27.5 44.1,30.9 									"/>
									<polygon class="st13" points="42,27.3 42.5,27.3 44.1,30.2 44.1,30.9 43.1,30.8 42,28.3 									"/>
									<polygon class="st11" points="53.8,28 53.9,32.2 56.6,32.5 56.5,28.2 									"/>
									<polygon class="st12" points="54.2,31.8 54.1,28.4 56.2,28.6 56.3,32 									"/>
									<polygon class="st13" points="54.1,28.4 54.7,28.5 56.3,31.3 56.3,32 55.3,31.9 54.1,29.4 									"/>
									<polygon class="st11" points="56.9,28.2 56.9,32.5 59.6,32.7 59.5,28.5 									"/>
									<polygon class="st12" points="57.2,32.1 57.1,28.7 59.3,28.9 59.3,32.3 									"/>
									<polygon class="st13" points="57.1,28.7 57.7,28.8 59.3,31.6 59.3,32.3 58.3,32.2 57.1,29.7 									"/>
									<polygon class="st11" points="63.9,28.9 64,33.1 66.6,33.4 66.6,29.1 									"/>
									<polygon class="st12" points="64.2,32.7 64.2,29.3 66.3,29.5 66.3,32.9 									"/>
									<polygon class="st13" points="64.2,29.3 64.8,29.4 66.3,32.2 66.3,32.9 65.3,32.8 64.2,30.3 									"/>
									<polygon class="st11" points="66.9,29.1 67,33.4 69.7,33.6 69.6,29.4 									"/>
									<polygon class="st12" points="67.2,33 67.2,29.6 69.3,29.8 69.4,33.2 									"/>
									<polygon class="st13" points="67.2,29.6 67.8,29.7 69.3,32.5 69.4,33.2 68.3,33.1 67.2,30.6 									"/>
									
										<linearGradient id="SVGID_00000179615239176392473320000002340308614203244430_" gradientUnits="userSpaceOnUse" x1="65.5561" y1="99.8806" x2="67.0161" y2="99.8806" gradientTransform="matrix(1 0 0 -1 6.22 141.1579)">
										<stop  offset="0" style="stop-color:#C5C6C8"/>
										<stop  offset="1" style="stop-color:#E9EAEE"/>
									</linearGradient>
									<path style="fill:url(#SVGID_00000179615239176392473320000002340308614203244430_);" d="M73.2,46.1c0,0.6-1.4,0.6-1.5,0
										V36h1.5V46.1z"/>
									<path class="st8" d="M64.6,47.4c0,0.8-2.2,0.8-2.2,0S64.7,46.6,64.6,47.4z"/>
									<path class="st9" d="M64.6,47.2c0,0.8-2.2,0.8-2.2,0S64.6,46.4,64.6,47.2z"/>
									
										<linearGradient id="SVGID_00000013150586951967948850000010714818672963881115_" gradientUnits="userSpaceOnUse" x1="56.4961" y1="99.5592" x2="58.1361" y2="99.5592" gradientTransform="matrix(1 0 0 -1 6.22 141.1579)">
										<stop  offset="0" style="stop-color:#C5C6C8"/>
										<stop  offset="1" style="stop-color:#E9EAEE"/>
									</linearGradient>
									<path style="fill:url(#SVGID_00000013150586951967948850000010714818672963881115_);" d="M64.4,47.1c0,0.6-1.6,0.7-1.6,0
										V35.6h1.6V47.1z"/>
									<polygon class="st16" points="25.9,31.6 24.4,31.5 24.8,23.5 26.2,23.6 									"/>
									<polygon class="st7" points="31.4,20 22.9,24 25.3,24.1 31.4,21.2 36.6,25.2 38.7,25.3 									"/>
									<path class="st17" d="M26.8,52.4c0.4-0.1,0.7-0.2,0.9-0.5c0.1,0.2,0.5,0.7,0.7,0.3c0.1-0.5,0.3,0.2,0.6,0
										c0.6-1.2,0.6,0,1.5-0.8c0.1-0.6,0.8,0,1.2-0.4c0.3-0.8,1.1-1.5,0.6-2.5c1,0.4,0.8-1,0.4-1.5c0.3-0.2,0.9-0.9,0.2-1.5
										c0.3,0,0.6,0,0.6-0.2s-0.4-0.5-0.8-0.6c0.6-0.4,0.4-0.9-0.2-1c0.3-0.2,0.3-0.6-0.1-0.6c0.3-0.4,0.2-0.9-0.2-1.2
										c-0.2-0.2-0.5-0.2-0.8-0.1c0.5-1-1,0-1.2-0.7c-1.9,0-0.7-0.3-2.1-0.9c-0.3-0.1-0.7,0.2-0.7,0.5c0,0,0,0,0,0.1
										c-0.7-0.3-1.5-0.2-1.6,0.6c-0.2-0.2-0.6-0.2-0.8,0c-0.1,0.1-0.2,0.4-0.1,0.6c-0.5,0-1.9,0.7-1.2,1.3
										c-0.4-0.1-0.9,0.2-0.9,0.7c0,0.3,0.1,0.5,0.3,0.7c-0.4,0.2-0.6,0.6-0.4,1c0,0.1,0.1,0.2,0.2,0.3c-0.9-0.1-0.6,0.5,0,0.6
										c-0.2,0.2-0.6,0.5-0.4,0.8c1.2,0.5-0.1,0.2,0.3,1.2c0.6,0.5,0.2,0.5,0.4,1.2c0.1,0.3,0.4,0.5,0.7,0.5
										c-0.1,0.2-0.1,0.4,0,0.6C24,51,24,51,24.1,51.1C25.2,50.7,25.7,52.3,26.8,52.4z"/>
									<path class="st17" d="M26.8,52.4c0.4-0.1,0.7-0.2,0.9-0.5c0.1,0.2,0.5,0.7,0.7,0.3c0.1-0.5,0.3,0.2,0.6,0
										c0.6-1.2,0.6,0,1.5-0.8c0.1-0.6,0.8,0,1.2-0.4c0.3-0.8,1.1-1.5,0.6-2.5c1,0.4,0.8-1,0.4-1.5c0.3-0.2,0.9-0.9,0.2-1.5
										c0.3,0,0.6,0,0.6-0.2s-0.4-0.5-0.8-0.6c0.6-0.4,0.4-0.9-0.2-1c0.3-0.2,0.3-0.6-0.1-0.6c0.3-0.4,0.2-0.9-0.2-1.2
										c-0.2-0.2-0.5-0.2-0.8-0.1c0.5-1-1,0-1.2-0.7c-1.9,0-0.7-0.3-2.1-0.9c-0.3-0.1-0.7,0.2-0.7,0.5c0,0,0,0,0,0.1
										c-0.7-0.3-1.5-0.2-1.6,0.6c-0.2-0.2-0.6-0.2-0.8,0c-0.1,0.1-0.2,0.4-0.1,0.6c-0.5,0-1.9,0.7-1.2,1.3
										c-0.4-0.1-0.9,0.2-0.9,0.7c0,0.3,0.1,0.5,0.3,0.7c-0.4,0.2-0.6,0.6-0.4,1c0,0.1,0.1,0.2,0.2,0.3c-0.9-0.1-0.6,0.5,0,0.6
										c-0.2,0.2-0.6,0.5-0.4,0.8c1.2,0.5-0.1,0.2,0.3,1.2c0.6,0.5,0.2,0.5,0.4,1.2c0.1,0.3,0.4,0.5,0.7,0.5
										c-0.1,0.2-0.1,0.4,0,0.6C24,51,24,51,24.1,51.1C25.2,50.7,25.7,52.3,26.8,52.4z M30.5,49.4c-0.5-0.7-1.5,0.4-1.7-0.9
										c-0.2,0.8-0.9,0.1-0.9-0.4c-0.1-0.3-1.5,0.1-1.2-1.1c-1.6,0-0.2-1.1,0.3-1.4c-1,0-1.2-1-0.1-0.9c-0.4-0.3-1.1-0.7-0.9-1.3
										c0.2-0.4,0.8-0.1,1.1,0.1c-0.1-0.3-0.5-0.7-0.3-1s0.3-0.1,0.5,0.1c0-0.3,0.1-0.8,0.4-0.9c0.6,0,0.6,0.7,1.1,0.2
										c0.2,0,0.2,0.2,0.2,0.4c0.2-0.4,1.1-0.5,1.2,0c-0.3,0.9,0.1,0.1,0.6,0.5c2-1.1,0.6,0.6,1.6,0.5c-0.5,1-1,0.5,0.2,0.9
										c0.1,0.3-0.4,0.3-0.5,0.3c0.2,0.1,0.3,0.3,0.2,0.5c-0.1,0.2-0.3,0.3-0.5,0.2c0.3,0.3,0.3,0.7,0,1c1,0,0.9,1.2,0.1,1.1
										c0.6,0.5-0.1,1-0.6,0.4C31,48.2,31.7,49.9,30.5,49.4L30.5,49.4z"/>
									<path class="st17" d="M26.8,52.4c1.7-1,0.7,0.2,1.6-0.2c0.1-0.5,1,0.7,0.9-0.7c0.5,0.3,1.3,0.3,1.4-0.4
										c0.3,0.2,0.8,0.2,1.1,0c0.3-0.2,0.4-0.6,0.2-0.9c0,0.2-0.2,0.4-0.5,0.4c-0.6,0-0.7-0.7-1.1-0.1c-0.9-0.1-1,0.8-1.8-0.4
										c0.2,0.9-1.1,1.2-1.2,0.3c-0.2,0.3-0.6,0.4-0.9,0.2c0,0-0.1,0-0.1-0.1c-0.7-0.5-0.1-1.1-1-0.9c-0.2-0.1-0.3-0.3-0.2-0.5
										c0,0,0-0.1,0-0.1c-0.6,0.4-1.1-0.2-0.5-0.7c-1,0.2-1.1-1.1-0.2-1.3c-0.3,0-0.5-0.1-0.8-0.2c-0.5-0.4,0.1-0.9,0.6-0.8
										c-0.5-0.2-0.1-0.7,0.3-0.7c-0.4-0.2-1-0.5-1-1s0.9-0.5,1.3-0.3c-1.1-0.8-0.1-1.4,0.6-0.4c-0.8-1.3,0.1-1.8,0.8-1.5
										c-0.2-0.3-0.3-1,0.3-1c1,0.8,0.7-0.5,1.5,0.3c-0.1-0.3-0.1-0.9,0.3-0.8c-0.8-0.6-1,0.7-1.7,0.2c-1.2,0-0.5,0.7-1.7,0.7
										c-0.3,0.8-1,0.7-1.6,1.4c0,0.6,0.3,0.5-0.4,0.7c-0.4,0.3-0.3,0.9,0,1.2c-0.4,0.2-0.6,0.6-0.4,1c0,0.1,0.1,0.1,0.1,0.2
										c-0.5,0.1-0.8,0.4,0.1,0.7c-0.6,0.3-0.6,1.2,0.2,1c-0.4,0.2-0.5,0.6-0.3,1c0.1,0.2,0.3,0.3,0.5,0.4c-0.3,0.3-0.3,0.8,0,1.1
										c0.1,0.1,0.3,0.2,0.5,0.2c-0.1,0.2-0.1,0.4,0,0.6c0.2,0.1,0.4,0.1,0.6,0c0,0,0,0,0-0.1c0.2,0.3,0.6,0.5,0.9,0.4
										C25.7,51.8,26.2,52.4,26.8,52.4z"/>
									<path class="st17" d="M30.8,44.1c0.4,0,0.9-0.8,0.2-0.8C30.6,43.3,30,44.2,30.8,44.1z"/>
									<path class="st17" d="M31.2,45.1c0.9-0.1-0.1-0.9-0.6-0.5C30.4,44.9,31,45.1,31.2,45.1z"/>
									<path class="st17" d="M29.2,43.8c0.3-0.2,0-1.2-0.4-0.8C28.7,43.3,28.9,43.9,29.2,43.8z"/>
									<path class="st17" d="M29.8,44.1c0.1-0.1,0-0.3-0.1-0.2S29.8,44.2,29.8,44.1z"/>
									<path class="st17" d="M28.6,45c0-0.4-0.7-0.7-1-0.3C27.7,45.1,28.5,45.4,28.6,45z"/>
									<path class="st17" d="M28,44c0.1-0.2-0.2-0.5-0.4-0.4S27.8,44.1,28,44z"/>
									<path class="st17" d="M28,42.8c0-0.2-0.1-0.4-0.2-0.4C27.4,42.4,27.8,43.1,28,42.8z"/>
									<path class="st17" d="M30.6,45.9c0.2-0.1-0.2-0.8-0.4-0.6S30.4,45.9,30.6,45.9z"/>
									<path class="st17" d="M29.6,47.5c0.2-0.1,0-0.5-0.2-0.4S29.4,47.5,29.6,47.5z"/>
									<path class="st17" d="M30.5,48.7c0.3-0.1-0.1-0.9-0.4-0.6S30.2,48.7,30.5,48.7z"/>
									<path class="st17" d="M29.5,48.2c0.1-0.1,0-0.4-0.2-0.3S29.3,48.4,29.5,48.2z"/>
									<path class="st17" d="M16.8,46.8c-0.2-0.3-0.5-0.5-0.8-0.6c0.2-0.2,0.4-0.7,0-0.8c-0.6,0.1,0.1-0.3-0.2-0.6
										c-1.4,0-0.2-0.5-1.3-1.1c-0.6,0.2-0.3-0.7-0.9-1c-0.9,0-1.8-0.4-2.5,0.4c0-1.1-1.2-0.4-1.5,0.2c-0.3-0.1-1.2-0.5-1.5,0.5
										c-0.1-0.3-0.2-0.6-0.5-0.5S7.3,44,7.4,44.3c-0.6-0.4-1,0-0.8,0.6c-0.3-0.2-0.7,0-0.5,0.3c-0.4-0.1-0.9,0.2-1,0.6
										c-0.1,0.3,0,0.6,0.2,0.8c-1.2,0,0.4,0.9-0.1,1.4c0.7,1.7,0,0.8,0,2.3c0.1,0.3,0.4,0.6,0.7,0.5c0,0,0,0,0.1,0
										c0,0.8,0.4,1.5,1.2,1.3c-0.1,0.3,0,0.6,0.3,0.7c0.2,0.1,0.4,0.1,0.6-0.1c0.2,0.5,1.3,1.5,1.7,0.6c0.1,0.4,0.6,0.7,1,0.6
										c0.2-0.1,0.4-0.2,0.5-0.5c0.3,0.3,0.8,0.3,1.1-0.1c0.1-0.1,0.1-0.2,0.1-0.2c0.3,0.9,0.7,0.3,0.6-0.3
										c0.2,0.2,0.7,0.3,0.9,0.1c0-1.3,0.2,0,1-0.8c0.2-0.8,0.4-0.4,1-0.8c0.2-0.2,0.3-0.6,0.2-0.8c0.2,0.1,0.4,0,0.5-0.3
										c0-0.1,0-0.2,0-0.3C15.9,49,17,47.9,16.8,46.8z"/>
									<path class="st17" d="M16.8,46.8c-0.2-0.3-0.5-0.5-0.8-0.6c0.2-0.2,0.4-0.7,0-0.8c-0.6,0.1,0.1-0.3-0.2-0.6
										c-1.4,0-0.2-0.5-1.3-1.1c-0.6,0.2-0.3-0.7-0.9-1c-0.9,0-1.8-0.4-2.5,0.4c0-1.1-1.2-0.4-1.5,0.2c-0.3-0.1-1.2-0.5-1.5,0.5
										c-0.1-0.3-0.2-0.6-0.5-0.5S7.3,44,7.4,44.3c-0.6-0.4-1,0-0.8,0.6c-0.3-0.2-0.7,0-0.5,0.3c-0.4-0.1-0.9,0.2-1,0.6
										c-0.1,0.3,0,0.6,0.2,0.8c-1.2,0,0.4,0.9-0.1,1.4c0.7,1.7,0,0.8,0,2.3c0.1,0.3,0.4,0.6,0.7,0.5c0,0,0,0,0.1,0
										c0,0.8,0.4,1.5,1.2,1.3c-0.1,0.3,0,0.6,0.3,0.7c0.2,0.1,0.4,0.1,0.6-0.1c0.2,0.5,1.3,1.5,1.7,0.6c0.1,0.4,0.6,0.7,1,0.6
										c0.2-0.1,0.4-0.2,0.5-0.5c0.3,0.3,0.8,0.3,1.1-0.1c0.1-0.1,0.1-0.2,0.1-0.2c0.3,0.9,0.7,0.3,0.6-0.3
										c0.2,0.2,0.7,0.3,0.9,0.1c0-1.3,0.2,0,1-0.8c0.2-0.8,0.4-0.4,1-0.8c0.2-0.2,0.3-0.6,0.2-0.8c0.2,0.1,0.4,0,0.5-0.3
										c0-0.1,0-0.2,0-0.3C15.9,49,17,47.9,16.8,46.8z M12.6,44.6c-0.4,0.8,1,1.3-0.2,2c0.8-0.1,0.5,0.8,0,1
										c-0.3,0.2,0.7,1.4-0.5,1.5c0.6,1.5-0.9,0.7-1.4,0.3c0.4,0.9-0.4,1.5-0.8,0.5c-0.1,0.5-0.2,1.3-0.8,1.3
										c-0.6,0-0.4-0.7-0.3-1c-0.2,0.2-0.4,0.7-0.8,0.6s-0.2-0.2-0.1-0.4c-0.3,0.1-0.8,0.2-1-0.1c-0.2-0.6,0.4-0.8-0.3-1.1
										c-0.1-0.2,0-0.3,0.2-0.4c-0.4-0.1-0.9-0.8-0.4-1.1c1-0.1,0-0.1,0.2-0.8c-1.8-1.4,0.3-0.8-0.2-1.6c1.1,0,0.9,0.8,0.8-0.5
										c0.2-0.2,0.4,0.2,0.5,0.4c0-0.2,0.2-0.4,0.4-0.4c0.2,0,0.4,0.2,0.4,0.4c0.2-0.3,0.5-0.5,0.9-0.4c-0.4-0.9,0.8-1.3,1-0.5
										c0.2-0.7,1-0.3,0.6,0.4C11.2,44.7,12.5,43.4,12.6,44.6z"/>
									<path class="st17" d="M16.8,46.8c-1.6-1.2,0-0.7-0.8-1.4c-0.5,0,0.2-1.1-0.9-0.5c0.1-0.6-0.3-1.3-0.9-1.1
										c0-0.4-0.2-0.8-0.5-1c-0.3-0.1-0.7-0.1-0.9,0.1c0.2,0,0.4,0.1,0.6,0.3c0.2,0.6-0.4,0.9,0.4,1c0.2,0.9,1.2,0.6,0.4,1.8
										c0.8-0.5,1.6,0.5,0.7,1c0.4,0.1,0.6,0.4,0.5,0.8c0,0,0,0.1,0,0.1c-0.2,0.8-1,0.5-0.4,1.3c0,0.2-0.1,0.4-0.3,0.4
										c0,0-0.1,0-0.1,0c0.6,0.4,0.2,1.1-0.4,0.7c0.6,0.8-0.6,1.5-1.1,0.7c0.1,0.3,0.1,0.5,0.1,0.8c-0.2,0.6-0.9,0.2-1-0.2
										c0,0.5-0.6,0.4-0.7,0c0,0.5,0,1.2-0.6,1.3s-0.8-0.6-0.8-1.1c-0.3,1.3-1.2,0.6-0.6-0.4c-0.9,1.2-1.7,0.6-1.7-0.2
										c-0.2,0.4-0.8,0.7-1,0.1c0.3-1.2-0.8-0.4-0.4-1.5c-0.3,0.2-0.8,0.5-0.9,0c-0.2,1,1,0.7,0.9,1.5c0.5,1.1,0.9,0.2,1.3,1.3
										c0.8-0.1,1.1,0.6,1.9,0.9c0.6-0.2,0.4-0.5,0.9,0.1c0.4,0.3,1,0,1.2-0.4c0.3,0.3,0.8,0.3,1.1,0c0.1,0,0.1-0.1,0.1-0.2
										c0.3,0.5,0.7,0.6,0.6-0.3c0.5,0.4,1.4,0.1,0.9-0.6c0.3,0.3,0.8,0.2,1.1-0.1c0.1-0.2,0.2-0.4,0.1-0.6c0.6,0.3,1.3-0.5,1-1
										c0.2,0.1,0.4-0.1,0.5-0.3c0.1-0.2-0.1-0.4-0.3-0.5c0.3-0.3,0.3-0.7,0-1C16.8,48.1,16.9,47.4,16.8,46.8z"/>
									<path class="st17" d="M7.5,46.4c-0.2-0.4-1-0.5-0.8,0.1C6.9,46.9,7.9,47.1,7.5,46.4z"/>
									<path class="st17" d="M8.3,45.6c-0.5-0.8-0.8,0.4-0.2,0.7C8.4,46.4,8.4,45.8,8.3,45.6z"/>
									<path class="st17" d="M7.9,48c-0.3-0.2-1.1,0.5-0.6,0.6C7.6,48.6,8.1,48.3,7.9,48z"/>
									<path class="st17" d="M7.9,47.3c-0.1,0-0.2,0.2-0.1,0.2S8,47.3,7.9,47.3z"/>
									<path class="st17" d="M9.2,48.1c-0.3,0.2-0.4,0.9,0.1,1C9.6,48.9,9.6,48.1,9.2,48.1z"/>
									<path class="st17" d="M8.5,49.1c-0.2,0-0.4,0.4-0.2,0.5C8.5,49.7,8.7,49.2,8.5,49.1z"/>
									<path class="st17" d="M7.4,49.5c-0.2,0.1-0.3,0.2-0.3,0.4C7.3,50.2,7.8,49.6,7.4,49.5z"/>
									<path class="st17" d="M9.3,45.9c-0.2-0.2-0.7,0.5-0.4,0.6S9.4,46.1,9.3,45.9z"/>
									<path class="st17" d="M11.1,46.2c-0.1-0.2-0.5,0.2-0.3,0.3S11.2,46.4,11.1,46.2z"/>
									<path class="st17" d="M11.9,44.9c-0.3-0.3-0.8,0.5-0.4,0.6S12,45.2,11.9,44.9z"/>
									<path class="st17" d="M11.9,46c-0.2-0.1-0.4,0.1-0.2,0.3S12,46.1,11.9,46z"/>
									<polygon class="st7" points="2.8,41.1 2.7,40.5 0.5,40.2 -1.5,40.5 -1.6,41.1 0.5,40.9 									"/>
									<polygon class="st10" points="-0.3,40.8 -0.4,51.9 2.2,51.8 2.6,40.9 									"/>
									<polygon class="st16" points="-0.3,40.8 -0.4,51.9 -1.2,51.4 -1.2,41.1 									"/>
									<polygon class="st5" points="6.7,56.5 0.4,51.3 0.5,45.5 6.7,49.9 									"/>
									<path class="st17" d="M18.9,52.7c0.4-0.1,0.7-0.2,0.9-0.5c0.1,0.2,0.5,0.7,0.7,0.3c0.1-0.5,0.3,0.2,0.6,0
										c0.6-1.2,0.6,0,1.5-0.8c0.1-0.6,0.8,0,1.2-0.4c0.3-0.8,1.1-1.5,0.6-2.5c1,0.4,0.9-1,0.4-1.5c0.3-0.2,0.9-0.9,0.2-1.5
										c0.3,0.1,0.6,0,0.6-0.2S25.2,45,24.8,45c0.6-0.4,0.4-0.9-0.2-1c0.3-0.2,0.3-0.6-0.1-0.6c0.3-0.4,0.2-0.9-0.2-1.2
										c-0.2-0.2-0.5-0.2-0.8-0.1c0.5-1.1-1,0-1.2-0.7c-1.9,0-0.7-0.3-2.1-0.9c-0.3-0.1-0.7,0.2-0.7,0.5c0,0,0,0,0,0.1
										c-0.7-0.3-1.5-0.2-1.6,0.6c-0.2-0.2-0.6-0.2-0.8,0c-0.1,0.1-0.2,0.4-0.1,0.6c-0.5,0-1.9,0.7-1.2,1.3
										c-0.4-0.1-0.9,0.2-0.9,0.7c0,0.3,0.1,0.5,0.3,0.7c-0.4,0.2-0.6,0.6-0.4,1c0,0.1,0.1,0.2,0.2,0.3c-0.9-0.1-0.6,0.6,0,0.6
										c-0.2,0.2-0.6,0.5-0.4,0.8c1.2,0.5-0.1,0.2,0.3,1.2c0.6,0.5,0.2,0.5,0.4,1.2c0.1,0.3,0.4,0.5,0.7,0.5
										c-0.1,0.2-0.1,0.4,0,0.6c0.1,0.1,0.2,0.1,0.2,0.1C17.2,51,17.8,52.5,18.9,52.7z"/>
									<path class="st17" d="M18.9,52.7c0.4-0.1,0.7-0.2,0.9-0.5c0.1,0.2,0.5,0.7,0.7,0.3c0.1-0.5,0.3,0.2,0.6,0
										c0.6-1.2,0.6,0,1.5-0.8c0.1-0.6,0.8,0,1.2-0.4c0.3-0.8,1.1-1.5,0.6-2.5c1,0.4,0.9-1,0.4-1.5c0.3-0.2,0.9-0.9,0.2-1.5
										c0.3,0.1,0.6,0,0.6-0.2S25.2,45,24.8,45c0.6-0.4,0.4-0.9-0.2-1c0.3-0.2,0.3-0.6-0.1-0.6c0.3-0.4,0.2-0.9-0.2-1.2
										c-0.2-0.2-0.5-0.2-0.8-0.1c0.5-1.1-1,0-1.2-0.7c-1.9,0-0.7-0.3-2.1-0.9c-0.3-0.1-0.7,0.2-0.7,0.5c0,0,0,0,0,0.1
										c-0.7-0.3-1.5-0.2-1.6,0.6c-0.2-0.2-0.6-0.2-0.8,0c-0.1,0.1-0.2,0.4-0.1,0.6c-0.5,0-1.9,0.7-1.2,1.3
										c-0.4-0.1-0.9,0.2-0.9,0.7c0,0.3,0.1,0.5,0.3,0.7c-0.4,0.2-0.6,0.6-0.4,1c0,0.1,0.1,0.2,0.2,0.3c-0.9-0.1-0.6,0.6,0,0.6
										c-0.2,0.2-0.6,0.5-0.4,0.8c1.2,0.5-0.1,0.2,0.3,1.2c0.6,0.5,0.2,0.5,0.4,1.2c0.1,0.3,0.4,0.5,0.7,0.5
										c-0.1,0.2-0.1,0.4,0,0.6c0.1,0.1,0.2,0.1,0.2,0.1C17.2,51,17.8,52.5,18.9,52.7z M22.5,49.7c-0.5-0.7-1.5,0.4-1.7-0.9
										c-0.2,0.7-0.9,0.1-0.9-0.4c-0.1-0.3-1.5,0.1-1.2-1.1c-1.6,0-0.2-1.1,0.3-1.4c-1,0-1.2-1-0.1-0.9c-0.4-0.3-1.1-0.7-0.9-1.3
										c0.2-0.4,0.8-0.1,1.1,0.1c-0.1-0.3-0.5-0.7-0.3-1s0.3-0.1,0.5,0.1c0-0.3,0.1-0.8,0.4-0.9c0.6,0,0.6,0.7,1.1,0.2
										c0.2,0,0.2,0.2,0.2,0.4c0.2-0.4,1.1-0.5,1.2,0c-0.3,0.9,0.1,0.1,0.6,0.5c2-1.1,0.6,0.6,1.6,0.5c-0.5,1-1,0.5,0.2,0.9
										c0.1,0.3-0.4,0.3-0.5,0.3c0.2,0.1,0.3,0.3,0.2,0.5c-0.1,0.2-0.3,0.3-0.5,0.2c0.3,0.3,0.3,0.7,0,1c1,0,0.9,1.2,0.1,1.1
										c0.6,0.5-0.1,1-0.6,0.4C23,48.4,23.7,50.1,22.5,49.7L22.5,49.7z"/>
									<path class="st17" d="M18.9,52.7c1.7-1,0.7,0.2,1.6-0.2c0.1-0.5,1,0.7,0.9-0.7c0.5,0.3,1.3,0.3,1.4-0.4
										c0.4,0.2,0.8,0.2,1.1-0.1c0.3-0.2,0.4-0.6,0.2-0.9c0,0.2-0.2,0.4-0.5,0.4c-0.6,0-0.7-0.7-1.1-0.1c-0.9-0.1-1,0.8-1.8-0.4
										c0.2,0.9-1.1,1.2-1.2,0.3c-0.2,0.3-0.6,0.4-0.9,0.2c0,0-0.1,0-0.1-0.1c-0.7-0.5-0.1-1.1-1-0.9c-0.2-0.1-0.3-0.3-0.2-0.5
										c0,0,0-0.1,0-0.1c-0.6,0.4-1.1-0.2-0.5-0.7c-1,0.2-1.1-1.1-0.2-1.3c-0.3,0-0.5-0.1-0.8-0.2c-0.4-0.4,0.1-0.9,0.6-0.8
										c-0.5-0.2-0.1-0.7,0.3-0.7c-0.4-0.2-1.1-0.5-1-1s0.9-0.5,1.3-0.3c-1.1-0.8-0.1-1.4,0.6-0.4c-0.8-1.3,0.1-1.8,0.8-1.5
										c-0.2-0.3-0.3-1,0.3-1c1,0.8,0.7-0.5,1.5,0.3c-0.1-0.3-0.1-0.9,0.3-0.8c-0.8-0.6-1,0.6-1.7,0.2c-1.2,0-0.5,0.7-1.7,0.7
										c-0.3,0.8-1,0.7-1.6,1.4c0,0.6,0.3,0.5-0.4,0.7c-0.3,0.3-0.4,0.9,0,1.2c0,0,0,0,0,0c-0.4,0.2-0.6,0.6-0.4,1
										c0,0.1,0.1,0.1,0.1,0.2c-0.6,0.1-0.8,0.4,0.1,0.7c-0.6,0.3-0.6,1.2,0.2,1c-0.4,0.2-0.5,0.6-0.3,1c0.1,0.2,0.3,0.3,0.5,0.4
										c-0.3,0.3-0.3,0.8,0,1.1c0.1,0.1,0.3,0.2,0.5,0.2c-0.1,0.2-0.1,0.4,0,0.6c0.2,0.1,0.4,0.1,0.6,0c0,0,0,0,0-0.1
										c0.2,0.3,0.6,0.5,0.9,0.4C17.7,52.1,18.2,52.5,18.9,52.7z"/>
									<path class="st17" d="M22.9,44.3c0.4,0,0.9-0.8,0.2-0.8C22.7,43.5,22.1,44.4,22.9,44.3z"/>
									<path class="st17" d="M23.3,45.3c0.9-0.1-0.1-0.9-0.6-0.5C22.5,45.1,23,45.3,23.3,45.3z"/>
									<path class="st17" d="M21.3,44c0.3-0.2,0-1.2-0.4-0.8C20.8,43.5,20.9,44.1,21.3,44z"/>
									<path class="st17" d="M21.9,44.4c0.1-0.1,0-0.3-0.1-0.2S21.8,44.4,21.9,44.4z"/>
									<path class="st17" d="M20.7,45.2c0-0.4-0.7-0.7-1-0.3C19.7,45.3,20.5,45.6,20.7,45.2z"/>
									<path class="st17" d="M20,44.2c0.1-0.2-0.2-0.5-0.4-0.4S19.8,44.3,20,44.2z"/>
									<path class="st17" d="M20,43.1c0-0.2-0.1-0.3-0.2-0.4C19.4,42.6,19.8,43.3,20,43.1z"/>
									<path class="st17" d="M22.6,46.1c0.2-0.1-0.2-0.8-0.4-0.6S22.4,46.2,22.6,46.1z"/>
									<path class="st17" d="M21.6,47.7c0.2-0.1,0-0.5-0.2-0.4S21.4,47.7,21.6,47.7z"/>
									<path class="st17" d="M22.5,48.9c0.3-0.1-0.1-0.9-0.4-0.6S22.2,48.9,22.5,48.9z"/>
									<path class="st17" d="M21.5,48.5c0.1-0.1,0-0.4-0.2-0.3S21.3,48.6,21.5,48.5z"/>
									<polygon class="st16" points="28.3,39.6 28.1,56.6 26.9,55.7 27,39.9 									"/>
									<polygon class="st5" points="11.1,57.5 27.3,56 27.6,49.9 11.3,50.8 									"/>
									<polygon class="st11" points="7.6,36.6 7.5,43.4 11.8,43.5 11.8,36.7 									"/>
									<polygon class="st12" points="7.9,42.7 8,37.2 11.4,37.4 11.3,42.8 									"/>
									<polygon class="st13" points="8,37.2 8.9,37.3 11.3,41.7 11.3,42.8 9.7,42.7 8,38.9 									"/>
									<polygon class="st11" points="12.3,36.7 12.2,43.5 16.5,43.6 16.5,36.9 									"/>
									<polygon class="st12" points="12.6,42.8 12.7,37.3 16.1,37.5 16,42.9 									"/>
									<polygon class="st13" points="12.7,37.3 13.6,37.4 16,41.8 16,42.9 14.4,42.9 12.7,39 									"/>
									<polygon class="st11" points="25.5,36.8 25.4,43.7 29.7,43.7 29.7,37 									"/>
									<polygon class="st12" points="25.8,43 25.9,37.5 29.3,37.6 29.2,43 									"/>
									<polygon class="st13" points="25.9,37.5 26.8,37.6 29.2,41.9 29.2,43 27.6,43 25.8,39.2 									"/>
									<polygon class="st11" points="30.2,37 30.1,43.8 34.4,43.9 34.4,37.1 									"/>
									<polygon class="st12" points="30.5,43.1 30.6,37.6 34,37.8 33.9,43.2 									"/>
									<polygon class="st13" points="30.6,37.6 31.5,37.7 33.9,42.1 33.9,43.2 32.3,43.1 30.5,39.3 									"/>
									<polygon class="st11" points="39.8,37.6 40,42.7 43.1,42.6 42.9,37.6 									"/>
									<polygon class="st12" points="40.3,42.1 40.1,38.1 42.6,38.1 42.7,42.1 									"/>
									<polygon class="st13" points="40.1,38.1 40.8,38.1 42.7,41.3 42.7,42.1 41.6,42.1 40.2,39.3 									"/>
									<polygon class="st11" points="43.3,37.6 43.4,42.6 46.6,42.5 46.4,37.6 									"/>
									<polygon class="st12" points="43.7,42.1 43.6,38 46.1,38 46.2,42 									"/>
									<polygon class="st13" points="43.6,38 44.3,38.1 46.2,41.2 46.2,42 45,42 43.6,39.3 									"/>
									<path class="st17" d="M34.8,40.9c-0.3,0.2-0.4,0.6-0.5,0.9c-0.2-0.2-0.8-0.3-0.8,0.1c0.2,0.5-0.4,0-0.5,0.3
										c0.2,1.3-0.5,0.3-0.8,1.5c0.3,0.6-0.7,0.4-0.8,1c0.2,0.9-0.1,1.9,0.9,2.4c-1.1,0.2-0.2,1.3,0.5,1.4
										c-0.1,0.4-0.3,1.3,0.7,1.4c-0.3,0.1-0.6,0.3-0.4,0.5c0.2,0.2,0.6,0.2,0.9,0.1c-0.3,0.6,0.2,1,0.7,0.7
										c-0.2,0.3,0.1,0.7,0.4,0.5c0,0.5,0.3,0.8,0.8,0.9c0.3,0,0.6-0.1,0.7-0.4c0.2,1.1,0.9-0.5,1.4-0.1c1.6-1,0.8-0.2,2.3-0.4
										c0.3-0.1,0.5-0.5,0.4-0.8c0,0,0,0,0-0.1c0.8-0.1,1.4-0.7,1-1.4c0.3,0.1,0.6,0,0.7-0.3s0-0.6-0.3-0.7
										c0.5-0.3,1.2-1.6,0.2-1.8c0.4-0.2,0.6-0.7,0.4-1.1c-0.1-0.2-0.3-0.4-0.6-0.5c0.2-0.4,0-0.9-0.4-1.1c-0.1,0-0.1,0-0.2-0.1
										c0.8-0.4,0.2-0.8-0.3-0.5c0.1-0.2,0.2-0.8-0.1-0.9c-1.2,0.2,0-0.2-1-0.8c-0.8,0-0.5-0.3-1-0.8c-0.2-0.2-0.6-0.2-0.8,0
										c0-0.2-0.1-0.4-0.3-0.5c-0.1,0-0.2,0-0.3,0C37.1,41.4,35.8,40.4,34.8,40.9z"/>
									<path class="st17" d="M34.8,40.9c-0.3,0.2-0.4,0.6-0.5,0.9c-0.2-0.2-0.8-0.3-0.8,0.1c0.2,0.5-0.4,0-0.5,0.3
										c0.2,1.3-0.5,0.3-0.8,1.5c0.3,0.6-0.7,0.4-0.8,1c0.2,0.9-0.1,1.9,0.9,2.4c-1.1,0.2-0.2,1.3,0.5,1.4
										c-0.1,0.4-0.3,1.3,0.7,1.4c-0.3,0.1-0.6,0.3-0.4,0.5c0.2,0.2,0.6,0.2,0.9,0.1c-0.3,0.6,0.2,1,0.7,0.7
										c-0.2,0.3,0.1,0.7,0.4,0.5c0,0.5,0.3,0.8,0.8,0.9c0.3,0,0.6-0.1,0.7-0.4c0.2,1.1,0.9-0.5,1.4-0.1c1.6-1,0.8-0.2,2.3-0.4
										c0.3-0.1,0.5-0.5,0.4-0.8c0,0,0,0,0-0.1c0.8-0.1,1.4-0.7,1-1.4c0.3,0.1,0.6,0,0.7-0.3s0-0.6-0.3-0.7
										c0.5-0.3,1.2-1.6,0.2-1.8c0.4-0.2,0.6-0.7,0.4-1.1c-0.1-0.2-0.3-0.4-0.6-0.5c0.2-0.4,0-0.9-0.4-1.1c-0.1,0-0.1,0-0.2-0.1
										c0.8-0.4,0.2-0.8-0.3-0.5c0.1-0.2,0.2-0.8-0.1-0.9c-1.2,0.2,0-0.2-1-0.8c-0.8,0-0.5-0.3-1-0.8c-0.2-0.2-0.6-0.2-0.8,0
										c0-0.2-0.1-0.4-0.3-0.5c-0.1,0-0.2,0-0.3,0C37.1,41.4,35.8,40.4,34.8,40.9z M33.3,45.4c0.8,0.3,1.1-1.2,2-0.2
										c-0.2-0.8,0.7-0.6,0.9-0.1c0.2,0.2,1.2-0.9,1.6,0.2c1.4-0.9,0.8,0.8,0.5,1.4c0.8-0.5,1.5,0.2,0.6,0.7c0.5,0,1.3,0,1.5,0.6
										s-0.6,0.5-0.9,0.5c0.3,0.2,0.8,0.3,0.8,0.7s-0.2,0.3-0.4,0.2c0.2,0.3,0.4,0.7,0.1,1c-0.5,0.3-0.9-0.3-1,0.5
										c-0.2,0.1-0.3,0-0.4-0.2c0,0.4-0.6,1.1-1,0.6c-0.2-1-0.1,0-0.8-0.1c-1.1,2-0.8-0.2-1.6,0.5c-0.1-1.1,0.6-1-0.6-0.7
										c-0.3-0.2,0.1-0.5,0.3-0.6c-0.2,0-0.4-0.1-0.4-0.3c0-0.2,0.1-0.4,0.3-0.4l0,0c-0.4-0.1-0.6-0.5-0.5-0.8
										c-0.8,0.6-1.4-0.5-0.6-0.9c-0.7-0.1-0.5-0.9,0.3-0.7C33.6,46.7,32.1,45.7,33.3,45.4z"/>
									<path class="st17" d="M34.8,40.9c-0.9,1.7-0.7,0.2-1.2,1.1c0.1,0.5-1.2,0-0.3,1c-0.6,0-1.3,0.5-0.9,1.1
										c-0.4,0-0.8,0.3-0.9,0.7c-0.1,0.3,0.2,0.9,0.3,0.9c-0.1-0.2,0-0.5,0.2-0.6c0.6-0.3,0.9,0.2,1-0.5c0.8-0.4,0.4-1.3,1.7-0.7
										c-0.7-0.7,0.2-1.6,0.9-0.9c0-0.4,0.4-0.7,0.8-0.6c0.9,0.1,0.7,0.9,1.3,0.2c0.2,0,0.4,0.1,0.5,0.3c0,0,0,0.1,0,0.1
										c0.3-0.6,1-0.4,0.8,0.3c0.7-0.7,1.6,0.3,0.9,1c0.2-0.1,0.5-0.2,0.8-0.2c0.6,0.1,0.4,0.8-0.1,1c0.5-0.1,0.5,0.5,0.2,0.7
										c0.5-0.1,1.1-0.2,1.3,0.3s-0.5,0.9-1,1c1.3,0,0.8,1.1-0.3,0.7c1.4,0.7,0.9,1.6,0.1,1.7c0.4,0.1,0.8,0.7,0.3,1
										c-1.2-0.1-0.3,0.8-1.4,0.6c0.3,0.2,0.6,0.7,0.2,0.9c1,0.1,0.5-1.1,1.3-1.2c1-0.7,0-0.9,1.1-1.5c-0.2-0.8,0.4-1.2,0.6-2
										c-0.3-0.5-0.5-0.3,0-0.8c0.2-0.5-0.2-1-0.6-1.1c0.3-0.3,0.2-0.8-0.2-1.1c-0.1-0.1-0.2-0.1-0.3-0.1c0.4-0.4,0.5-0.8-0.5-0.5
										c0.3-0.6-0.1-1.3-0.8-0.8c0.2-0.4,0.1-0.8-0.3-1c-0.2-0.1-0.4-0.1-0.6,0c0.2-0.6-0.7-1.2-1.2-0.8c0-0.2-0.1-0.4-0.4-0.4
										s-0.4,0.1-0.4,0.4l0,0c-0.3-0.2-0.8-0.1-1,0.2C36,40.7,35.4,40.7,34.8,40.9z"/>
									<path class="st17" d="M36,50.1c-0.3,0.3-0.3,1.1,0.3,0.8C36.6,50.6,36.6,49.6,36,50.1z"/>
									<path class="st17" d="M35.1,49.4c-0.7,0.6,0.5,0.7,0.8,0.1C35.9,49.2,35.3,49.3,35.1,49.4z"/>
									<path class="st17" d="M37.5,49.5c-0.1,0.3,0.7,1,0.7,0.4C38.2,49.6,37.7,49.1,37.5,49.5z"/>
									<path class="st17" d="M36.8,49.5c0,0.1,0.2,0.2,0.2,0.1S36.8,49.4,36.8,49.5z"/>
									<path class="st17" d="M37.3,48.1c0.2,0.3,1,0.2,1-0.2C38.1,47.6,37.3,47.7,37.3,48.1z"/>
									<path class="st17" d="M38.4,48.6c0,0.2,0.5,0.3,0.5,0.1S38.5,48.4,38.4,48.6z"/>
									<path class="st17" d="M39,49.6c0.1,0.2,0.3,0.2,0.5,0.2C39.8,49.6,39,49.2,39,49.6z"/>
									<path class="st17" d="M35.2,48.4c-0.1,0.2,0.6,0.6,0.6,0.3S35.3,48.3,35.2,48.4z"/>
									<path class="st17" d="M35.2,46.6c-0.1,0.2,0.2,0.4,0.3,0.2S35.3,46.4,35.2,46.6z"/>
									<path class="st17" d="M33.8,46c-0.2,0.3,0.6,0.7,0.7,0.3S34,45.9,33.8,46z"/>
									<path class="st17" d="M34.8,45.9C34.8,46,35,46.2,35.1,46S34.9,45.7,34.8,45.9z"/>
									<polygon class="st5" points="31.5,55.9 47.7,54.5 47.7,48.5 31.8,49.5 									"/>
									<polygon class="st10" points="28.3,39.6 28.1,56.6 32.1,56.4 32.7,39.7 									"/>
									<polygon class="st7" points="33,39.9 33,39 29.6,38.5 26.4,39.1 26.4,40 29.5,39.6 									"/>
									<polygon class="st7" points="12.3,41 12.2,40.1 8.9,39.7 5.7,40.2 5.6,41.1 8.8,40.8 									"/>
									<polygon class="st10" points="7.6,40.7 7.3,57.7 11.3,57.6 12,40.8 									"/>
									<polygon class="st16" points="7.6,40.7 7.3,57.7 6.1,56.9 6.2,41 									"/>
									
										<linearGradient id="SVGID_00000121982254340378301940000008249618255093513368_" gradientUnits="userSpaceOnUse" x1="11.7961" y1="75.3619" x2="13.0061" y2="75.3619" gradientTransform="matrix(1 0 0 -1 0 126.6379)">
										<stop  offset="0" style="stop-color:#C5C6C8"/>
										<stop  offset="1" style="stop-color:#E9EAEE"/>
									</linearGradient>
									
										<rect x="11.8" y="41.9" style="fill:url(#SVGID_00000121982254340378301940000008249618255093513368_);" width="1.2" height="18.8"/>
									
										<linearGradient id="SVGID_00000023267590098405905890000007986114474207783859_" gradientUnits="userSpaceOnUse" x1="28.6561" y1="75.7319" x2="29.8561" y2="75.7319" gradientTransform="matrix(1 0 0 -1 0 126.6379)">
										<stop  offset="0" style="stop-color:#C5C6C8"/>
										<stop  offset="1" style="stop-color:#E9EAEE"/>
									</linearGradient>
									
										<rect x="28.7" y="41.5" style="fill:url(#SVGID_00000023267590098405905890000007986114474207783859_);" width="1.2" height="18.8"/>
									
										<linearGradient id="SVGID_00000062167481214505511690000018033081588636852132_" gradientUnits="userSpaceOnUse" x1="9.9061" y1="80.3269" x2="31.4461" y2="80.3269" gradientTransform="matrix(1 0 0 -1 0 126.6379)">
										<stop  offset="0" style="stop-color:#C5C6C8"/>
										<stop  offset="1" style="stop-color:#E9EAEE"/>
									</linearGradient>
									<polygon style="fill:url(#SVGID_00000062167481214505511690000018033081588636852132_);" points="10.1,38.9 9.9,53.7 
										31.2,53.3 31.4,39 									"/>
									<path class="st21" d="M16.8,43.4l0.1,1.2h-0.1c-0.1-0.3-0.2-0.6-0.5-0.8c-0.2-0.2-0.5-0.2-0.7-0.2c-0.2,0-0.4,0.1-0.6,0.2
										c-0.2,0.1-0.4,0.3-0.4,0.6c-0.1,0.3-0.2,0.7-0.2,1c0,0.3,0,0.6,0.1,0.8c0.1,0.2,0.3,0.4,0.5,0.5c0.2,0.1,0.5,0.2,0.7,0.2
										c0.2,0,0.4,0,0.6-0.2c0.2-0.2,0.4-0.3,0.6-0.6H17c-0.1,0.3-0.4,0.5-0.6,0.7C16.1,47,15.8,47,15.5,47
										c-0.5,0-1.1-0.2-1.4-0.7c-0.2-0.3-0.4-0.7-0.4-1.2c0-0.3,0.1-0.7,0.2-1c0.1-0.3,0.4-0.5,0.6-0.7c0.3-0.2,0.6-0.2,0.9-0.2
										c0.3,0,0.5,0.1,0.8,0.2c0,0,0.1,0.1,0.2,0.1c0,0,0.1,0,0.1,0C16.7,43.4,16.7,43.4,16.8,43.4L16.8,43.4z"/>
									<path class="st21" d="M19.6,45.8h-1.4L18,46.4c0,0.1-0.1,0.2-0.1,0.3c0,0.1,0,0.1,0.1,0.1c0.1,0.1,0.2,0.1,0.3,0.1V47h-1.1
										v-0.1c0.1,0,0.2,0,0.3-0.1c0.1-0.2,0.2-0.3,0.3-0.5l1.3-2.9h0.1l1.2,2.9c0.1,0.2,0.1,0.3,0.3,0.5c0.1,0.1,0.2,0.1,0.3,0.1
										V47h-1.4v-0.1c0.1,0,0.2,0,0.3-0.1c0,0,0.1-0.1,0.1-0.1c0-0.1,0-0.3-0.1-0.4L19.6,45.8z M19.5,45.6l-0.6-1.4l-0.6,1.4H19.5
										z"/>
									<path class="st21" d="M24.6,47h-0.9l-1.2-1.7h-0.4v1c0,0.1,0,0.3,0.1,0.4c0.1,0.1,0.2,0.1,0.3,0.1h0.1V47h-1.5v-0.1h0.1
										c0.1,0,0.2,0,0.3-0.1c0-0.1,0-0.3,0-0.4v-2.2c0-0.1,0-0.3-0.1-0.4c-0.1-0.1-0.2-0.1-0.3-0.1H21v-0.1h1.3
										c0.3,0,0.6,0,0.8,0.1c0.2,0.1,0.3,0.2,0.5,0.3c0.1,0.1,0.2,0.3,0.2,0.5c0,0.2-0.1,0.4-0.2,0.6c-0.2,0.2-0.4,0.3-0.7,0.3
										l0.7,1c0.1,0.2,0.3,0.3,0.4,0.5C24.2,46.8,24.4,46.9,24.6,47L24.6,47z M22.1,45.2h0.1c0.3,0,0.5-0.1,0.8-0.2
										c0.2-0.1,0.3-0.3,0.3-0.6c0-0.2-0.1-0.4-0.2-0.5c-0.1-0.1-0.3-0.2-0.5-0.2c-0.1,0-0.3,0-0.4,0L22.1,45.2z"/>
									<path class="st21" d="M25.7,43.6v1.4h0.8c0.1,0,0.3,0,0.4-0.1c0.1-0.1,0.2-0.3,0.1-0.4h0.1v1.2H27c0-0.1,0-0.2-0.1-0.3
										c0-0.1-0.1-0.1-0.2-0.2c-0.1,0-0.2-0.1-0.3,0h-0.8v1.2c0,0.1,0,0.2,0,0.3c0,0,0,0.1,0.1,0.1c0.1,0,0.1,0,0.2,0h0.6
										c0.1,0,0.3,0,0.4,0c0.1,0,0.2-0.1,0.3-0.2c0.1-0.2,0.2-0.3,0.3-0.5h0.1L27.4,47h-2.7v-0.1h0.1c0.1,0,0.2,0,0.2-0.1
										c0,0,0.1-0.1,0.1-0.1c0-0.1,0-0.2,0-0.3v-2.3c0-0.1,0-0.3-0.1-0.4c-0.1-0.1-0.2-0.1-0.3-0.1h-0.1v-0.1h2.7v0.8h-0.1
										c0-0.1-0.1-0.3-0.1-0.4c0-0.1-0.1-0.1-0.2-0.2c-0.1,0-0.2,0-0.4,0L25.7,43.6z"/>
									<path class="st21" d="M13.9,49.7h1.6v-1c0-0.1,0-0.2,0-0.4c0,0-0.1-0.1-0.1-0.1c-0.1,0-0.2-0.1-0.2-0.1H15v-0.1h1.5v0.1
										h-0.1c-0.1,0-0.2,0-0.2,0.1c-0.1,0-0.1,0.1-0.1,0.1c0,0.1,0,0.2,0,0.3V51c0,0.1,0,0.2,0,0.4c0,0,0.1,0.1,0.1,0.1
										c0.1,0,0.2,0.1,0.2,0.1h0.1v0.1H15v-0.1h0.1c0.1,0,0.2,0,0.3-0.1c0.1-0.1,0.1-0.3,0.1-0.4v-1.1h-1.6V51c0,0.1,0,0.2,0,0.4
										c0,0,0.1,0.1,0.1,0.1c0.1,0,0.2,0.1,0.2,0.1h0.1v0.1h-1.5v-0.1H13c0.1,0,0.2,0,0.3-0.1c0.1-0.1,0.1-0.3,0.1-0.4v-2.3
										c0-0.1,0-0.2,0-0.4c0,0-0.1-0.1-0.1-0.1c-0.1,0-0.2-0.1-0.2-0.1H13v-0.1h1.5v0.1h-0.1c-0.1,0-0.2,0-0.2,0.1
										c-0.1,0-0.1,0.1-0.1,0.1c0,0.1,0,0.2,0,0.3L13.9,49.7z"/>
									<path class="st21" d="M18.7,48c0.5,0,0.9,0.2,1.2,0.5c0.3,0.4,0.5,0.8,0.5,1.3c0,0.5-0.2,1-0.5,1.3
										c-0.3,0.3-0.8,0.5-1.2,0.5c-0.5,0-0.9-0.2-1.2-0.5c-0.7-0.8-0.7-2,0.1-2.7C17.8,48.1,18.2,48,18.7,48z M18.6,48.2
										c-0.3,0-0.6,0.1-0.8,0.3c-0.5,0.8-0.5,1.8,0,2.6c0.2,0.2,0.5,0.4,0.8,0.4c0.3,0,0.6-0.1,0.8-0.4c0.2-0.4,0.4-0.8,0.3-1.2
										c0-0.5-0.1-1-0.4-1.4C19.2,48.3,18.9,48.2,18.6,48.2z"/>
									<path class="st21" d="M22.7,51.6l-1.4-3V51c0,0.1,0,0.3,0.1,0.4c0.1,0.1,0.2,0.1,0.3,0.1h0.1v0.1h-1.2v-0.1h0.1
										c0.1,0,0.2,0,0.3-0.1c0-0.1,0.1-0.3,0-0.4v-2.3c0-0.1,0-0.2,0-0.3c0-0.1-0.1-0.1-0.1-0.1c-0.1,0-0.2-0.1-0.3,0v-0.1h1
										l1.3,2.8l1.3-2.8h1v0.1H25c-0.1,0-0.2,0-0.3,0.1c-0.1,0.1-0.1,0.3-0.1,0.4V51c0,0.1,0,0.3,0.1,0.4c0.1,0.1,0.2,0.1,0.3,0.1
										h0.1v0.1h-1.5v-0.1h0.1c0.1,0,0.2,0,0.3-0.1c0-0.1,0-0.3,0-0.4v-2.4L22.7,51.6L22.7,51.6z"/>
									<path class="st21" d="M26.4,48.2v1.4h0.8c0.1,0,0.3,0,0.4-0.1c0.1-0.1,0.2-0.3,0.1-0.4h0.1v1.2h-0.1c0-0.1,0-0.2-0.1-0.3
										c0-0.1-0.1-0.1-0.2-0.1c-0.1,0-0.2-0.1-0.3-0.1h-0.8V51c0,0.1,0,0.2,0,0.3c0,0,0,0.1,0.1,0.1c0.1,0,0.1,0,0.2,0h0.6
										c0.1,0,0.3,0,0.4,0c0.1,0,0.2-0.1,0.3-0.2c0.1-0.1,0.2-0.3,0.3-0.5h0.1l-0.3,0.9h-2.7v-0.1h0.1c0.1,0,0.2,0,0.2-0.1
										c0.1,0,0.1-0.1,0.1-0.1c0-0.1,0-0.2,0-0.3v-2.3c0-0.1,0-0.3-0.1-0.4c-0.1-0.1-0.2-0.1-0.3-0.1h-0.1v-0.1h2.7v0.8H28
										c0-0.1-0.1-0.3-0.1-0.4c0-0.1-0.1-0.1-0.2-0.2c-0.1,0-0.2,0-0.4,0L26.4,48.2z"/>
									<circle class="st22" cx="19.1" cy="40.9" r="1.1"/>
									<circle class="st23" cx="20.8" cy="40.9" r="1.1"/>
									<circle class="st24" cx="22.5" cy="40.9" r="1.1"/>
									<polygon class="st11" points="50.9,46 50.7,37.4 61.3,37.4 61.2,45.7 									"/>
									<polygon class="st12" points="60.7,45.2 51.4,45.5 51.3,37.9 60.8,38 									"/>
									<path class="st8" d="M54.9,48.5c0,0.9-2.5,0.9-2.5,0S55,47.6,54.9,48.5z"/>
									<path class="st9" d="M54.9,48.3c0,0.9-2.5,0.9-2.5,0S54.9,47.4,54.9,48.3z"/>
									
										<linearGradient id="SVGID_00000062173345156154857070000015172982201198927515_" gradientUnits="userSpaceOnUse" x1="46.5361" y1="99.2136" x2="48.3961" y2="99.2136" gradientTransform="matrix(1 0 0 -1 6.22 141.1579)">
										<stop  offset="0" style="stop-color:#C5C6C8"/>
										<stop  offset="1" style="stop-color:#E9EAEE"/>
									</linearGradient>
									<path style="fill:url(#SVGID_00000062173345156154857070000015172982201198927515_);" d="M54.6,48.2c0,0.7-1.8,0.8-1.9,0
										v-13h1.9V48.2z"/>
									<polygon class="st10" points="48.4,40.6 48.2,55 51.6,54.9 52.1,40.7 									"/>
									<polygon class="st16" points="48.4,40.6 48.2,55 47.2,54.3 47.3,40.8 									"/>
									<polygon class="st7" points="52.4,40.8 52.4,40.1 49.5,39.7 46.8,40.1 46.7,40.9 49.4,40.6 									"/>
									<polygon class="st6" points="52.5,31.9 68,32.9 76.5,36.5 52,36 									"/>
									<polygon class="st11" points="64.7,37.1 64.8,41 67.2,40.9 67.1,37.1 									"/>
									<polygon class="st12" points="65,40.6 64.9,37.5 66.9,37.5 66.9,40.5 									"/>
									<polygon class="st13" points="64.9,37.5 65.5,37.5 66.9,39.9 66.9,40.5 66,40.5 65,38.4 									"/>
									<polygon class="st11" points="67.6,37.1 67.8,40.9 70.2,40.8 70,37.1 									"/>
									<polygon class="st12" points="68,40.5 67.9,37.4 69.8,37.4 69.9,40.4 									"/>
									<polygon class="st13" points="67.9,37.4 68.4,37.4 69.9,39.8 69.9,40.4 69,40.5 67.9,38.4 									"/>
									<polygon class="st26" points="46.6,103.6 33.9,81.9 28.7,94.7 40.2,110.6 									"/>
									<path class="st27" d="M83.3,86.7c4.1,5.6,1.1,11.4-5.1,38.5c-1.1,5-2.9,7.2-4.8,10c-4.7,6.9-15.4,4.3-16.6-4
										c3.4-15.5,8.4-30.7,14.9-45.2c0.5-0.8,2.3-3.3,5-3.4C80,82.3,82.5,85.7,83.3,86.7z"/>
									<path class="st27" d="M64.8,138.3c-6.8-0.1-8.8-5.1-23.8-23.1c-0.9-1.1-1.7-2.3-2.4-3.6c-0.9-1.8-2.4-3.9-1.5-4.7
										c4.1-3.9,8.9-6.9,14.2-9c8.6,10.1,15.9,21.2,21.8,33.1c0.5,1.8,0.2,3.7-1,5.1C70,138.4,66,138.3,64.8,138.3z"/>
									<path class="st28" d="M37,104.3l14.8,1.1c0.4,0,0.8-0.2,1.1-0.5l0.1-0.1c0.3-0.3,0.3-0.8,0.2-1.2l-8.5-23.3
										c-0.2-0.5-0.7-0.8-1.2-0.8l-12.7,0.1c-0.4,0-0.7,0.1-0.9,0.4l-0.5,0.6c-0.3,0.3-0.4,0.8-0.3,1.2l6.8,21.6
										C36.1,103.9,36.5,104.2,37,104.3z"/>
									<path class="st29" d="M37.9,105.4H50c1,0,1.8-0.8,1.8-1.8c0-0.2,0-0.4-0.1-0.6L44,81.7c-0.3-0.7-0.9-1.2-1.7-1.2H30.2
										c-1,0-1.8,0.8-1.8,1.8c0,0.2,0,0.4,0.1,0.6l7.7,21.2C36.5,104.9,37.2,105.4,37.9,105.4z"/>
									
										<ellipse transform="matrix(0.8132 -0.582 0.582 0.8132 -40.7241 39.7418)" class="st30" cx="41.5" cy="83.3" rx="1.2" ry="1.7"/>
									
										<ellipse transform="matrix(0.8132 -0.582 0.582 0.8132 -40.6868 39.7371)" class="st31" cx="41.6" cy="83.2" rx="0.8" ry="1"/>
									
										<ellipse transform="matrix(0.8132 -0.582 0.582 0.8132 -40.6868 39.7371)" class="st32" cx="41.6" cy="83.2" rx="0.6" ry="0.7"/>
									<path class="st26" d="M37.4,106.5c-3.9-2.7-7.6-5.4-9.5-9.1l-2.3-8.8c0.1-0.4,1.1-3.6,3.9-4.6c1.5-0.5,3.9-0.5,4.3,0.3
										c0.1,0.2,0.1,0.3,0,0.5c-0.4,0.9-2.7,0.3-4,1.4c-0.6,0.6-0.8,1.5-0.7,2.3c0.5,0.5,1,0.9,1.6,1.3c1.4-0.6,2.9-0.9,4.4-0.9
										c3,0,6.1,1.3,5.9,2.2c0,0.1-0.1,0.2-0.2,0.2c-1.2,1.1-5.1-0.1-5.8-0.3L30.9,92c1.3-0.3,2.7-0.5,4.1-0.4
										c2.7,0.1,5.9,1.2,5.7,2c0,0.1,0,0.1-0.1,0.2c-0.7,1-5,0.3-6.2,0.1l-3.3,0.5c1.5-0.1,3,0,4.4,0.4c1.9,0.5,2,1,2,1.1
										c0,0.1-0.1,0.3-0.1,0.4c-0.5,0.5-1.7,0.1-3.4-0.1c-1-0.1-1.9-0.2-2.9-0.2C31.1,98.4,34.5,102.6,37.4,106.5z"/>
									<path class="st27" d="M77.7,81.7l-2.6,52c14.9,8.6,29.1,4.2,49.2-3.3c0.4-30.3,12.1-45.2,5.4-48.6
										C110,71.7,93.6,72.4,77.7,81.7z"/>
									<path class="st33" d="M80.6,82.1c-1.3-1.5-1.9-3.4-1.9-5.4c0.3-3.4,2.6-6.2,5.8-7.2c12.7-2.3,25.5-5.6,37.5,1.7
										c2.4,1.4,1.9-1.1,2.6,5c0.4,3.8-2.2,1.3-3.7,2C104.9,86,93.7,100.6,80.6,82.1z"/>
									<path class="st34" d="M78.2,138c2.8-14.2,2.8-29.9,0.3-47"/>
									<path class="st27" d="M80.5,80.3c-1.3-1.5-1.9-3.4-1.9-5.4c0.3-3.4,2.6-6.2,5.8-7.2c12.7-2.3,25.5-5.6,37.5,1.7
										c2.4,1.4,7.4,5.1,8,11.1c0.4,3.8-7.4-2.8-8.9-2.2C103.3,86,90.3,98.6,80.5,80.3z"/>
									<path class="st33" d="M96.3,85.1c12.3-4.4,19.5-5,25.4-11.5c-12-10.6-23.8-10.3-37.5-1.2C84.7,78,88.9,80.4,96.3,85.1z"/>
									<path class="st33" d="M98.7,85.6c2.2,8.6,4.3,17.2,1.5,24.8c0.5,0.8,0.8,1,1-0.2c3.4-7.8,0.4-16.5-1.7-25L98.7,85.6z"/>
									<path class="st33" d="M94.1,86.2c-2,8.6-3.9,17.2-1.3,24.8c-0.4,0.8-0.8,1-0.9-0.2c-3-7.8-0.4-16.5,1.6-25L94.1,86.2z"/>
									<path class="st26" d="M112.7,58.2l0.4,18c-2.7,2.5-8.1,5.2-16.8,8.6c-0.8,0.5-3.5-2-5.2-2.8L94,67.9L112.7,58.2z"/>
									<path class="st35" d="M92.2,76.9c13.8-3.1,19-10.4,18.8-16.4L92.3,72.6L92.2,76.9z"/>
									<path class="st26" d="M79.7,38.3c-1.9,12.4-2.2,22.2-0.4,29.5c1.7,7.1,12.5,5.7,14.1,5.7c11.8-0.1,18-10.8,18.3-11.3
										c2.9-7.4,4.1-15.3,3.8-23.3c-0.3-6.7-0.6-11.9-4.4-15.8c-5.7-5.7-16.5-6.1-23.2-1.4C83.5,24.8,81,29.1,79.7,38.3z"/>
									<ellipse class="st36" cx="98.1" cy="46.5" rx="1.9" ry="2.6"/>
									<ellipse class="st36" cx="84.9" cy="45.9" rx="1.9" ry="2.6"/>
									<polygon class="st35" points="92.4,54.9 87.4,54.6 89.7,44.1 89.9,44.2 88.8,53.5 92.3,54.7 									"/>
									<polygon class="st36" points="88.6,53.7 89.9,43.9 90.2,43.9 89.2,53.7 									"/>
									<path class="st37" d="M82,40.9c0.6-1.5,2.3-2.2,3.8-1.6"/>
									<path class="st37" d="M96.8,39.6c2.3-0.7,3.4,0.3,3.9,1.5"/>
									
										<linearGradient id="SVGID_00000067940719401587957670000017973826164258506669_" gradientUnits="userSpaceOnUse" x1="5288.3213" y1="94.2569" x2="5288.3213" y2="108.9669" gradientTransform="matrix(1 0 0 -1 -5177.3398 141.1579)">
										<stop  offset="0" style="stop-color:#A15149"/>
										<stop  offset="1" style="stop-color:#3C3378"/>
									</linearGradient>
									<path style="fill:url(#SVGID_00000067940719401587957670000017973826164258506669_);" d="M107.6,45.6l3.2,1.3l5.5-2.9
										c-0.1-2.4-0.1-4.7-0.2-7.1c0.1-1.6,0.1-3.2-0.1-4.7h-10.4c0.3,0.6,0.5,1.1,0.8,1.7C108,37.6,108.4,41.7,107.6,45.6z"/>
									<path class="st26" d="M109.5,47.9c1.3-3.7,5.5-6.5,7.4-5.5c2.1,1.1,1.9,7-0.8,10.6c-0.2,0.3-2.7,3.6-4.8,3
										S108.3,51.1,109.5,47.9z"/>
									<path class="st35" d="M115.6,43.8c-2-0.3-4.3,6.7-4.3,6.7l0,0c0.2,0,1.4-0.7,1.9-0.2c0.1,0.1,0.2,0.3,0.2,0.3
										c0-0.2-0.1-0.4-0.2-0.6c-0.4-0.4-1.6,0.2-1.9,0.4c0.4-0.7,2.3-5.7,4-6c0.6-0.1,1.3,0.5,1.3,0.3S116.2,43.9,115.6,43.8z"/>
									<path class="st39" d="M118.5,27.3c0.4-0.6,0.6-1.2,0.6-1.9c-0.2-2.3-2.2-4.1-4.5-3.9h-0.1c0.1-0.3,0.1-0.6,0.1-0.9
										c-0.2-2.3-2.2-4.1-4.5-3.9c-0.9,0-1.7,0.2-2.5,0.6c-0.2-2.3-2.2-4-4.5-3.9c-1.1,0-2.3,0.4-3.1,1.1
										c-0.7-1.7-2.4-2.7-4.2-2.7c-1.5,0-2.9,0.7-3.8,1.9c-0.9-1.1-2.2-1.7-3.6-1.6c-2.3-0.1-4.3,1.6-4.5,3.8
										c-0.5-0.2-1.1-0.3-1.7-0.3c-2.3-0.1-4.3,1.6-4.5,3.9c0,0.4,0.1,0.8,0.2,1.1c-0.7,0.7-1.2,1.6-1.2,2.6c0,0.1,0,0.1,0,0.2
										c-1.3,0.6-2.2,1.9-2.2,3.4c0.2,2.5,2.4,4.3,4.9,4.1c2.2-0.2,3.9-1.9,4.1-4.1c1.2-0.1,3.1-1.7,5.6-1.7
										c1.4,0,1.7,0.3,4.2,0.9c5.3,1.2,6.1,0.4,8.1,1.4c1.9,1,3.4,2.7,4.2,4.7h6.4c0.8,1.5,2.3,2.4,4,2.4c2.3,0.1,4.3-1.6,4.5-3.9
										C120.5,29.2,119.7,27.9,118.5,27.3z"/>
									<path class="st40" d="M99,25.8c4.1,4.4,7.1,8.7,6.3,13.2"/>
									<path class="st40" d="M89,23.7c-6.9,2.4-8,7.3-11.4,10.9"/>
									<path class="st27" d="M93.2,89.9c6.7-12.1,17.7-17.7,30.1-17.5l2.3,6.7C116.6,76.5,105.5,83.7,93.2,89.9z"/>
								</g>
							</g>
						</g>
						<circle class="st41" cx="64.8" cy="64.8" r="62.7"/>
					</g>
				</g>
			</g>
		</g>
	</g>
</g>
</svg>
