<svg xmlns="http://www.w3.org/2000/svg" xmlns:xlink="http://www.w3.org/1999/xlink" viewBox="0 0 144.97 117.31"><defs><style>.cls-1,.cls-21,.cls-26{fill:none;}.cls-2{fill:#e6e6e6;}.cls-3{fill:#8277ab;}.cls-32,.cls-4{fill:#fff;}.cls-5{fill:#716794;}.cls-6{fill:#eb2700;}.cls-7{fill:#fcee21;}.cls-8{fill:#8cc63f;}.cls-9{fill:#efeeee;}.cls-10{fill:#31ab94;}.cls-11{clip-path:url(#clip-path);}.cls-12{fill:#e8d8e4;}.cls-13{fill:#edd6bb;}.cls-14{fill:#6585f5;}.cls-15{fill:#7f9af7;}.cls-16,.cls-19{fill:#f8c7a3;}.cls-17{fill:#e3b696;}.cls-18{fill:#949494;}.cls-19{stroke:#d1a894;}.cls-19,.cls-21,.cls-26{stroke-miterlimit:10;}.cls-20{fill:#412a74;}.cls-21{stroke:#2e3192;stroke-linecap:round;}.cls-22{fill:#a67c52;}.cls-23{fill:#ebf4ff;opacity:0.34;}.cls-24{fill:#247d6c;}.cls-25{fill:#f5f5f5;}.cls-26{stroke:#1b1464;stroke-width:2px;opacity:0.22;}.cls-27{fill:#56399c;}.cls-28{fill:#ff9c50;}.cls-29{fill:#de8846;}.cls-30{fill:#d9ae8e;}.cls-31{fill:#c9665a;}.cls-32{opacity:0.18;}.cls-33{fill:#1b1464;}.cls-34{fill:#cc9fc7;}.cls-35{fill:#7b64b3;}.cls-36{fill:#6b5a91;}</style><clipPath id="clip-path"><circle class="cls-1" cx="87.9" cy="47.55" r="46.55"/></clipPath><symbol id="service-left-white" data-name="service-left-white" viewBox="0 0 86.16 99.82"><path class="cls-2" d="M10.5.59c-4.2-.8-8.7,1.8-8.8,6.2L0,88.59a10.61,10.61,0,0,0,11.4,10.8"/><path class="cls-3" d="M4.9,10.39,1.6,11C.5,2.79,5.2-.91,12.5.19Z"/><path class="cls-4" d="M71.5,11c-54-8.1-67.1-16.5-67.1-.6,0,25.5,0,34.8-1,78.6a10.61,10.61,0,0,0,11.4,10.8L77.7,95a8.7,8.7,0,0,0,8-9.5L80,20.19A10.1,10.1,0,0,0,71.5,11Z"/><polygon class="cls-4" points="4.5 10.49 3.6 76.09 84.7 74.89 80.3 22.79 4.5 10.49"/><path class="cls-5" d="M80.3,22.79l-76-12.3C3.5,5.19,7.2-.91,13.2.29L72.2,11C77.9,12,80.5,17.49,80.3,22.79Z"/><path class="cls-6" d="M31.11,7.7c-1.6-3.5-5.7-1.6-4,1.9S32.81,11.2,31.11,7.7Z"/><path class="cls-7" d="M23.61,6.4c-1.6-3.5-5.7-1.6-4,1.9S25.31,9.9,23.61,6.4Z"/><path class="cls-8" d="M15.51,5.3c-1.6-3.5-5.7-1.6-4,1.9S17.21,8.8,15.51,5.3Z"/><path class="cls-9" d="M11.8,99.49c4.2-.9,67.6-1.9,69.5-5.3,6.2-3,5-12.6,4.2-19.3l-1,.1c1.2,9.1,1.9,19.2-8.7,20.1-1.3.4-62.3,4-63.6,4.2a9.2,9.2,0,0,1-3.1-.7l-.1-.1C9.5,99.09,10.2,99.49,11.8,99.49Z"/><polygon class="cls-9" points="3.6 76.79 85.6 75.39 80.3 22.79 79.4 22.69 84.5 74.39 3.6 75.79 3.6 76.79"/><polygon class="cls-10" points="81.31 80.67 81.24 87 79.81 87.18 78.84 89.49 78.09 87.1 73.41 87.45 73.63 80.89 81.31 80.67"/><polygon class="cls-10" points="34.2 89.34 33.85 82.4 41.74 81.96 41.76 83.77 43.81 82.42 44.15 88.52 42.08 87.26 42.1 89.07 34.2 89.34"/><path class="cls-10" d="M16.32,83.21a4.93,4.93,0,0,1,3.2-4c4.72,4.6-3.2,17.64-9.46,14.06-.26-1.92.76-3.45,2.55-4.86A2.86,2.86,0,0,1,14,90.75c2.43-1.53,4.22-3.45,4.47-6.26A7.48,7.48,0,0,1,16.32,83.21Z"/><polygon class="cls-9" points="69.75 95.23 68.75 95.3 67.25 74.86 68.25 74.78 69.75 95.23"/><polygon class="cls-10" points="55.01 83.03 55.01 81.25 63.53 81.25 63.53 82.56 59.32 84.72 55.01 83.03"/><polygon class="cls-10" points="63.53 83.69 63.62 89.11 55.1 89.49 55.01 84.25 59.5 85.93 63.53 83.69"/><polygon class="cls-9" points="50.65 96.75 49.65 96.8 48.55 75.73 49.55 75.68 50.65 96.75"/><polygon class="cls-9" points="28.9 98.46 27.9 98.5 27.11 75.91 28.11 75.88 28.9 98.46"/></symbol></defs><g id="Layer_2" data-name="Layer 2"><g id="bereavementgroup"><g id="bereavement6"><g class="cls-11"><circle class="cls-12" cx="87.9" cy="47.55" r="46.55"/><polygon class="cls-13" points="34.8 60.48 144.97 93.27 130.65 117.31 37.23 102.2 34.8 60.48"/><path class="cls-14" d="M90.48,51.44l1.13,34.32c9,4.58,19.56,3.63,31.1-1.41l-1.1-34.61C109.75,44.5,99.49,45.52,90.48,51.44Z"/><path class="cls-15" d="M121.12,49c4,1.43,4.5,5.48,10.75,21.44a15.77,15.77,0,0,1,1,6.79,5.64,5.64,0,0,1-9.86,3.68,141.59,141.59,0,0,1-8-28.27,4.48,4.48,0,0,1,1.35-3.49C118,47.87,120.39,48.73,121.12,49Z"/><path class="cls-15" d="M132,80c-1.47,3.46-5.14,3.67-19.81,8.39a13.68,13.68,0,0,1-2.83.62c-1.35.16-3,.6-3.33,0a20.45,20.45,0,0,1-2.86-8.73A131.73,131.73,0,0,1,129,74.55a4.09,4.09,0,0,1,3.08,1.32C133.13,77.31,132.24,79.39,132,80Z"/><path class="cls-16" d="M104.51,81.63l-3.46.32a6.64,6.64,0,0,0-2.86-1.59,7.45,7.45,0,0,0-4,.23,9.7,9.7,0,0,0-2.35,1c-1.57.9-2.82,1.61-2.84,2.62s1,1.84,2.36,2.39a30.78,30.78,0,0,0,3.55,1.07,31.79,31.79,0,0,0,6.23.83l4.68-1.09Z"/><path class="cls-16" d="M109.14,39,110,49.55c-1.48,1.56.24-.15-4.73,2.14-1.32,1.08-7.52,1.33-8,.38l1.17-6.78Z"/><path class="cls-17" d="M97.42,50.58c8-2.26,11.07-6.66,10.79-10.22l-10.6,7.71Z"/><path class="cls-16" d="M87.64,54.21l1.52-10.09,3-9.53-6.34-3.71a7.13,7.13,0,0,0-2.27,1.85c-1.46.81-2.83,5.94-2.83,9.39a7.63,7.63,0,0,0,1.92,4.74l-1.91,5.69A12.42,12.42,0,0,0,87.64,54.21Z"/><path class="cls-18" d="M87.49,29.16,81.63,42a1.9,1.9,0,0,0,.93,2.51l6,2.78A1.9,1.9,0,0,0,91,46.34l6-12.69a1.9,1.9,0,0,0-.91-2.53L90,28.24A1.89,1.89,0,0,0,87.49,29.16Z"/><path class="cls-19" d="M83.65,35.28l1.81,1.83a18.63,18.63,0,0,1,.85,3.32,2.69,2.69,0,0,1-.07,1.12,1.72,1.72,0,0,1-.68,1,.88.88,0,0,1-.62.17c-.07,0-.36-.07-.72-.73a4.25,4.25,0,0,1-.46-1.71l-1.58-2.06"/><path class="cls-19" d="M85.24,33.36l1.53,1.94a8.73,8.73,0,0,1,1,3.6,7.75,7.75,0,0,1,0,.83,1.09,1.09,0,0,1-.5.88.68.68,0,0,1-.51.08c-.27-.1-.39-.41-.49-.68-.15-.44-.34-1-.53-1.78L84.4,36.09"/><path class="cls-19" d="M85.14,33l1.39,2.14a7.09,7.09,0,0,0,.53,1.75c.13.3.28.57.55.64a.73.73,0,0,0,.5-.06,1,1,0,0,0,.48-.67,1.73,1.73,0,0,0,0-.83c-.16-.64-.53-2-1.09-3.76-.36-.82-1-1.08-1.67-1.55"/><path class="cls-16" d="M91.91,25.34c-2.72,6.83-4.2,12.42-4.16,16.87s6.41,4.92,7.35,5.13c6.78,1.49,11.77-3.8,12-4.05a33.72,33.72,0,0,0,5.25-12.84c.7-3.9,1.86-7.38-.45-9.62-3-2.9-9.3-4.23-13.11-3.88C95.68,17.23,93.94,20.26,91.91,25.34Z"/><ellipse class="cls-20" cx="101.39" cy="32.51" rx="1.53" ry="1.12" transform="translate(46.9 123.99) rotate(-77)"/><ellipse class="cls-20" cx="93.9" cy="30.39" rx="1.53" ry="1.12" transform="translate(43.16 115.05) rotate(-77)"/><polygon class="cls-17" points="96.99 36.53 94.16 35.71 96.87 30.04 96.98 30.11 95.14 35.28 96.97 36.41 96.99 36.53"/><polygon class="cls-20" points="95 35.34 97.02 29.91 97.19 29.96 95.35 35.42 95 35.34"/><path class="cls-21" d="M92.93,26.69a2.46,2.46,0,0,1,2.37.61"/><path class="cls-21" d="M101.15,28.77a2.46,2.46,0,0,1,2.37.61"/><path class="cls-22" d="M108.61,34.42l-1.69-1.17a12.44,12.44,0,0,1,.89-6.88,9.18,9.18,0,0,1,5.59,1.26c.81.4,0,2.82-1.24,5.83Z"/><path class="cls-16" d="M107.71,34.8c1.23-1.93,4-3,5-2.14s.16,4.25-1.85,6c-.15.12-2,1.72-3.15,1.09S106.63,36.49,107.71,34.8Z"/><path class="cls-17" d="M111.78,33.29c-1.1-.44-3.35,3.25-3.34,3.28h0c.09,0,.91-.21,1.11.11a1,1,0,0,1,.08.22.44.44,0,0,0,0-.36c-.2-.29-.94-.07-1.13,0,.31-.33,2.08-3,3.08-2.92.35,0,.67.44.72.37S112.1,33.42,111.78,33.29Z"/><path class="cls-17" d="M99.59,33.16A2.74,2.74,0,0,0,103,35c-1.26,1.08-2.49,1-3.65-1.28Z"/><path class="cls-17" d="M94.8,31.82c-1,1.18-2,1.3-2.84.34.38,1.46,1.19,1.82,2.77.21Z"/><path class="cls-22" d="M95.05,36.56c-.44-.11-2.82-.64-4,.65-.54.58-.83,1.55-.63,1.71s.39-.22.84-.16.49.39.88.4.46-.28.75-.22.3.51.65.65.63-.33,1.13-.24.47.53.93.61.67-.4,1.15-.33.54.69,1.11.8.65-.28,1-.15.61.9.77.87.36-1.23,0-2.15C98.87,37,95.59,36.61,95.05,36.56Z"/><path class="cls-23" d="M88.86,30.89c.81,2.19,4.46,3,6.15,1.42,1.3-1.25.87-3.41.83-3.6a17.51,17.51,0,0,0-6.15-1.42C89.57,27.44,88.23,29.2,88.86,30.89Z"/><path class="cls-24" d="M88.67,31h0c-.66-1.77.7-3.59.86-3.79l.06-.08h.11a17.82,17.82,0,0,1,6.22,1.43l.09,0,0,.1c0,.25.48,2.48-.89,3.79A4.33,4.33,0,0,1,88.67,31Zm1.12-3.46a3.85,3.85,0,0,0-.74,3.33h0a3.93,3.93,0,0,0,5.82,1.34,3.85,3.85,0,0,0,.79-3.31A17.62,17.62,0,0,0,89.79,27.49Z"/><path class="cls-23" d="M97.58,33.11c.83,2.38,5,3.34,6.75,1.56a4.26,4.26,0,0,0,.83-3.6c-2.41-1.06-4.72-1.79-6.75-1.56C98.23,29.76,97,31.46,97.58,33.11Z"/><path class="cls-24" d="M97.39,33.17h0a4.41,4.41,0,0,1,.86-3.78l0-.07h.09c1.8-.2,3.91.28,6.85,1.57l.1.05,0,.1a4.4,4.4,0,0,1-.89,3.78,4.73,4.73,0,0,1-7.08-1.64Zm1.13-3.47A4,4,0,0,0,97.77,33h0a4.35,4.35,0,0,0,6.42,1.48,4,4,0,0,0,.79-3.31C102.21,30,100.21,29.54,98.52,29.7Z"/><path class="cls-24" d="M98.06,30.17a1.4,1.4,0,0,0-2-.59l-.1.35a1.39,1.39,0,0,1,2,.4Z"/><polygon class="cls-24" points="105.3 31.87 108.35 34.03 108.16 34.25 105.27 32.37 105.3 31.87"/><polygon class="cls-14" points="97.93 66.54 77.15 77.81 73.49 72.87 91.7 50.18 97.93 66.54"/><path class="cls-15" d="M84,66.91l6.2-19.09-9.3-2.89c-1.06,2.61-2,4.82-2.75,6.5-1.61,3.63-4.08,9-6.41,15.6-1.21,3.45-1.56,4.9-.94,6.49a6.5,6.5,0,0,0,6.39,4,6.79,6.79,0,0,0,5.87-7.08"/><path class="cls-25" d="M100.91,52.57l-3,5.17c-2.3-2.84-3.56-5.24-2.72-9a15.87,15.87,0,0,0,2.5-.12C97.74,52.19,98.88,52.49,100.91,52.57Z"/><path class="cls-25" d="M109.58,43.8c-1.22,6.2-4.1,8.77-8.69,8.75l4,6c3.83-3,6.93-7.15,6.6-12.13Z"/></g><circle class="cls-26" cx="87.9" cy="47.55" r="46.55"/><use width="86.16" height="99.82" transform="translate(0 10) scale(0.65)" xlink:href="#service-left-white"/><ellipse class="cls-8" cx="34.39" cy="25.77" rx="1.21" ry="1.66" transform="translate(-7.69 17.06) rotate(-25.16)"/><path class="cls-27" d="M16.25,41h0Z"/><path class="cls-27" d="M16.85,40.69l.24-.09-.81.39A5.12,5.12,0,0,1,16.85,40.69Z"/><path class="cls-27" d="M10.65,55c3.19-9.67,3.58-12.7,5.6-14h0l.81-.39c7.16-3.38,13.57-3,19.39.4,1.17,6.65,1.84,12.8,1.49,17.94l-13.46.21-7.07.11-1.52,0-5.49.08H10.2A10.14,10.14,0,0,1,10.65,55Z"/><circle class="cls-28" cx="22.22" cy="19.83" r="6.25"/><circle class="cls-29" cx="25.07" cy="22.62" r="6.25"/><circle class="cls-14" cx="25.8" cy="22.87" r="5.97"/><path class="cls-28" d="M19.65,21.5a12.86,12.86,0,0,1,.27,4.37,13.16,13.16,0,0,1-1.25,4.37,20.27,20.27,0,0,0,.25-4.69,19.51,19.51,0,0,0-.59-3.7Z"/><path class="cls-28" d="M21.18,21.64a13.56,13.56,0,0,1-5,7.34,20.57,20.57,0,0,0,2.42-4.06,19.39,19.39,0,0,0,1.21-3.55Z"/><path class="cls-28" d="M27.14,39.18c4.54-1.08,6.79-5.2,7.44-6.38,2.66-4.87,3.07-12.18-.26-14.44a4.42,4.42,0,0,0-2.65-.69A8.53,8.53,0,0,0,25.15,17c-4.56,1.57-7.16,7.2-6.3,11.38s5.37,5.94,4.59,7.85Z"/><path class="cls-16" d="M23.37,32.55l-.14,6.88a5.76,5.76,0,0,0,.92,1,4.14,4.14,0,0,0,2.73,1c.38.41,1.28-.25,1.77-.37a3.94,3.94,0,0,0,1.14-.65c0-1.81-.44-2.12-.46-3.93Z"/><path class="cls-16" d="M24.74,29.52c-.5-1.41-2.1-2.46-2.83-2.09s-.72,2.67.29,4.05c.08.11,1,1.39,1.84,1.16S25.17,30.74,24.74,29.52Z"/><path class="cls-30" d="M29.64,39.8c-2.83-2.15-5.42-4.35-5.73-6.39l5.44,3.53A14.09,14.09,0,0,1,29.64,39.8Z"/><path class="cls-16" d="M32.27,21.18c4.65,1.36,5.45,15.33-1,15.74-3.55.37-6.37-.7-7.87-4.38l1-4.76C27.53,25.59,29,23.87,32.27,21.18Z"/><path class="cls-31" d="M22.38,28c.76-.12,1.65,2.55,1.63,2.57h0c-.06,0-.54-.27-.72-.1a.42.42,0,0,0-.08.13.29.29,0,0,1,.08-.22c.17-.16.6.09.71.17-.15-.25-.88-2.19-1.52-2.29-.23,0-.49.18-.51.12S22.16,28,22.38,28Z"/><ellipse class="cls-20" cx="28.98" cy="28.09" rx="0.72" ry="1"/><ellipse class="cls-20" cx="34.03" cy="27.84" rx="0.72" ry="1"/><path class="cls-20" d="M34.5,27.46a1.51,1.51,0,0,0,1-.49,1.18,1.18,0,0,1-1.15.12Z"/><path class="cls-20" d="M28.4,28a1.62,1.62,0,0,1-1-.49,1.17,1.17,0,0,0,1.15.11Z"/><polygon class="cls-30" points="31.18 31.27 33.09 31.17 32.2 27.18 32.12 27.22 32.53 30.75 31.21 31.2 31.18 31.27"/><polygon class="cls-20" points="32.61 30.81 32.12 27.08 32.01 27.09 32.38 30.81 32.61 30.81"/><path class="cls-21" d="M34.9,25.84a1.1,1.1,0,0,0-1-.36"/><path class="cls-28" d="M32.49,18.18c4,1.35,5.32,5.06,5.84,9.41-1.4-4.54-3.07-8.45-6.38-8.51Z"/><path class="cls-28" d="M33.66,18.46c4.19,4.16,3.88,8.88,2.33,13.75.58-5.67.52-10.87-3.43-13.18Z"/><circle class="cls-32" cx="35.1" cy="28.15" r="2.55"/><path class="cls-33" d="M32.4,28.15a2.71,2.71,0,1,1,2.7,2.7A2.7,2.7,0,0,1,32.4,28.15Zm.3,0a2.41,2.41,0,1,0,2.4-2.41A2.41,2.41,0,0,0,32.7,28.15Z"/><circle class="cls-32" cx="28.86" cy="27.99" r="2.55"/><path class="cls-33" d="M26.15,28a2.71,2.71,0,1,1,2.71,2.71A2.71,2.71,0,0,1,26.15,28Zm.3,0a2.41,2.41,0,1,0,2.41-2.4A2.41,2.41,0,0,0,26.45,28Z"/><path class="cls-33" d="M32.71,27.33a2.39,2.39,0,0,0-1.45,0l.08.37a2.14,2.14,0,0,1,1.28,0Z"/><polygon class="cls-33" points="26.3 27.55 23.78 28.11 24.1 28.42 26.27 27.91 26.3 27.55"/><circle class="cls-34" cx="28.06" cy="47.31" r="0.41"/><circle class="cls-34" cx="28.06" cy="52.59" r="0.41"/><circle class="cls-34" cx="28.06" cy="57.87" r="0.41"/><path class="cls-35" d="M30.28,39.74c.14-.81-.23-1.69-.53-1.7s-.26.54-.66,1c-.7.85-2.14.73-3.38.26-1.66-.62-2.28-2-2.8-1.82-.19.09-.38.42-.29,1.54a4.75,4.75,0,0,0,1.5,1.66,5.08,5.08,0,0,0,3,.82A3.49,3.49,0,0,0,29.55,41,2.18,2.18,0,0,0,30.28,39.74Z"/><ellipse class="cls-20" cx="21.85" cy="28.71" rx="1.89" ry="2.69"/><ellipse class="cls-36" cx="21.39" cy="28.77" rx="1.89" ry="2.69"/><polygon class="cls-36" points="21.73 30.32 23.53 32.63 26.84 34.25 26.74 34.57 23.34 33.13 21.41 30.52 21.73 30.32"/><rect class="cls-20" x="26.26" y="34.18" width="1.82" height="1.26" rx="0.63" transform="translate(46.46 74.53) rotate(-167.92)"/><path class="cls-20" d="M21.59,26a9,9,0,0,1,1.59-5.32A7.73,7.73,0,0,1,31,17.54l.23.06A7.93,7.93,0,0,0,23.61,21a8.28,8.28,0,0,0-1.38,5.26Z"/><path class="cls-27" d="M33.05,43.4c-.81,2.62.94,4.12,6.19,12.47a7.88,7.88,0,0,0,2.82,2.69c2.43,1.62,5.91-1.08,5.35-4.13A71.77,71.77,0,0,0,37,41.27a2.43,2.43,0,0,0-2.15-.37C33.68,41.36,33.19,42.93,33.05,43.4Z"/><path class="cls-27" d="M42.55,58.46c2.37.55,3.69-1.18,11.11-6.65a8,8,0,0,0,1.28-1.16C55.46,50,56.25,49.4,56,49a11.8,11.8,0,0,0-3.4-4.19A70.35,70.35,0,0,0,40.57,55a2.32,2.32,0,0,0-.3,2C40.71,58,42.12,58.36,42.55,58.46Z"/><path class="cls-16" d="M55.77,48.62l1.21-1c.94.35,2.77-1.48,4.36-2.75,1.79-1.07,3-2,3-2.25a.62.62,0,0,0-.07-.35.74.74,0,0,0-.24-.25c-.36-.24-1.12.28-1.58.56a12.08,12.08,0,0,1-1.67.84c1.74-1.49,3-2.6,3.25-2.87a.74.74,0,0,0,.21-.47.88.88,0,0,0-.09-.4.85.85,0,0,0-.42-.27.53.53,0,0,0-.52.18L60,41.87c1.66-1.59,2.87-2.76,3.22-3.08a.64.64,0,0,0,.27-.57.84.84,0,0,0-.16-.31.94.94,0,0,0-.36-.25.63.63,0,0,0-.54.16l-3.55,2.76c1.22-1.68,2.1-2.92,2.4-3.32.06-.08.27-.36.15-.57a.64.64,0,0,0-.22-.21,1.14,1.14,0,0,0-.35-.18.65.65,0,0,0-.57.25c-1.67,1.7-2.51,2.56-2.73,2.83A11.77,11.77,0,0,1,56,40.87l-.3-.3a4,4,0,0,0-.13-2.51c-.48-.55-.85-.81-1-.44a4.62,4.62,0,0,1-.69,2.28,6.24,6.24,0,0,1-.32,2.41,2.31,2.31,0,0,0,.27,1.79,5.58,5.58,0,0,0-1.18.9Z"/><path class="cls-17" d="M56,40.87A3.82,3.82,0,0,1,57.1,44.7a2.88,2.88,0,0,0,.2-3.29,3.42,3.42,0,0,1-.4-1.34"/><polygon class="cls-17" points="59.12 40.56 60.02 41.61 59.91 41.73 59.04 40.59 59.12 40.56"/><polygon class="cls-17" points="60.11 41.99 61.01 43.04 60.9 43.16 60.03 42.02 60.11 41.99"/><polygon class="cls-17" points="61.06 43.51 61.66 44.48 61.55 44.55 60.99 43.51 61.06 43.51"/><polygon class="cls-17" points="57.94 39.42 58.77 40.2 58.7 40.31 57.88 39.45 57.94 39.42"/></g></g></g></svg>