<svg xmlns="http://www.w3.org/2000/svg" xmlns:xlink="http://www.w3.org/1999/xlink" viewBox="0 0 118.48 95.47"><defs><style>.cls-1,.cls-58,.cls-6{fill:none;}.cls-2{opacity:0.86;}.cls-3{clip-path:url(#clip-path);}.cls-4{fill:url(#linear-gradient);}.cls-5{fill:#f0c9b7;}.cls-6{stroke:#d1a894;}.cls-53,.cls-58,.cls-6{stroke-miterlimit:10;}.cls-7{fill:#a57c52;}.cls-8{fill:#fbb03b;}.cls-9{fill:#7dac56;}.cls-10{fill:#fd8ea5;}.cls-11{fill:#3f7540;}.cls-12{fill:#d37286;}.cls-13{fill:#d3395b;}.cls-14{fill:#97374d;}.cls-15{fill:#812f42;}.cls-16{fill:#fd9cb0;}.cls-17{fill:#ffabb6;}.cls-18{fill:#fde8c8;}.cls-19{fill:#5c6275;}.cls-20{fill:#d3c1a6;}.cls-21{fill:#d3ab6e;}.cls-22{fill:#97805c;}.cls-23{fill:#816e4f;}.cls-24{fill:#fdf0db;}.cls-25{fill:#fff6ea;}.cls-26{fill:#fd9e9e;}.cls-27{fill:#497552;}.cls-28{fill:#d38383;}.cls-29{fill:#d34b4c;}.cls-30{fill:#974445;}.cls-31{fill:#813a3b;}.cls-32{fill:#fdb1b1;}.cls-33{fill:#ffc2c0;}.cls-34{fill:#e4a6a3;}.cls-35{fill:#c47f7a;}.cls-36{fill:#f9cdca;}.cls-37{fill:#f9ccca;}.cls-38{fill:#622b29;}.cls-39{fill:#e479e3;}.cls-40{fill:#c455be;}.cls-41{fill:#f99bf4;}.cls-42{fill:#f99bf6;}.cls-43{fill:#611762;}.cls-44{fill:#e2d7a2;}.cls-45{fill:#f8efc4;}.cls-46{fill:#cba99a;}.cls-47{fill:#ea4e5d;}.cls-48{fill:#a67c52;}.cls-49{fill:#ebf4ff;opacity:0.34;}.cls-50{fill:#247d6c;}.cls-51{fill:#f8c7a3;}.cls-52,.cls-53{fill:#e5b796;}.cls-53{stroke:#c19b88;}.cls-53,.cls-58{stroke-width:2px;}.cls-54{fill:#f5f5f5;}.cls-55{fill:#5d6791;}.cls-56{fill:#8c9fc2;}.cls-57{fill:#817160;}.cls-58{stroke:#1b1464;opacity:0.22;}</style><clipPath id="clip-path" transform="translate(14.79)"><circle class="cls-1" cx="47.64" cy="47.64" r="46.64"/></clipPath><linearGradient id="linear-gradient" x1="63.08" y1="93.2" x2="61.74" y2="-0.06" gradientUnits="userSpaceOnUse"><stop offset="0.11" stop-color="#cedcc8"/><stop offset="0.18" stop-color="#d4e0ce"/><stop offset="0.5" stop-color="#ebf1e9"/><stop offset="0.78" stop-color="#fafbf9"/><stop offset="1" stop-color="#fff"/></linearGradient></defs><g id="Layer_2" data-name="Layer 2"><g id="MainLayer"><g id="stories" class="cls-2"><g id="bereavementgroup"><g id="bereavement5"><g class="cls-3"><circle class="cls-4" cx="62.43" cy="47.64" r="46.64"/><polygon class="cls-5" points="0.86 94.88 105.1 95.47 105.1 66.99 0.86 66.99 0.86 94.88"/><rect class="cls-6" x="5.26" y="73.85" width="30.82" height="13.78" rx="0.66"/><rect class="cls-7" x="7.5" y="80.51" width="26.64" height="2.7"/><rect class="cls-8" x="11.84" y="78.66" width="2.05" height="5.49" rx="1.02"/><path class="cls-5" d="M-13.93,68.32H90.31V58.94H-5.35C-11.79,59.83-13.94,63.39-13.93,68.32Z" transform="translate(14.79)"/><path class="cls-9" d="M8.89,57.41a47.76,47.76,0,0,1,8.47,1.19l.12-.51-8.63-.87Z" transform="translate(14.79)"/><path class="cls-9" d="M10.25,57.32a1.59,1.59,0,0,1-.68-1,2.15,2.15,0,0,1,.21-1.43,2.29,2.29,0,0,1,1.08,1.17C11.07,56.64,10.81,57,10.25,57.32Z" transform="translate(14.79)"/><path class="cls-9" d="M10.11,57.44a1.74,1.74,0,0,0-1.15.5,2.22,2.22,0,0,0-.62,1.35A2.56,2.56,0,0,0,10,58.8C10.46,58.44,10.44,58,10.11,57.44Z" transform="translate(14.79)"/><path class="cls-9" d="M8.92,57.38a1.4,1.4,0,0,1-1,.4,2,2,0,0,1-1.24-.5A2.1,2.1,0,0,1,8,56.56C8.49,56.49,8.78,56.81,8.92,57.38Z" transform="translate(14.79)"/><path class="cls-9" d="M12.52,57.62a1.59,1.59,0,0,1-.68-1,2.22,2.22,0,0,1,.21-1.43,2.29,2.29,0,0,1,1.08,1.17C13.34,56.94,13.08,57.32,12.52,57.62Z" transform="translate(14.79)"/><path class="cls-9" d="M12.4,57.65a1.76,1.76,0,0,0-1.15.51,2.24,2.24,0,0,0-.62,1.35A2.68,2.68,0,0,0,12.26,59C12.75,58.65,12.73,58.19,12.4,57.65Z" transform="translate(14.79)"/><path class="cls-9" d="M14.8,57.92a1.49,1.49,0,0,1-.68-1,2.19,2.19,0,0,1,.2-1.42,2.31,2.31,0,0,1,1.09,1.16C15.62,57.24,15.35,57.63,14.8,57.92Z" transform="translate(14.79)"/><path class="cls-9" d="M14.79,58a1.71,1.71,0,0,0-1.15.51A2.24,2.24,0,0,0,13,59.82a2.56,2.56,0,0,0,1.62-.49C15.14,59,15.12,58.5,14.79,58Z" transform="translate(14.79)"/><path class="cls-10" d="M13.1,59.57,13,58.78a4.1,4.1,0,0,0-2.28-.68c-.49,0-1-.16-1.24.11s0,.51-.09,1.61c0,.54-.12.8.06,1.1a1.06,1.06,0,0,0,.52.44,3.77,3.77,0,0,0,1.49,0,5.71,5.71,0,0,0,1.51-.63Z" transform="translate(14.79)"/><polygon class="cls-11" points="27.66 60.73 27.82 59.64 27.73 58.77 28.4 59.46 28.46 59.93 27.66 60.73"/><path class="cls-12" d="M13.06,59.59l-.12-.81A5,5,0,0,0,10.63,58c-.5,0-1-.07-1.23.22C11.18,58.4,12.69,58.7,13.06,59.59Z" transform="translate(14.79)"/><path class="cls-13" d="M9.52,60.59c-.11-.17-.06-.29,0-.91s0-.78.16-.84.39.09.4.1c.55.43.37,1.81,0,1.94C9.85,60.93,9.62,60.76,9.52,60.59Z" transform="translate(14.79)"/><path class="cls-14" d="M9.7,60.44c-.08-.14,0-.23,0-.7s0-.6.12-.65a.27.27,0,0,1,.31.08c.11.13,0,.31,0,.67s.12.76,0,.82S9.8,60.59,9.7,60.44Z" transform="translate(14.79)"/><path class="cls-15" d="M9.8,60.2c-.05-.07,0-.13,0-.4s0-.35.07-.38a.15.15,0,0,1,.18,0c.07.08,0,.18,0,.4s.07.44,0,.47S9.85,60.29,9.8,60.2Z" transform="translate(14.79)"/><path class="cls-16" d="M12,60l-.93-.24c-.52-.24-.66-1.06-.69-1.44s-.24-.39-.54-.49-.46.13-.45.67a1.8,1.8,0,0,0,1.16,1.4C11.22,60.26,11.1,60.19,12,60Z" transform="translate(14.79)"/><path class="cls-17" d="M13,59.81l-1.72.91c-.5.27-.86.22-.87.54s-.21.37-.5.5-.46,0-.48-.51c.13-.58.59-.7,1.22-1A3.79,3.79,0,0,1,13,59.81Z" transform="translate(14.79)"/><polygon class="cls-11" points="28.35 60.03 32.54 60.02 32.54 59.48 28.31 59.69 28.35 60.03"/><path class="cls-18" d="M14,57.44l.06-.79a4.18,4.18,0,0,0-2-1.23c-.48-.11-.92-.39-1.23-.19s-.13.49-.48,1.54c-.17.51-.31.74-.22,1.08a1.16,1.16,0,0,0,.41.55,3.8,3.8,0,0,0,1.45.34,6.28,6.28,0,0,0,1.61-.24Z" transform="translate(14.79)"/><polygon class="cls-19" points="28.24 58.52 28.66 57.5 28.78 56.63 29.27 57.47 29.21 57.93 28.24 58.52"/><path class="cls-20" d="M13.91,57.46l.09-.82A5,5,0,0,0,12,55.34c-.48-.17-.94-.32-1.25-.09C12.38,55.84,13.77,56.5,13.91,57.46Z" transform="translate(14.79)"/><path class="cls-21" d="M10.23,57.56c-.06-.2,0-.3.22-.89s.21-.75.36-.78.35.19.36.2c.43.55-.09,1.85-.51,1.87C10.47,58,10.29,57.74,10.23,57.56Z" transform="translate(14.79)"/><path class="cls-22" d="M10.45,57.45c0-.15,0-.23.16-.68s.17-.58.28-.6a.28.28,0,0,1,.28.15c.07.16-.09.3-.21.64s-.07.77-.19.8S10.5,57.62,10.45,57.45Z" transform="translate(14.79)"/><path class="cls-23" d="M10.6,57.25c0-.09,0-.14.1-.4s.09-.33.16-.35a.16.16,0,0,1,.16.09c0,.09,0,.17-.12.38s0,.44-.11.46S10.63,57.35,10.6,57.25Z" transform="translate(14.79)"/><path class="cls-24" d="M12.78,57.56l-.84-.46c-.45-.36-.38-1.19-.32-1.56s-.14-.45-.4-.62-.48,0-.6.55a1.82,1.82,0,0,0,.77,1.64C12,57.65,11.86,57.55,12.78,57.56Z" transform="translate(14.79)"/><path class="cls-25" d="M13.8,57.65l-1.89.46c-.55.14-.89,0-1,.32s-.29.3-.6.35-.44-.15-.34-.61c.26-.52.74-.53,1.42-.65A3.89,3.89,0,0,1,13.8,57.65Z" transform="translate(14.79)"/><polygon class="cls-19" points="29.08 58.01 33.15 59.02 33.27 58.49 29.12 57.66 29.08 58.01"/><path class="cls-9" d="M15.86,50.26a49.15,49.15,0,0,1,6.07,6l.4-.34-6.4-5.85Z" transform="translate(14.79)"/><path class="cls-9" d="M17,51a1.49,1.49,0,0,1,0-1.17c.4-.65.73-.94,1-1a2.26,2.26,0,0,1,.17,1.58C18.06,51,17.62,51.1,17,51Z" transform="translate(14.79)"/><path class="cls-9" d="M16.81,51a1.76,1.76,0,0,0-1.22-.28c-.77.22-1.15.46-1.3.71a2.56,2.56,0,0,0,1.59.58C16.49,52,16.76,51.64,16.81,51Z" transform="translate(14.79)"/><path class="cls-9" d="M15.9,50.26A1.43,1.43,0,0,1,14.84,50a2,2,0,0,1-.69-1.15,2.16,2.16,0,0,1,1.47.2C16.08,49.28,16.12,49.72,15.9,50.26Z" transform="translate(14.79)"/><path class="cls-9" d="M18.64,52.6a1.53,1.53,0,0,1,0-1.17c.41-.65.73-.94,1-1A2.32,2.32,0,0,1,19.86,52C19.7,52.55,19.26,52.7,18.64,52.6Z" transform="translate(14.79)"/><path class="cls-9" d="M18.52,52.56a1.76,1.76,0,0,0-1.22-.29A2.3,2.3,0,0,0,16,53a2.59,2.59,0,0,0,1.6.58C18.2,53.56,18.46,53.18,18.52,52.56Z" transform="translate(14.79)"/><path class="cls-9" d="M20.28,54.2a1.53,1.53,0,0,1,0-1.17c.41-.65.74-.94,1-1a2.26,2.26,0,0,1,.17,1.58C21.35,54.15,20.9,54.3,20.28,54.2Z" transform="translate(14.79)"/><path class="cls-9" d="M20.24,54.24A1.71,1.71,0,0,0,19,54a2.2,2.2,0,0,0-1.3.71,2.71,2.71,0,0,0,1.59.58C19.93,55.25,20.19,54.86,20.24,54.24Z" transform="translate(14.79)"/><path class="cls-9" d="M13,55a48.7,48.7,0,0,1,8.47,1.19l.12-.51-8.63-.87Z" transform="translate(14.79)"/><path class="cls-9" d="M14.32,54.87a1.56,1.56,0,0,1-.68-1,2.11,2.11,0,0,1,.21-1.42,2.24,2.24,0,0,1,1.08,1.16C15.14,54.19,14.88,54.58,14.32,54.87Z" transform="translate(14.79)"/><path class="cls-9" d="M14.18,55A1.76,1.76,0,0,0,13,55.5a2.24,2.24,0,0,0-.62,1.34A2.61,2.61,0,0,0,14,56.36C14.53,56,14.51,55.52,14.18,55Z" transform="translate(14.79)"/><path class="cls-9" d="M13,54.93a1.34,1.34,0,0,1-1,.4,2,2,0,0,1-1.25-.5,2.15,2.15,0,0,1,1.3-.72C12.56,54,12.85,54.36,13,54.93Z" transform="translate(14.79)"/><path class="cls-9" d="M16.59,55.17a1.51,1.51,0,0,1-.67-1,2.19,2.19,0,0,1,.2-1.42A2.29,2.29,0,0,1,17.21,54C17.42,54.49,17.15,54.88,16.59,55.17Z" transform="translate(14.79)"/><path class="cls-9" d="M16.47,55.21a1.74,1.74,0,0,0-1.15.5,2.28,2.28,0,0,0-.62,1.35,2.61,2.61,0,0,0,1.63-.49C16.82,56.21,16.8,55.74,16.47,55.21Z" transform="translate(14.79)"/><path class="cls-9" d="M18.87,55.47a1.49,1.49,0,0,1-.68-1,2.19,2.19,0,0,1,.2-1.42,2.25,2.25,0,0,1,1.09,1.17C19.69,54.79,19.42,55.18,18.87,55.47Z" transform="translate(14.79)"/><path class="cls-9" d="M18.86,55.52a1.76,1.76,0,0,0-1.15.51,2.24,2.24,0,0,0-.62,1.35,2.68,2.68,0,0,0,1.63-.49C19.21,56.52,19.19,56.06,18.86,55.52Z" transform="translate(14.79)"/><path class="cls-26" d="M17.82,57.4l-.2-.77a4.11,4.11,0,0,0-2.32-.5c-.5,0-1-.07-1.23.21s0,.51,0,1.62c0,.53-.06.8.14,1.08a1.11,1.11,0,0,0,.56.4,3.66,3.66,0,0,0,1.49-.15,5.73,5.73,0,0,0,1.45-.75Z" transform="translate(14.79)"/><polygon class="cls-27" points="32.49 58.58 32.55 57.48 32.39 56.62 33.12 57.26 33.21 57.72 32.49 58.58"/><path class="cls-28" d="M17.79,57.43l-.19-.8a4.84,4.84,0,0,0-2.36-.57c-.5,0-1,0-1.21.31C15.82,56.39,17.35,56.57,17.79,57.43Z" transform="translate(14.79)"/><path class="cls-29" d="M14.34,58.71c-.12-.16-.08-.29-.08-.91s0-.78.09-.85.39.06.4.07c.59.38.52,1.78.12,1.94C14.7,59,14.46,58.87,14.34,58.71Z" transform="translate(14.79)"/><path class="cls-30" d="M14.51,58.54c-.1-.13-.07-.22-.07-.7s0-.6.07-.65a.28.28,0,0,1,.32.05c.12.13,0,.31,0,.68s.19.74.08.81S14.61,58.69,14.51,58.54Z" transform="translate(14.79)"/><path class="cls-31" d="M14.59,58.3c-.06-.07,0-.13,0-.41s0-.35,0-.38a.15.15,0,0,1,.18,0c.07.08,0,.18,0,.4s.11.43,0,.47S14.65,58.39,14.59,58.3Z" transform="translate(14.79)"/><path class="cls-32" d="M16.75,57.89l-.95-.16c-.53-.2-.74-1-.8-1.38s-.27-.37-.57-.45-.45.17-.4.71a1.84,1.84,0,0,0,1.26,1.3C16,58.24,15.88,58.18,16.75,57.89Z" transform="translate(14.79)"/><path class="cls-33" d="M17.75,57.65,16.1,58.7c-.47.31-.83.29-.82.61s-.18.38-.46.53-.46,0-.51-.47.53-.74,1.13-1.07A3.77,3.77,0,0,1,17.75,57.65Z" transform="translate(14.79)"/><polygon class="cls-27" points="33.11 57.83 37.29 57.48 37.24 56.94 33.04 57.49 33.11 57.83"/><path class="cls-10" d="M16,50.81l.39-.7a4,4,0,0,0-1.34-2c-.39-.31-.67-.74-1-.7s-.32.4-1.08,1.2c-.36.39-.59.55-.64.89a1.06,1.06,0,0,0,.13.67,3.73,3.73,0,0,0,1.18.92,6.05,6.05,0,0,0,1.56.46Z" transform="translate(14.79)"/><polygon class="cls-11" points="29.91 51.58 30.72 50.83 31.19 50.09 31.28 51.05 31.03 51.45 29.91 51.58"/><path class="cls-12" d="M16,50.81l.42-.71a5,5,0,0,0-1.31-2c-.37-.35-.72-.68-1.1-.61C15.27,48.69,16.26,49.88,16,50.81Z" transform="translate(14.79)"/><path class="cls-13" d="M12.6,49.36c0-.21.14-.27.56-.72s.52-.59.66-.55.24.32.24.33c.16.68-.85,1.64-1.25,1.48C12.64,49.83,12.58,49.55,12.6,49.36Z" transform="translate(14.79)"/><path class="cls-14" d="M12.84,49.35c0-.16.1-.21.43-.55s.4-.45.51-.43a.27.27,0,0,1,.18.26c0,.17-.2.23-.45.49s-.38.67-.51.65S12.82,49.53,12.84,49.35Z" transform="translate(14.79)"/><path class="cls-15" d="M13.06,49.23c0-.09.06-.12.26-.32s.22-.26.29-.25a.15.15,0,0,1,.11.15c0,.1-.12.14-.27.29s-.22.39-.29.37S13.05,49.34,13.06,49.23Z" transform="translate(14.79)"/><path class="cls-16" d="M14.91,50.43l-.57-.77c-.26-.52.15-1.24.37-1.56s.06-.45-.11-.72-.44-.19-.77.24a1.82,1.82,0,0,0,0,1.82C14.13,50.16,14.08,50,14.91,50.43Z" transform="translate(14.79)"/><path class="cls-17" d="M15.8,50.94l-1.91-.38c-.56-.1-.81-.36-1-.12s-.4.15-.7.07-.33-.33-.05-.7c.46-.36.9-.17,1.56,0A3.77,3.77,0,0,1,15.8,50.94Z" transform="translate(14.79)"/><polygon class="cls-11" points="30.88 51.47 34.15 54.09 34.49 53.67 31.07 51.17 30.88 51.47"/><path class="cls-34" d="M18.43,53.88c-.67.32-1.42-.41-1.57-.56s-.61-.59-.52-1,.68-.73,1.1-.77A1.49,1.49,0,0,1,19,52.67,1.23,1.23,0,0,1,18.43,53.88Z" transform="translate(14.79)"/><path class="cls-35" d="M19.06,53.35c-.68-.31-.61-1.34-.6-1.55s.06-.85.46-1.08a1.21,1.21,0,0,1,1.29.33,1.48,1.48,0,0,1,.15,2A1.21,1.21,0,0,1,19.06,53.35Z" transform="translate(14.79)"/><path class="cls-36" d="M18.94,54.4c0,.73-1,1-1.21,1.09a1.25,1.25,0,0,1-1.14,0,1.17,1.17,0,0,1-.14-1.3,1.43,1.43,0,0,1,1.73-.81A1.15,1.15,0,0,1,18.94,54.4Z" transform="translate(14.79)"/><path class="cls-34" d="M19.65,53.6c.73,0,1,1,1.07,1.22A1.25,1.25,0,0,1,20.66,56a1.17,1.17,0,0,1-1.3.13,1.46,1.46,0,0,1-.79-1.75A1.17,1.17,0,0,1,19.65,53.6Z" transform="translate(14.79)"/><path class="cls-37" d="M19.42,53c.24-.68,1.26-.7,1.46-.71s.83,0,1.09.35a1.2,1.2,0,0,1-.22,1.3,1.45,1.45,0,0,1-1.89.3A1.15,1.15,0,0,1,19.42,53Z" transform="translate(14.79)"/><path class="cls-34" d="M18.59,53.2c-.3-.32,0-.88,0-1s.23-.46.5-.49.55.26.64.49a.89.89,0,0,1-.38,1.12A.73.73,0,0,1,18.59,53.2Z" transform="translate(14.79)"/><path class="cls-35" d="M19,53.47c0-.45.66-.6.79-.63s.49-.12.69.07a.69.69,0,0,1,.05.8.89.89,0,0,1-1.1.44A.73.73,0,0,1,19,53.47Z" transform="translate(14.79)"/><path class="cls-36" d="M18.39,53.59c-.43.11-.78-.39-.85-.49s-.28-.41-.18-.66a.71.71,0,0,1,.72-.33.88.88,0,0,1,.78.85A.69.69,0,0,1,18.39,53.59Z" transform="translate(14.79)"/><path class="cls-34" d="M19,53.86c.1.42-.41.76-.51.83s-.42.28-.66.17a.67.67,0,0,1-.31-.72.86.86,0,0,1,.86-.77A.71.71,0,0,1,19,53.86Z" transform="translate(14.79)"/><path class="cls-37" d="M19.28,53.61c.44,0,.64.59.68.71s.16.47,0,.69a.71.71,0,0,1-.78.11.87.87,0,0,1-.52-1A.7.7,0,0,1,19.28,53.61Z" transform="translate(14.79)"/><circle class="cls-38" cx="33.61" cy="53.53" r="0.55"/><path class="cls-39" d="M16.31,56.9c-.67.32-1.41-.41-1.56-.56s-.61-.59-.52-1,.67-.73,1.09-.77a1.48,1.48,0,0,1,1.58,1.16A1.18,1.18,0,0,1,16.31,56.9Z" transform="translate(14.79)"/><path class="cls-40" d="M16.94,56.37c-.67-.3-.6-1.34-.59-1.55s0-.85.45-1.08a1.21,1.21,0,0,1,1.3.34,1.47,1.47,0,0,1,.14,2A1.18,1.18,0,0,1,16.94,56.37Z" transform="translate(14.79)"/><path class="cls-41" d="M16.83,57.43c0,.72-1,1-1.21,1.08s-.8.25-1.14,0a1.18,1.18,0,0,1-.15-1.3,1.45,1.45,0,0,1,1.74-.81A1.17,1.17,0,0,1,16.83,57.43Z" transform="translate(14.79)"/><path class="cls-39" d="M17.54,56.62c.72.05,1,1,1.07,1.22A1.25,1.25,0,0,1,18.55,59a1.18,1.18,0,0,1-1.31.13,1.45,1.45,0,0,1-.78-1.75A1.16,1.16,0,0,1,17.54,56.62Z" transform="translate(14.79)"/><path class="cls-42" d="M17.3,56c.24-.68,1.26-.7,1.47-.71s.83,0,1.08.36A1.17,1.17,0,0,1,19.64,57a1.46,1.46,0,0,1-1.9.3A1.19,1.19,0,0,1,17.3,56Z" transform="translate(14.79)"/><path class="cls-39" d="M16.48,56.22c-.3-.32,0-.88,0-1s.23-.45.51-.48.54.25.64.48a.89.89,0,0,1-.38,1.12A.7.7,0,0,1,16.48,56.22Z" transform="translate(14.79)"/><path class="cls-40" d="M16.9,56.49c.05-.44.66-.59.78-.62a.74.74,0,0,1,.7.06.74.74,0,0,1,.05.81.9.9,0,0,1-1.1.43A.71.71,0,0,1,16.9,56.49Z" transform="translate(14.79)"/><path class="cls-41" d="M16.27,56.62c-.42.1-.77-.4-.84-.5s-.29-.41-.18-.66a.67.67,0,0,1,.71-.32.87.87,0,0,1,.79.85A.71.71,0,0,1,16.27,56.62Z" transform="translate(14.79)"/><path class="cls-39" d="M16.87,56.88c.1.42-.41.76-.51.83a.77.77,0,0,1-.67.18.72.72,0,0,1-.31-.73.88.88,0,0,1,.86-.77A.71.71,0,0,1,16.87,56.88Z" transform="translate(14.79)"/><path class="cls-42" d="M17.17,56.63c.44,0,.63.59.67.71a.76.76,0,0,1,0,.69.72.72,0,0,1-.78.11.86.86,0,0,1-.52-1A.71.71,0,0,1,17.17,56.63Z" transform="translate(14.79)"/><circle class="cls-43" cx="31.5" cy="56.55" r="0.55"/><path class="cls-44" d="M20.72,51.39c.65,3.32.06,2.39-.54,4.87,2.18,2.65,8.18,2,13.28,3.28l1.43-1.15C29.41,53.41,24.67,53.59,20.72,51.39Z" transform="translate(14.79)"/><path class="cls-45" d="M14.86,60.54c2.88-2.33,3.95-2.17,5.33-4.71a24.51,24.51,0,0,1,14.6,2.83l0,1.13C27.42,60.6,19.53,61.45,14.86,60.54Z" transform="translate(14.79)"/><path class="cls-34" d="M10.72,57.47c-.67.31-1.42-.41-1.57-.56s-.61-.59-.52-1a1.19,1.19,0,0,1,1.1-.77,1.48,1.48,0,0,1,1.58,1.16A1.23,1.23,0,0,1,10.72,57.47Z" transform="translate(14.79)"/><path class="cls-35" d="M11.35,56.94c-.68-.31-.61-1.35-.6-1.56s.06-.85.46-1.07a1.19,1.19,0,0,1,1.29.33,1.48,1.48,0,0,1,.15,2A1.22,1.22,0,0,1,11.35,56.94Z" transform="translate(14.79)"/><path class="cls-36" d="M11.24,58c-.05.73-1,1-1.22,1.09a1.28,1.28,0,0,1-1.14,0,1.17,1.17,0,0,1-.14-1.3,1.45,1.45,0,0,1,1.73-.82A1.19,1.19,0,0,1,11.24,58Z" transform="translate(14.79)"/><path class="cls-34" d="M12,57.18c.72.06,1,1,1.06,1.23A1.25,1.25,0,0,1,13,59.55a1.17,1.17,0,0,1-1.3.13,1.46,1.46,0,0,1-.79-1.75A1.2,1.2,0,0,1,12,57.18Z" transform="translate(14.79)"/><path class="cls-37" d="M11.71,56.58c.24-.68,1.26-.71,1.46-.71a1.24,1.24,0,0,1,1.09.35A1.18,1.18,0,0,1,14,57.51a1.44,1.44,0,0,1-1.89.31A1.16,1.16,0,0,1,11.71,56.58Z" transform="translate(14.79)"/><path class="cls-34" d="M10.88,56.79c-.3-.33,0-.89,0-1s.23-.46.5-.49.55.26.64.49a.89.89,0,0,1-.38,1.12A.74.74,0,0,1,10.88,56.79Z" transform="translate(14.79)"/><path class="cls-35" d="M11.3,57.06c.06-.45.66-.6.79-.63a.77.77,0,0,1,.7.07.71.71,0,0,1,0,.8.89.89,0,0,1-1.1.44A.74.74,0,0,1,11.3,57.06Z" transform="translate(14.79)"/><path class="cls-36" d="M10.68,57.18c-.43.11-.78-.39-.85-.49A.77.77,0,0,1,9.65,56a.72.72,0,0,1,.72-.32.88.88,0,0,1,.78.85A.7.7,0,0,1,10.68,57.18Z" transform="translate(14.79)"/><path class="cls-34" d="M11.27,57.44c.1.43-.41.77-.51.84s-.42.28-.66.17a.69.69,0,0,1-.31-.72.87.87,0,0,1,.86-.77A.7.7,0,0,1,11.27,57.44Z" transform="translate(14.79)"/><path class="cls-37" d="M11.57,57.2c.44,0,.64.59.68.71s.16.47,0,.68a.7.7,0,0,1-.78.12.89.89,0,0,1-.52-1A.7.7,0,0,1,11.57,57.2Z" transform="translate(14.79)"/><circle class="cls-38" cx="25.9" cy="57.12" r="0.55"/><path class="cls-39" d="M13.37,52.79c-.67.31-1.42-.41-1.57-.56s-.61-.59-.52-1a1.19,1.19,0,0,1,1.1-.77A1.47,1.47,0,0,1,14,51.58,1.23,1.23,0,0,1,13.37,52.79Z" transform="translate(14.79)"/><path class="cls-40" d="M14,52.26c-.68-.31-.61-1.35-.59-1.56s.05-.85.45-1.07a1.21,1.21,0,0,1,1.3.33,1.49,1.49,0,0,1,.14,2A1.22,1.22,0,0,1,14,52.26Z" transform="translate(14.79)"/><path class="cls-41" d="M13.89,53.31c-.05.73-1,1-1.21,1.09s-.8.24-1.14,0a1.15,1.15,0,0,1-.15-1.3,1.45,1.45,0,0,1,1.74-.82A1.19,1.19,0,0,1,13.89,53.31Z" transform="translate(14.79)"/><path class="cls-39" d="M14.6,52.5c.72.06,1,1,1.06,1.23s.24.8-.06,1.14a1.16,1.16,0,0,1-1.3.13,1.44,1.44,0,0,1-.78-1.75A1.17,1.17,0,0,1,14.6,52.5Z" transform="translate(14.79)"/><path class="cls-42" d="M14.36,51.9c.24-.68,1.26-.71,1.46-.71s.84,0,1.09.35a1.17,1.17,0,0,1-.22,1.29,1.44,1.44,0,0,1-1.89.31A1.19,1.19,0,0,1,14.36,51.9Z" transform="translate(14.79)"/><path class="cls-39" d="M13.54,52.11c-.31-.33,0-.89,0-1s.23-.46.5-.49.55.26.64.49a.9.9,0,0,1-.37,1.12A.73.73,0,0,1,13.54,52.11Z" transform="translate(14.79)"/><path class="cls-40" d="M14,52.38c0-.45.65-.6.78-.63s.5-.12.7.07a.71.71,0,0,1,0,.8.88.88,0,0,1-1.09.44A.71.71,0,0,1,14,52.38Z" transform="translate(14.79)"/><path class="cls-41" d="M13.33,52.5c-.43.11-.77-.39-.84-.49s-.29-.42-.19-.67A.72.72,0,0,1,13,51a.88.88,0,0,1,.78.85A.69.69,0,0,1,13.33,52.5Z" transform="translate(14.79)"/><path class="cls-39" d="M13.92,52.76c.1.43-.41.77-.51.84a.71.71,0,0,1-.66.17.7.7,0,0,1-.31-.72.87.87,0,0,1,.86-.77A.7.7,0,0,1,13.92,52.76Z" transform="translate(14.79)"/><path class="cls-42" d="M14.23,52.52c.43,0,.63.59.67.71a.71.71,0,0,1,0,.68.7.7,0,0,1-.78.12.89.89,0,0,1-.52-1A.71.71,0,0,1,14.23,52.52Z" transform="translate(14.79)"/><circle class="cls-43" cx="28.55" cy="52.44" r="0.55"/><path class="cls-46" d="M-13.69,70.63h104V69.22h-104c-.68.09-1.14.41-1.1.75S-14.31,70.56-13.69,70.63Z" transform="translate(14.79)"/><rect class="cls-8" x="10.69" y="76.87" width="4.4" height="2.66" rx="1.33"/><rect class="cls-8" x="27.02" y="78.66" width="1.89" height="5.49" rx="0.95"/><rect class="cls-8" x="25.78" y="76.87" width="4.4" height="2.66" rx="1.33"/><rect class="cls-6" x="5.99" y="74.51" width="29.37" height="12.45" rx="0.61"/><rect class="cls-6" x="46.43" y="73.85" width="30.82" height="13.78" rx="0.66"/><rect class="cls-7" x="48.67" y="80.51" width="26.64" height="2.7"/><rect class="cls-8" x="53.02" y="78.66" width="2.05" height="5.49" rx="1.02"/><rect class="cls-8" x="51.86" y="76.87" width="4.4" height="2.66" rx="1.33"/><rect class="cls-8" x="68.19" y="78.66" width="1.89" height="5.49" rx="0.95"/><rect class="cls-8" x="66.96" y="76.87" width="4.4" height="2.66" rx="1.33"/><rect class="cls-6" x="47.16" y="74.51" width="29.37" height="12.45" rx="0.61"/><path class="cls-45" d="M38.57,59.61c-.2.58-1.13.9-1.94.88s-1.71-.42-1.83-.91c-.16-.71,1.19-1.5,2.39-1.32C38,58.39,38.78,59,38.57,59.61Z" transform="translate(14.79)"/><path class="cls-47" d="M34.78,58.44a.6.6,0,0,1-.11-.74.58.58,0,0,1,.41-.21,1,1,0,0,1,.88.29.56.56,0,0,1,.14.33c0,.44-.42.7-.46.73l-.26.75a.67.67,0,0,1,.11.77.55.55,0,0,1-.28.22,1.13,1.13,0,0,1-1.07-.28A.54.54,0,0,1,34,60a.36.36,0,0,1,.11-.27l.43-.32-.1-.14.25-.78Z" transform="translate(14.79)"/><path class="cls-46" d="M-13.69,68.8h104V67.39h-104c-.68.09-1.14.41-1.1.75S-14.31,68.73-13.69,68.8Z" transform="translate(14.79)"/><path class="cls-48" d="M47.8,35.73a2.77,2.77,0,0,0-2,2.41A3.07,3.07,0,0,0,46.22,40c.13,0,.12-.38.42-.52s.48.15.71,0,.13-.47.33-.54.43.35.7.31.21-.59.55-.73.53.29.84.16.2-.68.52-.83.65.41,1,.26.25-.56.54-.62.8.57.88.48a4.14,4.14,0,0,0-1-2C50.25,34.39,48.15,35.53,47.8,35.73Z" transform="translate(14.79)"/><path class="cls-49" d="M48.5,32.77a2.6,2.6,0,0,1-4,1.08,3.09,3.09,0,0,1-.67-2.48,10.73,10.73,0,0,1,4-1.08A3,3,0,0,1,48.5,32.77Z" transform="translate(14.79)"/><path class="cls-50" d="M46.81,34.43A2.52,2.52,0,0,1,44.43,34a3.21,3.21,0,0,1-.71-2.6v-.08l.07,0a11,11,0,0,1,4-1.09h.07l0,.06a3.2,3.2,0,0,1,.69,2.61h0A2.55,2.55,0,0,1,46.81,34.43Zm-2.84-3a2.85,2.85,0,0,0,.64,2.28,2.46,2.46,0,0,0,3.76-1h0a2.83,2.83,0,0,0-.6-2.29A10.91,10.91,0,0,0,44,31.47Z" transform="translate(14.79)"/><path class="cls-51" d="M45.28,30.07c1.79,6.45,2.39,9.65,3.54,11.53,1.56,2.58,6.08.48,6.78.24a10.43,10.43,0,0,0,6.44-7,21.49,21.49,0,0,0-1.31-9.56c-1-2.57-1.75-4.53-3.89-5.5-3.16-1.44-7.86-.07-10.14,2.68C45.22,24.3,44.26,26.41,45.28,30.07Z" transform="translate(14.79)"/><path class="cls-52" d="M47.83,30.6c1.54,5.55,2.06,8.3,3.05,9.92,1.34,2.23,5.24.41,5.84.21a9,9,0,0,0,5.54-6,18.41,18.41,0,0,0-1.13-8.24c-.85-2.21-1.5-3.9-3.35-4.74-2.71-1.24-6.76-.06-8.73,2.31C47.78,25.62,47,27.44,47.83,30.6Z" transform="translate(14.79)"/><path class="cls-48" d="M53.38,29.31a2.45,2.45,0,0,0-2.09,1.11c-.17.42-.06.9-.47,1.36a1.66,1.66,0,0,1-.51.37A8.66,8.66,0,0,1,49.58,30a18.84,18.84,0,0,1-.18-2.79c2,1.67,5.49.08,7.72-.49,2-.41,3.5-1.06,3.47-1.94a17.77,17.77,0,0,1,1.63,5.56,4.74,4.74,0,0,1-2.08,2.27A4.83,4.83,0,0,1,56.6,33C56.24,30.77,54.75,29.29,53.38,29.31Z" transform="translate(14.79)"/><path class="cls-53" d="M52.42,34.77a2,2,0,0,0,1.54.42,2.57,2.57,0,0,0-1.18-4.91,2.31,2.31,0,0,0-1.56,2" transform="translate(14.79)"/><polygon class="cls-50" points="66.17 30.72 65.99 31.32 58.77 32.23 58.6 31.52 66.17 30.72"/><path class="cls-52" d="M62,43.47l.07-7.94-9.81,4.93-.14,4.35A10.64,10.64,0,0,0,62,43.47Z" transform="translate(14.79)"/><path class="cls-54" d="M62.63,45.2,62.4,43c-3.19-1.84-6.58-1.9-10.3,1.09L50.45,47C55.81,47.87,60.13,47.56,62.63,45.2Z" transform="translate(14.79)"/><path class="cls-55" d="M74.33,89c1.07-4.42.18-14.34-.83-24.6-.18-6.66-1.53-12.65-5.14-17.33a19.1,19.1,0,0,0-13.6-3.35c-1.85.29-7.25,1.14-9.55,5.06-2.75,4.69,1.2,9.94,3.29,18.51,1.27,5.18,2.23,13.11-.15,23.8a32.09,32.09,0,0,0,26-2.09Z" transform="translate(14.79)"/><polygon class="cls-51" points="45.97 62.6 44.19 61.92 40.62 60.08 34.47 61.18 34.28 62.54 39.39 64.5 45.29 65.8 45.97 62.6"/><path class="cls-55" d="M50.46,49.37a4.12,4.12,0,0,0-4.79-.12,4.28,4.28,0,0,0-1.5,1.91A67.31,67.31,0,0,0,41,62.9L30.86,62c-1.61,1-2,2.6-1.88,4.47a25.92,25.92,0,0,0,9,3.92c3.77.83,6.48,1.43,8.87.08,2.07-1.17,2.84-6.44,4.31-16.91C51.35,52.31,51.58,50.44,50.46,49.37Z" transform="translate(14.79)"/><path class="cls-51" d="M75,28c.9,5.58,1.07,8.33,1.94,10,1.2,2.28,5.93.73,6.65.57A10.81,10.81,0,0,0,90.89,33a15.74,15.74,0,0,0,0-8.19c-.64-2.23-1.12-3.94-3.1-4.89-2.91-1.39-7.72-.49-10.34,1.73A6.15,6.15,0,0,0,75,28Z" transform="translate(14.79)"/><path class="cls-52" d="M77.47,28.55c.78,4.79.92,7.16,1.67,8.59,1,2,5.11.64,5.73.5a9.32,9.32,0,0,0,6.26-4.78,13.6,13.6,0,0,0,0-7.06c-.55-1.92-1-3.39-2.67-4.21-2.51-1.2-6.65-.42-8.9,1.49A5.33,5.33,0,0,0,77.47,28.55Z" transform="translate(14.79)"/><path class="cls-52" d="M90.87,42,90.94,34,81.14,39,81,43.31A10.61,10.61,0,0,0,90.87,42Z" transform="translate(14.79)"/><path class="cls-54" d="M91.51,43.7l-.24-2.22c-3.18-1.84-6.57-1.9-10.29,1.09l-1.65,2.92C84.69,46.37,89,46.05,91.51,43.7Z" transform="translate(14.79)"/><path class="cls-56" d="M103.21,87.48c1.06-4.43.17-14.35-.84-24.6-.17-6.66-1.52-12.65-5.13-17.33a19,19,0,0,0-13.6-3.35c-1.94.3-7.74,1.12-9.55,5.06-.51,1.09-.65,2.32,1.84,12.65,1.21,5,1.13,4.25,1.45,5.86a60.33,60.33,0,0,1,.93,15.46,64.51,64.51,0,0,1-1.09,8.34,32.11,32.11,0,0,0,26-2.09Z" transform="translate(14.79)"/><polygon class="cls-56" points="88.86 47.58 78.82 55.58 70.43 47.19 64.47 52.37 77.1 64.52 91.9 54.48 88.86 47.58"/><path class="cls-57" d="M78.69,28.21c.75,1,2.65,1.66,3.12,3.4A7.87,7.87,0,0,1,82,35.87c-.29,1.1-.6,1.11-1.29,3-.63,1.65-.94,2.47-.83,3.22.25,1.63,1.66,1.69,2.77,3.77,1,1.89.23,2.58,1.06,3.88C85,51.7,88.06,52,90,52.26c3.58.4,9.81,0,10.53-2.4.55-1.89-2.32-4.6-3.89-5.74-1.78-1.3-2.78-1.24-3.47-2.51s-.08-1.85-.29-4.65c-.13-1.77-.37-1.85-.59-3.66-.37-3.12.26-3.72.06-5.9-.13-1.42-.43-4.86-3.29-7-3.16-2.36-7.23-1.46-7.83-1.31-2.09.49-5.38,2-5.41,3.87C75.79,24.31,76.38,25,78.69,28.21Z" transform="translate(14.79)"/><path class="cls-53" d="M81.69,32.22a1.73,1.73,0,0,0,1.24.48,2.09,2.09,0,0,0,1.45-2.32,2,2,0,0,0-2-1.85A1.92,1.92,0,0,0,80.91,30" transform="translate(14.79)"/><path class="cls-51" d="M54.08,47.28l.86-3.36c-.56-1.14-1.07-.91-1.56-.12a6.38,6.38,0,0,0-.86,2.54c-.41-1.79-1.14-2.83-2.38-2.75a1.83,1.83,0,0,0-1.31.86,1.75,1.75,0,0,0-2.13,1.24.93.93,0,0,0-.7,1.18c-.71.47-1,1-.66,1.64a9.55,9.55,0,0,0,3.57,1.73c.62.85,1.24,1.78,1.81,1.68l4-3.73C54.77,47.79,54.5,47.5,54.08,47.28Z" transform="translate(14.79)"/></g><circle class="cls-58" cx="62.43" cy="47.64" r="46.64"/></g></g></g></g></g></svg>