<?xml version="1.0" encoding="utf-8"?>
<!-- Generator: Adobe Illustrator 26.0.1, SVG Export Plug-In . SVG Version: 6.00 Build 0)  -->
<svg version="1.1" id="Layer_1" xmlns="http://www.w3.org/2000/svg" xmlns:xlink="http://www.w3.org/1999/xlink" x="0px" y="0px"
	 viewBox="0 0 162.2 160.3" style="enable-background:new 0 0 162.2 160.3;" xml:space="preserve">
<style type="text/css">
	.st0{opacity:0.86;}
	.st1{clip-path:url(#SVGID_00000138562380776720660630000006435642322848362631_);}
	.st2{fill:url(#SVGID_00000147207864366368169290000012454048158489866649_);}
	.st3{fill:none;}
	.st4{fill:#7D78CA;}
	.st5{fill:none;stroke:#1B1464;stroke-miterlimit:10;}
	.st6{fill:#625DA2;}
	.st7{fill:#FDA48B;}
	.st8{fill:#412A74;}
	.st9{fill:#BF6156;}
	.st10{fill:#57538C;}
	.st11{opacity:0.18;fill:#FFFFFF;enable-background:new    ;}
	.st12{fill:#1B1464;}
	.st13{fill:#7A3C73;}
	.st14{fill:none;stroke:#542578;stroke-miterlimit:10;}
	.st15{fill:#8A4482;}
	.st16{fill:#B8A8A7;}
	.st17{fill:#E0857B;}
	.st18{fill:#BFCBD1;}
	.st19{fill:#E4F1F8;}
	.st20{fill:#E0E0E0;}
	.st21{fill:#FFFFFF;}
	.st22{fill:#F2F1CF;}
	.st23{fill:#679E79;}
	.st24{fill:#D67148;}
	.st25{fill:#7D855D;}
	.st26{fill:#379E59;}
	.st27{fill:#66757F;}
	.st28{fill:#CCD6DD;}
	.st29{fill:#F5F8FA;}
	.st30{fill:#807573;}
	.st31{opacity:0.22;fill:none;stroke:#1B1464;stroke-width:2;stroke-miterlimit:10;enable-background:new    ;}
</style>
<g id="Layer_2_00000059280785849365426360000005663200825649348796_">
	<g id="MainLayer">
		<g id="stories" class="st0">
			<g id="caregroup">
				<g id="care7">
					<g>
						<defs>
							<circle id="SVGID_1_" cx="81.1" cy="80.1" r="78"/>
						</defs>
						<clipPath id="SVGID_00000040535657390355713130000017502673687823030416_">
							<use xlink:href="#SVGID_1_"  style="overflow:visible;"/>
						</clipPath>
						<g style="clip-path:url(#SVGID_00000040535657390355713130000017502673687823030416_);">
							
								<linearGradient id="SVGID_00000106847901745181757580000013628436227366882484_" gradientUnits="userSpaceOnUse" x1="-17.677" y1="81.406" x2="179.937" y2="81.406" gradientTransform="matrix(1 0 0 -1 0 161.536)">
								<stop  offset="0" style="stop-color:#C98BC2"/>
								<stop  offset="1" style="stop-color:#FFFFFF"/>
							</linearGradient>
							<circle style="fill:url(#SVGID_00000106847901745181757580000013628436227366882484_);" cx="81.1" cy="80.1" r="98.8"/>
							<g id="care7-2">
								<line class="st3" x1="138" y1="121.7" x2="118.4" y2="122.4"/>
								<line class="st3" x1="121.9" y1="120.8" x2="104.4" y2="118"/>
								<path class="st4" d="M107.2,75.8c3.1,3.6,1.4,7.7-1.2,26.3c-0.4,2.5-1.3,4.9-2.7,7.1c-1.7,3-5.4,4-8.4,2.4
									c-1.6-0.9-2.7-2.4-3-4.2c1.4-10.7,4-21.2,7.6-31.4c0.6-1.3,1.8-2.3,3.2-2.6C104.8,73,106.6,75.2,107.2,75.8z"/>
								<path class="st4" d="M104.4,106.3c-0.6,4.6-4.1,5.6-17.3,14.4c-0.8,0.6-1.7,1-2.6,1.3c-1.2,0.5-2.8,1.3-3.3,0.7
									c-2.3-3.1-4.1-6.5-5.1-10.2c7.4-5.1,15.5-9.2,23.9-12.3c1.2-0.3,2.5,0.1,3.4,1C104.9,102.8,104.5,105.5,104.4,106.3z"/>
								<path class="st4" d="M100.7,74.3c3.3,18,5.3,34.6,2.6,45.6c7.9,7.8,19.2,10.3,33,8.9c7.2-18.4,7.7-37.5,2.6-57.1
									C128.3,62.3,112.1,71.2,100.7,74.3z"/>
								<path class="st4" d="M141.2,73.4c4,2.6,3.4,7,6,25.7c0.4,2.5,0.1,5.1-0.6,7.5c-0.8,3.3-4.1,5.4-7.4,4.6
									c-1.8-0.4-3.2-1.6-4.1-3.2c-1.6-10.7-2-21.5-1.4-32.3c0.2-1.4,1.1-2.7,2.3-3.4C138.2,71.4,140.5,73,141.2,73.4z"/>
								<path class="st4" d="M145.6,107.9c-1.9,4.2-5.6,4.1-20.9,8.5c-0.9,0.3-1.9,0.4-2.9,0.5c-1.4,0-3.1,0.4-3.3-0.4
									c-1.3-3.6-1.9-7.4-1.7-11.3c8.6-2.6,17.5-4.1,26.5-4.5c1.2,0.1,2.3,0.9,2.9,2C147,104.7,145.9,107.2,145.6,107.9z"/>
								<path class="st5" d="M133.5,87.9l1,13.8c-6,0.8-11.9,2-17.8,3.6c-0.2,4.7,0.3,8.8,1.9,11.8c7.3-0.8,14.4-2.6,21.2-5.3"/>
								<path class="st6" d="M139.6,77.8c-4.1,11.1-12.7,18.1-23.4,23.2c-9.3-5.3-14.1-14.3-16.7-25.2c0.9-3.2,2.4-6.2,4.3-9
									c-2.5-10.5-1.2-18.5,2.6-24.9c5.8-6,12-5.5,18.4-1c4.9,7.2,7.5,15.6,7.6,24.2C136.6,69,139.2,73.2,139.6,77.8z"/>
								<path class="st7" d="M105.1,56.6c1.2-4.3,3.2-8.4,5.9-11.9c5.7,3.7,10.6,7.8,13.8,12.9c0.1,2.7-0.9,5.2-2.7,7.2
									c-2,2.2-5,3.3-7.9,3.1C109.5,67.4,105.4,62.7,105.1,56.6z"/>
								
									<ellipse transform="matrix(0.9974 -7.271600e-02 7.271600e-02 0.9974 -3.5565 8.7204)" class="st8" cx="118" cy="53.2" rx="1.2" ry="1.7"/>
								
									<ellipse transform="matrix(0.9974 -7.271600e-02 7.271600e-02 0.9974 -3.5948 8.0987)" class="st8" cx="109.4" cy="53.4" rx="1.2" ry="1.7"/>
								<path class="st8" d="M108.6,52.8c-0.6,0-1.3-0.3-1.7-0.7c0.6,0.3,1.3,0.3,1.9,0L108.6,52.8z"/>
								<path class="st8" d="M119,53c0.6-0.1,1.2-0.4,1.6-0.9c-0.5,0.4-1.3,0.6-1.9,0.3L119,53z"/>
								<polygon class="st9" points="114.7,58.8 111.4,58.9 112.4,52.1 112.6,52.1 112.3,58.1 114.6,58.7 								"/>
								<polygon class="st8" points="112.2,58.3 112.5,51.9 112.7,51.9 112.6,58.2 								"/>
								<path class="st10" d="M103.8,66.8c1.2,3.2,2.8,5.8,5.8,5.6c-3.2,1.4-5.6-0.8-7.4-3L103.8,66.8z"/>
								<path class="st10" d="M132.4,64.9c-0.6,2.7-4.5,6.2-7.2,6.4c2.2,0.7,5.8-1.7,8.9-4.4L132.4,64.9z"/>
								<circle class="st11" cx="107.8" cy="54.4" r="4.3"/>
								<path class="st12" d="M108.1,59c-2.5,0.2-4.7-1.7-4.9-4.2s1.7-4.7,4.2-4.9c2.5-0.2,4.7,1.7,4.9,4.2
									C112.6,56.6,110.7,58.8,108.1,59C108.2,59,108.1,59,108.1,59z M107.5,50.3c-2.2,0.2-3.9,2.1-3.7,4.4
									c0.2,2.2,2.1,3.9,4.4,3.7c2.2-0.2,3.9-2.1,3.7-4.4c0,0,0,0,0,0C111.7,51.8,109.7,50.2,107.5,50.3z"/>
								<circle class="st11" cx="118.3" cy="53.4" r="4.3"/>
								<path class="st12" d="M118.7,57.9c-2.5,0.2-4.7-1.7-4.9-4.2c-0.2-2.5,1.7-4.7,4.2-4.9c2.5-0.2,4.7,1.7,4.9,4.2
									C123.1,55.5,121.2,57.7,118.7,57.9z M118,49.3c-2.2,0.2-3.9,2.1-3.7,4.4c0.2,2.2,2.1,3.9,4.4,3.7c2.2-0.2,3.9-2.1,3.7-4.4
									c0,0,0,0,0,0C122.2,50.8,120.3,49.1,118,49.3z"/>
								<path class="st12" d="M111.7,52.7c0.8-0.3,1.7-0.3,2.5-0.1l-0.1,0.6c-0.7-0.2-1.5-0.1-2.2,0.2L111.7,52.7z"/>
								<path class="st13" d="M50.2,81.9c-3.1,3.6-1.3,7.7,1.4,26.3c0.4,2.5,1.3,4.9,2.7,7.1c1.7,3,5.4,4,8.4,2.3
									c1.6-0.9,2.7-2.4,3-4.2c-1.5-10.7-4.1-21.2-7.7-31.4c-0.6-1.3-1.8-2.2-3.2-2.6C52.6,79.1,50.7,81.3,50.2,81.9z"/>
								<path class="st13" d="M56.5,117.2c3.4,3.1,6.8,1.5,22.5-0.6c1-0.1,1.9-0.4,2.8-0.7c1.2-0.5,3-0.8,2.9-1.7
									c-0.3-3.8-1.3-7.5-3-11c-8.9,1.1-17.7,3.3-26.1,6.6c-1.1,0.6-1.8,1.7-1.8,3C53.8,114.8,55.9,116.7,56.5,117.2z"/>
								<path class="st13" d="M55.9,80.2l-1.2,51.2c-9.6,5.6-21.2,5-34.2,0.2l1-51.4C34.3,73.7,45.6,74.3,55.9,80.2z"/>
								<path class="st13" d="M21.6,79.3c-4.3,1.8-4.6,6.3-10.5,24.2c-0.8,2.4-1.1,5-0.8,7.5c0.1,3.4,3,6,6.4,5.9
									c1.9-0.1,3.6-1,4.7-2.5c3.4-10.2,5.8-20.8,7-31.6c0-1.4-0.6-2.8-1.7-3.7C25,78,22.4,79,21.6,79.3z"/>
								<line class="st14" x1="55.1" y1="113.9" x2="54.9" y2="83.6"/>
								<path class="st15" d="M17.2,84.7c4.9,10.8,14.5,16.4,25.5,20.7c8.9-6,12.5-14.6,14.3-25.7c-0.9-3.3-2.4-6.5-4.4-9.3
									c1.7-10.6-0.1-18.5-4.4-24.7c-6.3-5.5-12.4-4.6-18.5,0.3c-4.3,7.5-6.3,16-5.8,24.7C20.1,75.1,17.2,80.2,17.2,84.7z"/>
								<path class="st7" d="M50.6,60.6c-1.5-4.2-3.8-8.1-6.8-11.4c-5.5,4.1-10,8.6-12.9,13.9c0.1,2.7,1.3,5.2,3.2,7
									c2.2,2,5.2,2.9,8.2,2.5C46.9,71.7,50.7,66.7,50.6,60.6z"/>
								<ellipse class="st8" cx="37.5" cy="58.1" rx="1.2" ry="1.7"/>
								<ellipse class="st8" cx="46" cy="57.7" rx="1.2" ry="1.7"/>
								<path class="st8" d="M46.8,57.1c0.6-0.1,1.2-0.4,1.7-0.8c-0.6,0.4-1.3,0.5-1.9,0.2L46.8,57.1z"/>
								<path class="st8" d="M36.5,58c-0.6-0.1-1.2-0.4-1.7-0.8c0.6,0.4,1.3,0.5,1.9,0.2L36.5,58z"/>
								<polygon class="st9" points="41.2,63.5 44.4,63.3 42.9,56.6 42.8,56.7 43.5,62.7 41.2,63.4 								"/>
								<polygon class="st8" points="43.6,62.8 42.8,56.4 42.6,56.4 43.2,62.8 								"/>
								<path class="st13" d="M52.6,70.7c-0.9,3.3-2.4,5.9-5.3,6c3.3,1.1,5.5-1.2,7.2-3.5L52.6,70.7z"/>
								<path class="st13" d="M23.9,70.9c0.8,2.7,4.9,5.9,7.6,5.9c-2.1,0.9-5.9-1.2-9.2-3.7L23.9,70.9z"/>
								<path class="st9" d="M39,59.1l0.8,0.2c-0.6,1.9-2.5,2.2-4.8,2.1C37.1,61,39,60.5,39,59.1z"/>
								<path class="st9" d="M45.1,59.1l-0.6,0.2c0.5,1.9,2,2.2,3.9,2.1C46.6,61,45.1,60.5,45.1,59.1z"/>
								<path class="st16" d="M43.7,49.1l-5.5,5.3c-0.6,0.7-1.1,1.2-1.4,1.7c-0.7,0.9-1.5,1.7-2.5,2.4c-0.2,0.1-0.4,0.2-0.6,0.3
									c-0.2-0.4-0.3-0.8-0.2-1.2c0.1-0.6,0.5-1,1.4-1.6c1-0.7,1.9-1.4,2.8-2.2c0.5-0.6,0.9-1.2,1.3-1.9
									C40.1,50.3,41.8,49.4,43.7,49.1z"/>
								<path class="st17" d="M39.9,59.1l1.2,0.3c-1,3.1-4.1,3.6-7.8,3.3C36.9,62.2,40,61.5,39.9,59.1z"/>
								<path class="st17" d="M44.6,59.3l-0.9,0.3c0.7,2.7,2.8,3.1,5.5,2.8C46.7,61.9,44.5,61.3,44.6,59.3z"/>
								<polygon class="st18" points="209.4,131.6 62.6,140.7 -10,130.3 -10,124.3 136.8,117.8 209.5,126 								"/>
								<polygon class="st19" points="208.4,125.9 61.7,135 -10.9,124.3 135.8,115.2 								"/>
								<ellipse class="st20" cx="62.7" cy="127.8" rx="17.4" ry="2.5"/>
								<ellipse class="st21" cx="62.6" cy="125.5" rx="22.7" ry="3.3"/>
								<path class="st22" d="M62.4,125.4c0,2.4-5.3,1.9-8.6,1.7c-3.3-0.2-6.3,0.3-6.4-1.8c-0.1-2.4,4.5-3.7,7.8-3.7
									S62.4,123,62.4,125.4z"/>
								<ellipse class="st23" cx="68.4" cy="124" rx="1.5" ry="0.9"/>
								<ellipse class="st24" cx="67.4" cy="125.1" rx="1.8" ry="1.1"/>
								<ellipse class="st24" cx="71.7" cy="125" rx="1.8" ry="1.1"/>
								<path class="st23" d="M66.4,125.2c0,0.9-1.2,1-2.7,1c-1.5,0-2.7-0.1-2.7-1c0-0.9,1.2-1.6,2.7-1.6S66.4,124.3,66.4,125.2z"/>
								<path class="st25" d="M67.2,125c0,0.5-0.6,0.4-1.5,0.4s-1.5-0.4-1.5-0.9s0.6-0.4,1.5-0.4S67.2,124.5,67.2,125z"/>
								<ellipse class="st26" cx="70.5" cy="124.7" rx="1.8" ry="1.1"/>
								<ellipse class="st26" cx="66.1" cy="126.1" rx="1.8" ry="0.8"/>
								<ellipse class="st25" cx="68.9" cy="125.4" rx="1.8" ry="1.1"/>
								<ellipse class="st24" cx="75.5" cy="125.1" rx="1.8" ry="1.1"/>
								<ellipse class="st25" cx="74.2" cy="124.6" rx="1.5" ry="0.9"/>
								<ellipse class="st26" cx="74.6" cy="125.8" rx="1.8" ry="0.8"/>
								<ellipse class="st25" cx="77.3" cy="125.6" rx="1.8" ry="1.1"/>
								<ellipse class="st25" cx="63.3" cy="126.3" rx="1.5" ry="0.9"/>
								<ellipse class="st26" cx="68.1" cy="126.5" rx="1.8" ry="1.1"/>
								<ellipse class="st26" cx="63.7" cy="127.4" rx="1.8" ry="0.8"/>
								<ellipse class="st20" cx="132.6" cy="122.5" rx="17.4" ry="2.5"/>
								<ellipse class="st21" cx="132.5" cy="120.2" rx="22.7" ry="3.3"/>
								<path class="st22" d="M132.4,120.1c0,2.4-5.3,1.9-8.6,1.7s-6.3,0.3-6.4-1.8c-0.1-2.4,4.5-3.7,7.8-3.7
									S132.4,117.7,132.4,120.1z"/>
								<ellipse class="st23" cx="138.4" cy="118.7" rx="1.5" ry="0.9"/>
								<ellipse class="st24" cx="137.3" cy="119.8" rx="1.8" ry="1.1"/>
								<ellipse class="st24" cx="141.6" cy="119.7" rx="1.8" ry="1.1"/>
								<path class="st23" d="M136.3,119.9c0,0.9-1.2,1-2.7,1c-1.5,0-2.7-0.1-2.7-1s1.2-1.6,2.7-1.6
									C135.1,118.3,136.3,119,136.3,119.9z"/>
								<path class="st25" d="M137.1,119.7c0,0.5-0.6,0.4-1.5,0.4s-1.5-0.4-1.5-0.9c0-0.5,0.6-0.4,1.5-0.4
									C136.4,118.8,137.1,119.2,137.1,119.7z"/>
								<ellipse class="st26" cx="140.5" cy="119.4" rx="1.8" ry="1.1"/>
								<ellipse class="st26" cx="136" cy="120.8" rx="1.8" ry="0.8"/>
								<ellipse class="st25" cx="138.8" cy="120.1" rx="1.8" ry="1.1"/>
								<ellipse class="st24" cx="145.4" cy="119.8" rx="1.8" ry="1.1"/>
								<ellipse class="st25" cx="144.1" cy="119.3" rx="1.5" ry="0.9"/>
								<ellipse class="st26" cx="144.5" cy="120.5" rx="1.8" ry="0.8"/>
								<ellipse class="st25" cx="147.3" cy="120.3" rx="1.8" ry="1.1"/>
								<ellipse class="st25" cx="133.2" cy="121" rx="1.5" ry="0.9"/>
								<ellipse class="st26" cx="138" cy="121.2" rx="1.8" ry="1.1"/>
								<ellipse class="st26" cx="133.6" cy="122.1" rx="1.8" ry="0.8"/>
								<path class="st27" d="M100.5,119.9c0,0.9-1.1,1.9-2.6,1.9s-2.5-0.9-2.5-1.9c0-1.4,1.9-1.2,2.5-1.2S100.5,118.5,100.5,119.9z
									"/>
								<path class="st28" d="M99.9,122.4h-4c-0.3,0-0.6,0.2-0.6,0.5l-1.1,6.4c-0.1,0.3,0.2,0.7,0.5,0.7h0.1c2,0.7,4.2,0.7,6.2,0
									c0.3,0,0.6-0.3,0.6-0.6c0,0,0,0,0,0v-0.1l-1.1-6.4C100.6,122.6,100.3,122.4,99.9,122.4z"/>
								<path class="st29" d="M98.4,123.1h-2.2c-0.2,0-0.3,0.1-0.3,0.3L95,129c0,0.2,0.1,0.3,0.3,0.4c0,0,0,0,0,0l0,0
									c1,0.5,2.1,0.7,3.2,0.6L98.4,123.1z M100,123.3c0-0.2-0.2-0.3-0.3-0.3h-0.8l0.2,6.9c0.6,0,1.1-0.2,1.5-0.6
									c0.2,0,0.3-0.1,0.3-0.3c0,0,0,0,0,0l0,0L100,123.3z"/>
								<ellipse class="st28" cx="97" cy="119.1" rx="0.4" ry="0.2"/>
								<ellipse class="st28" cx="98.9" cy="119.1" rx="0.4" ry="0.2"/>
								<ellipse class="st28" cx="98" cy="119.7" rx="0.4" ry="0.2"/>
								<path class="st27" d="M100.2,122.4h-4.5v-0.8c0-0.3,0.2-0.4,0.5-0.4h3.5c0.3,0,0.5,0.1,0.5,0.4V122.4z"/>
								<path class="st28" d="M99.7,121.1h-3.5c-0.2,0-0.4,0.1-0.5,0.3h4.4C100.1,121.3,99.9,121.1,99.7,121.1z M95.7,121.8h4.5v0.3
									h-4.5V121.8z M95.7,122.4h4.5v0.2h-4.5V122.4z"/>
								<path class="st27" d="M109.7,119.5c-0.4,1.4-1.9,2.2-3.3,1.8c-0.9-0.2-1.6-0.9-1.8-1.8c0-1.4,1.9-1.2,2.5-1.2
									S109.7,118.1,109.7,119.5z"/>
								<path class="st28" d="M109.1,122h-4c-0.3,0-0.6,0.2-0.6,0.5l-1.1,6.4c-0.1,0.3,0.2,0.7,0.5,0.7c0,0,0,0,0,0h0.1
									c2,0.7,4.2,0.7,6.2,0c0.3,0,0.6-0.3,0.6-0.6c0,0,0,0,0,0c0,0,0-0.1,0-0.1l-1.1-6.4C109.7,122.2,109.5,122,109.1,122z"/>
								<path class="st30" d="M107.5,122.7h-2.2c-0.2,0-0.3,0.1-0.3,0.3l-0.9,5.7c0,0.2,0.1,0.3,0.3,0.4c0,0,0,0,0,0l0,0
									c1,0.5,2.1,0.7,3.3,0.6L107.5,122.7z M109.2,122.9c0-0.1-0.2-0.3-0.3-0.3h-0.8l0.2,6.9c0.6,0,1.1-0.2,1.5-0.6
									c0.2,0,0.3-0.1,0.3-0.3c0,0,0,0,0,0l0,0L109.2,122.9z"/>
								<ellipse class="st28" cx="107" cy="118.8" rx="0.4" ry="0.2"/>
								<path class="st27" d="M109.3,122h-4.5v-0.8c0-0.3,0.2-0.4,0.5-0.4h3.5c0.3,0,0.5,0.1,0.5,0.4L109.3,122z"/>
								<path class="st28" d="M108.8,120.8h-3.5c-0.2,0-0.4,0.1-0.4,0.3h4.4C109.2,120.9,109.1,120.8,108.8,120.8z M104.9,121.4h4.5
									v0.3h-4.5V121.4z M104.9,122h4.5v0.2h-4.5V122z"/>
								<path class="st13" d="M31.6,112.3c1.7,4.3,5.4,4.3,20.4,9.5c0.9,0.3,1.9,0.5,2.9,0.6c1.4,0.1,3,0.6,3.3-0.2
									c1.4-3.5,2.2-7.3,2.3-11.1c-8.5-3-17.3-5-26.3-5.8c-1.2,0.1-2.4,0.8-3,1.8C30.2,108.9,31.3,111.5,31.6,112.3z"/>
								<path class="st14" d="M45.6,94.5l-2,9.1l18.9,6.2L58,122.6c-4,0.1-10.5-2.3-16.4-4.6"/>
							</g>
						</g>
					</g>
					<circle class="st31" cx="81.1" cy="80.1" r="78.6"/>
				</g>
			</g>
		</g>
	</g>
</g>
</svg>
