<?xml version="1.0" encoding="utf-8"?>
<!-- Generator: Adobe Illustrator 26.0.1, SVG Export Plug-In . SVG Version: 6.00 Build 0)  -->
<svg version="1.1" id="Layer_1" xmlns="http://www.w3.org/2000/svg" xmlns:xlink="http://www.w3.org/1999/xlink" x="0px" y="0px"
	 viewBox="0 0 186.3 160.8" style="enable-background:new 0 0 186.3 160.8;" xml:space="preserve">
<style type="text/css">
	.st0{opacity:0.86;}
	.st1{fill:#7E7494;}
	.st2{clip-path:url(#SVGID_00000106854808158876880820000012596962086123564687_);}
	.st3{fill:url(#SVGID_00000163037768701585116670000017330856033547562382_);}
	.st4{fill:#D4BFA1;}
	.st5{fill:#7D78CA;}
	.st6{fill:#625DA2;}
	.st7{fill:#FDA48B;}
	.st8{fill:#412A74;}
	.st9{fill:#BF6156;}
	.st10{fill:#57538C;}
	.st11{opacity:0.18;fill:#FFFFFF;enable-background:new    ;}
	.st12{fill:#1B1464;}
	.st13{fill:url(#SVGID_00000026149155027504863070000011488440515763743362_);}
	.st14{fill:#EE786B;}
	.st15{fill:url(#SVGID_00000016044271449160118640000001815562037000560813_);}
	.st16{fill:#FFFFFF;}
	.st17{fill:none;stroke:#1B1464;stroke-width:0.5;stroke-miterlimit:10;}
	.st18{opacity:0.41;fill:url(#SVGID_00000028298823963599288090000005565049844947670711_);enable-background:new    ;}
	.st19{fill:#F5FFE5;}
	.st20{fill:#E0F1C4;}
	.st21{fill:#5D2D56;}
	.st22{opacity:0.27;fill:#C66B8B;enable-background:new    ;}
	.st23{opacity:0.22;fill:none;stroke:#1B1464;stroke-width:2;stroke-miterlimit:10;enable-background:new    ;}
	.st24{fill:url(#SVGID_00000006666995399055765580000012875370758793973399_);}
	.st25{font-family:'Arial';font-weight:700;}
	.st26{font-size:8.7707px;}
	.st27{letter-spacing:-1;}
	.st28{font-family:'Arial';font-weight:700;}
	.st29{font-size:9.3878px;}
	.st30{fill:#CCCCCC;}
	.st31{fill:#00703C;}
	.st32{font-size:6.2892px;}
	.st33{font-size:2.4553px;}
	.st34{font-size:2.7966px;}
</style>
<g>
	<g id="Layer_2_00000093858805911178893110000009830388241952750991_">
		<g id="MainLayer">
			<g id="stories" class="st0">
				<g id="caregroup">
					<g id="care3">
						<path class="st1" d="M121.6,132.2l23.5-9.8v-1.6l-63.8-0.2L50,129.2l-0.1,3.3l66.1,0.8C117.9,133.3,119.8,132.9,121.6,132.2z"
							/>
						<g>
							<defs>
								<circle id="SVGID_1_" cx="104.9" cy="80.4" r="78.8"/>
							</defs>
							<clipPath id="SVGID_00000004530086673758078780000005293973506174319257_">
								<use xlink:href="#SVGID_1_"  style="overflow:visible;"/>
							</clipPath>
							<g style="clip-path:url(#SVGID_00000004530086673758078780000005293973506174319257_);">
								
									<linearGradient id="SVGID_00000154414962381654966490000006045509945783904141_" gradientUnits="userSpaceOnUse" x1="104.884" y1="-11.1895" x2="104.884" y2="173.4415" gradientTransform="matrix(1 0 0 -1 0 161.536)">
									<stop  offset="0" style="stop-color:#C98BC2"/>
									<stop  offset="1" style="stop-color:#FFFFFF"/>
								</linearGradient>
								<circle style="fill:url(#SVGID_00000154414962381654966490000006045509945783904141_);" cx="104.9" cy="80.4" r="92.3"/>
								<polygon class="st4" points="234.6,191.6 -11.2,191.6 -8.4,117.1 237.4,123.5 								"/>
								<path class="st5" d="M120,72.7c4.4,5.3,1.8,11.2-2.5,38.3c-0.6,3.7-1.9,7.2-4,10.2c-4.1,7.1-14.9,5.3-16.6-2.9
									c1.3-15,2.9-31.8,11.7-45.5c0.5-0.8,2.1-3.4,4.7-3.7C116.5,68.6,119.1,71.7,120,72.7z"/>
								<path class="st5" d="M111.7,70.1l-0.4,49c13.9,8.2,30.7,7.6,49.7,0.8l0.6-49.2C143.2,61.1,126.7,61.6,111.7,70.1z"/>
								<path class="st5" d="M162.1,69.1c5.9,3.5,5.3,10,10,37c0.6,3.6,0.5,7.4-0.5,11c-1,4.9-5.8,8-10.7,6.9
									c-2.5-0.5-4.6-2.1-5.9-4.3c-2.8-15.4-4-31.2-3.6-46.8c0.2-0.9,0.9-3.8,3.2-5C157.5,66.3,161,68.4,162.1,69.1z"/>
								<path class="st6" d="M164.5,71.2c-4.7,16.5-18.4,18.9-33.3,27.6c-14.1-6.6-19.1-8.2-24-23.6c0.6-3.9,3-6.9,5.6-11.8
									c-4.9-14.9-3.9-26.7,0.9-36.4c7.8-9.4,16.8-9.4,26.6-3.7c7.9,9.8,12.7,21.7,13.9,34.2C160.6,62.7,163,65.7,164.5,71.2z"/>
								<path class="st7" d="M113.5,48.4c1.5-6.6,3.6-12.8,7.3-18c8.7,4.6,16.3,10.1,21.5,17.1c0.4,3.8-0.7,7.7-3.1,10.7
									c-2.7,3.4-6.8,5.4-11.2,5.4C121.2,63.5,114.7,57.2,113.5,48.4z"/>
								
									<ellipse transform="matrix(0.9882 -0.1532 0.1532 0.9882 -4.869 20.68)" class="st8" cx="131.8" cy="41.9" rx="1.8" ry="2.5"/>
								
									<ellipse transform="matrix(0.9882 -0.1532 0.1532 0.9882 -5.2142 18.8017)" class="st8" cx="119.4" cy="43.2" rx="1.8" ry="2.5"/>
								<path class="st8" d="M118.1,42.5c-0.9,0.1-1.9-0.2-2.6-0.8c0.9,0.5,2,0.4,2.8-0.1L118.1,42.5z"/>
								<path class="st8" d="M133.2,41.5c0.9-0.2,1.7-0.8,2.2-1.6c-0.7,0.7-1.8,1-2.7,0.7L133.2,41.5z"/>
								<polygon class="st9" points="127.7,50.5 123,51 123.6,40.9 123.8,41 124.2,49.8 127.6,50.3 								"/>
								<polygon class="st8" points="124,49.9 123.8,40.7 124,40.6 124.6,49.8 								"/>
								<path class="st10" d="M112.9,63.3c2.1,4.6,4.7,8,9,7.4c-4.6,2.4-8.2-0.6-11.1-3.4L112.9,63.3z"/>
								<path class="st10" d="M154.1,57.2c-0.6,4-5.8,9.5-9.7,10.1c3.3,0.8,8.2-3.1,12.4-7.5L154.1,57.2z"/>
								<circle class="st11" cx="117.2" cy="44.9" r="6.3"/>
								<path class="st12" d="M118.2,51.4c-3.6,0.6-7-1.9-7.6-5.6s1.9-7,5.6-7.6c3.6-0.6,7,1.9,7.6,5.6
									C124.3,47.5,121.8,50.9,118.2,51.4z M116.3,39c-3.2,0.5-5.4,3.6-4.9,6.8c0.5,3.2,3.6,5.4,6.8,4.9c3.2-0.5,5.4-3.5,4.9-6.7
									C122.6,40.7,119.5,38.5,116.3,39z"/>
								
									<ellipse transform="matrix(0.1602 -0.9871 0.9871 0.1602 69.5605 166.0057)" class="st11" cx="132.3" cy="42.1" rx="6.3" ry="6.3"/>
								<path class="st12" d="M133.4,48.7c-3.6,0.6-7.1-1.9-7.6-5.5c-0.6-3.6,1.9-7.1,5.5-7.6c3.6-0.6,7.1,1.9,7.6,5.5c0,0,0,0,0,0
									C139.5,44.7,137,48.1,133.4,48.7z M131.4,36.2c-3.2,0.5-5.4,3.5-4.9,6.8c0.5,3.2,3.5,5.4,6.8,4.9c3.2-0.5,5.4-3.5,4.9-6.8
									c0,0,0,0,0,0C137.7,38,134.7,35.8,131.4,36.2L131.4,36.2z"/>
								<path class="st12" d="M122.7,42c1.1-0.5,2.3-0.7,3.5-0.5v0.9c-1.1-0.2-2.1,0-3.1,0.5L122.7,42z"/>
								
									<linearGradient id="SVGID_00000133497022633893990620000013832674988600771239_" gradientUnits="userSpaceOnUse" x1="-196.7345" y1="40.5288" x2="-196.4981" y2="28.9746" gradientTransform="matrix(-1 0 0 -1 -101.4674 161.536)">
									<stop  offset="0.8" style="stop-color:#8D82A6"/>
									<stop  offset="1" style="stop-color:#554E63"/>
								</linearGradient>
								<path style="fill:url(#SVGID_00000133497022633893990620000013832674988600771239_);" d="M119.5,131.7l23-8.1l-63.3-3.4
									L47.7,132l66.1,0.8C115.8,132.8,117.7,132.4,119.5,131.7z"/>
								<path class="st14" d="M128,114c-2.1-0.4-4.3-0.3-6.4,0.3c-3.5,1.2-7.2,4.5-6.2,7.1c0.6,1.7,3,2.5,4.5,3c3,1,6.2,0.8,9.1-0.5
									c1.4-0.6,2.8-1.4,3.9-2.4L128,114z"/>
								<path class="st5" d="M164.8,121.1c-3,4.5-11.2,3.3-29.6,5.6c-1.1,0.1-2.3,0.1-3.4,0c-1.6-0.2-3.6,0-3.7-1
									c-0.8-4.4-0.8-8.9,0-13.3c10.4-1.4,20.9-1.6,31.3-0.4c1.4,0.4,2.5,1.4,3,2.8C163.1,117.3,165.4,120.3,164.8,121.1z"/>
								
									<linearGradient id="SVGID_00000106135445525543920870000002593240302695508614_" gradientUnits="userSpaceOnUse" x1="-175.4344" y1="76.6487" x2="-174.4759" y2="28.121" gradientTransform="matrix(-1 0 0 -1 -101.4674 161.536)">
									<stop  offset="0.43" style="stop-color:#7E7494"/>
									<stop  offset="1" style="stop-color:#625A73"/>
								</linearGradient>
								<path style="fill:url(#SVGID_00000106135445525543920870000002593240302695508614_);" d="M40.7,83.1h60.2c4.4,0,8,4.1,8,9.2
									l5.7,39.1c0.1,1.4-1,2.7-2.4,2.8c0,0,0,0,0,0H41.2c-1.4-0.1-2.6-1.3-2.5-2.8c0,0,0,0,0,0l-6.4-38.6
									C32.3,87.5,36.1,83.1,40.7,83.1z"/>
								<path class="st16" d="M86.1,107.2c-0.1,1.4-3.4,2.5-5.8,2.6c-2.4,0.2-5.8-0.2-6.5-1.7c-0.7-1.5,1.9-2.5,1.5-4.9
									c-0.3-1.6-1.7-2-1.3-3c0.6-1.8,5.4-2.9,6.8-1.9c1,0.8-0.6,2,0.1,4C82,105.2,86.3,105.6,86.1,107.2z"/>
								<path class="st16" d="M80,95.8c-0.8-0.5-1-1.5-0.5-2.3c0,0,0.1-0.1,0.1-0.1h0.3l0.1-0.3c-0.3-0.2-0.7-0.3-1.1-0.2
									c-0.2,0.2-0.3,0.3-0.2,0.5c0.1,0.2,0.2,0.1,0.3,0c-0.5,0.9-0.3,2,0.4,2.6L80,95.8z"/>
								<path class="st17" d="M161,123.8c-13.1,1.6-27.6,3.7-32.4,2.3c-1-4.4-1.1-9-0.3-13.5c7.1-2.4,15.9-3.7,25.5-4.5
									c-1.6-5.6-1.4-11.7-1.7-20.4"/>
								
									<radialGradient id="SVGID_00000113355601892819210920000006457959779332028082_" cx="-234.0815" cy="-5592.0073" r="10.4515" gradientTransform="matrix(-1 0 0 -0.29 -101.4674 -1505.0046)" gradientUnits="userSpaceOnUse">
									<stop  offset="0" style="stop-color:#000000"/>
									<stop  offset="1" style="stop-color:#FFFFFF"/>
								</radialGradient>
								
									<ellipse style="opacity:0.41;fill:url(#SVGID_00000113355601892819210920000006457959779332028082_);enable-background:new    ;" cx="132.6" cy="147.1" rx="10.5" ry="3.1"/>
								<path class="st19" d="M120.2,138c0,3.4,2.2,6.1,4.9,6.1s4.9-2.7,4.9-6.1s-2.2-6.1-4.9-6.1S120.2,134.6,120.2,138z
									 M121.8,138c0-2.3,1.5-4.1,3.3-4.1s3.3,1.8,3.3,4.1c0,2.3-1.5,4.1-3.3,4.1S121.8,140.3,121.8,138z"/>
								<path class="st19" d="M142.3,130.9c0.5,7.6,0.7,14.8-4.8,16.1c-0.1,0.3,0.9,0.7-4,0.7c-4.9,0-3.9-0.2-4-0.7
									c-6.2-2.5-5.1-9.6-4.8-16.1H142.3z"/>
								<path class="st20" d="M137,147.1c1.7-0.4,2.8-0.9,2.8-1.5c2.9-2.5,2.7-8.6,2.4-14.8h-2.6C140,137.3,139.7,143.2,137,147.1z"
									/>
								<ellipse class="st19" cx="133.4" cy="130.9" rx="8.9" ry="2"/>
								<path class="st20" d="M126.6,131.6c-0.4-0.2-0.6-0.4-0.6-0.6c0-0.9,3.3-1.7,7.4-1.7s7.4,0.7,7.4,1.7c0,0.2-0.2,0.4-0.6,0.6
									c-2.2-0.8-4.5-1.1-6.8-1C131.1,130.4,128.7,130.8,126.6,131.6z"/>
								<ellipse class="st21" cx="133.4" cy="131.6" rx="6.8" ry="1"/>
								<path class="st22" d="M133.3,127.4c0.5-1.3,0.7-2.6,0.5-3.9c-0.5-3-2.6-4-2.8-6.4c0.1-1.7,0.9-3.4,2.2-4.5
									c-0.6,1.4-0.8,2.9-0.5,4.4c0.6,3.1,2.9,4.1,2.8,6.6C135.4,125.1,134.6,126.5,133.3,127.4z"/>
								<path class="st22" d="M135.9,119.8c-0.9-1.5-0.8-3.3,0.1-4.7c0.5-0.6,1.2-0.9,1.9-0.8c0.8,0.3,1.4,1,1.6,1.9
									c0.1,1-0.3,2-1,2.6c1.4-0.6,2.2-2.1,1.9-3.6c-0.3-1-1-1.9-2-2.3c-1.4-0.2-2.8,0.4-3.7,1.5
									C133.6,116.2,134.1,118.6,135.9,119.8z"/>
							</g>
						</g>
						<circle class="st23" cx="104.9" cy="80.4" r="78.8"/>
						<polygon class="st16" points="2.1,68.5 87.3,68.5 96.4,77.6 96.3,68.5 96.3,15.2 2.1,15.2 						"/>
						
							<linearGradient id="SVGID_00000121971237182262238150000016689991184687534243_" gradientUnits="userSpaceOnUse" x1="2.0779" y1="143.5647" x2="96.4679" y2="143.5647" gradientTransform="matrix(1 0 0 -1 0 161.536)">
							<stop  offset="0.43" style="stop-color:#7E7494"/>
							<stop  offset="1" style="stop-color:#625A73"/>
						</linearGradient>
						
							<rect x="2.1" y="15.2" style="fill:url(#SVGID_00000121971237182262238150000016689991184687534243_);" width="94.4" height="5.6"/>
						<rect x="2.1" y="20.8" width="94.4" height="14.7"/>
						<path class="st16" d="M12,22.8l0.4,1.2l0,0L12.2,24l0,0l-0.9-0.3V25l0.9-0.5l0,0c0,0,0.1,0.1,0.1,0.1l-0.5,1.6l0,0
							c0,0.1,0,0.2,0,0.2c0,0.4,0.3,0.8,0.7,0.8h0.2c0.4-0.1,0.7-0.4,0.7-0.8c0-0.1,0-0.2,0-0.2l0,0L13,24.7l0.1-0.1l0,0L14,25v-1.3
							L13.1,24l0,0L13,23.9l0,0l0.4-1.2L12,22.8L12,22.8z M8.7,24.5c-0.4,0-0.7,0.3-0.7,0.7c0,0.3,0.2,0.5,0.4,0.6
							c0.3,0.2,0.8,0.1,1-0.2c0.2-0.3,0.1-0.8-0.2-1c-0.1,0-0.1-0.1-0.2-0.1C8.9,24.5,8.8,24.5,8.7,24.5z M16.6,24.5
							c-0.1,0-0.2,0-0.3,0c-0.4,0.1-0.6,0.5-0.5,0.9c0.1,0.4,0.5,0.6,0.9,0.5c0.1,0,0.2,0,0.2-0.1c0.4-0.2,0.5-0.6,0.4-0.9
							C17.1,24.6,16.8,24.5,16.6,24.5L16.6,24.5z M10.5,25.1c-0.4,0.1-0.7,0.4-0.6,0.8c0,0.2,0.1,0.4,0.3,0.5c0.4,0.1,0.8,0,0.9-0.4
							c0.1-0.4,0-0.8-0.4-0.9C10.7,25,10.6,25,10.5,25.1L10.5,25.1z M14.8,25.1c-0.1,0-0.2,0-0.3,0c-0.4,0.1-0.5,0.5-0.4,0.9
							c0,0,0,0,0,0c0.2,0.4,0.6,0.5,0.9,0.4c0.3-0.2,0.4-0.7,0.2-1C15.1,25.2,15,25.1,14.8,25.1L14.8,25.1z M7.1,25.4
							c-0.4,0.1-0.7,0.4-0.6,0.8c0,0.2,0.1,0.4,0.3,0.5c0.4,0.1,0.8,0,0.9-0.4c0.1-0.4,0-0.8-0.4-0.9C7.3,25.4,7.2,25.4,7.1,25.4
							L7.1,25.4z M18.2,25.4c-0.1,0-0.2,0-0.3,0c-0.4,0.1-0.5,0.5-0.4,0.9c0,0,0,0,0,0c0.1,0.4,0.6,0.6,0.9,0.4
							c0.4-0.1,0.6-0.6,0.4-0.9C18.8,25.6,18.5,25.4,18.2,25.4L18.2,25.4z M6.6,27.3C6.2,27.3,6,27.7,6,28.1
							c0.1,0.4,0.5,0.6,0.9,0.6c0.4-0.1,0.6-0.5,0.6-0.9c-0.1-0.3-0.3-0.5-0.6-0.6C6.8,27.2,6.7,27.2,6.6,27.3L6.6,27.3z M18.7,27.3
							c-0.1,0-0.2,0-0.3,0c-0.4,0.1-0.6,0.6-0.4,0.9c0.1,0.4,0.6,0.6,0.9,0.4c0.4-0.1,0.6-0.6,0.4-0.9c0,0,0,0,0,0
							C19.2,27.4,19,27.3,18.7,27.3L18.7,27.3z M9.2,27.4c-0.5,0.6-0.5,1.5,0.1,2c0.1,0.1,0.1,0.1,0.2,0.1c-0.5-0.3-1.2,0-0.8,0.9
							c0.2-0.6,0.7-0.4,0.8,0c0.1,0.4-0.2,0.8-0.6,0.8c-0.4,0-0.9-0.2-1.4-1.2c0.3,0,0.6,0.1,0.8,0.3L7.8,29
							c-0.1,0.3-0.2,0.6-0.4,0.9c-0.1-0.3-0.1-0.7,0-1.1l-1,0.3c0.7,1,1.2,2.2,1.4,3.5c3.2-0.4,6.4-0.4,9.6,0
							c0.2-1.2,0.7-2.4,1.4-3.5l-1-0.3c0.1,0.3,0.1,0.7,0,1.1c-0.2-0.3-0.4-0.6-0.4-0.9L17,30.6c0.2-0.2,0.5-0.3,0.8-0.3
							c-0.4,1-1,1.2-1.3,1.2c-0.4-0.1-0.6-0.4-0.6-0.8c0,0,0,0,0,0c0.1-0.5,0.6-0.6,0.8,0c0.4-0.9-0.3-1.2-0.8-0.9
							c0.7-0.5,0.8-1.4,0.3-2c0-0.1-0.1-0.1-0.1-0.1c-0.7,0.5-0.9,1.4-0.5,2.1c0,0,0,0,0,0c-0.5-0.6-1.2-0.2-1,0.6
							c0.4-0.6,0.8-0.2,0.7,0.3c-0.1,0.5-0.6,0.8-1.3,0.7C13.1,31.3,13,30.5,13,30c0.3,0,0.7,0.2,1.1,0.7l0-1.7
							c-0.3,0.4-0.8,0.6-1.3,0.6c0.2-0.4,0.5-0.8,0.8-1.2h-2c0.3,0.4,0.6,0.8,0.8,1.2c-0.5,0-1-0.2-1.3-0.6l0.1,1.7
							c0.4-0.6,0.9-0.8,1.1-0.7c0,0.6-0.1,1.3-1.1,1.4c-0.7,0-1.3-0.3-1.4-0.7c-0.1-0.4,0.4-0.9,0.7-0.3c0.3-0.9-0.5-1.2-1-0.6
							C10.1,28.9,9.9,28,9.2,27.4C9.2,27.5,9.1,27.5,9.2,27.4L9.2,27.4z"/>
						<text transform="matrix(1 0 0 1 32.3942 30.9901)" class="st16 st25 st26">G</text>
						<text transform="matrix(1 0 0 1 39.3395 30.9901)" class="st16 st25 st26">O</text>
						<text transform="matrix(1 0 0 1 46.0622 30.9901)" class="st16 st25 st26 st27">V</text>
						<text transform="matrix(1 0 0 1 50.9997 30.9901)" class="st16 st25 st26">.UK</text>
						<text transform="matrix(1 0 0 1 7.4606 44.828)" class="st28 st29">Care</text>
						<text transform="matrix(1 0 0 1 28.3239 44.828)" class="st28 st29">r</text>
						<text transform="matrix(1 0 0 1 32.3288 44.828)" class="st28 st29">’</text>
						<text transform="matrix(1 0 0 1 34.5876 44.828)" class="st28 st29">s</text>
						<text transform="matrix(1 0 0 1 39.8122 44.828)" class="st28 st29"> </text>
						<text transform="matrix(1 0 0 1 42.071 44.828)" class="st28 st29">Allowance</text>
						<rect x="8.4" y="47.7" class="st30" width="79.8" height="1.9"/>
						<rect x="21.9" y="50.8" class="st30" width="51" height="1.9"/>
						<rect x="30.4" y="54.7" class="st31" width="37.8" height="10.1"/>
						<text transform="matrix(1 0 0 1 32.9586 61.5037)" class="st16 st28 st32">Apply Now</text>
						<rect x="4.2" y="19" class="st16" width="0.9" height="1.2"/>
						<rect x="5.4" y="18.1" class="st16" width="0.9" height="2.1"/>
						<rect x="6.6" y="17" class="st16" width="0.9" height="3.2"/>
						<rect x="7.8" y="16" class="st16" width="0.9" height="4.2"/>
						<path class="st16" d="M15.7,18.3c-0.1,0-0.1,0-0.2-0.1c-0.6-0.6-1.7-0.6-2.3,0c0,0,0,0,0,0c-0.1,0.1-0.2,0.1-0.3,0
							c-0.1-0.1-0.1-0.2,0-0.3c0.8-0.8,2.1-0.8,3,0c0.1,0.1,0.1,0.2,0,0.3C15.9,18.3,15.8,18.3,15.7,18.3z"/>
						<path class="st16" d="M15.1,18.9c-0.1,0-0.1,0-0.2-0.1c-0.3-0.3-0.7-0.3-1,0c-0.1,0.1-0.2,0.1-0.3,0c-0.1-0.1-0.1-0.2,0-0.3
							c0.2-0.2,0.5-0.4,0.9-0.4c0.3,0,0.6,0.1,0.9,0.4c0.1,0.1,0.1,0.2,0,0.3C15.2,18.9,15.2,18.9,15.1,18.9z"/>
						<circle class="st16" cx="14.4" cy="19.4" r="0.3"/>
						<path class="st16" d="M16.4,17.7c-0.1,0-0.1,0-0.2-0.1c-1-1-2.6-1-3.6,0c-0.1,0.1-0.2,0.1-0.3,0c-0.1-0.1-0.1-0.2,0-0.3
							c1.2-1.2,3.1-1.2,4.3,0c0.1,0.1,0.1,0.2,0,0.3C16.5,17.6,16.5,17.7,16.4,17.7z"/>
						<path class="st16" d="M93.4,17.2H93v-0.5c0-0.1-0.1-0.2-0.2-0.2l0,0h-4.6c-0.1,0-0.2,0.1-0.2,0.2v2.5c0,0.1,0.1,0.2,0.2,0.2
							h4.7c0.1,0,0.2-0.1,0.2-0.2v-0.5h0.4c0.1,0,0.2-0.1,0.2-0.2v-1.1C93.7,17.2,93.6,17.2,93.4,17.2
							C93.5,17.2,93.4,17.2,93.4,17.2z M92.6,19h-4.2v-2.2h4.2L92.6,19z M93.2,18.3H93v-0.7h0.2V18.3z"/>
						<path class="st16" d="M88.8,17h3c0.1,0,0.2,0.1,0.2,0.2v1.3c0,0.1-0.1,0.2-0.2,0.2h-3c-0.1,0-0.2-0.1-0.2-0.2v-1.3
							C88.6,17.1,88.7,17,88.8,17z"/>
						<text transform="matrix(1 0 0 1 80.9088 18.8846)" class="st16 st25 st33">87%</text>
						<text transform="matrix(1 0 0 1 46.2721 18.9891)" class="st16 st25 st34">11:55</text>
					</g>
				</g>
			</g>
		</g>
	</g>
</g>
</svg>
