<svg xmlns="http://www.w3.org/2000/svg" xmlns:xlink="http://www.w3.org/1999/xlink" viewBox="0 0 88.75 83.53"><defs><style>.cls-1{fill:#d59532;}.cls-2{fill:#faaf3b;}.cls-3{font-size:72.76px;}.cls-18,.cls-3,.cls-6{fill:#fff;}.cls-18,.cls-3{font-family:Arial-BoldMT, Arial;font-weight:700;}.cls-4{fill:#298f7c;}.cls-5{fill:#31ab94;}.cls-7{opacity:0.86;}.cls-8{fill:url(#linear-gradient);}.cls-9{fill:none;stroke:#1b1464;stroke-miterlimit:10;stroke-width:2px;opacity:0.22;}.cls-10{fill:#fda48b;}.cls-11{fill:#2b303d;}.cls-12{fill:#40485b;}.cls-13{fill:#7d78ca;}.cls-14{fill:#f6f8ed;}.cls-15{fill:#febca9;}.cls-16{fill:#4870ae;}.cls-17{fill:#ff9500;}.cls-18{font-size:4.28px;}.cls-19{fill:#ffce35;}</style><linearGradient id="linear-gradient" x1="11.31" y1="78.93" x2="55.18" y2="23.33" gradientUnits="userSpaceOnUse"><stop offset="0" stop-color="#b7d5f4"/><stop offset="0.12" stop-color="#c0d6f6"/><stop offset="0.32" stop-color="#dadafa"/><stop offset="0.5" stop-color="#f8deff"/><stop offset="0.98" stop-color="#fff"/></linearGradient><symbol id="raised-tick" data-name="raised-tick" viewBox="0 0 40.24 38.15"><path class="cls-4" d="M40.23,17.69c.7,23.58-36.76,23.58-36.76,0S40.93-5.9,40.23,17.69Z"/><path class="cls-5" d="M36.76,20.46C37.46,44.05,0,44.05,0,20.46S36.76-3.82,36.76,20.46Z"/><polygon class="cls-6" points="5.51 21.98 13.24 31.2 31.27 13.89 28.34 11.13 13.38 24.96 8.7 19.44 5.51 21.98"/></symbol><symbol id="hex-orange-pound" data-name="hex-orange-pound" viewBox="0 0 132.05 112.17"><polygon class="cls-1" points="101.86 106.56 91.86 112.14 30.27 5.92 40.13 0 101.18 0.79 132.05 54.07 101.86 106.56"/><polygon class="cls-2" points="91.92 112.17 30.87 111.39 0 58.11 30.18 5.62 91.24 6.4 122.11 59.68 91.92 112.17"/><use width="40.24" height="38.15" transform="translate(82.52 9.36)" xlink:href="#raised-tick"/><text class="cls-3" transform="translate(42.6 82.92)">£</text></symbol></defs><g id="Layer_2" data-name="Layer 2"><g id="MainLayer"><g id="stories" class="cls-7"><g id="caregroup"><g id="care5"><circle class="cls-8" cx="36.41" cy="47.12" r="35.41"/><circle class="cls-9" cx="36.41" cy="47.12" r="35.41"/><g id="attendance5"><rect class="cls-10" x="43.43" y="15.67" width="7.17" height="5.03" rx="2.51" transform="translate(-1.59 31.55) rotate(-36.52)"/><path class="cls-11" d="M42.38,42.33H25.22a2.69,2.69,0,0,1-2.73-3.17l5.06-36A3.77,3.77,0,0,1,31.17,0H48.33a2.7,2.7,0,0,1,2.73,3.17L46,39.16A3.78,3.78,0,0,1,42.38,42.33Z"/><path class="cls-10" d="M35.45,55.11c9-1.06,10.89-10.27,14.45-20.48L23.31,32.87,17.8,53l15.46,4.83Z"/><path class="cls-10" d="M27.4,43c3.52.55,2,3.83,8.44,2.24,3.73-.92,11.74-9.33,14.06-10.58L23.31,32.87,18.37,51.15l.71.19C21.16,47.16,25.32,47.15,27.4,43Z"/><path class="cls-12" d="M40.87,42.33H23.7A2.7,2.7,0,0,1,21,39.16L26,3.17A3.78,3.78,0,0,1,29.65,0H46.82a2.69,2.69,0,0,1,2.72,3.17l-5.06,36A3.76,3.76,0,0,1,40.87,42.33Z"/><path class="cls-13" d="M9,69l7.88-17.58c6.61.39,13.55,2.9,20.75,7.09L29.44,80.7C18.71,78.78,13.83,72.5,9,69Z"/><polygon class="cls-14" points="43.59 34.63 23.04 34.63 27.25 4.71 47.8 4.71 43.59 34.63"/><rect class="cls-10" x="42.89" y="26.89" width="6.82" height="4.77" rx="2.39" transform="translate(-7.77 20.48) rotate(-23.06)"/><rect class="cls-10" x="43.62" y="21.88" width="5.97" height="4.18" rx="2.09" transform="translate(-4.71 13.32) rotate(-15.5)"/><rect class="cls-10" x="43.91" y="32.23" width="5.97" height="4.18" rx="2.09" transform="translate(-7.47 13.78) rotate(-15.5)"/><rect class="cls-15" x="43.8" y="22.96" width="2.38" height="2.97" rx="1.15" transform="translate(-4.9 12.91) rotate(-15.5)"/><rect class="cls-15" x="43.26" y="28.46" width="2.71" height="3.22" rx="1.28" transform="translate(-8.42 21.02) rotate(-24.3)"/><rect class="cls-15" x="44.41" y="33.26" width="2.01" height="3.22" rx="1" transform="translate(-9.56 18.87) rotate(-21.29)"/><polygon class="cls-16" points="40.87 2.63 35.21 2.63 35.34 1.72 41 1.72 40.87 2.63"/><ellipse class="cls-16" cx="32.88" cy="38.09" rx="1.99" ry="1.73" transform="translate(-17.14 32.65) rotate(-42.99)"/><ellipse class="cls-17" cx="30.39" cy="7.93" rx="2.78" ry="2.41" transform="translate(2.75 22.85) rotate(-42.99)"/><text class="cls-18" transform="matrix(0.99, 0, -0.14, 0.99, 29.02, 9.28)">£</text><path d="M25.37,26.56l.38-2.71h.88a2.94,2.94,0,0,1,.65,0,.58.58,0,0,1,.35.26.76.76,0,0,1,.09.53.94.94,0,0,1-.42.69,1,1,0,0,1-.3.13,4,4,0,0,1-.58,0h-.36l-.14,1Zm.87-2.26-.11.78h.3a1.37,1.37,0,0,0,.44,0,.43.43,0,0,0,.19-.13.4.4,0,0,0,.09-.21.35.35,0,0,0,0-.25.37.37,0,0,0-.21-.12,2.75,2.75,0,0,0-.39,0Z"/><path d="M30.07,26.56h-.6l-.15-.62H28.24l-.31.62h-.59l1.44-2.71h.58Zm-.86-1.07-.23-1-.51,1Z"/><path d="M30.72,26.56l.16-1.14-.77-1.57h.64l.49,1.07L32,23.85h.63l-1.22,1.57-.16,1.14Z"/><path d="M32.53,26.56l.38-2.71h.82L34,25.7l.74-1.85h.83l-.39,2.71h-.51l.3-2.14-.83,2.14h-.53l-.24-2.14L33,26.56Z"/><path d="M35.7,26.56l.38-2.71h2L38,24.3H36.56l-.08.61h1.36l-.06.45H36.41l-.1.74h1.52l-.07.46Z"/><path d="M38.23,26.56l.38-2.71h.54L40,25.66l.26-1.81h.51l-.38,2.71h-.55L39,24.79l-.25,1.77Z"/><path d="M41.58,26.56l.31-2.26h-.8l.06-.45h2.16l-.07.45h-.8l-.32,2.26Z"/><path d="M24,31.11l.38-2.71h1.15a1.83,1.83,0,0,1,.62.07.48.48,0,0,1,.28.26.62.62,0,0,1,.06.43.83.83,0,0,1-.25.5,1,1,0,0,1-.57.25,1,1,0,0,1,.26.23,2.17,2.17,0,0,1,.25.44l.26.53h-.66l-.31-.59c-.11-.21-.19-.34-.23-.4a.48.48,0,0,0-.15-.11.91.91,0,0,0-.27,0h-.11l-.16,1.13Zm.77-1.57h.4a2.46,2.46,0,0,0,.5,0,.39.39,0,0,0,.17-.11.49.49,0,0,0,.08-.21.25.25,0,0,0-.23-.32h-.83Z"/><path d="M26.73,31.11l.39-2.71h2l-.07.46H27.6l-.09.6h1.37l-.07.45H27.45l-.1.74h1.51l-.06.46Z"/><path d="M31.14,30.11l.51.17a1.45,1.45,0,0,1-.5.66,1.25,1.25,0,0,1-.75.22,1,1,0,0,1-.84-.37,1.27,1.27,0,0,1-.21-1,1.76,1.76,0,0,1,.5-1.06,1.38,1.38,0,0,1,1-.37,1,1,0,0,1,.76.29.92.92,0,0,1,.21.5l-.56.13a.47.47,0,0,0-.15-.33.52.52,0,0,0-.36-.12.7.7,0,0,0-.52.22,1.23,1.23,0,0,0-.29.7,1.05,1.05,0,0,0,.09.73.5.5,0,0,0,.45.22.64.64,0,0,0,.39-.14A.92.92,0,0,0,31.14,30.11Z"/><path d="M32,31.11l.38-2.71h2l-.06.46H32.87l-.09.6h1.36l-.06.45H32.72l-.11.74h1.52l-.07.46Z"/><path d="M34.51,31.11l.38-2.71h.55l-.38,2.71Z"/><path d="M36.28,31.11l-.59-2.71h.59l.41,2,.94-2h.58l-1.35,2.71Z"/><path d="M38.11,31.11l.38-2.71h2l-.07.46H39l-.09.6h1.37l-.07.45H38.83l-.11.74h1.52l-.06.46Z"/><path d="M41,28.4h1a1.66,1.66,0,0,1,.51.05.82.82,0,0,1,.38.25,1,1,0,0,1,.19.44,1.71,1.71,0,0,1,0,.64,1.89,1.89,0,0,1-.16.58,1.78,1.78,0,0,1-.36.48,1.18,1.18,0,0,1-.42.21,1.63,1.63,0,0,1-.49.06h-1Zm.48.46-.25,1.79h.41l.34,0a.56.56,0,0,0,.23-.12.6.6,0,0,0,.18-.26,1.72,1.72,0,0,0,.13-.49,1.64,1.64,0,0,0,0-.49.49.49,0,0,0-.12-.26.44.44,0,0,0-.23-.13,2.45,2.45,0,0,0-.45,0Z"/><ellipse class="cls-5" cx="35.93" cy="15.75" rx="4.98" ry="4.33" transform="translate(-1.09 28.73) rotate(-42.99)"/><path class="cls-6" d="M34.58,17.92,33.2,16.14a.38.38,0,0,1,.6-.46l.88,1.13L38.5,13.4A.38.38,0,1,1,39,14Z"/><path class="cls-10" d="M18.85,51l.43-4.52c-3.61-7.33-4.5-11.19-4-13.33,4-7.22,6.29-10,7.29-9.17,2.88,3.4,2.2,7.17-.91,11.19a22.61,22.61,0,0,1,6,8.45"/><path class="cls-15" d="M18.66,27.21a.94.94,0,0,0,.64.37,5.47,5.47,0,0,0,2.77-3.68c-.06-.32-.23-.48-.52-.46A10.81,10.81,0,0,0,18.66,27.21Z"/></g><use width="132.05" height="112.18" transform="translate(59.91 9.3) scale(0.22)" xlink:href="#hex-orange-pound"/><rect class="cls-19" x="23.98" y="57.11" width="23.71" height="2.78" rx="1.14" transform="translate(31.38 -9.96) rotate(27.77)"/></g></g></g></g></g></svg>