<svg xmlns="http://www.w3.org/2000/svg" xmlns:xlink="http://www.w3.org/1999/xlink" viewBox="0 0 124.84 123.28"><defs><style>.cls-1,.cls-31,.cls-43,.cls-9{fill:none;}.cls-2{clip-path:url(#clip-path);}.cls-3{fill:#d4f3ff;}.cls-4{fill:#dceaf2;}.cls-5{fill:#c9d6de;}.cls-6{fill:#7ebfb0;}.cls-7{opacity:0.58;}.cls-8{fill:#ffefb6;}.cls-9{stroke:#c6c6c5;}.cls-31,.cls-43,.cls-9{stroke-miterlimit:10;}.cls-10,.cls-36{fill:#fff;}.cls-11{fill:#cecece;}.cls-12{fill:#98bad4;}.cls-13{fill:#31ab94;}.cls-14{font-size:6.94px;font-family:Arial-BoldMT, Arial;font-weight:700;letter-spacing:0.13em;}.cls-14,.cls-21{fill:#b31917;}.cls-15{letter-spacing:0.13em;}.cls-16{letter-spacing:0.13em;}.cls-17{letter-spacing:0.12em;}.cls-18{letter-spacing:0.07em;}.cls-19{letter-spacing:0.14em;}.cls-20{letter-spacing:0.11em;}.cls-22{fill:#5cabd4;}.cls-23{fill:#8ccfdd;}.cls-24{fill:#e3f2f6;}.cls-25{fill:#cfbb56;}.cls-26{fill:#eee195;}.cls-27{fill:#b69b29;}.cls-28{fill:#ddd;}.cls-29{fill:#fda48b;}.cls-30{fill:#7d78ca;}.cls-31{stroke:#5d6791;stroke-width:0.5px;}.cls-32{fill:#625da2;}.cls-33{fill:#57538c;}.cls-34{fill:#412a74;}.cls-35{fill:#bf6156;}.cls-36{opacity:0.18;}.cls-37{fill:#1b1464;}.cls-38{fill:#40485b;}.cls-39{fill:#2b303d;}.cls-40{fill:#858585;}.cls-41{fill:#5e5e5e;}.cls-42{fill:#c0cdd4;}.cls-43{stroke:#1b1464;stroke-width:2px;opacity:0.22;}</style><clipPath id="clip-path" transform="translate(9.54 9.39)"><path class="cls-1" d="M103.3,51.42c-1.15,67.23-101.16,67.22-102.3,0C2.15-15.81,102.16-15.8,103.3,51.42Z"/></clipPath></defs><g id="Layer_2" data-name="Layer 2"><g id="MainLayer"><g id="care6"><g class="cls-2"><path class="cls-3" d="M113.84,51.42c-1.39,81.09-122,81.08-123.38,0C-8.16-29.67,112.46-29.66,113.84,51.42Z" transform="translate(9.54 9.39)"/><polygon class="cls-4" points="26.59 63.14 4.89 53.31 5.46 86.29 26.59 86.29 26.59 63.14"/><polygon class="cls-5" points="36.77 47.17 20.3 44.9 20.3 86.3 36.77 86.3 36.77 47.17"/><rect class="cls-6" x="5.75" y="84.72" width="116.89" height="34.89"/><g class="cls-7"><circle class="cls-8" cx="102.53" cy="32.41" r="9.26"/><polyline class="cls-9" points="36.15 26.63 36.15 21.72 83.87 21.39 83.87 26.95"/><rect class="cls-10" x="32.98" y="27.33" width="55.24" height="67.81"/><rect class="cls-11" x="36.15" y="32.23" width="7.33" height="9.81"/><rect class="cls-12" x="36.85" y="33.17" width="5.93" height="7.95"/><rect class="cls-10" x="39.51" y="32.23" width="0.74" height="10.12"/><rect class="cls-11" x="36.15" y="47.28" width="7.33" height="9.81"/><rect class="cls-12" x="36.85" y="48.21" width="5.93" height="7.95"/><rect class="cls-10" x="39.51" y="47.28" width="0.74" height="10.12"/><rect class="cls-11" x="36.15" y="61.99" width="7.33" height="9.81"/><rect class="cls-12" x="36.85" y="62.93" width="5.93" height="7.95"/><rect class="cls-10" x="39.51" y="61.99" width="0.74" height="10.12"/><rect class="cls-11" x="49.53" y="32.23" width="7.33" height="9.81"/><rect class="cls-12" x="50.23" y="33.17" width="5.93" height="7.95"/><rect class="cls-10" x="52.89" y="32.23" width="0.74" height="10.12"/><rect class="cls-11" x="49.53" y="47.28" width="7.33" height="9.81"/><rect class="cls-12" x="50.23" y="48.21" width="5.93" height="7.95"/><rect class="cls-10" x="52.89" y="47.28" width="0.74" height="10.12"/><rect class="cls-11" x="49.53" y="61.99" width="7.33" height="9.81"/><rect class="cls-12" x="50.23" y="62.93" width="5.93" height="7.95"/><rect class="cls-10" x="52.89" y="61.99" width="0.74" height="10.12"/><rect class="cls-11" x="62.91" y="32.23" width="7.33" height="9.81"/><rect class="cls-12" x="63.6" y="33.17" width="5.93" height="7.95"/><rect class="cls-10" x="66.27" y="32.23" width="0.74" height="10.12"/><rect class="cls-11" x="62.91" y="47.28" width="7.33" height="9.81"/><rect class="cls-12" x="63.6" y="48.21" width="5.93" height="7.95"/><rect class="cls-10" x="66.27" y="47.28" width="0.74" height="10.12"/><rect class="cls-11" x="62.91" y="61.99" width="7.33" height="9.81"/><rect class="cls-12" x="63.6" y="62.93" width="5.93" height="7.95"/><rect class="cls-10" x="66.27" y="61.99" width="0.74" height="10.12"/><rect class="cls-11" x="76.28" y="32.23" width="7.33" height="9.81"/><rect class="cls-12" x="76.98" y="33.17" width="5.93" height="7.95"/><rect class="cls-10" x="79.64" y="32.23" width="0.74" height="10.12"/><rect class="cls-11" x="76.28" y="47.28" width="7.33" height="9.81"/><rect class="cls-12" x="76.98" y="48.21" width="5.93" height="7.95"/><rect class="cls-10" x="79.64" y="47.28" width="0.74" height="10.12"/><rect class="cls-11" x="76.28" y="61.99" width="7.33" height="9.81"/><rect class="cls-12" x="76.98" y="62.93" width="5.93" height="7.95"/><rect class="cls-10" x="79.64" y="61.99" width="0.74" height="10.12"/><rect class="cls-13" x="31.88" y="26.04" width="57.27" height="3.53"/><text class="cls-14" transform="translate(35.8 23.66)">H<tspan class="cls-15" x="5.95" y="0">O</tspan><tspan class="cls-16" x="12.27" y="0">S</tspan><tspan class="cls-17" x="17.82" y="0">P</tspan><tspan class="cls-15" x="23.29" y="0">I</tspan><tspan class="cls-18" x="26.15" y="0">T</tspan><tspan class="cls-19" x="30.85" y="0">A</tspan><tspan class="cls-20" x="36.82" y="0">L</tspan></text><circle class="cls-21" cx="81.51" cy="22.09" r="3.3"/><rect class="cls-10" x="80.79" y="19.85" width="1.23" height="4.46"/><rect class="cls-10" x="71.25" y="10.46" width="1.23" height="4.46" transform="translate(94.09 -49.78) rotate(90)"/><rect class="cls-4" x="39.88" y="77.85" width="39.27" height="17.3"/><rect class="cls-13" x="39.02" y="75.95" width="40.99" height="2.49"/><rect class="cls-22" x="43.48" y="79.61" width="16.54" height="15.52"/><rect class="cls-23" x="44.31" y="80.52" width="6.86" height="13.82"/><rect class="cls-24" x="44.49" y="80.69" width="6.51" height="13.47"/><rect class="cls-23" x="52.44" y="80.54" width="6.85" height="13.82"/><rect class="cls-24" x="52.62" y="80.72" width="6.5" height="13.47"/><path class="cls-10" d="M41.45,73.11V71.3H40.09l-5.15,5.14v3.18Zm0,4.55v-.72l-6.51,6.51v.72Zm-3.28,7.11h3.28V81.49ZM36.26,71.3H34.94v1.32Zm11.53,0h-.73l-4,4V76ZM49.58,77V73.36l-6.5,6.51v3.58Z" transform="translate(9.54 9.39)"/><rect class="cls-23" x="51.76" y="79.61" width="0.09" height="15.53"/><rect class="cls-25" x="51.28" y="87.55" width="0.36" height="1.14" rx="0.09"/><rect class="cls-26" x="50.18" y="87.74" width="1.43" height="0.34" rx="0.11"/><path class="cls-25" d="M42,78.6H40.75a.11.11,0,0,1-.11-.11v.09a.11.11,0,0,0,.11.11H42a.11.11,0,0,0,.11-.11v-.09A.11.11,0,0,1,42,78.6Z" transform="translate(9.54 9.39)"/><path class="cls-27" d="M42,78.7h-.22v.08H42a.11.11,0,0,0,.11-.11v-.09A.11.11,0,0,1,42,78.7Z" transform="translate(9.54 9.39)"/><rect class="cls-25" x="52.02" y="87.55" width="0.36" height="1.14" rx="0.09"/><rect class="cls-26" x="52.04" y="87.74" width="1.43" height="0.34" rx="0.11"/><path class="cls-25" d="M42.62,78.6h1.2a.11.11,0,0,0,.11-.11v.09a.11.11,0,0,1-.11.11h-1.2a.11.11,0,0,1-.12-.11v-.09A.11.11,0,0,0,42.62,78.6Z" transform="translate(9.54 9.39)"/><path class="cls-27" d="M42.6,78.7h.22v.08H42.6a.11.11,0,0,1-.11-.11v-.09A.11.11,0,0,0,42.6,78.7Z" transform="translate(9.54 9.39)"/><rect class="cls-22" x="59.01" y="79.61" width="16.54" height="15.52"/><rect class="cls-23" x="59.84" y="80.51" width="6.86" height="13.82"/><rect class="cls-24" x="60.02" y="80.69" width="6.51" height="13.47"/><rect class="cls-23" x="67.97" y="80.54" width="6.85" height="13.82"/><rect class="cls-24" x="68.15" y="80.72" width="6.5" height="13.47"/><path class="cls-10" d="M57,73.11V71.3H55.62l-5.14,5.14v3.18Zm0,4.55v-.73l-6.51,6.51v.73ZM53.7,84.77H57V81.48ZM51.8,71.3H50.48v1.32Zm11.52,0h-.73l-4,4V76ZM65.11,77V73.36l-6.5,6.5v3.59Q61.87,80.19,65.11,77Z" transform="translate(9.54 9.39)"/><rect class="cls-23" x="67.29" y="79.61" width="0.09" height="15.53"/><rect class="cls-25" x="66.82" y="87.54" width="0.36" height="1.14" rx="0.09"/><rect class="cls-26" x="65.71" y="87.74" width="1.43" height="0.34" rx="0.11"/><path class="cls-25" d="M57.49,78.6H56.28a.11.11,0,0,1-.11-.11v.08a.11.11,0,0,0,.11.12h1.21a.11.11,0,0,0,.11-.12v-.08A.11.11,0,0,1,57.49,78.6Z" transform="translate(9.54 9.39)"/><path class="cls-27" d="M57.5,78.69h-.21v.09h.21a.11.11,0,0,0,.11-.11v-.09A.11.11,0,0,1,57.5,78.69Z" transform="translate(9.54 9.39)"/><rect class="cls-25" x="67.55" y="87.54" width="0.36" height="1.14" rx="0.09"/><rect class="cls-26" x="67.58" y="87.74" width="1.43" height="0.34" rx="0.11"/><path class="cls-25" d="M58.15,78.6h1.2a.11.11,0,0,0,.12-.11v.08a.12.12,0,0,1-.12.12h-1.2a.11.11,0,0,1-.11-.12v-.08A.11.11,0,0,0,58.15,78.6Z" transform="translate(9.54 9.39)"/><path class="cls-27" d="M58.14,78.69h.21v.09h-.21a.12.12,0,0,1-.12-.11v-.09A.12.12,0,0,0,58.14,78.69Z" transform="translate(9.54 9.39)"/></g><polygon class="cls-28" points="89.73 112.31 11.52 115.11 11.52 93.98 75.73 94.75 89.73 112.31"/><g id="care6-2" data-name="care6"><polygon class="cls-29" points="76.09 88.1 85.51 71.97 89.33 81.47 80.82 93.3 76.09 88.1"/><path class="cls-30" d="M39.29,66.11c-3.07,4.15-.79,8.48,3.76,28.58a18.88,18.88,0,0,0,3.53,7.45c3.45,5.14,11.46,3.16,12.29-3A170.35,170.35,0,0,0,47.8,65.61C45.63,61.7,41.11,62.9,39.29,66.11Z" transform="translate(9.54 9.39)"/><path class="cls-30" d="M53,104.46c3.64,1.13,11-8.23,19.43-19.82.66-1.34,1.78-2.86,1.11-3.48A33.4,33.4,0,0,0,63,74.47,120.1,120.1,0,0,0,46.83,99C45.37,102.87,50.35,104.92,53,104.46Z" transform="translate(9.54 9.39)"/><path class="cls-30" d="M45.78,66.72,48,112.78c-10.51,6.09-39.69-14.69-53.87-20L7,66C20.86,58.91,34.58,60.21,45.78,66.72Z" transform="translate(9.54 9.39)"/><path class="cls-31" d="M47.37,103.11c3.18-13.79,1-25.23-2.09-32.72" transform="translate(9.54 9.39)"/><path class="cls-32" d="M4.61,71.13C10,82.88,17.12,84.77,29.17,89.45c11.66-7.34,26.06-19.9,13.53-33.16,5.55-43.79-34.45-39.49-31.37.42C7.18,61.34,4.61,66.11,4.61,71.13Z" transform="translate(9.54 9.39)"/><path class="cls-33" d="M42.7,56.29c-1,3.63-2.57,6.5-5.84,6.57,3.64,1.22,6-1.36,7.86-3.84Z" transform="translate(9.54 9.39)"/><path class="cls-33" d="M11.33,56.54c.92,2.91,5.41,6.42,8.34,6.4-2.32.94-6.43-1.35-10.07-4.11Z" transform="translate(9.54 9.39)"/><path class="cls-29" d="M39.77,47.38c-.73-5-2-9.81-4.39-13.9-6.8,3-12.79,6.6-17.13,11.6C15.93,59.17,36.34,63.7,39.77,47.38Z" transform="translate(9.54 9.39)"/><path class="cls-34" d="M25.13,41.17c-.58,2.33,2.08,2.95,2.61.62S25.65,38.84,25.13,41.17Z" transform="translate(9.54 9.39)"/><path class="cls-34" d="M34.33,42.87c-.57,2.33,2.08,3,2.61.62S34.86,40.54,34.33,42.87Z" transform="translate(9.54 9.39)"/><path class="cls-34" d="M36.65,42.7a2.93,2.93,0,0,0,2-.47A2.15,2.15,0,0,1,36.52,42Z" transform="translate(9.54 9.39)"/><path class="cls-34" d="M25.41,41.1a2.87,2.87,0,0,1-1.56-1.3,2.14,2.14,0,0,0,2,.69Z" transform="translate(9.54 9.39)"/><polygon class="cls-35" points="38.58 57.54 42.06 58.17 42.17 50.61 42.01 50.63 41.24 57.19 38.66 57.42 38.58 57.54"/><polygon class="cls-34" points="41.35 57.33 42.07 50.39 41.87 50.36 40.94 57.23 41.35 57.33"/><path class="cls-36" d="M32.61,43.45c-1.5,5.95,7.89,8.17,9.21,2.17C43.32,39.67,33.93,37.45,32.61,43.45Z" transform="translate(9.54 9.39)"/><path class="cls-37" d="M32.34,43.38c1.4-6.34,11.33-4,9.75,2.31C40.68,52,30.76,49.69,32.34,43.38Zm.54.13c-1.41,5.61,7.42,7.69,8.67,2.05C43,40,34.13,37.87,32.88,43.51Z" transform="translate(9.54 9.39)"/><path class="cls-36" d="M21.42,40.5c-1.5,6,7.89,8.17,9.21,2.18C32.13,36.72,22.74,34.51,21.42,40.5Z" transform="translate(9.54 9.39)"/><path class="cls-37" d="M21.15,40.44c1.4-6.34,11.33-4,9.75,2.3C29.49,49.09,19.57,46.74,21.15,40.44Zm.54.13c-1.41,5.6,7.42,7.69,8.67,2C31.76,37,22.94,34.93,21.69,40.57Z" transform="translate(9.54 9.39)"/><path class="cls-37" d="M33.25,42a4.39,4.39,0,0,0-2.63-.56l0,.7a4,4,0,0,1,2.31.55Z" transform="translate(9.54 9.39)"/><path class="cls-38" d="M73.59,79.19c-.38-.13-12.17,1.34-11.89.37a1,1,0,0,1-.14-.91l6.3-17.3a1,1,0,0,1,.9-.63l9.42.09a1.48,1.48,0,0,1,1.27,1.64C79.07,62.76,74.65,80,73.59,79.19Z" transform="translate(9.54 9.39)"/><path class="cls-39" d="M73,80H64A1.33,1.33,0,0,1,62.7,78.2c.56-.54,5.47-17.7,7-16.63h9A1.33,1.33,0,0,1,80,63.36L74.22,79.11A1.34,1.34,0,0,1,73,80Z" transform="translate(9.54 9.39)"/><path class="cls-40" d="M71,64.15c-.92,1.31-2.45.21-1.51-1.08S72,62.86,71,64.15Z" transform="translate(9.54 9.39)"/><path class="cls-41" d="M70.71,63.89c-.55.79-1.47.13-.91-.64S71.27,63.12,70.71,63.89Z" transform="translate(9.54 9.39)"/><path class="cls-10" d="M70.59,63.81c-.41.58-1.09.09-.67-.48S71,63.24,70.59,63.81Z" transform="translate(9.54 9.39)"/><path class="cls-29" d="M73.32,80.82c5.89-3.46,7.65-7,8.81-13.34a5.4,5.4,0,0,0-2.92-3.42c-1.21-.38-3.37-.55-3.16.59.77.83,3.85.17,3.52,2.76a5.33,5.33,0,0,1-1.21.94c-4.65-2.64-12.79,3-3.29.88l3.07.83c-5.21-1.57-11.71,2.7-2.62,1.32l2.43.34c-1.71,0-5.06.14-4.66,1.4.81.55,3.11-.38,4.7-.23C78,74.82,75.49,77.91,73.32,80.82Z" transform="translate(9.54 9.39)"/></g><polygon class="cls-4" points="103.06 52.7 88.22 45.53 88.22 85.02 103.06 85.02 103.06 52.7"/><polygon class="cls-5" points="124.84 43.77 104.82 47.15 104.82 85.25 124.84 85.25 124.84 43.77"/><rect class="cls-42" x="93.08" y="61.38" width="13.99" height="24.05"/></g><path class="cls-43" d="M103.3,51.42c-1.15,67.23-101.16,67.22-102.3,0C2.15-15.81,102.16-15.8,103.3,51.42Z" transform="translate(9.54 9.39)"/><path class="cls-34" d="M27.84,52.68a11.22,11.22,0,0,1,3.63.69c-.3-.84-.52-1.06-1.62-1.39C28.89,52,27.9,52.11,27.84,52.68Z" transform="translate(9.54 9.39)"/></g></g></g></svg>