<svg xmlns="http://www.w3.org/2000/svg" xmlns:xlink="http://www.w3.org/1999/xlink" viewBox="0 0 181.43 142.85"><defs><style>.cls-1,.cls-16,.cls-54,.cls-7{fill:none;}.cls-2{opacity:0.86;}.cls-3{clip-path:url(#clip-path);}.cls-4{fill:url(#linear-gradient);}.cls-5{fill:#726494;}.cls-6{fill:#7d78ca;}.cls-54,.cls-7{stroke:#1b1464;}.cls-16,.cls-54,.cls-7{stroke-miterlimit:10;}.cls-16,.cls-7{stroke-width:0.25px;}.cls-8{fill:#625da2;}.cls-9{fill:#fda48b;}.cls-10{fill:#412a74;}.cls-11{fill:#bf6156;}.cls-12{fill:#57538c;}.cls-13{fill:#fff;opacity:0.18;}.cls-14{fill:#1b1464;}.cls-15{fill:#7a3c73;}.cls-16{stroke:#542578;}.cls-17{fill:#8a4482;}.cls-18{fill:#b8a8a7;}.cls-19{fill:#e0857b;}.cls-20{fill:#b3a187;}.cls-21{fill:#d4bfa1;}.cls-22{fill:#f5ffe5;}.cls-23{fill:#e0f1c4;}.cls-24{fill:#5d2d56;}.cls-25{fill:#c66b8b;opacity:0.27;}.cls-26{fill:#7dac56;}.cls-27{fill:#fd8ea5;}.cls-28{fill:#3f7540;}.cls-29{fill:#d37286;}.cls-30{fill:#d3395b;}.cls-31{fill:#97374d;}.cls-32{fill:#812f42;}.cls-33{fill:#fd9cb0;}.cls-34{fill:#ffabb6;}.cls-35{fill:#fd9e9e;}.cls-36{fill:#497552;}.cls-37{fill:#d38383;}.cls-38{fill:#d34b4c;}.cls-39{fill:#974445;}.cls-40{fill:#813a3b;}.cls-41{fill:#fdb1b1;}.cls-42{fill:#ffc2c0;}.cls-43{fill:#e479e3;}.cls-44{fill:#c455be;}.cls-45{fill:#f99bf4;}.cls-46{fill:#f99bf6;}.cls-47{fill:#611762;}.cls-48{fill:#e4a6a3;}.cls-49{fill:#c47f7a;}.cls-50{fill:#f9cdca;}.cls-51{fill:#f9ccca;}.cls-52{fill:#622b29;}.cls-53{fill:#f8eaa4;}.cls-54{stroke-width:2px;opacity:0.22;}</style><clipPath id="clip-path" transform="translate(18.07 6.09)"><circle class="cls-1" cx="65.33" cy="65.33" r="63.68"/></clipPath><linearGradient id="linear-gradient" x1="83.4" y1="142.85" x2="83.4" gradientUnits="userSpaceOnUse"><stop offset="0" stop-color="#c98bc2"/><stop offset="1" stop-color="#fff"/></linearGradient></defs><g id="Layer_2" data-name="Layer 2"><g id="MainLayer"><g id="stories" class="cls-2"><g id="caregroup"><g id="care1"><g id="clipmask"><g class="cls-3"><circle class="cls-4" cx="83.4" cy="71.43" r="71.43"/><line class="cls-5" x1="126.66" y1="99.1" x2="111.07" y2="103.79"/><line class="cls-5" x1="113.61" y1="101.79" x2="99.02" y2="103.28"/><path class="cls-6" d="M79.47,58.63c.34,3.89-2.84,5.78-13.7,16.95A14.29,14.29,0,0,1,60.55,79a5.12,5.12,0,0,1-6.75-6.77A128.61,128.61,0,0,1,74.18,55a4,4,0,0,1,3.39-.2C79.21,55.6,79.41,57.93,79.47,58.63Z" transform="translate(18.07 6.09)"/><path class="cls-6" d="M62.7,77.63c-2.6,2.78-5.46,1.71-18.56,1.14a9.35,9.35,0,0,1-2.41-.38c-1.08-.32-2.51-.47-2.5-1.16A25.16,25.16,0,0,1,40.85,68a90.18,90.18,0,0,1,22,3.46,3.09,3.09,0,0,1,1.75,2.32C64.74,75.47,63.17,77.13,62.7,77.63Z" transform="translate(18.07 6.09)"/><path class="cls-6" d="M68.77,63C75.2,76.75,80.34,89.58,80.49,99c7.94,4.6,17.52,4.15,28.23.14,1.87-16.23-1.71-31.58-10-46.16C88.25,47.59,77.24,58.09,68.77,63Z" transform="translate(18.07 6.09)"/><path class="cls-6" d="M112.31,79.14a14.19,14.19,0,0,0-1.1-6.14c-6-14.37-6.52-18-10.24-19.24-.66-.22-2.89-.94-4.31.24a4.1,4.1,0,0,0-1.15,3.2,139.23,139.23,0,0,0,5.88,20.49,82,82,0,0,0-13.28,6.66A25.31,25.31,0,0,0,91.86,93c.38.58,1.65-.08,2.73-.41a9.89,9.89,0,0,0,2.22-1c7.61-4.55,11.43-6.34,13.31-8.17A4.92,4.92,0,0,0,112.31,79.14Z" transform="translate(18.07 6.09)"/><path class="cls-7" d="M97.85,67a76.32,76.32,0,0,0,3.74,10.8c-3.79,2-8.29,5.42-13.48,6.6.83,3.81,2.06,7,4,9.07C97.3,90,103,87.86,108,84.73" transform="translate(18.07 6.09)"/><path class="cls-8" d="M100.55,57.6c-1,9.72-6.32,17.12-13.78,23.43-8.57-2.3-14.32-8.46-18.64-16.61a24.36,24.36,0,0,1,1.54-8.08c-4.22-7.85-4.9-14.55-3.17-20.46,3.42-6,8.46-6.94,14.51-4.71A36.38,36.38,0,0,1,92.2,48.94C96.31,51.23,99.32,54,100.55,57.6Z" transform="translate(18.07 6.09)"/><path class="cls-9" d="M68.53,47.92A28.34,28.34,0,0,1,70.8,37.14c5.34,1.72,10.11,4,13.75,7.45a8.48,8.48,0,0,1-.67,6.31A8.09,8.09,0,0,1,78.18,55C74.34,55.61,70.06,52.76,68.53,47.92Z" transform="translate(18.07 6.09)"/><ellipse class="cls-10" cx="78.13" cy="42.49" rx="1.01" ry="1.39" transform="translate(8.5 33.78) rotate(-18.96)"/><ellipse class="cls-10" cx="71.33" cy="44.46" rx="1.01" ry="1.39" transform="translate(7.5 31.68) rotate(-18.96)"/><path class="cls-10" d="M70.53,44.17A2.19,2.19,0,0,1,69,44a1.62,1.62,0,0,0,1.57-.37Z" transform="translate(18.07 6.09)"/><path class="cls-10" d="M78.86,42.13c.41-.1.76-.55,1.09-1.1a1.62,1.62,0,0,1-1.47.67Z" transform="translate(18.07 6.09)"/><polygon class="cls-11" points="94.73 53.8 92.16 54.53 91.52 48.85 91.64 48.86 92.71 53.73 94.66 53.72 94.73 53.8"/><polygon class="cls-10" points="92.63 53.84 91.57 48.68 91.72 48.64 92.94 53.74 92.63 53.84"/><path class="cls-12" d="M69.67,56.34c1.63,2.34,3.43,4,5.79,3.26-2.31,1.77-4.63.51-6.56-.81Z" transform="translate(18.07 6.09)"/><path class="cls-12" d="M92.16,48.82c.06,2.31-2.29,5.92-4.4,6.62,1.9.1,4.27-2.54,6.2-5.41Z" transform="translate(18.07 6.09)"/><circle class="cls-13" cx="88.31" cy="51.69" r="3.58"/><path class="cls-14" d="M71.47,49.18a3.79,3.79,0,1,1,2.35-4.82A3.8,3.8,0,0,1,71.47,49.18Zm-2.32-6.77a3.37,3.37,0,1,0,4.28,2.09A3.36,3.36,0,0,0,69.15,42.41Z" transform="translate(18.07 6.09)"/><circle class="cls-13" cx="96.51" cy="48.64" r="3.58"/><path class="cls-14" d="M79.67,46.13A3.79,3.79,0,1,1,82,41.31,3.8,3.8,0,0,1,79.67,46.13Zm-2.32-6.77a3.37,3.37,0,1,0,4.28,2.09A3.36,3.36,0,0,0,77.35,39.36Z" transform="translate(18.07 6.09)"/><path class="cls-14" d="M73,43.42A3.26,3.26,0,0,1,75,42.81l.07.52a3,3,0,0,0-1.69.59Z" transform="translate(18.07 6.09)"/><path class="cls-15" d="M43.6,68.55c-2.56,3-1.09,6.34,1.16,21.76A14.37,14.37,0,0,0,47,96.14a5.12,5.12,0,0,0,9.44-1.53,128.76,128.76,0,0,0-6.38-25.94,4.05,4.05,0,0,0-2.63-2.15C45.59,66.25,44.06,68,43.6,68.55Z" transform="translate(18.07 6.09)"/><path class="cls-15" d="M48.83,97.74c2.85,2.54,5.59,1.22,18.6-.53a9,9,0,0,0,2.35-.6c1-.41,2.46-.69,2.4-1.37a25.29,25.29,0,0,0-2.45-9.1,89.89,89.89,0,0,0-21.57,5.42A3.09,3.09,0,0,0,46.63,94C46.61,95.77,48.32,97.29,48.83,97.74Z" transform="translate(18.07 6.09)"/><path class="cls-15" d="M48.31,67.14l-.25,45.36c-7.94,4.6-17.52,4.15-28.23.14L20,67.14C30.48,61.8,39.85,62.21,48.31,67.14Z" transform="translate(18.07 6.09)"/><path class="cls-15" d="M20,66.43c-3.61,1.49-3.81,5.19-8.69,20a14.2,14.2,0,0,0-.62,6.21,5.12,5.12,0,0,0,9.13,2.85,128.84,128.84,0,0,0,5.89-26,4.06,4.06,0,0,0-1.39-3.1C22.82,65.26,20.66,66.16,20,66.43Z" transform="translate(18.07 6.09)"/><path class="cls-16" d="M48.13,100.2a184,184,0,0,0-.58-30.29" transform="translate(18.07 6.09)"/><path class="cls-17" d="M16.38,70.9c4.05,8.88,12,13.59,21.07,17.13,7.36-5,10.37-12.11,11.8-21.21a24.55,24.55,0,0,0-3.65-7.7C47,50.33,45.5,43.77,42,38.74,36.77,34.16,31.7,34.93,26.7,39a36.29,36.29,0,0,0-4.81,20.43C18.75,62.94,16.38,67.1,16.38,70.9Z" transform="translate(18.07 6.09)"/><path class="cls-9" d="M43.94,50.92a28.18,28.18,0,0,0-5.64-9.46C33.81,44.82,30,48.54,27.71,53a8.47,8.47,0,0,0,2.68,5.75,8.07,8.07,0,0,0,6.74,2.06C41,60.07,44.07,56,43.94,50.92Z" transform="translate(18.07 6.09)"/><ellipse class="cls-10" cx="51.17" cy="55" rx="1.01" ry="1.39"/><ellipse class="cls-10" cx="58.24" cy="54.65" rx="1.01" ry="1.39"/><path class="cls-10" d="M40.83,48a2.13,2.13,0,0,0,1.38-.69,1.61,1.61,0,0,1-1.6.17Z" transform="translate(18.07 6.09)"/><path class="cls-10" d="M32.29,48.8a2.17,2.17,0,0,1-1.38-.69,1.61,1.61,0,0,0,1.6.16Z" transform="translate(18.07 6.09)"/><polygon class="cls-11" points="54.25 59.45 56.92 59.3 55.68 53.73 55.57 53.77 56.14 58.73 54.29 59.35 54.25 59.45"/><polygon class="cls-10" points="56.25 58.81 55.57 53.58 55.42 53.59 55.93 58.81 56.25 58.81"/><path class="cls-15" d="M45.6,59.25c-.78,2.75-1.94,4.92-4.41,5,2.75.92,4.54-1,5.94-2.9Z" transform="translate(18.07 6.09)"/><path class="cls-15" d="M21.89,59.44c.69,2.21,4.09,4.86,6.3,4.84-1.75.71-4.86-1-7.61-3.11Z" transform="translate(18.07 6.09)"/><path class="cls-11" d="M34.36,49.66l.62.16c-.5,1.6-2.07,1.86-4,1.71C32.81,51.25,34.39,50.86,34.36,49.66Z" transform="translate(18.07 6.09)"/><path class="cls-11" d="M39.45,49.67l-.49.16c.39,1.6,1.65,1.86,3.18,1.71C40.69,51.26,39.42,50.87,39.45,49.67Z" transform="translate(18.07 6.09)"/><path class="cls-18" d="M38.24,41.46l-4.56,4.4c-.51.56-.92,1-1.19,1.36a7.13,7.13,0,0,1-2,2c-.21.11-.4.19-.52.24a1.62,1.62,0,0,1-.21-1c.08-.5.43-.8,1.14-1.35a26.19,26.19,0,0,0,2.36-1.85,10.69,10.69,0,0,0,1.08-1.59A5.94,5.94,0,0,1,38.24,41.46Z" transform="translate(18.07 6.09)"/><path class="cls-19" d="M35.12,49.73l1,.26c-.79,2.57-3.32,3-6.4,2.75C32.64,52.29,35.18,51.66,35.12,49.73Z" transform="translate(18.07 6.09)"/><path class="cls-19" d="M39,49.86l-.7.22c.56,2.2,2.35,2.57,4.53,2.36C40.76,52.05,39,51.51,39,49.86Z" transform="translate(18.07 6.09)"/><polygon class="cls-20" points="181.37 116.43 60.04 123.93 0 115.38 0.02 110.38 121.33 104.98 181.43 111.78 181.37 116.43"/><polygon class="cls-21" points="181.37 111.7 60.04 119.21 0 110.39 121.33 102.88 181.37 111.7"/><path class="cls-22" d="M73.65,89.26c0,2,1.26,3.54,2.82,3.54s2.83-1.58,2.83-3.54S78,85.72,76.47,85.72,73.65,87.31,73.65,89.26Zm.93,0a1.94,1.94,0,1,1,1.89,2.37A2.17,2.17,0,0,1,74.58,89.26Z" transform="translate(18.07 6.09)"/><path class="cls-22" d="M86.37,85.18c.29,4.37.4,8.56-2.8,9.31-.07.17.51.39-2.32.39s-2.28-.1-2.32-.39c-3.6-1.43-3-5.53-2.79-9.31Z" transform="translate(18.07 6.09)"/><path class="cls-23" d="M83.33,94.54c1-.21,1.63-.51,1.63-.85,1.68-1.47,1.58-5,1.41-8.51l-1.48,0C85,88.82,84.89,92.22,83.33,94.54Z" transform="translate(18.07 6.09)"/><ellipse class="cls-22" cx="99.32" cy="91.27" rx="5.12" ry="1.16"/><path class="cls-23" d="M77.31,85.55c-.21-.12-.33-.24-.33-.37,0-.54,1.91-1,4.27-1s4.27.43,4.27,1c0,.13-.12.25-.33.37A10,10,0,0,0,81.25,85,10,10,0,0,0,77.31,85.55Z" transform="translate(18.07 6.09)"/><ellipse class="cls-24" cx="99.32" cy="91.64" rx="3.94" ry="0.59"/><path class="cls-25" d="M81.2,83.11a4.66,4.66,0,0,0,.27-2.28c-.27-1.74-1.55-2.34-1.6-3.72a3.47,3.47,0,0,1,1.29-2.57,4.71,4.71,0,0,0-.3,2.55c.33,1.77,1.69,2.4,1.64,3.78A3.07,3.07,0,0,1,81.2,83.11Z" transform="translate(18.07 6.09)"/><path class="cls-25" d="M82.68,78.74A2.51,2.51,0,0,1,82.76,76a1.32,1.32,0,0,1,1.1-.46,1.31,1.31,0,0,1,.9,1.09,1.78,1.78,0,0,1-.58,1.55,1.83,1.83,0,0,0-.05-3.41,2.23,2.23,0,0,0-2.14.89A2.34,2.34,0,0,0,82.68,78.74Z" transform="translate(18.07 6.09)"/><path class="cls-26" d="M109.7,86.85a76.64,76.64,0,0,1-.09,13.61l.83.08L110,86.74Z" transform="translate(18.07 6.09)"/><path class="cls-26" d="M110.13,89a2.37,2.37,0,0,1,1.36-1.27,3.43,3.43,0,0,1,2.3,0,3.71,3.71,0,0,1-1.62,2C111.37,90.12,110.71,89.79,110.13,89Z" transform="translate(18.07 6.09)"/><path class="cls-26" d="M109.9,88.77a2.76,2.76,0,0,0-1-1.7,3.52,3.52,0,0,0-2.25-.7,4.1,4.1,0,0,0,1.11,2.46C108.4,89.53,109.14,89.4,109.9,88.77Z" transform="translate(18.07 6.09)"/><path class="cls-26" d="M109.74,86.89a2.3,2.3,0,0,1-.84-1.52,3.18,3.18,0,0,1,.53-2.07,3.35,3.35,0,0,1,1.41,1.89C111.07,86,110.61,86.54,109.74,86.89Z" transform="translate(18.07 6.09)"/><path class="cls-26" d="M110.13,92.62a2.39,2.39,0,0,1,1.37-1.27,3.4,3.4,0,0,1,2.29,0,3.59,3.59,0,0,1-1.61,1.95C111.38,93.77,110.71,93.43,110.13,92.62Z" transform="translate(18.07 6.09)"/><path class="cls-26" d="M110.05,92.43a2.76,2.76,0,0,0-1-1.7,3.53,3.53,0,0,0-2.26-.7,4.16,4.16,0,0,0,1.12,2.46C108.55,93.19,109.28,93.06,110.05,92.43Z" transform="translate(18.07 6.09)"/><path class="cls-26" d="M110.14,96.27A2.44,2.44,0,0,1,111.51,95a3.45,3.45,0,0,1,2.29,0,3.59,3.59,0,0,1-1.61,2C111.39,97.42,110.72,97.08,110.14,96.27Z" transform="translate(18.07 6.09)"/><path class="cls-26" d="M110.05,96.27a2.76,2.76,0,0,0-1-1.71,3.58,3.58,0,0,0-2.26-.69,4.16,4.16,0,0,0,1.11,2.46C108.55,97,109.29,96.9,110.05,96.27Z" transform="translate(18.07 6.09)"/><path class="cls-27" d="M113.26,91.56l1.26.16a6.56,6.56,0,0,0,2.13-3.13c.23-.76.7-1.42.42-2s-.78-.24-2.41-.89c-.79-.32-1.15-.57-1.69-.44a1.82,1.82,0,0,0-.92.59,5.9,5.9,0,0,0-.67,2.28,9.74,9.74,0,0,0,.24,2.58Z" transform="translate(18.07 6.09)"/><polygon class="cls-28" points="129.66 96.76 131.25 97.52 132.62 97.79 131.25 98.48 130.51 98.35 129.66 96.76"/><path class="cls-29" d="M113.24,91.49l1.3.21a7.94,7.94,0,0,0,2.25-3.14c.3-.75.58-1.46.25-2C116,89.2,114.78,91.35,113.24,91.49Z" transform="translate(18.07 6.09)"/><path class="cls-30" d="M113.41,85.63c.32-.08.48.06,1.39.42s1.17.42,1.21.65-.34.54-.35.56c-.91.63-2.93-.31-2.93-1C112.73,86,113.11,85.71,113.41,85.63Z" transform="translate(18.07 6.09)"/><path class="cls-31" d="M113.56,86c.24-.06.37,0,1.07.33s.9.31.93.49a.45.45,0,0,1-.27.43c-.26.1-.47-.17-1-.39-.73-.3-1.21-.17-1.25-.37S113.28,86.06,113.56,86Z" transform="translate(18.07 6.09)"/><path class="cls-32" d="M113.87,86.24c.14,0,.21,0,.62.19s.53.19.54.29a.25.25,0,0,1-.15.25c-.16.06-.27-.09-.59-.23s-.7-.09-.73-.21S113.71,86.29,113.87,86.24Z" transform="translate(18.07 6.09)"/><path class="cls-33" d="M113.18,89.69l.81-1.3c.6-.68,1.92-.5,2.51-.37.39.08.71-.18,1-.58.09-.39,0-.76-.82-1A2.86,2.86,0,0,0,114,87.52C113.11,88.38,113.27,88.22,113.18,89.69Z" transform="translate(18.07 6.09)"/><path class="cls-34" d="M112.94,91.3l-.56-3c-.18-.89.07-1.41-.41-1.58-.32-.12-.46-.5-.51-1s.28-.68,1-.49c.82.47.78,1.23.92,2.32A6.07,6.07,0,0,1,112.94,91.3Z" transform="translate(18.07 6.09)"/><polygon class="cls-28" points="130.4 98.14 128.42 104.51 129.25 104.76 130.95 98.23 130.4 98.14"/><path class="cls-35" d="M108.23,90.49l1.1-.64a6.57,6.57,0,0,0-.21-3.78c-.28-.74-.31-1.56-.85-1.8s-.77.28-2.46.75c-.82.23-1.26.26-1.61.68a1.78,1.78,0,0,0-.37,1,5.91,5.91,0,0,0,.85,2.22,9,9,0,0,0,1.77,1.91Z" transform="translate(18.07 6.09)"/><polygon class="cls-36" points="124.43 96.89 126.16 96.52 127.41 95.9 126.73 97.29 126.07 97.64 124.43 96.89"/><path class="cls-37" d="M108.17,90.45l1.16-.62a7.88,7.88,0,0,0-.12-3.87c-.22-.78-.43-1.51-1-1.73C108.94,87,109.31,89.4,108.17,90.45Z" transform="translate(18.07 6.09)"/><path class="cls-38" d="M104.75,85.69c.2-.26.41-.25,1.36-.51s1.18-.38,1.35-.22.07.63.06.66c-.34,1-2.51,1.53-2.92,1C104.42,86.38,104.56,85.94,104.75,85.69Z" transform="translate(18.07 6.09)"/><path class="cls-39" d="M105.08,85.88c.16-.2.32-.19,1-.39s.91-.3,1-.18a.45.45,0,0,1,0,.51c-.14.24-.47.15-1,.3-.76.2-1.06.6-1.22.46S104.9,86.11,105.08,85.88Z" transform="translate(18.07 6.09)"/><path class="cls-40" d="M105.48,85.9c.09-.12.19-.11.61-.23s.53-.17.61-.1a.25.25,0,0,1,0,.29c-.09.15-.28.09-.61.18s-.61.35-.7.27S105.38,86,105.48,85.9Z" transform="translate(18.07 6.09)"/><path class="cls-41" d="M107,89.05l-.15-1.52c.07-.91,1.22-1.57,1.77-1.82.36-.17.46-.57.45-1.07-.17-.37-.44-.62-1.26-.31a2.9,2.9,0,0,0-1.46,2.49C106.18,88.05,106.21,87.83,107,89.05Z" transform="translate(18.07 6.09)"/><path class="cls-42" d="M107.82,90.48l-2.3-2.09c-.68-.59-.8-1.15-1.29-1-.32.1-.66-.12-1-.48-.16-.36-.18-.71.5-1,.93-.12,1.36.51,2.13,1.29A6.05,6.05,0,0,1,107.82,90.48Z" transform="translate(18.07 6.09)"/><polygon class="cls-36" points="125.85 97.53 128.16 103.8 128.97 103.49 126.35 97.27 125.85 97.53"/><path class="cls-43" d="M107.07,89.94c-.87-.81-.23-2.34-.1-2.65s.53-1.25,1.24-1.38,1.48.57,1.78,1.17a2.36,2.36,0,0,1-.79,3A1.9,1.9,0,0,1,107.07,89.94Z" transform="translate(18.07 6.09)"/><path class="cls-44" d="M108.22,90.56c.06-1.18,1.63-1.69,2-1.79a2,2,0,0,1,1.86,0,1.93,1.93,0,0,1,.27,2.12,2.38,2.38,0,0,1-2.82,1.36A1.93,1.93,0,0,1,108.22,90.56Z" transform="translate(18.07 6.09)"/><path class="cls-45" d="M106.59,91c-1.1.36-2.11-.9-2.31-1.16s-.83-1-.61-1.71a1.88,1.88,0,0,1,1.84-1,2.31,2.31,0,0,1,2.22,2.1A1.87,1.87,0,0,1,106.59,91Z" transform="translate(18.07 6.09)"/><path class="cls-43" d="M108.2,91.59c.35,1.1-.93,2.09-1.19,2.29s-1.05.82-1.72.58a1.86,1.86,0,0,1-1-1.85,2.32,2.32,0,0,1,2.13-2.19A1.85,1.85,0,0,1,108.2,91.59Z" transform="translate(18.07 6.09)"/><path class="cls-46" d="M109,90.89c1.15,0,1.78,1.44,1.91,1.74a2,2,0,0,1,.11,1.82,1.85,1.85,0,0,1-2,.43,2.31,2.31,0,0,1-1.56-2.62A1.87,1.87,0,0,1,109,90.89Z" transform="translate(18.07 6.09)"/><path class="cls-43" d="M108.16,89.79c.31-.64,1.3-.56,1.51-.54s.81.07,1,.46a1.15,1.15,0,0,1-.34,1.24,1.43,1.43,0,0,1-1.88.09A1.15,1.15,0,0,1,108.16,89.79Z" transform="translate(18.07 6.09)"/><path class="cls-44" d="M108,90.56c.68-.18,1.26.63,1.38.8a1.19,1.19,0,0,1,.31,1.07,1.14,1.14,0,0,1-1.16.54,1.42,1.42,0,0,1-1.29-1.37A1.14,1.14,0,0,1,108,90.56Z" transform="translate(18.07 6.09)"/><path class="cls-45" d="M107.46,89.71c-.4-.56.14-1.38.25-1.54s.44-.66.87-.66.79.5.89.88a1.37,1.37,0,0,1-.79,1.65A1.14,1.14,0,0,1,107.46,89.71Z" transform="translate(18.07 6.09)"/><path class="cls-43" d="M107.42,90.74c-.56.4-1.37-.15-1.53-.27s-.66-.45-.65-.88.51-.78.89-.88a1.4,1.4,0,0,1,1.65.82A1.13,1.13,0,0,1,107.42,90.74Z" transform="translate(18.07 6.09)"/><path class="cls-46" d="M108,91.05c.23.65-.51,1.28-.66,1.41s-.61.52-1,.39a1.11,1.11,0,0,1-.62-1.09,1.38,1.38,0,0,1,1.22-1.37A1.13,1.13,0,0,1,108,91.05Z" transform="translate(18.07 6.09)"/><circle class="cls-47" cx="125.88" cy="96.41" r="0.87"/><path class="cls-48" d="M112.1,91.71c-.65-.61-.17-1.76-.07-2s.39-1,.93-1a1.44,1.44,0,0,1,1.35.89,1.79,1.79,0,0,1-.6,2.28A1.44,1.44,0,0,1,112.1,91.71Z" transform="translate(18.07 6.09)"/><path class="cls-49" d="M113,92.19c0-.9,1.23-1.28,1.47-1.36s1-.31,1.4,0a1.45,1.45,0,0,1,.21,1.59,1.79,1.79,0,0,1-2.13,1A1.46,1.46,0,0,1,113,92.19Z" transform="translate(18.07 6.09)"/><path class="cls-50" d="M111.74,92.52c-.83.28-1.59-.68-1.75-.87s-.62-.78-.46-1.29a1.41,1.41,0,0,1,1.39-.74,1.74,1.74,0,0,1,1.68,1.58A1.4,1.4,0,0,1,111.74,92.52Z" transform="translate(18.07 6.09)"/><path class="cls-48" d="M113,93c.26.83-.71,1.58-.9,1.73s-.79.62-1.3.44a1.4,1.4,0,0,1-.72-1.4,1.74,1.74,0,0,1,1.61-1.65A1.42,1.42,0,0,1,113,93Z" transform="translate(18.07 6.09)"/><path class="cls-51" d="M113.53,92.43c.87,0,1.34,1.09,1.44,1.32s.39.92.08,1.37a1.4,1.4,0,0,1-1.53.33,1.73,1.73,0,0,1-1.18-2A1.39,1.39,0,0,1,113.53,92.43Z" transform="translate(18.07 6.09)"/><path class="cls-48" d="M112.93,91.6c.23-.48,1-.42,1.13-.4s.62,0,.77.34a.89.89,0,0,1-.26.94,1.08,1.08,0,0,1-1.42.07A.87.87,0,0,1,112.93,91.6Z" transform="translate(18.07 6.09)"/><path class="cls-49" d="M112.82,92.19c.51-.14,1,.47,1,.6a.9.9,0,0,1,.24.81.87.87,0,0,1-.88.4,1.06,1.06,0,0,1-1-1A.86.86,0,0,1,112.82,92.19Z" transform="translate(18.07 6.09)"/><path class="cls-50" d="M112.4,91.54c-.31-.42.1-1,.18-1.16s.34-.5.66-.5.6.38.68.66a1.05,1.05,0,0,1-.61,1.25A.83.83,0,0,1,112.4,91.54Z" transform="translate(18.07 6.09)"/><path class="cls-48" d="M112.37,92.32c-.43.3-1-.12-1.16-.2s-.5-.34-.49-.67.39-.59.67-.66a1.07,1.07,0,0,1,1.25.62A.85.85,0,0,1,112.37,92.32Z" transform="translate(18.07 6.09)"/><path class="cls-51" d="M112.78,92.55c.18.5-.38,1-.5,1.07s-.46.39-.77.3a.86.86,0,0,1-.47-.83,1,1,0,0,1,.93-1A.85.85,0,0,1,112.78,92.55Z" transform="translate(18.07 6.09)"/><circle class="cls-52" cx="130.73" cy="98.09" r="0.66"/><path class="cls-53" d="M116.35,102.89c0,3.34-2.78,3.83-6.12,3.83s-6-.49-6-3.83a6,6,0,0,1,12.08,0Z" transform="translate(18.07 6.09)"/><polygon class="cls-53" points="124.97 101.72 125.95 104.17 130.88 104.11 131.84 101.83 124.97 101.72"/><path class="cls-15" d="M12.77,95.21c1.41,3.54,4.46,3.59,16.87,7.84a9.71,9.71,0,0,0,2.37.52c1.13.1,2.51.48,2.76-.16a25.29,25.29,0,0,0,1.88-9.24,90.16,90.16,0,0,0-21.71-4.79,3.09,3.09,0,0,0-2.48,1.52C11.67,92.45,12.51,94.57,12.77,95.21Z" transform="translate(18.07 6.09)"/><path class="cls-9" d="M86.71,87.2c-.35,1.15-1.59,1.49-3,1.67a8,8,0,0,1-4.07-.37c-1.24,0-.8,1.13,0,1.23a10.27,10.27,0,0,0,3.61.35,10.58,10.58,0,0,1-4.91,0,.52.52,0,0,0,0,1,17.47,17.47,0,0,0,5,.08,13.44,13.44,0,0,1-4.9.22c-.87.19-.39,1.07.11,1a24,24,0,0,0,5-.17,9.78,9.78,0,0,1-3.71.64c-.7.2-.24,1,.34.88a18.73,18.73,0,0,0,5.66-.38,13.27,13.27,0,0,0,4.82-1.91l-2.34-6.18-1.81-.55Z" transform="translate(18.07 6.09)"/></g></g><circle class="cls-54" cx="83.4" cy="71.43" r="64.33"/></g></g></g></g></g></svg>