<svg xmlns="http://www.w3.org/2000/svg" xmlns:xlink="http://www.w3.org/1999/xlink" viewBox="0 0 226.24 181.44"><defs><style>.cls-1,.cls-19,.cls-28,.cls-31{fill:none;}.cls-2{opacity:0.86;}.cls-3{clip-path:url(#clip-path);}.cls-4{fill:#d4f3ff;}.cls-5{fill:#b9e2d0;}.cls-6{fill:#c7cfcb;}.cls-7{fill:#969182;}.cls-8{fill:#f3a188;}.cls-9{fill:#31ab94;}.cls-10{fill:#3c3378;}.cls-11{fill:#ee786b;}.cls-12{fill:#fbcbd8;}.cls-13{fill:#1b1464;}.cls-14{fill:#7f91d4;}.cls-15{fill:#412a74;}.cls-16{fill:#d66c60;}.cls-17{fill:#c9665a;}.cls-18{fill:#bf6156;}.cls-19,.cls-28{stroke:#2e3192;stroke-linecap:round;}.cls-19,.cls-28,.cls-31{stroke-miterlimit:10;}.cls-20{fill:#fba3ba;}.cls-21{fill:#40485b;}.cls-22{fill:#2b303d;}.cls-23{fill:#858585;}.cls-24{fill:#5e5e5e;}.cls-25{fill:#fff;}.cls-26{fill:#996592;}.cls-27{fill:#db927c;}.cls-28{stroke-width:0.5px;}.cls-29{fill:#a679a0;}.cls-30{fill:#206e5e;}.cls-31{stroke:#1b1464;stroke-width:2px;opacity:0.22;}</style><clipPath id="clip-path" transform="translate(26.4 9.64)"><ellipse class="cls-1" cx="74.57" cy="73.43" rx="73.57" ry="72.43"/></clipPath></defs><g id="Layer_2" data-name="Layer 2"><g id="MainLayer"><g id="stories" class="cls-2"><g id="childgroup"><g id="children7"><g class="cls-3"><ellipse class="cls-4" cx="100.97" cy="80.07" rx="81.34" ry="80.07"/><path class="cls-5" d="M199.84,170.44H-23.73l0-97.9C85.75,56,71,79.24,199.56,72.54Z" transform="translate(26.4 9.64)"/><polygon class="cls-6" points="223.57 181.44 0 181.44 0 150.64 211.61 117.62 223.57 181.44"/><path class="cls-5" d="M110.21,26.76c-.09,2.81,2.29,7.48,6,9.48,2.23,1.21,3.75.78,7,2.73a24,24,0,0,1,4.76,4c3.76,3.76,3.24,4.78,5.11,5.89,3.63,2.18,9.63.73,12.92-2.35.65-.6,2-2.83,4.7-7.28,2.47-4.06,2.47-4.31,3.29-5.17,3.25-3.4,6.17-2.64,7.76-4.7,2.54-3.31-.13-11.56-4.75-15.67C144.28,2.4,110.56,16.57,110.21,26.76Z" transform="translate(26.4 9.64)"/><path class="cls-7" d="M133.18,79.22c-.6-14.93-.41-28.9,2-40.18L124.24,22.1l11.66,8.64,1.75-21.1,2.53,16.65,10.41-7L140.18,31.8c-4.9,19.2-3.19,32.39,3.95,47.12C139.48,82.49,137.91,82.74,133.18,79.22Z" transform="translate(26.4 9.64)"/><path class="cls-5" d="M71,21.07c-.1,2.81,2.28,7.49,5.94,9.48,2.23,1.21,3.75.79,7,2.74a23.92,23.92,0,0,1,4.76,4c3.76,3.77,3.25,4.79,5.11,5.9,3.64,2.18,9.63.72,12.92-2.35.65-.6,2-2.83,4.7-7.28,2.47-4.07,2.47-4.32,3.29-5.17,3.25-3.4,6.17-2.64,7.76-4.7C125,20.35,122.31,12.09,117.7,8,105-3.29,71.32,10.89,71,21.07Z" transform="translate(26.4 9.64)"/><path class="cls-7" d="M93.94,73.54c-.6-14.93-.41-28.9,2-40.18L85,16.42l11.67,8.64L98.41,4l2.53,16.66,10.41-7L100.94,26.12c-4.89,19.2-3.19,32.39,4,47.12C100.24,76.81,98.68,77.06,93.94,73.54Z" transform="translate(26.4 9.64)"/><g id="maternity1"><path class="cls-8" d="M107,110.69l1.71,3.41-1.23,1.61c-.18,1.18.71,3.08,1.63,5,1.76.28,3.66-1.12,5.61-3a7,7,0,0,0-2.31-4.3,6.29,6.29,0,0,0-.86-.59l-1.44-4.17Z" transform="translate(26.4 9.64)"/><path class="cls-8" d="M77.17,94.8,75.35,92l.92-1.52c0-1-.91-2.62-1.9-4.2-1.56-.08-3.09,1.32-4.59,3.19A6.05,6.05,0,0,0,72.2,93a4.54,4.54,0,0,0,.81.43l1.65,3.5Z" transform="translate(26.4 9.64)"/><path class="cls-9" d="M77.91,103c-2.26-.62-2.56-2.16-6.25-8.33a5.14,5.14,0,0,1-.52-1.19c-.16-.57-.52-1.26-.16-1.4a16.49,16.49,0,0,1,5.38-1.17,44.91,44.91,0,0,1,4.85,10.86,1.31,1.31,0,0,1-.69,1.29A4.1,4.1,0,0,1,77.91,103Z" transform="translate(26.4 9.64)"/><rect class="cls-10" x="111.98" y="95.9" width="19.83" height="21.97" rx="3.82"/><path class="cls-11" d="M67.74,81.21l1.71,3.42-1.22,1.61c-.19,1.17.7,3.07,1.62,5,1.76.29,3.66-1.11,5.61-3a7,7,0,0,0-2.3-4.29,6.08,6.08,0,0,0-.87-.59l-1.44-4.17Z" transform="translate(26.4 9.64)"/><path class="cls-12" d="M37.06,44.84c1.74,2.37.44,4.83-2.15,16.27a10.52,10.52,0,0,1-2,4.25,3.85,3.85,0,0,1-7-1.7,96.64,96.64,0,0,1,6.3-19.1,3.08,3.08,0,0,1,2.1-1.46C35.69,43,36.74,44.42,37.06,44.84Z" transform="translate(26.4 9.64)"/><path class="cls-13" d="M65.81,129.83c1.78,1.65,2.94,3,3.11,5.3l-5.62,7.31c-2.2,3.67-8,3.21-7.23,1.16l3.3-8-1.95-3.51Z" transform="translate(26.4 9.64)"/><path class="cls-13" d="M43.49,137.51c.73,2.31,1.09,4,.09,6.14l-8.49,3.6c-3.72,2.11-8.57-1.16-6.86-2.55l6.8-5.32,0-4Z" transform="translate(26.4 9.64)"/><path class="cls-14" d="M45.41,74.25l2.79,37L58.42,135.5c4.15,1.18,8,1.38,11.38-.32L60,110.36l-.9-37.14Z" transform="translate(26.4 9.64)"/><path class="cls-14" d="M36.05,73.29,32.92,112l1.81,28.14c3.88,1.57,5.41,1.93,10.88.39l-2.1-28.38,4.58-36.63Z" transform="translate(26.4 9.64)"/><path class="cls-12" d="M35.25,40.83V39.75C42.18,36,50.35,36,58.68,39.52c3,1.26,3.2,4.36,7.3,16.78.77,2.41,1.74,3,1.61,4.78,1.3,1,4.16,10.59,7.2,18.87,2,4.55-4.46,5.35-7.36,6.32A115,115,0,0,1,60.19,65a4.56,4.56,0,0,1-.8-.55L59.57,76c-9,3-17.11,4-23.78.56l-.14-9.19Z" transform="translate(26.4 9.64)"/><path class="cls-15" d="M34.58,16.91c-1.46.32-2.08,2.86-2.22,3.42-.8,3.29,1.48,4.57,1.08,8.82-.17,1.83-.64,2.13-.64,4.19,0,2.5.72,2.79.4,4.31-.51,2.47-2.64,3-2.39,4.75a3.23,3.23,0,0,0,1.59,2.11c1.75,1.13,4.35.77,5.11-.44.45-.71.06-1.41.76-2.23.43-.51.73-.41,1.32-.84,1-.76,1-1.78,1.91-3.87a26.64,26.64,0,0,1,1.24-2.48C44.86,30.27,38.32,16.09,34.58,16.91Z" transform="translate(26.4 9.64)"/><path class="cls-15" d="M35.75,13a8.19,8.19,0,0,1,4.91-1.72A8.81,8.81,0,0,1,47.44,15a31.78,31.78,0,0,1,4,4.11,10,10,0,0,1,2.18,3.59,8.82,8.82,0,0,1,.13,3.86c-.38,1.86-1.16,2.31-.84,3.2s1.34.75,2.74,1.9,1,1.88,2.5,3.69,2.13,1.51,3.29,3.07c.49.65,2.54,3.39,1.39,5.71-1.07,2.16-4.43,2.1-4.89,2.1S54.49,46.1,53,44c-.87-1.23-.43-2.05-1.28-4a10.53,10.53,0,0,0-2.29-3.31,11.35,11.35,0,0,1-4.44.54c-5.47-.42-8.85-4.78-9.82-6-4-5.15-5.8-13.58-2.35-16.81A5.17,5.17,0,0,1,35.75,13Z" transform="translate(26.4 9.64)"/><path class="cls-11" d="M48.13,28.76l1.42,8A6.74,6.74,0,0,1,48.66,38c-1.2,1.33-1.54,2-2.29,2.23-.36.55-2.08.65-2.67.6a7.7,7.7,0,0,1-1.88-1.09c-.31-2.11.41-3.31.1-5.42Z" transform="translate(26.4 9.64)"/><path class="cls-11" d="M46,25.49c.32-1.72,2-3.24,2.9-2.93s1.33,3,.4,4.75c-.06.13-1,1.81-1.91,1.68S45.7,27,46,25.49Z" transform="translate(26.4 9.64)"/><path class="cls-16" d="M42.17,38.33c2.9-3,5.5-6,5.49-8.47L42,35A17.78,17.78,0,0,0,42.17,38.33Z" transform="translate(26.4 9.64)"/><path class="cls-11" d="M33.43,17.74C28.28,20.17,32.19,36,39.8,35.28c4.19-.22,7.27-2,8.34-6.53-.65-2.44-1.47-3.15-2.13-3.33-.28-.07-.54-.05-1.17-.22A8.76,8.76,0,0,1,43,24.45c-1.93-.95-2.12-.51-3.06-1.18-1.16-.82-.75-1.42-1.89-2.24s-1.77-.46-2.9-1.2A4.88,4.88,0,0,1,33.43,17.74Z" transform="translate(26.4 9.64)"/><path class="cls-17" d="M48.43,23.26c-.9,0-1.45,3.26-1.42,3.27h0c.06,0,.58-.41.82-.24.07,0,.11.14.12.13a.35.35,0,0,0-.13-.24c-.23-.15-.69.22-.8.33.13-.32.62-2.71,1.35-2.94.25-.09.59.12.61.05S48.69,23.26,48.43,23.26Z" transform="translate(26.4 9.64)"/><ellipse class="cls-15" cx="40.79" cy="24.62" rx="0.85" ry="1.17" transform="translate(23.06 16.32) rotate(-8.99)"/><ellipse class="cls-15" cx="34.89" cy="25.26" rx="0.85" ry="1.17" transform="translate(22.88 15.4) rotate(-8.99)"/><path class="cls-15" d="M34.26,24.9A1.78,1.78,0,0,1,33,24.51a1.37,1.37,0,0,0,1.35-.07Z" transform="translate(26.4 9.64)"/><path class="cls-15" d="M41.45,24.43a1.87,1.87,0,0,0,1.06-.76A1.37,1.37,0,0,1,41.2,24Z" transform="translate(26.4 9.64)"/><polygon class="cls-18" points="65.23 38.36 62.99 38.59 63.29 33.8 63.38 33.82 63.56 38.01 65.18 38.28 65.23 38.36"/><polygon class="cls-15" points="63.48 38.09 63.36 33.66 63.49 33.65 63.75 38.05 63.48 38.09"/><path class="cls-19" d="M33.51,23.09a1.26,1.26,0,0,1,1.13-.6" transform="translate(26.4 9.64)"/><path class="cls-20" d="M41.66,37.86l.16-2.42c.79,3,1.49,4,4.87,4.77l-2.22,2.3C41.4,40.27,41.62,39.82,41.66,37.86Z" transform="translate(26.4 9.64)"/><path class="cls-20" d="M46.53,40.19l2.39,2.16c.83-2.27,2.19-3,1.65-4.9L49.05,35.3C49.31,36.73,47.42,39.23,46.53,40.19Z" transform="translate(26.4 9.64)"/><circle class="cls-20" cx="72.17" cy="52.46" r="0.47"/><circle class="cls-20" cx="72.31" cy="58.87" r="0.47"/><circle class="cls-20" cx="72.36" cy="66.67" r="0.47"/><polygon class="cls-20" points="70.46 50.3 71.02 80.3 71.14 50.46 71.46 50.1 70.46 50.3"/><circle class="cls-20" cx="72.12" cy="77.22" r="0.47"/><polygon class="cls-11" points="47.94 61.66 42.57 52.47 40.4 57.88 45.25 64.62 47.94 61.66"/><path class="cls-12" d="M29.25,66.68c-2.87,0-3.73-2.17-10.06-9.75a7.4,7.4,0,0,1-1-1.53c-.37-.77-1-1.64-.62-2a19,19,0,0,1,6-3.8,67.56,67.56,0,0,1,9.22,14,2.34,2.34,0,0,1-.4,2.16C31.48,66.71,29.76,66.69,29.25,66.68Z" transform="translate(26.4 9.64)"/><path class="cls-21" d="M17.53,52.29l6.27.45a.53.53,0,0,0,.47-.2l0,0a.54.54,0,0,0,.09-.52l-3.59-9.85a.54.54,0,0,0-.51-.35l-5.37,0a.52.52,0,0,0-.39.17l-.22.23a.54.54,0,0,0-.11.53l2.86,9.15A.53.53,0,0,0,17.53,52.29Z" transform="translate(26.4 9.64)"/><path class="cls-22" d="M17.88,52.75H23a.76.76,0,0,0,.72-1l-3.27-9a.76.76,0,0,0-.71-.5H14.62a.76.76,0,0,0-.72,1l3.27,9A.76.76,0,0,0,17.88,52.75Z" transform="translate(26.4 9.64)"/><ellipse class="cls-23" cx="19.41" cy="43.42" rx="0.53" ry="0.7" transform="translate(4.76 29.05) rotate(-35.59)"/><ellipse class="cls-24" cx="19.42" cy="43.4" rx="0.32" ry="0.42" transform="translate(4.77 29.06) rotate(-35.59)"/><ellipse class="cls-25" cx="19.42" cy="43.4" rx="0.24" ry="0.31" transform="translate(4.77 29.06) rotate(-35.59)"/><path class="cls-11" d="M17.68,53.22a11.58,11.58,0,0,1-4-3.85l-1-3.75a3,3,0,0,1,1.66-1.94c.64-.23,1.65-.23,1.8.13a.32.32,0,0,1,0,.2c-.16.38-1.16.14-1.68.61a1.19,1.19,0,0,0-.33,1,3.18,3.18,0,0,0,.69.54,4.63,4.63,0,0,1,1.84-.4c1.26,0,2.59.57,2.51.93a.24.24,0,0,1-.07.11c-.48.46-2.15-.06-2.41-.14l-1.75.47a6.08,6.08,0,0,1,1.74-.17c1.15,0,2.48.48,2.42.82a.1.1,0,0,1,0,.06c-.29.41-2.1.13-2.64,0L15,48a6.4,6.4,0,0,1,1.88.17c.8.2.84.4.84.47a.37.37,0,0,1-.06.16c-.19.22-.72.06-1.46-.05A10.69,10.69,0,0,0,15,48.71C15,49.81,16.44,51.56,17.68,53.22Z" transform="translate(26.4 9.64)"/><path class="cls-9" d="M87.82,90.69c1,1.88-.48,3.18-4.49,9.93A6.67,6.67,0,0,1,81,102.91c-2.06,1.45-5.45-.22-5.22-2.55a56,56,0,0,1,8.25-10.87A2.57,2.57,0,0,1,86,89,3,3,0,0,1,87.82,90.69Z" transform="translate(26.4 9.64)"/><path class="cls-13" d="M106.73,140.59c1.23.93,2,1.68,2.15,3L105,147.71c-1.52,2.07-5.57,1.81-5,.65l2.28-4.5-1.35-2Z" transform="translate(26.4 9.64)"/><path class="cls-13" d="M91.26,144.92c.51,1.31.75,2.29.06,3.47l-5.89,2c-2.57,1.19-5.94-.66-4.75-1.44l4.71-3,0-2.26Z" transform="translate(26.4 9.64)"/><path class="cls-26" d="M92,113.71l1.92,18L101,143.6a14.94,14.94,0,0,0,7.89-.16l-6.82-12.11-.63-18.13Z" transform="translate(26.4 9.64)"/><path class="cls-26" d="M85.48,113.24l-2.16,18.87,1.25,13.73c2.69.77,3.75.94,7.55.19l-1.46-13.85,3.17-17.87Z" transform="translate(26.4 9.64)"/><path class="cls-9" d="M84.93,89.68v-.61C89.74,87,95.4,87,101.18,88.94c2.1.71,2.21,2.46,5,9.47.54,1.36,1.21,1.71,1.12,2.7.9.57,2.89,6,5,10.66,1.42,2.57-3.09,3-5.1,3.57a56.73,56.73,0,0,1-5-12,2.5,2.5,0,0,1-.55-.31l-.15,11.54c-6.24,1.68-11.86,2.25-16.49.32l.18-10.25Z" transform="translate(26.4 9.64)"/><ellipse class="cls-20" cx="118.62" cy="100.44" rx="0.32" ry="0.26"/><path class="cls-8" d="M95.15,83.31,95.28,89a11.74,11.74,0,0,1-4.37,2.7c-.8.43-1.21.23-1.42-.3v-5Z" transform="translate(26.4 9.64)"/><path class="cls-27" d="M89.49,89.24c2.7-1.77,4.84-3.52,5.14-5.22L89.49,87Z" transform="translate(26.4 9.64)"/><path class="cls-8" d="M82.82,74.49c0,.33-.16.52-.11,1.05.63,7.51.87,9,2.22,10.15a5.73,5.73,0,0,0,2.71,1.23c2.58.42,5.47-1,7.52-3.62l-1.43-8.5a39.18,39.18,0,0,0-6-.7A34.23,34.23,0,0,0,82.82,74.49Z" transform="translate(26.4 9.64)"/><ellipse class="cls-15" cx="116.19" cy="89.26" rx="0.69" ry="0.82"/><ellipse class="cls-15" cx="111.37" cy="89.05" rx="0.69" ry="0.82"/><polygon class="cls-27" points="114.09 91.89 112.27 91.81 113.11 88.51 113.19 88.53 112.8 91.46 114.07 91.83 114.09 91.89"/><polygon class="cls-15" points="112.73 91.51 113.19 88.42 113.3 88.43 112.95 91.51 112.73 91.51"/><path class="cls-28" d="M83.87,77.59a1.7,1.7,0,0,1,1.51,0" transform="translate(26.4 9.64)"/><path class="cls-28" d="M89.12,77.69a1.76,1.76,0,0,1,1.52,0" transform="translate(26.4 9.64)"/><path class="cls-10" d="M94.3,73.09l-4.5-2a10.44,10.44,0,0,0-3.53,0c-3.59,1-3.86,3.12-3.57,5.4l1.58-2-.45,2.16c3,.62,5.67.49,7.43-1.69A4.52,4.52,0,0,0,93.4,78.7a3.67,3.67,0,0,0,.35,2.87c2.69-.57,3.89-2.41,3.84-5.35a2.87,2.87,0,0,0-.67-1.44,3.69,3.69,0,0,0-1.45-1.06Z" transform="translate(26.4 9.64)"/><path class="cls-8" d="M94.48,80.11c.48-1.16,2-2,2.7-1.72s.69,2.2-.28,3.35c-.07.09-1,1.15-1.75,1S94.06,81.13,94.48,80.11Z" transform="translate(26.4 9.64)"/><path class="cls-27" d="M96.73,78.83c-.73-.1-1.57,2.11-1.56,2.12h0c.06,0,.52-.22.69-.08s.07.11.08.11a.22.22,0,0,0-.07-.18c-.17-.13-.58.07-.68.14.14-.21.83-1.82,1.45-1.9.22,0,.46.15.49.11S96.94,78.86,96.73,78.83Z" transform="translate(26.4 9.64)"/><path class="cls-26" d="M82.7,74.31c4.89,1.15,12.52-.2,14.65,4.82,1.33-2.44.51-6.31-3-8.56C91,67,82.7,71,82.7,74.31Z" transform="translate(26.4 9.64)"/><path class="cls-10" d="M84.93,97.63c-.74-3.32-.79-6.66.74-8.87l1.22-.4c-1.55,3.1-1.81,8-1.74,12.93Z" transform="translate(26.4 9.64)"/><path class="cls-10" d="M100.44,88.42c-1.72,4.63-.5,10.75,1.11,14.48-2.26-2.12-4.82-7.94-2.78-15Z" transform="translate(26.4 9.64)"/><path class="cls-29" d="M83,74.35,78.79,76.8a.34.34,0,0,0,.23.62c4.69-.84,9-1.1,12.14.29a.33.33,0,0,0,.32,0l1.91-1.44a.35.35,0,0,0,0-.57c-2.47-1.49-6-1.86-10.25-1.36A.34.34,0,0,0,83,74.35Z" transform="translate(26.4 9.64)"/><rect class="cls-30" x="112.92" y="106.89" width="2.31" height="2.33"/><rect class="cls-30" x="119.59" y="106.95" width="2.31" height="2.33"/><rect class="cls-30" x="115.26" y="109.26" width="4.34" height="2.33"/><rect class="cls-30" x="114.2" y="111.24" width="6.48" height="2.06"/><rect class="cls-30" x="114.18" y="113.03" width="1.19" height="2.06"/><rect class="cls-30" x="119.49" y="113.03" width="1.19" height="2.06"/></g></g><ellipse class="cls-31" cx="100.97" cy="83.07" rx="73.57" ry="72.43"/></g></g></g></g></g></svg>