<svg xmlns="http://www.w3.org/2000/svg" xmlns:xlink="http://www.w3.org/1999/xlink" viewBox="0 0 132.26 112.64"><defs><style>.cls-1,.cls-14,.cls-16,.cls-24{fill:none;}.cls-2{opacity:0.86;}.cls-3{clip-path:url(#clip-path);}.cls-4{fill:url(#linear-gradient);}.cls-5{fill:#d4bfa1;}.cls-6{fill:#7e7494;}.cls-7{fill:url(#linear-gradient-2);}.cls-8{fill:#fbcbd8;}.cls-9{fill:#412a74;}.cls-10{fill:#ee786b;}.cls-11{fill:#d66c60;}.cls-12{fill:#c9665a;}.cls-13{fill:#bf6156;}.cls-14{stroke:#2e3192;stroke-linecap:round;}.cls-14,.cls-16,.cls-24,.cls-25{stroke-miterlimit:10;}.cls-15{fill:#fba3ba;}.cls-16{stroke:#c969b8;stroke-width:0.25px;}.cls-17{fill:url(#linear-gradient-3);}.cls-18,.cls-25{fill:#fff;}.cls-19{opacity:0.41;fill:url(#radial-gradient);}.cls-20{fill:#f5ffe5;}.cls-21{fill:#e0f1c4;}.cls-22{fill:#5d2d56;}.cls-23{fill:#c66b8b;opacity:0.27;}.cls-24{stroke:#1b1464;stroke-width:2px;opacity:0.22;}.cls-25{stroke:#ccc;}.cls-26{fill:#ccc;}.cls-27{fill:#c30040;}.cls-28{fill:#ffe600;}.cls-29{fill:#04bc1f;}.cls-30{fill:#ea4335;}.cls-31{fill:#fbbc05;}.cls-32{fill:#4285f4;}.cls-33{fill:#34a853;}.cls-34{font-size:6.07px;font-family:MyriadPro-Regular, Myriad Pro;}.cls-35{letter-spacing:0.02em;}</style><clipPath id="clip-path" transform="translate(10.38 7.9)"><circle class="cls-1" cx="49" cy="53.12" r="47.06"/></clipPath><linearGradient id="linear-gradient" x1="58" y1="112.64" x2="58" gradientUnits="userSpaceOnUse"><stop offset="0" stop-color="#b7d5f4"/><stop offset="0.21" stop-color="#c0daf5"/><stop offset="0.57" stop-color="#dae9f9"/><stop offset="0.98" stop-color="#fff"/></linearGradient><linearGradient id="linear-gradient-2" x1="51.24" y1="81.4" x2="51.4" y2="89.23" gradientUnits="userSpaceOnUse"><stop offset="0.8" stop-color="#8d82a6"/><stop offset="1" stop-color="#554e63"/></linearGradient><linearGradient id="linear-gradient-3" x1="60.95" y1="56.48" x2="61.57" y2="88.35" gradientUnits="userSpaceOnUse"><stop offset="0.43" stop-color="#7e7494"/><stop offset="1" stop-color="#625a73"/></linearGradient><radialGradient id="radial-gradient" cx="17.37" cy="5006.31" r="6.03" gradientTransform="translate(10.38 -1375.61) scale(1 0.29)" gradientUnits="userSpaceOnUse"><stop offset="0"/><stop offset="1" stop-color="#fff"/></radialGradient></defs><g id="Layer_2" data-name="Layer 2"><g id="MainLayer"><g id="stories" class="cls-2"><g id="childgroup"><g id="children2"><g class="cls-3"><circle class="cls-4" cx="58" cy="56.32" r="56.32"/><g id="children2-2" data-name="children2"><polygon class="cls-5" points="0 94.24 132.26 89.48 122.64 108.23 4.96 110.62 0 94.24"/><path class="cls-6" d="M35,90.79,19.09,84.16l0-1.06L62.34,83,83.6,88.79,83.69,91l-44.8.53A9.79,9.79,0,0,1,35,90.79Z" transform="translate(10.38 7.9)"/><path class="cls-7" d="M35,88.62,19,82l43.25-1.19,21.35,8-44.8.54A9.8,9.8,0,0,1,35,88.62Z" transform="translate(10.38 7.9)"/><path class="cls-8" d="M34.25,50.61C50.74,62.6,52.74,77,43.54,81.55,36,86,19.64,84.45,9.4,80.62c-4.92-7.29-13-22.84-2.21-30C17.22,45.51,26.16,45.9,34.25,50.61Z" transform="translate(10.38 7.9)"/><path class="cls-9" d="M28.5,18.82c-4.56-2.14-7.7-1.27-8.73-.92-6.09,2.1-9.56,9.63-8.41,15.22S18.09,41,17.05,43.57s-6.41.51-9.74,4.29c-1.94,2.2-3,6.08-1.34,9.07a7.43,7.43,0,0,0,3.51,3.12c-1.48-5-.84-6.75,0-7.46,1.13-.93,2.7-.08,4.72-1.09a7,7,0,0,0,3.12-3.73,13.16,13.16,0,0,0,5.08-.18c6.08-1.44,9.09-7,10-8.53C36,32.55,36.5,22.77,32,19.74A5.91,5.91,0,0,0,28.5,18.82Z" transform="translate(10.38 7.9)"/><path class="cls-10" d="M17.39,38.72l-.18,9.2a7.63,7.63,0,0,0,1.23,1.28,7.82,7.82,0,0,0,4.21,1.64,2,2,0,0,0,1.86.66,8.77,8.77,0,0,0,1.92-1.56c0-2.42-1-3.65-1.07-6.07Z" transform="translate(10.38 7.9)"/><path class="cls-10" d="M17.75,32.69c0-2-1.49-4.06-2.58-3.93S13,31.77,13.65,34c0,.16.66,2.23,1.77,2.3S17.72,34.43,17.75,32.69Z" transform="translate(10.38 7.9)"/><path class="cls-11" d="M25.79,48.42c-3.79-2.87-7.25-5.81-7.67-8.54l7.27,4.72A19.37,19.37,0,0,1,25.79,48.42Z" transform="translate(10.38 7.9)"/><path class="cls-10" d="M33.48,26.84c5.2,3.87-2.7,20.64-11,18.15-4.63-1.19-7.68-3.83-7.85-9.15l3.49-5.49A21.47,21.47,0,0,0,33.48,26.84Z" transform="translate(10.38 7.9)"/><path class="cls-9" d="M34.14,26.06c-2.71,5-7.9,5.83-13.75,5.51,6.31-.8,11.85-2.09,12.69-6.44Z" transform="translate(10.38 7.9)"/><path class="cls-12" d="M15.52,29.65c1,.2.88,4,.85,4v0c-.07-.05-.56-.59-.87-.45-.08,0-.15.13-.16.12a.44.44,0,0,1,.21-.24c.28-.12.71.4.81.54-.07-.38-.08-3.15-.85-3.58-.26-.15-.69,0-.69-.08S15.22,29.59,15.52,29.65Z" transform="translate(10.38 7.9)"/><ellipse class="cls-9" cx="23.73" cy="32.87" rx="1.33" ry="0.97" transform="translate(-4.96 51.62) rotate(-69.69)"/><ellipse class="cls-9" cx="30.18" cy="34.9" rx="1.33" ry="0.97" transform="translate(-2.65 58.99) rotate(-69.69)"/><path class="cls-9" d="M31,34.64a2,2,0,0,0,1.46-.16,1.52,1.52,0,0,1-1.49-.38Z" transform="translate(10.38 7.9)"/><path class="cls-9" d="M23,32.51c-.38-.11-.7-.54-1-1.08a1.53,1.53,0,0,0,1.38.68Z" transform="translate(10.38 7.9)"/><polygon class="cls-13" points="35.39 45.79 37.83 46.54 38.57 41.13 38.45 41.14 37.32 45.76 35.46 45.71 35.39 45.79"/><polygon class="cls-9" points="37.39 45.87 38.52 40.97 38.38 40.92 37.1 45.77 37.39 45.87"/><path class="cls-14" d="M32.2,32.79a1.47,1.47,0,0,0-1.13-.92" transform="translate(10.38 7.9)"/><path class="cls-9" d="M34.49,22.54c3.57,4.46,2.3,9.55-.27,14.82,1.72-6.13,2.68-11.73-1-14.2Z" transform="translate(10.38 7.9)"/><path class="cls-9" d="M34.07,23c3.33,7.16.74,12.94-3.46,18.34,3.36-6.85,5.7-13.4,1.82-18.14Z" transform="translate(10.38 7.9)"/><path class="cls-15" d="M17.08,48.11l.18-2.76c.9,3.44,1.69,4.59,5.54,5.43L20.27,53.4C16.63,51.82,16.8,51.86,17.08,48.11Z" transform="translate(10.38 7.9)"/><path class="cls-15" d="M22.62,50.76l2.72,2.46c.94-2.59,2.49-3.41,1.88-5.58L25.49,45.2C25.79,46.83,23.63,49.66,22.62,50.76Z" transform="translate(10.38 7.9)"/><path class="cls-16" d="M34.59,59.58c2.75,2.47,3.57,5,3.35,7.53" transform="translate(10.38 7.9)"/><path class="cls-8" d="M0,57.11c-2,3.15-.12,6.15,4.21,20.38A13.79,13.79,0,0,0,7.1,82.68a4.89,4.89,0,0,0,8.69-2.8C13.62,72.22,9.7,65.18,5.45,57.14c-.32-.42-.76-2.49-2.19-2.49C1.5,54.65.3,56.54,0,57.11Z" transform="translate(10.38 7.9)"/><path class="cls-10" d="M30.13,78.08a8.65,8.65,0,0,1,4.36.22c2.37.8,4.89,3,4.23,4.8-.42,1.13-2,1.69-3.06,2.07a8.19,8.19,0,0,1-6.15-.34,9.2,9.2,0,0,1-2.64-1.66Z" transform="translate(10.38 7.9)"/><path class="cls-8" d="M7.8,82.44c2,3,4.86,2.49,17.3,4.06a8.94,8.94,0,0,0,2.32,0c1.07-.13,2.44,0,2.55-.69a24.1,24.1,0,0,0,0-9,86.2,86.2,0,0,0-21.24-.26,3,3,0,0,0-2,1.9C6.23,80.08,7.43,81.9,7.8,82.44Z" transform="translate(10.38 7.9)"/><path class="cls-17" d="M82.79,55.32H43.28C40.39,55.32,38,58,38,61.4L34.31,87a1.73,1.73,0,0,0,1.59,1.85H82.5A1.73,1.73,0,0,0,84.09,87l4.19-25.35C88.28,58.18,85.82,55.32,82.79,55.32Z" transform="translate(10.38 7.9)"/><path class="cls-16" d="M10.47,63.46c1.74,5,3.3,9.7,3.12,12.19a51.19,51.19,0,0,1,16.19,2.18" transform="translate(10.38 7.9)"/><path class="cls-18" d="M57.61,72c.09,1,2.31,1.66,3.91,1.79s3.89-.17,4.39-1.16-1.32-1.69-1-3.32c.18-1.12,1.13-1.36.9-2-.38-1.19-3.64-2-4.6-1.27-.7.52.44,1.37-.07,2.74C60.39,70.67,57.5,70.91,57.61,72Z" transform="translate(10.38 7.9)"/><path class="cls-18" d="M63.23,66.15a1.12,1.12,0,0,0,.29-1.65l-.22,0,0-.22a.89.89,0,0,1,.76-.1.3.3,0,0,1,.14.36c-.07.09-.14.08-.21,0a1.44,1.44,0,0,1-.28,1.77Z" transform="translate(10.38 7.9)"/><ellipse class="cls-19" cx="27.75" cy="99.47" rx="6.03" ry="1.78"/><path class="cls-20" d="M21.71,82.79c-1.57,0-2.83,1.59-2.83,3.55s1.26,3.54,2.83,3.54,2.82-1.59,2.82-3.54S23.27,82.79,21.71,82.79Zm0,5.91a2.42,2.42,0,0,1,0-4.73,2.43,2.43,0,0,1,0,4.73Z" transform="translate(10.38 7.9)"/><path class="cls-20" d="M11.8,82.25c-.3,4.38-.41,8.56,2.8,9.32.07.17-.51.39,2.32.39s2.28-.1,2.33-.39C22.85,90.14,22.2,86,22,82.25Z" transform="translate(10.38 7.9)"/><path class="cls-21" d="M14.84,91.62c-1-.21-1.63-.52-1.63-.85-1.68-1.47-1.58-5-1.41-8.52l1.48,0C13.13,85.9,13.28,89.3,14.84,91.62Z" transform="translate(10.38 7.9)"/><ellipse class="cls-20" cx="27.3" cy="90.15" rx="5.12" ry="1.16"/><path class="cls-21" d="M20.86,82.62c.22-.11.33-.24.33-.37,0-.54-1.91-1-4.27-1s-4.27.43-4.27,1c0,.13.12.26.33.37A10,10,0,0,1,16.92,82,10,10,0,0,1,20.86,82.62Z" transform="translate(10.38 7.9)"/><ellipse class="cls-22" cx="27.3" cy="90.52" rx="3.94" ry="0.59"/><path class="cls-23" d="M17,80.18a4.46,4.46,0,0,1-.27-2.29c.27-1.73,1.55-2.33,1.59-3.72A3.45,3.45,0,0,0,17,71.6a4.64,4.64,0,0,1,.3,2.56c-.32,1.76-1.69,2.4-1.64,3.78A3.1,3.1,0,0,0,17,80.18Z" transform="translate(10.38 7.9)"/><path class="cls-23" d="M15.49,75.8a2.5,2.5,0,0,0-.08-2.72,1.32,1.32,0,0,0-1.1-.47,1.33,1.33,0,0,0-.9,1.09A1.79,1.79,0,0,0,14,75.26a2,2,0,0,1-1.09-2.1A2,2,0,0,1,14,71.84a2.24,2.24,0,0,1,2.14.89A2.34,2.34,0,0,1,15.49,75.8Z" transform="translate(10.38 7.9)"/></g></g><circle class="cls-24" cx="59.37" cy="61.03" r="48"/><polygon class="cls-18" points="128.59 51.87 63.51 51.87 56.55 59.35 56.63 51.87 56.63 7.9 128.59 7.9 128.59 51.87"/><rect class="cls-25" x="60.31" y="32.42" width="63.72" height="11.72" rx="5.86"/><rect class="cls-26" x="56.63" y="7.91" width="71.95" height="4.53"/><circle class="cls-27" cx="60.22" cy="10.14" r="1.13"/><circle class="cls-28" cx="64.27" cy="10.14" r="1.13"/><circle class="cls-29" cx="68.32" cy="10.14" r="1.13"/><path class="cls-30" d="M79.2,15A3.22,3.22,0,1,1,76,11.79,3.17,3.17,0,0,1,79.2,15Zm-1.41,0a1.81,1.81,0,1,0-3.62,0,1.82,1.82,0,1,0,3.62,0Z" transform="translate(10.38 7.9)"/><path class="cls-31" d="M86.14,15a3.22,3.22,0,1,1-3.22-3.21A3.17,3.17,0,0,1,86.14,15Zm-1.41,0a1.81,1.81,0,1,0-3.62,0,1.82,1.82,0,1,0,3.62,0Z" transform="translate(10.38 7.9)"/><path class="cls-32" d="M92.8,12v5.76c0,2.37-1.4,3.34-3,3.34a3.06,3.06,0,0,1-2.85-1.9l1.23-.51a1.76,1.76,0,0,0,1.62,1.14c1,0,1.71-.65,1.71-1.88v-.46h0a2.19,2.19,0,0,1-1.69.73,3.21,3.21,0,0,1,0-6.42,2.21,2.21,0,0,1,1.69.72h0V12Zm-1.24,3a1.8,1.8,0,0,0-1.71-1.95A1.85,1.85,0,0,0,88.06,15,1.84,1.84,0,0,0,89.85,17,1.8,1.8,0,0,0,91.56,15Z" transform="translate(10.38 7.9)"/><path class="cls-33" d="M95,8.61V18H93.63V8.61Z" transform="translate(10.38 7.9)"/><path class="cls-30" d="M100.36,16.06l1.1.73a3.22,3.22,0,0,1-2.68,1.42A3.14,3.14,0,0,1,95.6,15a3,3,0,0,1,3-3.21,3,3,0,0,1,2.75,2l.15.37L97.23,16a1.62,1.62,0,0,0,1.55,1,1.84,1.84,0,0,0,1.58-.89ZM97,14.9l2.87-1.19A1.24,1.24,0,0,0,98.67,13,1.77,1.77,0,0,0,97,14.9Z" transform="translate(10.38 7.9)"/><path class="cls-32" d="M67.55,14.17V12.8h4.59a4.15,4.15,0,0,1,.07.83A4.49,4.49,0,0,1,71,16.81a4.57,4.57,0,0,1-3.48,1.4,5.05,5.05,0,0,1-5-5,5.06,5.06,0,0,1,5-5A4.78,4.78,0,0,1,71,9.61l-1,1a3.49,3.49,0,0,0-2.46-1,3.63,3.63,0,0,0,0,7.25,3.33,3.33,0,0,0,2.52-1,2.83,2.83,0,0,0,.74-1.69Z" transform="translate(10.38 7.9)"/><path class="cls-32" d="M105.17,28.05a2.71,2.71,0,0,0,2.91,4.35,2.94,2.94,0,0,0,.8-.43l1.83,1.6.66-.75-1.83-1.61A2.7,2.7,0,0,0,109,27.8a2.71,2.71,0,0,0-2.66-.53A2.63,2.63,0,0,0,105.17,28.05Zm3.16.5a1.71,1.71,0,0,1,.16,2.41,1.81,1.81,0,0,1-.73.49,1.74,1.74,0,0,1-1.68-.33,1.7,1.7,0,0,1-.57-1.17,1.69,1.69,0,0,1,.41-1.24,1.78,1.78,0,0,1,.74-.49A1.7,1.7,0,0,1,108.33,28.55Z" transform="translate(10.38 7.9)"/><text class="cls-34" transform="translate(65.1 40.19)">Child Suppo<tspan class="cls-35" x="31.05" y="0">r</tspan><tspan x="33.19" y="0">t</tspan></text></g></g></g></g></g></svg>