<svg xmlns="http://www.w3.org/2000/svg" xmlns:xlink="http://www.w3.org/1999/xlink" viewBox="0 0 173.31 134.23"><defs><style>.cls-1,.cls-17,.cls-22,.cls-24,.cls-26,.cls-27,.cls-28{fill:none;}.cls-2{opacity:0.86;}.cls-3{clip-path:url(#clip-path);}.cls-4{fill:url(#linear-gradient);}.cls-5{fill:#fbcbd8;}.cls-6{fill:#fba3ba;}.cls-7{fill:#996592;}.cls-8{fill:#f4cba8;}.cls-9{fill:#d4b6d0;}.cls-10{fill:#b879b0;}.cls-11{fill:#bf4747;}.cls-12{fill:#ff5f5f;}.cls-13,.cls-23{fill:#fff;}.cls-14{fill:#fcffba;}.cls-15{fill:#e3b696;}.cls-16{fill:#412a74;}.cls-17{stroke:#2e3192;stroke-linecap:round;}.cls-17,.cls-22,.cls-23,.cls-24,.cls-26,.cls-27,.cls-28,.cls-42,.cls-43{stroke-miterlimit:10;}.cls-18{fill:#ee786b;}.cls-19{fill:#d66c60;}.cls-20{fill:#c9665a;}.cls-21{fill:#bf6156;}.cls-22{stroke:#1b1464;stroke-width:2px;opacity:0.22;}.cls-23,.cls-24{stroke:#b2b2b2;}.cls-23,.cls-42{stroke-width:0.5px;}.cls-24,.cls-43{stroke-width:0.25px;}.cls-25{opacity:0.14;}.cls-26,.cls-27,.cls-28{stroke:#000;}.cls-27{stroke-dasharray:3.79 3.79;}.cls-28{stroke-dasharray:4.65 4.65;}.cls-29,.cls-31,.cls-33{fill:#d49f53;}.cls-30{fill:#fbc26e;}.cls-31,.cls-32,.cls-33,.cls-36{isolation:isolate;}.cls-31{font-size:3.18px;}.cls-31,.cls-33,.cls-36{font-family:ArialRoundedMTBold, Arial Rounded MT Bold;}.cls-32{opacity:0.17;fill:url(#radial-gradient);}.cls-33{font-size:3.26px;}.cls-34{fill:#a37367;}.cls-35{fill:#c78c7d;}.cls-36{font-size:2.87px;fill:#d4bfa1;}.cls-37{clip-path:url(#clip-path-2);}.cls-38{fill:#be7f63;}.cls-39{fill:#ffccb5;}.cls-40,.cls-42,.cls-43{fill:#edbea8;}.cls-41{fill:#82675c;}.cls-42,.cls-43{stroke:#d1a894;}.cls-44{fill:#a17272;}</style><clipPath id="clip-path" transform="translate(5.76 5.76)"><circle class="cls-1" cx="60.55" cy="60.55" r="58.32"/></clipPath><linearGradient id="linear-gradient" x1="66.31" y1="132.62" x2="66.31" gradientUnits="userSpaceOnUse"><stop offset="0" stop-color="#b7d5f4"/><stop offset="0.21" stop-color="#c0daf5"/><stop offset="0.57" stop-color="#dae9f9"/><stop offset="0.98" stop-color="#fff"/></linearGradient><radialGradient id="radial-gradient" cx="130.2" cy="-8510.26" r="12.16" gradientTransform="matrix(1, 0, 0, -0.31, 5.76, -2543.05)" gradientUnits="userSpaceOnUse"><stop offset="0"/><stop offset="1" stop-color="#fff"/></radialGradient><clipPath id="clip-path-2" transform="translate(5.76 5.76)"><path class="cls-1" d="M117,60.05c-2.94,1.86-7-1.19-8.32-3.79a5.78,5.78,0,0,1-.56-4.64,6,6,0,0,1,1-1.53,5.71,5.71,0,0,1-7-8.09,5.32,5.32,0,0,1-5.2-1.86c-1.53-2-1.13-5.32,1.18-7.36a6.17,6.17,0,0,1-4.18-4.92,6.31,6.31,0,0,1,4.69-6.56,5.75,5.75,0,0,1,2.1-6.51,5.7,5.7,0,0,1,4.52-.51,4.91,4.91,0,0,1,2-4.92,4.93,4.93,0,0,1,6.17.74,4.8,4.8,0,0,1,1.13-2.89c2-2.26,5.32-1.35,5.49-1.3a6.05,6.05,0,0,1,3.45,2.6,4.86,4.86,0,0,1,3.39-4.24,4.75,4.75,0,0,1,5.09,1.59,4.56,4.56,0,0,1,4-2.78,4.74,4.74,0,0,1,4.58,3.51A5,5,0,0,1,144.57,6a4.81,4.81,0,0,1,3.23,3.84,4.9,4.9,0,0,1,7.52,4.47,4.56,4.56,0,0,1,5.43,2.09,4.58,4.58,0,0,1-.34,4.42,6.14,6.14,0,0,1,3.11,3.45,6,6,0,0,1-.22,4.47c2.82.84,4.41,3.45,3.9,5.54a4.74,4.74,0,0,1-2.83,3,5.92,5.92,0,0,1,.62,4.47,5.63,5.63,0,0,1-5.2,3.74,5.66,5.66,0,0,1-.45,5.88,6.15,6.15,0,0,1-4.92,2.37,5,5,0,0,1-.68,5.49,5.06,5.06,0,0,1-5,1.53,5.77,5.77,0,0,1-2.09,4.35,6,6,0,0,1-7.35-.56,7.58,7.58,0,0,1-5.6,2.94,7.06,7.06,0,0,1-6.23-3.51A7.59,7.59,0,0,1,121,65.14C120.76,65.14,118.21,64.29,117,60.05Z"/></clipPath></defs><g id="Layer_2" data-name="Layer 2"><g id="MainLayer"><g id="stories" class="cls-2"><g id="childgroup"><g id="children1"><g class="cls-3"><circle class="cls-4" cx="66.31" cy="66.31" r="66.31"/><g id="children1-2" data-name="children1"><path class="cls-5" d="M56,60.75c-3.67,4.23-1.56,9.09,1.66,31.18a20.52,20.52,0,0,0,3.19,8.35c3.3,5.84,12.12,4.38,13.53-2.19,1.81-9.6-3.58-23.52-9.14-37.16a5.48,5.48,0,0,0-3.78-3.08C58.83,57.46,56.64,60,56,60.75Z" transform="translate(5.76 5.76)"/><path class="cls-5" d="M62.73,58.73l-.36,65c-11.39,6.59-25.1,6-40.46.2l.23-65.21C37.18,51.08,50.6,51.67,62.73,58.73Z" transform="translate(5.76 5.76)"/><circle class="cls-6" cx="50.53" cy="69.1" r="0.79"/><circle class="cls-6" cx="50.3" cy="80.04" r="0.79"/><circle class="cls-6" cx="50.19" cy="93.36" r="0.79"/><circle class="cls-6" cx="50.13" cy="105.28" r="0.79"/><polygon class="cls-6" points="53.45 65.42 52.81 129.31 52.29 65.69 51.74 65.07 53.45 65.42"/><circle class="cls-6" cx="49.94" cy="119.6" r="0.79"/><path class="cls-7" d="M24.92,97.61c-1-6.71,5.94-12.19,7.82-13.68,4.24-3.35,5.8-2.14,12.14-6.28,5.9-3.84,5.57-5.55,9.31-6.87,4.88-1.72,12.35-1.25,15.6,3.32s.66,11-.77,14.58C64.29,100.39,53,104.91,50.71,105.81c-4.26,1.7-10.23,4.08-16.58,1.57C33.3,107.05,25.86,104,24.92,97.61Z" transform="translate(5.76 5.76)"/><path class="cls-8" d="M64.07,66.54a7.76,7.76,0,0,0-5.25,0,8.46,8.46,0,0,0-4.89,6.84c0,.31-.48,5.2,3.35,7.76a8.24,8.24,0,0,0,9.92-.83A8.51,8.51,0,0,0,68.75,70,8.29,8.29,0,0,0,64.07,66.54Z" transform="translate(5.76 5.76)"/><path class="cls-9" d="M66.73,63.65a1.2,1.2,0,0,1,1.07-.27,1.12,1.12,0,0,1,.72,1.08,1.24,1.24,0,0,1,1.33.8,1,1,0,0,1-.41,1.13,1,1,0,0,1,.19,1.32.87.87,0,0,1-1,.31,1,1,0,0,1-.85,1,1,1,0,0,1-.87-.33,1.3,1.3,0,0,1-1.72.16,1.34,1.34,0,0,1-.24-1,.79.79,0,0,1-.73-.61.86.86,0,0,1,.27-.85,1.13,1.13,0,0,1-.36-1.12,1.27,1.27,0,0,1,.61-.73,1,1,0,0,1,.25-.92C65.28,63.19,66.11,63.15,66.73,63.65Z" transform="translate(5.76 5.76)"/><path class="cls-8" d="M69.28,75.72a2.11,2.11,0,0,1,1.49,2.49,1.74,1.74,0,0,1-3,.44" transform="translate(5.76 5.76)"/><path class="cls-10" d="M55.88,68.44c5.56-.08,10.3,3.38,14.15,7.72a5.08,5.08,0,0,0,.45-1.44,9.11,9.11,0,0,0,.26-1.83,6.55,6.55,0,0,0-.39-2.26,9.3,9.3,0,0,0-5-5c-.76-.34-4.34-1.79-7.07,0A10.2,10.2,0,0,0,55.88,68.44Z" transform="translate(5.76 5.76)"/><path class="cls-9" d="M55.79,68.48c5.56-.09,10.3,3.38,14.15,7.71a1,1,0,0,0,.3-.67C68.9,72.32,58.06,65,55.79,68.48Z" transform="translate(5.76 5.76)"/><path class="cls-11" d="M57.37,76.14c.26,0,.46-.15,1,.35a3.59,3.59,0,0,0,2.07.91c.73.06.77.39,1,.57s.29,1.28-.32,1.7C60,80.43,57,79.42,56.49,78,56.18,77.11,56.92,76.07,57.37,76.14Z" transform="translate(5.76 5.76)"/><path class="cls-12" d="M57.14,76.19c.26,0,.46-.15,1,.35a3.49,3.49,0,0,0,2.08.91c.73.06.77.39,1,.57s.29,1.28-.31,1.7c-1.1.76-4.16-.25-4.64-1.66C56,77.17,56.7,76.12,57.14,76.19Z" transform="translate(5.76 5.76)"/><path class="cls-13" d="M59.56,79.93a1.53,1.53,0,0,1-2.85-1.1,1.53,1.53,0,1,1,2.85,1.1Zm-1.06-1.5a1.06,1.06,0,1,0,.6,1.36A1.06,1.06,0,0,0,58.5,78.43Z" transform="translate(5.76 5.76)"/><circle class="cls-14" cx="64.38" cy="84.09" r="1.04"/><path class="cls-15" d="M70.39,77.08c-.46-.26-1.69,1.22-1.68,1.24h0s.41,0,.48.12a.27.27,0,0,1,0,.1.19.19,0,0,0,0-.16c-.07-.15-.41-.1-.5-.07.16-.13,1.1-1.19,1.54-1.09.16,0,.27.23.3.2S70.52,77.16,70.39,77.08Z" transform="translate(5.76 5.76)"/><ellipse class="cls-16" cx="57.37" cy="72.32" rx="1.17" ry="0.85" transform="translate(-25.02 105.45) rotate(-68.83)"/><path class="cls-16" d="M57,71.7a1.81,1.81,0,0,1-.87-1,1.35,1.35,0,0,0,1.2.61Z" transform="translate(5.76 5.76)"/><path class="cls-17" d="M57.26,69.75a1.27,1.27,0,0,1,1.28,0" transform="translate(5.76 5.76)"/><ellipse class="cls-16" cx="63.61" cy="74.73" rx="1.17" ry="0.85" transform="translate(-23.29 112.81) rotate(-68.83)"/><path class="cls-16" d="M64.29,74.52a1.89,1.89,0,0,0,1.29-.12A1.39,1.39,0,0,1,64.27,74Z" transform="translate(5.76 5.76)"/><path class="cls-17" d="M65.41,72.9a1.25,1.25,0,0,0-1-.82" transform="translate(5.76 5.76)"/><path class="cls-5" d="M18.42,60.27c-4.66,3.11-3.91,8.35-6.63,30.51a20.45,20.45,0,0,0,.87,8.9c1.64,6.5,10.54,7.42,13.63,1.46a184.19,184.19,0,0,0,1-38.26c-.18-.76-.86-3.1-2.82-4C22,57.84,19.25,59.71,18.42,60.27Z" transform="translate(5.76 5.76)"/><path class="cls-18" d="M46.54,93.12a13,13,0,0,1,5.51-3.52c3.6-1.08,8.63-.52,9.35,2.2.47,1.75-1,3.83-1.95,5.19a12.31,12.31,0,0,1-7.82,4.93,13.82,13.82,0,0,1-4.67.26Z" transform="translate(5.76 5.76)"/><path class="cls-5" d="M15.05,102.93c3.66,4,7.78,2.6,26.57,2.13a13.52,13.52,0,0,0,3.45-.49c1.56-.43,3.61-.6,3.62-1.59a36,36,0,0,0-2.07-13.34A129.05,129.05,0,0,0,15.06,94a4.44,4.44,0,0,0-2.57,3.28C12.19,99.77,14.39,102.2,15.05,102.93Z" transform="translate(5.76 5.76)"/><path class="cls-16" d="M54.11,11C47.26,7.83,42.55,9.13,41,9.66,31.87,12.8,26.66,24.11,28.38,32.5s10.1,11.83,8.54,15.66-9.6.78-14.61,6.45c-2.91,3.3-4.43,9.12-2,13.6a11.11,11.11,0,0,0,5.27,4.68c-2.22-7.44-1.26-10.12,0-11.19,1.7-1.39,4.06-.11,7.09-1.64a10.47,10.47,0,0,0,4.68-5.58A19.78,19.78,0,0,0,45,54.2C54.12,52,58.64,43.78,59.94,41.4c5.35-9.76,6.17-24.44-.52-29A8.82,8.82,0,0,0,54.11,11Z" transform="translate(5.76 5.76)"/><path class="cls-18" d="M37.44,40.9l-.27,13.8A10.82,10.82,0,0,0,39,56.61a11.56,11.56,0,0,0,6.32,2.46,2.89,2.89,0,0,0,2.8,1A12.79,12.79,0,0,0,51,57.72c0-3.63-1.56-5.47-1.6-9.1Z" transform="translate(5.76 5.76)"/><path class="cls-18" d="M40.19,34.81c-1-2.81-4.21-4.93-5.68-4.17s-1.45,5.34.6,8.12c.14.21,2.08,2.79,3.67,2.32S41.07,37.28,40.19,34.81Z" transform="translate(5.76 5.76)"/><path class="cls-19" d="M50,55.44c-5.67-4.3-10.87-8.71-11.5-12.81l10.91,7.09A28.21,28.21,0,0,1,50,55.44Z" transform="translate(5.76 5.76)"/><path class="cls-18" d="M59.29,18.4c9.33,2.72,6.94,30.44-6.07,31.26-7.12.75-12.79-1.39-15.8-8.78l2-9.54A32.28,32.28,0,0,0,59.29,18.4Z" transform="translate(5.76 5.76)"/><path class="cls-16" d="M59.81,16.94c-1.21,8.48-8.08,12.33-16.49,14.92,8.47-4.4,15.59-9.11,14.51-15.67Z" transform="translate(5.76 5.76)"/><path class="cls-20" d="M35.47,31.7c1.52-.24,3.3,5.11,3.27,5.14l0,0c-.11,0-1.09-.54-1.45-.19a1.44,1.44,0,0,0-.16.26.61.61,0,0,1,.16-.44c.34-.32,1.21.18,1.43.33-.3-.5-1.76-4.39-3.06-4.59-.45-.07-1,.36-1,.25S35,31.77,35.47,31.7Z" transform="translate(5.76 5.76)"/><ellipse class="cls-16" cx="54.47" cy="37.71" rx="1.45" ry="2"/><ellipse class="cls-16" cx="64.59" cy="37.21" rx="1.45" ry="2"/><path class="cls-16" d="M59.78,30.69a3.1,3.1,0,0,0,2-1,2.33,2.33,0,0,1-2.3.24Z" transform="translate(5.76 5.76)"/><path class="cls-16" d="M47.54,31.81a3.15,3.15,0,0,1-2-1,2.33,2.33,0,0,0,2.3.23Z" transform="translate(5.76 5.76)"/><polygon class="cls-21" points="58.88 44.1 62.7 43.89 60.93 35.9 60.77 35.96 61.59 43.06 58.94 43.95 58.88 44.1"/><polygon class="cls-16" points="61.74 43.18 60.77 35.69 60.55 35.7 61.28 43.18 61.74 43.18"/><path class="cls-17" d="M60.58,27.43c-1.09.53-1.58-.16-2.07-.71" transform="translate(5.76 5.76)"/><path class="cls-16" d="M58.46,11.82c7.35,4.41,8.22,12.23,7.34,21C65,23.29,63.46,14.91,57,13.35Z" transform="translate(5.76 5.76)"/><path class="cls-16" d="M58.1,12.63c8.41,8.34,7.77,17.81,4.67,27.6,1.16-11.39,1-21.83-6.88-26.46Z" transform="translate(5.76 5.76)"/><path class="cls-6" d="M37,55l.27-4.14C38.59,56,39.78,57.72,45.56,59l-3.8,3.94C36.3,60.56,36.55,60.61,37,55Z" transform="translate(5.76 5.76)"/><path class="cls-6" d="M45.28,59l4.08,3.7c1.41-3.88,3.75-5.12,2.82-8.38l-2.59-3.66C50,53.06,46.8,57.31,45.28,59Z" transform="translate(5.76 5.76)"/><path class="cls-18" d="M62.46,98.91a11.68,11.68,0,0,1-4.55-3.78c-1.92-2.81-2.81-7.29-.67-8.66,1.38-.88,3.57-.19,5,.26a11.09,11.09,0,0,1,6.39,5.38,12.57,12.57,0,0,1,1.51,4Z" transform="translate(5.76 5.76)"/><path class="cls-5" d="M74.12,95.34l-6.39-6.17A14.55,14.55,0,0,0,59.67,99L64,103.82C70.17,103.47,74.7,101.65,74.12,95.34Z" transform="translate(5.76 5.76)"/></g></g><circle class="cls-22" cx="66.31" cy="66.31" r="59.55"/><path class="cls-23" d="M75.3,12.63a1.7,1.7,0,0,1,1.73.11,1.85,1.85,0,0,1,.62,2,1.91,1.91,0,0,1,1.68,1.9,1.94,1.94,0,0,1-1.23,1.57,1.62,1.62,0,0,1-.39,2.19A1.53,1.53,0,0,1,76,20.36a1.59,1.59,0,0,1-3,.12,2.06,2.06,0,0,1-2.75-.62,2,2,0,0,1,.17-1.74,1.45,1.45,0,0,1-.9-1.35,1.41,1.41,0,0,1,.84-1.23,1.92,1.92,0,0,1,0-1.91,2.17,2.17,0,0,1,1.4-.84,1.9,1.9,0,0,1,.79-1.34A2.51,2.51,0,0,1,75.3,12.63Z" transform="translate(5.76 5.76)"/><path class="cls-24" d="M75.3,12.63a1.7,1.7,0,0,1,1.73.11,1.85,1.85,0,0,1,.62,2,1.91,1.91,0,0,1,1.68,1.9,1.94,1.94,0,0,1-1.23,1.57,1.62,1.62,0,0,1-.39,2.19A1.53,1.53,0,0,1,76,20.36a1.59,1.59,0,0,1-3,.12,2.06,2.06,0,0,1-2.75-.62,2,2,0,0,1,.17-1.74,1.45,1.45,0,0,1-.9-1.35,1.41,1.41,0,0,1,.84-1.23,1.92,1.92,0,0,1,0-1.91,2.17,2.17,0,0,1,1.4-.84,1.9,1.9,0,0,1,.79-1.34A2.51,2.51,0,0,1,75.3,12.63Z" transform="translate(5.76 5.76)"/><path class="cls-23" d="M90.08,7.59A2,2,0,0,1,92,7a2.06,2.06,0,0,1,1.46,1.91A2.16,2.16,0,0,1,96,10.28a2.22,2.22,0,0,1-.67,2.19,1.84,1.84,0,0,1,.51,2.47,1.84,1.84,0,0,1-1.8.67,1.92,1.92,0,0,1-1.4,1.91A1.89,1.89,0,0,1,90.92,17a2.35,2.35,0,0,1-3.2.45,2,2,0,0,1-.5-1.85,1.56,1.56,0,0,1-1.46-1.06,1.61,1.61,0,0,1,.39-1.63,2.06,2.06,0,0,1-.78-2,2,2,0,0,1,1.12-1.4,2.11,2.11,0,0,1,.28-1.74C87.38,6.86,88.84,6.75,90.08,7.59Z" transform="translate(5.76 5.76)"/><path class="cls-24" d="M90.08,7.59A2,2,0,0,1,92,7a2.06,2.06,0,0,1,1.46,1.91A2.16,2.16,0,0,1,96,10.28a2.22,2.22,0,0,1-.67,2.19,1.84,1.84,0,0,1,.51,2.47,1.84,1.84,0,0,1-1.8.67,1.92,1.92,0,0,1-1.4,1.91A1.89,1.89,0,0,1,90.92,17a2.35,2.35,0,0,1-3.2.45,2,2,0,0,1-.5-1.85,1.56,1.56,0,0,1-1.46-1.06,1.61,1.61,0,0,1,.39-1.63,2.06,2.06,0,0,1-.78-2,2,2,0,0,1,1.12-1.4,2.11,2.11,0,0,1,.28-1.74C87.38,6.86,88.84,6.75,90.08,7.59Z" transform="translate(5.76 5.76)"/><path class="cls-23" d="M117,60.05c-2.94,1.86-7-1.19-8.32-3.79a5.78,5.78,0,0,1-.56-4.64,6,6,0,0,1,1-1.53,5.71,5.71,0,0,1-7-8.09,5.32,5.32,0,0,1-5.2-1.86c-1.53-2-1.13-5.32,1.18-7.36a6.17,6.17,0,0,1-4.18-4.92,6.31,6.31,0,0,1,4.69-6.56,5.75,5.75,0,0,1,2.1-6.51,5.7,5.7,0,0,1,4.52-.51,4.91,4.91,0,0,1,2-4.92,4.93,4.93,0,0,1,6.17.74,4.8,4.8,0,0,1,1.13-2.89c2-2.26,5.32-1.35,5.49-1.3a6.05,6.05,0,0,1,3.45,2.6,4.86,4.86,0,0,1,3.39-4.24,4.75,4.75,0,0,1,5.09,1.59,4.56,4.56,0,0,1,4-2.78,4.74,4.74,0,0,1,4.58,3.51A5,5,0,0,1,144.57,6a4.81,4.81,0,0,1,3.23,3.84,4.9,4.9,0,0,1,7.52,4.47,4.56,4.56,0,0,1,5.43,2.09,4.58,4.58,0,0,1-.34,4.42,6.14,6.14,0,0,1,3.11,3.45,6,6,0,0,1-.22,4.47c2.82.84,4.41,3.45,3.9,5.54a4.74,4.74,0,0,1-2.83,3,5.92,5.92,0,0,1,.62,4.47,5.63,5.63,0,0,1-5.2,3.74,5.66,5.66,0,0,1-.45,5.88,6.15,6.15,0,0,1-4.92,2.37,5,5,0,0,1-.68,5.49,5.06,5.06,0,0,1-5,1.53,5.77,5.77,0,0,1-2.09,4.35,6,6,0,0,1-7.35-.56,7.58,7.58,0,0,1-5.6,2.94,7.06,7.06,0,0,1-6.23-3.51A7.59,7.59,0,0,1,121,65.14C120.76,65.14,118.21,64.29,117,60.05Z" transform="translate(5.76 5.76)"/><g class="cls-25"><line class="cls-26" x1="134.61" y1="44.65" x2="134.67" y2="45.78"/><line class="cls-27" x1="134.67" y1="47.93" x2="134.84" y2="59.76"/><path class="cls-26" d="M129.07,55v1.13a5.84,5.84,0,0,1,.34-1.07" transform="translate(5.76 5.76)"/><path class="cls-28" d="M130.71,52.81c1.3-1.81,3.17-3.45,4.81-3.34a24.44,24.44,0,0,1,3.11.45" transform="translate(5.76 5.76)"/><path class="cls-26" d="M139.82,50.54a1.65,1.65,0,0,1,.62.91" transform="translate(5.76 5.76)"/></g><circle class="cls-29" cx="147.9" cy="59.76" r="1.75"/><circle class="cls-30" cx="148.07" cy="59.47" r="1.75"/><text class="cls-31" transform="translate(146.47 59.29) rotate(49.61)">£</text><ellipse class="cls-32" cx="135.97" cy="65.36" rx="12.16" ry="3.73"/><ellipse class="cls-29" cx="134.89" cy="65.24" rx="2.09" ry="1.3"/><ellipse class="cls-30" cx="134.89" cy="64.85" rx="2.09" ry="1.24"/><text class="cls-33" transform="matrix(0.76, 0.53, -0.89, 0.45, 132.91, 64.57)">£</text><ellipse class="cls-34" cx="129.4" cy="63.94" rx="1.87" ry="1.13"/><ellipse class="cls-35" cx="129.4" cy="63.55" rx="1.87" ry="1.07"/><text class="cls-36" transform="matrix(-0.76, -0.53, 0.89, -0.45, 130.56, 63.24)">£</text><g class="cls-37"><path class="cls-38" d="M120.48,17.34l2.31,1,4.76-.06,4.86.8c1,.22.85.67-.45,1.35a6.28,6.28,0,0,1-4.13.17l7,4.75a.86.86,0,0,1,.29,1.14.93.93,0,0,1-.91.39c-1.92-1-3.9-1.86-5.83-2.83l6.51,3.91a.93.93,0,0,1,0,1.13.92.92,0,0,1-.85.22c-2.2-1.18-4.47-2.37-6.67-3.56l5.6,3.9a1,1,0,0,1,.39,1.36A1,1,0,0,1,132,31c-2-1.36-3.95-2.71-6-4.07l4.24,3.62a.84.84,0,0,1-.17,1.24.8.8,0,0,1-1.07-.22c-2.61-2.27-5.15-4.58-7.75-6.85l-4.13-4.41Z" transform="translate(5.76 5.76)"/><path class="cls-5" d="M105.2,4.33l17.31,12.84a6.48,6.48,0,0,1-3.85,5.66L102.09,12.7Z" transform="translate(5.76 5.76)"/><path class="cls-39" d="M145.52,24l1.87-3.85a5,5,0,0,0-4.3-2.77l-1.75,2.43Z" transform="translate(5.76 5.76)"/><path class="cls-39" d="M124.48,18.4l.34-4.3a5.21,5.21,0,0,1,5.15-.22l.28,3Z" transform="translate(5.76 5.76)"/><path class="cls-39" d="M121.09,24.23c.11.79-.57,1.19-1.08,1.53a3.19,3.19,0,0,1-1.75.39,2,2,0,0,1-1.76-1.07,2.07,2.07,0,0,1,.46-2.43,1.69,1.69,0,0,1,2.43,1.13c.11.85-.74,1.47-1.36,1.81a8.39,8.39,0,0,1-1.47.62c-.06,0-.06,0-.06-.06a.05.05,0,0,1,.06,0,4.82,4.82,0,0,0,.68-.4,5.08,5.08,0,0,0,1.24-1,1,1,0,0,0,.34-.62c.06-.4-.45-.68-.73-.79a.89.89,0,0,0-.68,0c-.34.17-.34.73-.23,1.07.29.68,1.25.74,1.87.62a2.42,2.42,0,0,0,.62-.22c.34-.17.57-.51.91-.63a1.4,1.4,0,0,1,.51-.05.07.07,0,0,0,0,.11Z" transform="translate(5.76 5.76)"/><path class="cls-39" d="M119.33,23.89c.12.85-.73,1.47-1.36,1.81a8.08,8.08,0,0,1-1.47.62s0,0,0-.05,0-.06,0-.06a3.66,3.66,0,0,0,.68-.4,5,5,0,0,0,1.25-1,1,1,0,0,0,.34-.62" transform="translate(5.76 5.76)"/><path class="cls-40" d="M140.55,37.58c-1,.79-1.14,2.72-1.19,4.7a.72.72,0,0,1-1.42-.17l-2.43-3.74" transform="translate(5.76 5.76)"/><path class="cls-39" d="M146.43,26.55A10,10,0,0,0,139,18.63L132.29,17a10,10,0,0,0-12.17,7.35h0a10.07,10.07,0,0,0,7.3,12.22l6.68,1.64a10,10,0,0,0,12.16-7.35h0A8.62,8.62,0,0,0,146.43,26.55Z" transform="translate(5.76 5.76)"/><path class="cls-40" d="M127.42,36.51l6.68,1.64a10,10,0,0,0,12.16-7.36h0a9.83,9.83,0,0,0,.11-4.24c-.39,1.36-2,6.73-6.73,8.65-2.15.85-4.13.68-7.18.29a35.31,35.31,0,0,1-11-3.17A10,10,0,0,0,127.42,36.51Z" transform="translate(5.76 5.76)"/><path class="cls-41" d="M133.66,37.26a19.44,19.44,0,0,1-6.61-1.88" transform="translate(5.76 5.76)"/><line class="cls-42" x1="146.02" y1="40.29" x2="144.04" y2="36.89"/><line class="cls-42" x1="146.76" y1="37.69" x2="143.31" y2="39.5"/><path class="cls-40" d="M138.45,36.68c-1,.79-1.13,2.71-1.19,4.69a.72.72,0,0,1-1.41-.17l-2.32-4.58" transform="translate(5.76 5.76)"/><path class="cls-40" d="M145.52,32.55l3.17.73a5.12,5.12,0,0,0,1.13-5.43L146.48,27" transform="translate(5.76 5.76)"/><path class="cls-43" d="M148.18,29.6c-.05-1,1.08-2,1.76-1.69.5.22.73,1.47.39,2.94a3.27,3.27,0,0,1-1.64,2.49c-.45.11-1-1-.9-1.93" transform="translate(5.76 5.76)"/><path class="cls-38" d="M119.68,23.67l2.49.23,4.53-1.41,4.86-.68c1-.06,1,.39-.05,1.41a6.34,6.34,0,0,1-3.91,1.42l8.09,2.48a1,1,0,0,1,.62,1,.78.78,0,0,1-.73.63c-2.15-.34-4.3-.63-6.39-1l7.35,1.81a.91.91,0,0,1,.28,1.08.75.75,0,0,1-.73.45c-2.49-.45-5-.9-7.47-1.41l6.51,2.09a.92.92,0,0,1,.73,1.19.94.94,0,0,1-1.3.39c-2.32-.68-4.58-1.41-6.9-2.09l5.15,2.21A.79.79,0,0,1,133,34.7a.84.84,0,0,1-1.07.12c-3.17-1.42-6.28-2.83-9.45-4.24l-5.26-2.95Z" transform="translate(5.76 5.76)"/><path class="cls-5" d="M98.7,13.21l22.79,9.67a6.49,6.49,0,0,1-2,6.56L94.28,22.26Z" transform="translate(5.76 5.76)"/></g><ellipse class="cls-44" cx="148.06" cy="30.93" rx="0.91" ry="0.23" transform="translate(92.3 174.88) rotate(-77.8)"/><ellipse class="cls-44" cx="148.8" cy="30.86" rx="0.91" ry="0.23" transform="translate(92.95 175.54) rotate(-77.8)"/></g></g></g></g></g></svg>