<?xml version="1.0" encoding="utf-8"?>
<svg version="1.1" id="Layer_1" xmlns="http://www.w3.org/2000/svg" xmlns:xlink="http://www.w3.org/1999/xlink" x="0px" y="0px"
	 viewBox="0 0 106.8 107.6" style="enable-background:new 0 0 106.8 107.6;" xml:space="preserve">
<style type="text/css">
	.st0{fill:#556080;}
	.st1{fill:#A97C50;}
	.st2{fill:#997046;}
	.st3{fill:#D1A074;}
	.st4{fill:#C7CAC7;}
	.st5{opacity:0.86;}
	.st6{clip-path:url(#SVGID_00000121961585667004982500000009728736371672650654_);}
	.st7{fill:url(#SVGID_00000158007091415558401390000016413913726036774325_);}
	.st8{fill:#F8C7A3;}
	.st9{fill:#40485B;}
	.st10{fill:#2B303D;}
	.st11{fill:#858585;}
	.st12{fill:#5E5E5E;}
	.st13{fill:#FFFFFF;}
	.st14{fill:#D1AB75;}
	.st15{fill:#FBAB42;}
	.st16{fill:#D84DA0;}
	.st17{fill:#E3B696;}
	.st18{fill:#412A74;}
	.st19{fill:none;stroke:#2E3192;stroke-linecap:round;stroke-miterlimit:10;}
	.st20{fill:#C1272D;}
	.st21{fill:#A3D68D;}
	.st22{fill:#F4CBA8;}
	.st23{fill:#96B489;}
	.st24{fill:#BF4747;}
	.st25{fill:#FF5F5F;}
	.st26{fill:#FCFFBA;}
	.st27{opacity:0.22;fill:none;stroke:#1B1464;stroke-width:2;stroke-miterlimit:10;enable-background:new    ;}
	.st28{fill:#31AB94;}
	.st29{fill:#AFD9D1;}
</style>
<symbol  id="symbol-briefcase" viewBox="-12.3 -10.9 24.6 21.8">
	<path class="st0" d="M4.2-3.8c-0.6,0-1-0.4-1-1V-9l-6.5,0.1l0.1,4.1c0,0.6-0.4,1-1,1s-1-0.4-1-1V-9c0-1.1,0.9-1.9,1.9-1.9h6.6
		c1.1,0,1.9,0.9,1.9,1.9v4.2C5.2-4.3,4.8-3.8,4.2-3.8z"/>
	<path class="st1" d="M11.4,10.9h-22.9c-0.5,0-0.9-0.4-0.9-0.9c0,0,0,0,0,0V-5.2c0-0.5,0.4-0.9,0.9-0.9h22.9c0.5,0,0.9,0.4,0.9,0.9
		V10C12.3,10.5,11.9,10.9,11.4,10.9z"/>
	<path class="st2" d="M-8.9-6.1h-2.5c-0.5,0-0.9,0.4-0.9,0.9V10c0,0.5,0.4,0.9,0.8,0.9c0,0,0,0,0,0h2.5V-6.1z"/>
	<path class="st2" d="M11.4-6.1H8.9v17h2.5c0.5,0,0.9-0.4,0.9-0.9V-5.2C12.3-5.7,11.9-6.1,11.4-6.1z"/>
	<rect x="-9.3" y="-6.1" class="st3" width="0.9" height="17"/>
	<rect x="8.5" y="-6.1" class="st3" width="0.9" height="17"/>
	<rect x="-10.2" y="-7.4" class="st4" width="3.4" height="1.3"/>
	<rect x="6.6" y="-7.4" class="st4" width="3.4" height="1.3"/>
</symbol>
<g id="Layer_2_00000045607649337498878390000002604937928500926084_">
	<g id="MainLayer">
		<g id="stories" class="st5">
			<g id="maternitygroup">
				<g id="maternity5">
					<g>
						<defs>
							<circle id="SVGID_1_" cx="54.3" cy="54.5" r="50.8"/>
						</defs>
						<clipPath id="SVGID_00000032649678512273982360000006591418661259395727_">
							<use xlink:href="#SVGID_1_"  style="overflow:visible;"/>
						</clipPath>
						<g style="clip-path:url(#SVGID_00000032649678512273982360000006591418661259395727_);">
							<g id="mat1sub">
								
									<linearGradient id="SVGID_00000163049881498982087720000018322362323253162666_" gradientUnits="userSpaceOnUse" x1="52.9089" y1="61.2857" x2="50.9789" y2="196.2964" gradientTransform="matrix(1 0 0 -1 0 191.8553)">
									<stop  offset="0" style="stop-color:#EADC97"/>
									<stop  offset="0.11" style="stop-color:#EEE2A9"/>
									<stop  offset="0.37" style="stop-color:#F5EFCE"/>
									<stop  offset="0.62" style="stop-color:#FBF8E9"/>
									<stop  offset="0.83" style="stop-color:#FEFDF9"/>
									<stop  offset="1" style="stop-color:#FFFFFF"/>
								</linearGradient>
								
									<rect x="-23.2" y="-1.8" style="fill:url(#SVGID_00000163049881498982087720000018322362323253162666_);" width="150.3" height="132.9"/>
								<polygon class="st8" points="67.9,70.4 75.5,57.4 78.6,65.1 71.7,74.6 								"/>
								<path class="st8" d="M45.9,60.3c-2.5,3.3-0.7,6.7,2.8,22.6c0.5,2.1,1.4,4.2,2.8,5.9c2.7,4,9.2,2.4,9.9-2.5
									c-1.9-9.1-4.8-18-8.6-26.5c-0.6-1.1-1.7-1.8-2.9-2C47.9,57.7,46.4,59.7,45.9,60.3z"/>
								<path class="st8" d="M56.4,90.8c2.3,0.9,8.3-6.3,15.2-15.4c3-4.8-2.7-6.3-5.1-8.1C64,70.8,45,91.3,56.4,90.8z"/>
								<path class="st9" d="M73.6,70.8l-8.9,0.7c-0.3,0-0.5-0.1-0.7-0.3l0,0c-0.2-0.2-0.2-0.5-0.1-0.7l5.1-14
									c0.1-0.3,0.4-0.5,0.7-0.5l7.6,0.1c0.2,0,0.4,0.1,0.6,0.2l0.3,0.3c0.2,0.2,0.3,0.5,0.2,0.8l-4.1,13
									C74.2,70.6,73.9,70.8,73.6,70.8z"/>
								<path class="st10" d="M73.1,71.5h-7.3c-0.6,0-1.1-0.5-1.1-1.1c0-0.1,0-0.2,0.1-0.3l4.6-12.7c0.2-0.4,0.6-0.7,1-0.7h7.3
									c0.6,0,1.1,0.5,1.1,1.1c0,0.1,0,0.2-0.1,0.4l-4.6,12.7C74,71.2,73.6,71.5,73.1,71.5z"/>
								
									<ellipse transform="matrix(0.5822 -0.8131 0.8131 0.5822 -17.9377 81.7815)" class="st11" cx="70.6" cy="58.3" rx="1" ry="0.7"/>
								
									<ellipse transform="matrix(0.582 -0.8132 0.8132 0.582 -17.7026 82.0208)" class="st12" cx="70.9" cy="58.2" rx="0.6" ry="0.4"/>
								
									<ellipse transform="matrix(0.582 -0.8132 0.8132 0.582 -17.7026 82.0208)" class="st13" cx="70.9" cy="58.2" rx="0.4" ry="0.3"/>
								<path class="st8" d="M73.4,72.2c2.3-1.6,4.6-3.2,5.7-5.5l1.4-5.3c-0.3-1.2-1.2-2.2-2.3-2.8c-0.9-0.3-2.3-0.3-2.6,0.2
									c0,0.1,0,0.2,0,0.3c0.2,0.5,1.6,0.2,2.4,0.9c0.4,0.4,0.5,0.9,0.5,1.4c-0.3,0.3-0.6,0.6-1,0.8c-0.8-0.4-1.7-0.6-2.6-0.6
									c-1.8,0-3.7,0.8-3.6,1.3c0,0.1,0,0.1,0.1,0.2c0.7,0.7,3-0.1,3.4-0.2l2.5,0.7c-0.8-0.2-1.6-0.3-2.5-0.3
									c-1.6,0.1-3.5,0.7-3.4,1.2c0,0,0,0.1,0,0.1c0.4,0.6,3,0.2,3.7,0.1l2,0.3c-0.9-0.1-1.8,0-2.7,0.2c-1.1,0.3-1.2,0.6-1.2,0.7
									c0,0.1,0,0.2,0.1,0.2c0.3,0.3,1,0.1,2.1-0.1c0.6-0.1,1.2-0.1,1.7-0.1C77.2,67.3,75.2,69.8,73.4,72.2z"/>
								<path class="st14" d="M31,22.4c-2.7,1.1-5,3-6.6,5.5c-2.2,3.7-1.2,6.9-2.4,13.2c-0.7,4-3.5,6.5-4.4,8.7
									c4.8,12.6,30.8,14.2,35.6,1.1c-0.2-6.1,0.7-10.6,0.1-14.3c-1.6-9.8-3.2-12-4.5-13.3c-2.5-2.5-5.8-3.9-9.3-4
									C36.4,19.3,33.4,20.4,31,22.4z"/>
								<path class="st8" d="M37.6,108.2l-7.1,46.1c-0.1,4.2-0.3,7.6-0.5,9.8c-1.4,17-4.2,17-3.2,24.4c0.2,1.7,0.8,4.4-0.8,5.9
									c-1.7,1.6-5,0.9-5.6,0.7c-1.1-0.1-2.1-0.7-2.8-1.5c-1-1.5-0.2-3.7,0-4.4c1.8-5.5-0.4-9.5-0.4-28.3c0-2.6,0.2-5.3,0.5-7.9
									l2.1-50.4L37.6,108.2z"/>
								<path class="st8" d="M46.2,108.3l6.7,47.6l-0.2,38.3c-5.1,2.4-0.9,2.9-8.5,1.2c0.4-1.5,0.6-3,0.8-4.4
									c1-9.7-3.1-14.9-4.6-26.4c-0.4-2.8-0.5-5.7-0.4-8.6l-10.5-48.4L46.2,108.3z"/>
								<path class="st15" d="M18.2,58.5c2.9-1.3,5.9-2.2,9-2.9c6.8-1.5,14-0.9,20.5,1.7c0.9,0.4,2.1,0.4,3,0.9
									c-0.3,2.1-0.5,4.1-0.5,6.2c-0.1,1.6,0,3.2,0.3,4.7c0.8,3.5,2,3.7,2.3,6.6c0.2,1.9-0.2,4.6-1.6,5.3c-0.6,0.2-1.1,0.6-1.5,1
									c-0.3,0.3-0.5,0.6-0.7,1c-0.3,0.6-0.6,1.3-0.7,1.9c-0.7,3,0.3,4.4,1.2,10.3c0.5,3,0.5,16.1,0.5,17.7
									c-4.8,1.7-9.9,2.5-15.1,2.4c-5.4,0-10.7-2.8-16.8-4.8L18.2,58.5z"/>
								<path class="st8" d="M39,67.3c-1.3,0.2-2.3-0.8-5.2-3.3c-6.3-5.5-8.6-7.3-8-8.1c0.1-0.2,0.5-0.4,1.3-0.3
									c6.8-1.5,14-0.9,20.5,1.7c-2.1,1.8-3.9,3.9-5.3,6.2C40.8,65.6,40.3,67,39,67.3z"/>
								<path class="st16" d="M49.6,82c-2,0.8-4.1,1.2-6.3,1.3c-8.8,0.9-17.6-0.7-25.5-4.7l0.1,6.3c8.6,2.1,18.6,4.3,26.8,2.9
									c1.5-0.2,2.2-0.2,3.6-0.5L49.6,82z"/>
								<path class="st8" d="M29.2,45.4l-0.2,11c1.3,1.5,3,3.1,7.3,5.2c1.3,0.8,2,0.4,2.4-0.6v-9.7L29.2,45.4z"/>
								<path class="st17" d="M38.7,56.8c-4.5-3.4-8.1-6.8-8.6-10.1l8.6,5.7V56.8z"/>
								<path class="st8" d="M48.9,29.8c5.9,6.2,1,21.1-7.1,22.6c-4.3,0.8-9.1-2.3-12.6-7l2.4-16.4C38.2,25.7,45.4,26.1,48.9,29.8z"
									/>
								<ellipse class="st18" cx="38.2" cy="38.2" rx="1.2" ry="1.6"/>
								<ellipse class="st18" cx="46.3" cy="37.8" rx="1.2" ry="1.6"/>
								<path class="st18" d="M47,37.2c0.6-0.1,1.2-0.3,1.6-0.8c-0.5,0.4-1.2,0.4-1.8,0.2L47,37.2z"/>
								<path class="st18" d="M37.3,38.2c-0.6-0.1-1.2-0.3-1.6-0.8c0.5,0.4,1.2,0.5,1.8,0.2L37.3,38.2z"/>
								<polygon class="st17" points="41.7,43.3 44.8,43.1 43.4,36.8 43.2,36.8 43.9,42.5 41.8,43.2 								"/>
								<polygon class="st18" points="44,42.6 43.2,36.6 43,36.6 43.6,42.6 								"/>
								<path class="st19" d="M48.1,34.3c-0.8-0.4-1.8-0.4-2.5,0.1"/>
								<path class="st8" d="M31.3,39.1c-0.8-2.2-3.4-3.9-4.5-3.3s-1.2,4.2,0.5,6.5c0.1,0.2,1.7,2.2,2.9,1.8S32,41,31.3,39.1z"/>
								<path class="st17" d="M27.5,36.6c1.2-0.2,2.6,4.1,2.6,4.1l0,0c-0.1,0-0.9-0.4-1.1-0.2c-0.1,0.1-0.1,0.1-0.1,0.2
									c0-0.1,0-0.3,0.1-0.3c0.3-0.2,1,0.1,1.1,0.3c-0.2-0.4-1.4-3.5-2.4-3.7c-0.4,0-0.8,0.3-0.8,0.2S27.2,36.6,27.5,36.6z"/>
								<path class="st19" d="M39.3,34.5c-0.8-0.4-1.8-0.4-2.5,0.1"/>
								<path class="st15" d="M49.6,103.9c1.5,19,5.9,38.4,4.8,54.4c-12.7,3.4-25.5,2.9-38.5-0.8l2.3-47.1L49.6,103.9z"/>
								<path class="st14" d="M40.6,23c0.2,1.2,0.5,2.4,0.7,3.5l-0.2,0.4c-0.9,2-2.3,3.7-4,5c-1.3,0.9-2.6,1.5-4.8,3.2
									c-0.8,0.6-1.6,1.3-2.3,2v-8.5L40.6,23z"/>
								<path class="st14" d="M41.5,26.6c0.5,3-5.6,7.2-9.6,9.9c3.7-2.9,9.2-7.4,9-10.3L41.5,26.6z"/>
								<path class="st14" d="M41.4,26.5c2.8-1.2,8.6,3.6,9.4,8c-3.1-6.2-6.8-8.2-9.6-7.3L41.4,26.5z"/>
								<path class="st20" d="M28.4,35.9c0.3-1.7,0.9-3.3,1.7-4.8c0.5-1,4.2-7.8,10.4-8.2c1.4-0.1,2.7,0.1,4,0.5
									c1.6,0.6,3.1,1.5,4.4,2.7c1.3,1.3,2.4,2.8,3.2,4.4c0,0.1,0.1,0.1,0.1,0.2c0,0.1,0,0.1,0.1,0.2c-1.2-1.8-2.7-3.3-4.6-4.4
									c-0.5-0.3-4-2.4-7.5-1.9c-4.8,0.6-9,5.7-10,12.7L28.4,35.9z"/>
								<path class="st21" d="M22.2,89.3c-0.8-5.4,4.7-9.8,6.2-10.9c3.4-2.7,4.6-1.7,9.7-5c4.7-3.1,4.5-4.4,7.5-5.5
									c3.9-1.4,9.9-1,12.5,2.7s0.5,8.8-0.6,11.7c-3.8,9.4-12.9,13-14.7,13.7c-3.4,1.4-8.2,3.3-13.2,1.3
									C28.9,96.9,23,94.5,22.2,89.3z"/>
								<path class="st22" d="M53.5,64.5c-1.4-0.5-2.8-0.5-4.2,0c-2.2,1-3.7,3.1-3.9,5.5c0,0.2-0.4,4.2,2.7,6.2
									c2.5,1.6,5.7,1.3,7.9-0.7c2.3-2.2,2.8-5.6,1.2-8.3C56.4,65.9,55.1,64.9,53.5,64.5z"/>
								<path class="st23" d="M55.7,62.2c0.2-0.2,0.5-0.3,0.8-0.2c0.4,0.1,0.6,0.5,0.6,0.9c0.5-0.1,0.9,0.2,1.1,0.6
									c0.1,0.3,0,0.7-0.3,0.9c0.3,0.3,0.4,0.7,0.2,1.1c-0.2,0.2-0.5,0.3-0.8,0.2c0,0.4-0.3,0.7-0.7,0.8c-0.3,0-0.5-0.1-0.7-0.3
									c-0.3,0.4-1,0.5-1.4,0.1c-0.2-0.2-0.2-0.5-0.2-0.8c-0.3,0-0.5-0.2-0.6-0.5c-0.1-0.2,0-0.5,0.2-0.7c-0.3-0.2-0.4-0.6-0.3-0.9
									c0.1-0.3,0.3-0.5,0.5-0.6c-0.1-0.3,0-0.5,0.2-0.7C54.5,61.8,55.2,61.8,55.7,62.2z"/>
								<path class="st22" d="M57.7,71.8c0.9,0.2,1.4,1.1,1.2,2c-0.3,0.7-1.1,1.1-1.8,0.8c-0.2-0.1-0.4-0.2-0.5-0.4"/>
								<path class="st21" d="M47,66c4.5-0.1,8.2,2.7,11.3,6.2c0.2-0.4,0.3-0.7,0.4-1.2c0.1-0.5,0.2-1,0.2-1.5
									c0-0.6-0.1-1.2-0.3-1.8c-0.8-1.8-2.2-3.2-4-4c-0.6-0.3-3.5-1.4-5.7,0C48.1,64.4,47.5,65.2,47,66z"/>
								<path class="st23" d="M46.9,66c4.5-0.1,8.2,2.7,11.3,6.2c0.1-0.1,0.2-0.3,0.2-0.5C57.4,69.2,48.7,63.2,46.9,66z"/>
								<path class="st24" d="M48.2,72.2c0.2,0,0.4-0.1,0.8,0.3c0.5,0.4,1,0.7,1.7,0.7c0.6,0,0.6,0.3,0.8,0.5s0.2,1-0.2,1.4
									c-0.9,0.6-3.3-0.2-3.7-1.3C47.2,72.9,47.8,72.2,48.2,72.2z"/>
								<path class="st25" d="M48,72.2c0.3-0.1,0.6,0.1,0.8,0.3c0.5,0.4,1,0.7,1.7,0.7c0.6,0,0.6,0.3,0.8,0.4s0.2,1-0.2,1.4
									c-0.9,0.6-3.3-0.2-3.7-1.3C47,73,47.6,72.2,48,72.2z"/>
								<path class="st13" d="M49.9,75.2c-0.2,0.6-0.9,0.9-1.6,0.7c0,0,0,0,0,0c-0.6-0.3-0.9-1-0.7-1.6c0.2-0.6,1-0.9,1.6-0.7
									S50.2,74.6,49.9,75.2z M49.1,74c-0.4-0.2-0.9,0-1.1,0.5s0,0.9,0.5,1.1c0.4,0.2,0.9,0,1.1-0.5c0,0,0,0,0,0
									C49.7,74.7,49.5,74.2,49.1,74z"/>
								<circle class="st26" cx="49.2" cy="73.9" r="0.8"/>
								<path class="st17" d="M58.6,72.9c-0.4-0.2-1.3,1-1.3,1l0,0c0,0,0.3,0,0.4,0.1c0,0,0,0.1,0,0.1c0,0,0-0.1,0-0.1
									c0-0.1-0.3-0.1-0.4-0.1c0.1-0.1,0.9-1,1.2-0.9c0.1,0,0.2,0.2,0.2,0.2C58.7,73.1,58.7,73,58.6,72.9z"/>
								
									<ellipse transform="matrix(0.3611 -0.9325 0.9325 0.3611 -33.6716 89.0525)" class="st18" cx="48.2" cy="69.1" rx="0.9" ry="0.7"/>
								<path class="st18" d="M47.9,68.6c-0.3-0.1-0.5-0.4-0.7-0.8c0.2,0.3,0.6,0.5,1,0.5L47.9,68.6z"/>
								<path class="st19" d="M48.1,67.1c0.3-0.2,0.7-0.2,1,0"/>
								
									<ellipse transform="matrix(0.3611 -0.9325 0.9325 0.3611 -32.2896 94.9445)" class="st18" cx="53.1" cy="71" rx="0.9" ry="0.7"/>
								<path class="st18" d="M53.7,70.9c0.3,0.1,0.7,0,1-0.1c-0.4,0.1-0.8,0-1-0.3L53.7,70.9z"/>
								<path class="st19" d="M54.6,69.6c-0.1-0.3-0.4-0.6-0.8-0.7"/>
								<path class="st8" d="M18.6,58.7c-3.2,1.9-3,6.1-6.2,23.3c-0.4,2.3-0.4,4.8,0,7.1c0.6,5.3,6.2,7,8.6,2.7
									c1.9-9.9,2.9-19.9,3.1-30c-0.1-0.6-0.4-2.5-1.5-3.4C21.1,57.2,19.2,58.4,18.6,58.7z"/>
								<path class="st8" d="M19.1,87.2l21.4,0.5c0.8,0,1.6-0.2,2.3-0.6c0.1-1.1,0.6-2.2,1.3-3c1.1-1.2,2-0.8,3.7-2.3
									c1.2-1,1.8-2,2.3-1.9s0.5,0.8,0.5,0.8c0.1,1.2-1.5,2.5-1.7,2.6c-1,0.7-1.8,0.7-1.9,1.3c0,0.3,0.1,0.6,0.3,0.8
									c1.3,0,2.5-0.3,3.7-0.9c2.8-1.3,4.5-4,5.2-3.6c0.1,0.1,0.1,0.1,0.2,0.2c0.2,0.7-0.9,1.7-1.1,1.8c0.7-0.4,2.1-1.2,2.5-0.8
									c0,0,0,0.1,0,0.1c0.1,0.2-0.2,1-5,4.6c2-1.5,4.2-3,4.7-2.6c0.1,0.1,0.1,0.2,0.1,0.2c0,1.3-4.1,3.8-4.9,4.3
									c1.8-1,3.8-2.1,4.1-1.7c0,0.1,0,0.2,0,0.2c-1,2.4-4.9,4.1-4.9,4.1c-1.2,0.5-2.4,0.8-3.7,1c-1.8,0.3-3.7,0.2-5.5-0.2
									c-4.7,2.4-9.9,3.7-15.2,3.8c-4.2,0.1-8.3-0.7-12.2-2.3L19.1,87.2z"/>
							</g>
						</g>
					</g>
					<circle class="st27" cx="54" cy="54.5" r="50.8"/>
					<g id="maternity5-2">
						<path class="st28" d="M79.2,49.9l-13.8,0.1l-3.9,4.6l-2.1,0.1l1.9-22.9c0-1.6,1.3-3,2.9-3l14.3-0.1c1.6,0,3,1.3,3,2.9
							l0.1,15.7C81.8,48.8,80.7,49.9,79.2,49.9C79.3,49.9,79.3,49.9,79.2,49.9z"/>
						<path class="st29" d="M77.2,50.1l-13.8,0.1l-3.9,4.6v-4.5L59.3,32c0-1.6,1.3-3,2.9-3l14.3-0.1c1.6,0,3,1.3,3,2.9l0.1,15.7
							C79.7,48.9,78.6,50,77.2,50.1C77.2,50.1,77.2,50.1,77.2,50.1z"/>
						<g>
							<defs>
								<rect id="SVGID_00000017474829211492413540000017678288469244668037_" x="62.6" y="33" width="13.8" height="12.2"/>
							</defs>
							<clipPath id="SVGID_00000027597164344657802440000002550578191456197513_">
								<use xlink:href="#SVGID_00000017474829211492413540000017678288469244668037_"  style="overflow:visible;"/>
							</clipPath>
							<g style="clip-path:url(#SVGID_00000027597164344657802440000002550578191456197513_);">
								
									<use xlink:href="#symbol-briefcase"  width="24.6" height="21.8" x="-12.3" y="-10.9" transform="matrix(0.56 0 0 0.56 69.4413 39.1364)" style="overflow:visible;"/>
							</g>
						</g>
					</g>
				</g>
			</g>
		</g>
	</g>
</g>
</svg>
