<svg xmlns="http://www.w3.org/2000/svg" xmlns:xlink="http://www.w3.org/1999/xlink" viewBox="0 0 147.3 117.56"><defs><style>.cls-1,.cls-11,.cls-18{fill:none;}.cls-2{opacity:0.86;}.cls-3{clip-path:url(#clip-path);}.cls-4{fill:url(#linear-gradient);}.cls-5{fill:#d1ab75;}.cls-6{fill:#f8c7a3;}.cls-7{fill:#fbab42;}.cls-8{fill:#d84da0;}.cls-9{fill:#e3b696;}.cls-10{fill:#412a74;}.cls-11{stroke:#2e3192;stroke-linecap:round;}.cls-11,.cls-18{stroke-miterlimit:10;}.cls-12{fill:#c1272d;}.cls-13{fill:#625a73;}.cls-14{fill:url(#linear-gradient-2);}.cls-15{fill:#ccc;}.cls-16{fill:#5e5e5e;}.cls-17,.cls-20,.cls-26,.cls-27,.cls-28{fill:#fff;}.cls-18{stroke:#1b1464;stroke-width:2px;opacity:0.22;}.cls-19{fill:url(#linear-gradient-3);}.cls-20{font-size:6.68px;}.cls-20,.cls-27,.cls-28{font-family:ArialRoundedMTBold, Arial Rounded MT Bold;}.cls-21{letter-spacing:-0.03em;}.cls-22{letter-spacing:-0.12em;}.cls-23{font-size:7.15px;}.cls-23,.cls-26{font-family:Arial-BoldMT, Arial;font-weight:700;}.cls-24{letter-spacing:-0.04em;}.cls-25{fill:#00703c;}.cls-26{font-size:4.79px;}.cls-27{font-size:1.87px;}.cls-28{font-size:2.13px;}</style><clipPath id="clip-path"><circle class="cls-1" cx="95.66" cy="57.42" r="50.64"/></clipPath><linearGradient id="linear-gradient" x1="95.66" y1="108.06" x2="95.66" y2="6.77" gradientUnits="userSpaceOnUse"><stop offset="0" stop-color="#eadc97"/><stop offset="0.11" stop-color="#eee2a9"/><stop offset="0.37" stop-color="#f5efce"/><stop offset="0.62" stop-color="#fbf8e9"/><stop offset="0.83" stop-color="#fefdf9"/><stop offset="1" stop-color="#fff"/></linearGradient><linearGradient id="linear-gradient-2" x1="-847.43" y1="69.18" x2="-847.43" y2="97.2" gradientTransform="matrix(1, 0, 0.73, 1, 862.8, 0)" gradientUnits="userSpaceOnUse"><stop offset="0.43" stop-color="#7e7494"/><stop offset="1" stop-color="#625a73"/></linearGradient><linearGradient id="linear-gradient-3" x1="0" y1="2.14" x2="71.89" y2="2.14" gradientTransform="matrix(1, 0, 0, 1, 0, 0)" xlink:href="#linear-gradient-2"/></defs><g id="Layer_2" data-name="Layer 2"><g id="MainLayer"><g id="stories" class="cls-2"><g id="maternitygroup"><g id="maternity2"><g class="cls-3"><circle class="cls-4" cx="95.66" cy="57.42" r="50.64"/><path class="cls-5" d="M98.21,15.18a16.25,16.25,0,0,1,9.18,4.13c3.65,3.5,3.54,7.37,6.84,14.15,2.07,4.26,6,6.33,7.69,8.44C120.37,57.71,91.5,67.5,82,54.3c-1.67-7-4.07-11.77-4.55-16.16-1.26-11.56-.1-14.58,1-16.44a15.12,15.12,0,0,1,19.84-6.52Z"/><path class="cls-6" d="M89,60.29c3.42,3.95,1.45,8.49-1.56,29.12a19.1,19.1,0,0,1-3,7.79,6.85,6.85,0,0,1-12.63-2A172,172,0,0,1,80.4,60.46c.36-.64,1.54-2.58,3.52-2.88C86.36,57.22,88.41,59.58,89,60.29Z"/><path class="cls-6" d="M80.31,101.19c-4.7,2-7.61-.86-23.35-8.64a12.83,12.83,0,0,1-2.73-1.77c-1.15-1-.64-3.47-.27-4.31,1.76-4,.74-3,3.74-6,8.53,4,18,6.47,26.1,13.12a4.17,4.17,0,0,1,.89,3.79C84,99.64,81.15,100.83,80.31,101.19Z"/><path class="cls-7" d="M120.62,58.41a49.33,49.33,0,0,0-10.56-4A35.1,35.1,0,0,0,86,56.69c-1.1.52-2.41.56-3.49,1.19A57.78,57.78,0,0,1,82.72,73c-.85,5.81-2.27,8.18-1.4,12.72.62,3.24,1.62,2.4,2.51,3A3.34,3.34,0,0,1,85,91.14c.33,3.11-4.51,4.73-5.84,9.49-.62,2.22-.84,6.47,1.39,8.62.42.4,2.92,2.64,2.67,3.12,0,0-.1.23-.25.51a2.81,2.81,0,0,0-.15.37,4.31,4.31,0,0,0-.18,1.2c3.42,1.68,9.5,2.44,17.48,2.38,6.32,0,13.13.49,20.3-2.19Z"/><path class="cls-6" d="M96.2,70.6c1.49.3,2.72-1.07,6.1-4.58,7.37-7.64,10.13-10.07,9.43-11.19-.17-.26-.56-.52-1.57-.48a35.13,35.13,0,0,0-24,2.29,41.22,41.22,0,0,1,6.27,8.62C94,68.3,94.59,70.28,96.2,70.6Z"/><path class="cls-8" d="M78.73,104.79c.84,11.57,26.56,12.29,42,6.08l.37,4.52c-15.24,4.1-43.75,2.6-42.72-6.11Z"/><path class="cls-6" d="M120.08,57.46c4.83,2,5.1,6.94,11.63,26.73a19.08,19.08,0,0,1,.82,8.3,6.85,6.85,0,0,1-12.21,3.82,172.08,172.08,0,0,1-7.88-34.85c0-.73.22-3,1.86-4.14C116.32,55.9,119.21,57.1,120.08,57.46Z"/><path class="cls-6" d="M107.35,40.24c1,4,1.77,8.79,1,13.32-1.57,1.8-4.71,2.74-9.82,5.19-1.57,1-2.38.51-2.8-.68V46.71Z"/><path class="cls-9" d="M95.77,53.18c5-1.21,9.74-3.64,10.63-10L95.77,48Z"/><path class="cls-6" d="M80.31,29.08c-4.78,8.84,5.48,24.15,15,23.32,5.06-.45,9.61-5.41,12-11.83L99.56,22.78C91.11,21.16,83.15,23.83,80.31,29.08Z"/><ellipse class="cls-10" cx="95.01" cy="35.34" rx="1.36" ry="1.87" transform="translate(-5.97 26.46) rotate(-15.38)"/><ellipse class="cls-10" cx="85.77" cy="37.39" rx="1.36" ry="1.87" transform="translate(-6.85 24.09) rotate(-15.38)"/><path class="cls-10" d="M84.73,36.94a2.88,2.88,0,0,1-2-.39,2.19,2.19,0,0,0,2.13-.36Z"/><path class="cls-10" d="M96,34.92c.55-.1,1-.68,1.53-1.38a2.19,2.19,0,0,1-2,.78Z"/><polygon class="cls-9" points="92.62 42.18 89.13 42.94 88.74 35.3 88.9 35.32 89.92 41.91 92.53 42.06 92.62 42.18"/><polygon class="cls-10" points="89.81 42.06 88.83 35.07 89.04 35.03 90.23 41.95 89.81 42.06"/><path class="cls-11" d="M82.59,34a3,3,0,0,1,2.89-.71"/><path class="cls-6" d="M103.09,34.14c.2-2.78,2.57-5.49,4.07-5.17,1.67.35,2.63,4.45,1.49,7.46-.09.22-1.19,3-2.74,3S102.91,36.57,103.09,34.14Z"/><path class="cls-9" d="M106.57,30.16c-1.43.16-1.71,5.42-1.67,5.44l0,0c.09-.06.85-.76,1.26-.53.11.06.19.2.21.19a.54.54,0,0,0-.26-.36c-.38-.19-1,.47-1.2.66.15-.53.5-4.39,1.61-4.9.39-.17,1,.09,1,0S107,30.11,106.57,30.16Z"/><path class="cls-11" d="M92.59,31.47a3,3,0,0,1,2.88-.71"/><path class="cls-5" d="M87.6,18.81c.11,1.4.22,2.81.32,4.21.11.14.23.27.34.39a14.79,14.79,0,0,0,6.06,4.39c1.77.65,3.4.85,6.44,2.07A27,27,0,0,1,104,31.44l-2.64-9.57Z"/><path class="cls-5" d="M87.6,23.18c.34,3.54,8.61,6.43,13.93,8.24-5.06-2.14-12.75-5.49-13.41-8.88Z"/><path class="cls-5" d="M87.74,23c-3.52-.5-8.64,6.73-8.11,11.93,1.55-7.91,5.16-11.42,8.61-11.28Z"/><path class="cls-12" d="M105.38,29.59a20.5,20.5,0,0,0-3.4-4.94c-.92-1-7.23-7.52-14.33-6.08a12.66,12.66,0,0,0-4.34,1.84,14,14,0,0,0-4.12,4.44,23.18,23.18,0,0,0-2.3,5.94.57.57,0,0,0,0,.26v.27a16.42,16.42,0,0,1,3.78-6.43c.51-.53,3.83-3.93,7.88-4.52,5.51-.8,11.95,3.68,15.25,11.24Z"/><path class="cls-13" d="M97.13,97.52,67,95.51a4.64,4.64,0,0,1-4-2.93L52.74,71.45c-.59-1.62,2.46-4,4.08-4H89a4.64,4.64,0,0,1,4,2.92l8.06,22.17C101.66,94.2,98.75,97.52,97.13,97.52Z"/><path class="cls-14" d="M97.12,97.2H64.93a4.61,4.61,0,0,1-4-2.93L52.87,72.1c-.59-1.61.24-2.92,1.86-2.92H86.92a4.64,4.64,0,0,1,4,2.92L99,94.27C99.57,95.89,98.74,97.2,97.12,97.2Z"/><ellipse class="cls-15" cx="57.58" cy="73.31" rx="1.84" ry="2.44" transform="translate(-31.91 47.21) rotate(-35.59)"/><ellipse class="cls-16" cx="57.62" cy="73.23" rx="1.1" ry="1.46" transform="matrix(0.81, -0.58, 0.58, 0.81, -31.86, 47.22)"/><ellipse class="cls-17" cx="57.62" cy="73.23" rx="0.82" ry="1.09" transform="translate(-31.86 47.22) rotate(-35.59)"/><path class="cls-6" d="M126.27,98.6c-4.2,2.89-7.63.69-24.6-3.78a12.88,12.88,0,0,1-3-1.19c-1.33-.73-3.15-1.32-3-2.22.93-4.23.84-4.27,3.19-7.77,9.16,2.19,20,2,29.3,6.86A4.15,4.15,0,0,1,129.81,94C129.54,96.34,127,98.08,126.27,98.6Z"/></g><circle class="cls-1" cx="95.66" cy="57.42" r="50.64"/><circle class="cls-18" cx="95.66" cy="57.42" r="50.64"/><polygon class="cls-17" points="0 40.63 64.93 40.63 71.87 47.53 71.79 40.63 71.79 0.03 0 0.03 0 40.63"/><rect class="cls-19" width="71.89" height="4.29"/><rect y="4.31" width="71.89" height="11.21"/><path class="cls-17" d="M7.53,5.8l.28.87h0l-.07.07h0l-.69-.21v1l.69-.37h0l.07.08-.4,1.2h0a.63.63,0,0,0,0,.19.65.65,0,0,0,.55.64h.19a.65.65,0,0,0,.55-.64.63.63,0,0,0,0-.19h0l-.4-1.2a.6.6,0,0,0,.08-.08h0L9,7.55v-1l-.69.21h0l-.07-.07h0l.28-.87h-1ZM5,7.11a.55.55,0,0,0-.5.34.55.55,0,0,0,1,.42.55.55,0,0,0-.3-.72A.52.52,0,0,0,5,7.11Zm6,0a.52.52,0,0,0-.21,0,.56.56,0,0,0-.3.72.55.55,0,0,0,1-.42A.55.55,0,0,0,11,7.11Zm-4.6.44a.55.55,0,0,0-.51.34.55.55,0,0,0,.3.71.55.55,0,1,0,.42-1A.52.52,0,0,0,6.43,7.55Zm3.22,0a.52.52,0,0,0-.21,0,.55.55,0,1,0,.71.3A.55.55,0,0,0,9.65,7.55ZM3.8,7.84a.55.55,0,0,0-.21,1.05.55.55,0,0,0,.72-.3A.54.54,0,0,0,4,7.88.52.52,0,0,0,3.8,7.84Zm8.48,0a.57.57,0,0,0-.22,0,.55.55,0,0,0,.42,1,.55.55,0,0,0-.2-1.05ZM3.44,9.22a.55.55,0,0,0-.51.34.55.55,0,0,0,.3.71.55.55,0,1,0,.42-1A.52.52,0,0,0,3.44,9.22Zm9.2,0a.52.52,0,0,0-.21,0,.55.55,0,1,0,.42,1,.54.54,0,0,0,.29-.71A.55.55,0,0,0,12.64,9.22Zm-7.22.14A1.1,1.1,0,0,0,5.59,11c-.37-.2-.93,0-.6.69.18-.42.55-.33.63,0a.54.54,0,0,1-.45.62c-.27.05-.7-.14-1-.88a1.07,1.07,0,0,1,.59.25l-.37-1.2a1.42,1.42,0,0,1-.33.68,1.36,1.36,0,0,1,0-.8l-.75.27a7,7,0,0,1,1.1,2.62A25.93,25.93,0,0,1,8,13.06a26,26,0,0,1,3.67.25,7,7,0,0,1,1.09-2.62l-.74-.27a1.43,1.43,0,0,1,0,.8,1.52,1.52,0,0,1-.33-.68l-.36,1.2a1.07,1.07,0,0,1,.58-.25c-.34.74-.77.93-1,.88a.52.52,0,0,1-.44-.62c.07-.37.45-.46.62,0,.34-.68-.23-.89-.59-.69a1.11,1.11,0,0,0,.17-1.66A1.17,1.17,0,0,0,10.3,11c-.36-.42-.94-.19-.73.49.27-.41.62-.16.56.23s-.49.62-1.05.57c-.8-.07-.85-.62-.87-1.08.2,0,.55.14.85.57l.11-1.28a1.19,1.19,0,0,1-.95.42A3.88,3.88,0,0,1,8.83,10H7.24a3.82,3.82,0,0,1,.62.91,1.22,1.22,0,0,1-1-.42L7,11.77c.3-.43.66-.61.85-.57,0,.46-.06,1-.86,1.08-.56.05-1-.23-1.06-.57s.3-.64.56-.23c.21-.68-.36-.91-.73-.49a1.17,1.17,0,0,0-.35-1.63Z"/><text class="cls-20" transform="translate(23.09 12.06)">G<tspan class="cls-21" x="5.29" y="0">O</tspan><tspan class="cls-22" x="10.41" y="0">V</tspan><tspan x="14.17" y="0">.UK</tspan></text><text class="cls-23" transform="translate(1.03 22.61)">Maternity<tspan class="cls-24" x="31.77" y="0"> </tspan><tspan x="33.49" y="0">Allowance</tspan></text><rect class="cls-15" x="4.8" y="24.76" width="60.77" height="1.47"/><rect class="cls-15" x="15.12" y="27.14" width="38.83" height="1.47"/><rect class="cls-25" x="21.58" y="30.11" width="28.77" height="7.68"/><text class="cls-26" transform="translate(23.52 35.31)">Apply Now</text><rect class="cls-17" x="1.59" y="2.91" width="0.68" height="0.91"/><rect class="cls-17" x="2.51" y="2.23" width="0.68" height="1.59"/><rect class="cls-17" x="3.42" y="1.37" width="0.68" height="2.46"/><rect class="cls-17" x="4.34" y="0.64" width="0.68" height="3.19"/><path class="cls-17" d="M10.42,2.4a.15.15,0,0,1-.13,0,1.26,1.26,0,0,0-1.76,0,.18.18,0,0,1-.25-.25,1.59,1.59,0,0,1,2.26,0,.18.18,0,0,1,0,.25A.15.15,0,0,1,10.42,2.4Z"/><path class="cls-17" d="M9.93,2.89a.21.21,0,0,1-.13-.05.53.53,0,0,0-.78,0,.18.18,0,0,1-.26-.26.93.93,0,0,1,.65-.27,1,1,0,0,1,.65.27.19.19,0,0,1,0,.26A.21.21,0,0,1,9.93,2.89Z"/><circle class="cls-17" cx="9.41" cy="3.23" r="0.24"/><path class="cls-17" d="M10.91,1.91a.21.21,0,0,1-.13,0A1.93,1.93,0,0,0,8,1.86a.18.18,0,0,1-.26-.26A2.32,2.32,0,0,1,11,1.6a.19.19,0,0,1,0,.26A.24.24,0,0,1,10.91,1.91Z"/><path class="cls-17" d="M69.57,1.52h-.32V1.14A.15.15,0,0,0,69.1,1H65.59a.14.14,0,0,0-.14.14V3.05a.14.14,0,0,0,.14.14H69.1a.15.15,0,0,0,.15-.14V2.67h.32a.15.15,0,0,0,.14-.15V1.67A.15.15,0,0,0,69.57,1.52ZM69,2.91H65.73V1.28H69Zm.47-.53h-.18V1.81h.18Z"/><rect class="cls-17" x="65.87" y="1.44" width="2.58" height="1.3" rx="0.16"/><text class="cls-27" transform="translate(60.04 2.84)">87%</text><text class="cls-28" transform="translate(33.66 2.93)">11:55</text></g></g></g></g></g></svg>