<svg xmlns="http://www.w3.org/2000/svg" xmlns:xlink="http://www.w3.org/1999/xlink" viewBox="0 0 81.19 86.54"><defs><style>.cls-1{fill:#d59532;}.cls-2{fill:#faaf3b;}.cls-3{font-size:72.76px;font-family:Arial-BoldMT, Arial;font-weight:700;}.cls-14,.cls-3,.cls-6{fill:#fff;}.cls-4{fill:#298f7c;}.cls-5{fill:#31ab94;}.cls-7{opacity:0.86;}.cls-8{fill:url(#linear-gradient);}.cls-18,.cls-9{fill:none;}.cls-9{stroke:#1b1464;stroke-width:2px;opacity:0.22;}.cls-14,.cls-18,.cls-9{stroke-miterlimit:10;}.cls-10{fill:#f8c7a3;}.cls-11{fill:#524866;}.cls-12{fill:url(#linear-gradient-2);}.cls-13{fill:#00703c;}.cls-14{stroke:#ccc;}.cls-15{fill:#d14f4f;}.cls-16{fill:#ffd54a;}.cls-17{fill:#dbcdd6;opacity:0.44;}.cls-18{stroke:#c1272d;stroke-width:0.25px;}</style><linearGradient id="linear-gradient" x1="11.81" y1="71.48" x2="57.8" y2="13.19" gradientUnits="userSpaceOnUse"><stop offset="0" stop-color="#b7d5f4"/><stop offset="0.12" stop-color="#c0d6f6"/><stop offset="0.32" stop-color="#dadafa"/><stop offset="0.5" stop-color="#f8deff"/><stop offset="0.98" stop-color="#fff"/></linearGradient><linearGradient id="linear-gradient-2" x1="6.61" y1="33.9" x2="78.41" y2="33.9" gradientUnits="userSpaceOnUse"><stop offset="0.43" stop-color="#7e7494"/><stop offset="1" stop-color="#625a73"/></linearGradient><symbol id="raised-tick" data-name="raised-tick" viewBox="0 0 40.24 38.15"><path class="cls-4" d="M40.23,17.69c.7,23.58-36.76,23.58-36.76,0S40.93-5.9,40.23,17.69Z"/><path class="cls-5" d="M36.76,20.46C37.46,44.05,0,44.05,0,20.46S36.76-3.82,36.76,20.46Z"/><polygon class="cls-6" points="5.51 21.98 13.24 31.2 31.27 13.89 28.34 11.13 13.38 24.96 8.7 19.44 5.51 21.98"/></symbol><symbol id="hex-orange-pound" data-name="hex-orange-pound" viewBox="0 0 132.05 112.17"><polygon class="cls-1" points="101.86 106.56 91.86 112.14 30.27 5.92 40.13 0 101.18 0.79 132.05 54.07 101.86 106.56"/><polygon class="cls-2" points="91.92 112.17 30.87 111.39 0 58.11 30.18 5.62 91.24 6.4 122.11 59.68 91.92 112.17"/><use width="40.24" height="38.15" transform="translate(82.52 9.36)" xlink:href="#raised-tick"/><text class="cls-3" transform="translate(42.6 82.92)">£</text></symbol></defs><g id="Layer_2" data-name="Layer 2"><g id="MainLayer"><g id="stories" class="cls-7"><g id="maternitygroup"><g id="maternity4"><circle class="cls-8" cx="38.12" cy="38.12" r="37.12"/><circle class="cls-9" cx="38.12" cy="38.12" r="37.12"/><path class="cls-10" d="M1.44,43.86l11.7-15L9.61,51.43l-3.8,5A36.18,36.18,0,0,1,1.44,43.86Z"/><path class="cls-11" d="M65.94,54.82c-18.08-1-36.15-2.22-54.23-3.28C10,51.45,9,50.17,9.41,48.69Q13.87,33.84,18.34,19a4.6,4.6,0,0,1,4-2.84c18.79-1,37.57-2.21,56.37-3.2A2.21,2.21,0,0,1,81,16L70.12,51.76A4.46,4.46,0,0,1,65.94,54.82Z"/><path class="cls-12" d="M63.34,54.69c-18.08-1.06-36.15-2.24-54.23-3.28-1.74-.1-2.84-1.37-2.4-2.84l8.85-29.45a4.67,4.67,0,0,1,4.11-2.82c18.79-1,37.57-2.18,56.37-3.19a2.17,2.17,0,0,1,2.23,3.05Q72.84,33.91,67.43,51.65A4.4,4.4,0,0,1,63.34,54.69Z"/><path class="cls-6" d="M62.56,51.62c-17-.86-34-1.8-51-2.65q4.55-15.11,9.1-30.23c17.56-.8,35.12-1.75,52.68-2.58Q68,33.89,62.56,51.62Z"/><path d="M72.28,19.74c-17.52.66-35,1.42-52.54,2.06.37-1.23.55-1.84.92-3.06,17.57-.8,35.14-1.75,52.71-2.58C72.94,17.6,72.72,18.31,72.28,19.74Z"/><path class="cls-6" d="M22.84,19l0,.24h0l0,0h0l-.2-.05-.08.28.24-.11h0l0,0-.22.34h0s0,0,0,0a.13.13,0,0,0,.12.17h.06a.32.32,0,0,0,.23-.19v0h0l0-.33,0,0h0l.18.09.09-.28-.24.07h0v0h0l.16-.24h-.32Zm-.89.4a.24.24,0,0,0-.19.1.12.12,0,0,0,0,.19.27.27,0,0,0,.26-.09.12.12,0,0,0,0-.2S22,19.43,22,19.44Zm1.88-.08h-.07c-.1,0-.17.13-.15.2s.1.11.2.08a.23.23,0,0,0,.15-.2C24,19.39,23.9,19.36,23.83,19.36Zm-1.48.18a.26.26,0,0,0-.19.1c-.06.08,0,.16,0,.19a.23.23,0,0,0,.25-.09c.06-.08,0-.17,0-.19Zm1,0h-.07a.21.21,0,0,0-.15.2c0,.08.1.11.2.07a.21.21,0,0,0,.15-.2A.11.11,0,0,0,23.36,19.5Zm-1.87.15a.22.22,0,0,0-.18.1c-.06.08,0,.16,0,.19a.23.23,0,0,0,.25-.09c.06-.08.05-.16,0-.19Zm2.66-.11-.06,0a.21.21,0,0,0-.16.2c0,.07.1.11.2.07a.2.2,0,0,0,.15-.2C24.27,19.57,24.22,19.54,24.15,19.54ZM21.26,20a.32.32,0,0,0-.18.1c-.06.08,0,.17,0,.2a.27.27,0,0,0,.25-.09c.06-.08.05-.17,0-.2Zm2.89-.11h-.07a.23.23,0,0,0-.15.21c0,.07.1.1.2.07a.23.23,0,0,0,.15-.2C24.27,20,24.22,19.92,24.15,19.92Zm-2.27.13c-.19.17-.21.31-.08.45-.1-.05-.3,0-.25.2.09-.12.2-.1.2,0a.24.24,0,0,1-.2.18c-.09,0-.21,0-.26-.23a.27.27,0,0,1,.17.06l0-.32a.64.64,0,0,1-.16.19.37.37,0,0,1,.07-.22l-.26.08a1.32,1.32,0,0,1,.13.71A8.76,8.76,0,0,1,22.4,21a8.12,8.12,0,0,1,1.12,0,3,3,0,0,1,.56-.74l-.21-.06a.48.48,0,0,1-.06.22.26.26,0,0,1,0-.18l-.21.33a.48.48,0,0,1,.2-.07c-.17.21-.32.26-.4.25a.11.11,0,0,1-.09-.16c.06-.11.18-.14.2,0,.16-.19,0-.25-.13-.19.22-.16.29-.29.2-.46-.24.15-.28.28-.25.46-.08-.11-.28,0-.27.14.12-.12.21,0,.16.06a.43.43,0,0,1-.38.17c-.24,0-.21-.16-.18-.29a.23.23,0,0,1,.22.15l.14-.36a.58.58,0,0,1-.34.13,2.73,2.73,0,0,1,.27-.26h-.5a.57.57,0,0,1,.12.25.33.33,0,0,1-.27-.11c0,.14,0,.21-.07.35a.58.58,0,0,1,.32-.17.39.39,0,0,1-.36.31c-.18,0-.3,0-.29-.14s.15-.18.2-.07c.12-.19,0-.25-.19-.13.14-.18.18-.32,0-.44Z"/><path class="cls-6" d="M43.65,19.49l-.08.27a.19.19,0,0,1,0,.09l-.05.06L43.4,20a1.33,1.33,0,0,1-.26.11,1,1,0,0,1-.25.05.71.71,0,0,1-.26,0,.36.36,0,0,1-.16-.14.48.48,0,0,1-.07-.22.86.86,0,0,1,.05-.3,1.36,1.36,0,0,1,.13-.3,1.21,1.21,0,0,1,.21-.24.74.74,0,0,1,.26-.15.94.94,0,0,1,.3-.07.73.73,0,0,1,.22,0,.25.25,0,0,1,.13.09.24.24,0,0,1,.06.11.24.24,0,0,1,0,.12.18.18,0,0,1-.07.09.13.13,0,0,1-.1,0h-.05l0,0a.83.83,0,0,0,0-.12.23.23,0,0,0-.07-.07l-.14,0a.48.48,0,0,0-.17.05.39.39,0,0,0-.16.1.67.67,0,0,0-.12.16.78.78,0,0,0-.09.21.5.5,0,0,0,0,.38.26.26,0,0,0,.25.12l.18,0a1,1,0,0,0,.19-.08l.07-.23h-.21s-.08,0-.1,0,0,0,0-.08a.21.21,0,0,1,.06-.08.16.16,0,0,1,.09,0h.3a.26.26,0,0,1,.09,0,.06.06,0,0,1,0,.05A.12.12,0,0,1,43.65,19.49Z"/><path class="cls-6" d="M44.73,18.59a.49.49,0,0,1,.32.08.34.34,0,0,1,.15.24.9.9,0,0,1-.05.38,1,1,0,0,1-.13.3,1.12,1.12,0,0,1-.19.24.82.82,0,0,1-.25.16.64.64,0,0,1-.28.06A.53.53,0,0,1,44,20a.29.29,0,0,1-.15-.14.41.41,0,0,1-.06-.23,1.1,1.1,0,0,1,.05-.29,1.38,1.38,0,0,1,.14-.3,1.12,1.12,0,0,1,.19-.24,1,1,0,0,1,.24-.15A1,1,0,0,1,44.73,18.59Zm.16.71a.63.63,0,0,0,0-.26.2.2,0,0,0-.08-.17.23.23,0,0,0-.17-.05.42.42,0,0,0-.16,0,.71.71,0,0,0-.14.1.7.7,0,0,0-.13.16.85.85,0,0,0-.09.22,1,1,0,0,0,0,.21.35.35,0,0,0,0,.16.2.2,0,0,0,.09.09.28.28,0,0,0,.13,0,.54.54,0,0,0,.39-.24A1,1,0,0,0,44.89,19.3Z"/><path class="cls-6" d="M45.69,18.73v.94l.59-1,.06-.11.06-.05a.11.11,0,0,1,.08,0h.05s0,0,0,.05a.06.06,0,0,1,0,.06s0,0,0,.05,0,0,0,.05l0,.05-.59.94-.06.1-.07.09-.08.06a.14.14,0,0,1-.09,0,.13.13,0,0,1-.08,0l0-.06s0-.05,0-.08v-.1c0-.36,0-.54,0-.9v-.05a0,0,0,0,1,0-.05.07.07,0,0,1,0,0,.24.24,0,0,1,.06-.09.16.16,0,0,1,.1-.05s.07,0,.08,0A.46.46,0,0,1,45.69,18.73Z"/><path class="cls-6" d="M46.27,20a.08.08,0,0,1-.08,0,.11.11,0,0,1,0-.1.26.26,0,0,1,.07-.11.22.22,0,0,1,.11,0,.12.12,0,0,1,.08,0,.11.11,0,0,1,0,.1.19.19,0,0,1-.08.11A.19.19,0,0,1,46.27,20Z"/><path class="cls-6" d="M46.88,19.34c.08-.28.12-.42.21-.69a.32.32,0,0,1,.07-.13.18.18,0,0,1,.11-.05s.07,0,.08,0a.14.14,0,0,1,0,.13c-.08.28-.13.42-.21.7a.54.54,0,0,0,0,.2.17.17,0,0,0,0,.12.24.24,0,0,0,.16,0,.3.3,0,0,0,.24-.1.68.68,0,0,0,.15-.27l.21-.71a.32.32,0,0,1,.08-.13.16.16,0,0,1,.11-.05.08.08,0,0,1,.08,0s0,.07,0,.13c-.09.27-.13.41-.21.68a1,1,0,0,1-.12.29.63.63,0,0,1-.17.2.72.72,0,0,1-.19.11.85.85,0,0,1-.23,0,.65.65,0,0,1-.25,0,.3.3,0,0,1-.14-.1.36.36,0,0,1,0-.19A1,1,0,0,1,46.88,19.34Z"/><path class="cls-6" d="M48.72,18.57l-.15.5.7-.62.08-.06s0,0,.08,0a.09.09,0,0,1,.08,0,.11.11,0,0,1,0,.08.22.22,0,0,1-.09.13L49,19c.07.23.11.34.19.57a.44.44,0,0,1,0,.1.27.27,0,0,1,0,.09.16.16,0,0,1-.06.08.15.15,0,0,1-.11,0,.11.11,0,0,1-.08,0,.16.16,0,0,1,0-.07v-.07l-.15-.52-.29.24c0,.12,0,.18-.09.3a.32.32,0,0,1-.07.13.18.18,0,0,1-.11.05s0,0-.06,0a.05.05,0,0,1,0-.05s0,0,0-.06a.62.62,0,0,0,0-.1l.32-1.07a.41.41,0,0,1,.08-.13.16.16,0,0,1,.11-.05.08.08,0,0,1,.08,0A.2.2,0,0,1,48.72,18.57Z"/><path class="cls-13" d="M47.33,48.7,28.4,47.8l3.75-12.38,19.19.1C49.74,40.79,48.93,43.43,47.33,48.7Z"/><path class="cls-6" d="M32.86,40.25c.37-1.22.56-1.83.92-3H35a1.54,1.54,0,0,1,.63.09.42.42,0,0,1,.24.3.88.88,0,0,1,0,.48,1.14,1.14,0,0,1-1,.84.87.87,0,0,1,.22.26,3.17,3.17,0,0,1,.18.5c.06.25.09.37.16.61h-.68c-.08-.27-.13-.41-.21-.68a3.09,3.09,0,0,0-.16-.45.25.25,0,0,0-.14-.13.58.58,0,0,0-.27,0h-.12l-.38,1.27ZM34,38.5h.42a2.64,2.64,0,0,0,.52,0,.46.46,0,0,0,.2-.13.58.58,0,0,0,.13-.23.36.36,0,0,0,0-.25.24.24,0,0,0-.18-.12l-.41,0H34.2Z"/><path class="cls-6" d="M37.09,39.62l.5.11a1.48,1.48,0,0,1-.47.49,1.09,1.09,0,0,1-.61.15.64.64,0,0,1-.67-.39,1.29,1.29,0,0,1,0-.77,1.81,1.81,0,0,1,.53-.86,1.13,1.13,0,0,1,.76-.31.65.65,0,0,1,.62.34,1.54,1.54,0,0,1-.06,1l-1.34,0a.57.57,0,0,0,0,.41.29.29,0,0,0,.27.15.39.39,0,0,0,.23-.07A.72.72,0,0,0,37.09,39.62Zm.21-.6a.51.51,0,0,0,0-.39.28.28,0,0,0-.24-.14.53.53,0,0,0-.34.14.75.75,0,0,0-.22.38Z"/><path class="cls-6" d="M38.53,38.11H39l-.1.33a1.27,1.27,0,0,1,.34-.27.88.88,0,0,1,.4-.1.53.53,0,0,1,.51.31,1.21,1.21,0,0,1,0,.86,1.85,1.85,0,0,1-.51.88,1.06,1.06,0,0,1-.69.3.58.58,0,0,1-.28-.08.71.71,0,0,1-.21-.26c-.14.45-.21.67-.34,1.13l-.54,0C38,40,38.16,39.35,38.53,38.11Zm.2,1.09a.79.79,0,0,0,0,.56A.27.27,0,0,0,39,40a.53.53,0,0,0,.36-.16,1.23,1.23,0,0,0,.29-.54.83.83,0,0,0,0-.53.27.27,0,0,0-.26-.17.51.51,0,0,0-.38.16A1.09,1.09,0,0,0,38.73,39.2Z"/><path class="cls-6" d="M40.47,39.24a1.74,1.74,0,0,1,.3-.57,1.41,1.41,0,0,1,.5-.42,1.24,1.24,0,0,1,.58-.14.69.69,0,0,1,.65.34,1.06,1.06,0,0,1,0,.85,1.72,1.72,0,0,1-.56.85,1.22,1.22,0,0,1-.84.32.84.84,0,0,1-.49-.15.65.65,0,0,1-.25-.42A1.46,1.46,0,0,1,40.47,39.24Zm.53,0a.77.77,0,0,0,0,.52.33.33,0,0,0,.29.19.61.61,0,0,0,.41-.18,1.1,1.1,0,0,0,.3-.51.77.77,0,0,0,0-.52.3.3,0,0,0-.29-.18.55.55,0,0,0-.41.17A1.15,1.15,0,0,0,41,39.28Z"/><path class="cls-6" d="M43.11,40.46h-.53c.28-.91.42-1.36.69-2.27h.5l-.1.32a1.61,1.61,0,0,1,.32-.3.47.47,0,0,1,.25-.07.45.45,0,0,1,.32.12l-.32.52a.37.37,0,0,0-.23-.1.35.35,0,0,0-.21.07.8.8,0,0,0-.2.25,6,6,0,0,0-.27.76Z"/><path class="cls-6" d="M45.74,38.21l-.15.49h-.37l-.28.92-.09.33a.11.11,0,0,0,0,.08.1.1,0,0,0,.08,0,1,1,0,0,0,.23,0l-.09.47a1.19,1.19,0,0,1-.45.08.49.49,0,0,1-.25-.06.25.25,0,0,1-.12-.15.57.57,0,0,1,0-.23c0-.07,0-.22.11-.43.13-.4.19-.6.31-1h-.25l.15-.48h.24c.06-.18.09-.27.14-.45l.65-.35-.25.81Z"/><path class="cls-6" d="M47.38,38.94l-.46-.11a1.41,1.41,0,0,1,.44-.49,1.21,1.21,0,0,1,.64-.15,1,1,0,0,1,.51.11.33.33,0,0,1,.17.25,1.38,1.38,0,0,1-.09.55c-.09.28-.13.42-.22.71a2.8,2.8,0,0,0-.11.45.81.81,0,0,0,0,.31h-.53a.53.53,0,0,1,0-.18v-.07a1.4,1.4,0,0,1-.36.22.92.92,0,0,1-.36.07.46.46,0,0,1-.43-.2.57.57,0,0,1,0-.5,1.14,1.14,0,0,1,.19-.34.93.93,0,0,1,.3-.23,2.45,2.45,0,0,1,.47-.14,2.9,2.9,0,0,0,.57-.14l0-.06a.3.3,0,0,0,0-.25.35.35,0,0,0-.27-.08.48.48,0,0,0-.24.06A.73.73,0,0,0,47.38,38.94Zm.57.51-.36.09a1.2,1.2,0,0,0-.32.1.34.34,0,0,0-.17.21.26.26,0,0,0,0,.23.18.18,0,0,0,.18.09.49.49,0,0,0,.31-.1.52.52,0,0,0,.19-.2,1.29,1.29,0,0,0,.11-.3Z"/><path class="cls-6" d="M33.46,44.29l.49.21a2,2,0,0,1-.65.73,1.42,1.42,0,0,1-.82.21.86.86,0,0,1-.79-.45,1.47,1.47,0,0,1,0-1.14,2.44,2.44,0,0,1,.72-1.17,1.56,1.56,0,0,1,1.08-.4.84.84,0,0,1,.74.36.93.93,0,0,1,.12.57l-.61.13a.47.47,0,0,0-.09-.38.41.41,0,0,0-.34-.15.78.78,0,0,0-.58.23,1.69,1.69,0,0,0-.44.78,1.29,1.29,0,0,0-.05.83.41.41,0,0,0,.42.26.65.65,0,0,0,.43-.14A1.4,1.4,0,0,0,33.46,44.29Z"/><path class="cls-6" d="M35.6,42.4c-.13.45-.2.67-.34,1.13a1.06,1.06,0,0,1,.72-.32.75.75,0,0,1,.31.09.35.35,0,0,1,.16.2.57.57,0,0,1,0,.26,4.6,4.6,0,0,1-.11.45L36,45.52l-.53,0c.14-.47.21-.71.36-1.18a2,2,0,0,0,.1-.45.2.2,0,0,0-.06-.15.24.24,0,0,0-.18-.06.65.65,0,0,0-.26.06.7.7,0,0,0-.21.21,2.05,2.05,0,0,0-.18.43c-.14.44-.2.66-.34,1.11l-.53,0,.93-3.07Z"/><path class="cls-6" d="M37.38,44l-.45-.12A1,1,0,0,1,38,43.27a1,1,0,0,1,.5.12.37.37,0,0,1,.17.24,1.32,1.32,0,0,1-.09.54l-.22.69c-.06.2-.09.35-.11.44a1.09,1.09,0,0,0,0,.31l-.53,0a1.36,1.36,0,0,1,0-.18v-.07a1.12,1.12,0,0,1-.36.21.72.72,0,0,1-.35.06.48.48,0,0,1-.43-.2.62.62,0,0,1,0-.49.92.92,0,0,1,.19-.33.77.77,0,0,1,.29-.22,2,2,0,0,1,.47-.12,4.39,4.39,0,0,0,.56-.13l0-.06a.22.22,0,0,0-.27-.33.47.47,0,0,0-.24.05A.72.72,0,0,0,37.38,44Zm.56.5a2.07,2.07,0,0,1-.35.08,1.2,1.2,0,0,0-.32.1.36.36,0,0,0-.17.2.27.27,0,0,0,0,.22.21.21,0,0,0,.19.1.56.56,0,0,0,.3-.1.58.58,0,0,0,.19-.19,1.8,1.8,0,0,0,.11-.29Z"/><path class="cls-6" d="M40.47,45.7l-.53,0,.35-1.15A1.56,1.56,0,0,0,40.4,44a.29.29,0,0,0,0-.17.24.24,0,0,0-.17-.06.46.46,0,0,0-.27.07.66.66,0,0,0-.22.22,2.83,2.83,0,0,0-.2.52c-.12.41-.19.62-.31,1l-.53,0c.27-.9.41-1.35.69-2.25h.49l-.1.34a1.06,1.06,0,0,1,.77-.37.66.66,0,0,1,.3.08.5.5,0,0,1,.17.19.72.72,0,0,1,0,.26,2.55,2.55,0,0,1-.09.4Z"/><path class="cls-6" d="M40.91,45.86l.58.11c0,.08,0,.14,0,.17a.3.3,0,0,0,.22.07.54.54,0,0,0,.33-.06.29.29,0,0,0,.15-.14,1,1,0,0,0,.11-.28l.1-.33a.93.93,0,0,1-.71.34.51.51,0,0,1-.52-.41,1.4,1.4,0,0,1,.05-.77,1.69,1.69,0,0,1,.51-.86,1,1,0,0,1,.69-.29.51.51,0,0,1,.5.39l.1-.32.5,0-.63,2a2.63,2.63,0,0,1-.24.6,1,1,0,0,1-.26.31.86.86,0,0,1-.33.17,1.7,1.7,0,0,1-.47,0c-.34,0-.56-.09-.66-.23a.56.56,0,0,1-.06-.51S40.9,45.89,40.91,45.86Zm.88-1.31a.93.93,0,0,0,0,.53.27.27,0,0,0,.26.18.53.53,0,0,0,.38-.16,1.12,1.12,0,0,0,.29-.51.83.83,0,0,0,0-.53.27.27,0,0,0-.27-.18.49.49,0,0,0-.37.16A1.12,1.12,0,0,0,41.79,44.55Z"/><path class="cls-6" d="M44.75,45.12l.5.12a1.36,1.36,0,0,1-.48.5,1,1,0,0,1-.6.15.63.63,0,0,1-.66-.42,1.4,1.4,0,0,1,0-.8,1.89,1.89,0,0,1,.54-.88,1.07,1.07,0,0,1,.76-.3.61.61,0,0,1,.6.36,1.5,1.5,0,0,1-.06,1l-1.34,0a.6.6,0,0,0,0,.42.29.29,0,0,0,.26.17.42.42,0,0,0,.24-.07A.76.76,0,0,0,44.75,45.12Zm.22-.61a.56.56,0,0,0,0-.41.27.27,0,0,0-.23-.15.48.48,0,0,0-.34.14.83.83,0,0,0-.23.39Z"/><path class="cls-14" d="M64.91,32.45,53,32.49c1.17-3.85,1.76-5.77,2.92-9.61,4.61-.15,7-.23,12-.37C66.73,26.48,66.12,28.47,64.91,32.45Z"/><path class="cls-15" d="M67.4,24.28c-5,.12-7.37.19-12,.31.21-.68.32-1,.52-1.71,4.61-.15,7-.23,12-.37C67.73,23.21,67.62,23.57,67.4,24.28Z"/><path class="cls-6" d="M57.27,23.63a.54.54,0,0,1-.45.39c-.18,0-.28-.16-.22-.37a.55.55,0,0,1,.45-.38C57.23,23.27,57.33,23.43,57.27,23.63Z"/><path class="cls-16" d="M57.4,22.27h-.09a.36.36,0,0,0-.31.26c-.12.39-.17.58-.29,1,0,.14,0,.25.15.24H57a.35.35,0,0,0,.3-.26l.3-1C57.59,22.37,57.52,22.26,57.4,22.27Z"/><path class="cls-6" d="M60.24,23.55a.57.57,0,0,1-.46.38c-.19,0-.29-.16-.22-.36a.54.54,0,0,1,.45-.39C60.2,23.18,60.3,23.34,60.24,23.55Z"/><path class="cls-16" d="M60.37,22.17h-.1a.36.36,0,0,0-.31.26l-.3,1c0,.14,0,.25.16.25h.09a.36.36,0,0,0,.31-.26l.3-1C60.56,22.27,60.49,22.16,60.37,22.17Z"/><path class="cls-6" d="M63.73,23.44a.55.55,0,0,1-.47.39c-.19,0-.29-.16-.23-.37a.54.54,0,0,1,.46-.38C63.69,23.07,63.79,23.24,63.73,23.44Z"/><path class="cls-16" d="M63.85,22.05h-.09a.4.4,0,0,0-.32.27l-.3,1c0,.14,0,.25.16.25h.1a.36.36,0,0,0,.31-.26l.3-1A.17.17,0,0,0,63.85,22.05Z"/><path class="cls-6" d="M67.16,23.35a.57.57,0,0,1-.47.39.26.26,0,0,1-.25-.37.57.57,0,0,1,.48-.39C67.12,23,67.23,23.14,67.16,23.35Z"/><path class="cls-16" d="M67.28,21.94h-.1a.4.4,0,0,0-.32.27l-.3,1a.17.17,0,0,0,.16.25h.1a.41.41,0,0,0,.33-.27l.3-1A.18.18,0,0,0,67.28,21.94Z"/><path class="cls-17" d="M56.36,26.52l-1.22,0,.38-1.25,1.22,0C56.59,25.77,56.51,26,56.36,26.52Z"/><path class="cls-17" d="M58,26.49l-1.23,0c.15-.5.23-.75.38-1.26l1.23,0Z"/><path class="cls-17" d="M59.62,26.45l-1.25,0c.15-.51.23-.76.39-1.27l1.24,0Z"/><path class="cls-17" d="M61.27,26.42l-1.26,0c.16-.51.23-.77.39-1.28l1.26,0C61.51,25.65,61.43,25.91,61.27,26.42Z"/><path class="cls-17" d="M63,26.38l-1.28,0c.16-.51.24-.77.39-1.28l1.28,0C63.19,25.61,63.11,25.87,63,26.38Z"/><path class="cls-17" d="M64.65,26.35l-1.29,0c.15-.52.23-.77.39-1.29l1.3,0Z"/><path class="cls-17" d="M66.38,26.32l-1.31,0c.15-.51.23-.77.39-1.29l1.32,0Z"/><path class="cls-17" d="M55.87,28.23l-1.22,0L55,27l1.22,0C56.1,27.48,56,27.73,55.87,28.23Z"/><path class="cls-17" d="M57.49,28.21l-1.23,0c.15-.51.23-.76.38-1.26l1.23,0Z"/><path class="cls-17" d="M59.13,28.18l-1.25,0c.16-.51.23-.76.39-1.27l1.24,0Z"/><path class="cls-17" d="M60.78,28.15l-1.26,0,.39-1.27,1.26,0C61,27.39,60.94,27.64,60.78,28.15Z"/><path class="cls-17" d="M62.46,28.13l-1.28,0c.16-.51.23-.77.39-1.28l1.28,0C62.69,27.36,62.61,27.61,62.46,28.13Z"/><path class="cls-17" d="M64.16,28.1l-1.3,0c.16-.51.24-.77.39-1.28l1.3,0C64.39,27.33,64.31,27.59,64.16,28.1Z"/><path class="cls-17" d="M65.88,28.08H64.57c.15-.51.23-.77.39-1.29l1.32,0Z"/><path class="cls-17" d="M55.38,29.86l-1.22,0,.38-1.26,1.22,0C55.61,29.11,55.53,29.36,55.38,29.86Z"/><path class="cls-17" d="M57,29.84l-1.23,0c.16-.51.23-.76.39-1.26l1.23,0C57.22,29.09,57.14,29.34,57,29.84Z"/><path class="cls-17" d="M58.62,29.83H57.38c.16-.51.23-.76.39-1.27H59Z"/><path class="cls-17" d="M60.28,29.81H59c.15-.51.23-.76.39-1.27l1.25,0Z"/><path class="cls-17" d="M62,29.79H60.68c.15-.51.23-.76.39-1.27l1.27,0C62.18,29,62.11,29.28,62,29.79Z"/><path class="cls-17" d="M63.65,29.77l-1.3,0,.4-1.29,1.29,0C63.88,29,63.8,29.26,63.65,29.77Z"/><path class="cls-17" d="M65.37,29.75l-1.31,0c.15-.52.23-.78.39-1.29l1.31,0C65.61,29,65.53,29.24,65.37,29.75Z"/><path class="cls-17" d="M54.9,31.41H53.69l.38-1.25,1.22,0C55.13,30.66,55.06,30.91,54.9,31.41Z"/><path class="cls-17" d="M56.52,31.4H55.29l.38-1.26H56.9Z"/><path class="cls-17" d="M58.15,31.39H56.91l.38-1.27h1.24Z"/><path class="cls-17" d="M59.8,31.38H58.54c.16-.51.23-.76.39-1.27l1.26,0C60,30.61,60,30.87,59.8,31.38Z"/><path class="cls-17" d="M61.47,31.37H60.2c.15-.51.23-.77.39-1.28h1.27C61.7,30.6,61.62,30.86,61.47,31.37Z"/><path class="cls-18" d="M62.25,29.05a2.85,2.85,0,0,0-2.15,1c-.65.93-.16,2.14.57,2.1s2-1.54,1.73-2.21a2.24,2.24,0,0,0-1-1"/><path d="M20,28.41c.13-.45.2-.67.33-1.11-.25-.61-.38-.91-.64-1.5l.71,0c.16.41.24.62.39,1l1-1.06.69,0-1.55,1.56c-.13.44-.2.66-.33,1.11Z"/><path d="M21.78,27.4a1.52,1.52,0,0,1,1.39-1,.8.8,0,0,1,.7.27.75.75,0,0,1,.08.71,1.35,1.35,0,0,1-.52.73,1.39,1.39,0,0,1-.86.3,1.1,1.1,0,0,1-.52-.11.59.59,0,0,1-.3-.34A1.09,1.09,0,0,1,21.78,27.4Zm.57,0a.5.5,0,0,0,0,.44.37.37,0,0,0,.32.15.7.7,0,0,0,.41-.16.83.83,0,0,0,.28-.45.48.48,0,0,0,0-.43.37.37,0,0,0-.32-.15.75.75,0,0,0-.42.16A.91.91,0,0,0,22.35,27.41Z"/><path d="M25.45,28.32c0-.11.05-.17.09-.29a1.15,1.15,0,0,1-.37.25,1.29,1.29,0,0,1-.41.1.72.72,0,0,1-.35-.08.37.37,0,0,1-.17-.24.93.93,0,0,1,.06-.43c.14-.49.22-.73.36-1.22h.55c-.1.35-.16.53-.26.89a2.33,2.33,0,0,0-.13.5.21.21,0,0,0,.07.14.27.27,0,0,0,.19.05.54.54,0,0,0,.27-.07.46.46,0,0,0,.2-.19,2,2,0,0,0,.2-.52l.25-.82h.54c-.23.78-.35,1.17-.58,1.94Z"/><path d="M27,28.3h-.54c.24-.77.35-1.16.59-1.94h.5l-.09.27a1.44,1.44,0,0,1,.31-.26.59.59,0,0,1,.25-.07.57.57,0,0,1,.32.09l-.3.46a.28.28,0,0,0-.22-.08.37.37,0,0,0-.21.06.61.61,0,0,0-.19.22,3.57,3.57,0,0,0-.24.65Z"/><path d="M29.11,28.26c.33-1.08.49-1.63.82-2.71h.54c.23.71.34,1.07.57,1.79l.55-1.82h.5c-.32,1.09-.49,1.63-.82,2.72h-.55c-.22-.7-.33-1.05-.56-1.75-.22.71-.32,1.06-.54,1.77Z"/><path d="M33.16,27.56l.48.08a1.32,1.32,0,0,1-.44.44,1,1,0,0,1-.58.16.61.61,0,0,1-.65-.32,1,1,0,0,1,0-.68,1.62,1.62,0,0,1,.48-.78,1.25,1.25,0,0,1,.73-.29.59.59,0,0,1,.59.28,1.14,1.14,0,0,1,0,.89l-1.29,0a.48.48,0,0,0,0,.36.29.29,0,0,0,.26.12.36.36,0,0,0,.22-.07A.7.7,0,0,0,33.16,27.56Zm.19-.53a.45.45,0,0,0,0-.35.27.27,0,0,0-.23-.11.52.52,0,0,0-.32.13.69.69,0,0,0-.21.35Z"/><path d="M33.68,28.18l1-1-.37-.95.62,0c.07.22.1.33.17.54l.53-.55.59,0-.93,1,.38,1h-.62l-.2-.62c-.23.26-.35.38-.58.63Z"/><path d="M37.45,26.11l-.13.43H37l-.24.81a2.38,2.38,0,0,0-.08.29.08.08,0,0,0,0,.07l.08,0a.91.91,0,0,0,.22-.05l-.09.41a1.43,1.43,0,0,1-.42.09.56.56,0,0,1-.23-.05.23.23,0,0,1-.12-.12.46.46,0,0,1,0-.21,3.16,3.16,0,0,1,.1-.37c.11-.35.16-.52.26-.87h-.23l.13-.42h.23c0-.16.08-.24.12-.4l.6-.32-.21.71Z"/><path d="M38.21,28.1c.33-1.12.5-1.68.84-2.79l.84,0a2.9,2.9,0,0,1,.62,0,.47.47,0,0,1,.29.26.87.87,0,0,1,0,.55,1.37,1.37,0,0,1-.52.72A1.14,1.14,0,0,1,40,27a2.5,2.5,0,0,1-.56.06h-.34c-.13.43-.19.64-.32,1.06Zm1.22-2.33c-.09.31-.14.47-.24.79h.29a1.34,1.34,0,0,0,.43-.05.48.48,0,0,0,.2-.14.71.71,0,0,0,.13-.22.3.3,0,0,0,0-.25.2.2,0,0,0-.17-.12,1.81,1.81,0,0,0-.37,0Z"/><path d="M41.42,26.63,41,26.55a1.08,1.08,0,0,1,.4-.44A1.14,1.14,0,0,1,42,26a1.07,1.07,0,0,1,.47.07.35.35,0,0,1,.16.22,1.19,1.19,0,0,1-.08.48l-.2.63a3.24,3.24,0,0,0-.1.4.83.83,0,0,0,0,.27h-.49v-.22a1.52,1.52,0,0,1-.33.21,1,1,0,0,1-.33.07.46.46,0,0,1-.4-.16.48.48,0,0,1,0-.43,1,1,0,0,1,.17-.31A.83.83,0,0,1,41.1,27a2,2,0,0,1,.43-.14,3.16,3.16,0,0,0,.52-.14l0-.05c0-.11,0-.18,0-.22s-.11-.07-.24-.06a.38.38,0,0,0-.22.06A.45.45,0,0,0,41.42,26.63Zm.52.42a1.65,1.65,0,0,1-.32.09,1.43,1.43,0,0,0-.3.1.34.34,0,0,0-.15.19.23.23,0,0,0,0,.2.22.22,0,0,0,.18.08.56.56,0,0,0,.28-.1.52.52,0,0,0,.17-.19,1.07,1.07,0,0,0,.1-.26Z"/><path d="M43,26h.52v1.45l.88-1.48h.51l-1.26,2-.22.36a2.88,2.88,0,0,1-.21.28,1.19,1.19,0,0,1-.18.15,1.12,1.12,0,0,1-.22.1,1,1,0,0,1-.26,0,.82.82,0,0,1-.27,0l.09-.43a.71.71,0,0,0,.2,0,.44.44,0,0,0,.29-.11,1.08,1.08,0,0,0,.21-.29C43.06,27.19,43,26.79,43,26Z"/><path d="M45.2,25.91h.46l-.09.29a1,1,0,0,1,.68-.35.43.43,0,0,1,.29.08.41.41,0,0,1,.14.24A1.54,1.54,0,0,1,47,25.9a1,1,0,0,1,.33-.09.48.48,0,0,1,.31.09.35.35,0,0,1,.13.27,1.3,1.3,0,0,1-.08.43l-.4,1.33h-.49c.14-.48.21-.72.36-1.19a1,1,0,0,0,.07-.4c0-.08-.08-.11-.18-.11a.35.35,0,0,0-.21.07.67.67,0,0,0-.2.21,2.54,2.54,0,0,0-.17.43l-.3,1H45.7c.14-.46.21-.68.34-1.14a2.14,2.14,0,0,0,.1-.39.17.17,0,0,0,0-.13.2.2,0,0,0-.13,0,.55.55,0,0,0-.42.28,2.08,2.08,0,0,0-.17.42l-.3,1h-.49Z"/><path d="M49.08,27.23l.47.08a1.43,1.43,0,0,1-.44.47,1,1,0,0,1-.56.17.55.55,0,0,1-.61-.34,1.13,1.13,0,0,1,0-.72,1.74,1.74,0,0,1,.49-.81,1,1,0,0,1,.7-.31.56.56,0,0,1,.57.29,1.37,1.37,0,0,1-.06.94l-1.24,0a.54.54,0,0,0,0,.38.26.26,0,0,0,.25.13.34.34,0,0,0,.21-.08A.65.65,0,0,0,49.08,27.23Zm.2-.56a.44.44,0,0,0,0-.36.23.23,0,0,0-.22-.12.46.46,0,0,0-.31.14.9.9,0,0,0-.21.36Z"/><path d="M51.51,27.85H51l.33-1.08a1.91,1.91,0,0,0,.1-.44.18.18,0,0,0-.06-.15.15.15,0,0,0-.15-.05.52.52,0,0,0-.26.08.8.8,0,0,0-.2.21,3.35,3.35,0,0,0-.19.49c-.11.38-.17.57-.29.95H49.8c.25-.84.38-1.26.64-2.1h.46l-.1.31a1.05,1.05,0,0,1,.73-.37.5.5,0,0,1,.28.05.37.37,0,0,1,.16.17.57.57,0,0,1,0,.23,1.51,1.51,0,0,1-.08.38Z"/><path d="M53.52,25.7l-.13.45H53l-.25.85c-.06.17-.08.27-.09.3a.09.09,0,0,0,0,.07.08.08,0,0,0,.07,0,.66.66,0,0,0,.22-.06c0,.17-.05.26-.09.44a1.43,1.43,0,0,1-.42.09.52.52,0,0,1-.23-.05.25.25,0,0,1-.12-.13.72.72,0,0,1,0-.21,3.13,3.13,0,0,1,.1-.4c.12-.37.17-.55.28-.92h-.23l.14-.45h.23l.13-.42.6-.34-.23.75Z"/><path class="cls-10" d="M5.72,40.67l3.88-2c1.53-.49,6-1.81,8.57-1.12.68.18.78.38.8.49.13.72-2.64,1.8-4,2.25A18.6,18.6,0,0,1,12.1,41c0,3.82-3.11,6.27-7.87,8"/><path class="cls-10" d="M44,74.79,60.68,52.26c-.08-5.84.57-10.52,2.46-13.18,1.72-2.81,3.53-6.12,4.75-5.61.41.12.74.45.85,1.38a8,8,0,0,1-1.95,4.8,26.49,26.49,0,0,1,8.83-5.34c1.2,3.22-1.77,4.94-2.18,6.75,1.52,2,1.39,5.49.27,9.08-.76,3.17-2.77,4-4.87,4.56-2,4.33-4.74,9.57-8.9,13.46A39.37,39.37,0,0,1,44,74.79Z"/><use width="132.05" height="112.18" transform="translate(4.18 61.41) scale(0.22)" xlink:href="#hex-orange-pound"/></g></g></g></g></g></svg>