<svg xmlns="http://www.w3.org/2000/svg" xmlns:xlink="http://www.w3.org/1999/xlink" viewBox="0 0 120.58 106.56"><defs><style>.cls-1,.cls-17,.cls-29{fill:none;}.cls-18,.cls-2,.cls-20,.cls-21{fill:#fff;}.cls-3{fill:#5789ba;}.cls-4{fill:#65aff5;}.cls-5{fill:#466f96;}.cls-6{fill:#fafafa;}.cls-7{fill:#31ab94;}.cls-8{fill:#a0a7cb;}.cls-9{fill:#bfc3db;}.cls-10{fill:#298f7c;}.cls-11{fill:#add9d1;}.Anon-H\/3PZcblQb0\={fill:#b879b0;}.Anon-jY41dALBae4\={fill:#cda1c8;}.cls-12{fill:#e34079;}.cls-13{fill:#f2b3c9;}.cls-14{fill:#b53360;}.cls-15{opacity:0.86;}.cls-16{fill:url(#linear-gradient);}.cls-17{stroke:#1b1464;stroke-width:2px;opacity:0.22;}.cls-17,.cls-29{stroke-miterlimit:10;}.cls-18{font-size:11.58px;}.cls-18,.cls-20,.cls-21{font-family:Arial-BoldMT, Arial;font-weight:700;}.cls-19{letter-spacing:-0.04em;}.cls-20{font-size:7.46px;}.cls-21{font-size:8.99px;}.cls-22{letter-spacing:-0.02em;}.cls-23{clip-path:url(#clip-path);}.cls-24{fill:#d1ab75;}.cls-25{fill:#f8c7a3;}.cls-26{fill:#fbab42;}.cls-27{fill:#e3b696;}.cls-28{fill:#412a74;}.cls-29{stroke:#2e3192;stroke-linecap:round;}.cls-30{fill:#c1272d;}</style><linearGradient id="linear-gradient" x1="53.28" y1="105.56" x2="53.28" y2="1" gradientUnits="userSpaceOnUse"><stop offset="0" stop-color="#eadc97"/><stop offset="0.11" stop-color="#eee2a9"/><stop offset="0.37" stop-color="#f5efce"/><stop offset="0.62" stop-color="#fbf8e9"/><stop offset="0.83" stop-color="#fefdf9"/><stop offset="1" stop-color="#fff"/></linearGradient><clipPath id="clip-path"><polygon class="cls-1" points="57.66 36.21 43.52 36.02 36.37 23.68 44.49 7.29 60.04 8.93 64.65 24.05 57.66 36.21"/></clipPath><symbol id="hex-connector" data-name="hex-connector" viewBox="0 0 14.01 15.06"><rect class="cls-7" width="14.01" height="15.06"/></symbol><symbol id="hex-data" data-name="hex-data" viewBox="0 0 132.05 112.17"><polygon class="cls-8" points="101.86 106.56 91.86 112.14 30.27 5.92 40.13 0 101.18 0.79 132.05 54.07 101.86 106.56"/><polygon class="cls-9" points="91.92 112.17 30.87 111.39 0 58.11 30.18 5.62 91.24 6.4 122.11 59.68 91.92 112.17"/><path class="cls-10" d="M128,24.36c.7,23.59-36.76,23.59-36.76,0S128.65.78,128,24.36Z"/><path class="cls-7" d="M124.48,27.14c.7,23.58-36.76,23.58-36.76,0S124.48,2.86,124.48,27.14Z"/><rect class="cls-2" x="97" y="17.83" width="3.01" height="18.36"/><rect class="cls-2" x="98.74" y="33.13" width="17.1" height="3.06"/><rect class="cls-2" x="113.32" y="28.55" width="2.52" height="6.84"/><rect class="cls-2" x="108.39" y="17.83" width="7.15" height="1.9"/><polygon class="cls-2" points="113.99 25.25 113.99 17.83 115.84 17.83 115.84 25.25 113.99 25.25"/><polygon class="cls-2" points="105.58 26.55 113.05 18.91 114.36 20.25 106.89 27.89 105.58 26.55"/><polygon class="cls-2" points="105.58 20.34 105.58 17.83 98.74 17.83 98.74 20.34 105.58 20.34"/></symbol><symbol id="hex-red-deny" data-name="hex-red-deny" viewBox="0 0 132.05 112.17"><polygon class="cls-12" points="101.86 106.56 91.86 112.14 30.27 5.92 40.13 0 101.18 0.79 132.05 54.07 101.86 106.56"/><polygon class="cls-13" points="91.92 112.17 30.87 111.39 0 58.11 30.18 5.62 91.24 6.4 122.11 59.68 91.92 112.17"/><path class="cls-14" d="M124.71,25.3c.69,23.58-36.77,23.58-36.77,0S125.4,1.71,124.71,25.3Z"/><path class="cls-12" d="M121.24,28.07c.69,23.59-36.77,23.59-36.77,0S121.24,3.79,121.24,28.07Z"/><rect class="cls-2" x="92.44" y="25.3" width="22.3" height="5.16"/></symbol><symbol id="hex-plain" data-name="hex-plain" viewBox="0 0 132.05 112.17"><polygon class="cls-7" points="101.86 106.56 91.86 112.14 30.27 5.92 40.13 0 101.18 0.79 132.05 54.07 101.86 106.56"/><polygon class="cls-11" points="91.92 112.17 30.87 111.39 0 58.11 30.18 5.62 91.24 6.4 122.11 59.68 91.92 112.17"/></symbol><symbol id="raised-tick" data-name="raised-tick" viewBox="0 0 40.24 38.15"><path class="cls-10" d="M40.23,17.69c.7,23.58-36.76,23.58-36.76,0S40.93-5.9,40.23,17.69Z"/><path class="cls-7" d="M36.76,20.46C37.46,44.05,0,44.05,0,20.46S36.76-3.82,36.76,20.46Z"/><polygon class="cls-2" points="5.51 21.98 13.24 31.2 31.27 13.89 28.34 11.13 13.38 24.96 8.7 19.44 5.51 21.98"/></symbol><symbol id="hex-green-tick" data-name="hex-green-tick" viewBox="0 0 132.05 112.17"><use width="132.05" height="112.18" xlink:href="#hex-plain"/><use width="40.24" height="38.15" transform="translate(87.72 6.67)" xlink:href="#raised-tick"/></symbol><symbol id="hex-blue-clock" data-name="hex-blue-clock" viewBox="0 0 132.05 112.17"><polygon class="cls-3" points="101.86 106.56 91.86 112.14 30.27 5.92 40.13 0 101.18 0.79 132.05 54.07 101.86 106.56"/><polygon class="cls-4" points="91.92 112.17 30.87 111.39 0 58.11 30.18 5.62 91.24 6.4 122.11 59.68 91.92 112.17"/><path class="cls-5" d="M124.71,25.66c.69,23.59-36.77,23.59-36.77,0S125.4,2.08,124.71,25.66Z"/><path class="cls-3" d="M121.24,28.44c.69,23.58-36.77,23.58-36.77,0S121.24,4.16,121.24,28.44Z"/><circle class="cls-6" cx="102.81" cy="28.31" r="13.83"/><path d="M102.8,42.47A14.17,14.17,0,1,1,117,28.31,14.18,14.18,0,0,1,102.8,42.47Zm0-27.67a13.51,13.51,0,1,0,13.51,13.51A13.52,13.52,0,0,0,102.8,14.8Z"/><polygon points="100.83 28.3 108.73 18.43 102.81 28.3 104.78 35.55 100.83 28.3"/><polygon points="102.15 14.47 103.17 17.54 104.12 14.47 102.15 14.47"/><polyline points="104.12 42.14 102.54 42.14 103.14 38.97"/><polyline points="88.97 28.04 88.97 29.62 91.61 28.96"/><polyline points="116.64 26.99 116.64 28.96 113.34 27.65"/></symbol><symbol id="fast-forward" data-name="fast-forward" viewBox="0 0 74.08 30.84"><polygon class="cls-2" points="26.71 15.42 0 0 0 30.84 26.71 15.42"/><polygon class="cls-2" points="50.22 15.42 23.51 0 23.51 30.84 50.22 15.42"/><polygon class="cls-2" points="74.08 15.42 47.37 0 47.37 30.84 74.08 15.42"/></symbol><symbol id="logo-nhs" data-name="logo-nhs" viewBox="0 0 492.25 170.43"><path id="path10" class="cls-2" d="M186.92,0,152.41,162.06H98.25L64.2,49.91h-.47L41.09,162.06H0L34.79,0H89.15l33.37,112.4H123L145.86,0ZM354,2.79,320.13,164.85H276.51L291,95.43h-51.6l-14.46,69.42H181.32L215.17,2.79h43.61L246,64.8h51.55l12.85-62ZM492.25,10,481.73,42.24c-8.41-3.91-19.84-7.41-35.93-7.41-17.26,0-31.27,2.53-31.27,15.57,0,23,63.23,14.4,63.23,63.62,0,44.78-41.78,56.41-79.57,56.41-16.79,0-36.18-4-50.39-8.38l10.27-33c8.6,5.57,25.91,9.29,40.12,9.29,13.54,0,34.76-2.55,34.76-19.28,0-26-63.23-16.26-63.23-62,0-41.81,36.88-54.35,72.58-54.35,20.09,0,39,2.11,49.95,7.18"/></symbol><symbol id="hex-purple-security" data-name="hex-purple-security" viewBox="0 0 132.05 112.17"><polygon class="Anon-H/3PZcblQb0=" points="101.86 106.56 91.86 112.14 30.27 5.92 40.13 0 101.18 0.79 132.05 54.07 101.86 106.56"/><polygon class="Anon-jY41dALBae4=" points="91.92 112.17 30.87 111.39 0 58.11 30.18 5.62 91.24 6.4 122.11 59.68 91.92 112.17"/><use width="40.24" height="38.15" transform="translate(87.72 6.67)" xlink:href="#raised-tick"/><path class="cls-2" d="M31.14,30.41a23.91,23.91,0,1,0,33.75-2A23.92,23.92,0,0,0,31.14,30.41ZM62.55,57.9a17.55,17.55,0,1,1-1.48-24.76A17.55,17.55,0,0,1,62.55,57.9Z"/><polygon class="cls-2" points="96.26 79.51 88.82 87.89 67.28 68.78 74.71 60.4 96.26 79.51"/><polygon class="cls-2" points="73.69 62.45 68.99 67.75 64.33 63.61 69.03 58.31 73.69 62.45"/></symbol></defs><g id="Layer_2" data-name="Layer 2"><g id="MainLayer"><g id="stories" class="cls-15"><g id="maternitygroup"><g id="maternity3"><circle class="cls-16" cx="53.28" cy="53.28" r="52.28"/><circle class="cls-17" cx="53.28" cy="53.28" r="52.28"/><use width="14.01" height="15.06" transform="matrix(0.13, 0.2, -0.2, 0.13, 41.02, 58.09)" xlink:href="#hex-connector"/><use width="132.05" height="112.18" transform="translate(11.05 54.97) scale(0.23)" xlink:href="#hex-data"/><use width="14.01" height="15.06" transform="matrix(-0.12, -0.2, -0.32, 0.2, 42.81, 32.79)" xlink:href="#hex-connector"/><use width="14.01" height="15.06" transform="matrix(0.14, 0.19, -0.24, 0.17, 68.05, 71.92)" xlink:href="#hex-connector"/><use width="132.05" height="112.18" transform="translate(37.02 38.96) scale(0.23)" xlink:href="#hex-red-deny"/><use width="132.05" height="112.18" transform="translate(37.65 68.51) scale(0.23)" xlink:href="#hex-data"/><use width="14.01" height="15.06" transform="matrix(0.12, -0.2, 0.2, 0.12, 63.21, 59.33)" xlink:href="#hex-connector"/><use width="14.01" height="15.06" transform="translate(78.53 48.54) scale(0.23)" xlink:href="#hex-connector"/><use width="132.05" height="112.18" transform="translate(63.07 22.41) scale(0.23)" xlink:href="#hex-green-tick"/><use width="132.05" height="112.18" transform="translate(63.69 51.96) scale(0.23)" xlink:href="#hex-green-tick"/><use width="14.01" height="15.06" transform="matrix(0.12, -0.2, 0.2, 0.12, 89.67, 42.44)" xlink:href="#hex-connector"/><use width="132.05" height="112.18" transform="translate(89.67 35.94) scale(0.23)" xlink:href="#hex-blue-clock"/><use width="74.08" height="30.84" transform="matrix(0.23, 0.13, -0.13, 0.23, 98.08, 41.09)" xlink:href="#fast-forward"/><text class="cls-18" transform="translate(68.78 39.98)">M<tspan class="cls-19" x="9.65" y="0">A</tspan></text><path class="cls-2" d="M82,64.34a14.67,14.67,0,0,0-1.67-2.66,8.35,8.35,0,0,0-1.92-2.18,2.35,2.35,0,0,0-1.6-.28c-.77.18-1.23,1.15-1.64,1.75L73.8,62.83a.68.68,0,0,0-.12.48.72.72,0,0,0,.24.43l2.41,2a.6.6,0,0,0,.39.14.61.61,0,0,0,.39-.11c-.16.65-2.44,7.24-2.47,7.33h2.62l.09,1.94a.67.67,0,0,0,1.15.48.71.71,0,0,0,.19-.48l.1-1.9h2.37c0-.17-.23-3.53-.21-3.92s.43-.62.67-.85a3.77,3.77,0,0,0,.67-1,3,3,0,0,0,.24-1A4.27,4.27,0,0,0,82,64.34Zm-6.69-1.18,1.4-1.64c.1.45.2.9.31,1.37a8.3,8.3,0,0,1,.26,1.92l-.08-.1Z"/><path class="cls-2" d="M79.13,58.8a1.8,1.8,0,0,0,1.27-.52,1.71,1.71,0,0,0,.53-1.23,1.66,1.66,0,0,0-.11-.7,1.74,1.74,0,0,0-.38-.6,2,2,0,0,0-.59-.4,1.9,1.9,0,0,0-1.43,0,1.87,1.87,0,0,0-.59.4,1.74,1.74,0,0,0-.38.6,1.66,1.66,0,0,0-.11.7,1.7,1.7,0,0,0,.52,1.23A1.82,1.82,0,0,0,79.13,58.8Z"/><use width="492.25" height="170.43" transform="translate(43.6 79.94) scale(0.04)" xlink:href="#logo-nhs"/><use width="132.05" height="112.18" transform="translate(36.19 9.9) scale(0.23)" xlink:href="#hex-plain"/><use width="14.01" height="15.06" transform="matrix(0.12, -0.2, 0.2, 0.12, 62.38, 30.26)" xlink:href="#hex-connector"/><use width="132.05" height="112.18" transform="translate(10.21 26.82) scale(0.23)" xlink:href="#hex-purple-security"/><text class="cls-20" transform="translate(14.9 71.69)">HMRC</text><text class="cls-21" transform="translate(41.97 56.26)">SM<tspan class="cls-22" x="13.49" y="0">P</tspan></text><g class="cls-23"><path class="cls-24" d="M48,11.36a6.81,6.81,0,0,0-3.21,2.8c-1,1.86-.53,3.42-1,6.57-.31,2-1.63,3.29-2.07,4.36,2.56,6.21,15.45,6.63,17.69.11-.18-3,.2-5.26-.14-7.09-.91-4.84-1.75-5.92-2.4-6.54A6.67,6.67,0,0,0,52.19,9.7,6.55,6.55,0,0,0,48,11.36Z"/><path class="cls-25" d="M56.23,30.56c-1.4,1.71-.52,3.6,1,12.29a8,8,0,0,0,1.34,3.26,2.9,2.9,0,0,0,5.32-1,73.68,73.68,0,0,0-4-14.58,2.3,2.3,0,0,0-1.52-1.17C57.32,29.23,56.48,30.25,56.23,30.56Z"/><path class="cls-25" d="M58.89,46.65c1.65,1.4,3.18.61,10.51-.57a5.72,5.72,0,0,0,1.33-.37c.58-.25,1.38-.43,1.33-.82a14.42,14.42,0,0,0-1.52-5.11,50.93,50.93,0,0,0-12.12,3.39,1.73,1.73,0,0,0-.83,1.41A3.21,3.21,0,0,0,58.89,46.65Z"/><path class="cls-26" d="M42.13,29.77A21.1,21.1,0,0,1,46.55,28a14.86,14.86,0,0,1,10.19.71c.48.21,1,.21,1.5.47a23.92,23.92,0,0,0,.07,6.4c.42,2.44,1,3.43.73,5.36s-1.19,2-1.56,4c-.33,1.77.21,2.57.75,6.06.26,1.74.38,3.17.44,4.09a16.06,16.06,0,0,1-7.35,2.06,25.38,25.38,0,0,1-8.62-1.56Z"/><path class="cls-25" d="M52.59,34.65c-.63.14-1.17-.42-2.64-1.87-3.19-3.15-4.39-4.14-4.1-4.62.06-.12.23-.23.65-.22a14.83,14.83,0,0,1,10.2.7,17.53,17.53,0,0,0-2.56,3.71C53.47,33.66,53.26,34.5,52.59,34.65Z"/><path class="cls-25" d="M47.45,22.77l0,5.46a9.88,9.88,0,0,0,3.69,2.48c.68.4,1,.19,1.18-.31l-.13-4.81Z"/><path class="cls-27" d="M52.29,28.33c-2.28-1.64-4.1-3.27-4.39-4.88l4.34,2.69Z"/><path class="cls-25" d="M57,14.79c3,3,.74,10.45-3.22,11.28-2.11.44-4.56-1-6.33-3.3l1-8.16C51.64,12.91,55.19,13,57,14.79Z"/><ellipse class="cls-28" cx="51.8" cy="19.13" rx="0.57" ry="0.79" transform="translate(-0.48 1.35) rotate(-1.48)"/><ellipse class="cls-28" cx="55.8" cy="18.83" rx="0.57" ry="0.79" transform="translate(-0.47 1.45) rotate(-1.48)"/><path class="cls-28" d="M56.16,18.52a1.25,1.25,0,0,0,.77-.41.9.9,0,0,1-.9.11Z"/><path class="cls-28" d="M51.34,19.08a1.2,1.2,0,0,1-.79-.37.91.91,0,0,0,.91.07Z"/><polygon class="cls-27" points="53.61 21.61 55.12 21.48 54.34 18.34 54.27 18.37 54.67 21.17 53.63 21.55 53.61 21.61"/><polygon class="cls-28" points="54.73 21.21 54.27 18.26 54.19 18.27 54.55 21.22 54.73 21.21"/><path class="cls-29" d="M56.67,17.06a1.28,1.28,0,0,0-1.26.07"/><path class="cls-25" d="M48.39,19.63c-.43-1.1-1.71-1.9-2.29-1.59s-.51,2.13.32,3.21c.06.07.85,1.08,1.48.87S48.76,20.6,48.39,19.63Z"/><path class="cls-27" d="M46.49,18.45c.6-.11,1.36,2,1.34,2h0s-.43-.2-.57-.06a.3.3,0,0,0-.06.11.23.23,0,0,1,.06-.18c.13-.13.48.06.56.12-.12-.2-.74-1.72-1.25-1.79-.18,0-.38.16-.4.12S46.31,18.48,46.49,18.45Z"/><path class="cls-29" d="M52.31,17.27a1.26,1.26,0,0,0-1.25.06"/><path class="cls-25" d="M42.34,29.36c-2,.9-2.08,3-4.62,11.43a8.08,8.08,0,0,0-.26,3.52,2.9,2.9,0,0,0,5.21,1.48A73.11,73.11,0,0,0,45.62,31a2.28,2.28,0,0,0-.83-1.73A2.72,2.72,0,0,0,42.34,29.36Z"/><path class="cls-24" d="M52.78,11.53l.38,1.75a1.54,1.54,0,0,0-.08.19A6.22,6.22,0,0,1,51.16,16c-.64.48-1.27.77-2.35,1.63a10.28,10.28,0,0,0-1.12,1l-.11-4.2Z"/><path class="cls-24" d="M53.31,13.3c.3,1.47-2.7,3.66-4.62,5,1.78-1.48,4.48-3.78,4.33-5.24Z"/><path class="cls-24" d="M53.24,13.26c1.36-.63,4.32,1.66,4.74,3.83-1.6-3-3.48-4-4.86-3.51Z"/><path class="cls-30" d="M46.9,18.07a8.71,8.71,0,0,1,.77-2.41c.25-.51,2-3.93,5.06-4.22a5.43,5.43,0,0,1,2,.21A5.84,5.84,0,0,1,56.92,13a9.93,9.93,0,0,1,1.66,2.11.23.23,0,0,1,0,.11l0,.11a6.9,6.9,0,0,0-2.32-2.14,6.5,6.5,0,0,0-3.74-.86c-2.33.35-4.39,3-4.8,6.42Z"/></g></g></g></g></g></g></svg>