<?xml version="1.0" encoding="utf-8"?>
<!-- Generator: Adobe Illustrator 26.0.1, SVG Export Plug-In . SVG Version: 6.00 Build 0)  -->
<svg version="1.1" id="Layer_1" xmlns="http://www.w3.org/2000/svg" xmlns:xlink="http://www.w3.org/1999/xlink" x="0px" y="0px"
	 viewBox="0 0 137.2 137.5" style="enable-background:new 0 0 137.2 137.5;" xml:space="preserve">
<style type="text/css">
	.st0{opacity:0.86;}
	.st1{clip-path:url(#SVGID_00000161631848126147143790000016709173197810989956_);}
	.st2{fill:url(#SVGID_00000045587344305336897410000007816756672506315919_);}
	.st3{fill:#576391;}
	.st4{fill:#6473A8;}
	.st5{fill:#EE786B;}
	.st6{fill:#FBFBFB;}
	.st7{fill:#7F91D4;}
	.st8{fill:none;stroke:#0071BC;stroke-width:0.5;stroke-miterlimit:10;}
	.st9{fill:#412A74;}
	.st10{fill:#D66C60;}
	.st11{fill:#C9665A;}
	.st12{fill:#BF6156;}
	.st13{fill:none;stroke:#2E3192;stroke-linecap:round;stroke-miterlimit:10;}
	.st14{fill:#E6E6E6;}
	.st15{fill:#D1AB75;}
	.st16{fill:#F8C7A3;}
	.st17{fill:#FBAB42;}
	.st18{fill:#D84DA0;}
	.st19{fill:#E3B696;}
	.st20{fill:#C1272D;}
	.st21{fill:none;stroke:#412A74;stroke-width:2;stroke-miterlimit:10;}
	.st22{fill:#D9AFBB;}
	.st23{fill:#FBCBD8;}
	.st24{opacity:0.22;fill:none;stroke:#1B1464;stroke-width:2;stroke-miterlimit:10;enable-background:new    ;}
	.st25{fill:#31AB94;}
	.st26{fill:#ADD9D1;}
	.st27{font-family:'Arial';font-weight: 600;}
	.st28{font-size:11.5595px;}
	.st29{letter-spacing:-1;}
</style>
<g id="Layer_2_00000051380062253053815280000017017319676748042133_">
	<g id="MainLayer">
		<g id="stories" class="st0">
			<g id="maternitygroup">
				<g id="maternity1">
					<g>
						<defs>
							<circle id="SVGID_1_" cx="70.3" cy="71" r="61.4"/>
						</defs>
						<clipPath id="SVGID_00000088111337897756221000000016745727897843666605_">
							<use xlink:href="#SVGID_1_"  style="overflow:visible;"/>
						</clipPath>
						<g style="clip-path:url(#SVGID_00000088111337897756221000000016745727897843666605_);">
							<g id="maternity1-2">
								
									<linearGradient id="SVGID_00000122691590489536462380000002683179374930382229_" gradientUnits="userSpaceOnUse" x1="71.3341" y1="-0.918" x2="69.3222" y2="139.2332" gradientTransform="matrix(1 0 0 -1 0 137.536)">
									<stop  offset="0" style="stop-color:#EADC97"/>
									<stop  offset="0.11" style="stop-color:#EEE2A9"/>
									<stop  offset="0.37" style="stop-color:#F5EFCE"/>
									<stop  offset="0.62" style="stop-color:#FBF8E9"/>
									<stop  offset="0.83" style="stop-color:#FEFDF9"/>
									<stop  offset="1" style="stop-color:#FFFFFF"/>
								</linearGradient>
								
									<rect x="-7.6" y="1" style="fill:url(#SVGID_00000122691590489536462380000002683179374930382229_);" width="156" height="137.9"/>
								<path class="st3" d="M16.9,102.4l23.6-4.7c0.7-0.1,1.5,0.3,1.6,1.1l3.1,15.8c0.1,0.7-0.3,1.5-1.1,1.6l-23.2,4.6
									c-1.3,0.3-2.6-0.6-2.9-1.9l0,0l-2.8-14C15,103.7,15.8,102.6,16.9,102.4L16.9,102.4z"/>
								<path class="st4" d="M21,101.6l22-4.4c1.4-0.3,2.8,0.6,3.1,2.1l2.6,13.2c0.3,1.5-0.7,3-2.2,3.3c0,0,0,0,0,0L24.9,120
									c-1.5,0.3-2.9-0.7-3.2-2.1l0,0l-2.7-13.5C18.8,103.1,19.7,101.8,21,101.6C21,101.5,21,101.5,21,101.6L21,101.6z"/>
								<path class="st4" d="M26,101.4c-0.4-0.8-0.5-1.7-0.3-2.5c0.8-2.9,6-5,9.3-3.3c1.2,0.7,2.1,1.8,2.6,3.2l-2.1,0.5
									c0-0.8-0.3-1.5-0.8-2.1c-1.8-1.7-6.7-0.3-7.2,1.8c-0.1,0.7,0.1,1.3,0.5,1.8L26,101.4z"/>
								<path class="st5" d="M31,86.7l-0.2,4.5l-2.2,0.9l-1.1,6.1c1.7,1.3,4.4,1,7.5,0.1c0.7-1.8,0.7-3.9,0.1-5.7
									c-0.1-0.4-0.3-0.8-0.6-1.1l0.9-5.1L31,86.7z"/>
								<path class="st6" d="M39.9,50.9l0.2,34.6c6.8,3.5,15.1,3.2,24.3,0.1l-0.1-34.7C55.3,46.8,47.2,47.1,39.9,50.9z"/>
								<path class="st7" d="M50.3,86.3l2.9,38l1.4,30c4.3,1.2,8.3,1.4,11.7-0.3l-1-30.5l-0.9-38.2L50.3,86.3z"/>
								<path class="st7" d="M40.7,85.3L37.5,125l1.9,28.9c4,1.6,5.5,2,11.2,0.4l-2.2-29.1l4.7-37.6L40.7,85.3z"/>
								<path class="st4" d="M40,82.1l0.1,5.6c7.6,2.6,15.9,2.1,24.7-0.5l-0.1-5.8C56.7,83.8,48.2,84.1,40,82.1z"/>
								<path class="st7" d="M55.8,48.1c-0.6,5.1-1.1,10.5-1.5,16.4c-0.3,4.7-0.5,8.1-0.5,12.6c0.1,5.5,0.5,11,1.3,16.5
									c3.9,0.9,8.1-0.2,11.1-3l-2.3-40.5L55.8,48.1z"/>
								<path class="st7" d="M46.2,48.4c0.3,4.5,0.4,9.1,0.5,13.9c0.1,5.4,0,10.5-0.2,15.5c-0.2,4.9-0.1,10-0.2,15l-6.4-1.6
									l-0.2-40.8C41.7,49.3,43.9,48.6,46.2,48.4z"/>
								<path class="st8" d="M53.9,82.5l1,11.4c3.3,0.3,6.7-0.4,9.6-2"/>
								<path class="st8" d="M39.9,91.2l6.3,2c0.5-17.7,1-35.5,0-44.6"/>
								<path class="st8" d="M54,73.3c0.2-8.3,0.6-16.7,1.5-24.2"/>
								<polyline class="st8" points="55.9,64.9 56.1,64.4 59.2,64.4 59.2,64.7 								"/>
								<path class="st7" d="M43.3,52.1c-7.1-9-10.8,19.9-10.9,23c-1.7,4.8-3,9.7-3.7,14.8c2.5,0.8,8.2,4.5,9,0.3
									c1.1-4.6,2-9.3,2.5-14.1c1.1-1.6,1.8-3.4,2.1-5.3C44.3,57.6,45.6,54.7,43.3,52.1z"/>
								<path class="st7" d="M64,50.6c3.1,1.3,3.3,4.5,7.5,17.2c0.6,1.7,0.7,3.6,0.5,5.4c-0.2,2.4-2.2,4.3-4.7,4.1
									c-1.3-0.1-2.4-0.7-3.2-1.7C61.7,68.4,60,60.9,59,53.2c0-1,0.4-2,1.1-2.7C61.5,49.6,63.4,50.4,64,50.6z"/>
								<path class="st7" d="M71.2,75.2c-1.2,3-3.8,3.1-14.5,6.8c-0.7,0.2-1.4,0.4-2.1,0.5c-1,0.1-2.2,0.4-2.4-0.1
									c-1-2.5-1.6-5.2-1.6-8c6-2.1,12.3-3.5,18.7-4.1c0.9,0.1,1.7,0.6,2.1,1.3C72.1,72.8,71.4,74.6,71.2,75.2z"/>
								<path class="st8" d="M60,59l2.7,12.1l-11.9,3.2c0.1,2.8,0.6,5.6,1.6,8.2c4.6-0.5,9.1-1.8,13.3-3.6"/>
								<path class="st9" d="M62.3,27.6c1.5,0.3,2.1,2.9,2.3,3.5c0.8,3.4-1.5,4.7-1.1,9.1c0.2,1.9,0.7,2.2,0.7,4.3
									c0,2.6-0.7,2.9-0.4,4.4c0.5,2.5,2.7,3.1,2.5,4.9c-0.2,0.9-0.8,1.7-1.6,2.2c-1.8,1.1-4.5,0.8-5.3-0.5c-0.5-0.7,0-1.4-0.8-2.3
									c-0.5-0.5-0.8-0.4-1.4-0.9c-1.1-0.8-1.1-1.8-2-4c-0.4-0.9-0.8-1.7-1.2-2.5C51.7,41.3,58.4,26.8,62.3,27.6z"/>
								<path class="st9" d="M56.8,22.5c-1.6-0.9-3.5-1.2-5.3-1c-2.7,0.6-5,2.3-6.3,4.8c-1.3,1.5-2.4,3.1-3.4,4.8
									c-0.8,1.2-1.4,2.6-1.6,4c-0.1,1.3,0.1,2.7,0.5,3.9c0.7,1.8,1.5,2.2,1.4,3.1c-0.2,1-1.3,1-2.5,2.4c-1.2,1.4-0.8,2.1-2,4.2
									c-1.2,2.1-1.9,1.9-2.8,3.6c-0.4,0.7-2,3.9-0.5,6c1.5,2.2,4.8,1.4,5.3,1.3s3.5-0.6,4.6-3.1c0.7-1.4,0.1-2.1,0.7-4.3
									c0.4-1.3,1-2.6,1.8-3.7c1.5,0.2,3.1,0.2,4.5-0.2c5.5-1.3,8.2-6.3,9-7.7c3.2-5.9,3.7-14.7-0.3-17.4
									C59,22.7,57.9,22.4,56.8,22.5z"/>
								<path class="st5" d="M46.7,40.5l-0.2,8.3c0.3,0.4,0.7,0.8,1.1,1.1c1.1,0.9,2.4,1.4,3.8,1.5c0.4,0.5,1,0.7,1.7,0.6
									c0.6-0.4,1.2-0.9,1.7-1.4c0-2.2-0.9-3.3-1-5.5L46.7,40.5z"/>
								<path class="st5" d="M48.4,36.8c-0.6-1.7-2.5-3-3.4-2.5c-0.9,0.5-0.9,3.2,0.4,4.9c0.1,0.1,1.3,1.7,2.3,1.4
									S49,38.3,48.4,36.8z"/>
								<path class="st10" d="M54.3,49.2c-3.4-2.6-6.5-5.2-6.9-7.7l6.6,4.3C54.2,46.9,54.3,48,54.3,49.2z"/>
								<path class="st5" d="M59.9,26.9c5.6,1.6,4.2,18.3-3.6,18.8c-4.3,0.4-7.7-0.8-9.5-5.3c0.3-2.6,1-3.4,1.6-3.7
									c0.3-0.1,0.5-0.1,1.1-0.4c0.6-0.3,1.2-0.6,1.8-1.1c1.8-1.3,2.1-0.9,2.9-1.7c1-1,0.5-1.6,1.6-2.6c1-1,1.7-0.8,2.7-1.7
									C59.2,28.7,59.7,27.8,59.9,26.9z"/>
								<path class="st11" d="M45.6,34.9c0.9-0.1,2,3.1,2,3.1l0,0c-0.1,0-0.7-0.3-0.9-0.1c-0.2,0.2-0.1,0.1-0.1,0.1
									c0-0.1,0-0.2,0.1-0.3c0.2-0.2,0.7,0.1,0.9,0.2c-0.2-0.3-1.1-2.6-1.8-2.8c-0.3,0-0.6,0.2-0.6,0.2
									C45.1,35.3,45.3,35,45.6,34.9z"/>
								<ellipse class="st9" cx="53.6" cy="35.1" rx="0.9" ry="1.2"/>
								<ellipse class="st9" cx="59.6" cy="34.8" rx="0.9" ry="1.2"/>
								<path class="st9" d="M60.2,34.3c0.4-0.1,0.8-0.3,1.1-0.6c-0.4,0.3-0.9,0.3-1.4,0.1L60.2,34.3z"/>
								<path class="st9" d="M52.8,35c-0.4-0.1-0.8-0.3-1.1-0.6c0.4,0.3,0.9,0.3,1.4,0.1L52.8,35z"/>
								<polygon class="st12" points="56.2,38.9 58.5,38.8 57.4,34 57.3,34 57.8,38.3 56.2,38.8 								"/>
								<polygon class="st9" points="57.9,38.4 57.3,33.9 57.2,33.9 57.6,38.4 								"/>
								<path class="st13" d="M60.7,32.4c-0.3-0.4-0.8-0.5-1.3-0.4"/>
								<path class="st14" d="M46.5,48.9l0.2-2.5c0.8,3.1,1.5,4.1,5,4.9l-2.3,2.4C46.2,51.4,46.4,50.9,46.5,48.9z"/>
								<path class="st14" d="M51.5,51.3l2.5,2.3c0.8-2.3,2.3-3.1,1.7-5l-1.6-2.2C54.3,47.8,52.4,50.3,51.5,51.3z"/>
								<circle class="st14" cx="50.7" cy="54" r="0.5"/>
								<circle class="st14" cx="50.9" cy="60.6" r="0.5"/>
								<circle class="st14" cx="50.9" cy="68.6" r="0.5"/>
								<polygon class="st14" points="49,51.8 49.5,82.6 49.6,52 50,51.6 								"/>
								<circle class="st14" cx="50.6" cy="79.4" r="0.5"/>
								<path class="st8" d="M39.9,91.4c-0.2-10.3-0.3-20.4-0.3-30.5"/>
								<path class="st15" d="M99.3,25.8c2.1,0.8,3.8,2.3,5,4.1c1.7,2.8,0.9,5.2,1.8,10c0.6,3,2.6,5,3.3,6.6
									c-3.6,9.6-23.3,10.8-26.9,0.9c0.2-4.6-0.5-8-0.1-10.8c1.1-7.4,2.4-9.1,3.4-10.1C89.4,22.7,95.4,22.4,99.3,25.8z"/>
								<path class="st16" d="M94.3,90.7l5.4,34.8c0,3.2,0.2,5.7,0.4,7.4c1,12.8,3.2,12.8,2.4,18.4c-0.2,1.3-0.6,3.3,0.6,4.5
									c1.2,1.1,3.8,0.7,4.2,0.6c0.8-0.1,1.6-0.5,2.1-1.1c0.8-1.1,0.2-2.8,0-3.3c-1.3-4.1,0.3-7.2,0.3-21.4c0-2-0.1-4-0.3-6
									l-1.6-38.1L94.3,90.7z"/>
								<path class="st16" d="M87.8,90.8l-5.1,35.9l0.2,29c3.9,1.8,0.7,2.2,6.4,0.9c-0.3-1.1-0.5-2.3-0.6-3.4
									c-0.7-7.3,2.4-11.2,3.4-19.9c0.3-2.1,0.4-4.3,0.3-6.5l8-36.6L87.8,90.8z"/>
								<path class="st16" d="M88.7,54.8c2.2,2.5,0.9,5.5-1,18.8c-0.3,1.8-0.9,3.5-1.9,5c-1.2,2.1-3.9,2.8-6.1,1.6
									c-1.1-0.6-1.8-1.7-2.1-2.9c1-7.6,2.9-15.1,5.5-22.3c0.5-0.9,1.3-1.6,2.3-1.9C86.9,52.8,88.3,54.4,88.7,54.8z"/>
								<path class="st17" d="M109,53.1c-2.2-1-4.5-1.7-6.8-2.2c-5.2-1.1-10.6-0.7-15.5,1.3c-0.8,0.2-1.5,0.4-2.3,0.6
									c0.3,1.5,0.4,3.1,0.4,4.7c0,1.2,0,2.4-0.3,3.6c-0.6,2.7-1.5,2.8-1.7,5c-0.1,1.4,0.1,3.4,1.1,4c0.4,0.2,0.8,0.5,1.1,0.8
									c0.2,0.2,0.4,0.5,0.5,0.8c0.3,0.5,0.4,1,0.6,1.5c0.6,2.3-0.2,3.3-0.9,7.8c-0.3,2.3-0.4,12.2-0.4,13.4
									c3.6,1.3,7.5,1.9,11.4,1.8c4.1,0,8-2.1,12.7-3.6L109,53.1z"/>
								<path class="st16" d="M93.3,59.7c1,0.2,1.8-0.6,3.9-2.5c4.8-4.2,6.5-5.5,6.1-6.1c-0.1-0.1-0.4-0.3-1-0.3
									c-5.2-1.1-10.6-0.7-15.5,1.3c1.6,1.4,2.9,3,4,4.7C91.9,58.5,92.2,59.6,93.3,59.7z"/>
								<path class="st18" d="M85.2,70.9c1.5,0.6,3.1,0.9,4.7,1c6.6,0.7,13.3-0.6,19.3-3.5l-0.1,4.7c-6.5,1.6-14,3.2-20.2,2.3
									c-1.1-0.2-1.7-0.2-2.7-0.4L85.2,70.9z"/>
								<path class="st16" d="M83.1,75.2l-15-4.8c-0.5-0.2-1-0.5-1.4-0.9c0.2-0.7,0.2-1.5-0.1-2.3c-0.4-1.1-1.1-1-1.9-2.4
									c-0.5-1-0.6-1.8-1.1-1.8c-0.4,0-0.6,0.4-0.6,0.4c-0.4,0.8,0.4,2,0.5,2.1c0.5,0.7,1,0.9,0.9,1.3c-0.1,0.2-0.2,0.4-0.4,0.5
									c-0.9-0.3-1.6-0.8-2.3-1.5c-1.5-1.6-2-3.8-2.6-3.7c-0.1,0-0.1,0.1-0.2,0.1c-0.4,0.4,0.1,1.3,0.2,1.5
									c-0.4-0.4-1.1-1.3-1.5-1.1l0,0c-0.1,0.1-0.2,0.7,2.2,4.3c-0.9-1.5-2.1-3-2.5-2.8c-0.1,0-0.1,0.1-0.1,0.1
									c-0.4,0.9,1.8,3.5,2.2,4c-1-1.1-2.1-2.3-2.3-2.1c-0.1,0-0.1,0.1-0.1,0.2c0,1.9,2.3,3.9,2.3,3.9c0.7,0.6,1.4,1.2,2.3,1.6
									c1.2,0.6,2.5,1,3.9,1.1c4.9,5.1,11.7,7.8,18.7,7.4L83.1,75.2z"/>
								<path class="st16" d="M100.6,43.2l0.2,8.3c-1.5,1.7-3.4,3.1-5.5,3.9c-1,0.6-1.5,0.3-1.8-0.4v-7.3L100.6,43.2z"/>
								<path class="st19" d="M93.5,51.8c3.4-2.6,6.1-5.1,6.5-7.6l-6.5,4.3V51.8z"/>
								<path class="st16" d="M85.8,31.4c-4.5,4.7-0.7,15.9,5.3,17c3.2,0.6,6.9-1.7,9.5-5.3l-1.8-12.4
									C93.9,28.3,88.5,28.6,85.8,31.4z"/>
								<ellipse class="st9" cx="93.9" cy="37.8" rx="0.9" ry="1.2"/>
								<ellipse class="st9" cx="87.8" cy="37.5" rx="0.9" ry="1.2"/>
								<path class="st9" d="M87.2,37c-0.4-0.1-0.8-0.3-1.1-0.6c0.4,0.3,0.9,0.3,1.4,0.1L87.2,37z"/>
								<path class="st9" d="M94.6,37.7c0.4-0.1,0.8-0.3,1.1-0.6c-0.4,0.3-0.9,0.3-1.4,0.1L94.6,37.7z"/>
								<polygon class="st19" points="91.2,41.6 88.9,41.5 90,36.7 90.1,36.7 89.6,41 91.2,41.5 								"/>
								<polygon class="st9" points="89.5,41.1 90.1,36.6 90.2,36.6 89.8,41.1 								"/>
								<path class="st13" d="M86.4,34.8c0.6-0.3,1.3-0.3,1.9,0"/>
								<path class="st16" d="M99.1,38.4c0.6-1.7,2.5-3,3.4-2.5s0.9,3.2-0.4,4.9c-0.1,0.1-1.3,1.7-2.3,1.4S98.5,39.9,99.1,38.4z"/>
								<path class="st19" d="M101.9,36.6c-0.9-0.1-2,3.1-2,3.1l0,0c0.1,0,0.7-0.3,0.9-0.1c0.2,0.2,0.1,0.2,0.1,0.1s0-0.2-0.1-0.3
									c-0.1-0.1-0.7,0.1-0.9,0.2c0.2-0.3,1.1-2.6,1.8-2.8c0.3,0,0.6,0.2,0.6,0.1C102.5,36.9,102.2,36.6,101.9,36.6z"/>
								<path class="st13" d="M93,35c0.6-0.3,1.3-0.3,1.9,0"/>
								<path class="st17" d="M81.3,89.9c3.4,15.6,2,27.2,0.4,38.6c9.6,2.6,19.3,2.1,29.1-0.6L109,92.4L81.3,89.9z"/>
								<path class="st15" d="M92.1,26.3l-0.5,2.7l0.1,0.3c0.7,1.5,1.7,2.8,3,3.8c1,0.7,2,1.1,3.6,2.4c0.6,0.5,1.2,1,1.8,1.5v-6.4
									L92.1,26.3z"/>
								<path class="st15" d="M91.3,29c-0.4,2.3,4.3,5.5,7.2,7.5c-2.8-2.2-7-5.6-6.8-7.8L91.3,29z"/>
								<path class="st15" d="M91.4,28.9c-2.1-0.9-6.5,2.7-7.1,6c2.3-4.6,5.1-6.2,7.3-5.5L91.4,28.9z"/>
								<path class="st20" d="M101.3,36c-0.2-1.3-0.7-2.5-1.3-3.6c-0.4-0.8-3.2-5.9-7.9-6.2c-1-0.1-2,0.1-3,0.4
									c-1.2,0.4-2.4,1.1-3.3,2.1c-1,1-1.8,2.1-2.4,3.3c0,0.1,0,0.1,0,0.2c0,0.1,0,0.1,0,0.2c0.9-1.4,2-2.5,3.4-3.3
									c1.7-1,3.7-1.6,5.7-1.5c3.6,0.5,6.8,4.3,7.6,9.6L101.3,36z"/>
								<path class="st17" d="M87.1,85.1c0,7.9,0.6,17.7,0.1,18.2c0,0.1-0.1,0.1-0.2,0.1c-2.1,0.8-11.4-9.1-9.7-18.2
									C78.4,79,84.6,74,86.7,75C88,75.6,87.1,78.2,87.1,85.1z"/>
								<path class="st21" d="M106.3,93.6l-4.1-38.9c0.2-1.7,1.3-4,3-3.7c1.6,0.3,3,1.3,3.8,2.8c2.2,14.1,2.3,30.4,6.6,37.5"/>
								<path class="st16" d="M107.5,52c2.3,1.5,2.1,4.6,4.4,17.6c0.3,1.8,0.3,3.6,0,5.4c-0.4,4-4.4,5.3-6,2
									c-1.3-7.5-2.1-15.1-2.2-22.7c0.1-1,0.5-1.9,1.1-2.6C105.7,50.9,107.1,51.7,107.5,52z"/>
								<path class="st22" d="M102.3,93.6l9.6-2.1c2-0.4,4,0.8,4.4,2.8l1.9,8.6c0.4,2-0.8,4-2.8,4.4l-9.6,2.1c-2,0.4-4-0.8-4.4-2.8
									l-1.9-8.6C99,96.1,100.2,94.1,102.3,93.6z"/>
								<path class="st23" d="M105.9,92.8l9.5-2.1c2-0.4,4,0.8,4.5,2.9l1.9,8.5c0.4,2-0.8,4-2.9,4.5l-9.5,2.1c-2,0.4-4-0.8-4.5-2.9
									l-1.9-8.5C102.6,95.2,103.9,93.2,105.9,92.8z"/>
								<polygon class="st22" points="120.3,95 113.7,100.7 102.9,99.2 103.3,99.7 113.9,101.7 120.6,95.7 								"/>
								<circle class="st22" cx="113.4" cy="99.2" r="0.6"/>
								<path class="st16" d="M105.8,75.9L96,88.1c-0.4,0.4-0.9,0.8-1.4,1c-0.6-0.5-1.4-0.8-2.2-0.8c-1.1,0-1.4,0.7-3,0.9
									c-1.1,0.2-1.9-0.1-2.1,0.3s0.2,0.7,0.2,0.7c0.6,0.7,2,0.4,2.2,0.3c0.8-0.2,1.2-0.6,1.6-0.4c0.2,0.1,0.3,0.4,0.3,0.6
									c-0.6,0.7-1.4,1.3-2.2,1.7c-2,0.9-4.3,0.5-4.4,1.1c0,0.1,0,0.2,0,0.2c0.3,0.5,1.3,0.4,1.5,0.3c-0.5,0.2-1.6,0.6-1.6,1
									c0,0,0,0.1,0,0.1c0.1,0.1,0.6,0.4,4.8-0.5c-1.7,0.4-3.6,0.8-3.6,1.3c0,0.1,0,0.1,0.1,0.2c0.7,0.7,3.9-0.4,4.5-0.6
									c-1.4,0.5-2.9,1.1-2.8,1.4c0,0.1,0.1,0.1,0.1,0.1c1.7,0.7,4.5-0.7,4.5-0.7c0.8-0.4,1.6-0.9,2.3-1.5c1-0.9,1.9-2,2.5-3.2
									c6.5-2.7,11.5-8.1,13.6-14.8L105.8,75.9z"/>
							</g>
						</g>
					</g>
					<circle class="st24" cx="69.9" cy="71" r="61.4"/>
					<path class="st25" d="M8.4,16.8l48.7,0.2l3.8,4.8l3.3,0.1l0.1-18.2c0-1.2-1.8-2.3-4-2.3L9,1.7c-2.2,0-4,1-4,2.2v11.8
						C4.9,16.8,6.6,16.8,8.4,16.8z"/>
					<path class="st26" d="M8,17.4l48.7,0.1l4.2,4.3v-4.3V3.9c0-1.2-1.8-2.3-4-2.3L8.7,1.5c-2.2,0-4,1-4,2.3v11.8
						C4.7,16.6,6.2,17.4,8,17.4z"/>
					<text transform="matrix(1 0 0 1 10.6265 14.0614)" class="st9 st27 st28">GO</text>
					<text transform="matrix(1 0 0 1 28.6079 14.0614)" class="st9 st27 st28 st29">V</text>
					<text transform="matrix(1 0 0 1 35.2573 14.0614)" class="st9 st27 st28">.UK</text>
				</g>
			</g>
		</g>
	</g>
</g>
</svg>
