<svg xmlns="http://www.w3.org/2000/svg" xmlns:xlink="http://www.w3.org/1999/xlink" viewBox="0 0 97.77 114.52"><defs><style>.cls-1,.cls-22,.cls-25,.cls-30,.cls-39{fill:none;}.cls-2{fill:#e6e6e6;}.cls-3{fill:#8277ab;}.cls-32,.cls-37,.cls-38,.cls-4,.cls-49{fill:#fff;}.cls-5{fill:url(#linear-gradient);}.cls-6{fill:#716794;}.cls-7{fill:#eb2700;}.cls-8{fill:#fcee21;}.cls-9{fill:#8cc63f;}.cls-10{fill:#efeeee;}.cls-11{fill:#31ab94;}.cls-12{clip-path:url(#clip-path);}.cls-13{fill:url(#linear-gradient-2);}.cls-14{fill:#d4bfa1;}.cls-15{fill:#7e7494;}.cls-16{fill:url(#linear-gradient-3);}.cls-17{fill:#0095bf;}.cls-18{fill:#f8c7a3;}.cls-19{fill:#e3b696;}.cls-20{fill:#0083a8;}.cls-21{fill:#412a74;}.cls-22{stroke:#2e3192;stroke-linecap:round;}.cls-22,.cls-25,.cls-30,.cls-37,.cls-39{stroke-miterlimit:10;}.cls-23{fill:#8c899b;}.cls-24{fill:url(#linear-gradient-4);}.cls-25{stroke:#5967a8;}.cls-26{fill:#f5ffe5;}.cls-27{fill:#e0f1c4;}.cls-28{fill:#5d2d56;}.cls-29{fill:#c66b8b;opacity:0.27;}.cls-29,.cls-32{isolation:isolate;}.cls-30{stroke:#1b1464;stroke-width:2px;opacity:0.22;}.cls-31{fill:#999;}.cls-32{font-size:4.49px;}.cls-32,.cls-36,.cls-38{font-family:Arial-BoldMT, Arial;font-weight:700;}.cls-33{letter-spacing:-0.09em;}.cls-34{fill:#ccc;}.cls-35{fill:#227868;}.cls-36{font-size:4px;}.cls-37,.cls-39{stroke:#000;stroke-width:0.5px;}.cls-38{font-size:3.04px;}.cls-40{fill:red;}.cls-41{fill:#ff0;}.cls-42{fill:#39b54a;}.cls-43{fill:#56399c;}.cls-44{fill:#b879b0;}.cls-45{fill:#6585f5;}.cls-46{fill:#ee786b;}.cls-47{fill:#d66c60;}.cls-48{fill:#c9665a;}.cls-49{opacity:0.18;}.cls-50{fill:#1b1464;}.cls-51{fill:#cc9fc7;}.cls-52{fill:#6b5a91;}.cls-53{fill:#74b0a4;}.cls-54{fill:#88cec1;}.cls-55{fill:#7dbdb1;}</style><linearGradient id="linear-gradient" x1="-130.39" y1="648.09" x2="-130.39" y2="713.76" gradientTransform="translate(172.4 -637.6)" gradientUnits="userSpaceOnUse"><stop offset="0" stop-color="#fff"/><stop offset="1" stop-color="#afd9d1"/></linearGradient><clipPath id="clip-path" transform="translate(4.05)"><path class="cls-1" d="M73.11,70.93C72.3,118,2.26,118,1.47,70.92,2.27,23.84,72.31,23.85,73.11,70.93Z"/></clipPath><linearGradient id="linear-gradient-2" x1="37.29" y1="111.67" x2="37.29" y2="30.18" gradientUnits="userSpaceOnUse"><stop offset="0.18" stop-color="#cedcc8"/><stop offset="0.24" stop-color="#d4e0ce"/><stop offset="0.53" stop-color="#ebf1e9"/><stop offset="0.8" stop-color="#fafbf9"/><stop offset="1" stop-color="#fff"/></linearGradient><linearGradient id="linear-gradient-3" x1="46.53" y1="55.12" x2="46.65" y2="61.1" gradientTransform="translate(0 36.46)" gradientUnits="userSpaceOnUse"><stop offset="0.8" stop-color="#8d82a6"/><stop offset="1" stop-color="#554e63"/></linearGradient><linearGradient id="linear-gradient-4" x1="53.95" y1="36.12" x2="54.43" y2="60.47" gradientTransform="translate(0 36.46)" gradientUnits="userSpaceOnUse"><stop offset="0.43" stop-color="#7e7494"/><stop offset="1" stop-color="#625a73"/></linearGradient><symbol id="service-right-gradient" data-name="service-right-gradient" viewBox="0 0 86.16 99.82"><path class="cls-2" d="M75.66.59c4.2-.8,8.7,1.8,8.8,6.2l1.7,81.8a10.61,10.61,0,0,1-11.4,10.8"/><path class="cls-3" d="M81.26,10.39l3.3.6C85.66,2.79,81-.91,73.66.19Z"/><path class="cls-4" d="M14.66,11c54-8.1,67.1-16.5,67.1-.6,0,25.5,0,34.8,1,78.6a10.61,10.61,0,0,1-11.4,10.8L8.46,95a8.7,8.7,0,0,1-8-9.5l5.7-65.3A10.1,10.1,0,0,1,14.66,11Z"/><polygon class="cls-5" points="81.66 10.49 82.56 76.09 1.46 74.89 5.86 22.79 81.66 10.49"/><path class="cls-6" d="M5.86,22.79l76-12.3C82.66,5.19,79-.91,73,.29L14,11C8.26,12,5.66,17.49,5.86,22.79Z"/><path class="cls-7" d="M9.86,15.79c1.6-3.5,5.7-1.6,4,1.9S8.16,19.29,9.86,15.79Z"/><path class="cls-8" d="M17.36,14.49c1.6-3.5,5.7-1.6,4,1.9S15.66,18,17.36,14.49Z"/><path class="cls-9" d="M25.46,13.39c1.6-3.5,5.7-1.6,4,1.9S23.76,16.89,25.46,13.39Z"/><path class="cls-10" d="M74.36,99.49c-4.2-.9-67.6-1.9-69.5-5.3-6.2-3-5-12.6-4.2-19.3l1,.1c-1.2,9.1-1.9,19.2,8.7,20.1,1.3.4,62.3,4,63.6,4.2a9.2,9.2,0,0,0,3.1-.7l.1-.1C76.66,99.09,76,99.49,74.36,99.49Z"/><polygon class="cls-10" points="82.56 76.79 0.56 75.39 5.86 22.79 6.76 22.69 1.66 74.39 82.56 75.79 82.56 76.79"/><polygon class="cls-11" points="64.46 81.89 64.56 90.39 70.36 90.79 71.66 93.89 72.66 90.69 75.06 90.99 74.76 82.19 64.46 81.89"/><polygon class="cls-11" points="22.46 87.99 22.86 81.49 29.56 81.69 29.36 83.49 31.56 82.39 31.16 88.49 29.26 86.99 29.06 88.79 22.46 87.99"/><path class="cls-11" d="M10,81.79a3.87,3.87,0,0,1,2.5-3.1c3.7,3.6-2.5,13.8-7.4,11-.2-1.5.6-2.7,2-3.8a2.24,2.24,0,0,1,1.1,1.8c1.9-1.2,3.3-2.7,3.5-4.9A5.85,5.85,0,0,1,10,81.79Z"/><polygon class="cls-10" points="16.41 95.23 17.41 95.3 18.91 74.86 17.91 74.78 16.41 95.23"/><polygon class="cls-11" points="51.76 83.89 51.76 81.99 42.66 81.99 42.66 83.39 47.16 85.69 51.76 83.89"/><polygon class="cls-11" points="42.66 84.59 42.56 90.39 51.66 90.79 51.76 85.19 46.96 86.99 42.66 84.59"/><polygon class="cls-10" points="35.51 96.75 36.51 96.8 37.6 75.73 36.6 75.68 35.51 96.75"/><polygon class="cls-10" points="57.26 98.46 58.26 98.5 59.05 75.91 58.05 75.88 57.26 98.46"/></symbol></defs><g id="Layer_2" data-name="Layer 2"><g id="MainLayer"><g id="retirement3"><g class="cls-12"><path class="cls-13" d="M78.62,70.93c-.93,54.33-81.75,54.32-82.67,0C-3.12,16.59,77.7,16.6,78.62,70.93Z" transform="translate(4.05)"/><polygon class="cls-14" points="3.12 96.39 96.75 82.94 96.75 109.76 13.81 114.52 3.12 96.39"/><path class="cls-15" d="M34.16,98.75,22,93.71v-.82l33-.12,16.19,4.46.06,1.7C70.43,98.75,33.35,99.92,34.16,98.75Z" transform="translate(4.05)"/><path class="cls-16" d="M34.1,97.11,22,92.07l33-.88,16.31,6.1C70.1,97.06,33.8,98.35,34.1,97.11Z" transform="translate(4.05)"/><path class="cls-17" d="M32.63,71.3l2.76,21.24c-6.33,3.63-14,3.28-22.46.11L10.11,71.3C18.44,67.08,25.89,67.43,32.63,71.3Z" transform="translate(4.05)"/><polygon class="cls-17" points="35.92 82.39 49.47 86.67 51.05 83.33 36.62 71.3 35.92 82.39"/><path class="cls-18" d="M18.62,61.92l-.18,8.86c1.11,1-.18-.12,3.52,1.34,1,.71,5.51.65,5.81-.05L26.65,67.2Z" transform="translate(4.05)"/><path class="cls-19" d="M27.06,70.89c-5.22-.06-7.8-3.34-8.33-6.92l7.69,4.34Z" transform="translate(4.05)"/><path class="cls-20" d="M25.13,72.54l2.34,3.63a7.17,7.17,0,0,0,1.06-6.8c-.47-.29-.94-.94-1.59-1C27.06,71,26.59,72.42,25.13,72.54Z" transform="translate(4.05)"/><path class="cls-20" d="M18.5,66.55c1.11,4.46,3.28,6.16,6.63,6L22.43,77c-2.88-2-5.28-4.87-5.28-8.5Z" transform="translate(4.05)"/><path class="cls-18" d="M23.07,49.19C18,53,15,66,23.25,69c6.45,3.57,7.8-4.52,9.09-10.8C34.22,51.6,28.65,47,23.07,49.19Z" transform="translate(4.05)"/><path class="cls-21" d="M25.54,59.16c-.41,1.23-1.76.77-1.35-.41S26,58,25.54,59.16Z" transform="translate(4.05)"/><path class="cls-21" d="M30.29,60.51c-.41,1.23-1.76.76-1.35-.41S30.7,59.34,30.29,60.51Z" transform="translate(4.05)"/><polygon class="cls-19" points="30 62.51 31.4 62.51 32.11 59.16 32.17 59.16 31.76 63.09 30 62.56 30 62.51"/><polygon class="cls-21" points="31.23 62.51 32.05 58.99 32.11 59.05 31.4 62.62 31.23 62.51"/><path class="cls-22" d="M29.88,58.22a1.49,1.49,0,0,1,1.46.42" transform="translate(4.05)"/><path class="cls-22" d="M24.72,56.58a1.5,1.5,0,0,1,1.46.41" transform="translate(4.05)"/><path class="cls-23" d="M18.73,55.82c1.46-3.51,1.76-8.37,8.33-7.16,1-.33,2.41.5,3.05,1,3.56.38,2.83.34,4.75,2.58.24.47-2.34,1.18-2.46,1.23s-1.06-1-1.35-1a6.58,6.58,0,0,1-2-.18c-6.91-2.68-4.36.28-7.39,5.16l-1.35.06Z" transform="translate(4.05)"/><path class="cls-18" d="M17.8,59.1c-1.06-4,2.4-5.39,2.93-1.05C20.61,61,18.38,61.63,17.8,59.1Z" transform="translate(4.05)"/><path class="cls-19" d="M18.56,56.17c1.11-.35,1.11,2.23,1.17,2.64-.12-.17-.64-.64-.76-.17.17-.36.76.11.76.17S19.63,54.84,18.56,56.17Z" transform="translate(4.05)"/><path class="cls-19" d="M25.6,60.28c-1.35.76-2.06.47-2.35-.53a1.81,1.81,0,0,0,2.46.18Z" transform="translate(4.05)"/><path class="cls-19" d="M28.47,61c.35,1.41.88,1.47,1.58.82-.76.24-1.29-.17-1.4-1.11Z" transform="translate(4.05)"/><path class="cls-23" d="M28.7,66.49c.59.88,2.06-1.29,2.17-1.75-.9,2.18-.72,4.93-3.75,5.51-2.66.37-7.9-2.28-8.39-5.87.39-2.39,2-4.28,1.76-7.56l1.7-1.23C22,57,20,63.4,22.72,64.74c.76.05,1.06-1.24,2.17-1.65a2.78,2.78,0,0,1,3.29,1.06C28.59,64.91,28.18,65.61,28.7,66.49Z" transform="translate(4.05)"/><path class="cls-17" d="M7.41,73.06c-1.52,2.41-.29,4.7,3,15.55,0,5.61,8.07,6.9,9.09,1.81-1.65-5.86-4.64-11.2-7.86-17.36-.24-.29-.3-1.81-1.35-1.81A4,4,0,0,0,7.41,73.06Z" transform="translate(4.05)"/><path class="cls-18" d="M30.46,89.07c2.06-.86,7.34,1.36,6.57,3.82-2.09,3-7.35,2-9,.06Z" transform="translate(4.05)"/><path class="cls-17" d="M13.4,92.36c1.53,2.32,10.48,3.68,16.36,2.87,1.11-1.82.94-4.1.7-6.51a111.27,111.27,0,0,1-16.36-.94C11.9,88.16,12.42,91.6,13.4,92.36Z" transform="translate(4.05)"/><path class="cls-24" d="M70.58,71.71H40.43c-2.22,0-4,2.06-4,4.64L33.63,95.88a1.33,1.33,0,0,0,1.23,1.41c.63-.75,38.37,1.72,36.78-1.41L74.8,76.52C74.8,73.88,72.93,71.71,70.58,71.71Z" transform="translate(4.05)"/><path class="cls-4" d="M51.4,84.44c.47,1.56,5.49,1.92,6.34.47.35-.76-1-1.29-.83-2.52.12-.88.88-1.06.71-1.58-.29-.88-2.76-1.53-3.52-.94-.53.41.35,1-.06,2.11C53.51,83.39,51.28,83.56,51.4,84.44Z" transform="translate(4.05)"/><path class="cls-4" d="M55.68,79.93a.88.88,0,0,0,.24-1.29h-.18l-.06-.18c.27-.35,1.14.25.53.23A1.08,1.08,0,0,1,56,80Z" transform="translate(4.05)"/><path class="cls-25" d="M10,86.67c.62,9.78,12,8.75,19.71,8.68.94-.88,1.17-3.11.76-6.51-5.22.12-10-.06-13.43-1.35a35.15,35.15,0,0,0-3.46-10.15" transform="translate(4.05)"/><path class="cls-25" d="M14.8,76a5.05,5.05,0,0,0-.46,2.75" transform="translate(4.05)"/><path class="cls-26" d="M33,96.6c-2.78,0-2.85,5.44,0,5.4S35.82,96.52,33,96.6Zm0,4.52c-1.9,0-1.9-3.67,0-3.64S34.94,101.15,33,101.12Z" transform="translate(4.05)"/><path class="cls-26" d="M25.47,96.19c-.23,3.34-.29,6.51,2.12,7.1.05.12-.42.29,1.75.29s1.76-.06,1.76-.29c2.76-1.12,2.23-4.22,2.12-7.1Z" transform="translate(4.05)"/><path class="cls-27" d="M27.82,103.35c-.76-.18-1.23-.41-1.23-.65-1.29-1.11-1.23-3.81-1.06-6.51h1.12C26.53,99,26.59,101.53,27.82,103.35Z" transform="translate(4.05)"/><path class="cls-26" d="M29.4,95.31c5.09,0,5.09,1.79,0,1.76S24.32,95.28,29.4,95.31Z" transform="translate(4.05)"/><path class="cls-27" d="M32.39,96.48c1.7-1.37-7.76-1.41-6.09,0C27.16,95.85,31.6,95.88,32.39,96.48Z" transform="translate(4.05)"/><path class="cls-28" d="M32.39,96.48c-.85-.61-5.12-.61-6,0C27.27,97.15,31.53,97,32.39,96.48Z" transform="translate(4.05)"/><path class="cls-29" d="M29.46,94.61c-1.34-2.56,2.71-4.28,0-6.51C30.9,90.64,26.73,92.52,29.46,94.61Z" transform="translate(4.05)"/><path class="cls-29" d="M28.29,91.26c1.44-3.19-3.05-2.86-1.12-.41-1.29-.43-.83-2.49.06-2.58A1.61,1.61,0,0,1,28.29,91.26Z" transform="translate(4.05)"/></g><path class="cls-30" d="M73.57,70.93c-.81,47.69-71.76,47.69-72.57,0C1.81,23.23,72.77,23.23,73.57,70.93Z" transform="translate(4.05)"/><path class="cls-4" d="M29.5,57.22V20.81H66.82V57.22Z" transform="translate(4.05)"/><rect class="cls-31" x="33.51" y="20.76" width="37.36" height="2.86"/><rect x="33.51" y="23.67" width="37.36" height="7.54"/><text class="cls-32" transform="translate(44.89 29.15)">GO<tspan class="cls-33" x="6.99" y="0">V</tspan><tspan x="9.58" y="0">.UK</tspan></text><rect class="cls-34" x="44.89" y="38.56" width="18.26" height="0.91"/><rect class="cls-35" x="44.54" y="50.67" width="14.65" height="5.17"/><path class="cls-4" d="M34.52,24.94l.19.5h0a.07.07,0,0,0-.07.07h0l-.37-.13V26l.37-.25h0a.06.06,0,0,0,.07.06l-.26.75h0v.13c0,.19.19.31.32.38h.12a.36.36,0,0,0,.32-.38v-.13h0L35,25.82a.06.06,0,0,0,.06-.06h0l.38.25v-.63l-.38.13h0s0-.07-.06-.07h0l.19-.5h-.63ZM33,25.7a.31.31,0,0,0-.31.25c-.07.19,0,.31.18.44a.35.35,0,0,0,.44-.19c.07-.19,0-.32-.18-.44C33.14,25.7,33.07,25.7,33,25.7Zm3.64,0h-.12a.35.35,0,0,0-.19.44.34.34,0,0,0,.44.18.35.35,0,0,0,.19-.44A.36.36,0,0,0,36.65,25.7ZM33.83,26a.33.33,0,0,0-.32.25c-.06.19,0,.31.19.44s.31,0,.44-.19,0-.31-.19-.44C34,26,33.89,26,33.83,26Zm2,0h-.13a.35.35,0,0,0-.19.44.35.35,0,0,0,.44.19.35.35,0,0,0,.19-.44A.34.34,0,0,0,35.84,26Zm-3.58.13a.33.33,0,0,0-.32.25c-.06.18,0,.31.19.44s.31,0,.44-.19a.35.35,0,0,0-.19-.44C32.38,26.14,32.32,26.14,32.26,26.14Zm5.15,0h-.13a.33.33,0,1,0,.25.62.32.32,0,0,0-.12-.62ZM32,27a.33.33,0,0,0-.32.26c-.06.18,0,.31.19.44s.31,0,.44-.19a.35.35,0,0,0-.19-.44C32.13,27,32.07,27,32,27Zm5.65,0h-.13a.35.35,0,0,0-.19.44A.34.34,0,1,0,38,27.2C37.85,27.08,37.78,27,37.66,27Zm-4.46.07c-.32.31-.25.69.12,1-.25-.12-.56,0-.31.38.13-.32.31-.25.38,0s-.07.31-.32.38-.44-.07-.63-.51a.36.36,0,0,1,.32.19l-.25-.75c-.07.25-.13.31-.25.37a.62.62,0,0,1,0-.5l-.44.19a5.4,5.4,0,0,1,.69,1.57,13,13,0,0,1,2.2-.19,12.4,12.4,0,0,1,2.19.19,3.07,3.07,0,0,1,.69-1.57l-.44-.19a.62.62,0,0,1,0,.5,2.61,2.61,0,0,1-.25-.37l-.12.75a.6.6,0,0,1,.31-.19c-.25.44-.44.57-.63.51a.39.39,0,0,1-.31-.38c.06-.25.31-.32.38,0,.25-.38-.13-.57-.32-.38a.7.7,0,0,0,.13-1,.71.71,0,0,0-.25.94c-.25-.31-.57-.13-.44.31.19-.25.37-.12.31.19s-.31.38-.63.32c-.5-.07-.5-.38-.5-.7a.88.88,0,0,1,.5.32l.07-.82a.65.65,0,0,1-.57.25,1.58,1.58,0,0,1,.38-.56h-.82a1.58,1.58,0,0,1,.38.56.69.69,0,0,1-.57-.25l.07.82a.5.5,0,0,1,.5-.32c0,.32-.06.63-.5.7s-.63-.13-.63-.32.19-.38.31-.19c.13-.37-.25-.56-.44-.31a.67.67,0,0,0-.31-.94Z" transform="translate(4.05)"/><path class="cls-4" d="M65.61,21.76h-.15v-.25a.1.1,0,0,0-.08-.1h-1.9v1.51h1.9a.1.1,0,0,0,.08-.1v-.25h.15a.1.1,0,0,0,.08-.1v-.56C65.69,21.76,65.65,21.76,65.61,21.76Zm-.31,1H63.63V21.61H65.3Zm.23-.36h-.07V22h.07Z" transform="translate(4.05)"/><path class="cls-4" d="M65,22.62H63.71v-.86H65Z" transform="translate(4.05)"/><text class="cls-36" transform="translate(35.05 36.08)">Contact method</text><rect class="cls-37" x="39.75" y="37.49" width="3.5" height="3.06"/><rect class="cls-34" x="44.89" y="42.93" width="18.26" height="0.91"/><rect class="cls-37" x="39.75" y="41.85" width="3.5" height="3.06"/><rect class="cls-34" x="44.89" y="47.3" width="18.26" height="0.91"/><rect class="cls-37" x="39.75" y="46.22" width="3.5" height="3.06"/><text class="cls-38" transform="translate(48.61 54.55)">Next</text><polyline class="cls-39" points="40.28 38.9 40.98 39.83 42.71 38.21"/><circle class="cls-40" cx="35.74" cy="22.08" r="0.69"/><circle class="cls-41" cx="38.06" cy="22.13" r="0.69"/><circle class="cls-42" cx="40.51" cy="22.13" r="0.69"/><use width="86.16" height="99.82" transform="translate(59.42 5.52) rotate(-10.9) scale(0.38)" xlink:href="#service-right-gradient"/><path class="cls-9" d="M68.83,12.74c-.31,1.29-1.8.93-1.46-.36S69.16,11.45,68.83,12.74Z" transform="translate(4.05)"/><path class="cls-43" d="M80.15,18.82h0Z" transform="translate(4.05)"/><path class="cls-43" d="M79.75,18.71l-.15,0,.54.14A2.22,2.22,0,0,0,79.75,18.71Z" transform="translate(4.05)"/><path class="cls-44" d="M85.25,26.64c-3.11-5.5-3.71-7.29-5.1-7.82a12.37,12.37,0,0,0-12.23,2.54c.09,4.19,0,8.93.88,12,5.06-.92,12.39-2.11,17.56-3A12.29,12.29,0,0,0,85.25,26.64Z" transform="translate(4.05)"/><path class="cls-21" d="M77.77,5.92c1,4.91-6.69,6.45-7.6,1.51S76.86,1,77.77,5.92Z" transform="translate(4.05)"/><path class="cls-21" d="M76.37,8c1,4.91-6.69,6.45-7.6,1.5S75.46,3,76.37,8Z" transform="translate(4.05)"/><path class="cls-45" d="M75.79,8.23c1,4.7-6.39,6.17-7.26,1.44S74.93,3.5,75.79,8.23Z" transform="translate(4.05)"/><path class="cls-21" d="M75.73,7.37a8.75,8.75,0,0,0,1.66,5.2,12.91,12.91,0,0,1-.81-5.14Z" transform="translate(4.05)"/><path class="cls-21" d="M74.82,7.64a9,9,0,0,0,3.92,3.87,13,13,0,0,1-3.13-4.19Z" transform="translate(4.05)"/><path class="cls-21" d="M73.32,19c-6-.66-9.33-8.18-6.89-11.79C71.19,3.37,76.74,6,77.05,11.45c0,2.68-2.55,4.26-1.85,5.33Z" transform="translate(4.05)"/><path class="cls-46" d="M74.81,14.54l.91,4.17a3,3,0,0,1-2,1.61c-.37.33-1.5-.11-1.89-.27-.21-1.1,0-1.35-.19-2.45Z" transform="translate(4.05)"/><path class="cls-46" d="M73.61,12.86c.67-2.7,2.81-1.51,1.78.89C74.84,15.27,73.4,14.66,73.61,12.86Z" transform="translate(4.05)"/><path class="cls-47" d="M71.87,19.71c1.46-1.65,2.77-3.3,2.71-4.58L71.7,17.94A9.32,9.32,0,0,0,71.87,19.71Z" transform="translate(4.05)"/><path class="cls-46" d="M68,8.7c-2.66,1.39-1.46,10,2.53,9.45,2.21-.21,3.8-1.19,4.26-3.62l-1.19-2.76C71.44,10.81,70.32,10,68,8.7Z" transform="translate(4.05)"/><path class="cls-48" d="M74.85,11.64c-.47,0-.71,1.78-.67,1.74s.41-.28.49-.07c0-.28-.41-.05-.49.06.1-.25.29-1.88,1-1.56C75.17,11.77,75,11.63,74.85,11.64Z" transform="translate(4.05)"/><path class="cls-21" d="M71.3,12.42c.16.79-.74,1-.88.18S71.15,11.63,71.3,12.42Z" transform="translate(4.05)"/><path class="cls-21" d="M68.2,12.88c.16.78-.73,1-.88.17S68.05,12.09,68.2,12.88Z" transform="translate(4.05)"/><path class="cls-21" d="M67.42,12.79a.94.94,0,0,1-.65-.18.74.74,0,0,0,.71-.06Z" transform="translate(4.05)"/><path class="cls-21" d="M71.2,12.39c.19,0,.36-.19.54-.41a.73.73,0,0,1-.68.21Z" transform="translate(4.05)"/><polygon class="cls-47" points="73.95 14.71 72.78 14.88 72.84 12.35 72.89 12.36 73.07 14.56 73.93 14.67 73.95 14.71"/><polygon class="cls-21" points="73.03 14.6 72.87 12.27 72.94 12.27 73.17 14.57 73.03 14.6"/><path class="cls-21" d="M67.53,6.9c-2.3,1.31-2.63,3.72-2.42,6.43.3-2.93.85-5.51,2.86-5.94Z" transform="translate(4.05)"/><path class="cls-21" d="M66.85,7.22c-2,3-1.29,5.86.24,8.64-1-3.38-1.63-6.55.5-8.43Z" transform="translate(4.05)"/><path class="cls-49" d="M68.57,13.09a1.58,1.58,0,0,1-3.1.62A1.58,1.58,0,0,1,68.57,13.09Z" transform="translate(4.05)"/><path class="cls-50" d="M65.38,13.73a1.67,1.67,0,0,1,3.28-.65A1.67,1.67,0,0,1,65.38,13.73Zm.18,0a1.49,1.49,0,0,0,2.92-.58A1.49,1.49,0,0,0,65.56,13.69Z" transform="translate(4.05)"/><path class="cls-49" d="M72.35,12.24a1.59,1.59,0,0,1-3.11.62A1.59,1.59,0,0,1,72.35,12.24Z" transform="translate(4.05)"/><path class="cls-50" d="M69.15,12.88a1.68,1.68,0,0,1,3.29-.65C72.9,14.35,69.55,15,69.15,12.88Zm.19,0a1.49,1.49,0,0,0,2.92-.58A1.49,1.49,0,0,0,69.34,12.84Z" transform="translate(4.05)"/><path class="cls-50" d="M68.38,12.61a1.49,1.49,0,0,1,.88-.15v.23a1.32,1.32,0,0,0-.78.16Z" transform="translate(4.05)"/><polygon class="cls-50" points="76.35 11.97 77.95 12.01 77.79 12.23 76.41 12.19 76.35 11.97"/><path class="cls-51" d="M74,24a.25.25,0,0,1-.49.1A.25.25,0,0,1,74,24Z" transform="translate(4.05)"/><path class="cls-51" d="M74.62,27.24a.26.26,0,0,1-.5.1A.26.26,0,0,1,74.62,27.24Z" transform="translate(4.05)"/><path class="cls-51" d="M75.26,30.45a.25.25,0,0,1-.5.1A.25.25,0,0,1,75.26,30.45Z" transform="translate(4.05)"/><path class="cls-21" d="M76.41,11.8c.45,2.12-1.89,2.58-2.29.45S76,9.67,76.41,11.8Z" transform="translate(4.05)"/><path class="cls-52" d="M76.7,11.78c.44,2.12-1.89,2.58-2.29.45S76.3,9.65,76.7,11.78Z" transform="translate(4.05)"/><polygon class="cls-52" points="79.58 12.99 78.77 14.61 76.95 16 77.05 16.18 78.94 14.89 79.8 13.07 79.58 12.99"/><path class="cls-21" d="M73.08,16.66c-.26.14-.68.31-.83-.06C72,15.65,74,15.83,73.08,16.66Z" transform="translate(4.05)"/><path class="cls-21" d="M75.1,10.36c0-2.36-3.95-5.69-6.9-3.95,2.91-1.38,6.64,1.82,6.54,4.16Z" transform="translate(4.05)"/><path class="cls-44" d="M69.92,21.69c1.33,1.06.09,2.53,1.16,8.55.38,2.13-.76,3.06-4,3.42-.47.06-.34-.83-.7-1.31C65.26,30.83,65.42,18.18,69.92,21.69Z" transform="translate(4.05)"/><path class="cls-53" d="M74.28,19.35c1.91,3.12,2.62,7.17,2.64,11.76a3.27,3.27,0,0,0,3-.52c-1.12-5.43-1.64-9.76-3.21-11.81Z" transform="translate(4.05)"/><path class="cls-54" d="M71.59,19c2.93,2,3.4-2.36,5.2-1.54.57.41,1.38,1.48.62,2.17-.33.62-3.93,1.9-4.41,1.8C71,21.82,69,19.68,71.59,19Z" transform="translate(4.05)"/><path class="cls-55" d="M74.74,20.26a10.73,10.73,0,0,0,2.85-1.69" transform="translate(4.05)"/><path class="cls-46" d="M70.19,28.73c-1.87.2-2.53-.47-4.77-1.35-4.93-2-7.57,7.43-4.14,1.85l1.93-.5-.83,2.11c.08.24.21.39.48.34a1,1,0,0,0,1,.67c.35,1.37,2.22.14,3,0,1.84,1.12,1.52-.65,3.89-.38C70.27,30.66,70.59,29.71,70.19,28.73Z" transform="translate(4.05)"/><path class="cls-44" d="M70.12,28.66c-.2,2.21.08,3.52.72,4.27l15.29-2.65C85.71,27.21,72.13,28.69,70.12,28.66Z" transform="translate(4.05)"/></g></g></g></svg>