<svg xmlns="http://www.w3.org/2000/svg" xmlns:xlink="http://www.w3.org/1999/xlink" viewBox="0 0 116.51 108.69"><defs><style>.cls-1,.cls-25,.cls-34,.cls-36,.cls-38,.cls-40{fill:none;}.cls-2{fill:#c79459;}.cls-3{fill:#ebc8c8;}.cls-4{fill:#ebd1d1;}.cls-5{fill:#ffb302;}.cls-6{fill:#424242;}.cls-7{fill:red;}.cls-8{fill:#a37949;}.cls-9{font-size:8.76px;}.cls-11,.cls-41,.cls-43,.cls-9{fill:#fff;}.cls-41,.cls-43,.cls-9{font-family:Arial-BoldMT, Arial;font-weight:700;}.cls-10{fill:#31ab94;}.Anon-Gaeg5iWlN2s\={fill:#d59532;}.Anon-y3nKW\/j709w\={fill:#faaf3b;}.cls-12{fill:#add9d1;}.cls-13{fill:#e34079;}.cls-14{fill:#f2b3c9;}.cls-15{fill:#b53360;}.cls-16{fill:#298f7c;}.cls-17{clip-path:url(#clip-path);}.cls-18{fill:url(#linear-gradient);}.cls-19{fill:#d4bfa1;}.cls-20{fill:#4f4b5f;}.cls-21{fill:#f8c7a3;}.cls-22{fill:#28947b;}.cls-23{fill:#e3b696;}.cls-24{fill:#412a74;}.cls-25,.cls-36{stroke:#2e3192;}.cls-25,.cls-36,.cls-38{stroke-linecap:round;}.cls-25,.cls-34,.cls-36,.cls-38,.cls-40{stroke-miterlimit:10;}.cls-25,.cls-34,.cls-38{stroke-width:0.25px;}.cls-26{fill:#281d36;}.cls-27{fill:#a63b54;}.cls-28{fill:#d5496c;}.cls-29{fill:#7b6d79;}.cls-30{fill:#32ccf5;}.cls-31{fill:#ffb881;}.cls-32{fill:#f15a24;}.cls-33{fill:#0095bf;}.cls-34{stroke:#2d76ad;}.cls-35{fill:#0083a8;}.cls-37{fill:#8c899b;}.cls-38{stroke:#412a74;}.cls-39{opacity:0.06;}.cls-40{stroke:#1b1464;stroke-width:2px;opacity:0.22;}.cls-41{font-size:7.68px;}.cls-42{letter-spacing:-0.02em;}.cls-43{font-size:7.06px;}.cls-44{fill:#3790a8;}</style><clipPath id="clip-path" transform="translate(0 6.27)"><path class="cls-1" d="M108.25,48.07c-1,61.61-92.69,61.6-93.73,0C15.57-13.53,107.2-13.52,108.25,48.07Z"/></clipPath><linearGradient id="linear-gradient" x1="62.14" y1="101.17" x2="60.59" y2="-7.51" gradientUnits="userSpaceOnUse"><stop offset="0.38" stop-color="#cedcc8"/><stop offset="0.42" stop-color="#d4e0ce"/><stop offset="0.65" stop-color="#ebf1e9"/><stop offset="0.85" stop-color="#fafbf9"/><stop offset="1" stop-color="#fff"/></linearGradient><symbol id="birthday-cake_2" data-name="birthday-cake 2" viewBox="0 0 17.6 24.82"><path class="cls-2" d="M.31,13.89v7.67A1.5,1.5,0,0,0,1,23a18.58,18.58,0,0,0,15.45,0,1.54,1.54,0,0,0,.7-1.41v-7.7c0-.75-.38-1.37-.88-1.45L9,11.24h-.2l-7.6,1.19C.69,12.51.31,13.14.31,13.89Z"/><path class="cls-3" d="M15.72,9.54a31.65,31.65,0,0,0-13.8,0A1.89,1.89,0,0,0,0,11.42a1.45,1.45,0,0,0,.21,1.23,1.39,1.39,0,0,0,.49.29,3,3,0,0,1,1.37,1,3.16,3.16,0,0,1,.16,1.18c0,.49,0,.91,0,1.2a.7.7,0,0,0,1.4,0A3.52,3.52,0,0,1,4,13.9a2.2,2.2,0,0,1,.39-.46,2.3,2.3,0,0,1,1.46-.62c1.47,0,1.47,1.23,2.93,1.23s1.46-1.23,2.92-1.23,1.47,1.23,2.93,1.23a2.21,2.21,0,0,0,.69-.11,3.11,3.11,0,0,0,2-1.19,2.22,2.22,0,0,0,.27-1.33A1.88,1.88,0,0,0,15.72,9.54Z"/><path class="cls-4" d="M15.72,9.54a31.65,31.65,0,0,0-13.8,0A1.9,1.9,0,0,0,.15,10.79C1.47,11.48,4.84,12,8.79,12s7.4-.5,8.68-1.19A1.86,1.86,0,0,0,15.72,9.54Z"/><path class="cls-5" d="M7.57,2.43A2.93,2.93,0,0,1,8.89,0a3,3,0,0,1,1.32,2.43c0,1-.59,1.8-1.32,1.8s-1.32-.8-1.32-1.8Z"/><path class="cls-6" d="M8.89,3.43a.34.34,0,0,0-.34.34v1.8h.68V3.77A.34.34,0,0,0,8.89,3.43Z"/><path class="cls-7" d="M9.34,5.12h-.9A.45.45,0,0,0,8,5.57V9.43a1.65,1.65,0,0,0,1.8,0V5.57A.45.45,0,0,0,9.34,5.12Z"/><circle class="cls-8" cx="2.05" cy="19.46" r="0.35"/><circle class="cls-8" cx="14.49" cy="20.81" r="0.35"/><circle class="cls-8" cx="15.99" cy="17.03" r="0.35"/><circle class="cls-8" cx="1.18" cy="16.45" r="0.35"/><circle class="cls-8" cx="5.36" cy="21.34" r="0.35"/><text class="cls-9" transform="translate(3.85 21.52)">66</text></symbol><symbol id="hex-connector" data-name="hex-connector" viewBox="0 0 14.01 15.06"><rect class="cls-10" width="14.01" height="15.06"/></symbol><symbol id="hex-plain" data-name="hex-plain" viewBox="0 0 132.05 112.17"><polygon class="cls-10" points="101.86 106.56 91.86 112.14 30.27 5.92 40.13 0 101.18 0.79 132.05 54.07 101.86 106.56"/><polygon class="cls-12" points="91.92 112.17 30.87 111.39 0 58.11 30.18 5.62 91.24 6.4 122.11 59.68 91.92 112.17"/></symbol><symbol id="hex-red-deny" data-name="hex-red-deny" viewBox="0 0 132.05 112.17"><polygon class="cls-13" points="101.86 106.56 91.86 112.14 30.27 5.92 40.13 0 101.18 0.79 132.05 54.07 101.86 106.56"/><polygon class="cls-14" points="91.92 112.17 30.87 111.39 0 58.11 30.18 5.62 91.24 6.4 122.11 59.68 91.92 112.17"/><path class="cls-15" d="M124.71,25.3c.69,23.58-36.77,23.58-36.77,0S125.4,1.71,124.71,25.3Z"/><path class="cls-13" d="M121.24,28.07c.69,23.59-36.77,23.59-36.77,0S121.24,3.79,121.24,28.07Z"/><rect class="cls-11" x="92.44" y="25.3" width="22.3" height="5.16"/></symbol><symbol id="raised-tick" data-name="raised-tick" viewBox="0 0 40.24 38.15"><path class="cls-16" d="M40.23,17.69c.7,23.58-36.76,23.58-36.76,0S40.93-5.9,40.23,17.69Z"/><path class="cls-10" d="M36.76,20.46C37.46,44.05,0,44.05,0,20.46S36.76-3.82,36.76,20.46Z"/><polygon class="cls-11" points="5.51 21.98 13.24 31.2 31.27 13.89 28.34 11.13 13.38 24.96 8.7 19.44 5.51 21.98"/></symbol><symbol id="hex-green-tick" data-name="hex-green-tick" viewBox="0 0 132.05 112.17"><use width="132.05" height="112.18" xlink:href="#hex-plain"/><use width="40.24" height="38.15" transform="translate(87.72 6.67)" xlink:href="#raised-tick"/></symbol><symbol id="hex-orange-pound" data-name="hex-orange-pound" viewBox="0 0 132.05 112.17"><polygon class="Anon-Gaeg5iWlN2s=" points="101.86 106.56 91.86 112.14 30.27 5.92 40.13 0 101.18 0.79 132.05 54.07 101.86 106.56"/><polygon class="Anon-y3nKW/j709w=" points="91.92 112.17 30.87 111.39 0 58.11 30.18 5.62 91.24 6.4 122.11 59.68 91.92 112.17"/><use width="40.24" height="38.15" transform="translate(82.52 9.36)" xlink:href="#raised-tick"/><path class="cls-11" d="M78.1,72.79l3.84,8.46c-11,7.48-24.49-5.75-35.07,2.55l-3.8-8.59c5.09-3.6,8.21-8.58,7.39-14.36H43.07V53h5.57C38.42,29.71,76.4,19.56,80,43.62L70.35,45c-3.28-14-18.74-6.22-11.72,8H69.71v7.85H60.26c.53,5.58-1.35,8.21-5.33,13C62.78,70.47,70.26,77.85,78.1,72.79Z"/></symbol></defs><g id="Layer_2" data-name="Layer 2"><g id="MainLayer"><g id="retirement5"><g class="cls-17"><path class="cls-18" d="M116.51,48.07c-1.24,72.47-109,72.46-110.25,0C7.49-24.39,115.28-24.38,116.51,48.07Z" transform="translate(0 6.27)"/><polygon class="cls-19" points="16.74 74.86 101.14 86.61 66.8 108.24 15.79 101.79 16.74 74.86"/><path class="cls-20" d="M83.11,9.54c9.07,2,7.51,11.37,8.83,17.38,1,3.26,3.74,5.4,4.2,9.87.24,2.08.42,10-3.11,12.05C87,52.27,71.25,38,72,31.39a16.55,16.55,0,0,0,0-4.58c-1.07-5.07-3.46-7.42-.61-14C72.66,9.28,79.92,7,83.11,9.54Z" transform="translate(0 6.27)"/><path class="cls-21" d="M76.53,34.26c1.92,2.22.81,4.76-.88,16.33A10.56,10.56,0,0,1,74,55a3.84,3.84,0,0,1-7.08-1.14C67.82,50.86,69.89,26.86,76.53,34.26Z" transform="translate(0 6.27)"/><path class="cls-22" d="M93.46,32.81c-6.63-3.66-14.09-2.8-20.59-.31,2.2,7.7-4.54,12.58.63,15.68,1.94,3,.84,3.92.13,8.74-.3,2-2.44,17.79-2.48,18.83C77.51,77.48,86,78.1,94.37,79.39Z" transform="translate(0 6.27)"/><path class="cls-21" d="M81.6,35.29c2.72-.59,6.14-1.79,6.78-4.46-2.81-.87-9.33-.62-12.35.66C75.68,34.26,79.64,35.79,81.6,35.29Z" transform="translate(0 6.27)"/><path class="cls-21" d="M69.1,48c-.55.44-9.82,11.44-10.4,11-1.92-1.46-2.37-.44-4.47-.1-1.25,0-2.28-.2-1.69.81,1.19,1.42,3.22-.9,3.47.63-1.32,1.89-5.26,1.49-5.82,2-.06.62,1.12.58,1.3.56-2.48.78-2.11,1.42,2.74.66-6.09.95-1.64,2,.91.83C48,66.46,58.71,66.75,61,61.28c3.53-.37,11.88-8,12.59-12.17Z" transform="translate(0 6.27)"/><path class="cls-21" d="M87.09,24.15c1,6,1.28,7.72-4.8,10.62-.88.55-1.33.29-1.57-.38V28Z" transform="translate(0 6.27)"/><path class="cls-23" d="M80.72,30.16c4.09-1.63,6.62-2.28,5.66-5.14l-5.66,3.72Z" transform="translate(0 6.27)"/><path class="cls-21" d="M72.48,16.5C68,26.07,82,37,87.09,24.15l-3.56-10.3C78.87,12.56,74.3,13.69,72.48,16.5Z" transform="translate(0 6.27)"/><path class="cls-24" d="M81.16,20.52c.27,1.33-1.25,1.62-1.49.29S80.92,19.18,81.16,20.52Z" transform="translate(0 6.27)"/><path class="cls-24" d="M75.9,21.25c.27,1.34-1.25,1.63-1.49.29S75.66,19.92,75.9,21.25Z" transform="translate(0 6.27)"/><path class="cls-24" d="M74.59,21.1a1.65,1.65,0,0,1-1.11-.32,1.21,1.21,0,0,0,1.2-.1Z" transform="translate(0 6.27)"/><path class="cls-24" d="M81,20.47a1.59,1.59,0,0,0,.92-.7,1.23,1.23,0,0,1-1.16.35Z" transform="translate(0 6.27)"/><polygon class="cls-23" points="78.77 30.65 76.78 30.92 76.91 26.63 77 26.65 77.27 30.38 78.73 30.58 78.77 30.65"/><polygon class="cls-24" points="77.2 30.46 76.97 26.51 77.09 26.5 77.44 30.42 77.2 30.46"/><path class="cls-25" d="M73.53,19.35a1.68,1.68,0,0,1,1.65-.26" transform="translate(0 6.27)"/><path class="cls-21" d="M85,20.36c1.16-4.57,4.77-2.53,3,1.53C87,24.45,84.61,23.4,85,20.36Z" transform="translate(0 6.27)"/><path class="cls-23" d="M87.11,18.29c-.8,0-1.23,3-1.17,2.95s.7-.47.84-.12c0-.47-.7-.08-.83.1.17-.42.51-3.18,1.67-2.63C87.64,18.53,87.35,18.28,87.11,18.29Z" transform="translate(0 6.27)"/><path class="cls-25" d="M79.23,18.39a1.68,1.68,0,0,1,1.65-.26" transform="translate(0 6.27)"/><path class="cls-20" d="M77,11.09v2.37c2.38,3.6,5.39,3.15,8.61,5.43l-1.05-5.47Z" transform="translate(0 6.27)"/><path class="cls-20" d="M76.82,13.53c0,2,4.53,4,7.41,5.24-2.73-1.42-6.87-3.65-7.09-5.57Z" transform="translate(0 6.27)"/><path class="cls-20" d="M76.9,13.46c-1.94-.44-5.13,3.37-5.07,6.3,1.23-4.35,3.4-6.15,5.32-5.92Z" transform="translate(0 6.27)"/><path class="cls-21" d="M93.28,32.49a4.65,4.65,0,0,1,1.54,3c.37,2.18,2.73,16.4,1.93,19.42C90.39,69.59,89.94,39.36,90,34.79,90,33.25,91.35,30.68,93.28,32.49Z" transform="translate(0 6.27)"/><path class="cls-26" d="M78.93,27.29c.62-.06,1.47-.33,2.18-.38a2.76,2.76,0,0,1-3.59.79.46.46,0,0,1,.33-.83A1.72,1.72,0,0,0,78.93,27.29Z" transform="translate(0 6.27)"/><path class="cls-27" d="M79.77,27.09c0,.21.28.35.42.12.26.13.61,0,.43-.33C80.32,26.71,79.89,27,79.77,27.09Z" transform="translate(0 6.27)"/><path class="cls-28" d="M79,27c.71.14,2-1.06,2.08-.05-1,.07-2.46.78-3.26,0C78.36,26.76,78.52,27,79,27Z" transform="translate(0 6.27)"/><path class="cls-29" d="M52.53,51.11,51.35,73.44l24.71,3.39c3.49-7.44,4.11-12.6,1.55-21.16C76.42,47.67,58.28,50.77,52.53,51.11Z" transform="translate(0 6.27)"/><path class="cls-22" d="M60.69,16.38l-.23.06c1.12.5,1.89,1.13,2,2h.31A2.83,2.83,0,0,0,60.69,16.38Z" transform="translate(0 6.27)"/><path class="cls-30" d="M64,16.48l.2.06a2.8,2.8,0,0,0-1.76,2h-.27A2.7,2.7,0,0,1,64,16.48Z" transform="translate(0 6.27)"/><path class="cls-31" d="M63.65,15.82l.16.08a3.79,3.79,0,0,0-1.34,2.68h-.21A3.6,3.6,0,0,1,63.65,15.82Z" transform="translate(0 6.27)"/><path class="cls-32" d="M61.43,16,61.3,16a4,4,0,0,1,1.17,2.68h.18A3.73,3.73,0,0,0,61.43,16Z" transform="translate(0 6.27)"/><path class="cls-22" d="M62.63,18.55a2.86,2.86,0,0,0-.81-2.82l-.23-.06c.73,1,1.1,1.92.77,2.72" transform="translate(0 6.27)"/><path class="cls-30" d="M62.07,18.35a2.69,2.69,0,0,1,2.6-.9l.15.15a2.77,2.77,0,0,0-2.51.88" transform="translate(0 6.27)"/><path class="cls-31" d="M62.11,18.42a3.57,3.57,0,0,1,2.57-1.72l.09.14a3.8,3.8,0,0,0-2.47,1.68" transform="translate(0 6.27)"/><path class="cls-32" d="M62.39,18.73a3.74,3.74,0,0,0,.28-3h-.15a4,4,0,0,1-.29,2.91" transform="translate(0 6.27)"/><path class="cls-33" d="M48.47,53.61c-8,10.52-12.63,23.62-.5,23.58a41.26,41.26,0,0,0,24.25.25l-.67-23.83C63,49.26,55.41,49.59,48.47,53.61Z" transform="translate(0 6.27)"/><path class="cls-21" d="M56.58,74.36l-2.84.24c-1.59-1.84-5.19-1.51-6.78-.34-7.61,3.93,7.86,6.11,10.2,4.43Z" transform="translate(0 6.27)"/><path class="cls-33" d="M73.14,54.28c2.5,1.84,2,4.85,3,17.31,1,5.68-4.69,11.37-8.45,5.43C67.87,74,64.69,47.67,73.14,54.28Z" transform="translate(0 6.27)"/><path class="cls-33" d="M74.14,78.44c-.75,2.26-8,2.68-16.89,2.85-3.93.33-1.94-5.81-1.69-8.16C58.91,73.22,80.33,70.08,74.14,78.44Z" transform="translate(0 6.27)"/><path class="cls-34" d="M67.87,59c-.34,4.69-.5,9.62,1.08,13.72a36.05,36.05,0,0,1-13,.41,9.28,9.28,0,0,0-.51,7.46" transform="translate(0 6.27)"/><line class="cls-34" x1="66.61" y1="65.9" x2="67.7" y2="67.66"/><path class="cls-21" d="M62.77,45.16,63,53c-1.17,1.09.16-.08-3.6,1.42-1,.76-5.68.67-5.94-.08l1.09-5Z" transform="translate(0 6.27)"/><path class="cls-23" d="M53.65,53.27c6-1.34,8.53-4.43,8.45-7.1L54.32,50.6Z" transform="translate(0 6.27)"/><path class="cls-35" d="M56.16,54.86l-2.34,3.76a7.36,7.36,0,0,1-1.09-6.94c.5-.33,1-1,1.67-1C54.15,53.27,54.66,54.69,56.16,54.86Z" transform="translate(0 6.27)"/><path class="cls-35" d="M62.93,48.76c-1.17,4.51-3.42,6.35-6.77,6.1l2.76,4.52c3-2.09,5.44-5,5.35-8.7Z" transform="translate(0 6.27)"/><path class="cls-21" d="M47.36,37.43c.28,7.43.46,17.11,8.54,14.12,10.1-2,9-17.73,3.88-22.95C53.7,25.13,46.51,29.4,47.36,37.43Z" transform="translate(0 6.27)"/><path class="cls-24" d="M56.77,39.56c.26,1.5-1.35,1.71-1.69.23S56.51,38.05,56.77,39.56Z" transform="translate(0 6.27)"/><path class="cls-24" d="M51,40.16c.26,1.5-1.35,1.71-1.69.23C49.15,39,50.73,38.74,51,40.16Z" transform="translate(0 6.27)"/><path class="cls-23" d="M54,43.61l-2.11.29.23-4.68c.07.06.24,4,.26,4.07l1.59.24Z" transform="translate(0 6.27)"/><polygon class="cls-24" points="52.35 49.67 52.19 45.39 52.27 45.36 52.59 49.59 52.35 49.67"/><path class="cls-36" d="M48.47,38.1a1.69,1.69,0,0,1,1.77-.26" transform="translate(0 6.27)"/><path class="cls-36" d="M54.7,37.18a1.67,1.67,0,0,1,1.77-.26" transform="translate(0 6.27)"/><path class="cls-37" d="M61.39,38.83l-1.54-.35c-2.57-6.3.87-9.08-7.53-7.38A9.53,9.53,0,0,1,50,30.94c-.32-.15-1.71.95-1.71.95S45.31,30.53,45.64,30c2.48-2.1,1.86-2.39,5.93-2.06.34,0,1.1-.65,1.92-.85.66-.14,1.43.3,1.75.19,7.95-.17,7.14,5.49,8.3,9.86Z" transform="translate(0 6.27)"/><path class="cls-21" d="M60.87,39.37c1.44-5,5.14-2.76,3.17,1.73C63,43.87,60.51,42.68,60.87,39.37Z" transform="translate(0 6.27)"/><path class="cls-23" d="M63.22,37.22c-.9,0-1.36,3.22-1.36,3.22s.79-.54,1-.06c0-.53-.74-.1-1,.06.21-.42.56-3.47,1.84-2.85C63.83,37.45,63.56,37.19,63.22,37.22Z" transform="translate(0 6.27)"/><path class="cls-23" d="M54.83,40.59a2,2,0,0,0,2.83.25c-.57,1.17-1.38,1.37-2.85.2Z" transform="translate(0 6.27)"/><path class="cls-23" d="M51.26,41c-.33,1.09-1,1.41-1.86,1,.64.84,1.36.86,2-.68Z" transform="translate(0 6.27)"/><path class="cls-37" d="M51.26,45.1a3.22,3.22,0,0,1,4-.58c1.2.65,1.3,2.21,2.2,2.25,3.44-1,2.21-8.78,2.27-10.53l1.74,1.7c-1.35,5.08,3,9.3-2,12.37-3.06,2.31-8.07,3.22-10.14.87-1.27-1.67-1-4-1.54-5.93C49.21,49.12,50,48.18,51.26,45.1Z" transform="translate(0 6.27)"/><path class="cls-11" d="M61.57,23.18a1,1,0,0,1,1-1.2l.27-4-.55,0-.85,1.28c1,.65-.22,2.1-1.13,1.46L58,23.59c1,.71-.2,2.2-1.13,1.48l-1.67,2.18A19.33,19.33,0,0,0,62,30.58l.42-6.82A.89.89,0,0,1,61.57,23.18Zm-1,5a.72.72,0,0,1-.47-1.36A.72.72,0,0,1,60.57,28.22Z" transform="translate(0 6.27)"/><path class="cls-22" d="M57.76,25.2A.94.94,0,0,0,58,23.59l-1.13,1.48A.92.92,0,0,0,57.76,25.2Z" transform="translate(0 6.27)"/><path class="cls-32" d="M62.19,22a.88.88,0,0,0,.23,1.73L62.54,22A1.06,1.06,0,0,0,62.19,22Z" transform="translate(0 6.27)"/><path class="cls-31" d="M60.1,26.86a.72.72,0,0,0,.47,1.36A.72.72,0,0,0,60.1,26.86Z" transform="translate(0 6.27)"/><path class="cls-30" d="M61.12,20.75a.87.87,0,0,0,.29-1.55l-1.13,1.46A1,1,0,0,0,61.12,20.75Z" transform="translate(0 6.27)"/><path class="cls-21" d="M91.67,54.56c-.65.23-13,7.61-13.4,7-1.34-2-2.1-1.18-4.2-1.55-1.19-.37-2.08-.93-1.86.22.66,1.73,3.34.2,3.08,1.73-1.87,1.35-5.46-.31-6.17,0-.25.57.87.92,1,1-2.59-.08-2.45.65,2.38,1.52-6.06-1.09-2.19,1.32.58,1.08-7.43-.34,2.6,3.43,6.55-1,3.46.8,13.85-3.71,15.87-7.4Z" transform="translate(0 6.27)"/><path class="cls-24" d="M53.65,48.05a.84.84,0,0,1,.65.32c.21-2.31-3.34-.7-1.46.66A.81.81,0,0,1,53.65,48.05Z" transform="translate(0 6.27)"/><path class="cls-28" d="M54.3,48.37a.83.83,0,0,0-1.46.66A1,1,0,0,0,54.3,48.37Z" transform="translate(0 6.27)"/><path class="cls-38" d="M55.05,47.59a1.24,1.24,0,0,1-.21,1.68" transform="translate(0 6.27)"/><path class="cls-11" d="M45.05,78.05l5.19,4.34c4.25-5.14-5.66-7.45-15.23-7.7-19.52-.15-22.5,10.25-2.12,11.24l-7.7-5.71Z" transform="translate(0 6.27)"/><path class="cls-11" d="M50.24,82.39l-5.19-4.34L25.19,80.22l7.7,5.71C39.39,86.38,47.92,84.73,50.24,82.39Z" transform="translate(0 6.27)"/><path class="cls-39" d="M50.24,82.39l-5.19-4.34L25.19,80.22l7.7,5.71C39.39,86.38,47.92,84.73,50.24,82.39Z" transform="translate(0 6.27)"/><use width="17.6" height="24.81" transform="translate(24.19 58.83) scale(1.21)" xlink:href="#birthday-cake_2"/></g><path class="cls-40" d="M109.13,48.07c-1.07,62.77-94.43,62.76-95.5,0C14.7-14.7,108.07-14.69,109.13,48.07Z" transform="translate(0 6.27)"/><g id="retirement1"><use width="14.01" height="15.06" transform="translate(24.99 23.81) scale(0.14 0.16)" xlink:href="#hex-connector"/><use width="14.01" height="15.06" transform="matrix(0.08, 0.12, -0.14, 0.09, 18.33, 19.53)" xlink:href="#hex-connector"/><use width="132.05" height="112.18" transform="translate(16.33 8.01) scale(0.14)" xlink:href="#hex-plain"/><use width="132.05" height="112.18" transform="translate(0 15.98) scale(0.14)" xlink:href="#hex-red-deny"/><use width="14.01" height="15.06" transform="matrix(-0.08, 0.12, 0.14, 0.09, 33.31, 18.37)" xlink:href="#hex-connector"/><use width="132.05" height="112.18" transform="translate(32.58 16.1) scale(0.14)" xlink:href="#hex-green-tick"/><text class="cls-41" transform="translate(36.47 27.27)">S<tspan class="cls-42" x="5.12" y="0">P</tspan></text><text class="cls-43" transform="translate(3.62 26.95)">UC</text><path class="cls-44" d="M31.84,12.54c-3.69-2-7.68-2.27-10.9-.3h0a4.53,4.53,0,0,0-1.74,2.67l1.51,2.59,8.62.11,2.79-4.85A2,2,0,0,0,31.84,12.54Z" transform="translate(0 6.27)"/><path class="cls-21" d="M27.26,8.51,27.37,12c-.14.33-3.7,1.35-4.22.59l.48-2.22Z" transform="translate(0 6.27)"/><path class="cls-23" d="M23.22,12.1C25.89,11.51,27,10.14,27,9l-3.44,2Z" transform="translate(0 6.27)"/><path class="cls-35" d="M24.33,12.8l-1,1.67a3.22,3.22,0,0,1-.48-3.07c.22-.15.44-.45.74-.45C23.45,12.1,23.67,12.73,24.33,12.8Z" transform="translate(0 6.27)"/><path class="cls-35" d="M27.33,10.1c-.52,2-1.52,2.81-3,2.7l1.22,2A4.69,4.69,0,0,0,27.92,11Z" transform="translate(0 6.27)"/><path class="cls-21" d="M20.93,4.37c-.32,3.28-.82,7.53,2.9,6.7,4.55-.28,5-7.23,3.07-9.83C24.45-.64,21,.8,20.93,4.37Z" transform="translate(0 6.27)"/><path class="cls-24" d="M24.93,5.87c0,.67-.69.67-.75,0S24.91,5.19,24.93,5.87Z" transform="translate(0 6.27)"/><path class="cls-24" d="M22.35,5.79c0,.67-.7.67-.76,0S22.33,5.15,22.35,5.79Z" transform="translate(0 6.27)"/><path class="cls-23" d="M23.48,7.48h-.94l.38-2s-.13,1.77-.13,1.8l.69.21Z" transform="translate(0 6.27)"/><polygon class="cls-24" points="22.76 13.56 22.95 11.67 22.98 11.67 22.87 13.54 22.76 13.56"/><path class="cls-25" d="M21.38,4.74a.73.73,0,0,1,.79,0" transform="translate(0 6.27)"/><path class="cls-25" d="M24.17,4.7a.75.75,0,0,1,.79,0" transform="translate(0 6.27)"/><path class="cls-37" d="M27,5.83l-.66-.25c-.67-2.84.76-4-2.85-3.68-.11,0-1.48-.39-1.83.1-.05-.06-1.22-.77-1-1,1.12-.73,1-.94,2.72-.55C27.2-.53,28.23,2.51,28,5.2Z" transform="translate(0 6.27)"/><path class="cls-21" d="M26.74,6c.93-2.11,2.42-.9,1.28,1C27.39,8.13,26.38,7.46,26.74,6Z" transform="translate(0 6.27)"/><path class="cls-23" d="M27.9,5.23c-.4-.07-.79,1.33-.79,1.33s.38-.19.42,0c0-.23-.32-.09-.42,0,.11-.17.45-1.49,1-1.14C28.15,5.37,28.05,5.24,27.9,5.23Z" transform="translate(0 6.27)"/><path class="cls-23" d="M24,6.2a.88.88,0,0,0,1.22.28C24.93,7,24.56,7,24,6.4Z" transform="translate(0 6.27)"/><path class="cls-23" d="M22.43,6.19c-.21.45-.53.56-.88.32.23.41.55.46.91-.18Z" transform="translate(0 6.27)"/><path class="cls-37" d="M22.19,8c1.3-1,2,.39,2.59,1.1,1.57-.25,1.5-3.72,1.63-4.48l.66.85c-.9,2.14.76,4.26-1.61,5.3-3.17,1.5-5.22.44-4.81-2.91C21,9.54,21.53,9.22,22.19,8Z" transform="translate(0 6.27)"/><use width="132.05" height="112.18" transform="translate(15.94 25.34) scale(0.14)" xlink:href="#hex-orange-pound"/></g></g></g></g></svg>