<svg xmlns="http://www.w3.org/2000/svg" xmlns:xlink="http://www.w3.org/1999/xlink" viewBox="0 0 80.34 77.74"><defs><style>.cls-1{fill:#c79459;}.cls-2{fill:#ebc8c8;}.cls-3{fill:#ebd1d1;}.cls-4{fill:#ffb302;}.cls-5{fill:#424242;}.cls-6{fill:#eb2700;}.cls-7{fill:#a37949;}.cls-8{fill:#fff;}.cls-9{fill:#d14f4f;}.cls-10{fill:#ffd54a;}.cls-11{fill:#b5a9b0;opacity:0.44;}.cls-12{fill:#31ab94;}.cls-13{fill:#a8a8a8;}.cls-14{fill:#d4d3d6;}.cls-15{fill:#add9d1;}.cls-16{fill:#a66ca8;}.cls-17{fill:#b487b4;}.cls-18{fill:#298f7c;}.cls-19{fill:url(#linear-gradient);}.cls-20,.cls-26{fill:none;stroke-miterlimit:10;}.cls-20{stroke:#1b1464;stroke-width:2px;opacity:0.22;}.cls-21{fill:#3790a8;}.cls-22{fill:#f8c7a3;}.cls-23{fill:#e3b696;}.cls-24{fill:#0083a8;}.cls-25{fill:#412a74;}.cls-26{stroke:#2e3192;stroke-linecap:round;stroke-width:0.25px;}.cls-27{fill:#8c899b;}</style><linearGradient id="linear-gradient" x1="40.93" y1="77.12" x2="40.93" y2="1.38" gradientUnits="userSpaceOnUse"><stop offset="0.38" stop-color="#cedcc8"/><stop offset="0.42" stop-color="#d4e0ce"/><stop offset="0.65" stop-color="#ebf1e9"/><stop offset="0.85" stop-color="#fafbf9"/><stop offset="1" stop-color="#fff"/></linearGradient><symbol id="hex-connector" data-name="hex-connector" viewBox="0 0 14.01 15.06"><rect class="cls-12" width="14.01" height="15.06"/></symbol><symbol id="hex-plain" data-name="hex-plain" viewBox="0 0 132.05 112.17"><polygon class="cls-12" points="101.86 106.56 91.86 112.14 30.27 5.92 40.13 0 101.18 0.79 132.05 54.07 101.86 106.56"/><polygon class="cls-15" points="91.92 112.17 30.87 111.39 0 58.11 30.18 5.62 91.24 6.4 122.11 59.68 91.92 112.17"/></symbol><symbol id="raised-tick" data-name="raised-tick" viewBox="0 0 40.24 38.15"><path class="cls-18" d="M40.23,17.69c.7,23.58-36.76,23.58-36.76,0S40.93-5.9,40.23,17.69Z"/><path class="cls-12" d="M36.76,20.46C37.46,44.05,0,44.05,0,20.46S36.76-3.82,36.76,20.46Z"/><polygon class="cls-8" points="5.51 21.98 13.24 31.2 31.27 13.89 28.34 11.13 13.38 24.96 8.7 19.44 5.51 21.98"/></symbol><symbol id="hex-green-tick" data-name="hex-green-tick" viewBox="0 0 132.05 112.17"><use width="132.05" height="112.18" xlink:href="#hex-plain"/><use width="40.24" height="38.15" transform="translate(87.72 6.67)" xlink:href="#raised-tick"/></symbol><symbol id="hex-grey" data-name="hex-grey" viewBox="0 0 132.05 112.17"><polygon class="cls-13" points="101.86 106.56 91.86 112.14 30.27 5.92 40.13 0 101.18 0.79 132.05 54.07 101.86 106.56"/><polygon class="cls-14" points="91.92 112.17 30.87 111.39 0 58.11 30.18 5.62 91.24 6.4 122.11 59.68 91.92 112.17"/></symbol><symbol id="birthday-cake" data-name="birthday-cake" viewBox="0 0 17.6 24.67"><path class="cls-1" d="M.31,13.89v7.67A1.5,1.5,0,0,0,1,23a18.58,18.58,0,0,0,15.45,0,1.54,1.54,0,0,0,.7-1.41v-7.7c0-.75-.38-1.37-.88-1.45L9,11.24h-.2l-7.6,1.19C.69,12.51.31,13.14.31,13.89Z"/><path class="cls-2" d="M15.72,9.54a31.65,31.65,0,0,0-13.8,0A1.89,1.89,0,0,0,0,11.42a1.45,1.45,0,0,0,.21,1.23,1.39,1.39,0,0,0,.49.29,3,3,0,0,1,1.37,1,3.16,3.16,0,0,1,.16,1.18c0,.49,0,.91,0,1.2a.7.7,0,0,0,1.4,0A3.52,3.52,0,0,1,4,13.9a2.2,2.2,0,0,1,.39-.46,2.3,2.3,0,0,1,1.46-.62c1.47,0,1.47,1.23,2.93,1.23s1.46-1.23,2.92-1.23,1.47,1.23,2.93,1.23a2.21,2.21,0,0,0,.69-.11,3.11,3.11,0,0,0,2-1.19,2.22,2.22,0,0,0,.27-1.33A1.88,1.88,0,0,0,15.72,9.54Z"/><path class="cls-3" d="M15.72,9.54a31.65,31.65,0,0,0-13.8,0A1.9,1.9,0,0,0,.15,10.79C1.47,11.48,4.84,12,8.79,12s7.4-.5,8.68-1.19A1.86,1.86,0,0,0,15.72,9.54Z"/><path class="cls-4" d="M7.57,2.43A2.93,2.93,0,0,1,8.89,0a3,3,0,0,1,1.32,2.43c0,1-.59,1.8-1.32,1.8s-1.32-.8-1.32-1.8Z"/><path class="cls-5" d="M8.89,3.43a.34.34,0,0,0-.34.34v1.8h.68V3.77A.34.34,0,0,0,8.89,3.43Z"/><path class="cls-6" d="M9.34,5.12h-.9A.45.45,0,0,0,8,5.57V9.43a1.65,1.65,0,0,0,1.8,0V5.57A.45.45,0,0,0,9.34,5.12Z"/><circle class="cls-7" cx="2.05" cy="19.46" r="0.35"/><circle class="cls-7" cx="14.49" cy="20.81" r="0.35"/><circle class="cls-7" cx="15.99" cy="17.03" r="0.35"/><circle class="cls-7" cx="1.18" cy="16.45" r="0.35"/><circle class="cls-7" cx="5.36" cy="21.34" r="0.35"/><path class="cls-8" d="M8.33,16.89,7.24,17A.67.67,0,0,0,6,16.68,2.57,2.57,0,0,0,5.69,18c1-1.2,2.87,0,2.74,1.42a1.88,1.88,0,0,1-3.33,1.3c-.78-.8-.76-3.8,0-4.58C6,15,8.17,15.26,8.33,16.89ZM5.78,19.34c-.1,1.36,1.65,1.6,1.56.1C7.47,18.06,5.72,18,5.78,19.34Z"/><path class="cls-8" d="M12.87,16.89,11.79,17a.67.67,0,0,0-1.25-.33,2.7,2.7,0,0,0-.3,1.33c1-1.2,2.87,0,2.74,1.42a1.89,1.89,0,0,1-3.34,1.3c-.77-.8-.75-3.8,0-4.58C10.57,15,12.72,15.26,12.87,16.89Zm-2.54,2.45c-.1,1.36,1.65,1.6,1.55.1C12,18.06,10.27,18,10.33,19.34Z"/></symbol><symbol id="calendar-symbol" data-name="calendar-symbol" viewBox="0 0 60.71 48.24"><rect class="cls-8" y="2.76" width="60.71" height="45.48"/><rect class="cls-9" y="2.76" width="60.71" height="8.11"/><path class="cls-8" d="M8.17,6.55c0,2.27-3.52,2.27-3.49,0S8.21,4.28,8.17,6.55Z"/><path class="cls-10" d="M6.72.06C4.12-.73,4.3,6.9,6.14,7,8.74,7.8,8.55.17,6.72.06Z"/><path class="cls-8" d="M23.56,6.55a1.75,1.75,0,0,1-3.5,0A1.75,1.75,0,0,1,23.56,6.55Z"/><path class="cls-10" d="M22.1.06c-2.6-.79-2.42,6.84-.58,7C24.12,7.8,23.93.17,22.1.06Z"/><path class="cls-8" d="M41.24,6.55c0,2.27-3.52,2.27-3.49,0S41.28,4.28,41.24,6.55Z"/><path class="cls-10" d="M39.79.06c-2.6-.79-2.42,6.84-.58,7C41.8,7.8,41.62.17,39.79.06Z"/><path class="cls-8" d="M58.16,6.55c0,2.27-3.53,2.27-3.49,0S58.2,4.28,58.16,6.55Z"/><path class="cls-10" d="M56.7.06c-2.59-.79-2.41,6.84-.57,7C58.72,7.8,58.54.17,56.7.06Z"/><path class="cls-11" d="M8,20.16c-5.26.62-7.41-.24-6.43-5.93C6.84,13.61,9,14.47,8,20.16Z"/><path class="cls-11" d="M16.47,20.16c-5.26.62-7.41-.24-6.43-5.93C15.3,13.61,17.45,14.47,16.47,20.16Z"/><path class="cls-11" d="M24.93,20.16c-5.26.62-7.41-.24-6.43-5.93C23.76,13.61,25.91,14.47,24.93,20.16Z"/><path class="cls-11" d="M33.39,20.16c-5.26.62-7.41-.24-6.43-5.93C32.22,13.61,34.37,14.47,33.39,20.16Z"/><path class="cls-11" d="M41.85,20.16c-5.26.62-7.41-.24-6.43-5.93C40.68,13.61,42.83,14.47,41.85,20.16Z"/><path class="cls-11" d="M50.31,20.16c-5.26.62-7.41-.24-6.43-5.93C49.14,13.61,51.29,14.47,50.31,20.16Z"/><path class="cls-11" d="M58.77,20.16c-5.27.62-7.41-.24-6.43-5.93C57.6,13.61,59.75,14.47,58.77,20.16Z"/><path class="cls-11" d="M8.19,28.22C2.93,28.84.78,28,1.76,22.29,7,21.67,9.17,22.53,8.19,28.22Z"/><path class="cls-11" d="M16.65,28.22c-5.26.62-7.41-.24-6.43-5.93C15.49,21.67,17.63,22.53,16.65,28.22Z"/><path class="cls-11" d="M25.11,28.22c-5.26.62-7.41-.24-6.43-5.93C23.94,21.67,26.09,22.53,25.11,28.22Z"/><path class="cls-11" d="M33.57,28.22c-5.26.62-7.41-.24-6.43-5.93C32.4,21.67,34.55,22.53,33.57,28.22Z"/><path class="cls-11" d="M42,28.22c-5.26.62-7.41-.24-6.43-5.93C40.86,21.67,43,22.53,42,28.22Z"/><path class="cls-11" d="M50.49,28.22c-5.26.62-7.41-.24-6.43-5.93C49.32,21.67,51.47,22.53,50.49,28.22Z"/><path class="cls-11" d="M59,28.22c-5.26.62-7.41-.24-6.43-5.93C57.78,21.67,59.93,22.53,59,28.22Z"/><path class="cls-11" d="M8.19,35.91C2.93,36.53.78,35.67,1.76,30,7,29.36,9.17,30.22,8.19,35.91Z"/><path class="cls-11" d="M16.65,35.91c-5.26.62-7.41-.24-6.43-5.93C15.49,29.36,17.63,30.22,16.65,35.91Z"/><path class="cls-11" d="M25.11,35.91c-5.26.62-7.41-.24-6.43-5.93C23.94,29.36,26.09,30.22,25.11,35.91Z"/><path class="cls-11" d="M33.57,35.91c-5.26.62-7.41-.24-6.43-5.93C32.4,29.36,34.55,30.22,33.57,35.91Z"/><path class="cls-11" d="M42,35.91c-5.65.48-7.24.19-6.43-5.93C41.25,29.5,42.84,29.79,42,35.91Z"/><path class="cls-11" d="M50.49,35.91c-5.26.62-7.41-.24-6.43-5.93C49.32,29.36,51.47,30.22,50.49,35.91Z"/><path class="cls-11" d="M59,35.91c-5.26.62-7.41-.24-6.43-5.93C57.78,29.36,59.93,30.22,59,35.91Z"/><path class="cls-11" d="M8.19,43.22C2.93,43.84.78,43,1.76,37.28,7,36.66,9.17,37.52,8.19,43.22Z"/><path class="cls-11" d="M16.65,43.22c-5.64.48-7.24.19-6.43-5.94C15.87,36.8,17.46,37.09,16.65,43.22Z"/><path class="cls-11" d="M25.11,43.22c-5.26.62-7.41-.24-6.43-5.94C23.94,36.66,26.09,37.52,25.11,43.22Z"/><path class="cls-11" d="M33.57,43.22c-5.26.62-7.41-.24-6.43-5.94C32.4,36.66,34.55,37.52,33.57,43.22Z"/><path class="cls-11" d="M42,43.22c-5.26.62-7.41-.24-6.43-5.94C40.86,36.66,43,37.52,42,43.22Z"/></symbol><symbol id="raised-question" data-name="raised-question" viewBox="0 0 40.24 38.15"><path class="cls-16" d="M40.23,17.69c.7,23.58-36.76,23.58-36.76,0S40.93-5.9,40.23,17.69Z"/><path class="cls-17" d="M36.76,20.46C37.46,44.05,0,44.05,0,20.46S36.76-3.82,36.76,20.46Z"/><path class="cls-8" d="M19.63,24.9H15.7c-1.22-5.58,5.05-6.65,6-10.63-.38-4.57-7.74-3.77-8,.74l-4-.5c1.93-13.57,25.87-3.58,12,6.08C19.76,22.24,19.65,22.39,19.63,24.9ZM15.7,30.73V26.4H20v4.33Z"/></symbol></defs><g id="Layer_2" data-name="Layer 2"><g id="MainLayer"><g id="retirement4"><path class="cls-19" d="M79.34,39.25c-.86,50.49-76,50.49-76.83,0C3.37-11.25,78.48-11.24,79.34,39.25Z"/><path class="cls-20" d="M79.34,38.87c-.86,50.49-76,50.49-76.83,0C3.37-11.63,78.48-11.62,79.34,38.87Z"/><use width="14.01" height="15.06" transform="matrix(0.11, 0.18, 0.18, -0.11, 47.6, 42.19)" xlink:href="#hex-connector"/><use width="14.01" height="15.06" transform="matrix(0.11, 0.18, 0.18, -0.11, 23.53, 29.61)" xlink:href="#hex-connector"/><use width="132.05" height="112.18" transform="translate(0 25.74) scale(0.21)" xlink:href="#hex-green-tick"/><use width="14.01" height="15.06" transform="translate(23.53 44.04) rotate(-58.23) scale(0.21)" xlink:href="#hex-connector"/><use width="14.01" height="15.06" transform="translate(47.64 55.73) rotate(-58.23) scale(0.21)" xlink:href="#hex-connector"/><use width="14.01" height="15.06" transform="translate(37.28 34.35) scale(0.21)" xlink:href="#hex-connector"/><use width="132.05" height="112.18" transform="translate(23.4 10.87) scale(0.21)" xlink:href="#hex-plain"/><use width="132.05" height="112.18" transform="translate(23.96 37.42) scale(0.21)" xlink:href="#hex-plain"/><use width="14.01" height="15.06" transform="translate(47.29 28.87) rotate(-58.23) scale(0.21)" xlink:href="#hex-connector"/><use width="14.01" height="15.06" transform="translate(60.43 46.51) scale(0.21)" xlink:href="#hex-connector"/><use width="132.05" height="112.18" transform="translate(47.29 23.03) scale(0.21)" xlink:href="#hex-green-tick"/><use width="132.05" height="112.18" transform="translate(47.85 49.57) scale(0.21)" xlink:href="#hex-grey"/><use width="17.6" height="24.67" transform="translate(54.84 26) scale(0.67)" xlink:href="#birthday-cake"/><use width="60.71" height="48.24" transform="translate(31.02 44.62) scale(0.21)" xlink:href="#calendar-symbol"/><use width="40.24" height="38.15" transform="translate(41.6 39.25) scale(0.18)" xlink:href="#raised-question"/><path class="cls-8" d="M5.59,34.16H7.21C7.61,35.85,6,41,8.83,40.92c2.73.1,1.11-5.15,1.53-6.76H12c-.27,2.75,1.3,8.49-3.09,8.14C4.31,42.73,5.84,37,5.59,34.16Z"/><path class="cls-8" d="M18.8,39.22l1.57.5c-1,4.29-7.44,2.81-7-1.48-.55-4.23,5.77-6,7-1.87l-1.6.38c-.77-2.5-4.13-1.2-3.69,1.37C14.61,41,18.21,42.11,18.8,39.22Z"/><path class="cls-8" d="M53.9,62.67l1.57-.16c-.06,2.12,4.05,2,3.16,0-10.24-2.4,0-9,1.55-2.91l-1.62.08c0-1.41-2.58-1.61-2.82-.38.46,1.44,3.73.87,4.35,2.42C62.19,65.88,54,67,53.9,62.67Z"/><path class="cls-8" d="M61.77,65.27v-8a36.16,36.16,0,0,1,4.52.12c3.72,2,.69,5.77-2.9,4.86v3Zm1.62-6.65v2.27C67.23,61.43,67.22,58.06,63.39,58.62Z"/><path class="cls-21" d="M46.32,26.93c-5.46-3-11.35-3.36-16.1-.44h0a6.71,6.71,0,0,0-2.56,4l2.21,3.82h.8l12.07.18c.89-1.52,3.24-5.59,4.07-7.07A5.11,5.11,0,0,0,46.32,26.93Z"/><path class="cls-22" d="M39.55,21l.16,5.13c-.21.49-5.45,2-6.22.87l.71-3.27Z"/><path class="cls-23" d="M33.59,26.27c3.94-.87,5.57-2.89,5.52-4.64L34,24.53Z"/><path class="cls-24" d="M35.23,27.31,33.7,29.77A4.83,4.83,0,0,1,33,25.24c.33-.22.66-.66,1.1-.66C33.92,26.27,34.25,27.2,35.23,27.31Z"/><path class="cls-24" d="M39.65,23.32c-.76,2.95-2.23,4.15-4.42,4l1.8,3c2-1.37,3.55-3.28,3.5-5.68Z"/><path class="cls-22" d="M30.21,14.87C29.74,19.7,29,26,34.49,24.76c6.71-.41,7.37-10.68,4.53-14.51C35.4,7.48,30.37,9.61,30.21,14.87Z"/><path class="cls-25" d="M36.11,17.08c0,1-1,1-1.11,0S36.08,16.08,36.11,17.08Z"/><path class="cls-25" d="M32.3,17c0,1-1,1-1.11,0S32.28,16,32.3,17Z"/><path class="cls-23" d="M34,19.46H32.59l.56-3S33,19.06,33,19.11l1,.3Z"/><polygon class="cls-25" points="32.92 19.17 33.19 16.39 33.24 16.38 33.08 19.14 32.92 19.17"/><path class="cls-26" d="M30.87,15.41a1.1,1.1,0,0,1,1.17,0"/><path class="cls-26" d="M35,15.36a1.08,1.08,0,0,1,1.16,0"/><path class="cls-27" d="M39.16,17l-1-.36c-1-4.19,1.12-5.9-4.22-5.44a7.58,7.58,0,0,1-1.51-.31c-.19-.13-1.19.46-1.19.46s-1.79-1.14-1.52-1.47c1.66-1.08,1.54-1.4,4-.82,5.82-1.37,7.14,2.95,6.93,7Z"/><path class="cls-22" d="M38.78,17.32c1.38-3.12,3.57-1.34,1.9,1.4C39.74,20.41,38.26,19.43,38.78,17.32Z"/><path class="cls-23" d="M40.49,16.14c-.58-.11-1.16,2-1.16,2s.55-.28.62,0c0-.34-.47-.13-.62,0,.17-.26.67-2.2,1.44-1.68C40.87,16.34,40.72,16.15,40.49,16.14Z"/><path class="cls-23" d="M34.77,17.57a1.3,1.3,0,0,0,1.81.42c-.47.7-1,.76-1.87-.13Z"/><path class="cls-23" d="M32.42,17.55c-.31.67-.78.82-1.29.48.34.6.8.67,1.33-.27Z"/><path class="cls-27" d="M32.06,20.18c2-1.49,2.91.55,3.84,1.62,2.32-.36,2.2-5.48,2.39-6.61l1,1.25C38,19.6,40.4,22.73,36.9,24.27c-4.82,2.16-7.62.77-7.11-4.3C30.34,22.55,31,22.05,32.06,20.18Z"/></g></g></g></svg>