<svg xmlns="http://www.w3.org/2000/svg" xmlns:xlink="http://www.w3.org/1999/xlink" viewBox="0 0 115.1 115.18"><defs><style>.cls-1,.cls-21,.cls-25,.cls-30,.cls-47{fill:none;}.cls-2{fill:#e6e6e6;}.cls-3{fill:#8277ab;}.cls-37,.cls-4{fill:#fff;}.cls-5{fill:url(#linear-gradient);}.cls-6{fill:#716794;}.cls-7{fill:red;}.cls-8{fill:#fcee21;}.cls-9{fill:#8cc63f;}.cls-10{fill:#efeeee;}.cls-11{fill:#31ab94;}.cls-12{clip-path:url(#clip-path);}.cls-13{fill:url(#linear-gradient-2);}.cls-14{fill:#d2ba84;}.cls-15{fill:#d2a4cd;}.cls-16{fill:#c082ba;}.cls-17{fill:#bd6da6;}.cls-18{fill:#f8c7a3;}.cls-19{fill:#3c3378;}.cls-20{fill:#0095bf;}.cls-21{stroke:#2d76ad;}.cls-21,.cls-25,.cls-30,.cls-47{stroke-miterlimit:10;}.cls-21,.cls-25{stroke-width:0.5px;}.cls-22{fill:#e3b696;}.cls-23{fill:#0083a8;}.cls-24{fill:#412a74;}.cls-25{stroke:#2e3192;stroke-linecap:round;}.cls-26{fill:#8c899b;}.cls-27{fill:#5f768f;}.cls-28{fill:#7e7494;}.cls-29{fill:url(#linear-gradient-3);}.cls-30{stroke:#1b1464;stroke-width:2px;opacity:0.22;}.cls-31{fill:#56399c;}.cls-32{fill:#b879b0;}.cls-33{fill:#6585f5;}.cls-34{fill:#ee786b;}.cls-35{fill:#d66c60;}.cls-36{fill:#c9665a;}.cls-37{opacity:0.18;}.cls-38{fill:#1b1464;}.cls-39{fill:#cc9fc7;}.cls-40{fill:#7b64b3;}.cls-41{fill:#6b5a91;}.cls-42{fill:#74b0a4;}.cls-43{fill:#88cec1;}.cls-44{fill:#7dbdb1;}.cls-45{fill:#afd9d1;}.cls-46{fill:#50b9a5;}.cls-47{stroke:#fff;}.cls-48,.cls-50{fill:#e34079;}.cls-49{fill:#f2b3c9;}.cls-50{font-size:12.34px;font-family:ArialRoundedMTBold, Arial Rounded MT Bold;}</style><linearGradient id="linear-gradient" x1="43.08" y1="2.87" x2="44.28" y2="83.96" gradientUnits="userSpaceOnUse"><stop offset="0" stop-color="#fff"/><stop offset="1" stop-color="#b1dad2"/></linearGradient><clipPath id="clip-path" transform="translate(0 1.9)"><path class="cls-1" d="M107.21,49.66c-1,58.39-87.85,58.38-88.84,0C19.37-8.73,106.22-8.72,107.21,49.66Z"/></clipPath><linearGradient id="linear-gradient-2" x1="63.52" y1="100.04" x2="62.04" y2="-3.08" gradientUnits="userSpaceOnUse"><stop offset="0.38" stop-color="#cedcc8"/><stop offset="0.42" stop-color="#d4e0ce"/><stop offset="0.65" stop-color="#ebf1e9"/><stop offset="0.85" stop-color="#fafbf9"/><stop offset="1" stop-color="#fff"/></linearGradient><linearGradient id="linear-gradient-3" x1="-127.7" y1="2.5" x2="-127.29" y2="23.49" gradientTransform="matrix(-0.99, -0.14, -0.14, 0.99, -78.07, 30.99)" gradientUnits="userSpaceOnUse"><stop offset="0.43" stop-color="#7e7494"/><stop offset="1" stop-color="#625a73"/></linearGradient><symbol id="service-left-gradient_2" data-name="service-left-gradient 2" viewBox="0 0 86.16 99.82"><path class="cls-2" d="M10.5.59c-4.2-.8-8.7,1.8-8.8,6.2L0,88.59a10.61,10.61,0,0,0,11.4,10.8"/><path class="cls-3" d="M4.9,10.39,1.6,11C.5,2.79,5.2-.91,12.5.19Z"/><path class="cls-4" d="M71.5,11c-54-8.1-67.1-16.5-67.1-.6,0,25.5,0,34.8-1,78.6a10.61,10.61,0,0,0,11.4,10.8L77.7,95a8.7,8.7,0,0,0,8-9.5L80,20.19A10.1,10.1,0,0,0,71.5,11Z"/><polygon class="cls-5" points="4.5 10.49 3.6 76.09 84.7 74.89 80.3 22.79 4.5 10.49"/><path class="cls-6" d="M80.3,22.79l-76-12.3C3.5,5.19,7.2-.91,13.2.29L72.2,11C77.9,12,80.5,17.49,80.3,22.79Z"/><path class="cls-7" d="M31.11,7.7c-1.6-3.5-5.7-1.6-4,1.9S32.81,11.2,31.11,7.7Z"/><path class="cls-8" d="M23.61,6.4c-1.6-3.5-5.7-1.6-4,1.9S25.31,9.9,23.61,6.4Z"/><path class="cls-9" d="M15.51,5.3c-1.6-3.5-5.7-1.6-4,1.9S17.21,8.8,15.51,5.3Z"/><path class="cls-10" d="M11.8,99.49c4.2-.9,67.6-1.9,69.5-5.3,6.2-3,5-12.6,4.2-19.3l-1,.1c1.2,9.1,1.9,19.2-8.7,20.1-1.3.4-62.3,4-63.6,4.2a9.2,9.2,0,0,1-3.1-.7l-.1-.1C9.5,99.09,10.2,99.49,11.8,99.49Z"/><polygon class="cls-10" points="3.6 76.79 85.6 75.39 80.3 22.79 79.4 22.69 84.5 74.39 3.6 75.79 3.6 76.79"/><polygon class="cls-11" points="81.31 80.67 81.24 87 79.81 87.18 78.84 89.49 78.09 87.1 73.41 87.45 73.63 80.89 81.31 80.67"/><polygon class="cls-11" points="34.2 89.34 33.85 82.4 41.74 81.96 41.76 83.77 43.81 82.42 44.15 88.52 42.08 87.26 42.1 89.07 34.2 89.34"/><path class="cls-11" d="M16.32,83.21a4.93,4.93,0,0,1,3.2-4c4.72,4.6-3.2,17.64-9.46,14.06-.26-1.92.76-3.45,2.55-4.86A2.86,2.86,0,0,1,14,90.75c2.43-1.53,4.22-3.45,4.47-6.26A7.48,7.48,0,0,1,16.32,83.21Z"/><polygon class="cls-10" points="69.75 95.23 68.75 95.3 67.25 74.86 68.25 74.78 69.75 95.23"/><polygon class="cls-11" points="55.01 83.03 55.01 81.25 63.53 81.25 63.53 82.56 59.32 84.72 55.01 83.03"/><polygon class="cls-11" points="63.53 83.69 63.62 89.11 55.1 89.49 55.01 84.25 59.5 85.93 63.53 83.69"/><polygon class="cls-10" points="50.65 96.75 49.65 96.8 48.55 75.73 49.55 75.68 50.65 96.75"/><polygon class="cls-10" points="28.9 98.46 27.9 98.5 27.11 75.91 28.11 75.88 28.9 98.46"/></symbol></defs><g id="Layer_2" data-name="Layer 2"><g id="MainLayer"><g id="retirement2"><g id="rpcust2"><g class="cls-12"><path class="cls-13" d="M115.1,49.66c-1.17,68.76-103.45,68.75-104.61,0C11.66-19.1,113.94-19.09,115.1,49.66Z" transform="translate(0 1.9)"/><polygon class="cls-14" points="90.33 84.19 94.64 107.44 92.06 108.17 84.92 84.19 90.33 84.19"/><polygon class="cls-14" points="61.55 91.44 62.53 114.94 65.12 115.18 66.59 90.21 61.55 91.44"/><polygon class="cls-14" points="68.44 84.92 71.52 104.85 69.67 105.47 64.63 84.92 68.44 84.92"/><path class="cls-15" d="M31,87.69c-5.9-14.34,2-24.26,15.5-19.68,4.84,1.28,7,2.26,8.49-1.6-2.83-29.89-.49-42.07,5.66-41.94L71,25.33c-2.58,23.37-6.76,44-12.18,57.94Z" transform="translate(0 1.9)"/><path class="cls-16" d="M34,89.66C28.09,75.32,36,65.4,49.5,70c4.83,1.28,7,2.26,8.48-1.6-2.14-37.15-3.55-44.55,14.77-42.44-2.59,23.38-5.54,45.39-11,59.29Z" transform="translate(0 1.9)"/><polygon class="cls-17" points="104.36 27.85 70.83 27.23 63.52 81.73 95.38 90.09 104.36 27.85"/><polyline class="cls-15" points="64.38 96.98 31.04 89.6 29.08 81.36 61.67 87.14 64.75 94.89"/><path class="cls-18" d="M62.14,45a55.49,55.49,0,0,1,7.28-10l-2.69-3.63c-2.53-.37-7,4.94-5.65,8.26l-2.46,2.76A7.74,7.74,0,0,0,62.14,45Z" transform="translate(0 1.9)"/><path class="cls-19" d="M68.88,30.33c-.48,1-8.21,6-6.48,7.46.9.58,2.91,4.5,4.34,3.1.49-1,8.28-5.89,6.55-7.37C72.37,32.93,70.33,28.89,68.88,30.33Z" transform="translate(0 1.9)"/><path class="cls-18" d="M64.45,33.31c.7.88.9,4.86-1.08,4.53-.57-.68.27-2.35-.47-3.21" transform="translate(0 1.9)"/><path class="cls-18" d="M65.81,32.6c.42.9.88,4.77-.88,4.52-.29-.93.24-2.23-.26-3.3" transform="translate(0 1.9)"/><path class="cls-18" d="M65.77,32.47c.61.91-.32,2.85.66,3.17.95-.2,1.33-3.52.23-4.32" transform="translate(0 1.9)"/><path class="cls-20" d="M65,54.42,50.51,55.77l-.87-3.68c6.53-3.6,14.25-8.25,16.72-8.3Z" transform="translate(0 1.9)"/><path class="cls-20" d="M57,51.26,65.12,42l-4.56-3.88C57,42.25,50.38,46.06,48,51.81c-.17,4.26,6.12,5.53,7.68,1.2" transform="translate(0 1.9)"/><path class="cls-20" d="M66.47,43.78c-5,.37-8.36,20.3-9.1,29.64,9.47-2.58,13.9,8.74,22.88,9l8.86-33.58C81.23,42.43,74.71,41.32,66.47,43.78Z" transform="translate(0 1.9)"/><path class="cls-20" d="M90.34,48.82c2.21,2.46,1,5.54-.87,18.7-.24,6.15-7.5,10.83-10.08,3.81C80.37,68.14,83.08,40.09,90.34,48.82Z" transform="translate(0 1.9)"/><path class="cls-20" d="M85.41,74.16c-1.23,2.22-9,1-18.2-.86-4.18-.49-.86-6.64,0-9.1C70.78,64.94,93.9,66.91,85.41,74.16Z" transform="translate(0 1.9)"/><path class="cls-21" d="M83.82,52.51c-1.36,4.68-2.59,9.84-2,14.52A37.84,37.84,0,0,1,68,64.58c-.63,2.42,1.45,5.55-1.74,7.65" transform="translate(0 1.9)"/><line class="cls-21" x1="82.34" y1="54.91" x2="83.08" y2="56.88"/><path class="cls-18" d="M84.81,38.81,83,47.15c-1.48.86.32.07-3.86.69-1.23.61-6-.62-6.15-1.48l2.21-5Z" transform="translate(0 1.9)"/><path class="cls-22" d="M73.24,45.26c6.52,0,9.84-2.71,10.45-5.42l-9,2.83Z" transform="translate(0 1.9)"/><path class="cls-23" d="M75.7,47.47l-3.32,3.44a7.75,7.75,0,0,1,.49-7.5c.61-.12,1.23-.74,2-.61C73.85,45.5,74.1,47,75.7,47.47Z" transform="translate(0 1.9)"/><path class="cls-23" d="M84.06,42.67c-2.34,4.43-5,5.91-8.49,4.8l1.73,5.29C81.29,51.11,86.31,47.3,84.06,42.67Z" transform="translate(0 1.9)"/><path class="cls-18" d="M73.73,24.84c-3.81,6.88-9.1,15.74-.12,17.46,10.21,3.82,18-11.07,16.23-18.57C86.4,17.21,77.54,17.21,73.73,24.84Z" transform="translate(0 1.9)"/><path class="cls-24" d="M81.11,32c-.62,1.48-2.21.86-1.72-.74S81.72,30.49,81.11,32Z" transform="translate(0 1.9)"/><path class="cls-24" d="M75.57,29.26c-.61,1.48-2.21.87-1.72-.73C74.59,27.3,76.07,27.91,75.57,29.26Z" transform="translate(0 1.9)"/><path class="cls-22" d="M76.44,34.18l-2.1-1,2.83-4.06c.11.15-2,3.69-2,3.81l1.23,1.11Z" transform="translate(0 1.9)"/><polygon class="cls-24" points="75.08 34.86 77.3 30.92 77.42 30.92 75.33 34.98 75.08 34.86"/><path class="cls-25" d="M74.47,26.07a1.56,1.56,0,0,1,1.72.73" transform="translate(0 1.9)"/><path class="cls-25" d="M80.62,28.77a1.58,1.58,0,0,1,1.72.74" transform="translate(0 1.9)"/><path class="cls-26" d="M85.66,33.94l-1.11-1.23c1.26-6.86,5.81-8.07-2.7-10.83a6.17,6.17,0,0,1-2-1.35c-.12-.37-2-.12-2-.12,0-.25-1.84-2.95-1.23-3.2,3.75-.38,2.76-1.26,6.52,1.48,1.44.18,2.48.25,3.57,1.6,7.37,4.06,3.27,9,2,13.53Z" transform="translate(0 1.9)"/><path class="cls-18" d="M84.92,34.18c4.19-3.69,6.15.25,1.85,3.33C84.31,39.35,82.71,36.89,84.92,34.18Z" transform="translate(0 1.9)"/><path class="cls-22" d="M88.37,33.45c-.86-.5-3.08,2.09-3.08,2.09s1-.13.86.37c.37-.37-.61-.5-.86-.37.37-.25,2.46-2.83,3.2-1.48C88.74,34.06,88.61,33.69,88.37,33.45Z" transform="translate(0 1.9)"/><path class="cls-22" d="M78.9,31.72c.36,1.23,1.23,2.1,2.33,1.85-1.1.74-2,.49-2.7-1.35Z" transform="translate(0 1.9)"/><path class="cls-22" d="M75.33,30.25c-.86.86-1.72.74-2.22-.12.13,1.1.74,1.47,2.22.49Z" transform="translate(0 1.9)"/><path class="cls-26" d="M73,33.94a3.4,3.4,0,0,1,3.94,1.6c.74,1.23,0,2.7.74,3.32,3.66,1.07,7-6.76,7.87-8.24l.61,2.58c-2.92,2.69-2.8,6-4.43,8.49-3.86,3.39-13,1.3-13.77-3.32-.17-2.28,1.58-4.18,2-6.28C69.05,36.22,70.1,36.18,73,33.94Z" transform="translate(0 1.9)"/><path class="cls-27" d="M59.22,73c-20.85-12.84-33.35,5.51-36.91,29.35,3.2,3.94,7.75,4.55,13.29,2.83.24-10,1-15.62,7.25-24.6C47,80.19,50.6,82.4,56,81.91" transform="translate(0 1.9)"/><path class="cls-27" d="M71.76,73.55l-2.34,2.7c-17.84-12.33-31.91,9.62-34.19,30.26,3.19,3.94,7.75,4.56,13.28,2.83.25-10,1.35-16.23,7.63-25.21,4.18-.37,7.38,2.33,12.79,2" transform="translate(0 1.9)"/><path class="cls-15" d="M61.18,93.11C54.6,77.61,63.48,66.92,77.91,72c5.15,1.52,7.64,2.37,9.1-1.85-2.3-39.17-1.7-47.6,16.73-44.4C100.91,50.91,97,73.42,91.2,88.31Z" transform="translate(0 1.9)"/><path class="cls-16" d="M64.26,95.07C57.67,79.58,66.56,68.89,81,73.92c5.15,1.52,7.64,2.37,9.1-1.85-3.08-32.23-.62-46,5.9-45.76,3.33.25,5.42,1.11,6.65-.37,9.2-4-7.93,67.17-8.49,64.34Z" transform="translate(0 1.9)"/><path class="cls-18" d="M67.7,65.18l-2.58-.24c-1.23-2.34-5.05-2.71-7-1.85C49.37,65.43,65,71.21,67.7,70,68.09,69.27,67.87,67.17,67.7,65.18Z" transform="translate(0 1.9)"/><path class="cls-28" d="M63.66,75.77l11.61-3,.11-.74L45.61,67.7,30.24,69.26l-.1,1.92C30.89,71.12,64.23,76.93,63.66,75.77Z" transform="translate(0 1.9)"/><path class="cls-29" d="M32.18,48.4l27.24,3.86c2,.29,3.34,2.37,3,4.7l2.08,17A1.21,1.21,0,0,1,63.21,75c-.47-.75-32.59-2.92-33-6L27.75,52.2A4.14,4.14,0,0,1,32.18,48.4Z" transform="translate(0 1.9)"/><path class="cls-4" d="M49.91,61.32c-.62,1.34-5.2,1-5.78-.39-.22-.74,1.07-1,1.07-2.18,0-.81-.66-1.06-.44-1.52.38-.75,2.69-1,3.3-.39.43.43-.45.9-.21,1.91C48.14,60.09,50.13,60.54,49.91,61.32Z" transform="translate(0 1.9)"/><path class="cls-4" d="M46.31,55.51a1,1,0,0,0,0,1.24" transform="translate(0 1.9)"/></g><path class="cls-30" d="M108,49.66c-1,59.47-89.48,59.46-90.49,0C18.57-9.81,107-9.8,108,49.66Z" transform="translate(0 1.9)"/></g><use width="86.16" height="99.82" transform="matrix(0.47, 0.03, -0.03, 0.47, 2.46, 2.44)" xlink:href="#service-left-gradient_2"/><path class="cls-9" d="M28.54,10.67c.65,1.63,2.51.86,1.83-.75S27.86,9.05,28.54,10.67Z" transform="translate(0 1.9)"/><path class="cls-31" d="M14.06,22h0Z" transform="translate(0 1.9)"/><path class="cls-31" d="M14.56,21.73l.19-.07c-.22.1-.44.18-.67.29A2.62,2.62,0,0,1,14.56,21.73Z" transform="translate(0 1.9)"/><path class="cls-32" d="M8.92,33.1c3-7.75,3.44-10.2,5.14-11.14,6-2.72,11.69-2.19,16.41,1a22.61,22.61,0,0,1,.8,13.69c-.08.29-.16.57-.26.84L8.37,36.67A8.29,8.29,0,0,1,8.92,33.1Z" transform="translate(0 1.9)"/><path class="cls-24" d="M14.71,4.7c-.43,6.6,9.93,7.12,10.17.52C25.31-1.38,14.94-1.9,14.71,4.7Z" transform="translate(0 1.9)"/><path class="cls-24" d="M16.91,7.09c-.43,6.59,9.94,7.12,10.18.51C27.52,1,17.15.48,16.91,7.09Z" transform="translate(0 1.9)"/><path class="cls-33" d="M17.71,7.33c-.41,6.31,9.51,6.81,9.74.49C27.86,1.51,17.94,1,17.71,7.33Z" transform="translate(0 1.9)"/><path class="cls-24" d="M17.63,6.21a11.47,11.47,0,0,1-1.16,7.08,17.14,17.14,0,0,0,.07-6.85Z" transform="translate(0 1.9)"/><path class="cls-24" d="M18.87,6.38a11.76,11.76,0,0,1-4.36,5.78,17.28,17.28,0,0,0,3.27-6Z" transform="translate(0 1.9)"/><path class="cls-24" d="M23,20.92c7.69-2,10.58-12.42,6.71-16.67-6.93-4.12-13.66.34-13,7.52.53,3.48,4.13,5.06,3.41,6.58Z" transform="translate(0 1.9)"/><path class="cls-34" d="M20.2,15.36,19.81,21a3.85,3.85,0,0,0,2.89,1.72c.55.36,1.95-.43,2.42-.71.05-1.48-.28-1.75-.22-3.23Z" transform="translate(0 1.9)"/><path class="cls-34" d="M21.44,13c-1.38-3.39-3.94-1.44-2.14,1.5C20.3,16.31,22.05,15.24,21.44,13Z" transform="translate(0 1.9)"/><path class="cls-35" d="M25,21.53c-2.22-1.87-4.24-3.76-4.41-5.44l4.28,3.1A11.61,11.61,0,0,1,25,21.53Z" transform="translate(0 1.9)"/><path class="cls-34" d="M27.92,6.47c3.73,1.3,3.81,12.71-1.49,12.77-2.91.16-5.17-.82-6.24-3.89l1-3.83C23.88,9.86,25.16,8.53,27.92,6.47Z" transform="translate(0 1.9)"/><path class="cls-36" d="M19.59,11.59c.61-.08,1.26,2.19,1.21,2.14s-.58-.29-.65,0c0-.37.52-.14.64,0-.17-.31-.73-2.4-1.56-1.85C19.21,11.83,19.41,11.61,19.59,11.59Z" transform="translate(0 1.9)"/><path class="cls-24" d="M24.37,11.93c-.06,1.06,1.14,1.12,1.18.06S24.41,10.88,24.37,11.93Z" transform="translate(0 1.9)"/><path class="cls-24" d="M28.49,11.94c-.06,1.05,1.14,1.11,1.18.06S28.53,10.88,28.49,11.94Z" transform="translate(0 1.9)"/><path class="cls-24" d="M29.48,11.68a1.3,1.3,0,0,0,.82-.36.94.94,0,0,1-.93,0Z" transform="translate(0 1.9)"/><path class="cls-24" d="M24.49,11.88a1.26,1.26,0,0,1-.78-.44,1,1,0,0,0,.92.14Z" transform="translate(0 1.9)"/><polygon class="cls-35" points="26.62 16.55 28.18 16.54 27.62 13.26 27.55 13.28 27.74 16.18 26.64 16.49 26.62 16.55"/><polygon class="cls-24" points="27.8 16.23 27.56 13.17 27.47 13.18 27.61 16.23 27.8 16.23"/><path class="cls-24" d="M28.23,4c3.24,1.27,4.12,4.34,4.37,7.91-1-3.76-2.16-7-4.85-7.2Z" transform="translate(0 1.9)"/><path class="cls-24" d="M29.17,4.31C32.41,7.87,32,11.7,30.5,15.61c.7-4.6.87-8.84-2.25-10.88Z" transform="translate(0 1.9)"/><path class="cls-37" d="M28,12.29c-.17,2.7,4.07,2.91,4.17.21S28.14,9.59,28,12.29Z" transform="translate(0 1.9)"/><path class="cls-38" d="M27.92,12.28c.11-2.86,4.59-2.63,4.41.23S27.74,15.14,27.92,12.28Zm.24,0C28,14.83,32,15,32.08,12.49S28.26,9.75,28.16,12.29Z" transform="translate(0 1.9)"/><path class="cls-37" d="M23,11.9c-.17,2.7,4.07,2.91,4.16.21S23.06,9.2,23,11.9Z" transform="translate(0 1.9)"/><path class="cls-38" d="M22.84,11.9c.1-2.86,4.59-2.64,4.41.22S22.66,14.75,22.84,11.9Zm.24,0c-.16,2.54,3.83,2.74,3.92.2S23.18,9.36,23.08,11.91Z" transform="translate(0 1.9)"/><path class="cls-38" d="M28.21,11.63a2,2,0,0,0-1.18,0l0,.31a1.85,1.85,0,0,1,1.05,0Z" transform="translate(0 1.9)"/><polygon class="cls-38" points="22.97 13.44 20.9 13.79 21.15 14.06 22.94 13.74 22.97 13.44"/><path class="cls-39" d="M23.09,27.56a.33.33,0,0,0,.66,0A.33.33,0,0,0,23.09,27.56Z" transform="translate(0 1.9)"/><path class="cls-39" d="M22.87,31.86a.33.33,0,0,0,.66,0A.33.33,0,0,0,22.87,31.86Z" transform="translate(0 1.9)"/><path class="cls-39" d="M22.65,36.16a.33.33,0,0,0,.66,0A.33.33,0,0,0,22.65,36.16Z" transform="translate(0 1.9)"/><path class="cls-40" d="M25.54,21.51c.15-.65-.12-1.39-.37-1.41a2.28,2.28,0,0,1-3.34.89c-1.8-.85-2.39-3-2.51-.36C20.22,22.75,24.56,24.13,25.54,21.51Z" transform="translate(0 1.9)"/><path class="cls-24" d="M17.59,12.1c-.17,2.84,3,3,3.07.15S17.71,9.25,17.59,12.1Z" transform="translate(0 1.9)"/><path class="cls-41" d="M17.21,12.12c-.17,2.85,3,3,3.07.16S17.33,9.27,17.21,12.12Z" transform="translate(0 1.9)"/><polygon class="cls-41" points="18.96 15.38 20.33 17.34 22.96 18.8 22.87 19.05 20.15 17.74 18.69 15.54 18.96 15.38"/><path class="cls-24" d="M22.85,17.8c.37.12.95.27,1.08-.25C24.09,16.26,21.46,16.9,22.85,17.8Z" transform="translate(0 1.9)"/><path class="cls-24" d="M19,10c-.43-3.07,4.06-8.16,8.24-6.47C23.2,2.28,19,7.15,19.54,10.18Z" transform="translate(0 1.9)"/><path class="cls-32" d="M26.66,24.47c-.36,2.21,2.26,3.53,7.45,9.68C36.38,37.48,41,35.78,40,31.43,38.17,29.77,28,17.08,26.66,24.47Z" transform="translate(0 1.9)"/><path class="cls-32" d="M37.07,35.87c1.29.65,5-3.15,9.13-7.72,1.87-1.92-1.19-3.41-2.53-4.44C42.35,25.49,30.25,34.91,37.07,35.87Z" transform="translate(0 1.9)"/><path class="cls-34" d="M46.64,26.42l.86-1c.8.18,2.07-1.51,3.22-2.71,1.45-1.37,2.79-1.93,1.88-2.62-.92,0-1.44,1.05-2.47,1.5,1.31-1.83,3.33-2.82,1.93-3.57-.21-.16-2.57,2.32-2.79,2.45,1.24-2,2.7-2.52,2.24-3.58-1.1-.43-1.49,1.15-3.29,2.66.7-1.82,2.49-3.32,1.11-3.68-2.19,2-1.89,2.74-3.39,4.24l-.28-.21c.21-.86-.45-2.9-1.22-2.26a3.8,3.8,0,0,1-.31,1.92c.36,1-.39,2.58.44,3.4a4.32,4.32,0,0,0-.85.86Z" transform="translate(0 1.9)"/><path class="cls-35" d="M45.94,20.14a3.08,3.08,0,0,1,1.33,3c.85-.93-.22-2.63-.69-3.71" transform="translate(0 1.9)"/><polygon class="cls-35" points="48.43 21.44 49.28 22.18 49.2 22.29 48.38 21.47 48.43 21.44"/><polygon class="cls-35" points="49.4 22.48 50.24 23.23 50.16 23.33 49.34 22.51 49.4 22.48"/><polygon class="cls-35" points="50.34 23.59 50.93 24.31 50.84 24.38 50.28 23.61 50.34 23.59"/><polygon class="cls-35" points="47.35 20.65 48.11 21.18 48.07 21.28 47.3 20.68 47.35 20.65"/><path class="cls-42" d="M22,20.63c-1.89,4.43-2,9.84-1.19,15.82-1,.25-2.31,1-4-.1.42-7.29.27-13,1.93-16Z" transform="translate(0 1.9)"/><path class="cls-43" d="M25.4,19.65c-3.43,3.19-4.88-2.42-7.07-1-.66.63-1.51,2.18-.39,2.93.55.75,5.48,1.73,6.09,1.51C26.74,23.22,28.91,20.05,25.4,19.65Z" transform="translate(0 1.9)"/><path class="cls-44" d="M21.54,21.91a13.92,13.92,0,0,1-4-1.66" transform="translate(0 1.9)"/><path class="cls-25" d="M25.29,9.42a1,1,0,0,0-1,0" transform="translate(0 1.9)"/><path class="cls-25" d="M30.49,9.73a1,1,0,0,0-1,0" transform="translate(0 1.9)"/><g id="dialog"><path class="cls-11" d="M43.73,31.61l-.06-7.54-2.48-2.14c1.54,0,11-.08,12.79-.09A1.16,1.16,0,0,1,55.15,23l.06,8.39a1.44,1.44,0,0,1-1.43,1.46l-8.73.07A1.31,1.31,0,0,1,43.73,31.61Z" transform="translate(0 1.9)"/><path class="cls-45" d="M42.75,31.61l-.06-7.54L40.2,21.93c1.55,0,11-.08,12.8-.09A1.15,1.15,0,0,1,54.16,23l.07,8.39a1.44,1.44,0,0,1-1.43,1.46l-8.73.07A1.31,1.31,0,0,1,42.75,31.61Z" transform="translate(0 1.9)"/><path class="cls-46" d="M52,27.37c.06,4.47-7,4.47-6.89,0S52,22.91,52,27.37Z" transform="translate(0 1.9)"/><polyline class="cls-47" points="46.42 29.47 47.54 30.69 50.54 27.61"/></g><path class="cls-48" d="M73.47,17.65l-9.31,0L61.5,20.6,60,20.68,61.44,5.41a2,2,0,0,1,2-2l9.68,0a2,2,0,0,1,2,2l0,10.59A1.69,1.69,0,0,1,73.47,17.65Z" transform="translate(0 1.9)"/><path class="cls-49" d="M71.93,17.51l-9.32,0-2.67,3.08c0-1.95,0-13.15,0-15.35a2,2,0,0,1,2-2l9.67,0a2,2,0,0,1,2,2l0,10.58A1.67,1.67,0,0,1,71.93,17.51Z" transform="translate(0 1.9)"/><text class="cls-50" transform="translate(63.09 16.85)">?</text></g></g></g></svg>