<svg xmlns="http://www.w3.org/2000/svg" xmlns:xlink="http://www.w3.org/1999/xlink" viewBox="0 0 109.93 112.17"><defs><style>.cls-1,.cls-14,.cls-19,.cls-9{fill:none;}.cls-2{clip-path:url(#clip-path);}.cls-3{fill:url(#linear-gradient);}.cls-4{fill:#d2ba84;}.cls-5{fill:#d2a4cd;}.cls-6{fill:#c082ba;}.cls-7{fill:#bd6da6;}.cls-8{fill:#0095bf;}.cls-9{stroke:#2d76ad;}.cls-14,.cls-19,.cls-9{stroke-miterlimit:10;}.cls-10{fill:#f8c7a3;}.cls-11{fill:#e3b696;}.cls-12{fill:#0083a8;}.cls-13{fill:#412a74;}.cls-14{stroke:#2e3192;stroke-linecap:round;stroke-width:0.5px;}.cls-15{fill:#8c899b;}.cls-16{fill:#5f768f;}.cls-17{fill:#f9ffff;}.cls-18{fill:#e0eaf2;}.cls-19{stroke:#1b1464;stroke-width:2px;opacity:0.22;}.cls-20{fill:#ecf2f2;}.cls-21{font-size:3.94px;font-family:Arial-BoldMT, Arial;font-weight:700;}.cls-22{letter-spacing:-0.02em;}.cls-23{letter-spacing:-0.07em;}.cls-24{fill:#dbe0e0;}</style><clipPath id="clip-path" transform="translate(0 2.32)"><path class="cls-1" d="M102.24,47.89c-1,56.87-85.55,56.86-86.51,0C16.7-9,101.28-9,102.24,47.89Z"/></clipPath><linearGradient id="linear-gradient" x1="59.69" y1="96.96" x2="58.25" y2="-3.47" gradientUnits="userSpaceOnUse"><stop offset="0.38" stop-color="#cedcc8"/><stop offset="0.42" stop-color="#d4e0ce"/><stop offset="0.65" stop-color="#ebf1e9"/><stop offset="0.85" stop-color="#fafbf9"/><stop offset="1" stop-color="#fff"/></linearGradient></defs><g id="Layer_2" data-name="Layer 2"><g id="MainLayer"><g id="retirement1"><g id="rpcust2"><g class="cls-2"><path class="cls-3" d="M109.93,47.89c-1.15,67-100.75,67-101.89,0C9.19-19.07,108.79-19.06,109.93,47.89Z" transform="translate(0 2.32)"/><polygon class="cls-4" points="85.81 81.99 90 104.63 87.48 105.35 80.54 81.99 85.81 81.99"/><polygon class="cls-4" points="57.77 89.05 58.73 111.94 61.25 112.17 62.69 87.86 57.77 89.05"/><polygon class="cls-4" points="64.48 82.7 67.48 102.11 65.68 102.71 60.77 82.7 64.48 82.7"/><path class="cls-5" d="M28.07,84.93c-5.75-14,2-23.62,15.09-19.16C47.87,67,50,68,51.43,64.21c-2.76-29.11-.48-41,5.51-40.85L67,24.2C64.48,47,60.41,67.09,55.14,80.62Z" transform="translate(0 2.32)"/><path class="cls-6" d="M30.94,86.85c-5.75-14,2-23.63,15.1-19.17,4.7,1.25,6.84,2.2,8.26-1.55C52.21,30,50.84,22.74,68.68,24.8,66.16,47.56,63.29,69,58,82.54Z" transform="translate(0 2.32)"/><polygon class="cls-7" points="99.46 27.12 67.12 26.52 59.69 79.59 90.72 87.74 99.46 27.12"/><polyline class="cls-5" points="60.53 94.44 28.07 87.26 26.15 79.23 57.9 84.86 60.89 92.41"/><path class="cls-8" d="M62,42.83c-4.84.87-6,20.51-5.77,29.64,8.91-3.47,14.36,7,23.08,6.35l5.13-33.43C76.16,40,69.73,39.6,62,42.83Z" transform="translate(0 2.32)"/><path class="cls-8" d="M85.63,45.26c2.4,2.16,1.52,5.26,1.09,18.2.39,6-6.16,11.25-9.38,4.73C78,65,77.71,37.55,85.63,45.26Z" transform="translate(0 2.32)"/><path class="cls-8" d="M83.47,70.31c-1,2.27-8.6,1.87-17.72,1-4.1,0-1.52-6.34-.93-8.81C68.35,62.88,90.94,62.41,83.47,70.31Z" transform="translate(0 2.32)"/><path class="cls-9" d="M78.9,51.73c-.83,4.67-1.14,9-.07,13.43-4.64.5-9.74-1.52-14.21-2.73-1.21,3,0,6-.39,8.23" transform="translate(0 2.32)"/><line class="cls-9" x1="77.66" y1="53.75" x2="78.58" y2="55.58"/><path class="cls-10" d="M78.88,35.67l-.32,8.78c-1.34,1,.12,0-3.87,1-1.13.72-5.9,0-6.11-.8l1.63-5.11Z" transform="translate(0 2.32)"/><path class="cls-11" d="M68.71,43.56c6.31-.67,9.25-3.63,9.57-6.31l-8.41,3.66Z" transform="translate(0 2.32)"/><path class="cls-12" d="M71.32,45.46l-2.87,3.67a7.59,7.59,0,0,1-.29-7.32c.58-.18,1.12-.84,1.84-.79C69.33,43.74,69.72,45.14,71.32,45.46Z" transform="translate(0 2.32)"/><path class="cls-12" d="M78.93,40c-1.81,4.53-4.28,6.24-7.73,5.52l2.21,4.94C77.11,48.4,81.58,44.2,78.93,40Z" transform="translate(0 2.32)"/><path class="cls-10" d="M63.44,26.79c0,7.67-.39,17.71,8.08,15C82,40.23,81.66,23.89,76.67,18.29,70.68,14.34,63.12,18.5,63.44,26.79Z" transform="translate(0 2.32)"/><path class="cls-13" d="M73.08,29.42c.17,1.55-1.48,1.78-1.81.18C71.1,28.05,72.92,27.87,73.08,29.42Z" transform="translate(0 2.32)"/><path class="cls-13" d="M67.09,29.71c.17,1.55-1.49,1.77-1.82.18C65.33,28.49,66.87,28.32,67.09,29.71Z" transform="translate(0 2.32)"/><path class="cls-11" d="M70.13,33.5l-2.25.15.52-4.8c.16.08,0,4.07.1,4.18l1.57.37Z" transform="translate(0 2.32)"/><polygon class="cls-13" points="68.4 35.41 68.44 31.01 68.55 30.96 68.67 35.4 68.4 35.41"/><path class="cls-14" d="M64.64,27.5a1.55,1.55,0,0,1,1.82-.18" transform="translate(0 2.32)"/><path class="cls-14" d="M71.16,26.92A1.53,1.53,0,0,1,73,26.75" transform="translate(0 2.32)"/><path class="cls-15" d="M77.89,29l-1.52-.53c-2.15-6.45,1.17-9.61-7.39-8a6.08,6.08,0,0,1-2.31-.24c-.28-.25-1.74.82-1.74.82-.11-.21-3-1.65-2.55-2.15,3-2.08,1.77-2.37,6.26-1.8,1.31-.51,2.23-1,3.79-.3,8.2,0,7,6.16,8,10.62Z" transform="translate(0 2.32)"/><path class="cls-10" d="M77.38,29.52c1.84-5.11,5.36-2.67,3.13,2C79.27,34.22,76.76,32.87,77.38,29.52Z" transform="translate(0 2.32)"/><path class="cls-11" d="M80,27.28c-1,0-1.64,3.23-1.64,3.23,0-.17.78-.57.9-.09.15-.49-.75-.13-.9.09.2-.39.77-3.57,2-2.76C80.57,27.63,80.3,27.37,80,27.28Z" transform="translate(0 2.32)"/><path class="cls-11" d="M71.08,30.25c.89.88,2,1.21,2.86.48-.6,1.15-1.45,1.34-3,.11Z" transform="translate(0 2.32)"/><path class="cls-11" d="M67.34,30.66c-.33,1.14-1.12,1.44-2,.94.63.88,1.33.91,2.12-.62Z" transform="translate(0 2.32)"/><path class="cls-15" d="M67.08,34.91a3.31,3.31,0,0,1,4.11-.48c1.2.7,1.26,2.31,2.18,2.49,3.63-.81,2.79-9,2.86-10.73L78,28.11c-1.22,3.66.43,6.44.2,9.32-1.71,4.7-10.45,7.19-13.31,3.62-1.22-1.86-.61-4.3-1.26-6.27C64.78,38.7,65.66,38.18,67.08,34.91Z" transform="translate(0 2.32)"/><path class="cls-16" d="M55.5,70.61C35.2,58.1,23,76,19.56,99.19c3.11,3.83,7.55,4.43,12.94,2.76.24-9.71,1-15.22,7.07-24,4.07-.36,7.54,1.79,12.81,1.31" transform="translate(0 2.32)"/><path class="cls-16" d="M67.72,71.16l-2.28,2.63c-17.38-12-31.08,9.37-33.3,29.47,3.11,3.84,7.55,4.44,12.94,2.76.24-9.7,1.31-15.81,7.42-24.56,4.08-.36,7.19,2.28,12.46,1.92" transform="translate(0 2.32)"/><path class="cls-5" d="M57.42,90.21C51,75.12,59.66,64.7,73.71,69.6c5,1.48,7.44,2.31,8.86-1.8-2.24-38.14-1.66-46.35,16.3-43.24-2.76,24.56-6.59,46.48-12.22,61Z" transform="translate(0 2.32)"/><path class="cls-6" d="M60.41,92.12C54,77,62.65,66.62,76.7,71.52c5,1.48,7.44,2.31,8.87-1.8-3-31.39-.6-44.8,5.75-44.56,3.23.24,5.27,1.07,6.47-.36,9-3.88-7.72,65.41-8.27,62.65Z" transform="translate(0 2.32)"/><path class="cls-8" d="M60.49,44c-2.89,3.18-6.64,9.8-10.33,16.23-4.48-1.18-9.15.32-14.68.85.12,2.69.35,3.06,2.38,4.89l18.6,2.29Z" transform="translate(0 2.32)"/><path class="cls-17" d="M54.85,56.51l-13.41-1c2.28,3.85,4.27,9.32,4,11.85l13.73.92C59.54,65.27,57.72,60.06,54.85,56.51Z" transform="translate(0 2.32)"/><path class="cls-10" d="M63.77,63l-2.52-.24c-1.2-2.27-4.91-2.63-6.83-1.79-8.5,2.27,6.71,7.9,9.35,6.7Z" transform="translate(0 2.32)"/><polygon class="cls-18" points="41.44 57.86 37.99 60.78 51 61.71 54.85 58.84 41.44 57.86"/><polygon class="cls-18" points="45.53 69.65 43.18 73.74 56.19 74.67 59.22 70.54 45.53 69.65"/><path class="cls-10" d="M35.87,61.92a21.27,21.27,0,0,0-3,1.2c-1.79.88-2.9,1.42-3.77,2.61s-1.76,3.39-.83,4.46a2.2,2.2,0,0,0,2.16.54c.63-.2.83-.64,1.64-1.49a13,13,0,0,1,2-1.72,2.29,2.29,0,0,1,1-.58,2.19,2.19,0,0,1,.61-.09,2.18,2.18,0,0,0-.37.87,2.15,2.15,0,0,0,.07,1c.3.53.71.83,1.73-.13.47-1,.06-2.45.52-3.58A5,5,0,0,0,35.87,61.92Z" transform="translate(0 2.32)"/><path class="cls-13" d="M69.14,38.93a3.24,3.24,0,0,0,2.07-.8" transform="translate(0 2.32)"/></g><path class="cls-19" d="M103.05,47.89c-1,57.92-87.15,57.91-88.13,0C15.91-10,102.07-10,103.05,47.89Z" transform="translate(0 2.32)"/></g><polygon class="cls-17" points="0 15.8 27.85 2.32 39.36 10.14 12.74 23.07 0 15.8"/><polygon class="cls-20" points="39.36 10.14 45.11 34.2 19.17 46.94 12.16 22.74 39.36 10.14"/><text class="cls-21" transform="matrix(0.87, -0.39, 0.13, 0.99, 15.34, 25.73)">Get<tspan class="cls-22" x="6.57" y="0"> </tspan><tspan class="cls-23" x="7.59" y="0">Y</tspan><tspan x="9.93" y="0">our</tspan><tspan x="0" y="4.73">State Pension</tspan></text><polygon class="cls-20" points="5.06 15.54 12.16 11.91 13.41 12.5 6.12 16.05 5.06 15.54"/><polygon class="cls-20" points="6.66 16.45 13.76 12.82 15.01 13.41 7.71 16.96 6.66 16.45"/><polygon class="cls-20" points="8.22 17.41 15.32 13.77 16.57 14.36 9.28 17.91 8.22 17.41"/><polygon class="cls-20" points="9.66 18.32 16.76 14.68 18.01 15.27 10.72 18.82 9.66 18.32"/><polygon class="cls-20" points="23.82 9.42 30.92 5.78 32.17 6.37 24.88 9.93 23.82 9.42"/><polygon class="cls-20" points="25.42 10.33 32.52 6.69 33.77 7.28 26.48 10.84 25.42 10.33"/><polygon class="cls-20" points="26.99 11.28 34.09 7.64 35.34 8.23 28.04 11.79 26.99 11.28"/><polygon class="cls-20" points="28.43 12.19 35.52 8.55 36.77 9.14 29.48 12.7 28.43 12.19"/><polygon class="cls-20" points="27.77 3.62 30.17 5.31 26.84 6.83 24.47 5.22 27.77 3.62"/><polygon class="cls-24" points="16.57 32.04 16.88 33.01 39.93 22.35 39.74 21.42 16.57 32.04"/><polygon class="cls-24" points="17.33 33.68 17.64 34.66 40.69 24 40.5 23.07 17.33 33.68"/><polygon class="cls-24" points="17.78 35.42 18.09 36.39 41.14 25.73 40.95 24.81 17.78 35.42"/><polygon class="cls-24" points="21.36 36.39 21.66 37.56 30.58 33.64 30.33 32.33 21.36 36.39"/><polygon class="cls-24" points="23.31 37.66 24.11 40.35 33.22 36.39 32.65 33.73 23.31 37.66"/><polygon class="cls-24" points="23.31 41.28 23.6 42.44 32.53 38.53 32.27 37.21 23.31 41.28"/><polygon class="cls-24" points="45.11 34.2 35.34 41.1 15.84 50.31 19.17 46.94 45.11 34.2"/></g></g></g></svg>