<?xml version="1.0" encoding="utf-8"?>
<!-- Generator: Adobe Illustrator 26.0.1, SVG Export Plug-In . SVG Version: 6.00 Build 0)  -->
<svg version="1.1" id="Layer_1" xmlns="http://www.w3.org/2000/svg" xmlns:xlink="http://www.w3.org/1999/xlink" x="0px" y="0px"
	 viewBox="0 0 97.8 97.4" style="enable-background:new 0 0 97.8 97.4;" xml:space="preserve">
<style type="text/css">
	.st0{clip-path:url(#SVGID_00000023994731359384089420000008538240046554092695_);}
	.st1{fill:url(#SVGID_00000028324131892354816800000018285795437068737184_);}
	.st2{fill:#ADA7A5;}
	.st3{fill:#A2888E;}
	.st4{fill:#C79E76;}
	.st5{clip-path:url(#SVGID_00000061444836199902624600000012941108576270334599_);}
	.st6{fill:#DACDD7;}
	.st7{fill:#778899;}
	.st8{fill:#8DA1B5;}
	.st9{fill:#73574A;}
	.st10{fill:#523E35;}
	.st11{fill:#778645;}
	.st12{fill:#2F4132;}
	.st13{fill:#6C7B3E;}
	.st14{fill:#86A05C;}
	.st15{fill:#4F6136;}
	.st16{fill:#BA944F;}
	.st17{fill:#FBFF00;}
	.st18{fill:#C1B27B;}
	.st19{fill:#00CEFF;}
	.st20{opacity:0.12;fill:#6AE3FF;enable-background:new    ;}
	.st21{fill:#9A4242;}
	.st22{fill:#799153;}
	.st23{fill:#FFFFFF;}
	.st24{fill:#D2BA84;}
	.st25{fill:#D2A4CD;}
	.st26{fill:#C082BA;}
	.st27{fill:#BD6DA6;}
	.st28{fill:#0095BF;}
	.st29{fill:none;stroke:#2D76AD;stroke-miterlimit:10;}
	.st30{fill:#F8C7A3;}
	.st31{fill:#E3B696;}
	.st32{fill:#0083A8;}
	.st33{fill:#412A74;}
	.st34{fill:none;stroke:#2E3192;stroke-linecap:round;stroke-miterlimit:10;}
	.st35{fill:#635F78;}
	.st36{fill:#5F768F;}
	.st37{fill:#F4CBA8;}
	.st38{fill:#E0594C;}
	.st39{fill:#F4E2D3;}
	.st40{fill:#EE7867;}
	.st41{fill:#BF4747;}
	.st42{fill:#FF5F5F;}
	.st43{fill:#FCFFBA;}
	.st44{fill:none;stroke:#2E3192;stroke-width:0.25;stroke-miterlimit:10;}
	.st45{fill:#B54B4B;}
	.st46{fill:#943E3E;}
	.st47{fill:#BA4E4E;}
	.st48{fill:#B88700;}
	.st49{fill:#D49C00;}
	.st50{fill:none;stroke:#E6A900;stroke-width:0.5;stroke-miterlimit:10;}
	.st51{fill:#C7A98B;}
	.st52{opacity:0.22;fill:none;stroke:#1B1464;stroke-width:2;stroke-miterlimit:10;enable-background:new    ;}
</style>
<g id="Layer_2_00000032623009026041938310000008482392229024217785_">
	<g id="MainLayer">
		<g id="rpcust2">
			<g>
				<defs>
					<path id="SVGID_1_" d="M95.4,48.6c-1,60.8-91.5,60.8-92.5,0C3.9-12.2,94.4-12.2,95.4,48.6z"/>
				</defs>
				<clipPath id="SVGID_00000071519058511913133590000001774764111018639770_">
					<use xlink:href="#SVGID_1_"  style="overflow:visible;"/>
				</clipPath>
				<g style="clip-path:url(#SVGID_00000071519058511913133590000001774764111018639770_);">
					
						<linearGradient id="SVGID_00000142867691764532910690000012161560250185624493_" gradientUnits="userSpaceOnUse" x1="14.3289" y1="8.4295" x2="12.7889" y2="115.8461" gradientTransform="matrix(1 0 0 -1 35.55 109.5131)">
						<stop  offset="0.38" style="stop-color:#CEDCC8"/>
						<stop  offset="0.42" style="stop-color:#D4E0CE"/>
						<stop  offset="0.65" style="stop-color:#EBF1E9"/>
						<stop  offset="0.85" style="stop-color:#FAFBF9"/>
						<stop  offset="1" style="stop-color:#FFFFFF"/>
					</linearGradient>
					<path style="fill:url(#SVGID_00000142867691764532910690000012161560250185624493_);" d="M103.6,48.6
						c-1.2,71.6-107.8,71.6-109,0C-4.1-23,102.4-23,103.6,48.6z"/>
					<rect x="-34.5" y="-13.2" class="st2" width="161.5" height="121.2"/>
					<rect x="-2" y="43.3" class="st3" width="20.1" height="8.5"/>
					<rect x="19.4" y="43.3" class="st3" width="17.9" height="8.5"/>
					<rect x="12.5" y="33.7" class="st3" width="20.1" height="8.5"/>
					<rect x="-12.1" y="52.9" class="st3" width="20.1" height="8.5"/>
					<rect x="9.4" y="52.9" class="st3" width="20.1" height="8.5"/>
					<rect x="30.5" y="53" class="st3" width="20.1" height="8.5"/>
					<rect x="20.4" y="62.6" class="st3" width="20.1" height="8.5"/>
					<rect x="41.9" y="62.6" class="st3" width="20.1" height="8.5"/>
					<rect x="-0.7" y="62.7" class="st3" width="20.1" height="8.5"/>
					<rect x="-10.8" y="72.3" class="st3" width="20.1" height="8.5"/>
					<rect x="10.7" y="72.3" class="st3" width="20.1" height="8.5"/>
					<rect x="31.6" y="72.3" class="st3" width="20.1" height="8.5"/>
					<rect x="21.6" y="81.8" class="st3" width="20.1" height="8.5"/>
					<rect x="43" y="81.8" class="st3" width="20.1" height="8.5"/>
					<rect x="-20.3" y="24.1" class="st3" width="20.1" height="8.5"/>
					<rect x="-30.4" y="33.7" class="st3" width="20.1" height="8.5"/>
					<rect x="-8.9" y="33.7" class="st3" width="20.1" height="8.5"/>
					<rect x="10.8" y="14.3" class="st3" width="20.1" height="8.5"/>
					<rect x="0.8" y="23.9" class="st3" width="20.1" height="8.5"/>
					<rect x="22.2" y="23.9" class="st3" width="20.1" height="8.5"/>
					<rect x="-21.9" y="4.4" class="st3" width="20.1" height="8.5"/>
					<rect x="-31.9" y="14" class="st3" width="20.1" height="8.5"/>
					<rect x="-10.5" y="14" class="st3" width="20.1" height="8.5"/>
					<rect x="0" y="81.9" class="st3" width="20.1" height="8.5"/>
					<rect x="-10.1" y="91.5" class="st3" width="20.1" height="8.5"/>
					<rect x="11.3" y="91.5" class="st3" width="20.1" height="8.5"/>
					<rect x="42.3" y="4.4" class="st3" width="20.1" height="8.5"/>
					<rect x="32.3" y="14" class="st3" width="20.1" height="8.5"/>
					<rect x="53.7" y="14" class="st3" width="20.1" height="8.5"/>
					<rect x="43.9" y="23.9" class="st3" width="20.1" height="8.5"/>
					<rect x="33.8" y="33.5" class="st3" width="20.1" height="8.5"/>
					<rect x="55.3" y="33.5" class="st3" width="20.1" height="8.5"/>
					<rect x="38.6" y="43.3" class="st3" width="20.1" height="8.5"/>
					<rect x="60.1" y="43.3" class="st3" width="20.1" height="8.5"/>
					<rect x="52.4" y="53" class="st3" width="20.1" height="8.5"/>
					<rect x="76.3" y="52.5" class="st3" width="20.1" height="8.5"/>
					<rect x="53.1" y="72.2" class="st3" width="20.1" height="8.5"/>
					<rect x="74.5" y="71.4" class="st3" width="20.1" height="8.5"/>
					<rect x="63.3" y="62.6" class="st3" width="20.1" height="8.5"/>
					<rect x="84.6" y="61.5" class="st3" width="20.1" height="8.5"/>
					<rect x="64" y="81.8" class="st3" width="20.1" height="8.5"/>
					<rect x="85.4" y="81.8" class="st3" width="20.1" height="8.5"/>
					<rect x="32.8" y="91.5" class="st3" width="20.1" height="8.5"/>
					<rect x="54.3" y="91.5" class="st3" width="20.1" height="8.5"/>
					<rect x="65.6" y="23.7" class="st3" width="20.1" height="8.5"/>
					<rect x="87.1" y="23.7" class="st3" width="20.1" height="8.5"/>
					<rect x="76.3" y="33.7" class="st3" width="20.1" height="8.5"/>
					<rect x="97.8" y="33.7" class="st3" width="20.1" height="8.5"/>
					<rect x="75.4" y="13.8" class="st3" width="20.1" height="8.5"/>
					<rect x="20.9" y="4.2" class="st3" width="20.1" height="8.5"/>
					<rect x="-0.7" y="4.2" class="st3" width="20.1" height="8.5"/>
					<rect x="63.3" y="4.4" class="st3" width="20.1" height="8.5"/>
					<rect x="-23.5" y="43.3" class="st3" width="20.1" height="8.5"/>
					<rect x="-22.7" y="62.6" class="st3" width="20.1" height="8.5"/>
					<rect x="-22.2" y="81.9" class="st3" width="20.1" height="8.5"/>
					<rect x="81.5" y="43.2" class="st3" width="20.1" height="8.5"/>
					<rect x="75.4" y="91.5" class="st3" width="20.1" height="8.5"/>
					<rect x="108.3" y="23.6" class="st3" width="20.1" height="8.5"/>
					<rect x="119" y="33.6" class="st3" width="20.1" height="8.5"/>
					<rect x="84.8" y="4.4" class="st3" width="20.1" height="8.5"/>
					<rect x="96.5" y="13.8" class="st3" width="20.1" height="8.5"/>
					<rect x="88.1" y="43.2" class="st3" width="20.1" height="8.5"/>
					<rect x="109.3" y="43.3" class="st3" width="20.1" height="8.5"/>
					<rect x="97.8" y="52.5" class="st3" width="20.1" height="8.5"/>
					<rect x="105.8" y="61.5" class="st3" width="20.1" height="8.5"/>
					<rect x="95.9" y="71.4" class="st3" width="20.1" height="8.5"/>
					<rect x="117.1" y="71.4" class="st3" width="20.1" height="8.5"/>
					<rect x="-12.5" y="-5.1" class="st3" width="20.1" height="8.5"/>
					<rect x="51.8" y="-5.1" class="st3" width="20.1" height="8.5"/>
					<rect x="30.3" y="-5.4" class="st3" width="20.1" height="8.5"/>
					<rect x="8.7" y="-5.4" class="st3" width="20.1" height="8.5"/>
					<rect x="72.7" y="-5.1" class="st3" width="20.1" height="8.5"/>
					<rect x="94.2" y="-5.1" class="st3" width="20.1" height="8.5"/>
					<rect x="6.1" y="9.1" class="st4" width="83.7" height="67.9"/>
					<g>
						<defs>
							<rect id="SVGID_00000025404706490593776330000003531791709374838406_" x="10" y="11.6" width="76.8" height="62.8"/>
						</defs>
						<clipPath id="SVGID_00000007421305411107353700000008847854890512245948_">
							<use xlink:href="#SVGID_00000025404706490593776330000003531791709374838406_"  style="overflow:visible;"/>
						</clipPath>
						<g style="clip-path:url(#SVGID_00000007421305411107353700000008847854890512245948_);">
							<rect x="-16.4" y="-11.4" class="st6" width="105.1" height="108.7"/>
							<path class="st7" d="M12.7,56.5c0.5,3.6,0.7,7.6,3.7,8.1c2.6,0.5,5.2,0.4,7.8-0.2c2-0.4,2.8-4,3.3-8L12.7,56.5z"/>
							<ellipse class="st8" cx="20.1" cy="56.5" rx="7.4" ry="2.9"/>
							<ellipse class="st9" cx="20.1" cy="56.5" rx="5.9" ry="2.3"/>
							<path class="st10" d="M19.7,50.6h1.1c0.5,0,0.8,0.4,0.8,0.8v4.8c0,0.5-0.4,0.8-0.8,0.8h-1.1c-0.5,0-0.8-0.4-0.8-0.8v-4.8
								C18.9,51,19.3,50.6,19.7,50.6z"/>
							<path class="st11" d="M20.8,19.8l-19,29.1c0,0,1.3,2.3,3.9,0.4c0.8-0.5-0.6,5,0.8,5.2c0.7,0.1,5.4-3.9,6.5-3.8
								s1.4,5.1,2.6,5.2c0.8,0,2.4-4.9,3.2-4.9s1.9,3.7,2.5,3.7s0.7-3.8,1.3-3.8c0.9,0,2.9,4.3,3.7,4.3c1-0.1,0.8-4.6,1.7-4.7
								s4.7,3.8,5.6,3.7c1.3-0.2-1.3-7.1-0.3-6.1c2.2,1.9,5.6,0.9,5.6,0.9L20.8,19.8z"/>
							<path class="st12" d="M32.1,43.3c-0.1-0.1-0.3-0.2-0.4-0.2c-0.4-0.3-0.1,1.2-0.1,2.5l0,0C32.1,45.4,32.1,44.3,32.1,43.3z"/>
							<path class="st13" d="M25.8,44.1c0.9-0.1,4.7,3.2,5.3,3.1s0.5-0.8,0.5-1.7c-0.6,0-4.4-3.2-5.3-3.1c-0.5,0-0.8,1.5-1.2,2.6
								C25.3,44.6,25.5,44.1,25.8,44.1z"/>
							<path class="st13" d="M9.2,41.9c0.9-0.8-1.3,4.9-0.2,5c0.7,0.1,3.7-3.1,4.6-3s0.6,3.7,1.4,3.8s2.3-3.5,3-3.5
								c0.5,0,0.6,3.1,1.1,3.1s1.5-3,2.1-3s2,4,2.6,4s0.9-1.5,1.3-2.7c-0.2,0.6-0.5,1-0.8,1c-0.6,0-1.9-4-2.6-4s-1.5,3-2.1,3
								s-0.6-3-1.1-3.1c-0.7,0-2.3,3.5-3,3.5s-0.6-3.7-1.4-3.8s-3.8,3.1-4.5,3c-1.1-0.1,1.1-5.7,0.2-5c-0.8,0.7-1.9,1-3,1l-1.1,1.7
								C6.9,43,8.2,42.7,9.2,41.9z"/>
							<path class="st13" d="M35,42.6l-0.5-0.8c-0.8,0.2-1.6,0-2.2-0.5c-0.3-0.2-0.2,0.8-0.1,2C33.1,43.9,34.4,43.6,35,42.6
								C35,42.7,35,42.6,35,42.6z"/>
							<path class="st14" d="M19.9,17.3L35.4,41c0,0-1.1,1.9-3.2,0.4c-0.6-0.5,0.5,4-0.6,4.2c-0.5,0.1-4.4-3.2-5.3-3.1
								s-1.2,4.2-2.1,4.2c-0.6,0-1.9-4-2.6-4s-1.5,3-2.1,3s-0.6-3.1-1.1-3.1c-0.7,0-2.3,3.5-3,3.5s-0.6-3.7-1.4-3.8s-3.8,3.1-4.5,3
								c-1.1-0.1,1.1-5.8,0.2-5C8,41.8,5.2,41,5.2,41L19.9,17.3z"/>
							<path class="st15" d="M29.4,35.7c0-0.7-0.2-1.4-0.3-2.1C28.9,33.6,29.2,34.7,29.4,35.7z"/>
							<path class="st15" d="M10.3,34.6l-0.1,0.1c-0.1,0.6,0,1.2,0.2,1.7C10.4,35.4,10.6,34.4,10.3,34.6z"/>
							<path class="st15" d="M10.2,34.6c0.1-0.6,0.1-1.1,0-1.7l-1.3,2.1C9.4,35.1,9.8,34.9,10.2,34.6z"/>
							<path class="st13" d="M29.1,33.6c0,0,0.1,0,0.1,0c0.5,0.4,1.2,0.7,1.9,0.8l-1.2-1.8c-0.4-0.1-0.7-0.3-1-0.6
								C28.7,31.7,28.9,32.6,29.1,33.6z"/>
							<path class="st13" d="M29.2,36.2c-0.6,0.1-3.1-2.6-3.8-2.5s-0.5,3.1-1.2,3.2s-1.9-2.9-2.5-2.9c-0.4,0-0.5,2.6-0.9,2.6
								s-1.3-2.5-1.7-2.5s-1.6,3.4-2.2,3.4c-0.8,0-1-3.5-1.8-3.5s-4,2.7-4.4,2.6c-0.1,0-0.1-0.1-0.2-0.1c0,0.8,0,1.7,0.4,1.7
								s3.7-2.7,4.4-2.6c0.8,0.1,1,3.5,1.8,3.5c0.5,0,1.6-3.4,2.2-3.4s1.3,2.5,1.8,2.5s0.5-2.6,0.9-2.6c0.6,0,2,3,2.5,2.9
								s0.5-3.1,1.2-3.2s3.2,2.6,3.8,2.5c0.4,0,0.3-1.1,0-2.1C29.4,36,29.4,36.2,29.2,36.2z"/>
							<path class="st11" d="M20.4,12.8l-13,19.9c0,0,0.9,1.6,2.7,0.3c0.5-0.4-0.4,3.4,0.5,3.5c0.4,0.1,3.7-2.7,4.4-2.6
								s1,3.5,1.8,3.5c0.5,0,1.6-3.4,2.2-3.4s1.3,2.5,1.7,2.5s0.5-2.6,0.9-2.6c0.6,0,2,3,2.5,2.9s0.5-3.1,1.2-3.2s3.2,2.6,3.8,2.5
								c0.9-0.1-0.9-4.8-0.2-4.2c1.5,1.3,3.8,0.6,3.8,0.6L20.4,12.8z"/>
							<path class="st13" d="M12.8,25.7c-0.1,0.1-0.3,0.2-0.4,0.3c-0.2,0.8-0.3,1.6,0.1,1.6h0.1C12.8,26.5,13.2,25.4,12.8,25.7z"/>
							<path class="st13" d="M12.8,24.5l-1.2,1.8c0.3-0.1,0.6-0.2,0.9-0.3C12.5,25.4,12.7,24.8,12.8,24.5z"/>
							<path class="st13" d="M28,27.8c-0.4,0.1-3-2.2-3.7-2.2s-0.8,2.9-1.5,2.9c-0.4,0-1.4-2.8-1.8-2.8s-1.1,2.1-1.5,2.1
								s-0.4-2.1-0.8-2.2c-0.5,0-1.6,2.5-2.1,2.4c-0.5,0-0.4-2.6-1-2.6s-2.4,1.9-3.1,2.1c-0.2,0.8-0.3,1.6,0.1,1.7
								c0.5,0.1,2.6-2.1,3.2-2.1s0.4,2.6,1,2.7s1.6-2.5,2.1-2.4c0.3,0,0.4,2.1,0.8,2.2s1.1-2.1,1.5-2.1s1.4,2.8,1.8,2.8
								c0.7,0,0.9-2.9,1.5-2.9s3.3,2.2,3.7,2.1c0.8-0.1,0-3.3,0.4-2.9c0.1,0.1,0.3,0.2,0.4,0.2l-0.8-1.2
								C28.3,26.4,28.5,27.7,28,27.8z"/>
							<path class="st14" d="M19.8,8l10.9,16.6c-0.4,0.7-1.3,0.9-1.9,0.5c-0.1-0.1-0.2-0.1-0.3-0.2c-0.4-0.3,0.3,2.8-0.4,2.9
								c-0.4,0.1-3.1-2.2-3.7-2.2s-0.8,2.9-1.5,3c-0.4,0-1.4-2.8-1.8-2.8s-1.1,2.1-1.5,2.1s-0.4-2.1-0.8-2.2c-0.5,0-1.6,2.5-2.1,2.4
								c-0.5,0-0.4-2.6-1-2.7s-2.7,2.2-3.2,2.1c-0.8-0.1,0.8-4,0.2-3.5c-0.9,0.6-2.1,0.8-3.2,0.5L19.8,8z"/>
							<polygon class="st16" points="19.8,1.1 21.4,4.4 24.9,4.9 22.4,7.4 23,10.9 19.8,9.2 16.6,10.9 17.2,7.4 14.7,4.9 18.2,4.4 
															"/>
							<polygon class="st12" points="27.7,47.2 28.1,48 29,48.2 28.4,48.8 28.5,49.7 27.7,49.3 26.9,49.7 27.1,48.8 26.4,48.2 
								27.3,48 							"/>
							<circle class="st12" cx="8.5" cy="49.7" r="1.1"/>
							<path class="st12" d="M18.2,49.4c-0.1,0.5-0.5,0.9-1,0.8c-0.4,0-0.8-0.4-0.8-0.8c-0.1-0.5,0.3-1,0.8-1c0.5-0.1,1,0.3,1,0.8
								C18.2,49.3,18.2,49.4,18.2,49.4z"/>
							<path class="st12" d="M35.4,46.4c0,0.4-0.3,0.8-0.8,0.8c-0.4,0-0.8-0.3-0.8-0.8c0-0.4,0.3-0.8,0.8-0.8c0,0,0,0,0,0
								C35.1,45.6,35.4,46,35.4,46.4z"/>
							<polygon class="st17" points="27.7,47 28.1,47.8 29,47.9 28.4,48.5 28.5,49.4 27.7,49 26.9,49.4 27.1,48.5 26.4,47.9 
								27.3,47.8 							"/>
							<circle class="st18" cx="8.5" cy="49.4" r="1.1"/>
							<path class="st19" d="M18.2,49.1c0.1,0.5-0.3,1-0.8,1c-0.5,0.1-1-0.3-1-0.8c0-0.1,0-0.1,0-0.2c0.1-0.5,0.5-0.9,1-0.8
								C17.8,48.3,18.2,48.7,18.2,49.1z"/>
							<path class="st19" d="M35.4,46.1c0,0.4-0.3,0.8-0.8,0.8s-0.8-0.3-0.8-0.8s0.3-0.8,0.8-0.8h0C35.1,45.4,35.4,45.7,35.4,46.1z"
								/>
							<polygon class="st13" points="25.4,31.1 25.8,31.8 26.6,32 26,32.5 26.1,33.3 25.4,32.9 24.8,33.3 24.9,32.5 24.3,32 
								25.1,31.8 							"/>
							<circle class="st13" cx="12" cy="31.1" r="1.1"/>
							<path class="st13" d="M19.7,31.9c0,0.5-0.4,1-0.9,1s-1-0.4-1-0.9c0-0.5,0.4-1,0.9-1c0,0,0,0,0,0
								C19.3,30.9,19.7,31.4,19.7,31.9C19.7,31.9,19.7,31.9,19.7,31.9z"/>
							<path class="st13" d="M30.2,30c0,0.4-0.3,0.7-0.7,0.7s-0.7-0.3-0.7-0.7s0.3-0.7,0.7-0.7l0,0C29.9,29.4,30.2,29.7,30.2,30z"/>
							<polygon class="st20" points="25.4,30.9 25.8,31.6 26.6,31.7 26,32.3 26.1,33 25.4,32.7 24.8,33 24.9,32.3 24.3,31.7 
								25.1,31.6 							"/>
							<path class="st21" d="M13.1,30.9c0,0.6-0.5,1.1-1.1,1.1c-0.6,0-1.1-0.5-1.1-1.1c0-0.6,0.5-1.1,1.1-1.1
								C12.6,29.8,13.1,30.3,13.1,30.9C13.1,30.9,13.1,30.9,13.1,30.9z"/>
							<path class="st21" d="M19.7,31.6c-0.1,0.5-0.5,0.9-1,0.8c-0.4,0-0.8-0.4-0.8-0.8c-0.1-0.5,0.3-1,0.8-1c0.5-0.1,1,0.3,1,0.8
								C19.7,31.5,19.7,31.6,19.7,31.6z"/>
							<path class="st21" d="M30.2,29.8c0,0.4-0.3,0.7-0.6,0.7c-0.4,0-0.7-0.3-0.7-0.6c0-0.4,0.3-0.7,0.6-0.7c0,0,0,0,0,0
								C29.9,29.1,30.2,29.4,30.2,29.8z"/>
							<polygon class="st15" points="13.8,38.7 14.2,39.4 14.9,39.5 14.4,40 14.5,40.8 13.8,40.4 13.2,40.8 13.3,40 12.8,39.5 
								13.5,39.4 							"/>
							<circle class="st15" cx="22.5" cy="40.2" r="1.1"/>
							<path class="st15" d="M9.1,37.6c0,0.3-0.2,0.5-0.4,0.5s-0.5-0.2-0.5-0.4c0-0.3,0.2-0.5,0.4-0.5c0,0,0,0,0,0
								C8.8,37.1,9.1,37.3,9.1,37.6z"/>
							<circle class="st15" cx="30" cy="40.8" r="0.9"/>
							<polygon class="st16" points="13.8,38.5 14.2,39.1 14.9,39.2 14.4,39.8 14.5,40.5 13.8,40.2 13.2,40.5 13.3,39.8 12.8,39.2 
								13.5,39.1 							"/>
							<circle class="st16" cx="22.5" cy="39.9" r="1.1"/>
							<path class="st16" d="M9.1,37.3c0,0.3-0.2,0.5-0.5,0.5s-0.5-0.2-0.5-0.5c0-0.3,0.2-0.5,0.5-0.5l0,0C8.9,36.8,9.1,37,9.1,37.3
								z"/>
							<path class="st16" d="M30.9,40.5c0.1,0.5-0.3,1-0.8,1c-0.5,0.1-1-0.3-1-0.8c0-0.1,0-0.1,0-0.2c0.1-0.5,0.5-0.9,1-0.8
								C30.5,39.7,30.9,40,30.9,40.5z"/>
							<polygon class="st22" points="15.3,20.3 15.7,21.1 16.6,21.2 16,21.8 16.1,22.7 15.3,22.3 14.5,22.7 14.7,21.8 14,21.2 
								14.9,21.1 							"/>
							<polygon class="st22" points="23.6,17.1 24,17.8 24.7,17.9 24.2,18.4 24.3,19.2 23.6,18.8 23,19.2 23.1,18.4 22.6,17.9 
								23.3,17.8 							"/>
							<circle class="st22" cx="22.5" cy="23.6" r="1.1"/>
							<path class="st22" d="M19.6,15.4c0,0.5-0.4,0.9-0.9,0.9c-0.5,0-0.9-0.4-0.9-0.9c0-0.5,0.4-0.9,0.9-0.9S19.6,14.9,19.6,15.4
								L19.6,15.4z"/>
							<polygon class="st17" points="15.3,20 15.7,20.8 16.6,20.9 16,21.6 16.1,22.5 15.3,22 14.5,22.5 14.7,21.6 14,20.9 
								14.9,20.8 							"/>
							<polygon class="st17" points="23.6,16.8 24,17.5 24.7,17.6 24.2,18.2 24.3,18.9 23.6,18.6 23,18.9 23.1,18.2 22.6,17.6 
								23.3,17.5 							"/>
							<circle class="st23" cx="22.5" cy="23.4" r="1.1"/>
							<path class="st23" d="M19.6,15.1c0,0.5-0.4,0.9-0.9,0.9c-0.5,0-0.9-0.4-0.9-0.9c0-0.5,0.4-0.9,0.9-0.9
								C19.2,14.2,19.6,14.6,19.6,15.1C19.6,15.1,19.6,15.1,19.6,15.1z"/>
							<polygon class="st24" points="83.1,66 86.2,82.7 84.4,83.3 79.2,66 							"/>
							<polygon class="st24" points="62.4,71.2 63.1,88.1 65,88.3 66,70.3 							"/>
							<polygon class="st24" points="67.4,66.5 69.6,80.9 68.2,81.3 64.6,66.5 							"/>
							<path class="st25" d="M40.4,69.9c-4.2-10.3,1.5-17.5,11.2-14.2c3.5,0.9,5,1.6,6.1-1.2c-2-21.5-0.4-30.3,4.1-30.2l7.4,0.6
								c-1.9,16.8-4.9,31.7-8.8,41.7L40.4,69.9z"/>
							<path class="st26" d="M42.6,71.3C38.3,61,44,53.9,53.7,57.1c3.5,0.9,5.1,1.6,6.1-1.2c-1.5-26.7-2.6-32.1,10.6-30.5
								c-1.9,16.8-4,32.7-7.9,42.7L42.6,71.3z"/>
							<polygon class="st27" points="93.2,25.5 69.3,25 63.8,64.2 86.8,70.3 							"/>
							<polyline class="st25" points="64.4,75.2 40.4,69.9 39,64 62.5,68.1 64.7,73.7 							"/>
							<path class="st28" d="M65.5,38.8c-3.6,0.7-4.4,15.2-4.3,21.9c6.6-2.6,10.6,5.2,17.1,4.7l3.8-24.7
								C76,36.7,71.2,36.4,65.5,38.8z"/>
							<path class="st28" d="M83,40.6c1.8,1.6,1.1,3.9,0.8,13.5c0.3,4.4-4.6,8.3-6.9,3.5C77.3,55.1,77.1,34.9,83,40.6z"/>
							<path class="st28" d="M81.4,59.1c-0.7,1.7-6.3,1.4-13.1,0.8c-3,0-1.1-4.7-0.7-6.5C70.2,53.6,86.9,53.2,81.4,59.1z"/>
							<path class="st29" d="M78,45.4c-0.7,3.3-0.7,6.7,0,9.9c-3.4,0.4-7.2-1.1-10.5-2c-0.9,2.2,0,4.4-0.3,6.1"/>
							<line class="st29" x1="77.1" y1="45.1" x2="77.8" y2="46.5"/>
							<path class="st30" d="M78.3,34L77.8,40c-1,0.7,0.1,0-2.9,0.8c-0.8,0.5-4.4,0-4.5-0.6l1.2-3.8L78.3,34z"/>
							<path class="st31" d="M70.5,39.3c4.7-0.5,6.8-2.7,7.1-4.7l-6.2,2.7L70.5,39.3z"/>
							<path class="st32" d="M72.4,40.7l-2.1,2.7c-1-1.6-1.1-3.7-0.2-5.4c0.4-0.1,0.8-0.6,1.4-0.6C70.9,39.4,71.2,40.5,72.4,40.7z"
								/>
							<path class="st32" d="M78,36.6c-1.3,3.3-3.2,4.6-5.7,4.1l1.7,3.7C76.7,42.9,80,39.8,78,36.6z"/>
							<path class="st30" d="M66.6,26.9c0,5.7-0.3,13.1,6,11.1c7.8-1.1,7.5-13.2,3.8-17.3C71.9,17.7,66.4,20.8,66.6,26.9z"/>
							<path class="st33" d="M73.7,28.9c0.1,1.1-1.1,1.3-1.3,0.1S73.6,27.7,73.7,28.9z"/>
							<path class="st33" d="M69.3,29.1c0.1,1.1-1.1,1.3-1.3,0.1C68,28.1,69.1,28.1,69.3,29.1z"/>
							<path class="st31" d="M71.5,31.9L69.9,32l0.4-3.5c0.1,0.1,0,3,0.1,3.1L71.5,31.9L71.5,31.9z"/>
							<polygon class="st33" points="70.3,31.6 70.3,28.3 70.4,28.3 70.5,31.6 							"/>
							<path class="st34" d="M67.5,27.4c0.4-0.3,0.9-0.4,1.3-0.1"/>
							<path class="st34" d="M72.3,27c0.4-0.3,0.9-0.4,1.3-0.1"/>
							<path class="st35" d="M77.3,28.5l-1.1-0.4c-1.6-4.8,0.9-7.1-5.5-5.9c-0.6,0.1-1.1,0-1.7-0.2c-0.2-0.2-1.3,0.6-1.3,0.6
								c-0.1-0.2-2.2-1.2-1.9-1.6c2.2-1.5,1.3-1.8,4.6-1.3c0.8-0.5,1.9-0.6,2.8-0.2c6.1,0,5.2,4.6,5.9,7.9L77.3,28.5z"/>
							<path class="st30" d="M76.9,28.9c1.4-3.8,4-2,2.3,1.5C78.3,32.4,76.4,31.4,76.9,28.9z"/>
							<path class="st31" d="M78.8,27.3c-0.7,0-1.2,2.4-1.2,2.4s0.6-0.4,0.7-0.1c0.1-0.4-0.6-0.1-0.7,0.1c0.2-0.3,0.6-2.6,1.5-2
								C79.3,27.5,79,27.4,78.8,27.3z"/>
							<path class="st31" d="M72.2,29.5c0.7,0.6,1.5,0.9,2.1,0.4c-0.4,0.9-1.1,1-2.2,0.1L72.2,29.5z"/>
							<path class="st31" d="M69.5,29.8c-0.2,0.8-0.8,1.1-1.4,0.7c0.5,0.7,1,0.7,1.6-0.5L69.5,29.8z"/>
							<path class="st35" d="M69.3,32.9c0.8-0.8,2-0.9,3-0.4c0.9,0.5,0.9,1.7,1.6,1.8c2.7-0.6,2-6.7,2.1-7.9l1.3,1.4
								c-0.9,2.7,0.3,4.8,0.2,6.9c-1.3,3.5-7.7,5.3-9.8,2.7c-0.9-1.4-0.4-3.2-0.9-4.6C67.6,35.7,68.2,35.3,69.3,32.9z"/>
							<path class="st36" d="M60.7,59.3c-15-9.2-24,4-26.6,21.1c2.3,2.8,5.6,3.3,9.6,2c0.2-7.2,0.7-11.2,5.2-17.7
								c3-0.3,5.6,1.3,9.5,1"/>
							<path class="st36" d="M69.8,59.7l-1.7,2c-12.9-8.9-23,6.9-24.6,21.8c2.3,2.8,5.6,3.3,9.6,2c0.2-7.2,1-11.7,5.5-18.2
								c3-0.3,5.3,1.7,9.2,1.4"/>
							<path class="st25" d="M62.1,73.8c-4.7-11.2,1.7-18.9,12.1-15.2c3.7,1.1,5.5,1.7,6.6-1.3c-1.7-28.2-1.2-34.3,12-32
								c-2,18.2-4.9,34.3-9,45.1L62.1,73.8z"/>
							<path class="st26" d="M64.4,75.2C59.6,64.1,66,56.4,76.4,60c3.7,1.1,5.5,1.7,6.6-1.3c-2.2-23.2-0.4-33.1,4.2-32.9
								c2.4,0.2,3.9,0.8,4.8-0.3c6.6-2.9-5.7,48.3-6.1,46.3L64.4,75.2z"/>
							<path class="st37" d="M60,40.8c1-0.7,1-0.7,0.7-1.7c0.4-0.3,0.6,0.1,0.7,0.6c0-0.5,1.5-1.3,0.6-0.1c0.3-0.7,1.8-0.7,0.4,0.3
								c1-0.6,1.3,0.3,0.1,0.4c1-0.1,0.8,0.3-0.1,0.5c-0.7,0.4-1.3,0.8-1.9,1.3L60,40.8z"/>
							<path class="st30" d="M66.8,53.7L65,53.5c-0.9-1.7-3.6-2-5-1.3c-6.3,1.7,5,5.8,6.9,5L66.8,53.7z"/>
							<path class="st37" d="M38.1,46.7c-1-0.5-1-0.4-1.1-1.5c-0.4-0.2-0.4,0.2-0.3,0.8c-0.2-0.5-1.5-0.9-0.5,0
								c-0.5-0.6-1.6-0.2-0.2,0.4C35,45.9,35.1,47,36,46.8c-0.8,0.2-0.5,0.5,0.2,0.5c0.7,0.2,1.3,0.5,1.8,0.8L38.1,46.7z"/>
							<path class="st37" d="M56.2,59.8L56,61.9c1.9,0.6,3.4,0.9,4.3,0.6c0-1-0.5-1.5-1.7-1.7l0.6-1.1L56.2,59.8z"/>
							<path class="st38" d="M56.8,54.4c4,0.3,5.7,1.9,3,6.1c-1.3,0.4-2.7,0.5-4,0.2l0.6-2.1c-2,0-3.9,0.5-5.6,1.3l-7.2-1.7
								c0-2,0.1-2.9,1.7-3.2L56.8,54.4z"/>
							<path class="st39" d="M37.9,46c9.3,1.1,16.7,0.5,22.2-5.6c0.6,1,1,2,1.2,3.1l-6.1,4.8l1.3,6.1c-3.7,2.4-6.3,2.1-11.5,0.6
								L45,50.4l-7.5-1.8L37.9,46z"/>
							<path class="st37" d="M48.6,40.1c3.7-1.3,7.6,3.9,3.5,7.4C46.5,50.9,42.9,41.6,48.6,40.1z"/>
							<path class="st38" d="M47.3,38.7c-0.2-0.2-0.6-0.2-0.8,0c-0.1,0.1-0.2,0.2-0.1,0.4c-0.6-0.1-1,0.6-0.5,1
								c-0.2,0.2-0.2,0.5-0.1,0.7c0.1,0.2,0.3,0.2,0.5,0.2c-0.1,0.5,0.7,0.6,0.9,0.3c0.5,0.5,1.2,0,1-0.4c0.2,0,0.4-0.2,0.4-0.4
								c0-0.1-0.1-0.2-0.1-0.3c0.4-0.2,0.1-0.9-0.1-0.9C48.4,38.7,47.8,38.2,47.3,38.7z"/>
							<path class="st37" d="M46,44.8c-1.5,0.4-0.6,2.6,0.7,1.5"/>
							<path class="st40" d="M52.8,41.1c-2.8,0-5.2,1.7-7.2,3.9C43.4,41.3,50.3,36.5,52.8,41.1z"/>
							<path class="st38" d="M52.8,41.1c-2.8,0-5.2,1.7-7.2,3.9C45.2,43.2,51.9,39.4,52.8,41.1z"/>
							<path class="st41" d="M52,45c-0.2,0-0.4,0-0.5,0.2c-0.3,0.5-1.3,0.3-1.6,0.8C49.2,48.1,54.1,46.1,52,45z"/>
							<path class="st42" d="M52.1,45.1c-0.1,0-0.2-0.1-0.5,0.2c-0.3,0.5-1.3,0.3-1.6,0.7C49.3,48.2,54.2,46.2,52.1,45.1z"/>
							<path class="st23" d="M51.3,45.9c0.4-0.1,0.8,0.1,1,0.5c0.1,0.4-0.1,0.8-0.4,0.9c-0.4,0.1-0.8-0.1-1-0.5
								C50.8,46.5,51,46.1,51.3,45.9z M51.1,46.9c0.1,0.3,0.4,0.4,0.7,0.3c0.3-0.1,0.4-0.4,0.3-0.7l0,0c-0.1-0.3-0.4-0.4-0.7-0.3
								C51.2,46.3,51,46.6,51.1,46.9z"/>
							<path class="st43" d="M50.9,46.3c0.1,0.3,0.4,0.4,0.7,0.3c0.3-0.1,0.4-0.4,0.3-0.7l0,0c-0.1-0.3-0.4-0.4-0.7-0.3
								C50.9,45.7,50.8,46,50.9,46.3z"/>
							<path class="st31" d="M45.4,45.5c0.2-0.1,0.9,0.6,0.8,0.6s-0.2,0-0.2,0.1c-0.1-0.1,0.2-0.2,0.2-0.1c-0.1-0.1-0.7-0.8-0.9-0.5
								C45.3,45.6,45.4,45.5,45.4,45.5z"/>
							<path class="st33" d="M51.6,43.2c0.3,0.7,1.1,0.4,0.8-0.3S51.3,42.5,51.6,43.2z"/>
							<path class="st33" d="M52.2,42.8c0.2,0,0.3-0.2,0.4-0.5c-0.1,0.2-0.4,0.3-0.6,0.3L52.2,42.8z"/>
							<path class="st44" d="M52.1,41.8c-0.2-0.1-0.4-0.1-0.7,0"/>
							<path class="st33" d="M49.2,44.1c0.3,0.7-0.5,1-0.8,0.3S49,43.4,49.2,44.1z"/>
							<path class="st33" d="M48.5,44.2c-0.2,0.1-0.5,0-0.7-0.1c0.2,0.1,0.5,0,0.7-0.2V44.2z"/>
							<path class="st44" d="M47.9,43.4c0.1-0.2,0.3-0.4,0.5-0.4"/>
							<path class="st37" d="M50.6,59.7l1.2,1.5c-1.2,1.5-2.3,2.6-3.1,2.9c-0.5-0.8-0.3-1.8,0.5-2.3c0,0,0,0,0,0l-1-0.6L50.6,59.7z"
								/>
							<path class="st40" d="M45.6,55.1c2.1,1.3,4,2.9,5.6,4.7c-0.5,1.2-1.3,1.5-2.5,2c-1.1-0.5-2-1-2.8-1.5
								c-2.1-1.3-2.4-1.8-2.6-2.2c0-0.1-0.6-1.7,0.3-2.6C44.2,55.1,44.9,55,45.6,55.1z"/>
							<path class="st23" d="M10,11.6c0.6,26.2,2,36,3.2,39.8c0.8,2.5,2.5,5.6,1.6,9.7c-0.4,2-1.3,3.8-0.4,6
								c0.6,1.2,1.5,2.2,2.6,2.9c4,2.7,8.9,1.8,10.5,1.5c5.4-0.6,8.1-0.5,11.3-1c1-0.2,1.6-0.3,2.2-0.5c1.7-0.4,2.9-0.8,3.1-0.9
								c4.6-1.5,14.3-0.2,14.3-0.2c9.4,1.2,10.9,2.9,16,1.9c2.1-0.4,4.3-0.9,6.2-2.6c3.4-3.1,3.1-7.9,3.1-14.1
								c0.1-7.5,1.1-14.9,1.5-22.4c0.2-4.8,0.6-11.6,1.5-20l4,67.7L8,80L10,11.6z"/>
							<rect x="10" y="11.6" class="st20" width="76.6" height="63.6"/>
							<polygon class="st45" points="34.7,59.9 27.5,58.6 18.8,61.6 26.8,63.3 							"/>
							<polygon class="st46" points="34.7,59.9 34.8,66.6 27.3,70.8 26.8,63.3 							"/>
							<polygon class="st47" points="26.8,63.3 18.8,61.6 19.3,68.6 27.3,70.8 							"/>
							<polygon class="st48" points="30.8,68.8 30.6,61.7 31.9,61.1 32.1,68.1 							"/>
							<polygon class="st49" points="30.6,61.7 23.3,60.1 25.2,59.4 31.9,61.1 							"/>
							<polygon class="st49" points="30.2,59.1 22,62.3 22.2,69.5 23.3,69.7 23.2,62.6 31.3,59.3 							"/>
							<path class="st50" d="M27.5,60.4c-1,0.3-1.8,0-2-0.4s0.1-1,0.4-1.1c0.6-0.2,1.1,1.8,2.4,2c0.7,0.1,1.4-0.3,1.5-0.6
								s-1-0.9-1.9-0.7c-0.7,0.2-0.6,1.3-1.4,1.5c-0.3,0.1-0.6,0-0.6-0.1s1.4-0.2,2.3-1.2c0.2-0.3,0.4-0.6,0.6-0.9"/>
						</g>
					</g>
					<polygon class="st51" points="96.5,80.2 0.9,80.2 6.1,77 89.6,77 					"/>
					<rect x="0.9" y="80.2" class="st4" width="95.6" height="3"/>
					<ellipse transform="matrix(0.471 -0.8821 0.8821 0.471 5.0114 39.1703)" class="st23" cx="35.2" cy="15.4" rx="1.4" ry="0.8"/>
					<ellipse transform="matrix(0.471 -0.8821 0.8821 0.471 7.026 51.115)" class="st23" cx="46.1" cy="19.7" rx="1.4" ry="0.8"/>
					<ellipse transform="matrix(0.471 -0.8821 0.8821 0.471 -8.5886 21.426)" class="st23" cx="13.6" cy="17.9" rx="1.4" ry="0.8"/>
					
						<ellipse transform="matrix(0.471 -0.8821 0.8821 0.471 -7.4041 50.7182)" class="st23" cx="38.6" cy="31.5" rx="1.4" ry="0.8"/>
					
						<ellipse transform="matrix(0.471 -0.8821 0.8821 0.471 -37.8854 61.6046)" class="st23" cx="32.4" cy="62.4" rx="1.4" ry="0.8"/>
					
						<ellipse transform="matrix(0.471 -0.8821 0.8821 0.471 -49.3876 59.3923)" class="st23" cx="24.8" cy="70.9" rx="1.4" ry="0.8"/>
					<ellipse transform="matrix(0.471 -0.8821 0.8821 0.471 -60.9979 56.2321)" class="st23" cx="16.4" cy="79" rx="1.4" ry="0.8"/>
					
						<ellipse transform="matrix(0.471 -0.8821 0.8821 0.471 -40.287 50.4297)" class="st23" cx="21.9" cy="58.8" rx="1.4" ry="0.8"/>
					<ellipse transform="matrix(0.471 -0.8821 0.8821 0.471 -52.2202 50.868)" class="st23" cx="16.3" cy="69" rx="1.4" ry="0.8"/>
					
						<ellipse transform="matrix(0.471 -0.8821 0.8821 0.471 -51.3185 41.8429)" class="st23" cx="9.2" cy="63.7" rx="1.4" ry="0.8"/>
					<ellipse transform="matrix(0.471 -0.8821 0.8821 0.471 2.3567 67.751)" class="st23" cx="57.7" cy="31.9" rx="1.4" ry="0.8"/>
					<ellipse transform="matrix(0.471 -0.8821 0.8821 0.471 18.45 64.8567)" class="st23" cx="63.3" cy="17" rx="1.4" ry="0.8"/>
					
						<ellipse transform="matrix(0.471 -0.8821 0.8821 0.471 -21.6463 70.9854)" class="st23" cx="48.4" cy="53.5" rx="1.4" ry="0.8"/>
					<ellipse transform="matrix(0.471 -0.8821 0.8821 0.471 -5.9034 75.5141)" class="st23" cx="60" cy="42.7" rx="1.4" ry="0.8"/>
					<ellipse transform="matrix(0.471 -0.8821 0.8821 0.471 17.0977 94.951)" class="st23" cx="87.7" cy="33.2" rx="1.4" ry="0.8"/>
					
						<ellipse transform="matrix(0.471 -0.8821 0.8821 0.471 -1.8917 92.6321)" class="st23" cx="76.3" cy="47.9" rx="1.4" ry="0.8"/>
					
						<ellipse transform="matrix(0.471 -0.8821 0.8821 0.471 30.7868 82.1606)" class="st23" cx="83.9" cy="15.4" rx="1.4" ry="0.8"/>
					
						<ellipse transform="matrix(0.471 -0.8821 0.8821 0.471 0.9486 108.6506)" class="st23" cx="91.1" cy="53.5" rx="1.4" ry="0.8"/>
					<ellipse transform="matrix(0.471 -0.8821 0.8821 0.471 -12.6578 62.9072)" class="st23" cx="46.1" cy="42" rx="1.4" ry="0.8"/>
					
						<ellipse transform="matrix(0.471 -0.8821 0.8821 0.471 -17.6087 101.2549)" class="st23" cx="75.6" cy="65.3" rx="1.4" ry="0.8"/>
					
						<ellipse transform="matrix(0.471 -0.8821 0.8821 0.471 -33.3221 104.9363)" class="st23" cx="70.8" cy="80.3" rx="1.4" ry="0.8"/>
					
						<ellipse transform="matrix(0.471 -0.8821 0.8821 0.471 -27.6691 87.7171)" class="st23" cx="59.3" cy="66.9" rx="1.4" ry="0.8"/>
					
						<ellipse transform="matrix(0.471 -0.8821 0.8821 0.471 -26.7616 78.7111)" class="st23" cx="52.2" cy="61.7" rx="1.4" ry="0.8"/>
					
						<ellipse transform="matrix(0.471 -0.8821 0.8821 0.471 -47.1612 95.6767)" class="st23" cx="56.2" cy="87.2" rx="1.4" ry="0.8"/>
					<ellipse transform="matrix(0.471 -0.8821 0.8821 0.471 -54.3069 79.4639)" class="st23" cx="39.1" cy="85" rx="1.4" ry="0.8"/>
					
						<ellipse transform="matrix(0.471 -0.8821 0.8821 0.471 -38.4699 78.3873)" class="st23" cx="46.1" cy="71.3" rx="1.4" ry="0.8"/>
					
						<ellipse transform="matrix(0.471 -0.8821 0.8821 0.471 -39.3559 89.0952)" class="st23" cx="54.6" cy="77.4" rx="1.4" ry="0.8"/>
					
						<ellipse transform="matrix(0.471 -0.8821 0.8821 0.471 -49.5009 69.8107)" class="st23" cx="33.5" cy="76.2" rx="1.4" ry="0.8"/>
					<ellipse transform="matrix(0.471 -0.8821 0.8821 0.471 12.4739 30.7054)" class="st23" cx="31.8" cy="5" rx="1.4" ry="0.8"/>
					<ellipse transform="matrix(0.471 -0.8821 0.8821 0.471 21.8748 50.5629)" class="st23" cx="53.1" cy="7" rx="1.4" ry="0.8"/>
					<ellipse transform="matrix(0.471 -0.8821 0.8821 0.471 33.2987 64.3046)" class="st23" cx="70.3" cy="4.4" rx="1.4" ry="0.8"/>
					<path class="st23" d="M5.9,76.5c2.4-1.5,4.7-1.4,7.1-1.5c5.2-0.2,4.5-1,10.6-1.3c3.5-0.2,4.7,0,7.8,0.1c6.2,0,9.9-0.8,14.2-1.3
						c10.3-1.3,19-0.2,27.5,0.9c5.2,0.6,10.3,1.6,15.4,2.8c0,0.3,6.4,2.9,4.7,2.9c-26.6,0.8-50.9,0.1-89.1-0.6
						C3.3,78.5,5.4,76.9,5.9,76.5z"/>
				</g>
			</g>
			<path class="st52" d="M96.3,48.6c-1.1,62-93.2,61.9-94.3,0C3.1-13.3,95.2-13.3,96.3,48.6z"/>
		</g>
	</g>
</g>
</svg>
