<svg xmlns="http://www.w3.org/2000/svg" xmlns:xlink="http://www.w3.org/1999/xlink" viewBox="0 0 217.11 104.56"><defs><style>.cls-1,.cls-5{fill:#d2f7f2;}.cls-1,.cls-2,.cls-3,.cls-4,.cls-5{stroke:#31ab94;}.cls-1,.cls-10,.cls-11,.cls-12,.cls-13,.cls-14,.cls-15,.cls-16,.cls-3,.cls-4,.cls-8{stroke-miterlimit:10;}.cls-2{fill:#add9d1;stroke-linecap:round;}.cls-2,.cls-5{stroke-linejoin:round;}.cls-3{fill:#bee1db;}.cls-4{fill:#a7d1c9;}.cls-6{fill:#298f7c;}.cls-15,.cls-7{fill:#31ab94;}.cls-8{fill:none;stroke:#fff;}.cls-9{opacity:0.08;}.cls-10,.cls-17,.cls-20{fill:#fff;}.cls-10,.cls-11,.cls-12,.cls-13,.cls-14,.cls-15,.cls-16{stroke:#00703c;stroke-width:0.75px;}.cls-11{fill:url(#linear-gradient);}.cls-12{fill:url(#linear-gradient-2);}.cls-13{fill:url(#linear-gradient-3);}.cls-16{fill:url(#linear-gradient-4);}.cls-18{fill:#00703c;}.cls-19{fill:#227868;}.cls-20{font-size:14.93px;font-family:Arial-BoldMT, Arial;font-weight:700;}</style><linearGradient id="linear-gradient" x1="736.44" y1="338.85" x2="755.47" y2="329.33" gradientTransform="matrix(-0.18, -0.98, -0.98, 0.18, 542.21, 756.39)" gradientUnits="userSpaceOnUse"><stop offset="0.56" stop-color="#fff"/><stop offset="1" stop-color="#add9d1"/></linearGradient><linearGradient id="linear-gradient-2" x1="3308.23" y1="-690.29" x2="3336.06" y2="-690.29" gradientTransform="matrix(-0.95, 0.31, 0.31, 0.95, 3436.33, -330.7)" xlink:href="#linear-gradient"/><linearGradient id="linear-gradient-3" x1="3010.93" y1="163.93" x2="3035.45" y2="163.93" gradientTransform="matrix(-1, -0.09, -0.09, 1, 3090.55, 198.23)" xlink:href="#linear-gradient"/><linearGradient id="linear-gradient-4" x1="962.2" y1="-1790.93" x2="962.29" y2="-1791.02" gradientTransform="matrix(-0.38, -0.68, 0.87, -0.49, 1992.95, -147.41)" xlink:href="#linear-gradient"/><symbol id="symbol-signpost_2" data-name="symbol-signpost 2" viewBox="0 0 100.23 95.66"><polygon class="cls-1" points="51.34 15.72 81.52 0.52 95.53 2.89 92.67 17.24 70.67 28.29 51.86 26.86 51.34 15.72"/><polygon class="cls-1" points="49.15 16.75 18.93 4.33 5 9.41 17.1 25.82 49.38 38.65 49.15 16.75"/><path class="cls-2" d="M52,8l-3-5.35L46.33,8.06l.52,86.09c2.58,1.34,4.9,1.38,6.91-.12Z"/><polygon class="cls-3" points="46.45 19.17 14.73 5.8 0.8 10.88 12.9 27.29 46.68 41.07 46.45 19.17"/><polygon class="cls-4" points="51.95 19.38 85.36 1.27 99.37 3.64 96.52 17.99 74.51 29.04 52.06 30.6 51.95 19.38"/><polygon class="cls-4" points="51.41 20.83 86.54 29.22 97.57 44.96 87.05 52.52 51.28 41.73 51.41 20.83"/><polygon class="cls-5" points="88.7 27.55 86.54 29.22 97.57 44.96 99.73 43.29 88.7 27.55"/><polygon class="cls-5" points="51.41 20.83 53.57 19.15 88.7 27.55 86.54 29.22 51.41 20.83"/><ellipse class="cls-6" cx="80.3" cy="38.37" rx="5.95" ry="7.77" transform="translate(-5.14 63.27) rotate(-41.79)"/><ellipse class="cls-7" cx="78.92" cy="38.98" rx="5.95" ry="7.77" transform="translate(-5.9 62.51) rotate(-41.79)"/><polyline class="cls-8" points="75.39 38.31 77.38 40.95 82.61 36.91"/></symbol></defs><g id="Layer_2" data-name="Layer 2"><g id="MainLayer"><g id="greenzone"><g id="service8"><g id="obj2"><path class="cls-9" d="M103.48,92.2,56.55,59.53l-43,14.1L0,72.63l7.65-2.46C34.1,59.41,63,50,93.54,41.59l7.54-2.19-3.43,7.68L66.53,56.37l41.93,33.1Z"/><ellipse class="cls-9" cx="63.69" cy="99.56" rx="12.01" ry="3.92"/><path class="cls-10" d="M92.37,91.84c-3.36-1.46-3.69-3.57-3.29-6.57l1.22-3.45c2.87-1.49,5.48-1.81,7.84-1l-.86,2.84c-2.07-.58-4-.86-5.11.47-1.67,2.31-1.29,4.65,1.42,6Z"/><path class="cls-11" d="M75.52,66.51c2.54,9.4,8.54,14.81,15,15a2.6,2.6,0,0,1-1.1,3.5c-9.3-2.46-14.38-9-15.43-16.23Z"/><path class="cls-10" d="M38.59,87.74c1.71-3.23,3.84-3.4,6.8-2.76l3.34,1.48c1.27,3,1.39,5.6.39,7.89l-2.77-1.08c.73-2,1.17-3.94-.07-5.12-2.18-1.85-4.54-1.65-6.05.95Z"/><path class="cls-12" d="M78.92,49C73.53,60.28,65.28,64.66,53,59.33c-3.86-12.31.69-16.85,7.53-19.27C67.57,38.46,73.62,41.81,78.92,49Z"/><path class="cls-13" d="M78.45,69.25C78.36,84,66.92,102,61.42,97.84c-4.9-3.65-10.19-19.17-6.87-30.21C57.12,59.08,78.5,61.86,78.45,69.25Z"/><path class="cls-14" d="M77.56,47.65A9,9,0,0,1,73,53c-.33.16-5-9.66-2-11C72.8,43,75.28,45.33,77.56,47.65Z"/><ellipse class="cls-15" cx="73.48" cy="46.77" rx="1.01" ry="1.83" transform="translate(-10.93 25.27) rotate(-18.18)"/><path class="cls-16" d="M45.63,85.58A26.33,26.33,0,0,1,55.42,68.3c2.28-1.34,2.62.22,2.13,2-5.31,4.49-6.68,9.09-8.76,15.43C48.16,86.11,46.06,86.49,45.63,85.58Z"/><path class="cls-17" d="M74.64,73.15a28.51,28.51,0,0,1-5.47,15.61"/><path class="cls-18" d="M74.68,73.15c-.12,5.54-1.57,11.5-5.47,15.63l-.07,0c1.29-2.49,2.59-4.9,3.64-7.48a38.32,38.32,0,0,0,1.9-8.11Z"/><path class="cls-18" d="M75.63,68.16c-3.71,3.21-9.43,3.24-13.87,1.65-1.43-.62-3.26-1.61-3.37-3.35h.08c1,2.93,5.43,3.38,8.09,3.61a16.24,16.24,0,0,0,9.07-1.9Z"/><use width="100.23" height="95.65" transform="translate(57.98 0.01) scale(0.98)" xlink:href="#symbol-signpost_2"/></g><g id="objbutton2"><rect class="cls-19" x="117.63" y="53.9" width="99.32" height="50.23" rx="9.44" transform="translate(-0.82 1.77) rotate(-0.6)"/><text class="cls-20" transform="matrix(1, -0.01, 0.01, 1, 136.18, 73.71)">Accurate <tspan x="-11.18" y="17.92">Signposting</tspan></text></g></g></g></g></g></svg>