<svg xmlns="http://www.w3.org/2000/svg" xmlns:xlink="http://www.w3.org/1999/xlink" viewBox="0 0 200.64 133.69"><defs><style>.cls-1{opacity:0.08;}.cls-2{fill:#e6e6e6;}.cls-3{fill:#8277ab;}.cls-19,.cls-23,.cls-4{fill:#fff;}.cls-5{fill:url(#linear-gradient);}.cls-6{fill:#716794;}.cls-7{fill:red;}.cls-8{fill:#fcee21;}.cls-9{fill:#8cc63f;}.cls-10{fill:none;}.cls-10,.cls-19{stroke:#efeeee;}.cls-10,.cls-11,.cls-12,.cls-13,.cls-14,.cls-15,.cls-16,.cls-19,.cls-20{stroke-miterlimit:10;}.cls-11,.cls-12,.cls-13,.cls-14,.cls-15,.cls-16,.cls-20{stroke:#00703c;stroke-width:0.75px;}.cls-11{fill:url(#linear-gradient-2);}.cls-12{fill:url(#linear-gradient-3);}.cls-13{fill:url(#linear-gradient-4);}.cls-15,.cls-18{fill:#31ab94;}.cls-16{fill:url(#linear-gradient-5);}.cls-17{fill:#00703c;}.cls-20{fill:url(#linear-gradient-6);}.cls-21{fill:#afd9d1;}.cls-22{fill:#227868;}.cls-23{font-size:14.93px;font-family:Arial-BoldMT, Arial;font-weight:700;}</style><linearGradient id="linear-gradient" x1="3902.57" y1="10.46" x2="3902.57" y2="75.22" gradientTransform="matrix(-1, 0, 0, 1, 3953.34, 0)" gradientUnits="userSpaceOnUse"><stop offset="0" stop-color="#fff"/><stop offset="1" stop-color="#afd9d1"/></linearGradient><linearGradient id="linear-gradient-2" x1="4872.72" y1="58.06" x2="4892.9" y2="47.95" gradientTransform="matrix(-1, 0, 0, 1, 4961.44, 0)" gradientUnits="userSpaceOnUse"><stop offset="0.56" stop-color="#fff"/><stop offset="1" stop-color="#add9d1"/></linearGradient><linearGradient id="linear-gradient-3" x1="4892.98" y1="34.72" x2="4927.8" y2="34.72" xlink:href="#linear-gradient-2"/><linearGradient id="linear-gradient-4" x1="4895.72" y1="71.07" x2="4926.44" y2="71.07" xlink:href="#linear-gradient-2"/><linearGradient id="linear-gradient-5" x1="4917.64" y1="84.06" x2="4917.76" y2="83.95" xlink:href="#linear-gradient-2"/><linearGradient id="linear-gradient-6" x1="77.72" y1="38.54" x2="88.81" y2="38.54" gradientTransform="matrix(1, 0, 0, 1, 0, 0)" xlink:href="#linear-gradient-2"/></defs><g id="Layer_2" data-name="Layer 2"><g id="MainLayer"><g id="greenzone"><g id="service6"><g id="obj9"><polygon class="cls-1" points="83.43 85.17 165.53 79.88 185.76 94.24 99.18 99.93 83.43 85.17"/><path class="cls-1" d="M28,106.69,1.12,90.16c-2-1.23-1.17-4,1.24-4.22l56.93-4.11a2.75,2.75,0,0,1,1.8.5L86.31,100.4c1.85,1.33.9,4-1.46,4.12l-55.26,2.56A2.76,2.76,0,0,1,28,106.69Z"/><path class="cls-2" d="M74.58,10.53,17,.11A6.93,6.93,0,0,0,8.88,6.79L7.22,87.61A10.52,10.52,0,0,0,18.53,98.32l62.13-4.71a8.63,8.63,0,0,0,7.94-9.34L83,19.75A10.27,10.27,0,0,0,74.58,10.53Z"/><path class="cls-3" d="M11.93,10.46l-3.1.63.28-5.81C10,1.4,12.66.67,15.36,0L19.1.22Z"/><path class="cls-4" d="M77.82,10.8,20.28.38a6.92,6.92,0,0,0-8.16,6.68L10.46,87.88a10.51,10.51,0,0,0,11.31,10.7l62.13-4.7a8.62,8.62,0,0,0,7.94-9.35L86.23,20A10.26,10.26,0,0,0,77.82,10.8Z"/><polygon class="cls-5" points="11.93 10.46 10.67 75.22 90.87 73.97 86.22 22.56 11.93 10.46"/><path class="cls-6" d="M86.52,22.64,11.93,10.46,12,7A7,7,0,0,1,20.25.38L78.54,10.93a9.39,9.39,0,0,1,7.67,8.36Z"/><ellipse class="cls-7" cx="80.31" cy="16.44" rx="2.21" ry="3.01" transform="translate(0.63 35.7) rotate(-25.16)"/><ellipse class="cls-8" cx="72.78" cy="15.11" rx="2.21" ry="3.01" transform="translate(0.48 32.38) rotate(-25.16)"/><ellipse class="cls-9" cx="64.96" cy="14.13" rx="2.21" ry="3.01" transform="translate(0.16 28.96) rotate(-25.16)"/><path class="cls-10" d="M91.12,74.2c.17,2.18.36,3.93.5,5.12a25.05,25.05,0,0,1,.29,5.42,12.24,12.24,0,0,1-.42,2.46A9.22,9.22,0,0,1,90,90.31a8.67,8.67,0,0,1-2.72,2.29,12.34,12.34,0,0,1-6.21,1.61c-21.43,1.22-40.28,3-61.71,4.19l-3.7-.46"/><path class="cls-11" d="M61.71,55.32c9-1.36,14.7-6.7,18.51-14.34,2.38-.47,3.37.67,4.06,2.15C79.18,54,72,59.25,62.84,58.93Z"/><path class="cls-12" d="M68.47,38.83C57.64,50.14,46.13,52.13,33.64,41c.23-16.15,7.4-19.78,16.48-20C59.09,21.87,65,28.21,68.47,38.83Z"/><path class="cls-13" d="M65.59,57.63C67.18,76.05,54.31,95.51,47,91c-6.53-4-14.22-18.5-11.37-32.65C37.82,47.44,64.79,48.42,65.59,57.63Z"/><path class="cls-14" d="M64.16,36.41c-4.92,7.32-11.46,8.7-18.81,5.83-1.7-9.09,3.33-13.17,9-13.73C59.52,29.08,61.64,31,64.16,36.41Z"/><ellipse class="cls-15" cx="58.2" cy="36.26" rx="1.27" ry="2.29"/><ellipse class="cls-15" cx="52.06" cy="37.5" rx="1.27" ry="2.29"/><path class="cls-16" d="M37.33,58.36C29,63.31,22.41,70.84,20.8,79.63c-.08,3.32,2.37,2.73,4.56,1.08,2.11-8.55,7.48-12.87,14.74-19C40.08,60.79,39,58.27,37.33,58.36Z"/><path class="cls-4" d="M39.7,66a34.78,34.78,0,0,0,5.19,20.09"/><path class="cls-17" d="M39.74,66c-.27,7.1,2.16,13.77,5.19,20.07l-.07,0C40.61,80.51,39,72.73,39.74,66Z"/><path class="cls-17" d="M61,56c-4.16,4.45-11.13,5.41-16.89,4.25-1.87-.49-4.27-1.35-4.76-3.45l.07,0C41,60.22,46.78,60.09,50,59.91A20,20,0,0,0,61,56Z"/><path class="cls-4" d="M85.76,74.2c-.61.08-69.23,1.13-69.23,1.13L16.35,94.1,85.67,91Z"/><polyline class="cls-10" points="86.52 22.64 91.12 74.2 10.67 75.56"/><polygon class="cls-18" points="28.54 81.05 28.53 89.49 22.72 89.92 21.46 92.97 20.46 89.78 18.08 90.05 18.35 81.38 28.54 81.05"/><polygon class="cls-18" points="70.11 87.16 69.72 80.73 63.12 80.93 63.29 82.69 61.08 81.53 61.48 87.56 63.42 86.13 63.6 87.91 70.11 87.16"/><path class="cls-18" d="M82.4,81a3.54,3.54,0,0,0-2.49-3A3.49,3.49,0,0,0,79,82c.44,3.07,2.28,5.32,5,7.08a3.07,3.07,0,0,0,3.3-.34c.22-1.47-.55-2.69-2-3.76a2.08,2.08,0,0,0-1.11,1.77,6.56,6.56,0,0,1-3.45-4.89A3.69,3.69,0,0,0,82.4,81Z"/><line class="cls-19" x1="75.5" y1="94.34" x2="74.08" y2="74.14"/><polygon class="cls-18" points="41.15 83.11 41.12 81.18 50.14 81.14 50.15 82.53 45.64 84.82 41.15 83.11"/><polygon class="cls-18" points="50.16 83.78 50.2 89.53 41.24 89.9 41.16 84.39 45.85 86.09 50.16 83.78"/><line class="cls-19" x1="56.63" y1="95.91" x2="55.6" y2="75.09"/><line class="cls-19" x1="35.14" y1="97.48" x2="34.3" y2="75.17"/><path class="cls-20" d="M81.11,41.47c-3.36-.71-3.94-3.59-3-7.69h3c-1.31,2.31-1.49,4.46,1.6,6.13,2.81-.41,4.37-1.9,3.85-5.22l1.77,1.14c1.35,3.13-.17,5.58-4,7.48Z"/><path class="cls-18" d="M96.9,48.27,96.75,30,89,24.81l7.72,0L181,24.43c2,0,3.64,1.23,3.65,2.79l.17,20.35c0,1.93-2,3.52-4.5,3.54l-79.31.3C98.75,51.43,96.91,50,96.9,48.27Z"/><path class="cls-21" d="M100,48.27,99.82,30l-7.76-5.18,7.72,0,84.29-.34c2,0,3.64,1.23,3.65,2.78l.16,20.35c0,1.94-2,3.52-4.49,3.54l-79.31.31C101.82,51.43,100,50,100,48.27Z"/><path class="cls-22" d="M112,35.62a1.33,1.33,0,1,0,.5-2.56,1.36,1.36,0,0,0-1.22.83A1.33,1.33,0,0,0,112,35.62Z"/><path class="cls-22" d="M106.45,39a1.34,1.34,0,0,0-.73-1.75,1.17,1.17,0,0,0-.52-.09A1.33,1.33,0,1,0,106.45,39Z"/><polygon class="cls-22" points="110.03 37.48 110.03 37.48 110.03 37.48 110.03 37.48"/><path class="cls-22" d="M128.82,38a1.33,1.33,0,0,0-1.22-.83,1.15,1.15,0,0,0-.51.09,1.34,1.34,0,1,0,1,2.47A1.33,1.33,0,0,0,128.82,38Z"/><path class="cls-22" d="M126.19,42a3.64,3.64,0,0,1-.8-1.65l-.88,2.93a2.65,2.65,0,0,1,1.42-.62c-.84,1.8-1.88,2.27-2.56,2.14a1.28,1.28,0,0,1-1.08-1.51c.19-.89,1.1-1.12,1.53-.09.81-1.66-.57-2.17-1.46-1.68,1.37-1.36,1.52-2.57.42-4-1.53,1.17-1.55,2.33-.86,4-.89-1-2.29-.47-1.78,1.18.64-1,1.5-.37,1.36.58s-1.2,1.5-2.56,1.38c-2-.18-2.07-1.52-2.12-2.64.48-.08,1.34.36,2.08,1.39l.27-3.1a3,3,0,0,1-2.33,1,9,9,0,0,1,1.5-2.21h-3.88A9.25,9.25,0,0,1,116,41.24a3,3,0,0,1-2.34-1l.28,3.1c.73-1,1.59-1.47,2.07-1.39,0,1.12-.16,2.46-2.11,2.64-1.36.12-2.45-.55-2.56-1.38s.72-1.58,1.36-.58c.5-1.65-.89-2.2-1.78-1.18.69-1.63.67-2.79-.87-4-1.09,1.46-.94,2.67.42,4-.88-.49-2.26,0-1.45,1.68.43-1,1.34-.8,1.53.09a1.3,1.3,0,0,1-1.08,1.51c-.68.13-1.73-.34-2.56-2.14a2.68,2.68,0,0,1,1.42.62l-.88-2.93a3.73,3.73,0,0,1-.81,1.65,3.34,3.34,0,0,1,0-1.94l-1.81.65a17.09,17.09,0,0,1,2.66,6.38,66.83,66.83,0,0,1,17.87,0A16.92,16.92,0,0,1,128,40.7l-1.81-.65A3.24,3.24,0,0,1,126.19,42Z"/><path class="cls-22" d="M105.59,36.33a1.33,1.33,0,1,0,1-2.47,1.13,1.13,0,0,0-.51-.09,1.33,1.33,0,0,0-.5,2.56Z"/><path class="cls-22" d="M127.22,36.33a1.33,1.33,0,0,0-.5-2.56,1.19,1.19,0,0,0-.52.09,1.34,1.34,0,0,0,1,2.47Z"/><path class="cls-22" d="M124.2,34.56a1.33,1.33,0,0,0-.5-2.56,1.17,1.17,0,0,0-.52.09,1.34,1.34,0,1,0,1,2.47Z"/><path class="cls-22" d="M120.83,35.62a1.32,1.32,0,0,0,.71-1.73,1.34,1.34,0,0,0-1.22-.83,1.34,1.34,0,0,0-1.24,1.84A1.34,1.34,0,0,0,120.83,35.62Z"/><path class="cls-22" d="M108.61,34.56a1.34,1.34,0,0,0,1-2.47,1.19,1.19,0,0,0-.52-.09,1.33,1.33,0,0,0-.5,2.56Z"/><path class="cls-22" d="M115.69,32.18a1,1,0,0,0,.18.17l-1,2.92h0a1.7,1.7,0,0,0-.07.46,1.57,1.57,0,0,0,1.35,1.55h.46A1.56,1.56,0,0,0,118,35.75a1.39,1.39,0,0,0-.07-.46h0l-1-2.92a.91.91,0,0,0,.17-.17h0l1.69.89V30.57l-1.69.54h0a.85.85,0,0,0-.17-.16h0l.68-2.13h-2.44l.68,2.13h0a.81.81,0,0,0-.16.16h0L114,30.57v2.49l1.69-.89Z"/><path class="cls-22" d="M142.94,39.21v1.68a1.84,1.84,0,0,1-.07.53.72.72,0,0,1-.24.36,2.35,2.35,0,0,1-.45.31,6.89,6.89,0,0,1-1.53.63,6.18,6.18,0,0,1-1.59.2,5.38,5.38,0,0,1-1.84-.31,4,4,0,0,1-1.41-.9,4,4,0,0,1-.9-1.43,5.34,5.34,0,0,1-.31-1.88,5.6,5.6,0,0,1,.3-1.87,3.71,3.71,0,0,1,.9-1.43,3.85,3.85,0,0,1,1.43-.91,5.77,5.77,0,0,1,1.92-.31,4.65,4.65,0,0,1,1.56.24,3.32,3.32,0,0,1,1.11.59,2.58,2.58,0,0,1,.63.76,1.44,1.44,0,0,1,.22.7.72.72,0,0,1-.25.57.83.83,0,0,1-1,.15.78.78,0,0,1-.29-.25,6.84,6.84,0,0,0-.56-.77,1.7,1.7,0,0,0-.61-.45,2.5,2.5,0,0,0-1-.17,2.77,2.77,0,0,0-1.1.21,2.23,2.23,0,0,0-.82.61,2.93,2.93,0,0,0-.53,1,4.37,4.37,0,0,0-.18,1.29,3.57,3.57,0,0,0,.71,2.37,2.45,2.45,0,0,0,2,.82,3.9,3.9,0,0,0,1.15-.16,5.93,5.93,0,0,0,1.1-.45V39.51h-1.38a1.46,1.46,0,0,1-.74-.15.55.55,0,0,1-.26-.51.63.63,0,0,1,.21-.48.85.85,0,0,1,.58-.19h2a2.77,2.77,0,0,1,.62.06.71.71,0,0,1,.42.3A1.2,1.2,0,0,1,142.94,39.21Z"/><path class="cls-22" d="M148.47,33.88a4.64,4.64,0,0,1,2.33.55A3.62,3.62,0,0,1,152.28,36a5.4,5.4,0,0,1,.5,2.39,5.64,5.64,0,0,1-.28,1.84,3.83,3.83,0,0,1-.82,1.43,3.48,3.48,0,0,1-1.35.93,4.74,4.74,0,0,1-1.83.33,4.81,4.81,0,0,1-1.83-.33,3.77,3.77,0,0,1-1.36-.94,4,4,0,0,1-.82-1.45,6,6,0,0,1-.27-1.83,5.42,5.42,0,0,1,.29-1.84,4,4,0,0,1,.83-1.43,3.59,3.59,0,0,1,1.34-.91A5,5,0,0,1,148.47,33.88ZM151,38.37a4,4,0,0,0-.31-1.66,2.27,2.27,0,0,0-.88-1.06,2.47,2.47,0,0,0-1.32-.36,2.26,2.26,0,0,0-1,.2,2.1,2.1,0,0,0-.78.58,3,3,0,0,0-.51,1,4.27,4.27,0,0,0-.19,1.33,4.36,4.36,0,0,0,.19,1.35,2.8,2.8,0,0,0,.53,1,2.25,2.25,0,0,0,.79.59,2.46,2.46,0,0,0,2.22-.14,2.42,2.42,0,0,0,.91-1.05A4.11,4.11,0,0,0,151,38.37Z"/><path class="cls-22" d="M155.27,35l2,5.86,2-5.9c.1-.31.18-.52.23-.65a.88.88,0,0,1,.26-.32.74.74,0,0,1,.49-.15.88.88,0,0,1,.42.11.81.81,0,0,1,.3.31.66.66,0,0,1,.11.37,1.59,1.59,0,0,1,0,.29l-.09.29c0,.1-.07.2-.11.31l-2.11,5.71c-.08.21-.16.42-.23.62a3.15,3.15,0,0,1-.26.52,1.07,1.07,0,0,1-.4.36,1.17,1.17,0,0,1-.61.15,1.24,1.24,0,0,1-.6-.14,1.29,1.29,0,0,1-.4-.37,2.61,2.61,0,0,1-.26-.53c-.08-.19-.16-.4-.23-.61l-2.08-5.67-.11-.3a3,3,0,0,1-.1-.32,1.78,1.78,0,0,1,0-.29.79.79,0,0,1,.24-.56.81.81,0,0,1,.61-.25.7.7,0,0,1,.64.28A3.4,3.4,0,0,1,155.27,35Z"/><path class="cls-22" d="M161.81,42.92a.94.94,0,0,1-.64-.24.87.87,0,0,1-.26-.67.88.88,0,0,1,.25-.63.86.86,0,0,1,.63-.26.92.92,0,0,1,.65.26.86.86,0,0,1,.26.63.9.9,0,0,1-.26.67A.92.92,0,0,1,161.81,42.92Z"/><path class="cls-22" d="M164.68,39.15V35a1.18,1.18,0,0,1,.24-.8.81.81,0,0,1,.64-.27.83.83,0,0,1,.65.27,1.18,1.18,0,0,1,.24.8v4.3a3.84,3.84,0,0,0,.16,1.22,1.46,1.46,0,0,0,.58.77,2.16,2.16,0,0,0,1.17.27,1.76,1.76,0,0,0,1.47-.55,2.75,2.75,0,0,0,.43-1.67V35a1.14,1.14,0,0,1,.24-.8.79.79,0,0,1,.63-.27.83.83,0,0,1,.65.27,1.14,1.14,0,0,1,.25.8v4.2a6.39,6.39,0,0,1-.2,1.72,2.67,2.67,0,0,1-.76,1.2,2.82,2.82,0,0,1-1.1.64,4.76,4.76,0,0,1-1.48.21,6.35,6.35,0,0,1-1.74-.22,2.6,2.6,0,0,1-1.86-1.84A6.15,6.15,0,0,1,164.68,39.15Z"/><path class="cls-22" d="M175.72,35V38l3.48-3.63a3.17,3.17,0,0,1,.42-.38.77.77,0,0,1,.47-.13.9.9,0,0,1,.62.22.71.71,0,0,1,.23.55,1.08,1.08,0,0,1-.4.77l-2.15,2L180.87,41a3.83,3.83,0,0,1,.4.65,1.33,1.33,0,0,1,.13.53.68.68,0,0,1-.23.51.91.91,0,0,1-.63.22,1.11,1.11,0,0,1-.6-.16,1.57,1.57,0,0,1-.39-.42l-.29-.48-2.09-3.22L175.72,40v1.81a1.14,1.14,0,0,1-.25.81.82.82,0,0,1-.64.27.88.88,0,0,1-.44-.12.85.85,0,0,1-.32-.33,1.06,1.06,0,0,1-.1-.38c0-.15,0-.36,0-.64V35a1.18,1.18,0,0,1,.24-.8.81.81,0,0,1,.64-.27.85.85,0,0,1,.65.27A1.14,1.14,0,0,1,175.72,35Z"/></g><g id="objbutton9"><rect class="cls-22" x="101.32" y="83.07" width="99.32" height="37" rx="8.28"/><text class="cls-23" transform="translate(108.28 107.23)">Self-Service</text></g></g></g></g></g></svg>