<svg xmlns="http://www.w3.org/2000/svg" xmlns:xlink="http://www.w3.org/1999/xlink" viewBox="0 0 205.13 184.76"><defs><style>.cls-1{fill:#227868;}.cls-2{font-size:14.93px;font-family:Arial-BoldMT, Arial;font-weight:700;}.cls-2,.cls-32,.cls-7{fill:#fff;}.cls-3{fill:#b879b0;}.cls-4{fill:#cda1c8;}.cls-5{fill:#94618d;}.cls-14,.cls-16,.cls-6{fill:none;}.cls-6{stroke:#fff;}.cls-11,.cls-14,.cls-15,.cls-16,.cls-25,.cls-26,.cls-27,.cls-28,.cls-29,.cls-31,.cls-32,.cls-33,.cls-6,.cls-8{stroke-miterlimit:10;}.cls-15,.cls-16,.cls-8{stroke:#b879b0;}.cls-8{stroke-width:0.5px;fill:url(#linear-gradient);}.cls-10,.cls-9{opacity:0.08;}.cls-11{fill:#add9d1;}.cls-11,.cls-14{stroke:#22b573;}.cls-12,.cls-29{fill:#31ab94;}.cls-13{fill:#e24179;}.cls-14{stroke-linecap:round;}.cls-15{fill:#fee2e9;}.cls-17{fill:#fba3ba;}.cls-18{fill:#6585f5;}.cls-19{fill:#f8c7a3;}.cls-20{fill:#e3b696;}.cls-21{fill:#412a74;}.cls-22{fill:#f8f8f8;}.cls-23{fill:#f5f5f5;}.cls-24{opacity:0.39;fill:url(#linear-gradient-2);}.cls-25,.cls-26,.cls-27,.cls-28,.cls-29,.cls-31,.cls-32,.cls-33{stroke:#00703c;stroke-width:0.75px;}.cls-25{fill:url(#linear-gradient-3);}.cls-26{fill:url(#linear-gradient-4);}.cls-27{fill:url(#linear-gradient-5);}.cls-30{fill:#00703c;}.cls-31{fill:url(#linear-gradient-6);}.cls-33{fill:url(#linear-gradient-7);}.cls-34{fill:#006;}.cls-35{fill:#c00;}</style><linearGradient id="linear-gradient" x1="184.52" y1="-160.32" x2="207.22" y2="-160.32" gradientTransform="matrix(0.99, -0.12, -0.07, 1.02, -43.36, 273.55)" gradientUnits="userSpaceOnUse"><stop offset="0" stop-color="#e8b8f4"/><stop offset="0.09" stop-color="#cbe6e7"/><stop offset="0.16" stop-color="#c2f8be"/><stop offset="0.3" stop-color="#e1f4b9"/><stop offset="0.46" stop-color="#99dfd6"/><stop offset="0.53" stop-color="#c0e5e0"/><stop offset="0.66" stop-color="#a4e4d1"/><stop offset="0.74" stop-color="#d3f6bc"/><stop offset="0.81" stop-color="#f7d9b9"/><stop offset="0.9" stop-color="#cae8db"/><stop offset="1" stop-color="#bad7f8"/></linearGradient><linearGradient id="linear-gradient-2" x1="151.71" y1="76.11" x2="173.4" y2="65.25" gradientUnits="userSpaceOnUse"><stop offset="0.56" stop-color="#fff"/><stop offset="1" stop-color="#add9d1"/></linearGradient><linearGradient id="linear-gradient-3" x1="-734.22" y1="-1254.2" x2="-713.87" y2="-1264.39" gradientTransform="translate(1130.11 1182.46) rotate(-11.52)" xlink:href="#linear-gradient-2"/><linearGradient id="linear-gradient-4" x1="-180.85" y1="529.97" x2="-151.09" y2="529.97" gradientTransform="translate(513.85 -380.94) rotate(18.18)" xlink:href="#linear-gradient-2"/><linearGradient id="linear-gradient-5" x1="-698.07" y1="-172.84" x2="-671.84" y2="-172.84" gradientTransform="translate(888.27 211.52) rotate(-5.33)" xlink:href="#linear-gradient-2"/><linearGradient id="linear-gradient-6" x1="1847.35" y1="1305.52" x2="1856.55" y2="1300.92" gradientTransform="translate(272.64 -2179.37) rotate(57.71)" xlink:href="#linear-gradient-2"/><linearGradient id="linear-gradient-7" x1="-1587.73" y1="-908.48" x2="-1587.63" y2="-908.58" gradientTransform="matrix(0.77, 0.07, 0.09, -1, 1496.05, -698.64)" xlink:href="#linear-gradient-2"/></defs><g id="Layer_2" data-name="Layer 2"><g id="MainLayer"><g id="greenzone"><g id="service7"><g id="objbutton1"><rect class="cls-1" x="79.83" y="117.08" width="99.32" height="67.67" rx="11.2"/><text class="cls-2" transform="translate(92.02 135.95)">Identifying <tspan x="9.12" y="17.92">Citizens </tspan><tspan x="0.39" y="35.83">Effectively</tspan></text></g><g id="iconSecurity"><g id="singlehex"><polygon class="cls-3" points="57.27 168.54 53.77 170.49 32.27 133.4 35.71 131.34 57.03 131.61 67.81 150.22 57.27 168.54"/><polygon class="cls-4" points="53.8 170.5 32.48 170.23 21.7 151.63 32.24 133.3 53.56 133.57 64.34 152.18 53.8 170.5"/></g><circle class="cls-5" cx="58.65" cy="139.4" r="6.01"/><circle class="cls-3" cx="57.43" cy="140.24" r="6.01"/><polyline class="cls-6" points="54.32 140.46 56.05 142.34 60.71 137.57"/><path class="cls-7" d="M33.57,143.25a7.68,7.68,0,1,0,10.84-.65A7.68,7.68,0,0,0,33.57,143.25Zm10.09,8.83a5.64,5.64,0,1,1-.47-8A5.62,5.62,0,0,1,43.66,152.08Z"/><rect class="cls-7" x="48.38" y="152.51" width="3.6" height="10.18" rx="0.49" transform="translate(-101.01 90.53) rotate(-48.42)"/><rect class="cls-7" x="44.6" y="152.72" width="2.27" height="2" transform="translate(-99.6 85.91) rotate(-48.42)"/></g><g id="obj1"><polygon class="cls-8" points="172.9 92.89 151.63 95.32 151.44 80.03 172.61 77.75 172.9 92.89"/><ellipse class="cls-9" cx="192.22" cy="126.36" rx="12.01" ry="3.92"/><g class="cls-10"><path d="M18.78,105.72c-2,.09-3.46.58-4,1.26L5,108c-1.08.09-1.7.53-1.38,1l6,8.31a3.29,3.29,0,0,0,2.53.63L25,116.55c1.07-.09,1.69-.53,1.37-1l-3.89-5.41c2.8-.23,4.36-1.29,3.52-2.46S21.89,105.58,18.78,105.72Z"/><polygon points="25.18 119.03 27.6 117.11 19.31 117.97 25.18 119.03"/><path d="M7.7,93.19c1.07-.1,1.69-.53,1.37-1l-1.79-2.5L5.4,93.43Z"/><path d="M173.18,98.34,158,77.21c3-1.39,4.6-3.24,4.81-5.52l-5.09-7.36c-6.44.86-11.79-.08-17-1.2-3.05,1.85-7.72,3.2-14.1,4l3.72,5L24.93,81.61c-5.08.45-8,2.51-6.48,4.6l7.37,10.25-7.64,2.09-.69-1c3-.18,4.68-1.27,3.81-2.48s-4.14-2.13-7.24-2c-2.16.1-3.68.66-4.12,1.41l-5.44.69L0,104.16l1,1.37a3.29,3.29,0,0,0,2.53.63l16.6-2c1.08-.1,1.69-.53,1.37-1l-2.69-3.74,9.83.94L36,110.58c1.5,2.09,6.83,3.41,11.91,3L166.7,102.93C171.78,102.48,174.68,100.42,173.18,98.34Z"/></g><path class="cls-11" d="M25.23,57.22,11.74,59.15a1.77,1.77,0,0,1-2-1.8V36.47a2.29,2.29,0,0,1,2-2.22l13.49-1.94a1.78,1.78,0,0,1,2,1.8V55A2.3,2.3,0,0,1,25.23,57.22Z"/><path class="cls-11" d="M25.2,86.74,11.71,88.68a1.79,1.79,0,0,1-2-1.81V66a2.3,2.3,0,0,1,2-2.22L25.2,61.83a1.78,1.78,0,0,1,2,1.8V84.51A2.31,2.31,0,0,1,25.2,86.74Z"/><path class="cls-11" d="M25.74,116l-13.49,1.94a1.78,1.78,0,0,1-2-1.8V95.25a2.29,2.29,0,0,1,2-2.22l13.49-1.94a1.78,1.78,0,0,1,2,1.8v20.88A2.28,2.28,0,0,1,25.74,116Z"/><path d="M18.34,44.36a3.81,3.81,0,0,0,3.36-3.71,3,3,0,0,0-3.36-3A3.84,3.84,0,0,0,15,41.36,3,3,0,0,0,18.34,44.36Z"/><path d="M23.38,52.24a1,1,0,0,0,.85-.93,5.2,5.2,0,0,0-5.89-5.26,6.69,6.69,0,0,0-5.88,6.5.74.74,0,0,0,.84.75Z"/><path d="M18.36,74.87a3.82,3.82,0,0,0,3.37-3.71,3,3,0,0,0-3.37-3A3.84,3.84,0,0,0,15,71.87,3,3,0,0,0,18.36,74.87Z"/><path d="M23.41,82.75a1,1,0,0,0,.84-.93,5.2,5.2,0,0,0-5.89-5.26,6.7,6.7,0,0,0-5.88,6.5.74.74,0,0,0,.84.75Z"/><path d="M18.73,103.46a3.84,3.84,0,0,0,3.36-3.72,3,3,0,0,0-3.36-3,3.84,3.84,0,0,0-3.37,3.72A3,3,0,0,0,18.73,103.46Z"/><path d="M23.77,111.33a1,1,0,0,0,.84-.93,5.2,5.2,0,0,0-5.88-5.26,6.7,6.7,0,0,0-5.89,6.5.74.74,0,0,0,.84.75Z"/><circle class="cls-12" cx="26.95" cy="35.33" r="5.64"/><circle class="cls-12" cx="27" cy="64.93" r="5.64"/><circle class="cls-13" cx="27.25" cy="94.57" r="5.64"/><polyline class="cls-6" points="24.18 35.39 25.75 37.11 30 32.76"/><polyline class="cls-6" points="23.56 65.34 25.14 67.06 29.39 62.72"/><line class="cls-6" x1="24.77" y1="96.86" x2="29.9" y2="92.05"/><line class="cls-6" x1="29.83" y1="97.04" x2="24.7" y2="92.22"/><polyline class="cls-14" points="13.59 30.44 17.96 25.75 22.24 29.45"/><polyline class="cls-14" points="23.41 119.17 19.73 123.58 14.78 120.35"/><path class="cls-15" d="M168.2,99.78,45.58,112.67a8.39,8.39,0,0,1-9.49-8.5V42.91a10.8,10.8,0,0,1,9.49-10.49L168.2,19.53a8.38,8.38,0,0,1,9.49,8.5V89.29A10.79,10.79,0,0,1,168.2,99.78Z"/><polygon class="cls-16" points="146.45 37.87 49.67 48.81 49.67 39.8 146.45 28.85 146.45 37.87"/><polygon class="cls-16" points="145.6 58.06 101.05 62.3 101.05 53.28 145.6 49.04 145.6 58.06"/><polygon class="cls-16" points="138.79 74.11 101.05 78.08 101.05 69.06 138.79 65.09 138.79 74.11"/><polygon class="cls-16" points="144.05 88.98 101.05 93.85 101.05 84.84 144.05 79.96 144.05 88.98"/><path class="cls-17" d="M55.94,95.69a3.61,3.61,0,0,1,2,0,45.2,45.2,0,0,1,5.21-3.1s0-.06,0-.09c-2.52.13-5.52-.32-6.25-3.22-1.22-4.94-1-11.79.31-20.52,1-6.5,2.66-9.7,5.68-12.18,4.65-3.82,12.17-4.49,16.11-1,1.9,1.7,2.53,4,2.82,6.87.23,0,.47.06.7.11.93.11.81,2.56.31,5.87l.19,0c1.47.58,1.32,4.68-.53,7.43A9.84,9.84,0,0,1,81,77.74c-.24,1-.49,1.85-.75,2.7l.13,5.31.06-.25,2.12,2.91c0,.13,0,.26,0,.39a41.29,41.29,0,0,1,7.93,1.52,8.5,8.5,0,0,1,3.22.4,6.11,6.11,0,0,1,.94.35V48.14L49.32,53.7v54.84l.22,0q1.37-4.76,3-9.62C52.87,98.24,54,96.21,55.94,95.69Z"/><path class="cls-18" d="M57.44,96.1l.54-.36a3.61,3.61,0,0,0-2,0c-1.92.52-3.07,2.55-3.41,3.21q-1.64,4.88-3,9.62l0,.11,8-1Z"/><path class="cls-18" d="M64.45,92.45c.5-.06,1-.13,1.52-.23h0C65.56,92.29,65,92.38,64.45,92.45Z"/><path class="cls-18" d="M86.28,95.52a5.94,5.94,0,0,1,1.81-4.25,4.38,4.38,0,0,1,2.38-1,41.29,41.29,0,0,0-7.93-1.52c-.11,5.73-3.94,10.73-8.54,14.52l-4.3-6.64h-.1L65.85,103c-2.5-3.17-3.84-5.89-2.66-10.33A45.2,45.2,0,0,0,58,95.74l-.54.36.07,11.54L87.57,104C87.09,101.2,86.65,98.39,86.28,95.52Z"/><path class="cls-18" d="M94.63,91.07a6.11,6.11,0,0,0-.94-.35,8.5,8.5,0,0,0-3.22-.4,4.38,4.38,0,0,0-2.38,1,5.94,5.94,0,0,0-1.81,4.25c.37,2.87.81,5.68,1.29,8.43l7.06-.86Z"/><path class="cls-19" d="M78.65,84c-1.16,3.6-5,7.58-12.42,10.27.31,2.17,1.52,2.34,3.42,2.29l0,0C75,96.23,78.51,93,80.37,85.75l-.13-5.31c-.25.79-.49,1.55-.74,2.23C79.45,82.76,79.16,83.29,78.65,84Z"/><path class="cls-19" d="M69.6,96.69h.1l0-.08Z"/><path class="cls-20" d="M78.65,84c-1.64,2.41-5.64,7.21-11.87,8l-.81.15h0l.2,0a10.71,10.71,0,0,0,.06,2.12C73.63,91.62,77.49,87.64,78.65,84Z"/><path class="cls-19" d="M64.45,92.45c.59-.07,1.11-.16,1.52-.23l.81-.15C73,91.25,77,86.45,78.65,84c.51-.75.8-1.28.85-1.37.25-.68.49-1.44.74-2.23s.51-1.74.75-2.7a2.37,2.37,0,0,1-1.77.73c-1.44-.25-2.07-3.19-1.28-5.52a7.16,7.16,0,0,1,.41-1l-1.72-.47a14.07,14.07,0,0,1-.8-8.05,11.51,11.51,0,0,1,6-1c-.29-2.87-.92-5.17-2.82-6.87-3.94-3.5-11.46-2.83-16.11,1-3,2.48-4.7,5.68-5.68,12.18C56,77.54,55.74,84.39,57,89.33c.73,2.9,3.73,3.35,6.25,3.22v0C63.67,92.52,64.06,92.49,64.45,92.45Zm5.62-21.3c.73-.09,1.32.65,1.32,1.65a1.88,1.88,0,0,1-1.32,2c-.72.09-1.31-.65-1.31-1.65A1.88,1.88,0,0,1,70.07,71.15Zm-1.9,3.27c1.22,1.47,2.69,1.69,4.45.6-1.16,1.72-2.6,2.09-4.54.06Zm-4-2.39.11,0,0-.24h.2l-.66,6.84,2.13.46,0,.12-3.47.24Zm-3.32-.21c.73-.09,1.32.65,1.32,1.65a1.88,1.88,0,0,1-1.32,2c-.73.09-1.32-.65-1.32-1.65A1.88,1.88,0,0,1,60.9,71.82Zm1.41,3.05.06.64C61,78,60,77.88,59.13,76.4,60.39,77.13,61.44,76.6,62.31,74.87ZM62,83.59c-.34,0-.37.42-.8.56s-.6-.2-1.11-.09-.74.57-.92.51-.2-1.29.26-2.17c1-1.91,3.89-2.28,4.43-2.35s4.49-1.09,6,.85c.66.88.79,2.29.58,2.4s-.47-.69-1.11-.66-.62.51-1.18.6-.86-.57-1.48-.44-.64.73-1.23.83-.68-.4-1.24-.3-.74.72-1.23.72S62.41,83.54,62,83.59Z"/><path class="cls-21" d="M70.07,74.77a1.88,1.88,0,0,0,1.32-2c0-1-.59-1.74-1.32-1.65a1.88,1.88,0,0,0-1.31,2C68.76,74.12,69.35,74.86,70.07,74.77Z"/><path class="cls-21" d="M60.9,75.44a1.88,1.88,0,0,0,1.32-2c0-1-.59-1.74-1.32-1.65a1.88,1.88,0,0,0-1.32,2C59.58,74.79,60.17,75.53,60.9,75.44Z"/><polygon class="cls-20" points="66.03 79.11 63.9 78.65 63.9 78.67 63.48 78.72 64.33 72.06 64.22 72.03 62.61 79.47 66.08 79.23 66.03 79.11"/><polygon class="cls-21" points="63.9 78.67 63.9 78.65 64.56 71.81 64.36 71.82 64.33 72.06 63.48 78.72 63.9 78.67"/><path class="cls-22" d="M75.83,63.48a14.07,14.07,0,0,0,.8,8.05l1.72.47c1.12-2.11,3.32-3.74,4.54-3.51.5-3.31.62-5.76-.31-5.87-.23,0-.47-.08-.7-.11A11.51,11.51,0,0,0,75.83,63.48Z"/><path class="cls-19" d="M78.35,72a7.16,7.16,0,0,0-.41,1c-.79,2.33-.16,5.27,1.28,5.52A2.37,2.37,0,0,0,81,77.74,9.84,9.84,0,0,0,82.55,76c1.85-2.75,2-6.85.53-7.43l-.19,0C81.67,68.26,79.47,69.89,78.35,72Zm3.72-1.94c-1.17.33-2.5,4-2.77,4.51.2-.17,1-.71,1.3-.46a.44.44,0,0,1,.14.37s0-.13-.15-.21c-.32-.28-1.21.29-1.31.33l0,0s1.58-5.07,3-5c.41,0,.82.48.78.58S82.48,70,82.07,70.06Z"/><path class="cls-20" d="M82.22,69.6c-1.38,0-3,5-3,5l0,0c.1,0,1-.61,1.31-.33.1.08.14.22.15.21a.44.44,0,0,0-.14-.37c-.31-.25-1.1.29-1.3.46.27-.49,1.6-4.18,2.77-4.51.41-.11.88.22.93.12S82.63,69.61,82.22,69.6Z"/><path class="cls-20" d="M72.62,75c-1.76,1.09-3.23.87-4.45-.6l-.09.66C70,77.11,71.46,76.74,72.62,75Z"/><path class="cls-20" d="M62.37,75.51l-.06-.64c-.87,1.73-1.92,2.26-3.18,1.53C60,77.88,61,78,62.37,75.51Z"/><path class="cls-23" d="M69.65,96.6c-1.9.05-3.11-.12-3.42-2.29a10.71,10.71,0,0,1-.06-2.12l-.2,0c-.54.1-1,.17-1.52.23s-.78.07-1.23.08v0s0,.06,0,.09C62,97.08,63.35,99.8,65.85,103l3.75-6.28.05-.09Z"/><path class="cls-23" d="M80.43,85.5l-.06.25C78.51,93,75,96.23,69.63,96.58l0,0h0l0,.08,4.3,6.64c4.6-3.79,8.43-8.79,8.54-14.52,0-.13,0-.26,0-.39Z"/><path class="cls-22" d="M65.4,83.63c.59-.1.66-.72,1.23-.83s.8.55,1.48.44.68-.58,1.18-.6.94.76,1.11.66.08-1.52-.58-2.4c-1.47-1.94-5.33-1-6-.85s-3.41.44-4.43,2.35c-.46.88-.54,2.07-.26,2.17s.38-.4.92-.51.66.23,1.11.09.46-.51.8-.56.49.45.93.46.64-.62,1.23-.72S64.85,83.73,65.4,83.63Z"/><path class="cls-12" d="M170.73,0a31.67,31.67,0,0,1-16.49,8.3l.12,18.31c2.26,6.64,6.64,11.73,15.48,13.6C178,37.73,183.39,32,186.2,23.26l.19-18.46C179.56,6.18,175,3.3,170.73,0Z"/><polyline class="cls-6" points="161.18 21.4 166.55 27.25 181.01 12.45"/><polyline class="cls-15" points="36.75 68.37 24.71 74.14 36.7 78.69"/><circle class="cls-24" cx="169.02" cy="67.45" r="7.92"/><path class="cls-21" d="M172.26,58.25A9.76,9.76,0,1,0,178,70.79,9.76,9.76,0,0,0,172.26,58.25Zm-5.81,16a7.16,7.16,0,1,1,9.2-4.23A7.16,7.16,0,0,1,166.45,74.26Z"/><rect class="cls-21" x="160.63" y="78.06" width="4.57" height="12.93" rx="0.63" transform="translate(39.5 -51.32) rotate(20.33)"/><rect class="cls-21" x="164.01" y="76.2" width="2.89" height="2.54" transform="translate(37.21 -52.65) rotate(20.33)"/><path class="cls-25" d="M186.49,92.05c-10.35,1.21-18.1-2.6-20.86-8.88a2.78,2.78,0,0,0-3,2.48c6.13,8.27,14.61,10.72,22.24,8.89Z"/><path class="cls-26" d="M175.55,69.46c5.77,12.06,14.58,16.75,27.69,11.05,4.12-13.17-.73-18-8.06-20.61C187.69,58.19,181.22,61.76,175.55,69.46Z"/><path class="cls-27" d="M176.05,91.12c.1,15.79,12.33,35,18.22,30.58,5.24-3.91,10.89-20.51,7.34-32.32C198.86,80.24,176,83.21,176.05,91.12Z"/><path class="cls-28" d="M177,68a9.71,9.71,0,0,0,4.92,5.67c.36.17,5.33-10.33,2.11-11.73C182.1,63,179.44,65.53,177,68Z"/><ellipse class="cls-29" cx="181.37" cy="67.07" rx="1.95" ry="1.08" transform="translate(61.05 218.45) rotate(-71.82)"/><path class="cls-7" d="M180.12,95.28A30.58,30.58,0,0,0,186,112"/><path class="cls-30" d="M180.16,95.28c.36,6,3,11.47,5.84,16.68l-.06,0c-4.05-4.39-5.9-11-5.78-16.72Z"/><path class="cls-30" d="M179.11,89.88c3.72,2.11,16.2,2.58,18.32-1.76h.07c-.39,1.74-2.24,2.54-3.76,3.1-4.56,1.4-10.75,1.49-14.63-1.35Z"/><polygon class="cls-31" points="161.34 80.37 166.47 84.03 164.85 87.56 159.68 84.04 161.34 80.37"/><path class="cls-32" d="M186.4,121.13c2.41-3.08,1.65-5.23-.25-7.84l-2.91-2.62q-5.19.09-7.87,3l2.26,2.24c1.64-1.6,3.34-2.86,5-2.16,2.76,1.32,3.59,3.72,1.7,6.32Z"/><path class="cls-33" d="M185.45,113.31a28.19,28.19,0,0,0,12.63-17.08c.31-2.81-1.36-2.46-2.93-1.19-2.08,7.14-6,10.48-11.26,15.27C183.83,111.07,184.38,113.29,185.45,113.31Z"/><polygon id="rect124" class="cls-34" points="151.05 47.63 172.29 45.09 172.07 55.88 150.83 58.43 151.05 47.63"/><path id="path146" class="cls-7" d="M151.05,47.63l0,1.21,18.67,7.33,2.37-.29,0-1.2-18.66-7.33-2.38.28Zm21.24-2.54,0,1.2-19,11.86-2.38.28,0-1.2,19-11.86Z"/><path id="path136" class="cls-7" d="M159.9,46.57l-.22,10.8,3.54-.42.22-10.8ZM151,51.23l-.07,3.6,21.23-2.55.08-3.6Z"/><path id="path141" class="cls-35" d="M151,52l0,2.16,21.24-2.55,0-2.16Zm9.65-5.46-.22,10.8,2.12-.26.22-10.8Z"/><path id="path150" class="cls-35" d="M150.83,58.43,158,54l1.59-.19-7.15,4.45Zm.22-10.8,7,2.75-1.59.19L151,48.44Zm12.5,2.09,7.15-4.44,1.59-.19-7.15,4.44Zm8.52,6.16-7-2.75,1.59-.19,5.44,2.14Z"/></g></g></g></g></g></svg>