<svg xmlns="http://www.w3.org/2000/svg" xmlns:xlink="http://www.w3.org/1999/xlink" viewBox="0 0 93.49 83.33"><defs><style>.cls-1,.cls-14,.cls-23{fill:none;}.cls-15,.cls-2,.cls-25{fill:#fff;}.cls-3{fill:#5789ba;}.cls-4{fill:#65aff5;}.cls-5{fill:#466f96;}.cls-6{fill:#fafafa;}.cls-7{fill:#31ab94;}.cls-8{fill:#a0a7cb;}.cls-9{fill:#bfc3db;}.cls-10{fill:#298f7c;}.cls-11{fill:#add9d1;}.Anon-H\/3PZcblQb0\={fill:#b879b0;}.Anon-jY41dALBae4\={fill:#cda1c8;}.cls-12{opacity:0.86;}.cls-13{fill:url(#radial-gradient);}.cls-14{stroke:#1b1464;stroke-width:2px;opacity:0.22;}.cls-14,.cls-23{stroke-miterlimit:10;}.cls-15{font-size:8.49px;font-family:Arial-BoldMT, Arial;font-weight:700;}.cls-16{letter-spacing:-0.04em;}.cls-17{clip-path:url(#clip-path);}.cls-18{fill:#e4e3ea;}.cls-19{fill:#f8c7a3;}.cls-20{fill:#e3b696;}.cls-21{fill:#542578;}.cls-22{fill:#412a74;}.cls-23{stroke:#2e3192;stroke-linecap:round;stroke-width:0.25px;}.cls-24{fill:#ff9c50;}.cls-25{opacity:0.18;}</style><radialGradient id="radial-gradient" cx="41.66" cy="41.66" r="40.66" gradientUnits="userSpaceOnUse"><stop offset="0" stop-color="#cfbdb0"/><stop offset="1" stop-color="#fff"/></radialGradient><clipPath id="clip-path"><polygon class="cls-1" points="43.47 30.65 31.99 30.5 26.18 20.48 32.77 7.16 45.41 8.49 49.15 20.77 43.47 30.65"/></clipPath><symbol id="hex-connector" data-name="hex-connector" viewBox="0 0 14.01 15.06"><rect class="cls-7" width="14.01" height="15.06"/></symbol><symbol id="hex-data" data-name="hex-data" viewBox="0 0 132.05 112.17"><polygon class="cls-8" points="101.86 106.56 91.86 112.14 30.27 5.92 40.13 0 101.18 0.79 132.05 54.07 101.86 106.56"/><polygon class="cls-9" points="91.92 112.17 30.87 111.39 0 58.11 30.18 5.62 91.24 6.4 122.11 59.68 91.92 112.17"/><path class="cls-10" d="M128,24.36c.7,23.59-36.76,23.59-36.76,0S128.65.78,128,24.36Z"/><path class="cls-7" d="M124.48,27.14c.7,23.58-36.76,23.58-36.76,0S124.48,2.86,124.48,27.14Z"/><rect class="cls-2" x="97" y="17.83" width="3.01" height="18.36"/><rect class="cls-2" x="98.74" y="33.13" width="17.1" height="3.06"/><rect class="cls-2" x="113.32" y="28.55" width="2.52" height="6.84"/><rect class="cls-2" x="108.39" y="17.83" width="7.15" height="1.9"/><polygon class="cls-2" points="113.99 25.25 113.99 17.83 115.84 17.83 115.84 25.25 113.99 25.25"/><polygon class="cls-2" points="105.58 26.55 113.05 18.91 114.36 20.25 106.89 27.89 105.58 26.55"/><polygon class="cls-2" points="105.58 20.34 105.58 17.83 98.74 17.83 98.74 20.34 105.58 20.34"/></symbol><symbol id="hex-plain" data-name="hex-plain" viewBox="0 0 132.05 112.17"><polygon class="cls-7" points="101.86 106.56 91.86 112.14 30.27 5.92 40.13 0 101.18 0.79 132.05 54.07 101.86 106.56"/><polygon class="cls-11" points="91.92 112.17 30.87 111.39 0 58.11 30.18 5.62 91.24 6.4 122.11 59.68 91.92 112.17"/></symbol><symbol id="raised-tick" data-name="raised-tick" viewBox="0 0 40.24 38.15"><path class="cls-10" d="M40.23,17.69c.7,23.58-36.76,23.58-36.76,0S40.93-5.9,40.23,17.69Z"/><path class="cls-7" d="M36.76,20.46C37.46,44.05,0,44.05,0,20.46S36.76-3.82,36.76,20.46Z"/><polygon class="cls-2" points="5.51 21.98 13.24 31.2 31.27 13.89 28.34 11.13 13.38 24.96 8.7 19.44 5.51 21.98"/></symbol><symbol id="hex-green-tick" data-name="hex-green-tick" viewBox="0 0 132.05 112.17"><use width="132.05" height="112.18" xlink:href="#hex-plain"/><use width="40.24" height="38.15" transform="translate(87.72 6.67)" xlink:href="#raised-tick"/></symbol><symbol id="hex-blue-clock" data-name="hex-blue-clock" viewBox="0 0 132.05 112.17"><polygon class="cls-3" points="101.86 106.56 91.86 112.14 30.27 5.92 40.13 0 101.18 0.79 132.05 54.07 101.86 106.56"/><polygon class="cls-4" points="91.92 112.17 30.87 111.39 0 58.11 30.18 5.62 91.24 6.4 122.11 59.68 91.92 112.17"/><path class="cls-5" d="M124.71,25.66c.69,23.59-36.77,23.59-36.77,0S125.4,2.08,124.71,25.66Z"/><path class="cls-3" d="M121.24,28.44c.69,23.58-36.77,23.58-36.77,0S121.24,4.16,121.24,28.44Z"/><circle class="cls-6" cx="102.81" cy="28.31" r="13.83"/><path d="M102.8,42.47A14.17,14.17,0,1,1,117,28.31,14.18,14.18,0,0,1,102.8,42.47Zm0-27.67a13.51,13.51,0,1,0,13.51,13.51A13.52,13.52,0,0,0,102.8,14.8Z"/><polygon points="100.83 28.3 108.73 18.43 102.81 28.3 104.78 35.55 100.83 28.3"/><polygon points="102.15 14.47 103.17 17.54 104.12 14.47 102.15 14.47"/><polyline points="104.12 42.14 102.54 42.14 103.14 38.97"/><polyline points="88.97 28.04 88.97 29.62 91.61 28.96"/><polyline points="116.64 26.99 116.64 28.96 113.34 27.65"/></symbol><symbol id="fast-forward" data-name="fast-forward" viewBox="0 0 74.08 30.84"><polygon class="cls-2" points="26.71 15.42 0 0 0 30.84 26.71 15.42"/><polygon class="cls-2" points="50.22 15.42 23.51 0 23.51 30.84 50.22 15.42"/><polygon class="cls-2" points="74.08 15.42 47.37 0 47.37 30.84 74.08 15.42"/></symbol><symbol id="logo-nhs" data-name="logo-nhs" viewBox="0 0 492.25 170.43"><path id="path10" class="cls-2" d="M186.92,0,152.41,162.06H98.25L64.2,49.91h-.47L41.09,162.06H0L34.79,0H89.15l33.37,112.4H123L145.86,0ZM354,2.79,320.13,164.85H276.51L291,95.43h-51.6l-14.46,69.42H181.32L215.17,2.79h43.61L246,64.8h51.55l12.85-62ZM492.25,10,481.73,42.24c-8.41-3.91-19.84-7.41-35.93-7.41-17.26,0-31.27,2.53-31.27,15.57,0,23,63.23,14.4,63.23,63.62,0,44.78-41.78,56.41-79.57,56.41-16.79,0-36.18-4-50.39-8.38l10.27-33c8.6,5.57,25.91,9.29,40.12,9.29,13.54,0,34.76-2.55,34.76-19.28,0-26-63.23-16.26-63.23-62,0-41.81,36.88-54.35,72.58-54.35,20.09,0,39,2.11,49.95,7.18"/></symbol><symbol id="hex-purple-security" data-name="hex-purple-security" viewBox="0 0 132.05 112.17"><polygon class="Anon-H/3PZcblQb0=" points="101.86 106.56 91.86 112.14 30.27 5.92 40.13 0 101.18 0.79 132.05 54.07 101.86 106.56"/><polygon class="Anon-jY41dALBae4=" points="91.92 112.17 30.87 111.39 0 58.11 30.18 5.62 91.24 6.4 122.11 59.68 91.92 112.17"/><use width="40.24" height="38.15" transform="translate(87.72 6.67)" xlink:href="#raised-tick"/><path class="cls-2" d="M31.14,30.41a23.91,23.91,0,1,0,33.75-2A23.92,23.92,0,0,0,31.14,30.41ZM62.55,57.9a17.55,17.55,0,1,1-1.48-24.76A17.55,17.55,0,0,1,62.55,57.9Z"/><polygon class="cls-2" points="96.26 79.51 88.82 87.89 67.28 68.78 74.71 60.4 96.26 79.51"/><polygon class="cls-2" points="73.69 62.45 68.99 67.75 64.33 63.61 69.03 58.31 73.69 62.45"/></symbol></defs><g id="Layer_2" data-name="Layer 2"><g id="MainLayer"><g id="stories" class="cls-12"><g id="workgroup"><g id="work3"><circle class="cls-13" cx="41.66" cy="41.66" r="40.66"/><circle class="cls-14" cx="41.66" cy="41.66" r="40.66"/><use width="14.01" height="15.06" transform="translate(30.08 48.12) rotate(56.8) scale(0.19)" xlink:href="#hex-connector"/><use width="132.05" height="112.18" transform="translate(6.19 45.64) scale(0.19)" xlink:href="#hex-data"/><use width="14.01" height="15.06" transform="matrix(-0.1, -0.16, -0.26, 0.16, 31.5, 27.95)" xlink:href="#hex-connector"/><use width="132.05" height="112.18" transform="translate(26.89 32.87) scale(0.19)" xlink:href="#hex-green-tick"/><use width="14.01" height="15.06" transform="matrix(0.1, -0.16, 0.16, 0.1, 47.77, 49.1)" xlink:href="#hex-connector"/><use width="14.01" height="15.06" transform="translate(59.97 40.51) scale(0.19)" xlink:href="#hex-connector"/><use width="132.05" height="112.18" transform="translate(47.65 19.68) scale(0.19)" xlink:href="#hex-green-tick"/><use width="132.05" height="112.18" transform="translate(48.15 43.23) scale(0.19)" xlink:href="#hex-green-tick"/><use width="14.01" height="15.06" transform="matrix(0.1, -0.16, 0.16, 0.1, 68.85, 35.64)" xlink:href="#hex-connector"/><use width="132.05" height="112.18" transform="translate(68.85 30.47) scale(0.19)" xlink:href="#hex-blue-clock"/><use width="74.08" height="30.84" transform="translate(75.56 34.57) rotate(29.9) scale(0.21)" xlink:href="#fast-forward"/><text class="cls-15" transform="translate(50.62 33.51)">ES<tspan class="cls-16" x="11.32" y="0">A</tspan></text><use width="492.25" height="170.43" transform="translate(10.21 54.3) scale(0.03)" xlink:href="#logo-nhs"/><use width="132.05" height="112.18" transform="translate(26.23 9.71) scale(0.19)" xlink:href="#hex-plain"/><use width="14.01" height="15.06" transform="matrix(0.1, -0.16, 0.16, 0.1, 47.1, 25.94)" xlink:href="#hex-connector"/><use width="132.05" height="112.18" transform="translate(5.52 23.2) scale(0.19)" xlink:href="#hex-purple-security"/><g class="cls-17"><path class="cls-18" d="M43.8,24.23c1,.84.51,6.48.34,14.31-4,2.16-6.46,1.49-11.8-.4-.58-7.07-3.62-6.83-2.65-13.91C34.92,21.71,39.58,21.9,43.8,24.23Z"/><path class="cls-18" d="M42.27,25.11c-1.2,1.39-.51,3,.55,10.22a6.62,6.62,0,0,0,1,2.74,2.41,2.41,0,0,0,4.44-.72,60.53,60.53,0,0,0-3-12.18,1.92,1.92,0,0,0-1.23-1C43.21,24,42.49,24.87,42.27,25.11Z"/><path class="cls-19" d="M35,18.71l-.09,4.48a8,8,0,0,0,3,2.11c.54.34.82.18,1-.23V21.13Z"/><path class="cls-20" d="M38.84,23.37C37,22,35.54,20.6,35.33,19.27l3.51,2.31Z"/><polygon class="cls-21" points="43.65 15.56 42.64 15.62 42.64 15.87 43.66 15.79 43.65 15.56"/><path class="cls-19" d="M43.26,12.06c0,.26,0,.61,0,1C43,19,42.88,20.16,42,21.1a3.6,3.6,0,0,1-1.8,1c-1.75.39-3.75-.66-5.22-2.66l.73-6.7a22.83,22.83,0,0,1,7.56-.71Z"/><ellipse class="cls-22" cx="38.54" cy="16.3" rx="0.47" ry="0.65" transform="translate(-0.56 1.4) rotate(-2.07)"/><ellipse class="cls-22" cx="41.99" cy="16.21" rx="0.47" ry="0.65" transform="translate(-0.56 1.52) rotate(-2.07)"/><polygon class="cls-20" points="40.02 18.47 41.26 18.36 40.59 15.79 40.54 15.81 40.89 18.1 40.04 18.42 40.02 18.47"/><polygon class="cls-22" points="40.94 18.14 40.54 15.72 40.47 15.73 40.79 18.14 40.94 18.14"/><path class="cls-23" d="M42.49,14.72a1,1,0,0,0-1,.06"/><path class="cls-23" d="M38.92,14.92a1,1,0,0,0-1,.07"/><path class="cls-24" d="M35.87,18l.05-2.19a13.1,13.1,0,0,0,.82-1.48c.28-.59.12-1,.27-1.47a2.68,2.68,0,0,0,2.25-.57,3.82,3.82,0,0,0,1.85.34,7.77,7.77,0,0,0,1.31-.24l.66-.19c.05.21.14.26.17.27.24.09.56-.29.62-.37a1.26,1.26,0,0,0,.23-.46,2.24,2.24,0,0,0-.23-2,2,2,0,0,0-2.66.07,2.35,2.35,0,0,0-3.67.5A2.44,2.44,0,0,0,35.75,10a2.61,2.61,0,0,0-1.69,2.48.68.68,0,0,0-.84.47c-.46,1,0,2.46.43,3.87Z"/><path class="cls-19" d="M35.81,16.89c-.35-.9-1.42-1.55-1.88-1.28s-.41,1.74.28,2.62c0,.06.71.88,1.22.71S36.13,17.68,35.81,16.89Z"/><path class="cls-20" d="M34.25,15.94c.49-.1,1.13,1.61,1.12,1.63h0s-.36-.16-.47,0a.15.15,0,0,0,0,.08.18.18,0,0,1,0-.14c.11-.11.4,0,.47.09-.1-.16-.62-1.41-1-1.46-.15,0-.31.13-.33.1S34.1,16,34.25,15.94Z"/><path class="cls-25" d="M37,16.9a4,4,0,0,0,3-.11l0-1.38a6.68,6.68,0,0,0-3,.1Z"/><path class="cls-21" d="M36.92,17l-.05,0-.06-1.49.07,0a7,7,0,0,1,3.06-.11H40l.05,1.49-.05,0a4.73,4.73,0,0,1-1.58.36A3.72,3.72,0,0,1,36.92,17Zm2.91-1.5a6.62,6.62,0,0,0-2.83.1l0,1.28a3.79,3.79,0,0,0,2.82-.11Z"/><path class="cls-25" d="M41,16.78a3.28,3.28,0,0,0,2.66-.1l0-1.31a4.31,4.31,0,0,0-2.66.1Z"/><path class="cls-21" d="M41,16.84l0,0-.05-1.4.06,0a4.44,4.44,0,0,1,2.71-.09h0l.06,1.4,0,0a3.88,3.88,0,0,1-1.4.34A3.27,3.27,0,0,1,41,16.84Zm2.57-1.41a4.16,4.16,0,0,0-2.5.09l0,1.21a3.21,3.21,0,0,0,2.5-.09Z"/><polygon class="cls-21" points="36.87 15.72 34.94 15.83 35.27 16.1 36.88 16.01 36.87 15.72"/><path class="cls-21" d="M41,15.74a1,1,0,0,0-1,0V16a.92.92,0,0,1,1,0Z"/><path class="cls-18" d="M29,25c-1.18,1.64-.34,3.35,1.28,11.3a7.6,7.6,0,0,0,1.3,3,2.56,2.56,0,0,0,4.68-1.18,68.77,68.77,0,0,0-4-13.27,2,2,0,0,0-1.39-1C29.91,23.72,29.2,24.7,29,25Z"/></g><path class="cls-2" d="M37.29,35.61a1.39,1.39,0,0,1,.28,2.76l.14,2.25h3.2v1.12H37.78l.06,1.11h3.9l1.73,3.89,1.13-.48.43,1-2.12.92v0h0L41,44H36.45V38.12a1.4,1.4,0,0,1,.84-2.51Zm.28,13.92a4.17,4.17,0,0,1-1.67-8v1.26a3.06,3.06,0,1,0,4.73,2.57v0l.7,1.83A4.15,4.15,0,0,1,37.57,49.53Z"/></g></g></g></g></g></svg>