<svg xmlns="http://www.w3.org/2000/svg" xmlns:xlink="http://www.w3.org/1999/xlink" viewBox="0 0 88.23 87.65"><defs><style>.cls-1,.cls-11,.cls-3{fill:none;}.cls-2{opacity:0.86;}.cls-3{stroke:#1b1464;stroke-width:2px;opacity:0.22;}.cls-11,.cls-3{stroke-miterlimit:10;}.cls-4{clip-path:url(#clip-path);}.cls-5{fill:url(#linear-gradient);}.cls-6{fill:#e4e3ea;}.cls-7{fill:#f8c7a3;}.cls-8{fill:#e3b696;}.cls-9{fill:#542578;}.cls-10{fill:#412a74;}.cls-11{stroke:#2e3192;stroke-linecap:round;}.cls-12{fill:#ff9c50;}.cls-13,.cls-18,.cls-20,.cls-26,.cls-27,.cls-28{fill:#fff;}.cls-13{opacity:0.18;}.cls-14{fill:#40485b;}.cls-15{fill:#2b303d;}.cls-16{fill:#858585;}.cls-17{fill:#5e5e5e;}.cls-19{fill:url(#linear-gradient-2);}.cls-20{font-size:3.23px;}.cls-20,.cls-27,.cls-28{font-family:ArialRoundedMTBold, Arial Rounded MT Bold;}.cls-21{letter-spacing:-0.03em;}.cls-22{letter-spacing:-0.13em;}.cls-23{font-size:3.42px;}.cls-23,.cls-26{font-family:Arial-BoldMT, Arial;font-weight:700;}.cls-24{fill:#ccc;}.cls-25{fill:#00703c;}.cls-26{font-size:3.24px;}.cls-27{font-size:0.75px;}.cls-28{font-size:0.85px;}</style><clipPath id="clip-path"><circle class="cls-1" cx="43.83" cy="43.83" r="42.05"/></clipPath><linearGradient id="linear-gradient" x1="43.83" y1="85.88" x2="43.83" y2="1.77" gradientUnits="userSpaceOnUse"><stop offset="0" stop-color="#cfbdb0"/><stop offset="1" stop-color="#fff"/></linearGradient><linearGradient id="linear-gradient-2" x1="59.41" y1="4.61" x2="88.23" y2="4.61" gradientUnits="userSpaceOnUse"><stop offset="0.43" stop-color="#7e7494"/><stop offset="1" stop-color="#625a73"/></linearGradient></defs><g id="Layer_2" data-name="Layer 2"><g id="MainLayer"><g id="stories" class="cls-2"><g id="workgroup"><g id="work2"><circle class="cls-3" cx="43.83" cy="43.83" r="42.83"/><g class="cls-4"><circle class="cls-5" cx="43.83" cy="43.83" r="42.05"/><path class="cls-6" d="M47.79,45.18c2.42,2,1.18,15,.81,33.18-9.17,5-15,3.46-27.37-.93-1.34-16.38-8.4-15.82-6.13-32.25C27.21,39.34,38,39.8,47.79,45.18Z"/><path class="cls-6" d="M44.26,47.24c-2.79,3.22-1.19,6.91,1.27,23.7A15.47,15.47,0,0,0,48,77.28a5.57,5.57,0,0,0,10.27-1.66,139.89,139.89,0,0,0-6.94-28.24A4.4,4.4,0,0,0,48.41,45C46.43,44.74,44.76,46.67,44.26,47.24Z"/><path class="cls-6" d="M50,79c3.1,2.76,6.09,1.33,20.25-.57a10.81,10.81,0,0,0,2.57-.66c1.14-.45,2.67-.75,2.6-1.5a27.4,27.4,0,0,0-2.66-9.91A98.62,98.62,0,0,0,49.23,72.3,3.36,3.36,0,0,0,47.56,75C47.54,76.88,49.4,78.54,50,79Z"/><path class="cls-7" d="M69.53,69.22l9.15-15.68,3.71,9.24L74.12,74.27A5.7,5.7,0,0,1,69.53,69.22Z"/><path class="cls-7" d="M27.36,32.41l-.21,10.36c1.26,1.45,2.78,2.95,6.89,4.92,1.26.78,1.91.41,2.25-.55V38Z"/><path class="cls-8" d="M36.29,43.21C32,40,28.65,36.79,28.17,33.71L36.29,39Z"/><polygon class="cls-9" points="48.06 27.24 45.75 26.79 45.61 27.36 47.95 27.77 48.06 27.24"/><path class="cls-7" d="M49.19,19.15l-.67,2.27c-3.89,13.15-4.84,15.72-7.37,17.31A8.42,8.42,0,0,1,36.51,40c-4.15-.12-8-3.65-10.2-9l5.51-14.63a53.83,53.83,0,0,1,17.37,2.74Z"/><ellipse class="cls-10" cx="36.17" cy="25.97" rx="1.5" ry="1.09" transform="translate(3.09 55.78) rotate(-77.71)"/><ellipse class="cls-10" cx="43.95" cy="27.74" rx="1.5" ry="1.09" transform="translate(7.5 64.78) rotate(-77.71)"/><polygon class="cls-8" points="38.24 31.69 41.08 32.15 41.06 26 40.93 26.02 40.39 31.36 38.3 31.59 38.24 31.69"/><polygon class="cls-10" points="40.49 31.47 40.97 25.82 40.81 25.79 40.15 31.4 40.49 31.47"/><path class="cls-11" d="M45.94,24.68a2.39,2.39,0,0,0-2.35-.44"/><path class="cls-11" d="M37.8,23.09a2.41,2.41,0,0,0-2.35-.45"/><path class="cls-12" d="M29.18,28.26l1.37-4.91a28.12,28.12,0,0,0,2.71-2.85c1-1.16.83-2.13,1.44-3.13a6.27,6.27,0,0,0,5.38,0,9.08,9.08,0,0,0,4,1.83,19.3,19.3,0,0,0,3.08.2c.65,0,1.2,0,1.59,0a.79.79,0,0,0,.24.7c.46.35,1.42-.34,1.59-.47a2.87,2.87,0,0,0,.78-.89c.27-.46,1.63-2.82.65-4.64-.89-1.64-3.51-2.46-6-1.36a5.45,5.45,0,0,0-8.55-1,5.63,5.63,0,0,0-3.89-1.44,6.06,6.06,0,0,0-5.24,4.61,1.56,1.56,0,0,0-2.14.57c-1.65,2.09-1.46,5.52-1.28,8.93Z"/><path class="cls-7" d="M29.69,25.73c-.28-2.22-2.3-4.29-3.49-4s-1.92,3.69-.87,6.06c.08.17,1.08,2.38,2.33,2.28S29.94,27.68,29.69,25.73Z"/><path class="cls-8" d="M26.73,22.69c1.15.07,1.6,4.28,1.57,4.29v0c-.08,0-.72-.56-1-.36-.09,0-.15.16-.16.16a.5.5,0,0,1,.19-.3c.3-.18.86.33,1,.47-.13-.41-.58-3.5-1.5-3.86-.32-.12-.77.11-.79,0S26.39,22.67,26.73,22.69Z"/><path class="cls-13" d="M32.26,26.4a9.12,9.12,0,0,0,6.82,1.48l.68-3.13a15.67,15.67,0,0,0-6.82-1.49Z"/><path class="cls-9" d="M32.13,26.53l-.1-.07.73-3.38h.16a16.18,16.18,0,0,1,6.94,1.51l.14.07L39.27,28l-.14,0A10.69,10.69,0,0,1,35.37,28,8.72,8.72,0,0,1,32.13,26.53Zm7.4-1.7a15.66,15.66,0,0,0-6.41-1.39l-.63,2.89a8.81,8.81,0,0,0,6.41,1.4Z"/><path class="cls-13" d="M41.42,28.45a7.56,7.56,0,0,0,6,1.32l.65-3a10.06,10.06,0,0,0-6-1.31Z"/><path class="cls-9" d="M41.3,28.58l-.09-.07.69-3.18H42a10.3,10.3,0,0,1,6.15,1.34l.11.07-.69,3.18-.12,0a8.83,8.83,0,0,1-3.33,0A7.53,7.53,0,0,1,41.3,28.58Zm6.58-1.7a9.79,9.79,0,0,0-5.66-1.23l-.6,2.74a7.3,7.3,0,0,0,5.66,1.23Z"/><polygon class="cls-9" points="32.74 23.7 28.34 22.85 28.93 23.64 32.59 24.36 32.74 23.7"/><path class="cls-9" d="M41.94,26.11a2.26,2.26,0,0,0-2.33-.52l-.09.41a2.16,2.16,0,0,1,2.34.53Z"/><path class="cls-6" d="M13.45,47c-2.75,3.81-.8,7.77,3,26.2a17.41,17.41,0,0,0,3,6.84c3,4.7,10,2.88,10.85-2.75A159.17,159.17,0,0,0,21,46.51c-.35-.55-1.48-2.22-3.22-2.35C15.59,44,13.94,46.29,13.45,47Z"/><path class="cls-7" d="M47.44,70.5l7.21-3.38c.71-1.21,2.23-3.79,4.12-6.69a7.18,7.18,0,0,1,2.17-2.28,7,7,0,0,1,1.81-.8,23.52,23.52,0,0,1,6.73-.72c2.31,1.16,4,2,4.45,2.27.13.06.41.22.44.46a.58.58,0,0,1-.14.38,1,1,0,0,1-.53.31,2.38,2.38,0,0,1-.78.07,14.8,14.8,0,0,1-3.84-1.67l-4.32,1.61L69.12,63a.9.9,0,0,1-.45,1.26,2.43,2.43,0,0,1-1,2.59,2.14,2.14,0,0,1-.93,2.57L62,70.76c-.74,1.56-1.41,2.6-1.91,2.44-2.5-.22-5.6,1.65-8.7,3.56Z"/><path class="cls-14" d="M76.37,69.69l-10.71.77a.94.94,0,0,1-.8-.35l0-.07a1,1,0,0,1-.14-.88L70.8,52.34a.91.91,0,0,1,.87-.6l9.16.08a.93.93,0,0,1,.68.3l.36.4a.92.92,0,0,1,.2.9L77.18,69A.93.93,0,0,1,76.37,69.69Z"/><path class="cls-15" d="M75.76,70.47H67a1.3,1.3,0,0,1-1.22-1.75l5.57-15.31a1.31,1.31,0,0,1,1.23-.85h8.75a1.3,1.3,0,0,1,1.22,1.74L77,69.61A1.29,1.29,0,0,1,75.76,70.47Z"/><ellipse class="cls-16" cx="73.15" cy="54.54" rx="1.2" ry="0.9" transform="matrix(0.58, -0.81, 0.81, 0.58, -13.78, 82.28)"/><ellipse class="cls-17" cx="73.13" cy="54.5" rx="0.72" ry="0.54" transform="translate(-13.76 82.24) rotate(-54.41)"/><ellipse class="cls-18" cx="73.13" cy="54.5" rx="0.53" ry="0.4" transform="matrix(0.58, -0.81, 0.81, 0.58, -13.76, 82.24)"/><path class="cls-7" d="M76.11,71.28c2.79-1.91,5.5-3.87,6.88-6.59l1.68-6.39A5.23,5.23,0,0,0,81.83,55c-1.1-.39-2.82-.4-3.07.23a.48.48,0,0,0,0,.35c.27.63,2,.22,2.86,1a2,2,0,0,1,.56,1.65,5.51,5.51,0,0,1-1.17.91,8.05,8.05,0,0,0-3.15-.67c-2.14,0-4.41,1-4.28,1.58a.37.37,0,0,0,.11.18c.82.79,3.68-.09,4.12-.23l3,.8a10.17,10.17,0,0,0-3-.3c-1.95.1-4.23.83-4.13,1.41a.21.21,0,0,0,0,.1c.48.69,3.59.22,4.5.07l2.37.34a10.58,10.58,0,0,0-3.21.29c-1.36.34-1.43.68-1.43.79a.46.46,0,0,0,.11.28c.32.37,1.22.1,2.48-.07a16.19,16.19,0,0,1,2.08-.15C80.68,65.44,78.22,68.44,76.11,71.28Z"/><path class="cls-6" d="M22.65,82.77a5.54,5.54,0,0,0,3,1.08,55.27,55.27,0,0,0,9.9-.19c5.54-.68,8.36-.37,14.65-1.76,1.6-.35,3.3-.32,3.36-1.61a30.55,30.55,0,0,0-1.77-11.86c-9.27.78-18.83,3.63-28.93,6.8a4.45,4.45,0,0,0-2.43,3C20,80.71,22.41,82.59,22.65,82.77Z"/></g><polygon class="cls-18" points="88.22 45.89 63.81 45.96 59.41 51.46 59.44 45.89 59.44 3.77 88.22 3.77 88.22 45.89"/><rect class="cls-19" x="59.41" y="3.76" width="28.82" height="1.72"/><rect x="59.41" y="5.48" width="28.82" height="5.62"/><path class="cls-18" d="M62.65,6.42l.11.35h0l0,0h0l-.27-.08v.41L62.74,7h0l0,0-.16.48h0s0,0,0,.08a.25.25,0,0,0,.22.25h.08a.24.24,0,0,0,.22-.25.22.22,0,0,0,0-.08h0L62.94,7l0,0h0l.28.15V6.72L63,6.8h0l0,0h0l.11-.35h-.4Zm-1,.53a.22.22,0,0,0-.2.14.21.21,0,0,0,.12.28.22.22,0,1,0,.17-.4A.15.15,0,0,0,61.65,7Zm2.4,0A.13.13,0,0,0,64,7a.21.21,0,0,0-.12.28.21.21,0,0,0,.29.12.22.22,0,0,0,.12-.28A.23.23,0,0,0,64.05,7Zm-1.84.18a.21.21,0,0,0-.2.13.22.22,0,0,0,.11.29.23.23,0,0,0,.29-.12.22.22,0,0,0-.12-.29A.11.11,0,0,0,62.21,7.13Zm1.29,0a.14.14,0,0,0-.09,0,.22.22,0,0,0,.17.41.22.22,0,0,0,.12-.29A.22.22,0,0,0,63.5,7.13Zm-2.35.11a.22.22,0,0,0-.2.14.22.22,0,0,0,.41.17.23.23,0,0,0-.12-.29Zm3.4,0-.08,0a.21.21,0,0,0-.12.29.21.21,0,0,0,.29.11.22.22,0,0,0-.09-.42ZM61,7.8a.21.21,0,0,0-.2.13.22.22,0,0,0,.11.29.23.23,0,0,0,.29-.12.22.22,0,0,0-.12-.29A.11.11,0,0,0,61,7.8Zm3.69,0a.14.14,0,0,0-.09,0,.22.22,0,0,0,.17.41.22.22,0,0,0,.12-.29A.23.23,0,0,0,64.7,7.8Zm-2.9,0a.45.45,0,0,0,.07.67c-.15-.08-.37,0-.24.27.07-.17.22-.13.25,0a.22.22,0,0,1-.17.25c-.12,0-.29-.06-.43-.35a.44.44,0,0,1,.24.1l-.15-.48a.56.56,0,0,1-.13.27.57.57,0,0,1,0-.32l-.3.1a2.85,2.85,0,0,1,.44,1.06,9.7,9.7,0,0,1,1.47-.1,9.52,9.52,0,0,1,1.47.1,2.85,2.85,0,0,1,.44-1.06l-.3-.1a.59.59,0,0,1,0,.32.67.67,0,0,1-.14-.27l-.14.48a.42.42,0,0,1,.23-.1c-.14.29-.31.37-.42.35a.22.22,0,0,1-.18-.25c0-.15.18-.19.25,0,.14-.27-.09-.35-.24-.27a.45.45,0,0,0,.07-.67.48.48,0,0,0-.14.66c-.15-.17-.38-.08-.29.19.1-.16.25-.06.22.1s-.2.24-.42.22-.34-.25-.35-.43c.08,0,.22.06.34.23l.05-.51a.5.5,0,0,1-.39.16,1.84,1.84,0,0,1,.25-.36h-.64a1.48,1.48,0,0,1,.25.36.49.49,0,0,1-.38-.16l0,.51c.12-.17.26-.25.34-.23,0,.18,0,.4-.34.43S62,8.93,62,8.8s.12-.26.23-.1c.08-.27-.15-.36-.3-.19a.47.47,0,0,0-.14-.66Z"/><text class="cls-20" transform="translate(68.05 9.42)">G<tspan class="cls-21" x="2.56" y="0">O</tspan><tspan class="cls-22" x="5.03" y="0">V</tspan><tspan x="6.85" y="0">.UK</tspan></text><text class="cls-23" transform="translate(61.62 15.25)">Eligiblity</text><rect class="cls-24" x="61.57" y="16.89" width="24.37" height="0.59"/><rect class="cls-25" x="64.03" y="36.63" width="19.48" height="5.2"/><text class="cls-26" transform="translate(65.34 40.15)">Apply Now</text><rect class="cls-18" x="60.04" y="4.92" width="0.27" height="0.37"/><rect class="cls-18" x="60.41" y="4.65" width="0.27" height="0.64"/><rect class="cls-18" x="60.78" y="4.3" width="0.27" height="0.99"/><rect class="cls-18" x="61.15" y="4.01" width="0.27" height="1.28"/><path class="cls-18" d="M63.58,4.72l0,0a.48.48,0,0,0-.7,0,.08.08,0,0,1-.11,0,.09.09,0,0,1,0-.1.65.65,0,0,1,.91,0,.07.07,0,0,1,0,.1Z"/><path class="cls-18" d="M63.39,4.91s0,0,0,0a.25.25,0,0,0-.16-.06.23.23,0,0,0-.16.06.07.07,0,1,1-.1-.1.36.36,0,0,1,.52,0,.07.07,0,0,1,0,.1A.06.06,0,0,1,63.39,4.91Z"/><circle class="cls-18" cx="63.18" cy="5.05" r="0.1"/><path class="cls-18" d="M63.78,4.52l-.05,0a.78.78,0,0,0-1.1,0,.07.07,0,1,1-.1-.1.92.92,0,0,1,1.3,0,.07.07,0,0,1,0,.1Z"/><path class="cls-18" d="M87.3,4.37h-.13V4.21a.06.06,0,0,0-.06-.06H85.7a.06.06,0,0,0,0,.06V5a.06.06,0,0,0,0,.06h1.41A.06.06,0,0,0,87.17,5V4.82h.13a.06.06,0,0,0,.06-.05V4.42A.06.06,0,0,0,87.3,4.37Zm-.24.55h-1.3V4.27h1.3Zm.18-.21h-.07V4.48h.07Z"/><rect class="cls-18" x="85.82" y="4.33" width="1.03" height="0.52" rx="0.07"/><text class="cls-27" transform="translate(83.48 4.89)">87%</text><text class="cls-28" transform="translate(72.9 4.93)">11:55</text><rect class="cls-24" x="65.86" y="18.92" width="17.72" height="0.59"/><rect class="cls-24" x="65.86" y="20.29" width="17.72" height="0.59"/><text class="cls-23" transform="translate(61.37 29.34)">How to Claim</text><rect class="cls-24" x="61.1" y="30.94" width="24.37" height="0.59"/><rect class="cls-24" x="61.08" y="33" width="22.61" height="0.59"/><rect class="cls-24" x="65.86" y="21.66" width="17.72" height="0.59"/><rect class="cls-24" x="65.86" y="23.02" width="17.72" height="0.59"/><circle cx="64.72" cy="19.15" r="0.27"/><circle cx="64.75" cy="20.57" r="0.27"/><circle cx="64.75" cy="21.94" r="0.27"/><circle cx="64.75" cy="23.3" r="0.27"/><rect class="cls-24" x="61.07" y="34.74" width="17.02" height="0.59"/></g></g></g></g></g></svg>