<svg xmlns="http://www.w3.org/2000/svg" xmlns:xlink="http://www.w3.org/1999/xlink" viewBox="0 0 49.67 39.28"><defs><style>.cls-1{fill:#d59532;}.cls-2{fill:#faaf3b;}.cls-3{font-size:72.76px;}.cls-18,.cls-3,.cls-6{fill:#fff;}.cls-18,.cls-3{font-family:Arial-BoldMT, Arial;font-weight:700;}.cls-4{fill:#298f7c;}.cls-5{fill:#31ab94;}.cls-7{opacity:0.86;}.cls-8{fill:url(#linear-gradient);}.cls-9{fill:none;stroke:#1b1464;stroke-miterlimit:10;stroke-width:2px;opacity:0.22;}.cls-10{fill:#fda48b;}.cls-11{fill:#2b303d;}.cls-12{fill:#40485b;}.cls-13{fill:#7d78ca;}.cls-14{fill:#f6f8ed;}.cls-15{fill:#febca9;}.cls-16{fill:#4870ae;}.cls-17{fill:#ff9500;}.cls-18{font-size:2.14px;}.cls-19{fill:#ffce35;}</style><linearGradient id="linear-gradient" x1="18.42" y1="36.48" x2="40.35" y2="8.69" gradientUnits="userSpaceOnUse"><stop offset="0" stop-color="#b7d5f4"/><stop offset="0.12" stop-color="#c0d6f6"/><stop offset="0.32" stop-color="#dadafa"/><stop offset="0.5" stop-color="#f8deff"/><stop offset="0.98" stop-color="#fff"/></linearGradient><symbol id="raised-tick" data-name="raised-tick" viewBox="0 0 40.24 38.15"><path class="cls-4" d="M40.23,17.69c.7,23.58-36.76,23.58-36.76,0S40.93-5.9,40.23,17.69Z"/><path class="cls-5" d="M36.76,20.46C37.46,44.05,0,44.05,0,20.46S36.76-3.82,36.76,20.46Z"/><polygon class="cls-6" points="5.51 21.98 13.24 31.2 31.27 13.89 28.34 11.13 13.38 24.96 8.7 19.44 5.51 21.98"/></symbol><symbol id="hex-orange-pound" data-name="hex-orange-pound" viewBox="0 0 132.05 112.17"><polygon class="cls-1" points="101.86 106.56 91.86 112.14 30.27 5.92 40.13 0 101.18 0.79 132.05 54.07 101.86 106.56"/><polygon class="cls-2" points="91.92 112.17 30.87 111.39 0 58.11 30.18 5.62 91.24 6.4 122.11 59.68 91.92 112.17"/><use width="40.24" height="38.15" transform="translate(82.52 9.36)" xlink:href="#raised-tick"/><text class="cls-3" transform="translate(42.6 82.92)">£</text></symbol></defs><g id="Layer_2" data-name="Layer 2"><g id="MainLayer"><g id="stories" class="cls-7"><g id="workgroup"><g id="work4"><circle class="cls-8" cx="30.97" cy="20.58" r="17.7"/><circle class="cls-9" cx="30.97" cy="20.58" r="17.7"/><g id="attendance5"><rect class="cls-10" x="37.86" y="7.83" width="3.58" height="2.51" rx="1.26" transform="translate(2.38 25.38) rotate(-36.52)"/><path class="cls-11" d="M37.33,21.16H28.75a1.35,1.35,0,0,1-1.36-1.59l2.53-18A1.88,1.88,0,0,1,31.73,0h8.58a1.35,1.35,0,0,1,1.36,1.58l-2.53,18A1.88,1.88,0,0,1,37.33,21.16Z"/><path class="cls-10" d="M33.87,27.55c4.51-.53,5.44-5.14,7.22-10.24L27.8,16.43,25.05,26.5l7.72,2.41Z"/><path class="cls-10" d="M29.85,21.48c1.76.27,1,1.91,4.22,1.12,1.86-.46,5.86-4.67,7-5.29L27.8,16.43l-2.47,9.13.36.1C26.73,23.57,28.81,23.57,29.85,21.48Z"/><path class="cls-12" d="M36.58,21.16H28a1.35,1.35,0,0,1-1.37-1.59l2.53-18A1.89,1.89,0,0,1,31,0h8.58a1.34,1.34,0,0,1,1.36,1.58l-2.53,18A1.88,1.88,0,0,1,36.58,21.16Z"/><path class="cls-13" d="M20.63,34.5l3.94-8.79a23.85,23.85,0,0,1,10.37,3.54L31.75,38A17.41,17.41,0,0,1,20.63,34.5Z"/><polygon class="cls-14" points="37.94 17.31 27.67 17.31 29.77 2.36 40.04 2.36 37.94 17.31"/><rect class="cls-10" x="37.59" y="13.44" width="3.41" height="2.38" rx="1.19" transform="translate(-2.59 16.56) rotate(-23.06)"/><rect class="cls-10" x="37.95" y="10.94" width="2.98" height="2.09" rx="1.05" transform="translate(-1.77 10.97) rotate(-15.5)"/><rect class="cls-10" x="38.1" y="16.11" width="2.98" height="2.09" rx="1.05" transform="translate(-3.14 11.2) rotate(-15.5)"/><rect class="cls-15" x="38.05" y="11.48" width="1.19" height="1.48" rx="0.59" transform="translate(-1.86 10.77) rotate(-15.5)"/><rect class="cls-15" x="37.77" y="14.22" width="1.35" height="1.61" rx="0.68" transform="matrix(0.91, -0.41, 0.41, 0.91, -2.78, 17.15)"/><rect class="cls-15" x="38.35" y="16.62" width="1" height="1.61" rx="0.5" transform="translate(-3.68 15.3) rotate(-21.29)"/><polygon class="cls-16" points="36.58 1.32 33.75 1.32 33.81 0.86 36.64 0.86 36.58 1.32"/><ellipse class="cls-16" cx="32.58" cy="19.04" rx="0.99" ry="0.86" transform="translate(-4.23 27.33) rotate(-42.99)"/><ellipse class="cls-17" cx="31.34" cy="3.96" rx="1.39" ry="1.21" transform="translate(5.71 22.44) rotate(-42.99)"/><text class="cls-18" transform="matrix(0.99, 0, -0.14, 0.99, 30.65, 4.65)">£</text><path d="M28.83,13.28,29,11.92h.44a1.11,1.11,0,0,1,.33,0,.27.27,0,0,1,.17.13.36.36,0,0,1,0,.26.4.4,0,0,1-.07.21.45.45,0,0,1-.29.2l-.28,0h-.18l-.07.51Zm.43-1.12-.05.38h.15l.22,0a.22.22,0,0,0,.09-.07.14.14,0,0,0,0-.1.15.15,0,0,0,0-.13.14.14,0,0,0-.1-.06h-.33Z"/><path d="M31.18,13.28h-.3L30.81,13h-.55l-.15.31h-.29l.72-1.36h.29Zm-.43-.53-.12-.51-.25.51Z"/><path d="M31.51,13.28l.08-.57-.39-.79h.32l.25.54.38-.54h.32l-.61.79-.08.57Z"/><path d="M32.41,13.28l.19-1.36H33l.12.93.37-.93h.41l-.19,1.36h-.25l.15-1.07-.42,1.07h-.27l-.11-1.07-.15,1.07Z"/><path d="M34,13.28l.19-1.36h1l0,.24h-.73l0,.3h.68l0,.22h-.68l-.05.37h.76l0,.23Z"/><path d="M35.26,13.28l.19-1.36h.27l.42.91.13-.91h.26l-.19,1.36h-.28l-.42-.88-.13.88Z"/><path d="M36.93,13.28l.16-1.12h-.4l0-.24H37.8l0,.24h-.4l-.15,1.12Z"/><path d="M28.14,15.56l.19-1.36h.58a.76.76,0,0,1,.31,0,.2.2,0,0,1,.14.13.36.36,0,0,1,0,.21.42.42,0,0,1-.12.25A.52.52,0,0,1,29,15a.47.47,0,0,1,.13.11,1.58,1.58,0,0,1,.13.22l.12.27H29l-.16-.3a1.66,1.66,0,0,0-.12-.2.2.2,0,0,0-.07-.06H28.5l-.08.57Zm.39-.79H29a.16.16,0,0,0,.08-.06.19.19,0,0,0,.05-.1s0-.09,0-.11a.17.17,0,0,0-.1-.06h-.41Z"/><path d="M29.51,15.56l.19-1.36h1l0,.23h-.74l0,.3h.68l0,.23h-.68l-.05.37h.76l0,.23Z"/><path d="M31.71,15.06l.26.08a.72.72,0,0,1-.25.33.68.68,0,0,1-.38.11.5.5,0,0,1-.42-.19.66.66,0,0,1-.1-.5.91.91,0,0,1,.25-.53.71.71,0,0,1,.49-.18.52.52,0,0,1,.38.14.47.47,0,0,1,.1.25l-.28.07a.24.24,0,0,0-.07-.17.28.28,0,0,0-.18-.06.36.36,0,0,0-.26.11.6.6,0,0,0-.14.35.52.52,0,0,0,0,.37.25.25,0,0,0,.22.11.35.35,0,0,0,.2-.07A.44.44,0,0,0,31.71,15.06Z"/><path d="M32.14,15.56l.19-1.36h1l0,.23h-.73l0,.3h.69l0,.23H32.5l0,.37h.76l0,.23Z"/><path d="M33.4,15.56l.19-1.36h.28l-.2,1.36Z"/><path d="M34.28,15.56,34,14.2h.29l.21,1,.47-1h.29l-.68,1.36Z"/><path d="M35.2,15.56l.19-1.36h1l0,.23h-.73l0,.3h.68l0,.23h-.68l-.05.37h.75l0,.23Z"/><path d="M36.65,14.2h.5a.84.84,0,0,1,.26,0,.32.32,0,0,1,.18.12.41.41,0,0,1,.1.22.85.85,0,0,1,0,.32.82.82,0,0,1-.08.29.76.76,0,0,1-.18.24.52.52,0,0,1-.21.11.78.78,0,0,1-.24,0h-.52Zm.24.23-.12.9H37l.17,0a.33.33,0,0,0,.12-.05.48.48,0,0,0,.09-.13.76.76,0,0,0,.06-.25.68.68,0,0,0,0-.24.23.23,0,0,0-.06-.13.19.19,0,0,0-.12-.07h-.35Z"/><ellipse class="cls-5" cx="34.11" cy="7.87" rx="2.49" ry="2.17" transform="translate(3.79 25.37) rotate(-42.99)"/><path class="cls-6" d="M33.44,9l-.7-.89a.2.2,0,0,1,0-.27.18.18,0,0,1,.26,0l.45.56,1.9-1.7a.19.19,0,0,1,.26.28Z"/><path class="cls-10" d="M25.57,25.47l.22-2.26c-1.81-3.67-2.25-5.6-2-6.67,2-3.61,3.14-5,3.64-4.58,1.44,1.7,1.1,3.58-.45,5.59a11.38,11.38,0,0,1,3,4.23"/><path class="cls-15" d="M25.48,13.6a.41.41,0,0,0,.32.18,2.7,2.7,0,0,0,1.38-1.84c0-.15-.11-.23-.26-.22A5.33,5.33,0,0,0,25.48,13.6Z"/></g><use width="132.05" height="112.18" transform="translate(0 13.45) scale(0.15)" xlink:href="#hex-orange-pound"/><rect class="cls-19" x="24.76" y="25.58" width="11.85" height="1.39" rx="0.69" transform="translate(15.77 -11.27) rotate(27.77)"/></g></g></g></g></g></svg>