<svg xmlns="http://www.w3.org/2000/svg" xmlns:xlink="http://www.w3.org/1999/xlink" viewBox="0 0 172.52 152.6"><defs><style>.cls-1,.cls-38,.cls-41,.cls-44,.cls-45{fill:none;}.cls-2{isolation:isolate;}.cls-3{clip-path:url(#clip-path);}.cls-4{fill:#8acfb1;opacity:0.79;}.cls-5{fill:#dbdbdb;}.cls-6{fill:#d4f3ff;}.cls-7{fill:#c99694;}.cls-8{fill:#595e66;}.cls-9{fill:#696f79;}.cls-10{fill:#9eabc6;}.cls-11{fill:#e9eaee;}.cls-12{fill:#a77d7e;}.cls-13{fill:#e5e5e5;}.cls-14{fill:#91d4d5;}.cls-15{fill:#85c2c3;}.cls-16{fill:url(#linear-gradient);}.cls-17{fill:url(#linear-gradient-2);}.cls-18{fill:#9e7677;}.cls-19,.cls-20,.cls-21{fill:#8eba42;}.cls-20{mix-blend-mode:multiply;}.cls-21{mix-blend-mode:screen;}.cls-22{fill:url(#linear-gradient-3);}.cls-23{fill:url(#linear-gradient-4);}.cls-24{fill:url(#linear-gradient-5);}.cls-25{fill:#373838;}.cls-26{fill:#ffe436;}.cls-27{fill:#dea876;}.cls-28{fill:#de8b76;}.cls-29{fill:url(#linear-gradient-6);}.cls-30{fill:#c6645a;}.cls-31{fill:#ff9c50;}.cls-32{fill:#40485b;}.cls-33{fill:#2b303d;}.cls-34{fill:#858585;}.cls-35{fill:#5e5e5e;}.cls-36{fill:#fff;}.cls-37{fill:#d68343;}.cls-38{stroke:#d97e34;}.cls-38,.cls-41,.cls-44,.cls-45{stroke-miterlimit:10;}.cls-39{fill:#a15149;}.cls-40{fill:#412a74;}.cls-41{stroke:#2e3192;}.cls-41,.cls-44{stroke-linecap:round;}.cls-42{fill:url(#linear-gradient-7);}.cls-43{fill:#3c3378;}.cls-44{stroke:#3c3378;stroke-width:4px;}.cls-45{stroke:#8cc63f;stroke-width:2px;}</style><clipPath id="clip-path" transform="translate(6.22 14.52)"><circle class="cls-1" cx="63.72" cy="63.72" r="62.72"/></clipPath><linearGradient id="linear-gradient" x1="70.73" y1="40.21" x2="72.19" y2="40.21" gradientUnits="userSpaceOnUse"><stop offset="0" stop-color="#c5c6c8"/><stop offset="1" stop-color="#e9eaee"/></linearGradient><linearGradient id="linear-gradient-2" x1="61.67" y1="40.53" x2="63.31" y2="40.53" xlink:href="#linear-gradient"/><linearGradient id="linear-gradient-3" x1="16.97" y1="64.73" x2="18.18" y2="64.73" xlink:href="#linear-gradient"/><linearGradient id="linear-gradient-4" x1="33.83" y1="64.36" x2="35.03" y2="64.36" xlink:href="#linear-gradient"/><linearGradient id="linear-gradient-5" x1="15.08" y1="59.76" x2="36.62" y2="59.76" xlink:href="#linear-gradient"/><linearGradient id="linear-gradient-6" x1="51.71" y1="40.88" x2="53.57" y2="40.88" xlink:href="#linear-gradient"/><linearGradient id="linear-gradient-7" x1="5293.5" y1="45.83" x2="5293.5" y2="31.12" gradientTransform="translate(-5183.56)" gradientUnits="userSpaceOnUse"><stop offset="0" stop-color="#a15149"/><stop offset="1" stop-color="#3c3378"/></linearGradient></defs><g class="cls-2"><g id="Layer_2" data-name="Layer 2"><g id="attendancegroup"><g id="attendance5"><g class="cls-3"><circle class="cls-4" cx="69.94" cy="78.24" r="62.72"/><g id="attendance6"><polygon class="cls-5" points="5.41 75.78 64 68.4 51.45 59.37 75.33 57.02 91.68 64.31 130.33 58.01 172.52 68.86 88.96 84.38 0 102.38 5.41 75.78"/><rect class="cls-6" x="9.66" width="139.34" height="50.79"/><polygon class="cls-7" points="5.46 33.63 5.02 62.1 80.55 57.09 80.05 42.48 5.46 33.63"/><polygon class="cls-8" points="26.27 28.85 3.83 34.32 84.33 43.35 66.19 35.85 26.27 28.85"/><polygon class="cls-9" points="48.87 46.64 44.06 50.9 57.2 49.45 57.66 45.35 48.87 46.64"/><path class="cls-10" d="M72.44,45.36c0,.71-2,.71-2,0S72.46,44.64,72.44,45.36Z" transform="translate(6.22 14.52)"/><path class="cls-11" d="M72.42,45.15c0,.71-2,.71-2,0S72.44,44.44,72.42,45.15Z" transform="translate(6.22 14.52)"/><polygon class="cls-12" points="39.93 36.81 39.88 45.45 31.12 45.05 31.36 36.46 36.46 34.16 39.93 36.81"/><polygon class="cls-13" points="32 37.56 35.3 37.78 35.23 42.52 31.83 42.31 32 37.56"/><polygon class="cls-14" points="32.29 38.02 35 38.19 34.94 42.08 32.15 41.91 32.29 38.02"/><polygon class="cls-15" points="32.91 38.06 34.95 40.99 34.94 42.08 33.81 42.01 32.23 39.57 32.23 39.62 32.29 38.02 32.91 38.06"/><polygon class="cls-13" points="35.9 37.81 39.2 38.03 39.13 42.77 35.73 42.56 35.9 37.81"/><polygon class="cls-14" points="36.19 38.27 38.9 38.44 38.84 42.33 36.05 42.15 36.19 38.27"/><polygon class="cls-15" points="36.81 38.31 38.85 41.24 38.84 42.33 37.72 42.26 36.13 39.81 36.13 39.87 36.19 38.27 36.81 38.31"/><polygon class="cls-13" points="13.31 36.84 12.96 43.67 17.24 43.92 17.55 37.19 13.31 36.84"/><polygon class="cls-14" points="13.41 43 13.69 37.52 17.1 37.8 16.79 43.19 13.41 43"/><polygon class="cls-15" points="13.69 37.52 14.61 37.63 16.84 42.09 16.79 43.19 15.17 43.1 13.59 39.19 13.69 37.52"/><polygon class="cls-13" points="18 37.15 17.66 43.98 21.93 44.22 22.24 37.5 18 37.15"/><polygon class="cls-14" points="18.11 43.31 18.39 37.82 21.79 38.1 21.48 43.49 18.11 43.31"/><polygon class="cls-15" points="18.39 37.82 19.31 37.93 21.53 42.4 21.48 43.49 19.86 43.41 18.28 39.49 18.39 37.82"/><polygon class="cls-13" points="46.88 40.28 46.93 44.55 49.61 44.77 49.54 40.56 46.88 40.28"/><polygon class="cls-14" points="47.19 44.14 47.15 40.7 49.28 40.93 49.3 44.3 47.19 44.14"/><polygon class="cls-15" points="47.15 40.7 47.72 40.79 49.29 43.62 49.3 44.3 48.29 44.23 47.15 41.75 47.15 40.7"/><polygon class="cls-13" points="59.02 41.41 59.08 45.68 61.75 45.9 61.68 41.69 59.02 41.41"/><polygon class="cls-14" points="59.33 45.27 59.29 41.83 61.42 42.06 61.44 45.44 59.33 45.27"/><polygon class="cls-15" points="59.29 41.83 59.87 41.92 61.43 44.75 61.44 45.44 60.43 45.36 59.29 42.88 59.29 41.83"/><polygon class="cls-13" points="62.05 41.69 62.1 45.97 64.78 46.19 64.7 41.98 62.05 41.69"/><polygon class="cls-14" points="62.36 45.55 62.31 42.12 64.45 42.35 64.47 45.72 62.36 45.55"/><polygon class="cls-15" points="62.31 42.12 62.89 42.2 64.45 45.04 64.47 45.72 63.45 45.64 62.31 43.17 62.31 42.12"/><polygon class="cls-13" points="69.09 42.31 69.14 46.58 71.81 46.8 71.74 42.59 69.09 42.31"/><polygon class="cls-14" points="69.39 46.17 69.35 42.73 71.48 42.96 71.5 46.33 69.39 46.17"/><polygon class="cls-15" points="69.35 42.73 69.93 42.81 71.49 45.65 71.5 46.33 70.49 46.26 69.35 43.78 69.35 42.73"/><polygon class="cls-13" points="72.11 42.59 72.16 46.87 74.84 47.09 74.77 42.87 72.11 42.59"/><polygon class="cls-14" points="72.42 46.45 72.38 43.02 74.51 43.25 74.53 46.62 72.42 46.45"/><polygon class="cls-15" points="72.38 43.02 72.95 43.1 74.52 45.94 74.53 46.62 73.52 46.54 72.38 44.07 72.38 43.02"/><path class="cls-16" d="M72.19,45.07c0,.56-1.39.62-1.46,0V34.9h1.46Z" transform="translate(6.22 14.52)"/><path class="cls-10" d="M63.6,46.33c0,.8-2.24.8-2.21,0S63.63,45.53,63.6,46.33Z" transform="translate(6.22 14.52)"/><path class="cls-11" d="M63.58,46.1c0,.8-2.24.8-2.21,0S63.6,45.3,63.58,46.1Z" transform="translate(6.22 14.52)"/><path class="cls-17" d="M63.31,46c0,.62-1.56.7-1.64,0V34.56h1.64Z" transform="translate(6.22 14.52)"/><polygon class="cls-18" points="31.12 45.05 29.58 44.96 29.93 36.94 31.36 37.01 31.12 45.05"/><polygon class="cls-9" points="36.56 33.41 28.07 37.44 30.44 37.53 36.54 34.69 41.75 38.63 43.84 38.74 36.56 33.41"/><path class="cls-19" d="M25.78,51.35a1.39,1.39,0,0,0,.9-.54c.11.25.48.66.72.32.15-.54.3.19.61,0,.57-1.24.58,0,1.5-.78.08-.61.78,0,1.2-.42.33-.82,1.09-1.51.6-2.49,1,.4.85-1,.38-1.46.27-.25.94-.9.16-1.52.32,0,.64,0,.64-.24s-.4-.5-.75-.57c.58-.38.4-.91-.19-1,.31-.15.3-.62-.07-.62a.83.83,0,0,0-1-1.24c.47-1.05-1,0-1.21-.66-1.87,0-.74-.31-2.11-.92a.62.62,0,0,0-.74.56c-.69-.33-1.54-.17-1.63.61a.55.55,0,0,0-.91.56c-.54,0-1.88.67-1.17,1.34a.81.81,0,0,0-.67,1.4.78.78,0,0,0-.2,1.29c-.94-.12-.57.55,0,.62-.23.16-.59.53-.44.83,1.16.51-.12.22.34,1.22.64.47.24.51.38,1.21a.67.67,0,0,0,.71.47.39.39,0,0,0,.27.66C24.11,49.67,24.68,51.2,25.78,51.35Z" transform="translate(6.22 14.52)"/><path class="cls-20" d="M25.78,51.35a1.39,1.39,0,0,0,.9-.54c.11.25.48.66.72.32.15-.54.3.19.61,0,.57-1.24.58,0,1.5-.78.08-.61.78,0,1.2-.42.33-.82,1.09-1.51.6-2.49,1,.4.85-1,.38-1.46.27-.25.94-.9.16-1.52.32,0,.64,0,.64-.24s-.4-.5-.75-.57c.58-.38.4-.91-.19-1,.31-.15.3-.62-.07-.62a.83.83,0,0,0-1-1.24c.47-1.05-1,0-1.21-.66-1.87,0-.74-.31-2.11-.92a.62.62,0,0,0-.74.56c-.69-.33-1.54-.17-1.63.61a.55.55,0,0,0-.91.56c-.54,0-1.88.67-1.17,1.34a.81.81,0,0,0-.67,1.4.78.78,0,0,0-.2,1.29c-.94-.12-.57.55,0,.62-.23.16-.59.53-.44.83,1.16.51-.12.22.34,1.22.64.47.24.51.38,1.21a.67.67,0,0,0,.71.47.39.39,0,0,0,.27.66C24.11,49.67,24.68,51.2,25.78,51.35Zm3.67-3c-.55-.71-1.55.41-1.72-.92-.23.75-.94.12-.85-.42-.06-.34-1.52.08-1.19-1.06-1.64,0-.24-1.12.27-1.44-.95,0-1.19-1-.13-.88-.44-.26-1.11-.69-.91-1.27.24-.41.76-.09,1.06.09-.13-.27-.45-.69-.27-1s.3-.11.45.06c0-.31.07-.8.44-.86.62,0,.59.7,1.13.18.19,0,.24.16.25.36.25-.37,1.12-.55,1.2,0-.33.94.09.08.61.51,2-1.06.59.58,1.59.46-.46,1-1,.51.16.89.13.29-.37.32-.55.32a.38.38,0,0,1-.33.69.75.75,0,0,1,0,1c1,0,.86,1.18.06,1.08.57.49-.1,1-.58.42C29.93,47.08,30.61,48.79,29.45,48.36Z" transform="translate(6.22 14.52)"/><path class="cls-20" d="M25.78,51.35c1.74-1,.67.24,1.62-.22.15-.46,1,.66.85-.66.5.29,1.34.28,1.35-.43A1,1,0,0,0,30.71,50a.88.88,0,0,0,.25-.92.5.5,0,0,1-.47.4c-.65,0-.67-.69-1.1-.08-.9-.11-1,.84-1.79-.37.19.91-1.06,1.24-1.21.27a.66.66,0,0,1-1,.09c-.68-.55-.08-1.07-1-.88a.38.38,0,0,1-.17-.58c-.58.39-1.08-.25-.53-.66-1,.19-1.14-1.12-.19-1.33a1.29,1.29,0,0,1-.77-.25c-.45-.41.12-.86.58-.8-.46-.22-.14-.67.27-.67-.43-.16-1.05-.46-.95-1s.86-.49,1.32-.29c-1.1-.78-.11-1.38.59-.44-.79-1.3.13-1.78.82-1.49-.24-.32-.29-1,.28-1,1,.75.68-.54,1.54.26-.12-.34-.14-.89.34-.82-.82-.61-1,.65-1.74.24-1.17,0-.54.72-1.73.7-.26.79-1,.74-1.57,1.38,0,.61.3.51-.43.74-.43.27-.33.91,0,1.25a.77.77,0,0,0-.27,1.21c-.55.12-.82.43.08.7-.6.33-.63,1.21.22,1a.75.75,0,0,0,.21,1.4.76.76,0,0,0,.56,1.28.39.39,0,1,0,.61.48.74.74,0,0,0,.91.37C24.67,50.74,25.12,51.33,25.78,51.35Z" transform="translate(6.22 14.52)"/><path class="cls-21" d="M29.78,43c.42,0,.87-.76.22-.82C29.57,42.19,29,43.1,29.78,43Z" transform="translate(6.22 14.52)"/><path class="cls-21" d="M30.17,44c.87-.13-.1-.87-.58-.51C29.4,43.78,30,44,30.17,44Z" transform="translate(6.22 14.52)"/><path class="cls-21" d="M28.2,42.72c.28-.22,0-1.23-.36-.77C27.69,42.21,27.81,42.84,28.2,42.72Z" transform="translate(6.22 14.52)"/><path class="cls-21" d="M28.79,43.05c.06-.09-.05-.26-.15-.17S28.72,43.14,28.79,43.05Z" transform="translate(6.22 14.52)"/><path class="cls-21" d="M27.59,43.94c-.05-.37-.72-.72-1-.35C26.63,44,27.41,44.3,27.59,43.94Z" transform="translate(6.22 14.52)"/><path class="cls-21" d="M26.94,42.9c.1-.18-.23-.48-.4-.39S26.75,43,26.94,42.9Z" transform="translate(6.22 14.52)"/><path class="cls-21" d="M26.93,41.73a.43.43,0,0,0-.25-.43C26.31,41.32,26.73,42,26.93,41.73Z" transform="translate(6.22 14.52)"/><path class="cls-21" d="M29.55,44.81c.25-.14-.16-.8-.37-.62S29.34,44.85,29.55,44.81Z" transform="translate(6.22 14.52)"/><path class="cls-21" d="M28.53,46.39c.19-.08,0-.48-.17-.37S28.36,46.42,28.53,46.39Z" transform="translate(6.22 14.52)"/><path class="cls-21" d="M29.42,47.61c.34-.14-.11-.89-.39-.63S29.16,47.61,29.42,47.61Z" transform="translate(6.22 14.52)"/><path class="cls-21" d="M28.44,47.17c.15-.11,0-.42-.16-.32S28.26,47.28,28.44,47.17Z" transform="translate(6.22 14.52)"/><path class="cls-19" d="M15.71,45.75a1.32,1.32,0,0,0-.84-.62c.18-.2.42-.7,0-.79-.56.08.06-.35-.2-.58-1.37,0-.25-.52-1.31-1.07-.59.17-.26-.74-.85-.95-.88,0-1.81-.4-2.52.43,0-1.1-1.23-.4-1.49.21-.34-.14-1.21-.51-1.47.46-.07-.33-.22-.61-.47-.5s-.31.56-.23.91c-.58-.38-1,0-.84.56-.26-.23-.69,0-.54.31a.83.83,0,0,0-.75,1.42c-1.15,0,.39.94-.14,1.37.71,1.73,0,.8,0,2.3a.62.62,0,0,0,.8.47c0,.75.45,1.48,1.2,1.26a.54.54,0,0,0,.87.61c.22.5,1.35,1.48,1.69.56a.82.82,0,0,0,1.55.08.79.79,0,0,0,1.26-.32c.26.91.73.3.57-.26.24.15.72.33.94.09,0-1.28.25,0,1-.8.18-.77.37-.42,1-.82a.67.67,0,0,0,.16-.83.4.4,0,0,0,.5-.51C14.82,47.94,16,46.82,15.71,45.75Z" transform="translate(6.22 14.52)"/><path class="cls-20" d="M15.71,45.75a1.32,1.32,0,0,0-.84-.62c.18-.2.42-.7,0-.79-.56.08.06-.35-.2-.58-1.37,0-.25-.52-1.31-1.07-.59.17-.26-.74-.85-.95-.88,0-1.81-.4-2.52.43,0-1.1-1.23-.4-1.49.21-.34-.14-1.21-.51-1.47.46-.07-.33-.22-.61-.47-.5s-.31.56-.23.91c-.58-.38-1,0-.84.56-.26-.23-.69,0-.54.31a.83.83,0,0,0-.75,1.42c-1.15,0,.39.94-.14,1.37.71,1.73,0,.8,0,2.3a.62.62,0,0,0,.8.47c0,.75.45,1.48,1.2,1.26a.54.54,0,0,0,.87.61c.22.5,1.35,1.48,1.69.56a.82.82,0,0,0,1.55.08.79.79,0,0,0,1.26-.32c.26.91.73.3.57-.26.24.15.72.33.94.09,0-1.28.25,0,1-.8.18-.77.37-.42,1-.82a.67.67,0,0,0,.16-.83.4.4,0,0,0,.5-.51C14.82,47.94,16,46.82,15.71,45.75Zm-4.18-2.22c-.44.78,1,1.27-.18,1.95.78-.08.48.81,0,1-.28.18.67,1.36-.51,1.5.65,1.5-.94.66-1.44.31.35.89-.45,1.49-.75.47-.07.51-.21,1.29-.81,1.33s-.39-.66-.34-1c-.19.23-.45.69-.81.64s-.22-.23-.13-.44c-.28.13-.76.25-1-.07-.21-.58.42-.81-.27-1.11-.08-.17,0-.28.23-.36-.43-.09-.94-.82-.45-1.12,1-.06,0-.12.23-.76-1.75-1.44.31-.77-.2-1.64,1.08,0,.88.76.77-.5.21-.23.43.21.51.39a.38.38,0,0,1,.76,0A.74.74,0,0,1,8,43.72c-.41-.93.75-1.26,1-.48.23-.72,1-.3.61.37C10.16,43.59,11.47,42.29,11.53,43.53Z" transform="translate(6.22 14.52)"/><path class="cls-20" d="M15.71,45.75c-1.55-1.24,0-.71-.83-1.41-.48,0,.23-1.14-.93-.52.07-.57-.28-1.34-.93-1.08a1.06,1.06,0,0,0-.5-1,.87.87,0,0,0-.94.14.5.5,0,0,1,.55.27c.23.6-.38.89.36,1,.24.88,1.17.63.35,1.8.77-.53,1.56.49.72,1a.66.66,0,0,1,.47.88c-.24.84-1,.5-.42,1.27a.37.37,0,0,1-.46.38c.58.38.19,1.09-.41.74.56.82-.58,1.49-1.14.7a1.42,1.42,0,0,1,.07.81c-.21.57-.85.22-1-.23,0,.51-.56.4-.72,0,0,.46,0,1.15-.56,1.26s-.79-.59-.79-1.09c-.28,1.32-1.22.63-.63-.38-.89,1.24-1.69.57-1.69-.18-.2.36-.83.67-1,.13.3-1.21-.76-.41-.36-1.52-.27.25-.76.48-.89,0-.25,1,1,.71.9,1.51.48,1.07.87.21,1.32,1.32.83-.07,1.07.62,1.88.91.56-.25.35-.48.85.1.42.29,1,0,1.17-.44A.78.78,0,0,0,11.39,52c.32.46.71.58.61-.35.54.43,1.36.12.88-.61a.76.76,0,0,0,1.21-.75c.57.31,1.29-.48,1-1a.39.39,0,1,0,.2-.76.73.73,0,0,0,0-1A1.94,1.94,0,0,0,15.71,45.75Z" transform="translate(6.22 14.52)"/><path class="cls-21" d="M6.44,45.34c-.21-.38-1-.51-.84.12C5.81,45.83,6.85,46,6.44,45.34Z" transform="translate(6.22 14.52)"/><path class="cls-21" d="M7.26,44.57c-.47-.75-.77.43-.25.73C7.33,45.36,7.34,44.77,7.26,44.57Z" transform="translate(6.22 14.52)"/><path class="cls-21" d="M6.82,46.89c-.31-.18-1.14.46-.56.62C6.55,47.56,7.09,47.2,6.82,46.89Z" transform="translate(6.22 14.52)"/><path class="cls-21" d="M6.9,46.21c-.1,0-.22.15-.1.21S7,46.25,6.9,46.21Z" transform="translate(6.22 14.52)"/><path class="cls-21" d="M8.19,47c-.33.19-.39.94.05,1C8.57,47.85,8.58,47,8.19,47Z" transform="translate(6.22 14.52)"/><path class="cls-21" d="M7.48,48c-.2,0-.35.4-.2.52S7.68,48.1,7.48,48Z" transform="translate(6.22 14.52)"/><path class="cls-21" d="M6.4,48.44a.47.47,0,0,0-.29.4C6.27,49.17,6.76,48.51,6.4,48.44Z" transform="translate(6.22 14.52)"/><path class="cls-21" d="M8.22,44.83c-.22-.18-.67.46-.42.58S8.34,45,8.22,44.83Z" transform="translate(6.22 14.52)"/><path class="cls-21" d="M10.08,45.15c-.15-.15-.46.16-.28.3S10.17,45.3,10.08,45.15Z" transform="translate(6.22 14.52)"/><path class="cls-21" d="M10.85,43.86c-.26-.27-.77.45-.43.6S11,44.1,10.85,43.86Z" transform="translate(6.22 14.52)"/><path class="cls-21" d="M10.83,44.93c-.16-.09-.4.13-.24.27S11,45.05,10.83,44.93Z" transform="translate(6.22 14.52)"/><polygon class="cls-9" points="7.97 54.5 7.92 53.92 5.71 53.61 3.67 53.96 3.62 54.57 5.66 54.33 7.97 54.5"/><polygon class="cls-12" points="4.91 54.29 4.73 65.37 7.33 65.27 7.73 54.37 4.91 54.29"/><polygon class="cls-18" points="4.91 54.29 4.73 65.37 3.94 64.81 4.02 54.5 4.91 54.29"/><polygon class="cls-7" points="11.92 69.95 5.59 64.79 5.7 58.99 11.92 63.37 11.92 69.95"/><path class="cls-19" d="M17.82,51.58a1.39,1.39,0,0,0,.9-.54c.11.25.48.66.72.32.15-.54.3.19.61,0,.57-1.25.58,0,1.5-.79.08-.61.78,0,1.2-.41.33-.82,1.09-1.51.6-2.49,1,.4.85-1,.38-1.46.27-.25.94-.9.16-1.53.32.06.64,0,.64-.24s-.4-.49-.75-.56c.58-.38.4-.91-.19-1,.31-.15.3-.61-.07-.61a.83.83,0,0,0-1-1.24c.47-1.06-1,0-1.21-.67-1.87,0-.74-.3-2.11-.91a.62.62,0,0,0-.74.56c-.69-.33-1.54-.17-1.63.61a.55.55,0,0,0-.91.56c-.54,0-1.88.67-1.17,1.34a.81.81,0,0,0-.67,1.4.77.77,0,0,0-.2,1.28c-.94-.11-.57.56,0,.63-.23.16-.59.53-.44.83,1.16.51-.12.22.34,1.22.64.47.24.51.38,1.2a.66.66,0,0,0,.71.47.4.4,0,0,0,.27.67C16.15,49.9,16.72,51.42,17.82,51.58Z" transform="translate(6.22 14.52)"/><path class="cls-20" d="M17.82,51.58a1.39,1.39,0,0,0,.9-.54c.11.25.48.66.72.32.15-.54.3.19.61,0,.57-1.25.58,0,1.5-.79.08-.61.78,0,1.2-.41.33-.82,1.09-1.51.6-2.49,1,.4.85-1,.38-1.46.27-.25.94-.9.16-1.53.32.06.64,0,.64-.24s-.4-.49-.75-.56c.58-.38.4-.91-.19-1,.31-.15.3-.61-.07-.61a.83.83,0,0,0-1-1.24c.47-1.06-1,0-1.21-.67-1.87,0-.74-.3-2.11-.91a.62.62,0,0,0-.74.56c-.69-.33-1.54-.17-1.63.61a.55.55,0,0,0-.91.56c-.54,0-1.88.67-1.17,1.34a.81.81,0,0,0-.67,1.4.77.77,0,0,0-.2,1.28c-.94-.11-.57.56,0,.63-.23.16-.59.53-.44.83,1.16.51-.12.22.34,1.22.64.47.24.51.38,1.2a.66.66,0,0,0,.71.47.4.4,0,0,0,.27.67C16.15,49.9,16.72,51.42,17.82,51.58Zm3.67-3c-.55-.71-1.55.41-1.72-.92-.23.74-.94.12-.85-.42-.06-.34-1.52.08-1.19-1.06-1.64,0-.24-1.12.27-1.44-.95,0-1.19-1-.13-.88-.44-.26-1.11-.69-.91-1.27.24-.42.76-.09,1.06.08-.13-.26-.45-.68-.27-1s.3-.12.45.06c0-.31.07-.8.44-.87.62,0,.59.71,1.13.19.19,0,.24.16.25.36.25-.37,1.12-.55,1.2,0-.33.94.09.09.61.52,2-1.06.59.58,1.59.45-.46,1-1,.51.16.9.13.29-.37.32-.55.32a.38.38,0,0,1-.33.69.75.75,0,0,1,0,1c1,0,.86,1.17.06,1.08.57.49-.1,1-.58.41C22,47.31,22.65,49,21.49,48.59Z" transform="translate(6.22 14.52)"/><path class="cls-20" d="M17.82,51.58c1.74-.95.67.24,1.62-.22.15-.46,1,.65.85-.66.5.29,1.34.27,1.35-.43a1.06,1.06,0,0,0,1.11-.07.88.88,0,0,0,.25-.92.5.5,0,0,1-.47.4c-.65,0-.67-.69-1.1-.08-.9-.12-1,.83-1.79-.37.19.91-1.06,1.24-1.21.27a.66.66,0,0,1-1,.09c-.68-.55-.08-1.08-1-.88a.38.38,0,0,1-.17-.58c-.58.39-1.08-.25-.53-.67-1,.2-1.14-1.11-.19-1.32a1.36,1.36,0,0,1-.77-.25c-.45-.41.12-.87.58-.8-.46-.22-.14-.67.27-.67-.43-.17-1.05-.46-1-1s.86-.49,1.32-.29c-1.1-.78-.11-1.38.59-.44-.79-1.31.13-1.78.82-1.49-.24-.32-.29-1,.28-1,1,.75.68-.54,1.54.26-.12-.34-.14-.89.34-.82-.82-.62-1,.64-1.74.24-1.17,0-.54.72-1.73.7-.26.79-1,.74-1.57,1.38,0,.61.3.51-.43.73a.87.87,0,0,0,0,1.26.77.77,0,0,0-.27,1.21c-.55.12-.82.42.08.7-.6.33-.63,1.2.22,1.05a.75.75,0,0,0,.21,1.4.75.75,0,0,0,.56,1.27.39.39,0,1,0,.61.48.74.74,0,0,0,.91.38A2,2,0,0,0,17.82,51.58Z" transform="translate(6.22 14.52)"/><path class="cls-21" d="M21.82,43.2c.42-.05.87-.76.22-.82C21.61,42.42,21.07,43.33,21.82,43.2Z" transform="translate(6.22 14.52)"/><path class="cls-21" d="M22.21,44.25c.87-.13-.1-.87-.58-.51C21.44,44,22,44.25,22.21,44.25Z" transform="translate(6.22 14.52)"/><path class="cls-21" d="M20.24,42.94c.28-.21,0-1.23-.36-.76C19.73,42.43,19.85,43.07,20.24,42.94Z" transform="translate(6.22 14.52)"/><path class="cls-21" d="M20.83,43.28c.06-.09,0-.26-.15-.18S20.76,43.37,20.83,43.28Z" transform="translate(6.22 14.52)"/><path class="cls-21" d="M19.63,44.17c-.05-.38-.72-.72-1-.35C18.67,44.18,19.45,44.52,19.63,44.17Z" transform="translate(6.22 14.52)"/><path class="cls-21" d="M19,43.13c.1-.18-.23-.49-.4-.39S18.79,43.26,19,43.13Z" transform="translate(6.22 14.52)"/><path class="cls-21" d="M19,42a.42.42,0,0,0-.25-.42C18.35,41.54,18.77,42.26,19,42Z" transform="translate(6.22 14.52)"/><path class="cls-21" d="M21.59,45c.25-.13-.16-.79-.37-.61S21.38,45.08,21.59,45Z" transform="translate(6.22 14.52)"/><path class="cls-21" d="M20.57,46.62c.19-.08,0-.48-.17-.37S20.4,46.65,20.57,46.62Z" transform="translate(6.22 14.52)"/><path class="cls-21" d="M21.46,47.84c.34-.14-.11-.89-.39-.64S21.2,47.84,21.46,47.84Z" transform="translate(6.22 14.52)"/><path class="cls-21" d="M20.48,47.4c.15-.11,0-.42-.16-.33S20.3,47.5,20.48,47.4Z" transform="translate(6.22 14.52)"/><polygon class="cls-18" points="33.52 53.04 33.24 70.04 32.03 69.18 32.15 53.35 33.52 53.04"/><polygon class="cls-7" points="16.23 70.92 32.45 69.48 32.76 63.38 16.52 64.22 16.23 70.92"/><polygon class="cls-13" points="12.77 50 12.68 56.83 16.96 56.91 17.02 50.18 12.77 50"/><polygon class="cls-14" points="13.11 56.15 13.18 50.65 16.59 50.8 16.48 56.2 13.11 56.15"/><polygon class="cls-15" points="13.18 50.65 14.1 50.73 16.49 55.11 16.48 56.2 14.87 56.18 13.14 52.33 13.18 50.65"/><polygon class="cls-13" points="17.47 50.12 17.38 56.96 21.66 57.04 21.72 50.31 17.47 50.12"/><polygon class="cls-14" points="17.81 56.27 17.88 50.78 21.29 50.93 21.18 56.33 17.81 56.27"/><polygon class="cls-15" points="17.88 50.78 18.8 50.85 21.19 55.23 21.18 56.33 19.57 56.3 17.84 52.45 17.88 50.78"/><polygon class="cls-13" points="30.63 50.27 30.55 57.11 34.83 57.19 34.88 50.46 30.63 50.27"/><polygon class="cls-14" points="30.97 56.42 31.04 50.93 34.46 51.08 34.35 56.48 30.97 56.42"/><polygon class="cls-15" points="31.04 50.93 31.97 51 34.36 55.38 34.35 56.48 32.73 56.45 31 52.6 31.04 50.93"/><polygon class="cls-13" points="35.33 50.4 35.25 57.23 39.53 57.31 39.58 50.58 35.33 50.4"/><polygon class="cls-14" points="35.67 56.54 35.74 51.05 39.16 51.2 39.05 56.6 35.67 56.54"/><polygon class="cls-15" points="35.74 51.05 36.67 51.13 39.06 55.51 39.05 56.6 37.43 56.58 35.7 52.73 35.74 51.05"/><polygon class="cls-13" points="44.97 51.08 45.15 56.12 48.3 56.03 48.11 51.07 44.97 51.08"/><polygon class="cls-14" points="45.44 55.59 45.3 51.55 47.82 51.54 47.92 55.52 45.44 55.59"/><polygon class="cls-15" points="45.3 51.55 45.98 51.57 47.89 54.71 47.92 55.52 46.73 55.56 45.33 52.79 45.3 51.55"/><polygon class="cls-13" points="48.44 51.01 48.61 56.05 51.77 55.95 51.57 51 48.44 51.01"/><polygon class="cls-14" points="48.9 55.52 48.76 51.48 51.28 51.47 51.39 55.45 48.9 55.52"/><polygon class="cls-15" points="48.76 51.48 49.44 51.5 51.36 54.64 51.39 55.45 50.2 55.49 48.79 52.71 48.76 51.48"/><path class="cls-19" d="M33.74,39.83a1.35,1.35,0,0,0-.46.94c-.23-.15-.76-.29-.78.12.17.54-.36,0-.53.3.2,1.35-.48.34-.83,1.47.26.56-.69.39-.79,1,.17.86-.08,1.86.86,2.41-1.08.22-.18,1.28.47,1.43-.09.36-.3,1.27.7,1.37-.3.13-.56.31-.4.55s.6.2.93.06c-.28.64.16,1,.7.74-.18.29.08.67.39.47a.83.83,0,0,0,1.53.49c.18,1.14.86-.55,1.38-.1,1.58-1,.79-.15,2.27-.38a.62.62,0,0,0,.32-.87c.75-.1,1.38-.7,1-1.41a.55.55,0,0,0,.46-1c.45-.3,1.21-1.58.25-1.76a.81.81,0,0,0-.19-1.54A.79.79,0,0,0,40.51,43c.85-.41.18-.77-.35-.52.11-.25.2-.76-.08-.93-1.25.2,0-.25-.95-.84-.79,0-.48-.29-1-.8a.64.64,0,0,0-.84,0,.4.4,0,0,0-.59-.41C36.05,40.33,34.74,39.36,33.74,39.83Z" transform="translate(6.22 14.52)"/><path class="cls-20" d="M33.74,39.83a1.35,1.35,0,0,0-.46.94c-.23-.15-.76-.29-.78.12.17.54-.36,0-.53.3.2,1.35-.48.34-.83,1.47.26.56-.69.39-.79,1,.17.86-.08,1.86.86,2.41-1.08.22-.18,1.28.47,1.43-.09.36-.3,1.27.7,1.37-.3.13-.56.31-.4.55s.6.2.93.06c-.28.64.16,1,.7.74-.18.29.08.67.39.47a.83.83,0,0,0,1.53.49c.18,1.14.86-.55,1.38-.1,1.58-1,.79-.15,2.27-.38a.62.62,0,0,0,.32-.87c.75-.1,1.38-.7,1-1.41a.55.55,0,0,0,.46-1c.45-.3,1.21-1.58.25-1.76a.81.81,0,0,0-.19-1.54A.79.79,0,0,0,40.51,43c.85-.41.18-.77-.35-.52.11-.25.2-.76-.08-.93-1.25.2,0-.25-.95-.84-.79,0-.48-.29-1-.8a.64.64,0,0,0-.84,0,.4.4,0,0,0-.59-.41C36.05,40.33,34.74,39.36,33.74,39.83Zm-1.45,4.5c.84.3,1.08-1.19,2-.16-.22-.75.71-.61.94-.11.23.24,1.22-.9,1.57.23,1.36-.9.81.82.55,1.37.82-.5,1.55.19.6.66.51,0,1.3,0,1.45.57s-.59.49-.94.51c.26.15.76.32.77.68s-.19.26-.41.2c.18.26.38.71.1,1-.54.3-.88-.28-1,.45-.15.11-.29,0-.4-.16,0,.44-.64,1.07-1,.64-.23-1-.12,0-.79-.1-1.11,2-.81-.16-1.58.48-.14-1.06.59-1-.62-.66-.27-.18.13-.47.29-.57a.38.38,0,0,1-.1-.76.75.75,0,0,1-.53-.84c-.84.58-1.36-.52-.64-.87-.74-.1-.46-.9.27-.67C32.58,45.67,31.08,44.6,32.29,44.33Z" transform="translate(6.22 14.52)"/><path class="cls-20" d="M33.74,39.83c-.94,1.74-.69.16-1.24,1.06.13.47-1.16,0-.35,1-.58,0-1.27.5-.9,1.11a1,1,0,0,0-.9.66c-.15.29.16.9.3.9a.5.5,0,0,1,.17-.59c.56-.33.94.22,1-.53.82-.39.41-1.26,1.7-.67-.65-.66.22-1.61.87-.87,0-.42.41-.66.78-.62.87.09.66.86,1.32.19a.38.38,0,0,1,.46.39c.27-.64,1-.37.8.28.71-.69,1.56.31.89,1a1.45,1.45,0,0,1,.78-.21c.59.11.37.8-.06,1,.51-.06.49.49.15.71.45-.1,1.13-.19,1.34.33s-.45.88-1,1c1.35.05.84,1.09-.26.68,1.38.67.86,1.57.12,1.7.39.14.81.7.31,1-1.25-.09-.28.81-1.44.61.29.22.61.67.16.88,1,.07.53-1.11,1.34-1.15,1-.66,0-.9,1.07-1.53-.22-.81.42-1.16.56-2-.33-.51-.53-.27,0-.85.21-.47-.21-1-.64-1.08A.78.78,0,0,0,40.61,43c.4-.4.45-.8-.45-.55.33-.6-.12-1.35-.75-.75a.76.76,0,0,0-.95-1.07c.2-.61-.7-1.19-1.15-.76a.39.39,0,1,0-.78-.07.75.75,0,0,0-1,.18A2,2,0,0,0,33.74,39.83Z" transform="translate(6.22 14.52)"/><path class="cls-21" d="M35,49c-.34.27-.32,1.11.26.81C35.54,49.57,35.51,48.51,35,49Z" transform="translate(6.22 14.52)"/><path class="cls-21" d="M34.05,48.36c-.66.59.55.68.76.12C34.82,48.15,34.23,48.24,34.05,48.36Z" transform="translate(6.22 14.52)"/><path class="cls-21" d="M36.41,48.39c-.12.33.65,1,.71.44C37.12,48.54,36.67,48.07,36.41,48.39Z" transform="translate(6.22 14.52)"/><path class="cls-21" d="M35.73,48.43c0,.1.19.18.22.06S35.74,48.31,35.73,48.43Z" transform="translate(6.22 14.52)"/><path class="cls-21" d="M36.25,47c.25.29,1,.21,1-.23C37.06,46.5,36.21,46.63,36.25,47Z" transform="translate(6.22 14.52)"/><path class="cls-21" d="M37.37,47.55c0,.2.45.28.54.1S37.45,47.33,37.37,47.55Z" transform="translate(6.22 14.52)"/><path class="cls-21" d="M38,48.53a.44.44,0,0,0,.45.21C38.75,48.53,38,48.16,38,48.53Z" transform="translate(6.22 14.52)"/><path class="cls-21" d="M34.14,47.37c-.14.25.56.58.64.32S34.29,47.21,34.14,47.37Z" transform="translate(6.22 14.52)"/><path class="cls-21" d="M34.13,45.48c-.12.17.24.42.34.22S34.26,45.36,34.13,45.48Z" transform="translate(6.22 14.52)"/><path class="cls-21" d="M32.72,44.94c-.21.31.58.69.67.33S32.94,44.8,32.72,44.94Z" transform="translate(6.22 14.52)"/><path class="cls-21" d="M33.78,44.78c-.06.17.2.37.31.19S33.88,44.6,33.78,44.78Z" transform="translate(6.22 14.52)"/><polygon class="cls-7" points="36.72 69.35 52.83 67.97 52.91 61.95 36.93 62.91 36.72 69.35"/><polygon class="cls-12" points="33.52 53.04 33.24 70.04 37.23 69.89 37.85 53.15 33.52 53.04"/><polygon class="cls-9" points="38.22 53.35 38.14 52.46 34.75 51.98 31.61 52.53 31.53 53.47 34.66 53.09 38.22 53.35"/><polygon class="cls-9" points="17.49 54.47 17.41 53.58 14.03 53.1 10.88 53.65 10.81 54.59 13.93 54.21 17.49 54.47"/><polygon class="cls-12" points="12.79 54.16 12.51 71.16 16.5 71.01 17.13 54.27 12.79 54.16"/><polygon class="cls-18" points="12.79 54.16 12.51 71.16 11.3 70.3 11.42 54.47 12.79 54.16"/><rect class="cls-22" x="16.97" y="55.32" width="1.2" height="18.81"/><rect class="cls-23" x="33.83" y="54.95" width="1.2" height="18.81"/><polygon class="cls-24" points="15.24 52.33 15.08 67.19 36.36 66.73 36.62 52.47 15.24 52.33"/><path class="cls-25" d="M15.75,42.29l.08,1.2h-.08a1.54,1.54,0,0,0-.46-.78,1.12,1.12,0,0,0-.72-.24,1.17,1.17,0,0,0-.64.18,1.2,1.2,0,0,0-.45.57,2.54,2.54,0,0,0-.16,1,2.09,2.09,0,0,0,.15.83,1.09,1.09,0,0,0,.47.54,1.27,1.27,0,0,0,.7.19,1.23,1.23,0,0,0,.61-.15,2,2,0,0,0,.58-.58l.08,0a1.91,1.91,0,0,1-.62.69,1.55,1.55,0,0,1-.84.22,1.61,1.61,0,0,1-1.37-.65,1.9,1.9,0,0,1-.36-1.15,2,2,0,0,1,.24-1,1.73,1.73,0,0,1,.65-.69,1.82,1.82,0,0,1,.91-.24,1.73,1.73,0,0,1,.76.18.4.4,0,0,0,.16.06.13.13,0,0,0,.12-.05.35.35,0,0,0,.1-.19Z" transform="translate(6.22 14.52)"/><path class="cls-25" d="M18.54,44.72H17.17l-.24.56a.88.88,0,0,0-.09.31.19.19,0,0,0,.08.14.64.64,0,0,0,.33.08v.1H16.14v-.1a.59.59,0,0,0,.29-.1,1.75,1.75,0,0,0,.29-.51L18,42.29h.09l1.23,2.94a1.33,1.33,0,0,0,.27.46.55.55,0,0,0,.34.12v.1H18.5v-.1a.49.49,0,0,0,.29-.07.17.17,0,0,0,.07-.14,1.07,1.07,0,0,0-.1-.37Zm-.07-.19-.6-1.43-.62,1.43Z" transform="translate(6.22 14.52)"/><path class="cls-25" d="M23.57,45.91h-.94l-1.2-1.66h-.37v1a.76.76,0,0,0,.07.42.41.41,0,0,0,.3.11h.14v.1H20.05v-.1h.13a.39.39,0,0,0,.33-.14,1,1,0,0,0,0-.39V43a.7.7,0,0,0-.07-.41.39.39,0,0,0-.31-.12h-.13v-.09h1.29a3.27,3.27,0,0,1,.83.08,1,1,0,0,1,.46.3.81.81,0,0,1,.18.53.84.84,0,0,1-.21.57,1.22,1.22,0,0,1-.66.34l.73,1a2.05,2.05,0,0,0,.43.47,1.19,1.19,0,0,0,.47.14Zm-2.51-1.82h.14a1.14,1.14,0,0,0,.77-.22.7.7,0,0,0,.26-.56.73.73,0,0,0-.21-.54.77.77,0,0,0-.55-.2,1.79,1.79,0,0,0-.41,0Z" transform="translate(6.22 14.52)"/><path class="cls-25" d="M24.64,42.56V44h.78a.67.67,0,0,0,.41-.09.58.58,0,0,0,.15-.42h.1v1.23H26a2.34,2.34,0,0,0-.07-.33.46.46,0,0,0-.16-.15.87.87,0,0,0-.33-.05h-.78v1.17a.7.7,0,0,0,0,.28.13.13,0,0,0,.07.09.43.43,0,0,0,.2,0h.6a1.43,1.43,0,0,0,.43,0,.64.64,0,0,0,.27-.16,2.56,2.56,0,0,0,.33-.49h.1l-.3.89H23.64v-.1h.12a.5.5,0,0,0,.24-.06.25.25,0,0,0,.11-.12,1.28,1.28,0,0,0,0-.35V43a.7.7,0,0,0-.07-.41.39.39,0,0,0-.31-.11h-.12v-.09h2.73l0,.77h-.1a1,1,0,0,0-.12-.38.41.41,0,0,0-.2-.16,1,1,0,0,0-.36,0Z" transform="translate(6.22 14.52)"/><path class="cls-25" d="M12.89,48.62h1.64v-1a1.37,1.37,0,0,0,0-.36.29.29,0,0,0-.11-.11.53.53,0,0,0-.24-.06H14V47h1.51v.1h-.13a.46.46,0,0,0-.23.06.2.2,0,0,0-.12.12,1.33,1.33,0,0,0,0,.35v2.28a1.25,1.25,0,0,0,0,.36.26.26,0,0,0,.1.11.53.53,0,0,0,.24.06h.13v.1H14v-.1h.12a.39.39,0,0,0,.32-.12.86.86,0,0,0,.06-.41V48.82H12.89v1.07a1.37,1.37,0,0,0,0,.36.23.23,0,0,0,.11.11.5.5,0,0,0,.24.06h.13v.1H11.88v-.1H12a.38.38,0,0,0,.32-.12.82.82,0,0,0,.07-.41V47.61a1.25,1.25,0,0,0,0-.36.23.23,0,0,0-.11-.11.48.48,0,0,0-.24-.06h-.12V47H13.4v.1h-.13a.5.5,0,0,0-.24.06.22.22,0,0,0-.11.12,1.33,1.33,0,0,0,0,.35Z" transform="translate(6.22 14.52)"/><path class="cls-25" d="M17.61,46.9a1.59,1.59,0,0,1,1.19.52,1.81,1.81,0,0,1,.51,1.31,1.87,1.87,0,0,1-.51,1.34,1.66,1.66,0,0,1-1.24.53,1.61,1.61,0,0,1-1.22-.52,2,2,0,0,1,.07-2.72A1.7,1.7,0,0,1,17.61,46.9Zm-.05.19a1,1,0,0,0-.77.35,2.56,2.56,0,0,0,0,2.62.91.91,0,0,0,.75.36,1,1,0,0,0,.82-.39,1.88,1.88,0,0,0,.33-1.23,2.15,2.15,0,0,0-.36-1.36A1,1,0,0,0,17.56,47.09Z" transform="translate(6.22 14.52)"/><path class="cls-25" d="M21.7,50.52l-1.37-3v2.37a.77.77,0,0,0,.07.4.38.38,0,0,0,.31.11h.12v.1H19.6v-.1h.13a.37.37,0,0,0,.32-.13,1,1,0,0,0,.05-.38V47.59a.76.76,0,0,0-.05-.34.26.26,0,0,0-.13-.12.67.67,0,0,0-.32-.05V47h1l1.29,2.77L23.15,47h1v.1H24a.36.36,0,0,0-.32.13.79.79,0,0,0-.06.38v2.32a.66.66,0,0,0,.08.4.35.35,0,0,0,.3.11h.13v.1H22.65v-.1h.13a.37.37,0,0,0,.32-.13,1,1,0,0,0,0-.38V47.54l-1.36,3Z" transform="translate(6.22 14.52)"/><path class="cls-25" d="M25.39,47.17v1.4h.77a.65.65,0,0,0,.41-.09.58.58,0,0,0,.15-.42h.1v1.23h-.1a1.42,1.42,0,0,0-.07-.33.32.32,0,0,0-.16-.14.69.69,0,0,0-.33-.06h-.77v1.17a.91.91,0,0,0,0,.29.18.18,0,0,0,.07.08.43.43,0,0,0,.2,0h.6a2.19,2.19,0,0,0,.44,0,.77.77,0,0,0,.26-.17,2.17,2.17,0,0,0,.33-.49h.1l-.3.89H24.38v-.1h.12a.48.48,0,0,0,.24-.06.19.19,0,0,0,.11-.12,1.24,1.24,0,0,0,0-.34V47.6a.85.85,0,0,0-.06-.42.42.42,0,0,0-.32-.1h-.12V47h2.73l0,.78H27a1,1,0,0,0-.12-.39.43.43,0,0,0-.19-.16,1.46,1.46,0,0,0-.37,0Z" transform="translate(6.22 14.52)"/><circle class="cls-26" cx="24.24" cy="54.32" r="1.1"/><circle class="cls-27" cx="25.95" cy="54.36" r="1.1"/><circle class="cls-28" cx="27.72" cy="54.36" r="1.1"/><polygon class="cls-13" points="56.06 59.42 55.91 50.86 66.5 50.82 66.42 59.11 56.06 59.42"/><polygon class="cls-14" points="65.85 58.67 56.62 58.95 56.48 51.33 65.95 51.41 65.85 58.67"/><path class="cls-10" d="M53.89,47.46c0,.91-2.53.91-2.5,0S53.93,46.55,53.89,47.46Z" transform="translate(6.22 14.52)"/><path class="cls-11" d="M53.87,47.2c0,.91-2.54.91-2.51,0S53.9,46.29,53.87,47.2Z" transform="translate(6.22 14.52)"/><path class="cls-29" d="M53.57,47.09c0,.71-1.77.8-1.86,0v-13h1.86Z" transform="translate(6.22 14.52)"/><polygon class="cls-12" points="53.6 54 53.37 68.45 56.76 68.32 57.29 54.1 53.6 54"/><polygon class="cls-18" points="53.6 54 53.37 68.45 52.34 67.72 52.44 54.27 53.6 54"/><polygon class="cls-9" points="57.6 54.27 57.53 53.51 54.65 53.1 51.98 53.57 51.92 54.36 54.58 54.04 57.6 54.27"/><polygon class="cls-8" points="57.66 45.35 73.14 46.39 81.71 49.96 57.2 49.45 57.66 45.35"/><polygon class="cls-13" points="69.87 50.59 70 54.41 72.39 54.34 72.25 50.58 69.87 50.59"/><polygon class="cls-14" points="70.22 54.01 70.12 50.95 72.03 50.94 72.11 53.96 70.22 54.01"/><polygon class="cls-15" points="70.12 50.95 70.63 50.97 72.08 53.34 72.11 53.96 71.2 53.99 70.14 51.88 70.12 50.95"/><polygon class="cls-13" points="72.81 50.52 72.94 54.34 75.33 54.27 75.19 50.51 72.81 50.52"/><polygon class="cls-14" points="73.16 53.94 73.06 50.88 74.97 50.87 75.05 53.88 73.16 53.94"/><polygon class="cls-15" points="73.06 50.88 73.57 50.89 75.03 53.27 75.05 53.88 74.14 53.91 73.08 51.81 73.06 50.88"/><polygon class="cls-30" points="51.73 117.09 39.05 95.36 33.91 108.16 45.37 124.08 51.73 117.09"/><path class="cls-31" d="M82.22,85.59c4.14,5.6,1.06,11.42-5.06,38.48-1.13,5-2.86,7.23-4.75,10-4.66,6.92-15.44,4.26-16.55-4a229.06,229.06,0,0,1,14.9-45.18c.54-.81,2.31-3.26,5-3.45C79,81.24,81.48,84.59,82.22,85.59Z" transform="translate(6.22 14.52)"/><path class="cls-31" d="M63.75,137.24c-6.79-.1-8.81-5.13-23.79-23.06a17.05,17.05,0,0,1-2.37-3.63c-.88-1.81-2.4-3.86-1.49-4.69a44.86,44.86,0,0,1,14.17-9,161,161,0,0,1,21.8,33.06,5.52,5.52,0,0,1-1,5.09C69,137.31,65,137.26,63.75,137.24Z" transform="translate(6.22 14.52)"/><path class="cls-32" d="M36,103.21l14.83,1.07a1.29,1.29,0,0,0,1.11-.49l.06-.09a1.28,1.28,0,0,0,.19-1.22l-8.48-23.3a1.28,1.28,0,0,0-1.21-.84l-12.69.12a1.26,1.26,0,0,0-.93.41l-.51.55a1.29,1.29,0,0,0-.27,1.25l6.77,21.64A1.3,1.3,0,0,0,36,103.21Z" transform="translate(6.22 14.52)"/><path class="cls-33" d="M36.88,104.29H49a1.8,1.8,0,0,0,1.69-2.42L43,80.66a1.79,1.79,0,0,0-1.69-1.18H29.16a1.79,1.79,0,0,0-1.69,2.41l7.72,21.22A1.79,1.79,0,0,0,36.88,104.29Z" transform="translate(6.22 14.52)"/><ellipse class="cls-34" cx="40.5" cy="82.23" rx="1.25" ry="1.66" transform="translate(-34.07 53.46) rotate(-35.59)"/><ellipse class="cls-35" cx="40.52" cy="82.17" rx="0.75" ry="0.99" transform="translate(-34.04 53.46) rotate(-35.59)"/><ellipse class="cls-36" cx="40.52" cy="82.17" rx="0.56" ry="0.74" transform="translate(-34.04 53.46) rotate(-35.59)"/><path class="cls-30" d="M36.4,105.41c-3.87-2.65-7.62-5.36-9.54-9.12l-2.32-8.85c.13-.42,1.14-3.61,3.92-4.61,1.53-.54,3.92-.54,4.26.32a.65.65,0,0,1,0,.48c-.38.89-2.74.32-4,1.43A2.77,2.77,0,0,0,28,87.34a7,7,0,0,0,1.62,1.27A11.13,11.13,0,0,1,34,87.68c3,0,6.11,1.33,5.93,2.19a.49.49,0,0,1-.16.25C38.6,91.21,34.65,90,34,89.8L29.9,90.92A14.33,14.33,0,0,1,34,90.49c2.7.14,5.87,1.15,5.72,2a.29.29,0,0,1-.06.15c-.67,1-5,.31-6.24.1l-3.28.46a15.29,15.29,0,0,1,4.45.4c1.89.47,2,1,2,1.11a.6.6,0,0,1-.14.38c-.45.51-1.69.14-3.44-.1a23,23,0,0,0-2.89-.21C30.07,97.33,33.47,101.48,36.4,105.41Z" transform="translate(6.22 14.52)"/><path class="cls-31" d="M76.66,80.58l-2.61,52c14.87,8.61,29.12,4.2,49.17-3.3.42-30.34,12.09-45.18,5.44-48.61C109,70.64,92.51,71.37,76.66,80.58Z" transform="translate(6.22 14.52)"/><path class="cls-37" d="M79.58,81.06a8,8,0,0,1-1.87-5.4,8.42,8.42,0,0,1,5.85-7.2c12.72-2.3,25.51-5.58,37.49,1.66,2.38,1.43,1.92-1.06,2.57,5,.41,3.82-2.21,1.3-3.74,2C103.81,84.92,92.69,99.57,79.58,81.06Z" transform="translate(6.22 14.52)"/><path class="cls-38" d="M77.11,136.88q4.14-21.28.26-47" transform="translate(6.22 14.52)"/><path class="cls-31" d="M79.49,79.26a8,8,0,0,1-1.87-5.41,8.42,8.42,0,0,1,5.85-7.2C96.19,64.35,109,61.07,121,68.31c2.38,1.44,7.36,5.06,8,11.08.41,3.82-7.38-2.85-8.94-2.18C102.22,84.88,89.3,97.51,79.49,79.26Z" transform="translate(6.22 14.52)"/><path class="cls-37" d="M95.25,84.06c12.29-4.44,19.53-5,25.38-11.52-12-10.64-23.85-10.34-37.51-1.22C83.66,76.93,87.88,79.35,95.25,84.06Z" transform="translate(6.22 14.52)"/><path class="cls-37" d="M97.69,84.56c2.18,8.62,4.34,17.24,1.47,24.77.48.85.84,1,1-.18,3.36-7.79.45-16.46-1.74-25Z" transform="translate(6.22 14.52)"/><path class="cls-37" d="M93.09,85.15c-2,8.62-3.89,17.23-1.32,24.77-.42.85-.75,1-.87-.18-3-7.79-.41-16.47,1.55-25Z" transform="translate(6.22 14.52)"/><path class="cls-30" d="M111.7,57.12l.43,18c-2.65,2.52-8.13,5.19-16.76,8.61-.81.51-3.51-2-5.25-2.84l2.79-14.07Z" transform="translate(6.22 14.52)"/><path class="cls-39" d="M91.14,75.81c13.83-3.1,19-10.36,18.85-16.43L91.29,71.49Z" transform="translate(6.22 14.52)"/><path class="cls-30" d="M78.62,37.19c-1.9,12.36-2.21,22.18-.44,29.53,1.72,7.14,12.5,5.7,14.14,5.69,11.79-.12,18.05-10.79,18.34-11.31a57.59,57.59,0,0,0,3.78-23.27c-.33-6.72-.58-11.87-4.42-15.76C104.35,16.33,93.5,16,86.8,20.65,82.45,23.69,80,28,78.62,37.19Z" transform="translate(6.22 14.52)"/><ellipse class="cls-40" cx="103.29" cy="59.96" rx="1.9" ry="2.61"/><ellipse class="cls-40" cx="90.07" cy="59.31" rx="1.9" ry="2.61"/><polygon class="cls-39" points="97.53 68.3 92.54 68.03 94.85 57.59 95.06 57.67 93.99 66.94 97.46 68.11 97.53 68.3"/><polygon class="cls-40" points="93.79 67.1 95.06 57.32 95.35 57.34 94.39 67.1 93.79 67.1"/><path class="cls-41" d="M81,39.87a3,3,0,0,1,3.85-1.59" transform="translate(6.22 14.52)"/><path class="cls-41" d="M95.79,38.57c2.33-.69,3.44.26,3.87,1.54" transform="translate(6.22 14.52)"/><path class="cls-42" d="M106.52,44.54l3.24,1.29,5.52-2.93q-.11-3.54-.19-7.06a20.2,20.2,0,0,0-.14-4.72H104.59c.28.57.53,1.14.77,1.68A20,20,0,0,1,106.52,44.54Z" transform="translate(6.22 14.52)"/><path class="cls-30" d="M108.41,46.82c1.3-3.68,5.49-6.45,7.41-5.46,2.12,1.09,1.9,7-.77,10.62-.19.26-2.72,3.64-4.8,3S107.27,50,108.41,46.82Z" transform="translate(6.22 14.52)"/><path class="cls-39" d="M114.58,42.75c-2-.31-4.32,6.67-4.27,6.71l0,0c.15,0,1.43-.71,1.9-.25.13.13.19.35.21.34a.77.77,0,0,0-.21-.58c-.45-.41-1.59.24-1.87.44.39-.65,2.3-5.74,4-6,.59-.1,1.27.47,1.34.33S115.16,42.84,114.58,42.75Z" transform="translate(6.22 14.52)"/><path class="cls-43" d="M117.41,26.21a3.47,3.47,0,0,0,.59-1.94,4.22,4.22,0,0,0-4.48-3.91h-.08a3.68,3.68,0,0,0,.12-.89,4.23,4.23,0,0,0-4.48-3.91,4.9,4.9,0,0,0-2.46.64,4.23,4.23,0,0,0-4.48-3.89A4.8,4.8,0,0,0,99,13.43a4.47,4.47,0,0,0-4.25-2.68,4.67,4.67,0,0,0-3.84,1.9A4.67,4.67,0,0,0,87.29,11a4.24,4.24,0,0,0-4.48,3.84,5,5,0,0,0-1.66-.28,4.23,4.23,0,0,0-4.48,3.91,3.4,3.4,0,0,0,.19,1.11,3.61,3.61,0,0,0-1.17,2.63c0,.06,0,.11,0,.17a3.86,3.86,0,0,0-2.23,3.38,4.52,4.52,0,0,0,9,0c1.17-.14,3.07-1.71,5.58-1.68,1.38,0,1.72.3,4.19.86,5.32,1.21,6.1.4,8.14,1.39a9.46,9.46,0,0,1,4.25,4.74H111A4.54,4.54,0,0,0,115,33.43a4.23,4.23,0,0,0,4.48-3.91A3.81,3.81,0,0,0,117.41,26.21Z" transform="translate(6.22 14.52)"/><path class="cls-44" d="M97.92,24.76c4.14,4.36,7.06,8.74,6.31,13.16" transform="translate(6.22 14.52)"/><path class="cls-44" d="M88,22.67c-6.94,2.43-8,7.29-11.43,10.9" transform="translate(6.22 14.52)"/><path class="cls-31" d="M92.17,88.79c6.7-12.12,17.74-17.65,30.08-17.47L124.54,78C115.59,75.44,104.46,82.65,92.17,88.79Z" transform="translate(6.22 14.52)"/></g></g><circle class="cls-45" cx="69.94" cy="78.24" r="62.72"/></g></g></g></g></svg>