<svg xmlns="http://www.w3.org/2000/svg" xmlns:xlink="http://www.w3.org/1999/xlink" viewBox="0 0 147.89 130.7"><defs><style>.cls-1,.cls-33,.cls-43,.cls-46,.cls-49,.cls-50,.cls-63{fill:none;}.cls-2,.cls-55{fill:#31ab94;}.cls-3,.cls-56{fill:#add9d1;}.cls-4{fill:#fff;}.cls-5{clip-path:url(#clip-path);}.cls-6{fill:url(#linear-gradient);}.cls-7{opacity:0.2;}.cls-8{fill:#b7bec4;}.cls-9{fill:#717478;}.cls-10{fill:#0f5956;}.cls-11{fill:#e7f0f7;}.cls-12{fill:#da5653;}.cls-13{fill:#3eb9b5;}.cls-14{fill:#3f565a;}.cls-15{fill:#5d7e84;}.cls-16{isolation:isolate;}.cls-17{fill:#3f639b;}.cls-18{fill:#e5e5e5;}.cls-19{fill:#5679af;}.cls-20{fill:#2b4369;}.cls-21{fill:#333639;}.cls-22{fill:#393c40;}.cls-23{fill:#232628;}.cls-24{fill:#aa4f4c;}.cls-25{fill:#ac4643;}.cls-26{fill:#8c87af;}.cls-27{fill:#412a74;}.cls-28{fill:#f8c7a3;}.cls-29,.cls-30,.cls-38{fill:#00a99d;}.cls-30,.cls-38{stroke:#fff;}.cls-30{stroke-linejoin:round;}.cls-30,.cls-33,.cls-51{stroke-width:0.5px;}.cls-31{fill:#e3b696;}.cls-32{fill:#c9665a;}.cls-33,.cls-46{stroke:#2e3192;}.cls-33,.cls-46,.cls-49{stroke-linecap:round;}.cls-33,.cls-38,.cls-43,.cls-46,.cls-49,.cls-50,.cls-51,.cls-54,.cls-55,.cls-56,.cls-63{stroke-miterlimit:10;}.cls-34{fill:#6585f3;}.cls-35{fill:#efeeee;}.cls-36{fill:#d9d9d9;}.cls-37{fill:#bababa;}.cls-38,.cls-43,.cls-54,.cls-55,.cls-56{stroke-width:0.25px;}.cls-39{fill:#bfcbd1;}.cls-40{fill:#e4f1f8;}.cls-41,.cls-54{fill:#ff9c50;}.cls-42{fill:#d68343;}.cls-43,.cls-54{stroke:#f15a24;}.cls-44{fill:#c6645a;}.cls-45,.cls-51{fill:#a15149;}.cls-47{fill:url(#linear-gradient-2);}.cls-48{fill:#3c3378;}.cls-49{stroke:#3c3378;}.cls-49,.cls-63{stroke-width:2px;}.cls-50{stroke:#ef7c2a;}.cls-51{stroke:#872d00;}.cls-52{fill:#ffb881;}.cls-53{fill:#d1d1d1;}.cls-55,.cls-56{stroke:#00703c;}.cls-57{fill:#5d76cf;}.cls-58{fill:#5f768f;}.cls-59{fill:#738fac;}.cls-60{fill:#dce4ed;}.cls-61{fill:#a7b8cb;}.cls-62{fill:#ccc;}.cls-63{stroke:#8cc63f;}</style><clipPath id="clip-path" transform="translate(22.33)"><circle class="cls-1" cx="60.48" cy="60.48" r="59.48"/></clipPath><linearGradient id="linear-gradient" x1="83.64" y1="118.59" x2="81.93" y2="-0.36" gradientUnits="userSpaceOnUse"><stop offset="0.11" stop-color="#cedcc8"/><stop offset="0.18" stop-color="#d4e0ce"/><stop offset="0.5" stop-color="#ebf1e9"/><stop offset="0.78" stop-color="#fafbf9"/><stop offset="1" stop-color="#fff"/></linearGradient><linearGradient id="linear-gradient-2" x1="112.22" y1="57.37" x2="112.22" y2="50.71" gradientUnits="userSpaceOnUse"><stop offset="0" stop-color="#a15149"/><stop offset="1" stop-color="#3c3378"/></linearGradient><symbol id="dialog-small" data-name="dialog-small" viewBox="0 0 142.24 162.6"><path class="cls-2" d="M126.6,134.29l-86.82.33L15,161.83.54,162.6,14.41,20.24A18.57,18.57,0,0,1,32.92,1.6l90.22-.34a18.68,18.68,0,0,1,18.74,18.6l.36,98.68A15.69,15.69,0,0,1,126.6,134.29Z"/><path class="cls-3" d="M112.19,133l-86.82.32L.42,162.07V133.44L0,19A18.58,18.58,0,0,1,18.51.33L108.73,0a18.67,18.67,0,0,1,18.74,18.6l.36,98.68A15.7,15.7,0,0,1,112.19,133Z"/></symbol></defs><g id="Layer_2" data-name="Layer 2"><g id="Layer_1-2" data-name="Layer 1"><g id="attendance1"><polygon class="cls-4" points="62.14 86.01 70.53 88.84 79.75 88.09 70.62 85.35 62.14 86.01"/><polygon class="cls-4" points="69.74 85.33 78.13 88.16 87.35 87.4 78.22 84.67 69.74 85.33"/><g class="cls-5"><circle class="cls-6" cx="82.81" cy="60.48" r="59.48"/><g class="cls-7"><path id="path156" class="cls-8" d="M66.22,93.94l-1.31.15.26-55.68,1.31-.15-.26,55.68" transform="translate(22.33)"/><path id="path158" class="cls-9" d="M64.91,94.58,52,83.9l.91-52.3,12.24,5.13-.26,57.85" transform="translate(22.33)"/><path id="path200" class="cls-10" d="M53.69,93.28c-.19.32-.66.4-1.39.23l-5-6.05V85.25l6.35,8" transform="translate(22.33)"/><path id="path232" class="cls-10" d="M46.19,95.12c-.2.33-.66.4-1.39.24l-5-6.06V87.09l6.35,8" transform="translate(22.33)"/><path id="path264" class="cls-10" d="M37.92,96.5c-.2.33-.66.4-1.39.24l-5-6.06V88.47l6.35,8" transform="translate(22.33)"/><path id="path288" class="cls-10" d="M28.73,98.08c-.19.32-.66.4-1.39.23l-5-6V90l6.35,8" transform="translate(22.33)"/><path id="path296" class="cls-8" d="M66.23,93.1V91.23L26.11,98v1.87L66.23,93.1" transform="translate(22.33)"/><path id="path298" class="cls-11" d="M65,91.55,52.13,75.27,12,82,24.88,98.28,65,91.55" transform="translate(22.33)"/><path id="path302" class="cls-10" d="M63.18,73.44c-.2.32-.66.4-1.4.23l-5-6V65.4l6.36,8" transform="translate(22.33)"/><path id="path314" class="cls-12" d="M60.8,88.1c-.27.31-.73.39-1.39.24l.06-13a1.26,1.26,0,0,0,1.39-.23l-.06,13" transform="translate(22.33)"/><path id="path318" class="cls-10" d="M59.47,73.54c-.19.32-.65.4-1.39.23l-5-6.06V65.5l6.35,8" transform="translate(22.33)"/><path id="path322" class="cls-10" d="M59.41,88.4c-.27.31-.73.39-1.39.24l.06-14.87a1.27,1.27,0,0,0,1.39-.23L59.41,88.4" transform="translate(22.33)"/><path id="path324" class="cls-13" d="M58,88.64l-6.36-8,.07-14.87,6.35,8L58,88.64" transform="translate(22.33)"/><path id="path330" class="cls-14" d="M57.77,88.57c-.36.41-1,.51-1.86.31L56,75.31A1.67,1.67,0,0,0,57.83,75l-.06,13.57" transform="translate(22.33)"/><path id="path332" class="cls-15" d="M55.91,88.88l-6.17-7.81.06-13.56L56,75.31l-.06,13.57" transform="translate(22.33)"/><path id="path346" class="cls-12" d="M53.06,88.94c-.27.31-.73.39-1.39.24l.06-14.27a1.25,1.25,0,0,0,1.39-.24l-.06,14.27" transform="translate(22.33)"/><path id="path354" class="cls-14" d="M51.65,89.2c-.36.42-1,.52-1.86.32L49.85,76a1.68,1.68,0,0,0,1.86-.31L51.65,89.2" transform="translate(22.33)"/><path id="path356" class="cls-15" d="M49.79,89.52l-6.18-7.81.07-13.56L49.85,76l-.06,13.57" transform="translate(22.33)"/><g class="cls-16"><polygon class="cls-17" points="69.43 77.13 71.27 76.81 71.18 90.24 69.34 90.56 69.43 77.13"/><polygon class="cls-18" points="69.74 80.35 70.93 80.15 70.87 85.81 69.69 86.01 69.74 80.35"/><polygon class="cls-19" points="63.34 69.42 65.18 69.11 71.27 76.81 69.43 77.13 63.34 69.42"/><polygon class="cls-20" points="69.43 77.13 69.34 90.56 63.25 82.85 63.34 69.42 69.43 77.13"/></g><path class="cls-18" d="M48,78c.84,0,.49,1.51,0,1.47-.85,0-.48-1.51,0-1.47" transform="translate(22.33)"/><path id="path358" class="cls-10" d="M49.71,75.41c-.19.33-.66.4-1.39.24l-5-6.06V67.38l6.35,8" transform="translate(22.33)"/><path id="path366" class="cls-10" d="M47.71,76.24c-.19.32-.66.4-1.39.23l-5-6.06V68.2l6.35,8" transform="translate(22.33)"/><path id="path394" class="cls-14" d="M42.31,91.36a1.79,1.79,0,0,1-1.86.31l.06-13.56a1.69,1.69,0,0,0,1.86-.31l-.06,13.56" transform="translate(22.33)"/><path id="path396" class="cls-15" d="M40.45,91.67l-6.18-7.8.07-13.57,6.17,7.81-.06,13.56" transform="translate(22.33)"/><path id="path402" class="cls-8" d="M39,91.54c-.26.31-.73.39-1.39.24l.06-13a1.29,1.29,0,0,0,1.4-.23l-.07,13" transform="translate(22.33)"/><path id="path410" class="cls-12" d="M37.57,91.73c-.26.31-.73.38-1.39.23l.07-14.27a1.28,1.28,0,0,0,1.39-.23l-.07,14.27" transform="translate(22.33)"/><path id="path418" class="cls-14" d="M36.18,92c-.35.41-1,.51-1.86.31l.07-13.56a1.69,1.69,0,0,0,1.86-.31L36.18,92" transform="translate(22.33)"/><path id="path420" class="cls-15" d="M34.32,92.31,28.15,84.5l.06-13.56,6.18,7.81-.07,13.56" transform="translate(22.33)"/><path id="path422" class="cls-10" d="M34.25,78.21c-.2.32-.66.4-1.39.23l-5-6.06,0-2.21,6.35,8" transform="translate(22.33)"/><path id="path426" class="cls-13" d="M34.18,92.48c-.26.31-.73.38-1.39.23l.07-14.27a1.28,1.28,0,0,0,1.39-.23l-.07,14.27" transform="translate(22.33)"/><path id="path428" class="cls-10" d="M32.79,92.71l-6.35-8,.07-14.27,6.35,8-.07,14.27" transform="translate(22.33)"/><path id="path434" class="cls-14" d="M32.15,92.79a1.79,1.79,0,0,1-1.86.31l.06-13.56a1.69,1.69,0,0,0,1.86-.31l-.06,13.56" transform="translate(22.33)"/><path id="path436" class="cls-15" d="M30.29,93.1l-6.18-7.8.07-13.57,6.17,7.81L30.29,93.1" transform="translate(22.33)"/><path id="path442" class="cls-14" d="M29.83,93.75c-.35.41-1,.51-1.86.31L28,80.5a1.69,1.69,0,0,0,1.86-.32l-.06,13.57" transform="translate(22.33)"/><path id="path444" class="cls-15" d="M28,94.06,21.8,86.25l.06-13.56L28,80.5,28,94.06" transform="translate(22.33)"/><path id="path446" class="cls-8" d="M66.31,75.14V73.26L26.2,80v1.88l40.12-6.73" transform="translate(22.33)"/><path id="path448" class="cls-11" d="M65.14,73.73,52.51,57.82,13.12,64.23,25.75,80.14l39.39-6.41" transform="translate(22.33)"/><path id="path472" class="cls-14" d="M56.9,71.18c-.36.41-1,.51-1.86.31l.06-13.56A1.69,1.69,0,0,0,57,57.61L56.9,71.18" transform="translate(22.33)"/><path id="path474" class="cls-15" d="M55,71.49l-6.17-7.81.06-13.56,6.17,7.81L55,71.49" transform="translate(22.33)"/><path id="path476" class="cls-10" d="M55,57.38c-.19.33-.66.41-1.39.24l-5-6.06V49.35l6.35,8" transform="translate(22.33)"/><path id="path480" class="cls-13" d="M54.9,71.66a1.37,1.37,0,0,1-1.39.23l.06-14.27A1.25,1.25,0,0,0,55,57.38L54.9,71.66" transform="translate(22.33)"/><path id="path482" class="cls-10" d="M53.51,71.89l-6.35-8,.06-14.27,6.35,8-.06,14.27" transform="translate(22.33)"/><path id="path504" class="cls-12" d="M48.69,73.17c-.27.31-.73.39-1.39.24l.06-14.27a1.25,1.25,0,0,0,1.39-.24l-.06,14.27" transform="translate(22.33)"/><path id="path512" class="cls-14" d="M47.3,73a1.79,1.79,0,0,1-1.86.31l.06-13.56a1.69,1.69,0,0,0,1.86-.31L47.3,73" transform="translate(22.33)"/><path id="path514" class="cls-15" d="M45.44,73.28l-6.17-7.81.06-13.56,6.17,7.81-.06,13.56" transform="translate(22.33)"/><path id="path516" class="cls-10" d="M45.36,59.18c-.19.32-.66.4-1.39.23l-5-6V51.14l6.35,8" transform="translate(22.33)"/><path id="path520" class="cls-13" d="M45.3,73.45c-.27.31-.73.38-1.39.23L44,59.41a1.25,1.25,0,0,0,1.39-.23L45.3,73.45" transform="translate(22.33)"/><path id="path522" class="cls-10" d="M43.91,73.68l-6.35-8,.06-14.27,6.35,8-.06,14.27" transform="translate(22.33)"/><g class="cls-16"><polygon class="cls-17" points="63.67 60.93 65.51 60.61 65.42 74.04 63.58 74.36 63.67 60.93"/><polygon class="cls-18" points="63.98 64.16 65.17 63.95 65.11 69.61 63.92 69.82 63.98 64.16"/><polygon class="cls-19" points="57.58 53.23 59.42 52.91 65.51 60.61 63.67 60.93 57.58 53.23"/><polygon class="cls-20" points="63.67 60.93 63.58 74.36 57.49 66.66 57.58 53.23 63.67 60.93"/></g><path class="cls-18" d="M42.28,61.77c.84,0,.48,1.51,0,1.46-.85,0-.48-1.51,0-1.46" transform="translate(22.33)"/><path id="path524" class="cls-10" d="M43.56,59.69c-.19.33-.66.4-1.39.23l-5-6.05V51.66l6.35,8" transform="translate(22.33)"/><path id="path532" class="cls-10" d="M41.75,60.06c-.19.33-.66.41-1.39.24l-5-6.06V52l6.35,8" transform="translate(22.33)"/><path id="path536" class="cls-13" d="M36.33,75.92c-.26.31-.73.39-1.39.24L35,61.89a1.26,1.26,0,0,0,1.39-.24l-.07,14.27" transform="translate(22.33)"/><path id="path538" class="cls-10" d="M34.94,76.16l-6.35-8,.07-14.27,6.35,8-.07,14.27" transform="translate(22.33)"/><path id="path544" class="cls-8" d="M33,75.4c-.26.31-.73.39-1.39.24l.06-13a1.25,1.25,0,0,0,1.39-.23L33,75.4" transform="translate(22.33)"/><path id="path552" class="cls-12" d="M31.58,75.77c-.26.31-.73.38-1.39.23l.07-14.27a1.28,1.28,0,0,0,1.39-.23l-.07,14.27" transform="translate(22.33)"/><path id="path556" class="cls-10" d="M36.45,60.83c-.19.33-.66.41-1.39.24l-5-6.06V52.8l6.35,8" transform="translate(22.33)"/><path id="path560" class="cls-13" d="M30.19,76c-.26.31-.73.39-1.39.23L28.87,62a1.26,1.26,0,0,0,1.39-.23L30.19,76" transform="translate(22.33)"/><path id="path568" class="cls-12" d="M28.82,76.38c-.27.31-.73.39-1.4.24l.07-14.27a1.25,1.25,0,0,0,1.39-.24l-.06,14.27" transform="translate(22.33)"/><path id="path588" class="cls-8" d="M66.39,57.17V55.3L26.28,62V63.9l40.12-6.73" transform="translate(22.33)"/><path id="path590" class="cls-11" d="M65.21,55.76,52.65,39.92l-39.2,6.39L26,62.15l39.19-6.39" transform="translate(22.33)"/><g class="cls-16"><polygon class="cls-17" points="76.92 40.26 78.76 39.94 78.67 53.37 76.83 53.69 76.92 40.26"/><polygon class="cls-18" points="77.23 43.48 78.42 43.28 78.36 48.94 77.18 49.14 77.23 43.48"/><polygon class="cls-19" points="70.83 32.55 72.67 32.24 78.76 39.94 76.92 40.26 70.83 32.55"/><polygon class="cls-20" points="76.92 40.26 76.83 53.69 70.74 45.98 70.83 32.55 76.92 40.26"/></g><path class="cls-18" d="M55.53,41.09c.84,0,.49,1.51,0,1.47-.85,0-.48-1.51,0-1.47" transform="translate(22.33)"/><g class="cls-16"><polygon class="cls-21" points="75.21 41.55 77.05 41.23 76.96 54.67 75.12 54.98 75.21 41.55"/><polygon class="cls-18" points="75.52 44.78 76.71 44.57 76.66 50.23 75.47 50.44 75.52 44.78"/><polygon class="cls-22" points="69.12 33.85 70.96 33.53 77.05 41.23 75.21 41.55 69.12 33.85"/><polygon class="cls-23" points="75.21 41.55 75.12 54.98 69.03 47.28 69.12 33.85 75.21 41.55"/></g><path class="cls-18" d="M53.83,42.39c.84,0,.48,1.51,0,1.46-.84,0-.48-1.5,0-1.46" transform="translate(22.33)"/><g class="cls-16"><polygon class="cls-21" points="72.46 41.18 74.3 40.86 74.21 54.29 72.37 54.61 72.46 41.18"/><polygon class="cls-18" points="72.77 44.41 73.96 44.2 73.9 49.86 72.72 50.06 72.77 44.41"/><polygon class="cls-22" points="66.37 33.48 68.21 33.16 74.3 40.86 72.46 41.18 66.37 33.48"/><polygon class="cls-23" points="72.46 41.18 72.37 54.61 66.28 46.91 66.37 33.48 72.46 41.18"/></g><path class="cls-18" d="M51.07,42c.84,0,.48,1.5,0,1.46-.85,0-.48-1.51,0-1.46" transform="translate(22.33)"/><g class="cls-16"><polygon class="cls-17" points="69.99 41.42 71.83 41.1 71.74 54.53 69.9 54.85 69.99 41.42"/><polygon class="cls-18" points="70.3 44.65 71.49 44.44 71.43 50.1 70.25 50.31 70.3 44.65"/><polygon class="cls-19" points="63.9 33.72 65.74 33.4 71.83 41.1 69.99 41.42 63.9 33.72"/><polygon class="cls-20" points="69.99 41.42 69.9 54.85 63.81 47.15 63.9 33.72 69.99 41.42"/></g><path class="cls-18" d="M48.6,42.26c.84,0,.49,1.51,0,1.46-.84,0-.48-1.5,0-1.46" transform="translate(22.33)"/><path id="path610" class="cls-10" d="M56.45,40c-.2.32-.66.4-1.39.23l-5-6,0-2.22,6.35,8" transform="translate(22.33)"/><path id="path622" class="cls-12" d="M47.28,55.79c-.2.36-.59.5-1.18.43l-1.62-15.1a1,1,0,0,0,1.18-.43l1.62,15.1" transform="translate(22.33)"/><path id="path634" class="cls-10" d="M47.77,41.34c-.19.32-.65.4-1.39.23l-5-6V33.31l6.35,8" transform="translate(22.33)"/><path id="path638" class="cls-13" d="M44.45,55.64c-.27.31-.73.38-1.39.23l.07-14.27a1.28,1.28,0,0,0,1.39-.23l-.07,14.27" transform="translate(22.33)"/><path id="path640" class="cls-10" d="M43.06,55.87l-6.35-8,.06-14.28,6.36,8-.07,14.27" transform="translate(22.33)"/><path id="path642" class="cls-10" d="M46.21,41.59c-.19.32-.66.4-1.39.23l-5-6V33.55l6.35,8" transform="translate(22.33)"/><path id="path650" class="cls-10" d="M44.58,41.83c-.2.32-.66.4-1.39.23l-5-6.05,0-2.22,6.35,8" transform="translate(22.33)"/><path id="path654" class="cls-13" d="M41.79,54.51c-.26.3-.73.38-1.39.23l.07-14.27a1.26,1.26,0,0,0,1.39-.24l-.07,14.28" transform="translate(22.33)"/><path id="path662" class="cls-12" d="M40.39,54.62c-.27.31-.73.39-1.39.24l.06-14.27a1.25,1.25,0,0,0,1.39-.24l-.06,14.27" transform="translate(22.33)"/><path id="path670" class="cls-24" d="M39.05,55.92c-.27.31-.73.39-1.39.24l.06-13a1.26,1.26,0,0,0,1.39-.23l-.06,13" transform="translate(22.33)"/><path id="path674" class="cls-10" d="M39.36,42.11c-.19.33-.66.4-1.39.24l-5-6.06V34.08l6.35,8" transform="translate(22.33)"/><path id="path678" class="cls-10" d="M38.17,57.33c-.26.31-.73.39-1.39.23l.07-14.86a1.25,1.25,0,0,0,1.39-.24l-.07,14.87" transform="translate(22.33)"/><path id="path680" class="cls-13" d="M36.78,57.56l-6.35-8,.07-14.87,6.35,8-.07,14.86" transform="translate(22.33)"/><path id="path686" class="cls-14" d="M35.18,57.35a1.81,1.81,0,0,1-1.86.32l.06-13.57a1.69,1.69,0,0,0,1.86-.31l-.06,13.56" transform="translate(22.33)"/><path id="path688" class="cls-15" d="M33.32,57.67l-6.17-7.81.06-13.57,6.17,7.81-.06,13.57" transform="translate(22.33)"/><path id="path694" class="cls-8" d="M33.11,58.07c-.26.3-.72.38-1.39.23l.06-13c0-1.37,1.07-.43,1.37-.77l0,13.57" transform="translate(22.33)"/><path id="path702" class="cls-12" d="M32.06,58.79c-.26.31-.73.38-1.39.23l.07-14.27a1.28,1.28,0,0,0,1.39-.23l-.07,14.27" transform="translate(22.33)"/><path id="path706" class="cls-10" d="M31.86,44c-.19.32-.66.4-1.39.23l-5-6.06V35.92l6.35,8" transform="translate(22.33)"/><path id="path710" class="cls-13" d="M30.67,59.45a1.37,1.37,0,0,1-1.39.23l.07-14.27a1.26,1.26,0,0,0,1.39-.24l-.07,14.28" transform="translate(22.33)"/><path id="path712" class="cls-10" d="M29.28,59.68l-6.35-8L23,37.37l6.36,8-.07,14.27" transform="translate(22.33)"/><path id="path722" class="cls-8" d="M27.43,98.13l-1.32.14.26-55.68,1.31-.14-.25,55.68" transform="translate(22.33)"/><path id="path724" class="cls-9" d="M26.11,98.27,13.22,88l.24-51.1,12.91,5.69-.26,55.68" transform="translate(22.33)"/><path id="path726" class="cls-8" d="M27.25,45.93h-.9L13.46,37.33V34.85l12.89,9.22" transform="translate(22.33)"/><path id="path728" class="cls-8" d="M66.48,39.21V37.33L26.36,44.07v1.87l40.13-6.73" transform="translate(22.33)"/><path id="path730" class="cls-11" d="M66.53,37.43l-13-6.49L13.47,34.85l12.89,9.22,40.12-6.64" transform="translate(22.33)"/><polygon class="cls-25" points="66.99 42.87 66.83 42.9 66.78 54.05 68.42 56.22 66.99 42.87"/></g><path class="cls-26" d="M55.94,106.15c-3.55,1.27-1.11,11.56,2.12,23l12.13,1.51c.46-3.48-.57-7-2.75-10.61,7,1.91,9.43,4.18,19.24,7.08l-.15-12.85C76.38,110,66.75,105.24,55.94,106.15Z" transform="translate(22.33)"/><path class="cls-27" d="M25.6,40.05c-6.49-2.8-12.13-1.6-15.2,11.54A33.36,33.36,0,0,1,8,63.89c-4.17,6.86-3,10.45,1,12.3l26.26.43-3.3-8.23c1.73-3.85,1.75-7.13-.24-9.75C32.94,47.88,32.11,40.06,25.6,40.05Z" transform="translate(22.33)"/><path class="cls-28" d="M55.78,79.33l-2.7,3.81c-4.13,1.3-9,1.78-13.48,3.31C36.7,77.1,33.13,68,30.09,68.38c-5.25,3.15-2.15,8.22,1.46,17.37,1.63,3.31,2.55,6.84,4.9,7.83,6,1,12.7-2.93,18.18-6v0c2.78-.24,4.81-.76,4.92-2Z" transform="translate(22.33)"/><path class="cls-28" d="M9.75,67.79c-4.94,1.22-6.76,8.82-8,14C-.58,89.36,0,95.29,7.23,91,10.8,80.5,16.88,66.75,9.75,67.79Z" transform="translate(22.33)"/><path class="cls-29" d="M40,82.53a49.24,49.24,0,0,0-5.26-11.72,5.67,5.67,0,0,0-2.87-2.42c-6.32-3.65-13.23-4.3-20.88-1.22l-.05,0c-3.25.34-6.69,2.08-7.54,6.7L.78,81.7c1.57,1.74,5.77,3.16,8.43,3.44C8,89,7.07,98,8.44,106.11c9,3.36,19.26,1.44,25.91-2.41L32.51,86C35,85.9,37.52,84.6,40,82.53Z" transform="translate(22.33)"/><path class="cls-30" d="M1,80.52A21.49,21.49,0,0,0,9.63,84" transform="translate(22.33)"/><path class="cls-28" d="M15.86,57.49q-.06,4.13-.13,8.23c.34.29.69.61,1.05,1,.54.52,1,1,1.45,1.53a3.21,3.21,0,0,0,3.47,1,6,6,0,0,0,1.65-1.38,42.86,42.86,0,0,1-.54-5.95Z" transform="translate(22.33)"/><path class="cls-28" d="M17.47,53.94c-.58-1.64-2.46-2.88-3.32-2.44s-.85,3.12.35,4.75c.08.12,1.22,1.63,2.15,1.35S18,55.38,17.47,53.94Z" transform="translate(22.33)"/><path class="cls-31" d="M22.81,65.9c-3.31-2.51-5.94-5-6.31-7.39l6.31,4.14Z" transform="translate(22.33)"/><path class="cls-28" d="M28.62,44.35a16.3,16.3,0,0,1,2.11,10.77c-.17,1-.88,5-4,7.46a3.92,3.92,0,0,1-1.61.88c-2,.46-2.89-1.3-6.71-3a4,4,0,0,1-2.58-3L17,51.91A18.82,18.82,0,0,0,28.62,44.35Z" transform="translate(22.33)"/><path class="cls-27" d="M28.93,43.5c-.71,5-4.72,7.2-9.63,8.72,4.95-2.58,9.1-5.33,8.48-9.16Z" transform="translate(22.33)"/><path class="cls-32" d="M14.71,52.12c.89-.14,1.93,3,1.91,3s0,0,0,0S16,54.8,15.76,55c-.06.06-.09.16-.1.15a.36.36,0,0,1,.1-.25c.2-.19.71.1.83.19-.17-.29-1-2.57-1.79-2.69-.26,0-.56.22-.59.15S14.45,52.16,14.71,52.12Z" transform="translate(22.33)"/><ellipse class="cls-27" cx="44.77" cy="52.27" rx="0.85" ry="1.17"/><ellipse class="cls-27" cx="50.69" cy="51.98" rx="0.85" ry="1.17"/><path class="cls-27" d="M28.92,51.53A1.85,1.85,0,0,0,30.07,51a1.36,1.36,0,0,1-1.34.13Z" transform="translate(22.33)"/><path class="cls-27" d="M21.76,52.18a1.83,1.83,0,0,1-1.15-.57,1.34,1.34,0,0,0,1.34.13Z" transform="translate(22.33)"/><polygon class="cls-31" points="47.35 56 49.58 55.88 48.55 51.21 48.45 51.24 48.93 55.39 47.38 55.91 47.35 56"/><polygon class="cls-27" points="49.02 55.46 48.45 51.08 48.33 51.09 48.75 55.46 49.02 55.46"/><path class="cls-33" d="M29.38,49.63a3.8,3.8,0,0,1-1.21-.42" transform="translate(22.33)"/><path class="cls-27" d="M23.52,58.79a3.17,3.17,0,0,1,3,.06" transform="translate(22.33)"/><path class="cls-34" d="M69.73,90.36l-13.89-1a.71.71,0,0,1-.65-1L60.24,71a1.17,1.17,0,0,1,1.16-.81l13.89,1a.7.7,0,0,1,.66.94l-5,17.41A1.19,1.19,0,0,1,69.73,90.36Z" transform="translate(22.33)"/><polygon class="cls-35" points="91.99 88.64 79.14 87.71 83.62 72.27 96.47 73.19 91.99 88.64"/><polygon class="cls-36" points="93.93 75.24 84.91 74.6 85.1 73.96 94.11 74.61 93.93 75.24"/><polygon class="cls-36" points="93.52 76.66 84.5 76.01 84.69 75.37 93.7 76.02 93.52 76.66"/><polygon class="cls-36" points="93.11 78.07 84.09 77.43 84.28 76.79 93.29 77.44 93.11 78.07"/><polygon class="cls-36" points="89.01 79.38 83.64 79 83.83 78.36 89.19 78.75 89.01 79.38"/><polygon class="cls-36" points="91.84 82.48 82.82 81.83 83.01 81.19 92.02 81.84 91.84 82.48"/><polygon class="cls-36" points="91.4 84.17 82.39 83.52 82.57 82.89 91.59 83.53 91.4 84.17"/><polygon class="cls-36" points="90.9 85.66 81.88 85.02 82.07 84.38 91.08 85.03 90.9 85.66"/><polygon class="cls-37" points="88.05 70.97 92.37 71.29 91.77 72.14 92.31 74.18 87.05 73.9 88.31 72.03 88.05 70.97"/><path class="cls-29" d="M13.41,66.69l2.19-2.3c1.33,2.53,2.78,4.77,5.12,5L18.88,73C16.09,71.12,14.05,69.09,13.41,66.69Z" transform="translate(22.33)"/><path class="cls-29" d="M24.6,65.64l-1.79-2.21c.18,2.42-.28,4.82-2.09,5.94l2.56,2.79A15.29,15.29,0,0,0,24.6,65.64Z" transform="translate(22.33)"/><path class="cls-38" d="M20.72,69.37,18.88,73c-2.79-1.84-4.83-4.25-5.47-6.65" transform="translate(22.33)"/><path class="cls-38" d="M20.72,69.37l2.56,2.79a15.29,15.29,0,0,0,1.32-6.52" transform="translate(22.33)"/><path class="cls-39" d="M115,106.58l-93.85,5.81a11.25,11.25,0,0,1-2.46-.13L-21,105.64a1.55,1.55,0,0,1-1.29-1.52v-1.67a1,1,0,0,1,.94-1l89.29-3.86L115,102.94Z" transform="translate(22.33)"/><path class="cls-40" d="M108.26,103.25l-87.49,5.41a14.52,14.52,0,0,1-3-.12l-39.53-5.81a.63.63,0,0,1,.05-1.26l89-5.5a.56.56,0,0,1,.13,0l41,6A.63.63,0,0,1,108.26,103.25Z" transform="translate(22.33)"/><path class="cls-41" d="M101.16,74.28c2.16,2.5.92,5.38-1,18.43a12.09,12.09,0,0,1-1.88,4.93,4.34,4.34,0,0,1-8-1.3,108.45,108.45,0,0,1,5.4-22,3.4,3.4,0,0,1,2.23-1.82C99.47,72.34,100.77,73.83,101.16,74.28Z" transform="translate(22.33)"/><path class="cls-41" d="M96.73,99c-2.41,2.15-4.74,1-15.74-.45A7.54,7.54,0,0,1,79,98c-.89-.35-2.08-.58-2-1.16A21.53,21.53,0,0,1,79,89.17a76.68,76.68,0,0,1,18.25,4.59,2.64,2.64,0,0,1,1.3,2.09C98.61,97.33,97.16,98.61,96.73,99Z" transform="translate(22.33)"/><path class="cls-41" d="M97.16,72.79l.22,34.85c6.73,3.54,14.83,3.19,23.9.11.19-12.46,2.42-33.53-.59-34.94C111.8,68.71,104.33,69,97.16,72.79Z" transform="translate(22.33)"/><path class="cls-42" d="M98.49,73.31a3.55,3.55,0,0,1-.85-2.45,3.81,3.81,0,0,1,2.65-3.26c5.75-1,11.54-2.52,17,.76,1.08.65.87-.48,1.16,2.24.19,1.73-1,.59-1.69.93C109.45,75.05,104.42,81.68,98.49,73.31Z" transform="translate(22.33)"/><path class="cls-43" d="M97.37,98.57a62.85,62.85,0,0,0,.12-21.25" transform="translate(22.33)"/><path class="cls-41" d="M98.45,72.49a3.54,3.54,0,0,1-.85-2.44,3.8,3.8,0,0,1,2.65-3.26c5.75-1,11.54-2.53,17,.75,1.08.65,3.33,2.29,3.62,5,.18,1.73-3.34-1.29-4-1C108.73,75,102.88,80.75,98.45,72.49Z" transform="translate(22.33)"/><path class="cls-42" d="M105.57,74.66c5.57-2,8.84-2.25,11.49-5.21-5.41-4.81-10.79-4.68-17-.55C100.33,71.44,102.24,72.53,105.57,74.66Z" transform="translate(22.33)"/><path class="cls-42" d="M106.68,74.89c1,3.9,2,7.8.66,11.21.22.39.38.46.45-.08,1.52-3.53.2-7.45-.79-11.33Z" transform="translate(22.33)"/><path class="cls-42" d="M104.6,75.16c-.89,3.9-1.76,7.8-.6,11.2-.19.39-.34.46-.4-.08-1.36-3.52-.18-7.45.71-11.32Z" transform="translate(22.33)"/><path class="cls-44" d="M113,62.47l.19,8.16c-1.2,1.14-3.67,2.35-7.58,3.9-.37.22-1.59-.91-2.38-1.29l1.27-6.37Z" transform="translate(22.33)"/><path class="cls-45" d="M103.72,70.93c6.26-1.4,8.59-4.69,8.52-7.43L103.78,69Z" transform="translate(22.33)"/><path class="cls-44" d="M98.05,53.46c-.86,5.59-1,10-.2,13.36s5.66,2.58,6.4,2.57c5.34,0,8.17-4.88,8.3-5.11a26,26,0,0,0,1.71-10.53c-.15-3-.26-5.37-2-7.13-2.57-2.6-7.48-2.77-10.51-.65C99.78,47.35,98.69,49.3,98.05,53.46Z" transform="translate(22.33)"/><ellipse class="cls-27" cx="128.73" cy="57.19" rx="0.86" ry="1.18"/><ellipse class="cls-27" cx="122.74" cy="56.89" rx="0.86" ry="1.18"/><polygon class="cls-45" points="126.12 60.96 123.86 60.84 124.91 56.12 125 56.15 124.52 60.35 126.09 60.88 126.12 60.96"/><polygon class="cls-27" points="124.43 60.42 125 55.99 125.13 56 124.7 60.42 124.43 60.42"/><path class="cls-46" d="M99.11,54.67a1.64,1.64,0,0,0,1.74-.72" transform="translate(22.33)"/><path class="cls-46" d="M105.82,54.08a2,2,0,0,0,1.75.7" transform="translate(22.33)"/><path class="cls-47" d="M110.67,56.78l1.47.59,2.5-1.33-.09-3.2a8.86,8.86,0,0,0-.06-2.13H109.8c.13.26.24.52.35.76A9,9,0,0,1,110.67,56.78Z" transform="translate(22.33)"/><path class="cls-44" d="M111.53,57.81c.59-1.66,2.49-2.91,3.35-2.47s.86,3.16-.35,4.81c-.08.12-1.23,1.64-2.17,1.37S111,59.27,111.53,57.81Z" transform="translate(22.33)"/><path class="cls-45" d="M114.32,56c-.9-.14-1.95,3-1.93,3h0c.07,0,.65-.32.86-.11a1.17,1.17,0,0,1,.1.15.37.37,0,0,0-.1-.26c-.2-.19-.72.11-.84.2.17-.3,1-2.6,1.8-2.72.27,0,.58.21.61.15S114.59,56,114.32,56Z" transform="translate(22.33)"/><path class="cls-48" d="M115.6,48.49a1.6,1.6,0,0,0,.27-.88,1.91,1.91,0,0,0-2-1.77h0a1.34,1.34,0,0,0,.06-.4,1.91,1.91,0,0,0-2-1.77,2.26,2.26,0,0,0-1.11.29,1.92,1.92,0,0,0-2-1.76,2.21,2.21,0,0,0-1.42.5,2,2,0,0,0-1.92-1.21,2.1,2.1,0,0,0-1.73.86,2.15,2.15,0,0,0-1.65-.73,1.91,1.91,0,0,0-2,1.73,2.36,2.36,0,0,0-.75-.12,1.91,1.91,0,0,0-2,1.77,1.69,1.69,0,0,0,.08.5,1.66,1.66,0,0,0-.52,1.19v.08a1.73,1.73,0,0,0-1,1.53,2,2,0,0,0,4,0c.53-.06,1.39-.77,2.53-.76a7.67,7.67,0,0,1,1.89.39c2.41.54,2.76.18,3.69.62a4.29,4.29,0,0,1,1.92,2.15h2.88a2.05,2.05,0,0,0,1.85,1,1.92,1.92,0,0,0,2-1.77A1.73,1.73,0,0,0,115.6,48.49Z" transform="translate(22.33)"/><path class="cls-49" d="M106.78,47.83c1.88,2,3.2,4,2.86,6" transform="translate(22.33)"/><path class="cls-49" d="M102.31,46.89c-3.14,1.1-3.6,3.3-5.17,4.93" transform="translate(22.33)"/><path class="cls-41" d="M104.18,76.81a14.68,14.68,0,0,1,13.61-7.91l1,3C114.78,70.77,109.74,74,104.18,76.81Z" transform="translate(22.33)"/><path class="cls-50" d="M75.48,80.88c.61,6.05.79,11.59-1,14.86L73,97.32" transform="translate(22.33)"/><path class="cls-44" d="M70,56.3c.76,6.66.86,9.92,1.7,12,1.14,2.8,5.94,1.42,6.67,1.3a10.45,10.45,0,0,0,7.46-5.86A21.62,21.62,0,0,0,86,54c-.58-2.69-1-4.75-3-6.05-2.9-1.92-7.76-1.3-10.45,1.07C70.79,50.58,69.51,52.51,70,56.3Z" transform="translate(22.33)"/><path class="cls-45" d="M72.39,57.22c.66,5.73.74,8.54,1.46,10.3,1,2.41,5.13,1.22,5.75,1.12A9.05,9.05,0,0,0,86,63.58a18.65,18.65,0,0,0,.17-8.33c-.5-2.32-.88-4.09-2.58-5.21-2.49-1.65-6.68-1.12-9,.92C73.12,52.29,72,54,72.39,57.22Z" transform="translate(22.33)"/><path class="cls-51" d="M76.53,61.67a2.08,2.08,0,0,0,1.46.65,2.49,2.49,0,0,0,1.89-2.68c-.09-1.19-1.11-2.45-2.29-2.36A2.31,2.31,0,0,0,75.74,59" transform="translate(22.33)"/><path class="cls-45" d="M85.89,70.51,86,62.57,76.14,67.5,76,71.86A10.6,10.6,0,0,0,85.89,70.51Z" transform="translate(22.33)"/><path class="cls-41" d="M86.53,72.25,86.3,70c-3.2-1.85-6.59-1.91-10.32,1.09l-1.65,2.93C79.7,74.93,84,74.61,86.53,72.25Z" transform="translate(22.33)"/><path class="cls-52" d="M98.25,111.83c1.07-4,.18-13-.83-22.36-.18-6.06-1.53-11.5-5.15-15.76a18.22,18.22,0,0,0-12.1-2.44c-5.36.88-10.81,4.44-12,9-1,4.14,2,6.62,4.15,11.78,1.91,4.64,4.23,9.84,1,19.89,2.66.85,6.43,5.61,12.58,5.08C91.56,116.58,95.84,113,98.25,111.83Z" transform="translate(22.33)"/><path class="cls-44" d="M56.13,95.2l-1.85-.49c-.68-.68-2.21-1.08-3.75-1.47a19.87,19.87,0,0,0-6,1.75c-.54.48-.61.94,0,1.37a30.41,30.41,0,0,0,5.29,1.43,19.26,19.26,0,0,0,6,.66Z" transform="translate(22.33)"/><path class="cls-52" d="M74,80a4.16,4.16,0,0,0-4.79.38,4.22,4.22,0,0,0-1.29,2.07,67.77,67.77,0,0,0-2,12l-10.16.18c-1.5,1.16-1.75,2.79-1.41,4.65a26.25,26.25,0,0,0,9.4,3c3.84.43,6.61.74,8.84-.85,1.94-1.39,2.16-6.72,2.52-17.3C75.15,82.83,75.19,80.94,74,80Z" transform="translate(22.33)"/><path class="cls-53" d="M86.67,59.24a4.74,4.74,0,0,1-2.42,1.93,4.8,4.8,0,0,1-3.56-.2c0-2.27-1.25-4-2.61-4.15a2.42,2.42,0,0,0-2.23.76c-.24.39-.21.88-.68,1.27a1.53,1.53,0,0,1-.57.29,9.18,9.18,0,0,1-.39-2.2,17.36,17.36,0,0,1,.24-2.6c-.18-2.6-.59-4.7-2.6-4.68a9.16,9.16,0,0,1,.68-.65,10.08,10.08,0,0,1,5-2.28,7.73,7.73,0,0,1,3.68,0A5.78,5.78,0,0,1,84,48.36a6.85,6.85,0,0,1,1.2,2.19,15.18,15.18,0,0,1,1,3.53A27,27,0,0,1,86.67,59.24Z" transform="translate(22.33)"/><path class="cls-54" d="M120.61,73.16c1.74,0,3.67,3.58,4,4.14,2,3.12.13,6.1-4.12,20.22a13.47,13.47,0,0,1-2.89,5.14A4.85,4.85,0,0,1,109,99.92c2.14-7.6,4.58-13.12,8.77-21.1" transform="translate(22.33)"/><path class="cls-44" d="M95.21,97l-1.5-.6c-.79.65-3.14-.51-5.08-1.2-2.06-.44-3.53-.9-3.65-1.16a.65.65,0,0,1-.06-.36.79.79,0,0,1,.15-.32c.27-.34,1.17-.1,1.7,0a11.93,11.93,0,0,0,1.88.26c-2.15-.86-3.72-1.52-4.05-1.69a.71.71,0,0,1-.36-.37.63.63,0,0,1,.27-.82.5.5,0,0,1,.55,0L89,91.9c-2.11-1-3.64-1.71-4.09-1.9-.1,0-.41-.17-.44-.46a.82.82,0,0,1,0-.35.9.9,0,0,1,.26-.36.6.6,0,0,1,.57,0c.43.15,2.07.7,4.31,1.48L86.24,87.9c-.08-.06-.37-.26-.33-.5a.59.59,0,0,1,.14-.27,1.13,1.13,0,0,1,.28-.29.64.64,0,0,1,.62,0c2.16,1.09,3.24,1.63,3.55,1.81a11.34,11.34,0,0,0,2,.94l.19-.39A4.05,4.05,0,0,1,92,86.8c.29-.68.56-1.06.8-.74a4.62,4.62,0,0,0,1.41,2,6.34,6.34,0,0,0,1.09,2.21,2.31,2.31,0,0,1,.33,1.8A5.51,5.51,0,0,1,97,92.5Z" transform="translate(22.33)"/><path class="cls-54" d="M116.43,103.71c-2.84,2.24-6.61-.24-18.8-2.61a9.1,9.1,0,0,1-2.19-.7c-1-.45-2.28-.79-2.19-1.44a24,24,0,0,1,2.83-8.46c6.56,1.13,7.65,1.06,14.45,4.08" transform="translate(22.33)"/><use width="142.24" height="162.6" transform="translate(57 11.48) scale(0.18)" xlink:href="#dialog-small"/><path class="cls-55" d="M50.81,26.3a7.44,7.44,0,0,1,0-2.63c.47-2.34,2.05-2.68,2.36-4.35.3-8.26-14-8.32-13.27-.09,1.58,2.78-2.5,3.38.27,4.43.11.31-.28.64-.13.84.47.29.76-.1.19.46-.09.25.29.46.44.9s-.2.83,0,1.14c1.6.58,6.14,0,4.66,3.85-.58.78-1.13,1.53-.81,1.91.09.11,7.42-.1,7.72-2.28C52.28,30,51.09,28.35,50.81,26.3Z" transform="translate(22.33)"/><path class="cls-56" d="M42.49,15.85a2.26,2.26,0,0,0-1.3,2.83A2.2,2.2,0,0,0,43.31,20c.32.9,1.06,1.22,2.39.74a2,2,0,0,0,2.28.63c.2.93.65,1.52.93,1.48s.56-.74.49-1.68a1.37,1.37,0,0,0,1.42-1.68,1.59,1.59,0,0,0,.5-1,1.6,1.6,0,0,0-.57-1.32c.23-1.34-.66-1.68-1.67-1.93a1.67,1.67,0,0,0-1.33-.81,1.19,1.19,0,0,0-.54.16,2.87,2.87,0,0,0-1.87-.25,3.35,3.35,0,0,0-.39.12,2.21,2.21,0,0,0-.39.21C43.4,14.6,42.68,15,42.49,15.85Z" transform="translate(22.33)"/><path class="cls-28" d="M14.73,98.45C3.38,93.26-.11,93.88,1.24,87.12c4.48-3.6,19.64,7.54,23.67,9.95,4.94-.86,4.77.52,9.69,2.11,4.95,2.14-10.56,3.94-10.2,2Z" transform="translate(22.33)"/><polygon class="cls-57" points="38.18 78.01 38.29 79.25 39.07 82.09 40.05 82.1 40.91 79.34 40.91 77.99 38.18 78.01"/><circle class="cls-58" cx="39.5" cy="82.46" r="1.48"/><circle class="cls-59" cx="39.66" cy="82.46" r="1.48"/><circle class="cls-60" cx="39.66" cy="82.46" r="1.19"/><ellipse class="cls-61" cx="39.66" cy="81.48" rx="0.06" ry="0.11"/><ellipse class="cls-61" cx="39.66" cy="83.47" rx="0.06" ry="0.09"/><ellipse class="cls-61" cx="38.66" cy="82.47" rx="0.1" ry="0.06"/><ellipse class="cls-61" cx="40.65" cy="82.47" rx="0.1" ry="0.06"/><circle class="cls-61" cx="39.14" cy="81.57" r="0.04"/><circle class="cls-61" cx="40.17" cy="83.36" r="0.04"/><circle class="cls-61" cx="38.75" cy="81.97" r="0.05"/><circle class="cls-61" cx="40.56" cy="82.96" r="0.04"/><circle class="cls-61" cx="38.75" cy="82.97" r="0.04"/><circle class="cls-61" cx="40.56" cy="81.97" r="0.04"/><circle class="cls-61" cx="39.1" cy="83.34" r="0.04"/><circle class="cls-61" cx="40.21" cy="81.59" r="0.04"/><rect class="cls-59" x="16.63" y="82.08" width="0.97" height="0.1" rx="0.05" transform="translate(-15.51 145.53) rotate(-127.32)"/><rect class="cls-59" x="16.77" y="82.68" width="0.76" height="0.1" rx="0.05" transform="translate(110.1 129.1) rotate(135)"/><rect class="cls-4" x="35.99" y="75.87" width="7.32" height="2.75" rx="0.74"/><rect class="cls-62" x="36.91" y="77.31" width="5.31" height="0.64"/><circle class="cls-62" cx="37.25" cy="76.59" r="0.47"/></g></g><circle class="cls-63" cx="82.81" cy="60.48" r="59.48"/><path class="cls-28" d="M55.37,80c.65-1.59,2.15-1.19,2.94-2.53l.2-.11a1.17,1.17,0,0,1,.39-.13c.19,0,.23,0,.43,0a.84.84,0,0,0,.24-.07c.41-.15.54-.37.66-.31s.16.39.09.65c-.19.69-1,.68-1.51,1.41-.36.45-.26.74-.48,1.3a4.07,4.07,0,0,1-2.14,2.1" transform="translate(22.33)"/></g></g></svg>