<svg xmlns="http://www.w3.org/2000/svg" xmlns:xlink="http://www.w3.org/1999/xlink" viewBox="0 0 87.29 83.85"><defs><style>.cls-1{fill:#d59532;}.cls-2{fill:#faaf3b;}.cls-3{font-size:72.76px;}.cls-19,.cls-3,.cls-6{fill:#fff;}.cls-19,.cls-3{font-family:Arial-BoldMT, Arial;font-weight:700;}.cls-4{fill:#298f7c;}.cls-5{fill:#31ab94;}.cls-7{opacity:0.86;}.cls-8{fill:url(#linear-gradient);}.cls-9{fill:none;stroke:#8cc63f;stroke-miterlimit:10;stroke-width:2px;}.cls-10{fill:#c6645a;}.cls-11{fill:#2b303d;}.cls-12{fill:#a8554c;}.cls-13{fill:#40485b;}.cls-14{fill:#ff9c50;}.cls-15{fill:#f6f8ed;}.cls-16{fill:#d58c85;}.cls-17{fill:#4870ae;}.cls-18{fill:#ff9500;}.cls-19{font-size:4.26px;}</style><linearGradient id="linear-gradient" x1="26.15" y1="79.27" x2="69.75" y2="24.02" gradientUnits="userSpaceOnUse"><stop offset="0" stop-color="#b7d5f4"/><stop offset="0.12" stop-color="#c0d6f6"/><stop offset="0.32" stop-color="#dadafa"/><stop offset="0.5" stop-color="#f8deff"/><stop offset="0.98" stop-color="#fff"/></linearGradient><symbol id="raised-tick" data-name="raised-tick" viewBox="0 0 40.24 38.15"><path class="cls-4" d="M40.23,17.69c.7,23.58-36.76,23.58-36.76,0S40.93-5.9,40.23,17.69Z"/><path class="cls-5" d="M36.76,20.46C37.46,44.05,0,44.05,0,20.46S36.76-3.82,36.76,20.46Z"/><polygon class="cls-6" points="5.51 21.98 13.24 31.2 31.27 13.89 28.34 11.13 13.38 24.96 8.7 19.44 5.51 21.98"/></symbol><symbol id="hex-orange-pound" data-name="hex-orange-pound" viewBox="0 0 132.05 112.17"><polygon class="cls-1" points="101.86 106.56 91.86 112.14 30.27 5.92 40.13 0 101.18 0.79 132.05 54.07 101.86 106.56"/><polygon class="cls-2" points="91.92 112.17 30.87 111.39 0 58.11 30.18 5.62 91.24 6.4 122.11 59.68 91.92 112.17"/><use width="40.24" height="38.15" transform="translate(82.52 9.36)" xlink:href="#raised-tick"/><text class="cls-3" transform="translate(42.6 82.92)">£</text></symbol></defs><g id="Layer_2" data-name="Layer 2"><g id="MainLayer"><g id="stories" class="cls-7"><g id="attendancegroup"><g id="attendance4"><circle class="cls-8" cx="51.1" cy="47.65" r="35.19"/><circle class="cls-9" cx="51.1" cy="47.65" r="35.19"/><g id="attendance5"><rect class="cls-10" x="64.79" y="22.3" width="7.13" height="5" rx="2.5" transform="translate(-1.34 45.55) rotate(-36.52)"/><path class="cls-11" d="M63.76,48.8H46.7A2.67,2.67,0,0,1,44,45.65L49,9.88a3.74,3.74,0,0,1,3.59-3.15H69.67a2.68,2.68,0,0,1,2.71,3.15l-5,35.77A3.74,3.74,0,0,1,63.76,48.8Z"/><path class="cls-10" d="M56.87,61.5c9-1,10.82-10.21,14.36-20.36L44.8,39.4l-5.48,20,15.37,4.79Z"/><path class="cls-12" d="M48.87,49.43c3.5.55,2,3.81,8.39,2.23,3.7-.91,11.67-9.28,14-10.52L44.8,39.4,39.89,57.56l.71.19C42.67,53.59,46.8,53.59,48.87,49.43Z"/><path class="cls-13" d="M62.25,48.8H45.19a2.68,2.68,0,0,1-2.71-3.15l5-35.77A3.74,3.74,0,0,1,51.1,6.73H68.16a2.68,2.68,0,0,1,2.71,3.15l-5,35.77A3.74,3.74,0,0,1,62.25,48.8Z"/><path class="cls-14" d="M30.55,75.32l7.84-17.47c6.56.39,13.45,2.89,20.61,7L52.65,82.22A34.51,34.51,0,0,1,30.55,75.32Z"/><polygon class="cls-15" points="64.96 41.14 44.53 41.14 48.71 11.42 69.14 11.42 64.96 41.14"/><rect class="cls-10" x="64.26" y="33.45" width="6.78" height="4.74" rx="2.37" transform="translate(-8.63 29.36) rotate(-23.06)"/><rect class="cls-10" x="64.98" y="28.48" width="5.93" height="4.16" rx="2.08" transform="translate(-5.69 19.26) rotate(-15.5)"/><rect class="cls-10" x="65.27" y="38.76" width="5.93" height="4.16" rx="2.08" transform="translate(-8.43 19.72) rotate(-15.5)"/><rect class="cls-16" x="65.17" y="29.55" width="2.36" height="2.95" rx="1.15" transform="translate(-5.88 18.85) rotate(-15.5)"/><rect class="cls-16" x="64.63" y="35.01" width="2.69" height="3.2" rx="1.28" transform="translate(-9.22 30.39) rotate(-24.3)"/><rect class="cls-16" x="65.77" y="39.78" width="2" height="3.2" rx="1" transform="translate(-10.47 27.07) rotate(-21.29)"/><polygon class="cls-17" points="62.25 9.35 56.63 9.35 56.76 8.44 62.38 8.44 62.25 9.35"/><ellipse class="cls-17" cx="54.31" cy="44.58" rx="1.98" ry="1.72" transform="translate(-15.82 49.01) rotate(-42.99)"/><ellipse class="cls-18" cx="51.84" cy="14.61" rx="2.76" ry="2.4" transform="translate(3.96 39.27) rotate(-42.99)"/><text class="cls-19" transform="matrix(0.99, 0, -0.14, 0.99, 50.47, 15.96)">£</text><path d="M46.85,33.13l.38-2.7h.88a2.88,2.88,0,0,1,.64,0,.61.61,0,0,1,.35.26.81.81,0,0,1,.08.53.92.92,0,0,1-.15.42.81.81,0,0,1-.26.26.94.94,0,0,1-.3.13,2.91,2.91,0,0,1-.57,0h-.36l-.14,1Zm.86-2.24-.11.76h.3a1.46,1.46,0,0,0,.44,0,.43.43,0,0,0,.19-.13.4.4,0,0,0,.09-.21.35.35,0,0,0,0-.25.37.37,0,0,0-.21-.12h-.65Z"/><path d="M51.52,33.13h-.59l-.15-.62H49.7l-.31.62h-.58l1.43-2.7h.58Zm-.85-1.07-.24-1-.5,1Z"/><path d="M52.17,33.13,52.33,32l-.77-1.56h.64l.48,1.07.78-1.07h.62L52.87,32l-.16,1.13Z"/><path d="M54,33.13l.38-2.7h.81l.23,1.84.74-1.84H57l-.38,2.7h-.5l.3-2.13-.84,2.13H55L54.77,31l-.3,2.13Z"/><path d="M57.11,33.13l.38-2.7h2l-.06.46H58l-.08.59h1.35l-.06.46H57.82l-.1.73h1.51l-.07.46Z"/><path d="M59.63,33.13l.38-2.7h.53l.85,1.8.25-1.8h.51l-.38,2.7h-.55l-.84-1.76-.24,1.76Z"/><path d="M63,33.13l.32-2.24h-.8l.06-.46h2.15l-.07.46h-.8l-.31,2.24Z"/><path d="M45.49,37.65l.38-2.7H47a2.13,2.13,0,0,1,.62.07.55.55,0,0,1,.28.26.69.69,0,0,1,.05.43.82.82,0,0,1-.24.5,1.07,1.07,0,0,1-.57.25,1.43,1.43,0,0,1,.26.22,3.62,3.62,0,0,1,.24.44l.26.53h-.65L47,37.06a3,3,0,0,0-.23-.39.4.4,0,0,0-.15-.12.91.91,0,0,0-.27,0h-.11L46,37.65Zm.76-1.56h.4a2.46,2.46,0,0,0,.5,0,.31.31,0,0,0,.16-.12.34.34,0,0,0,.09-.2.31.31,0,0,0,0-.22.29.29,0,0,0-.19-.1h-.83Z"/><path d="M48.2,37.65l.38-2.7h2l-.06.46H49.06L49,36h1.35l-.06.45H48.92l-.11.73h1.51l-.06.46Z"/><path d="M52.58,36.66l.51.16a1.38,1.38,0,0,1-.5.66,1.33,1.33,0,0,1-.75.22,1,1,0,0,1-.83-.37,1.3,1.3,0,0,1-.2-1,1.73,1.73,0,0,1,.49-1,1.37,1.37,0,0,1,1-.37,1,1,0,0,1,.76.29.86.86,0,0,1,.21.5l-.56.12a.47.47,0,0,0-.15-.33.51.51,0,0,0-.35-.12.69.69,0,0,0-.52.22,1.23,1.23,0,0,0-.29.69,1,1,0,0,0,.09.73.5.5,0,0,0,.45.22.64.64,0,0,0,.39-.14A1,1,0,0,0,52.58,36.66Z"/><path d="M53.44,37.65l.38-2.7h2l-.07.46H54.3l-.09.6h1.36l-.07.45H54.15l-.1.73h1.5l-.06.46Z"/><path d="M55.94,37.65l.38-2.7h.54l-.38,2.7Z"/><path d="M57.69,37.65,57.1,35h.59l.41,2L59,35h.57l-1.34,2.7Z"/><path d="M59.51,37.65l.38-2.7h2l-.06.46H60.37l-.08.6h1.35l-.06.45H60.22l-.1.73h1.51l-.07.46Z"/><path d="M62.4,35h1a2,2,0,0,1,.5,0,.77.77,0,0,1,.38.25,1,1,0,0,1,.19.44,1.7,1.7,0,0,1,0,.64,1.82,1.82,0,0,1-.16.57,1.51,1.51,0,0,1-.36.48,1.13,1.13,0,0,1-.41.21,1.68,1.68,0,0,1-.49.06H62Zm.48.46-.25,1.78H63a1.43,1.43,0,0,0,.33,0,.66.66,0,0,0,.24-.11,1,1,0,0,0,.18-.26,2.15,2.15,0,0,0,.12-.5,1.57,1.57,0,0,0,0-.48.57.57,0,0,0-.11-.26.55.55,0,0,0-.24-.13,3.6,3.6,0,0,0-.44,0Z"/><ellipse class="cls-5" cx="57.35" cy="22.38" rx="4.95" ry="4.3" transform="translate(0.14 45.11) rotate(-42.99)"/><path class="cls-6" d="M56,24.54l-1.37-1.77a.36.36,0,0,1,.07-.52.38.38,0,0,1,.53.06l.87,1.13,3.8-3.39a.38.38,0,1,1,.5.56Z"/><path class="cls-10" d="M40.37,57.36l.42-4.49c-3.58-7.28-4.46-11.12-4-13.25,4-7.17,6.24-9.9,7.23-9.11,2.87,3.38,2.19,7.12-.9,11.12a22.55,22.55,0,0,1,6,8.4"/><path class="cls-16" d="M40.18,33.78a1,1,0,0,0,.64.36,5.47,5.47,0,0,0,2.75-3.66c-.06-.31-.22-.47-.51-.45A10.54,10.54,0,0,0,40.18,33.78Z"/></g><use width="132.05" height="112.18" transform="scale(0.3)" xlink:href="#hex-orange-pound"/></g></g></g></g></g></svg>