<svg xmlns="http://www.w3.org/2000/svg" xmlns:xlink="http://www.w3.org/1999/xlink" viewBox="0 0 120.96 124.51"><defs><style>.cls-1,.cls-14,.cls-22,.cls-30,.cls-35,.cls-38{fill:none;}.cls-2{fill:#5789ba;}.cls-3{fill:#65aff5;}.cls-4{fill:#466f96;}.cls-5{fill:#fafafa;}.cls-20,.cls-6{fill:#31ab94;}.cls-7{fill:#a0a7cb;}.cls-8{fill:#bfc3db;}.cls-9{fill:#298f7c;}.cls-10,.cls-15,.cls-23{fill:#fff;}.cls-11{fill:#add9d1;}.cls-12{opacity:0.86;}.cls-13{fill:url(#linear-gradient);}.cls-14{stroke:#8cc63f;stroke-width:2px;}.cls-14,.cls-15,.cls-16,.cls-17,.cls-18,.cls-19,.cls-20,.cls-21,.cls-22,.cls-30,.cls-35,.cls-38{stroke-miterlimit:10;}.cls-15,.cls-16,.cls-17,.cls-18,.cls-19,.cls-20,.cls-21,.cls-22{stroke:#4b9c4c;stroke-width:0.5px;}.cls-16{fill:url(#linear-gradient-2);}.cls-17{fill:url(#linear-gradient-3);}.cls-18{fill:url(#linear-gradient-4);}.cls-21{fill:url(#linear-gradient-5);}.cls-23{font-size:13.89px;font-family:Arial-BoldMT, Arial;font-weight:700;}.cls-24{letter-spacing:-0.04em;}.cls-25{clip-path:url(#clip-path);}.cls-26{fill:#ffb881;}.cls-27{fill:#c6645a;}.cls-28{fill:#a15149;}.cls-29{fill:#412a74;}.cls-30{stroke:#2e3192;}.cls-30,.cls-38{stroke-linecap:round;}.cls-31{fill:#d1d1d1;}.cls-32{fill:#ff9c50;}.cls-33{clip-path:url(#clip-path-2);}.cls-34{fill:#d68343;}.cls-35{stroke:#d97e34;}.cls-36{fill:url(#linear-gradient-6);}.cls-37{fill:#3c3378;}.cls-38{stroke:#3c3378;}</style><linearGradient id="linear-gradient" x1="58.47" y1="123.49" x2="61.7" y2="4.57" gradientUnits="userSpaceOnUse"><stop offset="0" stop-color="#cedcc8"/><stop offset="0.72" stop-color="#fff"/></linearGradient><linearGradient id="linear-gradient-2" x1="-160.02" y1="-3464.08" x2="-146.6" y2="-3470.8" gradientTransform="matrix(-0.05, -1, 1, -0.05, 3535.1, -302.22)" gradientUnits="userSpaceOnUse"><stop offset="0.56" stop-color="#fff"/><stop offset="1" stop-color="#add9d1"/></linearGradient><linearGradient id="linear-gradient-3" x1="-139.4" y1="-536.01" x2="-116.25" y2="-536.01" gradientTransform="matrix(0.98, -0.22, 0.22, 0.98, 330.29, 504.24)" xlink:href="#linear-gradient-2"/><linearGradient id="linear-gradient-4" x1="-137.58" y1="-510.48" x2="-117.18" y2="-510.48" gradientTransform="matrix(0.98, -0.22, 0.22, 0.98, 330.29, 504.24)" xlink:href="#linear-gradient-2"/><linearGradient id="linear-gradient-5" x1="169.4" y1="-177.49" x2="169.47" y2="-177.56" gradientTransform="translate(-69.94 221.98) rotate(-1.26)" xlink:href="#linear-gradient-2"/><clipPath id="clip-path"><polygon class="cls-1" points="34.63 76 18.46 75.79 10.28 61.68 19.57 42.93 37.36 44.8 42.62 62.09 34.63 76"/></clipPath><clipPath id="clip-path-2"><polygon class="cls-1" points="33.69 42.95 17.52 42.74 9.34 28.63 18.63 9.88 36.27 8.36 41.68 29.04 33.69 42.95"/></clipPath><linearGradient id="linear-gradient-6" x1="7072.42" y1="20.55" x2="7072.42" y2="15.81" gradientTransform="matrix(-1, 0, 0, 1, 7095.84, 0)" gradientUnits="userSpaceOnUse"><stop offset="0" stop-color="#a15149"/><stop offset="1" stop-color="#3c3378"/></linearGradient><symbol id="hex-connector" data-name="hex-connector" viewBox="0 0 14.01 15.06"><rect class="cls-6" width="14.01" height="15.06"/></symbol><symbol id="hex-data" data-name="hex-data" viewBox="0 0 132.05 112.17"><polygon class="cls-7" points="101.86 106.56 91.86 112.14 30.27 5.92 40.13 0 101.18 0.79 132.05 54.07 101.86 106.56"/><polygon class="cls-8" points="91.92 112.17 30.87 111.39 0 58.11 30.18 5.62 91.24 6.4 122.11 59.68 91.92 112.17"/><path class="cls-9" d="M128,24.36c.7,23.59-36.76,23.59-36.76,0S128.65.78,128,24.36Z"/><path class="cls-6" d="M124.48,27.14c.7,23.58-36.76,23.58-36.76,0S124.48,2.86,124.48,27.14Z"/><rect class="cls-10" x="97" y="17.83" width="3.01" height="18.36"/><rect class="cls-10" x="98.74" y="33.13" width="17.1" height="3.06"/><rect class="cls-10" x="113.32" y="28.55" width="2.52" height="6.84"/><rect class="cls-10" x="108.39" y="17.83" width="7.15" height="1.9"/><polygon class="cls-10" points="113.99 25.25 113.99 17.83 115.84 17.83 115.84 25.25 113.99 25.25"/><polygon class="cls-10" points="105.58 26.55 113.05 18.91 114.36 20.25 106.89 27.89 105.58 26.55"/><polygon class="cls-10" points="105.58 20.34 105.58 17.83 98.74 17.83 98.74 20.34 105.58 20.34"/></symbol><symbol id="hex-plain" data-name="hex-plain" viewBox="0 0 132.05 112.17"><polygon class="cls-6" points="101.86 106.56 91.86 112.14 30.27 5.92 40.13 0 101.18 0.79 132.05 54.07 101.86 106.56"/><polygon class="cls-11" points="91.92 112.17 30.87 111.39 0 58.11 30.18 5.62 91.24 6.4 122.11 59.68 91.92 112.17"/></symbol><symbol id="raised-tick" data-name="raised-tick" viewBox="0 0 40.24 38.15"><path class="cls-9" d="M40.23,17.69c.7,23.58-36.76,23.58-36.76,0S40.93-5.9,40.23,17.69Z"/><path class="cls-6" d="M36.76,20.46C37.46,44.05,0,44.05,0,20.46S36.76-3.82,36.76,20.46Z"/><polygon class="cls-10" points="5.51 21.98 13.24 31.2 31.27 13.89 28.34 11.13 13.38 24.96 8.7 19.44 5.51 21.98"/></symbol><symbol id="hex-green-tick" data-name="hex-green-tick" viewBox="0 0 132.05 112.17"><use width="132.05" height="112.18" xlink:href="#hex-plain"/><use width="40.24" height="38.15" transform="translate(87.72 6.67)" xlink:href="#raised-tick"/></symbol><symbol id="hex-blue-clock" data-name="hex-blue-clock" viewBox="0 0 132.05 112.17"><polygon class="cls-2" points="101.86 106.56 91.86 112.14 30.27 5.92 40.13 0 101.18 0.79 132.05 54.07 101.86 106.56"/><polygon class="cls-3" points="91.92 112.17 30.87 111.39 0 58.11 30.18 5.62 91.24 6.4 122.11 59.68 91.92 112.17"/><path class="cls-4" d="M124.71,25.66c.69,23.59-36.77,23.59-36.77,0S125.4,2.08,124.71,25.66Z"/><path class="cls-2" d="M121.24,28.44c.69,23.58-36.77,23.58-36.77,0S121.24,4.16,121.24,28.44Z"/><circle class="cls-5" cx="102.81" cy="28.31" r="13.83"/><path d="M102.8,42.47A14.17,14.17,0,1,1,117,28.31,14.18,14.18,0,0,1,102.8,42.47Zm0-27.67a13.51,13.51,0,1,0,13.51,13.51A13.52,13.52,0,0,0,102.8,14.8Z"/><polygon points="100.83 28.3 108.73 18.43 102.81 28.3 104.78 35.55 100.83 28.3"/><polygon points="102.15 14.47 103.17 17.54 104.12 14.47 102.15 14.47"/><polyline points="104.12 42.14 102.54 42.14 103.14 38.97"/><polyline points="88.97 28.04 88.97 29.62 91.61 28.96"/><polyline points="116.64 26.99 116.64 28.96 113.34 27.65"/></symbol><symbol id="logo-nhs" data-name="logo-nhs" viewBox="0 0 492.25 170.43"><path id="path10" class="cls-10" d="M186.92,0,152.41,162.06H98.25L64.2,49.91h-.47L41.09,162.06H0L34.79,0H89.15l33.37,112.4H123L145.86,0ZM354,2.79,320.13,164.85H276.51L291,95.43h-51.6l-14.46,69.42H181.32L215.17,2.79h43.61L246,64.8h51.55l12.85-62ZM492.25,10,481.73,42.24c-8.41-3.91-19.84-7.41-35.93-7.41-17.26,0-31.27,2.53-31.27,15.57,0,23,63.23,14.4,63.23,63.62,0,44.78-41.78,56.41-79.57,56.41-16.79,0-36.18-4-50.39-8.38l10.27-33c8.6,5.57,25.91,9.29,40.12,9.29,13.54,0,34.76-2.55,34.76-19.28,0-26-63.23-16.26-63.23-62,0-41.81,36.88-54.35,72.58-54.35,20.09,0,39,2.11,49.95,7.18"/></symbol><symbol id="symbol-health" data-name="symbol-health" viewBox="0 0 20.73 20.73"><circle class="cls-10" cx="10.37" cy="10.37" r="10.37"/><rect class="cls-6" x="7.85" y="3.01" width="4.29" height="14.97"/><polygon class="cls-6" points="2.73 12.66 2.73 8.42 17.7 8.42 17.7 12.66 2.73 12.66"/></symbol></defs><g id="Layer_2" data-name="Layer 2"><g id="MainLayer"><g id="stories" class="cls-12"><g id="attendancegroup"><g id="attendance3"><circle class="cls-13" cx="60.09" cy="64.03" r="59.48"/><circle class="cls-14" cx="60.48" cy="64.03" r="59.48"/><use width="14.01" height="15.06" transform="translate(54.01 90.8) scale(0.26)" xlink:href="#hex-connector"/><use width="132.05" height="112.18" transform="translate(38.7 93.93) scale(0.26)" xlink:href="#hex-data"/><path class="cls-15" d="M73.27,45.77c2.44-1.83,2.31-3.6,1.4-6L73,37.26a8.13,8.13,0,0,0-6.54.7l1.25,2.14c1.55-.87,3.09-1.47,4.21-.6,1.81,1.55,1.94,3.52,0,5.09Z"/><path class="cls-16" d="M81.69,24.27c-.58,6-3.92,10-8.86,12.8a2.17,2.17,0,0,0,1.57,2.62C81.46,35.92,84.67,31,84.13,24.9Z"/><path class="cls-15" d="M115.86,42.14c-.47-3-2.1-3.72-4.59-4l-3,.25a8.11,8.11,0,0,0-2.45,6.1l2.47-.1c0-1.78.16-3.42,1.45-4,2.21-.87,4-.06,4.5,2.39Z"/><path class="cls-17" d="M76.7,14.85c8.68,5.74,16.43,5.34,22.9-3.7C97.09.72,91.9-.59,86,.62,80.3,2.48,77.41,7.45,76.7,14.85Z"/><path class="cls-18" d="M81.33,26.61c1.66,12.18,13,25.74,17.12,21.77,3.65-3.54,6.35-16.91,2.42-25.67C97.84,15.94,80.49,20.52,81.33,26.61Z"/><path class="cls-19" d="M78.12,13.28c4.26,4,8.7,4,13,1-.23-6.14-4.09-8-7.88-7.57C80.05,7.85,79,9.4,78.12,13.28Z"/><ellipse class="cls-20" cx="80.66" cy="12.18" rx="0.84" ry="1.52" transform="translate(-0.7 18.09) rotate(-12.74)"/><ellipse class="cls-20" cx="84.81" cy="13.24" rx="0.84" ry="1.52" transform="translate(-0.83 19.03) rotate(-12.74)"/><path class="cls-21" d="M99.45,23.65c5.63,3.17,10.1,8.07,11.3,13.9.1,2.2-1.54,1.84-3,.78-1.52-5.65-5.16-8.44-10.07-12.43C97.66,25.31,98.37,23.62,99.45,23.65Z"/><path class="cls-15" d="M99.33,28.23A23.06,23.06,0,0,1,98.91,42"/><path class="cls-22" d="M84.1,24.85c4.48,2.61,13.86.51,14.11-2.63"/><use width="14.01" height="15.06" transform="matrix(0.14, -0.22, 0.22, 0.14, 39.71, 69.5)" xlink:href="#hex-connector"/><use width="14.01" height="15.06" transform="translate(26.84 42.93) scale(0.26)" xlink:href="#hex-connector"/><use width="132.05" height="112.18" transform="translate(9.58 13.76) scale(0.26)" xlink:href="#hex-plain"/><use width="132.05" height="112.18" transform="translate(10.28 46.74) scale(0.26)" xlink:href="#hex-plain"/><use width="14.01" height="15.06" transform="matrix(-0.14, -0.22, -0.22, 0.14, 44.17, 52.2)" xlink:href="#hex-connector"/><use width="14.01" height="15.06" transform="translate(56.53 58.04) scale(0.26)" xlink:href="#hex-connector"/><use width="132.05" height="112.18" transform="translate(39.27 28.86) scale(0.26)" xlink:href="#hex-green-tick"/><use width="132.05" height="112.18" transform="translate(39.97 61.85) scale(0.26)" xlink:href="#hex-green-tick"/><use width="14.01" height="15.06" transform="matrix(0.14, -0.22, 0.22, 0.14, 68.5, 51.6)" xlink:href="#hex-connector"/><use width="132.05" height="112.18" transform="translate(69.05 43.37) scale(0.26)" xlink:href="#hex-blue-clock"/><text class="cls-23" transform="translate(45.69 48.93)">A<tspan class="cls-24" x="10.03" y="0">A</tspan></text><g class="cls-25"><path class="cls-26" d="M32,64.76c-1.61,1.85-.69,4,.73,13.68a9.05,9.05,0,0,0,1.4,3.67,3.23,3.23,0,0,0,5.94-1,81.08,81.08,0,0,0-4-16.31,2.52,2.52,0,0,0-1.65-1.35C33.23,63.31,32.27,64.42,32,64.76Z"/><path class="cls-26" d="M34.94,63.87l1.37,12.34c-5,2.89-11,2.61-17.75.09L17.13,63.87C23.73,60.51,29.62,60.77,34.94,63.87Z"/><path class="cls-26" d="M17.38,63.42c-2.27.94-2.4,3.27-5.46,12.57a8.9,8.9,0,0,0-.39,3.9,3.22,3.22,0,0,0,5.74,1.8A81,81,0,0,0,21,65.31a2.52,2.52,0,0,0-.87-2C19.15,62.69,17.79,63.25,17.38,63.42Z"/><path class="cls-27" d="M23.91,57.34l-.15,6.06c.89.84-.14-.08,2.77,1.07.78.58,4.33.53,4.57,0l-.88-3.83Z"/><path class="cls-28" d="M31,63.6c-4.64-1.05-6.52-3.46-6.47-5.5l6.29,4.07Z"/><path class="cls-27" d="M35,50.64c.63,4.15.74,7.46.14,9.92s-4.2,1.92-4.75,1.92c-4,0-6.06-3.63-6.16-3.8A19.2,19.2,0,0,1,23,50.86c.11-2.26.19-4,1.48-5.3,1.91-1.93,5.55-2.05,7.81-.48C33.74,46.1,34.55,47.55,35,50.64Z"/><ellipse class="cls-29" cx="28.82" cy="53.41" rx="0.64" ry="0.88"/><ellipse class="cls-29" cx="33.27" cy="53.19" rx="0.64" ry="0.88"/><polygon class="cls-28" points="30.76 56.22 32.44 56.12 31.66 52.62 31.59 52.64 31.95 55.76 30.79 56.15 30.76 56.22"/><polygon class="cls-29" points="32.02 55.81 31.59 52.52 31.5 52.53 31.82 55.81 32.02 55.81"/><path class="cls-30" d="M34.29,51.26a1.4,1.4,0,0,0-1.4,0"/><path class="cls-30" d="M29.44,51.36a1.4,1.4,0,0,0-1.4,0"/><path class="cls-31" d="M24.56,53.54l1.09-.43A7.1,7.1,0,0,0,26,49.17c-.57-2.76-.32-3.78.19-4.06,1.06-.57,3.51,2,4.23,1.43.39-.32-.11-1.22.33-1.56.59-.44,2.08.68,2.13.6a4.09,4.09,0,0,0-1.74-1.19,6.71,6.71,0,0,0-4.45-.18,5.56,5.56,0,0,0-3.29,2.43,5.45,5.45,0,0,0-.67,3.55l-.07,2.37Z"/><path class="cls-27" d="M25,53.88c-.44-1.24-1.84-2.17-2.49-1.84s-.64,2.35.26,3.57c.07.09.92,1.22,1.62,1S25.4,55,25,53.88Z"/><path class="cls-28" d="M22.94,52.51c.67-.11,1.45,2.24,1.44,2.26h0c-.05,0-.47-.24-.63-.09a.31.31,0,0,0-.07.12.23.23,0,0,1,.07-.19c.15-.14.53.07.62.14-.13-.22-.77-1.93-1.34-2-.2,0-.42.16-.45.12S22.74,52.54,22.94,52.51Z"/><path class="cls-28" d="M29.74,54a1.56,1.56,0,0,1-2.15.55c.56.77,1.26.86,2.2-.24Z"/><path class="cls-28" d="M32.59,53.88c.42.78.93,1,1.53.55-.4.77-.9.86-1.57-.24Z"/><path class="cls-32" d="M29,64.84l1.84,2.86c1.22-1.7,1.87-3.1,1.28-5.21a8.56,8.56,0,0,1-1.43,0C30.83,64.53,30.18,64.73,29,64.84Z"/><path class="cls-32" d="M23.81,60.11C24.7,63.6,26.42,65,29,64.83l-2.12,3.53c-2.28-1.6-4.17-3.86-4.14-6.72Z"/></g><g class="cls-33"><path class="cls-32" d="M31.3,32.59c-1.55,1.78-.66,3.82.7,13.11a8.57,8.57,0,0,0,1.34,3.52A3.09,3.09,0,0,0,39,48.29a78,78,0,0,0-3.85-15.63,2.44,2.44,0,0,0-1.58-1.29C32.5,31.2,31.57,32.27,31.3,32.59Z"/><path class="cls-32" d="M34.14,31.74,35,48.48c-4.79,2.77-14.16,1.57-20.62-.85-.14-9.77.89-14.77,3-15.87C23.72,28.54,29,28.77,34.14,31.74Z"/><path class="cls-34" d="M33.2,31.9a2.64,2.64,0,0,0,.6-1.75,2.71,2.71,0,0,0-1.88-2.31c-4.1-.75-8.22-1.8-12.08.53-.77.46-.62-.34-.83,1.6-.13,1.23.71.42,1.21.66C25.39,33.14,29,37.86,33.2,31.9Z"/><path class="cls-35" d="M34,49.87a44.67,44.67,0,0,1-.08-15.12"/><path class="cls-32" d="M33.23,31.31a2.59,2.59,0,0,0,.6-1.74,2.72,2.72,0,0,0-1.89-2.32c-4.09-.74-8.21-1.79-12.07.54a5,5,0,0,0-2.58,3.57c-.13,1.23,2.38-.92,2.88-.71C25.91,33.12,30.07,37.19,33.23,31.31Z"/><path class="cls-34" d="M28.15,32.86c-4-1.43-6.29-1.6-8.17-3.71,3.85-3.43,7.68-3.33,12.08-.39C31.88,30.56,30.53,31.34,28.15,32.86Z"/><path class="cls-34" d="M27.36,33c-.7,2.78-1.39,5.55-.47,8-.15.28-.27.33-.31-.06-1.09-2.51-.15-5.3.56-8.06Z"/><path class="cls-34" d="M28.85,33.21c.63,2.78,1.25,5.55.42,8,.14.27.24.32.28-.06,1-2.51.13-5.3-.5-8.06Z"/><path class="cls-27" d="M22.85,24.18,22.71,30c.86.81,2.62,1.67,5.4,2.77.26.16,1.13-.64,1.69-.91l-.9-4.54Z"/><path class="cls-28" d="M29.47,30.2c-4.45-1-6.11-3.33-6.07-5.29l6,3.9Z"/><path class="cls-27" d="M33.41,17.81c.61,4,.71,7.15.14,9.51s-4,1.84-4.55,1.84c-3.8,0-5.82-3.48-5.91-3.64A18.67,18.67,0,0,1,21.87,18c.11-2.17.19-3.82,1.43-5.08a6.18,6.18,0,0,1,7.47-.46C32.18,13.46,33,14.85,33.41,17.81Z"/><ellipse class="cls-29" cx="27.56" cy="20.42" rx="0.61" ry="0.84"/><ellipse class="cls-29" cx="31.82" cy="20.21" rx="0.61" ry="0.84"/><polygon class="cls-28" points="29.42 23.11 31.03 23.02 30.28 19.66 30.22 19.68 30.56 22.67 29.44 23.05 29.42 23.11"/><polygon class="cls-29" points="30.63 22.72 30.22 19.57 30.12 19.58 30.43 22.72 30.63 22.72"/><path class="cls-30" d="M32.76,18.63a1,1,0,0,0-1.24-.51"/><path class="cls-30" d="M28,18.21c-.75-.22-1.11.08-1.25.5"/><path class="cls-36" d="M24.52,20.13l-1,.42L21.7,19.6l.06-2.27a6.33,6.33,0,0,1,0-1.52h3.33c-.09.18-.17.37-.25.54A6.48,6.48,0,0,0,24.52,20.13Z"/><path class="cls-27" d="M23.91,20.86c-.42-1.18-1.77-2.07-2.38-1.75s-.62,2.25.24,3.42c.07.08.88,1.17,1.55,1S24.28,21.9,23.91,20.86Z"/><path class="cls-28" d="M21.93,19.55c.64-.1,1.39,2.15,1.37,2.17h0c-.05,0-.46-.23-.61-.08s-.06.11-.07.11a.27.27,0,0,1,.07-.19c.14-.13.51.08.6.14-.13-.21-.74-1.84-1.29-1.93-.18,0-.4.15-.42.11S21.74,19.58,21.93,19.55Z"/><path class="cls-37" d="M21,14.23a1.17,1.17,0,0,1-.19-.63,1.37,1.37,0,0,1,1.45-1.26h0a1.26,1.26,0,0,1,0-.28A1.36,1.36,0,0,1,23.7,10.8a1.6,1.6,0,0,1,.79.2,1.36,1.36,0,0,1,1.44-1.25,1.57,1.57,0,0,1,1,.36,1.44,1.44,0,0,1,1.37-.86,1.47,1.47,0,0,1,1.23.61,1.52,1.52,0,0,1,1.18-.52,1.37,1.37,0,0,1,1.44,1.23,1.51,1.51,0,0,1,.53-.09,1.37,1.37,0,0,1,1.45,1.26,1.36,1.36,0,0,1-.06.36,1.17,1.17,0,0,1,.37.84V13a1.24,1.24,0,0,1,.72,1.09,1.46,1.46,0,0,1-2.89,0,6.38,6.38,0,0,0-1.8-.54,5.72,5.72,0,0,0-1.35.27c-1.71.39-2,.13-2.62.45a3,3,0,0,0-1.37,1.53H23.09a1.45,1.45,0,0,1-1.31.74,1.36,1.36,0,0,1-1.45-1.26A1.23,1.23,0,0,1,21,14.23Z"/><path class="cls-38" d="M27.29,13.76C26,15.16,25,16.57,25.26,18"/><path class="cls-38" d="M30.47,13.09c2.24.78,2.57,2.35,3.68,3.51"/><path class="cls-32" d="M29.14,34.38a10.44,10.44,0,0,0-9.68-5.62l-.74,2.15C21.6,30.08,25.19,32.41,29.14,34.38Z"/><path class="cls-35" d="M19.81,51a44.67,44.67,0,0,1-.08-15.12"/></g><use width="492.25" height="170.43" transform="translate(45.02 104.91) scale(0.04)" xlink:href="#logo-nhs"/><use width="20.73" height="20.73" transform="translate(47.24 68.27) scale(0.83)" xlink:href="#symbol-health"/><polygon class="cls-10" points="84.42 57.8 80.85 48.93 74.94 59.06 84.42 57.8"/><polygon class="cls-10" points="89.54 60.79 86.04 52.11 80.27 62.02 89.54 60.79"/><polygon class="cls-10" points="94.67 63.78 91.18 55.1 85.4 65.01 94.67 63.78"/></g></g></g></g></g></svg>