<svg xmlns="http://www.w3.org/2000/svg" xmlns:xlink="http://www.w3.org/1999/xlink" viewBox="0 0 148.99 151.07"><defs><style>.cls-1,.cls-25,.cls-34,.cls-35,.cls-38{fill:none;}.cls-2{opacity:0.86;}.cls-3{clip-path:url(#clip-path);}.cls-4{fill:#d4f3ff;}.cls-5{fill:#b9e2d0;}.cls-6{fill:#c7cfcb;}.cls-7{fill:#969182;}.cls-8{fill:#b0b0b0;}.cls-9{fill:#bebebd;}.cls-10{fill:#daaf9a;}.cls-11{fill:#f0c9b7;}.cls-12{fill:#f8c7a3;}.cls-13{fill:#6585f5;}.cls-14{fill:#40485b;}.cls-15{fill:#2b303d;}.cls-16{fill:#858585;}.cls-17{fill:#5e5e5e;}.cls-18,.cls-41,.cls-42,.cls-45,.cls-46{fill:#fff;}.cls-19{fill:#733e2c;}.cls-20{fill:#5e7280;}.cls-21{fill:#96523e;}.cls-22{fill:#e3b696;}.cls-23{fill:#f5f5f5;}.cls-24{fill:#412a74;}.cls-25{stroke:#2e3192;stroke-linecap:round;}.cls-25,.cls-34,.cls-35,.cls-38{stroke-miterlimit:10;}.cls-25,.cls-34{stroke-width:0.25px;}.cls-26{fill:#a67c52;}.cls-27{fill:#ebf4ff;opacity:0.34;}.cls-28{fill:#247d6c;}.cls-29{fill:#95553d;}.cls-30{fill:#3e5486;}.cls-31{fill:#00a99d;}.cls-32{fill:#fbfbfb;}.cls-33{fill:#39827d;}.cls-34{stroke:#247d6c;}.cls-35{stroke:#0071bc;}.cls-36{fill:#d9ae8e;}.cls-37{fill:#e6e6e6;}.cls-38{stroke:#1b1464;stroke-width:2px;opacity:0.22;}.cls-39{fill:url(#linear-gradient);}.cls-40{font-size:9px;}.cls-40,.cls-45{font-family:Arial-BoldMT, Arial;font-weight:700;}.cls-41{font-size:1.61px;}.cls-41,.cls-42{font-family:ArialRoundedMTBold, Arial Rounded MT Bold;}.cls-42{font-size:1.83px;}.cls-43{fill:#ccc;}.cls-44{fill:#0071bc;}.cls-45{font-size:10px;}.cls-46{opacity:0.53;}</style><clipPath id="clip-path" transform="translate(6.98)"><ellipse class="cls-1" cx="52.37" cy="96.09" rx="51.37" ry="50.57"/></clipPath><linearGradient id="linear-gradient" x1="87.19" y1="1.84" x2="148.99" y2="1.84" gradientUnits="userSpaceOnUse"><stop offset="0.43" stop-color="#7e7494"/><stop offset="1" stop-color="#625a73"/></linearGradient></defs><g id="Layer_2" data-name="Layer 2"><g id="MainLayer"><g id="stories" class="cls-2"><g id="bereavementgroup"><g id="bereavement5"><g id="bereavement6"><g class="cls-3"><ellipse class="cls-4" cx="60.11" cy="96.09" rx="54.73" ry="53.88"/><path class="cls-5" d="M114,150.35H-5.55l0-52.34c58.52-8.83,50.61,3.57,119.37,0Z" transform="translate(6.98)"/><polygon class="cls-6" points="119.53 151.07 0 151.07 0 121.44 113.14 116.95 119.53 151.07"/><path class="cls-5" d="M39.7,62.9c-.07,2.06,1.68,5.5,4.37,7,1.63.89,2.75.58,5.12,2a16.91,16.91,0,0,1,3.5,2.91c2.76,2.77,2.39,3.52,3.75,4.34,2.68,1.6,7.08.53,9.5-1.73a42.54,42.54,0,0,0,3.45-5.35c1.82-3,1.82-3.17,2.42-3.8,2.39-2.5,4.54-1.94,5.7-3.45,1.87-2.43-.09-8.5-3.48-11.52C64.73,45,40,55.41,39.7,62.9Z" transform="translate(6.98)"/><path class="cls-7" d="M61.72,66.61c-3.6,14.1-2.35,23.8,2.9,34.62" transform="translate(6.98)"/><polygon class="cls-8" points="22.03 134.31 24.33 130.93 24.33 115.59 22.03 115.59 22.03 134.31"/><rect class="cls-9" x="90.37" y="115.59" width="3.79" height="18.93"/><polygon class="cls-8" points="87.86 131.77 90.38 134.52 90.38 115.8 87.86 115.8 87.86 131.77"/><rect class="cls-9" x="18.44" y="115.59" width="3.61" height="18.72"/><rect class="cls-10" x="12.39" y="112.45" width="85.71" height="2.53"/><rect class="cls-9" x="21.68" y="84.26" width="5.16" height="26.73"/><rect class="cls-9" x="84.41" y="84.26" width="5.16" height="27.1"/><polygon class="cls-11" points="98.05 112.5 12.52 112.5 17.18 110.15 93.21 110.15 98.05 112.5"/><rect class="cls-11" x="17.46" y="86.19" width="76.04" height="4.77"/><rect class="cls-11" x="17.46" y="93.54" width="76.04" height="4.77"/><rect class="cls-11" x="17.46" y="101.05" width="76.04" height="4.77"/><rect class="cls-10" x="7.01" y="116.24" width="97" height="2.55"/><polygon class="cls-11" points="104.15 116.29 6.96 116.29 11.62 113.92 99.31 113.92 104.15 116.29"/><polygon class="cls-12" points="90 93 93.17 86.45 94.79 90.12 91.87 94.95 90 93"/><path class="cls-13" d="M72.61,88.56c-1.06,1.7-.12,3.36,2,11.2a7.51,7.51,0,0,0,1.47,2.87,2.49,2.49,0,0,0,4.51-1.42,69.59,69.59,0,0,0-4.82-13,2,2,0,0,0-1.43-.94C73.43,87.24,72.8,88.26,72.61,88.56Z" transform="translate(6.98)"/><path class="cls-13" d="M78.52,103.42c1.87-.13,2.35-1.63,6.22-7.1a5,5,0,0,0,.6-1.1c.22-.54.6-1.17.34-1.39a12.23,12.23,0,0,0-4.06-2.44,48.13,48.13,0,0,0-5.52,10,1.71,1.71,0,0,0,.35,1.48A2.7,2.7,0,0,0,78.52,103.42Z" transform="translate(6.98)"/><path class="cls-14" d="M85.66,93.05l-4.09.53a.37.37,0,0,1-.31-.13l0,0a.37.37,0,0,1-.07-.35l2-6.95a.35.35,0,0,1,.32-.26L87,85.71a.31.31,0,0,1,.26.11l.15.15a.36.36,0,0,1,.09.36L86,92.77A.35.35,0,0,1,85.66,93.05Z" transform="translate(6.98)"/><path class="cls-15" d="M85.44,93.38l-3.35.17a.52.52,0,0,1-.51-.68l1.81-6.33a.5.5,0,0,1,.45-.37L87.19,86a.52.52,0,0,1,.51.68L85.89,93A.51.51,0,0,1,85.44,93.38Z" transform="translate(6.98)"/><ellipse class="cls-16" cx="84.1" cy="86.97" rx="0.48" ry="0.35" transform="translate(-24.8 121.74) rotate(-62.66)"/><ellipse class="cls-17" cx="84.09" cy="86.95" rx="0.29" ry="0.21" transform="translate(-24.79 121.72) rotate(-62.66)"/><ellipse class="cls-18" cx="84.09" cy="86.95" rx="0.21" ry="0.16" transform="translate(-24.79 121.72) rotate(-62.66)"/><path class="cls-12" d="M85.59,93.7a7.82,7.82,0,0,0,2.5-2.81l.5-2.63A2.1,2.1,0,0,0,87.44,87c-.43-.14-1.09-.1-1.18.15a.24.24,0,0,0,0,.14c.12.26.76.06,1.12.36a.87.87,0,0,1,.25.66,2.06,2.06,0,0,1-.43.4A2.76,2.76,0,0,0,86,88.47c-.82,0-1.67.48-1.61.73a.5.5,0,0,0,.05.07c.33.3,1.41-.11,1.57-.18l1.16.27A3.69,3.69,0,0,0,86,89.29c-.75.08-1.61.43-1.55.66a.06.06,0,0,0,0,0c.2.27,1.38,0,1.72-.06l.92.08a4,4,0,0,0-1.23.19c-.51.16-.53.31-.53.35a.27.27,0,0,0,0,.11c.13.14.47,0,1-.08a5.54,5.54,0,0,1,.8-.1C87.22,91.24,86.34,92.5,85.59,93.7Z" transform="translate(6.98)"/><polyline points="68.29 135.26 67.04 134.98 63.2 136.4 64.53 137.12 68.17 135.74"/><polygon class="cls-19" points="67.89 137.88 67.8 138.81 65.25 139.45 64.72 138.94 67.89 137.88"/><path class="cls-20" d="M59.32,107.89l-6.16,9.22,2.24,18.63c2.64.32,4.13,1.22,6-.66-.71-6-.74-14.84-1.41-17.42l8.08-9Z" transform="translate(6.98)"/><path class="cls-20" d="M65.22,111l-1.92,7.76,3.88,17.74c2.63-.06,5.15.64,6.68-1L70.77,119l3.8-6.19Z" transform="translate(6.98)"/><path class="cls-21" d="M68,136.56l.06,2.61a3.65,3.65,0,0,0,.44,3.14,4.93,4.93,0,0,0,4.78.18,2.39,2.39,0,0,0,.85-2.44,8.53,8.53,0,0,0-1.78-3.62Z" transform="translate(6.98)"/><path class="cls-19" d="M68.1,136.19a12.32,12.32,0,0,0,.75,4.47c1.31.52,2.6.77,3.74-.15a5.87,5.87,0,0,0-.4-4.34A4.62,4.62,0,0,0,68.1,136.19Z" transform="translate(6.98)"/><path class="cls-20" d="M59.34,109l15.59-.61c.19,2.73.12,5-1.23,5.36a36.26,36.26,0,0,1-14.74.62Z" transform="translate(6.98)"/><path class="cls-13" d="M60.47,85.56c-2.67.94-1.6,14.35-1.95,23,3.71,2.89,10.71,1,16.43-.29-1.75-4.12-1-12.31-.11-20.74C69.89,84.11,65.12,83.66,60.47,85.56Z" transform="translate(6.98)"/><path class="cls-12" d="M69.22,80.25l.46,4.91c-.67.74.27.87-2,2-.6.51-3.64-.25-3.87-.69l.5-3.17Z" transform="translate(6.98)"/><path class="cls-22" d="M64,85.06c3.72-1.12,5.41-2,5.26-3.71l-5,1.92Z" transform="translate(6.98)"/><path class="cls-13" d="M62,94.31c-2,2.82-4.08,6.2-5.53,6.74l-3.55-2.8c2.34-4.94,4.75-11.37,6.87-11.79Z" transform="translate(6.98)"/><path class="cls-23" d="M65.14,87l-1.81,2.1c-.8-1.51-1.16-2.71-.44-4.35a3.42,3.42,0,0,1,1.22-.37C63.8,86,64.22,86.79,65.14,87Z" transform="translate(6.98)"/><path class="cls-23" d="M69.88,83.77c-1.11,2.72-2.66,3.64-4.75,3.23l1.31,3.08c2-1,3.8-2.65,4.09-5Z" transform="translate(6.98)"/><path class="cls-12" d="M73.7,78.29a22,22,0,0,1-1,8c-.73,1.88-3.6,1.09-4,1a6.29,6.29,0,0,1-4.56-3.74A15.69,15.69,0,0,1,64,77.15c.33-1.81.4-3.51,1.78-4.11,1.78-.77,4.74-.31,6.34.46C73.39,74.14,73.65,75.74,73.7,78.29Z" transform="translate(6.98)"/><ellipse class="cls-24" cx="68.39" cy="79.85" rx="0.71" ry="0.52" transform="translate(-12.89 136.98) rotate(-82.33)"/><ellipse class="cls-24" cx="72" cy="80.16" rx="0.71" ry="0.52" transform="translate(-10.07 140.83) rotate(-82.33)"/><polygon class="cls-22" points="76.63 82.32 77.99 82.43 77.75 79.52 77.69 79.53 77.64 82.08 76.65 82.28 76.63 82.32"/><polygon class="cls-24" points="77.69 82.14 77.7 79.44 77.62 79.43 77.52 82.11 77.69 82.14"/><path class="cls-25" d="M73,78.71a1.1,1.1,0,0,0-1.13-.12" transform="translate(6.98)"/><path class="cls-25" d="M69.11,78.26A1.15,1.15,0,0,0,68,78.14" transform="translate(6.98)"/><path class="cls-26" d="M64.94,79.49l.92-.23a5.72,5.72,0,0,0,.75-3.14A4.32,4.32,0,0,0,64,75.75c-.42,0-.47,1.23-.42,2.75Z" transform="translate(6.98)"/><path class="cls-12" d="M65.27,79.81c-.22-1-1.26-2-1.81-1.75s-.77,1.83-.18,2.91c0,.08.6,1.09,1.19,1S65.46,80.73,65.27,79.81Z" transform="translate(6.98)"/><path class="cls-22" d="M63.74,78.48c.55,0,.93,2,.92,2h0s-.36-.24-.51-.13-.06.08-.07.08a.27.27,0,0,1,.08-.15c.14-.09.42.12.49.19-.08-.19-.41-1.64-.86-1.78-.16,0-.36.09-.38,0S63.58,78.49,63.74,78.48Z" transform="translate(6.98)"/><path class="cls-22" d="M69.07,80.43a1.27,1.27,0,0,1-1.8.21c.38.68.93.84,1.8,0Z" transform="translate(6.98)"/><path class="cls-22" d="M71.38,80.64c.25.67.64.89,1.18.61-.41.57-.82.59-1.24-.36Z" transform="translate(6.98)"/><path class="cls-26" d="M70.49,82.66c.21,0,1.33.18,1.64.93.13.35.1.82,0,.85s-.13-.16-.34-.2-.28.09-.45,0-.16-.2-.29-.22-.22.17-.39.17-.22-.24-.45-.29-.3.16-.51.12-.22-.29-.45-.34-.34.22-.61.17-.24-.23-.43-.24-.42.29-.48.25,0-.59.36-.93C68.76,82.2,70.25,82.59,70.49,82.66Z" transform="translate(6.98)"/><path class="cls-27" d="M74.12,81.2a1.92,1.92,0,0,1-2.91-.39,1.9,1.9,0,0,1,.23-1.7,8.19,8.19,0,0,1,2.91.39A1.92,1.92,0,0,1,74.12,81.2Z" transform="translate(6.98)"/><path class="cls-28" d="M72.56,81.78a1.84,1.84,0,0,1-1.44-.93,2,2,0,0,1,.24-1.79l0,0h.05a8.43,8.43,0,0,1,2.95.4h0l0,0a2,2,0,0,1-.25,1.79h0A1.85,1.85,0,0,1,72.56,81.78ZM71.49,79.2a1.76,1.76,0,0,0-.2,1.57,1.83,1.83,0,0,0,2.76.37h0a1.81,1.81,0,0,0,.22-1.57A8.17,8.17,0,0,0,71.49,79.2Z" transform="translate(6.98)"/><path class="cls-27" d="M70,80.74a2.11,2.11,0,0,1-3.19-.43A2,2,0,0,1,67,78.6a6.51,6.51,0,0,1,3.19.43A2,2,0,0,1,70,80.74Z" transform="translate(6.98)"/><path class="cls-28" d="M68.25,81.35a2,2,0,0,1-1.58-1,2.08,2.08,0,0,1,.24-1.79l0,0h0a6.4,6.4,0,0,1,3.25.44l0,0v0A2,2,0,0,1,70,80.8h0A2,2,0,0,1,68.25,81.35ZM67,78.69a1.93,1.93,0,0,0-.2,1.58,1.81,1.81,0,0,0,1.43.9,1.78,1.78,0,0,0,1.61-.49h0a1.83,1.83,0,0,0,.22-1.58A6.17,6.17,0,0,0,67,78.69Z" transform="translate(6.98)"/><path class="cls-28" d="M70.23,79.38a.65.65,0,0,1,1,.08v.17a.66.66,0,0,0-.93-.16Z" transform="translate(6.98)"/><polygon class="cls-28" points="73.78 78.93 72.09 79.37 72.14 79.5 73.7 79.15 73.78 78.93"/><path class="cls-19" d="M49.67,139.14l-.27.21a1.53,1.53,0,0,0,.18.62,2.05,2.05,0,0,0,.91.83,4.29,4.29,0,0,0,1.33.45,6.3,6.3,0,0,0,1.19,0,7.86,7.86,0,0,0,1.79-.22,4.67,4.67,0,0,0,2.08-1.32" transform="translate(6.98)"/><path class="cls-29" d="M49.93,138.58a.71.71,0,0,0-.23,1c2.89,2.17,4.62,1.67,7,.29a1.37,1.37,0,0,1,1.08-.75,5.93,5.93,0,0,0,3.11-1,4,4,0,0,0,.39-2.84,5.45,5.45,0,0,1-3.54,1.35Z" transform="translate(6.98)"/><path class="cls-19" d="M49.83,138.67a13.39,13.39,0,0,0,3.91-1.86,13.14,13.14,0,0,0,1.63-1.35,2.57,2.57,0,0,1,4.81.54,11.08,11.08,0,0,1-7.72,3.15A9.35,9.35,0,0,1,49.83,138.67Z" transform="translate(6.98)"/><path class="cls-12" d="M56.94,108.4l.89,1.71a10.41,10.41,0,0,0,1.13,3c1.23,1.08,2.95.44,4.86-.93.6-.73-1.58-2-3.44-3.19l-1-1.88Z" transform="translate(6.98)"/><path class="cls-13" d="M53.72,97.05c-3.31,3.15.2,7.64,2.6,11.92a6.33,6.33,0,0,0,4.57-1.73A62.17,62.17,0,0,0,56.49,98Z" transform="translate(6.98)"/><path class="cls-1" d="M28.35,132v0h0Z" transform="translate(6.98)"/><path class="cls-12" d="M26,133.56c.65.31,1.66.61,2.12.15.2-.19.25-.46.24-1.22,0-.24,0-.28,0-.45v0h0v0l9.16-13.61-5.43-.55c-2.56,4.55-4.69,8.84-5.33,12.22l-.36.46.06-.1-.38.33C25.44,131.47,24.89,133,26,133.56Z" transform="translate(6.98)"/><path class="cls-30" d="M28.35,132h0v0Z" transform="translate(6.98)"/><path class="cls-30" d="M29.66,136c-.32-1.11-.94-3.06-1.31-4,.46,4.15-4.86.79-2-1.53C20.79,131.09,30,143.25,29.66,136Z" transform="translate(6.98)"/><path class="cls-1" d="M40,134.55v0h0Z" transform="translate(6.98)"/><path class="cls-12" d="M38.51,136.9c.72,0,1.76-.13,2-.74.09-.26,0-.52-.29-1.21-.11-.22-.12-.25-.2-.4v0h0l0,0h0l2.73-16.18-5.18,1.75c-.45,5.2-.61,10,.19,13.33l-.13.57a.5.5,0,0,1,0-.12c-.07.13-.14.28-.22.45C37.14,135.23,37.28,136.87,38.51,136.9Z" transform="translate(6.98)"/><path class="cls-30" d="M40,134.52v0h0Z" transform="translate(6.98)"/><path class="cls-30" d="M42.85,137.62c-.74-.88-2.12-2.4-2.83-3.07,2.14,3.58-4.1,2.72-2.47-.57C32.74,136.8,46.11,144.09,42.85,137.62Z" transform="translate(6.98)"/><path class="cls-31" d="M21.39,107.63c-1,2-1,3.54-.37,4.83,1.35,2.47,6.46,4.93,9.74,6.15L30,121.27c1.66.42.83.35,3.4.38a27.54,27.54,0,0,0,9.4-1.54,5.83,5.83,0,0,0,.11-3.91c-.47-1.33-1.38-2.12-5.21-5.09-1-.75-2.18-1.68-3.58-2.74Z" transform="translate(6.98)"/><path class="cls-24" d="M32.52,74.28a5.05,5.05,0,0,0-3.73-.7c-4.11,1-6.42,9-4,12.36.88,1.21,2.26,1.64,3.71,4a12.47,12.47,0,0,1,1.23,2.62l6.05,1.58A13.38,13.38,0,0,1,34.66,88c.12-2,.66-2.49,1.13-5.66s.77-5.32-.51-6.74A4.39,4.39,0,0,0,32.52,74.28Z" transform="translate(6.98)"/><path class="cls-32" d="M34.73,87.92l-.12,18.49c-3.65,1.88-8.06,1.69-13,.06l.08-18.55C26.53,85.74,30.83,85.91,34.73,87.92Z" transform="translate(6.98)"/><path class="cls-33" d="M34.66,104.59l0,3c-4.07,1.4-8.52,1.11-13.21-.27l.05-3.1A24.83,24.83,0,0,0,34.66,104.59Z" transform="translate(6.98)"/><path class="cls-31" d="M26.33,86.46c.32,2.71.53,5.65.72,8.77.16,2.49.28,4.34.25,6.75a44.05,44.05,0,0,1-.67,7.1,5.76,5.76,0,0,1-5.5-1.41l.81-20.09A15.33,15.33,0,0,1,26.33,86.46Z" transform="translate(6.98)"/><path class="cls-31" d="M31.36,86.61q-.21,3.56-.26,7.43c0,2.87,0,5.63.11,8.26s.1,4,.13,6.71l3.4-.69.11-20.65A9,9,0,0,0,31.36,86.61Z" transform="translate(6.98)"/><path class="cls-34" d="M27.28,104.78c-.29,1.79-.76,4.09-.53,4.36a6.27,6.27,0,0,1-5.62-1.43" transform="translate(6.98)"/><path class="cls-34" d="M34.74,108.32l-3.37.66c-.28-9.47-.56-17.43,0-22.29" transform="translate(6.98)"/><path class="cls-34" d="M27.2,99.91c-.13-4.4-.35-8.9-.82-12.91" transform="translate(6.98)"/><line class="cls-35" x1="41.7" y1="101.75" x2="41.38" y2="91.87"/><polyline class="cls-34" points="33.16 95.41 33.08 95.12 31.42 95.13 31.42 95.32"/><path class="cls-31" d="M32.27,88.66c-1.18,1.35-.5,2.92.53,10a6.44,6.44,0,0,0,1,2.68,2.36,2.36,0,0,0,4.34-.71,59.24,59.24,0,0,0-2.94-11.93,1.88,1.88,0,0,0-1.21-1C33.18,87.6,32.48,88.41,32.27,88.66Z" transform="translate(6.98)"/><path class="cls-31" d="M22,87.47c-1.66.68-1.76,2.38-4,9.19a6.56,6.56,0,0,0-.29,2.86,2.36,2.36,0,0,0,4.2,1.31,59.11,59.11,0,0,0,2.71-12,1.82,1.82,0,0,0-.64-1.42A2.16,2.16,0,0,0,22,87.47Z" transform="translate(6.98)"/><path class="cls-31" d="M18,100.88c.65,1.63,2,1.66,7.76,3.61a4.39,4.39,0,0,0,1.09.24c.52,0,1.15.22,1.27-.07a11.48,11.48,0,0,0,.86-4.25A41.41,41.41,0,0,0,19,98.2a1.4,1.4,0,0,0-1.14.7A2.58,2.58,0,0,0,18,100.88Z" transform="translate(6.98)"/><path class="cls-31" d="M24,92.24l-1.43,6.45,6.33,1.72a12.86,12.86,0,0,1-.87,4.4A24.57,24.57,0,0,1,21,102.89" transform="translate(6.98)"/><path class="cls-24" d="M34.3,81.52c.62.18.88,1.57.94,1.88.34,1.8-.62,2.5-.45,4.83a19,19,0,0,1,.26,2.29c0,1.38-.3,1.53-.16,2.37.21,1.35,1.11,1.63,1,2.6a1.76,1.76,0,0,1-.68,1.16,1.42,1.42,0,0,1-2.15-.24c-.19-.39,0-.78-.32-1.23-.18-.28-.31-.22-.56-.46-.43-.41-.44-1-.8-2.12-.24-.74-.44-1.12-.52-1.35C30,88.84,32.73,81.07,34.3,81.52Z" transform="translate(6.98)"/><path class="cls-12" d="M26.55,82.4l-.08,4.43a3.24,3.24,0,0,0,.58.61,2.47,2.47,0,0,0,1.56.74c.23.27.87-.2,1.17-.28a10.21,10.21,0,0,0,1-.1c0-1.17-.49-1.76-.5-2.93Z" transform="translate(6.98)"/><path class="cls-12" d="M27.42,80.44c-.32-.9-1.33-1.58-1.79-1.34s-.46,1.72.19,2.61c0,.07.65.9,1.15.74S27.69,81.23,27.42,80.44Z" transform="translate(6.98)"/><path class="cls-36" d="M30.52,87.07c-1.79-1.38-3.43-2.8-3.63-4.12l3.44,2.28A9.74,9.74,0,0,1,30.52,87.07Z" transform="translate(6.98)"/><path class="cls-12" d="M32.91,75.17c2.71.88,2,9.78-1.77,10a3.92,3.92,0,0,1-4.59-2.82c.12-1.38.47-1.83.78-2,.13-.07.26-.08.56-.22a4.78,4.78,0,0,0,.85-.57c.87-.68,1-.45,1.4-.9s.26-.83.76-1.37.83-.4,1.33-.9A2.92,2.92,0,0,0,32.91,75.17Z" transform="translate(6.98)"/><path class="cls-36" d="M25.93,79.44c.48-.07,1,1.64,1,1.65h0s-.34-.18-.46-.06,0,.08,0,.08a.29.29,0,0,1,0-.14c.11-.1.39.06.45.11-.09-.17-.55-1.42-1-1.48-.14,0-.3.12-.32.08S25.79,79.46,25.93,79.44Z" transform="translate(6.98)"/><ellipse class="cls-24" cx="37.08" cy="79.52" rx="0.46" ry="0.64"/><ellipse class="cls-24" cx="40.27" cy="79.36" rx="0.46" ry="0.64"/><path class="cls-24" d="M33.59,79.12a1,1,0,0,0,.62-.32.71.71,0,0,1-.72.08Z" transform="translate(6.98)"/><path class="cls-24" d="M29.73,79.48a1,1,0,0,1-.62-.32.73.73,0,0,0,.72.08Z" transform="translate(6.98)"/><polygon class="cls-36" points="38.47 81.58 39.67 81.51 39.11 78.94 39.06 78.96 39.32 81.24 38.48 81.53 38.47 81.58"/><polygon class="cls-24" points="39.37 81.28 39.06 78.87 38.99 78.88 39.22 81.28 39.37 81.28"/><path class="cls-25" d="M33.84,78.07a.68.68,0,0,0-.65-.22" transform="translate(6.98)"/><path class="cls-37" d="M25.84,86.46l.57-1.16a6.93,6.93,0,0,0,2.67,2.9l-1.22,1C26.18,88,25.82,87.53,25.84,86.46Z" transform="translate(6.98)"/><path class="cls-37" d="M29.13,88.19l1.31,1.19c.45-1.25,1.08-1.71.78-2.75l-.83-1.1C30.53,86.32,29.61,87.67,29.13,88.19Z" transform="translate(6.98)"/><circle class="cls-37" cx="35.94" cy="89.6" r="0.26"/><circle class="cls-37" cx="35.86" cy="93.11" r="0.26"/><circle class="cls-37" cx="35.83" cy="97.39" r="0.26"/><polygon class="cls-37" points="36.87 88.42 36.57 104.86 36.5 88.5 36.33 88.31 36.87 88.42"/><circle class="cls-37" cx="35.97" cy="103.17" r="0.26"/><path class="cls-34" d="M23.94,92.46l-1.18,5.81,6.16,2.14a9,9,0,0,1-.87,4.4l-7-1.94" transform="translate(6.98)"/></g></g><ellipse class="cls-38" cx="59.34" cy="96.09" rx="51.37" ry="50.57"/><g id="bereavement4"><polygon class="cls-18" points="148.98 75.15 96.63 75.31 87.2 84.32 87.25 75.15 87.25 0.02 148.98 0.02 148.98 75.15"/><rect class="cls-39" x="87.19" width="61.81" height="3.69"/><rect x="87.19" y="3.7" width="61.81" height="4.32"/><text class="cls-40" transform="translate(92.44 17.61)">How much <tspan x="0" y="10.8">you’ll get</tspan></text><rect class="cls-18" x="88.55" y="2.5" width="0.58" height="0.79"/><rect class="cls-18" x="89.34" y="1.92" width="0.58" height="1.37"/><rect class="cls-18" x="90.13" y="1.18" width="0.58" height="2.11"/><rect class="cls-18" x="90.92" y="0.55" width="0.58" height="2.74"/><path class="cls-18" d="M89.16,2.07a.18.18,0,0,1-.11,0,1.06,1.06,0,0,0-1.51,0,.14.14,0,0,1-.21,0,.14.14,0,0,1,0-.22,1.36,1.36,0,0,1,1.94,0,.16.16,0,0,1,0,.22A.16.16,0,0,1,89.16,2.07Z" transform="translate(6.98)"/><path class="cls-18" d="M88.75,2.48a.15.15,0,0,1-.11,0,.48.48,0,0,0-.68,0,.16.16,0,0,1-.22-.22A.79.79,0,0,1,88.3,2a.75.75,0,0,1,.55.23.14.14,0,0,1,0,.22A.12.12,0,0,1,88.75,2.48Z" transform="translate(6.98)"/><circle class="cls-18" cx="95.28" cy="2.78" r="0.21"/><path class="cls-18" d="M89.59,1.64a.15.15,0,0,1-.11,0,1.67,1.67,0,0,0-2.36,0,.16.16,0,0,1-.22-.22,2,2,0,0,1,2.8,0,.16.16,0,0,1,0,.22A.15.15,0,0,1,89.59,1.64Z" transform="translate(6.98)"/><path class="cls-18" d="M140,1.31h-.27V1a.12.12,0,0,0-.13-.12h-3a.12.12,0,0,0-.12.12V2.62a.12.12,0,0,0,.12.13h3a.13.13,0,0,0,.13-.13V2.29H140a.12.12,0,0,0,.12-.12V1.43A.12.12,0,0,0,140,1.31ZM139.5,2.5h-2.78V1.1h2.78Zm.4-.45h-.15v-.5h.15Z" transform="translate(6.98)"/><rect class="cls-18" x="143.82" y="1.24" width="2.22" height="1.11" rx="0.07"/><text class="cls-41" transform="translate(138.81 2.44)">87%</text><text class="cls-42" transform="translate(116.13 2.52)">11:55</text><rect class="cls-43" x="91.78" y="64.71" width="48.49" height="1.26"/><rect class="cls-43" x="91.74" y="68.45" width="36.49" height="1.26"/><rect class="cls-44" x="94.34" y="33.17" width="46.77" height="23.65"/><text class="cls-45" transform="translate(105.8 47.8)">£853</text><rect class="cls-46" x="99.47" y="35.73" width="36.38" height="1.57"/><rect class="cls-46" x="99.47" y="52.39" width="36.38" height="1.57"/><rect class="cls-43" x="91.78" y="60.36" width="48.49" height="1.26"/></g></g></g></g></g></g></svg>