<svg xmlns="http://www.w3.org/2000/svg" xmlns:xlink="http://www.w3.org/1999/xlink" viewBox="0 0 129.95 114.06"><defs><style>.cls-1,.cls-14,.cls-24{fill:none;}.cls-2{opacity:0.86;}.cls-3{clip-path:url(#clip-path);}.cls-4{fill:#e8d8e4;}.cls-5{fill:#d4bfa1;}.cls-6{fill:#7e7494;}.cls-7{fill:url(#linear-gradient);}.cls-8{fill:#6585f5;}.cls-9{fill:#7f9af7;}.cls-10{fill:#f8c7a3;}.cls-11{fill:#e3b696;}.cls-12{fill:#f5f5f5;}.cls-13{fill:#412a74;}.cls-14{stroke:#2e3192;stroke-linecap:round;}.cls-14,.cls-24,.cls-25{stroke-miterlimit:10;}.cls-15{fill:#a67c52;}.cls-16{fill:#ebf4ff;opacity:0.34;}.cls-17{fill:#247d6c;}.cls-18{fill:url(#linear-gradient-2);}.cls-19,.cls-25{fill:#fff;}.cls-20{fill:#f5ffe5;}.cls-21{fill:#e0f1c4;}.cls-22{fill:#5d2d56;}.cls-23{fill:#c66b8b;isolation:isolate;opacity:0.27;}.cls-24{stroke:#1b1464;stroke-width:2px;opacity:0.22;}.cls-25{stroke:#ccc;}.cls-26{fill:#ccc;}.cls-27{fill:#c30040;}.cls-28{fill:#ffe600;}.cls-29{fill:#04bc1f;}.cls-30{fill:#ea4335;}.cls-31{fill:#fbbc05;}.cls-32{fill:#4285f4;}.cls-33{fill:#34a853;}.cls-34{font-size:5.5px;font-family:MyriadPro-Regular, Myriad Pro;}.cls-35{letter-spacing:0em;}.cls-36{letter-spacing:0.02em;}.cls-37{letter-spacing:0em;}.cls-38{letter-spacing:0em;}</style><clipPath id="clip-path" transform="translate(5.78 1.16)"><circle class="cls-1" cx="49.74" cy="54.36" r="48.11"/></clipPath><linearGradient id="linear-gradient" x1="62.15" y1="45.65" x2="62.31" y2="53.67" gradientTransform="translate(0 36.46)" gradientUnits="userSpaceOnUse"><stop offset="0.8" stop-color="#8d82a6"/><stop offset="1" stop-color="#554e63"/></linearGradient><linearGradient id="linear-gradient-2" x1="72.12" y1="20.13" x2="72.76" y2="52.77" gradientTransform="translate(0 36.46)" gradientUnits="userSpaceOnUse"><stop offset="0.43" stop-color="#7e7494"/><stop offset="1" stop-color="#625a73"/></linearGradient></defs><g id="Layer_2" data-name="Layer 2"><g id="MainLayer"><g id="stories" class="cls-2"><g id="bereavementgroup"><g id="bereavement2"><g class="cls-3"><circle class="cls-4" cx="55.52" cy="55.52" r="55.52"/><polygon class="cls-5" points="4.18 89.72 129.95 71.66 129.95 107.68 18.55 114.06 4.18 89.72"/><path class="cls-6" d="M45.54,91.73,29.23,85v-1.1L73.5,83.7l21.74,6L95.32,92l-45.92.55A11.09,11.09,0,0,1,45.54,91.73Z" transform="translate(5.78 1.16)"/><path class="cls-7" d="M45.46,89.53,29.15,82.75l44.27-1.18,21.9,8.19-45.92.56A11.38,11.38,0,0,1,45.46,89.53Z" transform="translate(5.78 1.16)"/><path class="cls-8" d="M43.49,54.87c1.38,4.7,2.52,17.06,3.7,28.51-8.51,4.89-18.75,4.42-30.17.16L13.24,54.87C24.42,49.2,34.43,49.67,43.49,54.87Z" transform="translate(5.78 1.16)"/><path class="cls-9" d="M45.15,69.2l4.59,15,9.76-7.85c-6.37-9.47-13.74-21.19-16.09-21.48C44.63,58.37,45,63.48,45.15,69.2Z" transform="translate(5.78 1.16)"/><path class="cls-10" d="M24.66,42.26l-.24,11.9c1.5,1.42-.23-.16,4.73,1.81,1.34,1,7.41.87,7.8-.08l-1.5-6.54Z" transform="translate(5.78 1.16)"/><path class="cls-11" d="M36,54.32c-7-.08-10.47-4.49-11.18-9.3l10.32,5.83Z" transform="translate(5.78 1.16)"/><path class="cls-12" d="M33.4,56.52l3.16,4.89c2-2.92,2.44-5.52,1.41-9.14-.63-.4-1.26-1.26-2.12-1.34C36,54.47,35.37,56.36,33.4,56.52Z" transform="translate(5.78 1.16)"/><path class="cls-12" d="M24.5,48.49c1.5,6,4.41,8.27,8.9,8l-3.62,6c-3.86-2.76-7.09-6.54-7.09-11.42Z" transform="translate(5.78 1.16)"/><path class="cls-10" d="M44.47,35.66c-.74,6.69-1.95,11.84-3.89,15.41s-7.31,1.22-8.15,1c-6.12-1.71-7.88-8.13-8-8.43A31.14,31.14,0,0,1,25.75,31c1.12-3.45,1.68-6.77,4.51-7.58,3.67-1.05,9.34.58,12.26,2.5C44.92,27.48,45,30.68,44.47,35.66Z" transform="translate(5.78 1.16)"/><ellipse class="cls-13" cx="33.72" cy="37.37" rx="1.4" ry="1.02" transform="translate(-5.33 61.4) rotate(-74.96)"/><ellipse class="cls-13" cx="40.69" cy="38.88" rx="1.4" ry="1.02" transform="matrix(0.26, -0.97, 0.97, 0.26, -1.63, 69.24)"/><polygon class="cls-11" points="41.33 43.67 43.97 44.22 44.23 38.47 44.1 38.48 43.37 43.45 41.4 43.58 41.33 43.67"/><polygon class="cls-13" points="43.45 43.56 44.16 38.3 44 38.27 43.13 43.48 43.45 43.56"/><path class="cls-14" d="M43.07,36.3a2.26,2.26,0,0,0-2.18-.52" transform="translate(5.78 1.16)"/><path class="cls-14" d="M35.53,34.45a2.23,2.23,0,0,0-2.18-.52" transform="translate(5.78 1.16)"/><path class="cls-15" d="M27.07,35.8l1.87-.22a11.36,11.36,0,0,0,2.24-5.94,8.43,8.43,0,0,0-5.06-1.38c-.82,0-1.23,2.27-1.51,5.24Z" transform="translate(5.78 1.16)"/><path class="cls-10" d="M27.64,36.5c-.17-2.09-2-4.12-3.1-3.87s-2,3.36-1.08,5.63c.07.16.91,2.27,2.08,2.24S27.78,38.33,27.64,36.5Z" transform="translate(5.78 1.16)"/><path class="cls-11" d="M25,33.52c1.07.12,1.31,4.08,1.28,4.09v0c-.08,0-.65-.56-1-.39a1,1,0,0,0-.15.15s.06-.2.19-.27c.29-.15.79.34.9.48-.11-.39-.39-3.3-1.23-3.67-.29-.13-.73.07-.74,0S24.68,33.49,25,33.52Z" transform="translate(5.78 1.16)"/><path class="cls-11" d="M34.9,38.67a2.5,2.5,0,0,1-3.56,0c.55,1.42,1.59,1.86,3.5.55Z" transform="translate(5.78 1.16)"/><path class="cls-11" d="M39.35,39.65c.32,1.39,1,1.9,2.15,1.49-.94,1-1.75,1-2.33-1Z" transform="translate(5.78 1.16)"/><path class="cls-15" d="M37.11,43.37c.4.1,2.55.69,3,2.24.18.7,0,1.61-.23,1.65s-.22-.34-.61-.48-.56.1-.88-.06-.25-.43-.51-.5-.47.29-.81.24-.37-.53-.81-.68-.61.23-1,.1-.36-.62-.78-.76-.73.32-1.24.17-.4-.51-.79-.58-.88.46-1,.38.24-1.15.93-1.74C33.85,42.05,36.65,43.17,37.11,43.37Z" transform="translate(5.78 1.16)"/><path class="cls-16" d="M44.55,41.45C43,42.87,39.64,42,39,40a3.8,3.8,0,0,1,.88-3.27,16.33,16.33,0,0,1,5.58,1.5A3.84,3.84,0,0,1,44.55,41.45Z" transform="translate(5.78 1.16)"/><path class="cls-17" d="M41.36,42.17A3.62,3.62,0,0,1,38.79,40a4,4,0,0,1,.92-3.45l.06-.07h.09A16.56,16.56,0,0,1,45.51,38l.08,0,0,.09a4,4,0,0,1-.94,3.43h0A3.6,3.6,0,0,1,41.36,42.17Zm-1.43-5.29a3.52,3.52,0,0,0-.79,3,3.6,3.6,0,0,0,5.29,1.42h0a3.54,3.54,0,0,0,.83-3A15.79,15.79,0,0,0,39.93,36.88Z" transform="translate(5.78 1.16)"/><path class="cls-16" d="M36.55,39.49c-1.7,1.57-5.45.56-6.13-1.65a3.91,3.91,0,0,1,.88-3.26,12.73,12.73,0,0,1,6.12,1.64A4,4,0,0,1,36.55,39.49Z" transform="translate(5.78 1.16)"/><path class="cls-17" d="M33.06,40.26a3.84,3.84,0,0,1-2.81-2.36,4.07,4.07,0,0,1,.9-3.44l.06-.07h.1c2.93.23,4.85.74,6.22,1.68l.06,0,0,.08a4.07,4.07,0,0,1-.94,3.42h0A3.85,3.85,0,0,1,33.06,40.26Zm-1.68-5.49a3.68,3.68,0,0,0-.78,3,3.51,3.51,0,0,0,2.55,2.12,3.5,3.5,0,0,0,3.27-.56h0a3.69,3.69,0,0,0,.83-3C36,35.47,34.14,35,31.38,34.77Z" transform="translate(5.78 1.16)"/><path class="cls-17" d="M37.42,36.91a1.29,1.29,0,0,1,1.9.4l-.07.32a1.29,1.29,0,0,0-1.77-.53Z" transform="translate(5.78 1.16)"/><polygon class="cls-17" points="36.63 36.33 33.23 36.76 33.29 37.02 36.43 36.74 36.63 36.33"/><path class="cls-9" d="M9.62,57.23c-2,3.23-.4,6.3,4,20.88.79,2.67.48,3.07,1.66,4.56,2.83,3.63,10.24,2.45,10.55-2.12-2.2-7.88-6.22-15-10.55-23.32-.32-.39-.4-2.44-1.82-2.44C11.58,54.79,10,56.6,9.62,57.23Z" transform="translate(5.78 1.16)"/><path class="cls-10" d="M40.57,78.74a8.11,8.11,0,0,1,4.49.23c2.45.79,5,3.15,4.34,4.89-.4,1.18-2,1.73-3.16,2.12a8.68,8.68,0,0,1-6.3-.31,8.84,8.84,0,0,1-2.68-1.73Z" transform="translate(5.78 1.16)"/><path class="cls-9" d="M17.65,83.15a4.42,4.42,0,0,0,1.26,1.1c.63.47,3.31,2.13,11.11,2.84,0,0,2,.15,6.06.23a15.86,15.86,0,0,0,1.74-.08c.78-.07,1.41-.15,1.81-.23,1.49-2.44,1.26-5.52.94-8.75-3.15.08-6.46,0-10-.15-4.25-.24-8.27-.63-12-1.11a3,3,0,0,0-2.05,2A5,5,0,0,0,17.65,83.15Z" transform="translate(5.78 1.16)"/><path class="cls-18" d="M94.45,55.42H54c-3,0-5.35,2.76-5.35,6.22L44.83,87.87a1.77,1.77,0,0,0,1.65,1.89H94.22a1.83,1.83,0,0,0,1.65-1.89l4.26-26C100.13,58.33,97.61,55.42,94.45,55.42Z" transform="translate(5.78 1.16)"/><path class="cls-19" d="M68.7,72.51c.07.95,2.36,1.74,4,1.81s4-.15,4.49-1.18-1.34-1.73-1.1-3.38c.16-1.19,1.18-1.42,1-2.13-.4-1.18-3.71-2-4.73-1.26-.71.55.47,1.42-.08,2.83C71.53,71.1,68.54,71.33,68.7,72.51Z" transform="translate(5.78 1.16)"/><path class="cls-19" d="M74.45,66.45a1.19,1.19,0,0,0,.31-1.74h-.24l-.07-.23a.87.87,0,0,1,.78-.08.28.28,0,0,1,.16.39.15.15,0,0,1-.24,0,1.47,1.47,0,0,1-.31,1.82Z" transform="translate(5.78 1.16)"/><path d="M10.28,67.27l1.65,5.32a18.55,18.55,0,0,0,9.85-2.66L19,64.38A11.16,11.16,0,0,1,10.28,67.27Z" transform="translate(5.78 1.16)"/><path class="cls-20" d="M54.18,89.55c-1.58,0-2.92,1.66-2.92,3.63s1.26,3.62,2.92,3.62,2.91-1.65,2.91-3.62S55.75,89.55,54.18,89.55Zm0,6.07a2.5,2.5,0,1,1,2-2.44A2.23,2.23,0,0,1,54.18,95.62Z" transform="translate(5.78 1.16)"/><path class="cls-20" d="M44,89c-.31,4.49-.39,8.75,2.84,9.53.08.16-.55.4,2.36.4s2.37-.08,2.37-.4c3.7-1.49,3-5.67,2.83-9.53Z" transform="translate(5.78 1.16)"/><path class="cls-21" d="M47.17,98.61c-1-.23-1.66-.55-1.66-.86-1.73-1.5-1.65-5.12-1.42-8.75h1.5C45.43,92.71,45.51,96.17,47.17,98.61Z" transform="translate(5.78 1.16)"/><ellipse class="cls-20" cx="55.07" cy="90.16" rx="5.28" ry="1.18"/><path class="cls-21" d="M53.31,89.4a.41.41,0,0,0,.32-.4c0-.55-2-1-4.42-1s-4.41.47-4.41,1c0,.16.16.24.32.4a9.24,9.24,0,0,1,4-.63A9.6,9.6,0,0,1,53.31,89.4Z" transform="translate(5.78 1.16)"/><path class="cls-22" d="M53.31,89.4a9.27,9.27,0,0,0-4-.63,9.22,9.22,0,0,0-4,.63,9.38,9.38,0,0,0,4,.63A13,13,0,0,0,53.31,89.4Z" transform="translate(5.78 1.16)"/><path class="cls-23" d="M49.37,86.88a5.15,5.15,0,0,1-.31-2.37c.31-1.81,1.57-2.36,1.65-3.78a3.4,3.4,0,0,0-1.34-2.6,5.3,5.3,0,0,1,.32,2.6C49.37,82.54,48,83.17,48,84.59A3.09,3.09,0,0,0,49.37,86.88Z" transform="translate(5.78 1.16)"/><path class="cls-23" d="M47.8,82.39a2.6,2.6,0,0,0-.08-2.76,1.44,1.44,0,0,0-1.11-.47c-.55.08-.86.71-.94,1.1a1.69,1.69,0,0,0,.63,1.57,1.94,1.94,0,0,1-1.1-2.12,1.79,1.79,0,0,1,1.18-1.34,2.16,2.16,0,0,1,1.42,4Z" transform="translate(5.78 1.16)"/></g><circle class="cls-24" cx="55.52" cy="55.52" r="48.74"/><polygon class="cls-19" points="129.66 40.97 70.73 40.97 64.43 47.75 64.5 40.97 64.5 1.16 129.66 1.16 129.66 40.97"/><rect class="cls-25" x="67.83" y="23.36" width="57.71" height="10.61" rx="5.3"/><rect class="cls-26" x="64.5" y="1.16" width="65.16" height="4.11"/><circle class="cls-27" cx="67.75" cy="3.18" r="1.02"/><circle class="cls-28" cx="71.42" cy="3.18" r="1.02"/><circle class="cls-29" cx="75.09" cy="3.18" r="1.02"/><path class="cls-30" d="M88.55,13.58a2.92,2.92,0,1,1-2.92-2.9A2.87,2.87,0,0,1,88.55,13.58Zm-1.28,0a1.64,1.64,0,1,0-3.28,0,1.64,1.64,0,1,0,3.28,0Z" transform="translate(5.78 1.16)"/><path class="cls-31" d="M94.84,13.58a2.92,2.92,0,1,1-2.92-2.9A2.87,2.87,0,0,1,94.84,13.58Zm-1.28,0a1.64,1.64,0,1,0-3.28,0,1.64,1.64,0,1,0,3.28,0Z" transform="translate(5.78 1.16)"/><path class="cls-32" d="M100.87,10.85v5.22c0,2.15-1.27,3-2.77,3a2.76,2.76,0,0,1-2.57-1.72l1.11-.46a1.61,1.61,0,0,0,1.46,1c1,0,1.55-.59,1.55-1.7v-.42h0a2,2,0,0,1-1.53.66,2.91,2.91,0,0,1,0-5.81,2,2,0,0,1,1.53.65h0v-.48ZM99.74,13.6a1.64,1.64,0,0,0-1.55-1.78,1.69,1.69,0,0,0-1.62,1.78,1.67,1.67,0,0,0,1.62,1.75A1.62,1.62,0,0,0,99.74,13.6Z" transform="translate(5.78 1.16)"/><path class="cls-33" d="M102.86,7.8v8.51h-1.24V7.8Z" transform="translate(5.78 1.16)"/><path class="cls-30" d="M107.72,14.54l1,.66a2.91,2.91,0,0,1-2.43,1.29,2.84,2.84,0,0,1-2.88-2.91,2.75,2.75,0,0,1,2.74-2.9,2.7,2.7,0,0,1,2.49,1.85l.13.33-3.88,1.61a1.47,1.47,0,0,0,1.4.88,1.67,1.67,0,0,0,1.44-.81Zm-3-1,2.59-1.08a1.11,1.11,0,0,0-1.07-.62A1.59,1.59,0,0,0,104.67,13.5Z" transform="translate(5.78 1.16)"/><path class="cls-32" d="M78,12.83V11.6h4.16a4,4,0,0,1,.06.74,4,4,0,0,1-1.07,2.88A4.1,4.1,0,0,1,78,16.49,4.58,4.58,0,0,1,73.43,12,4.58,4.58,0,0,1,78,7.46,4.29,4.29,0,0,1,81.1,8.71l-.87.87A3.14,3.14,0,0,0,78,8.7a3.28,3.28,0,0,0,0,6.56,3,3,0,0,0,2.28-.91A2.5,2.5,0,0,0,81,12.83Z" transform="translate(5.78 1.16)"/><path class="cls-32" d="M112.07,25.4a2.46,2.46,0,0,0,.23,3.46,2.46,2.46,0,0,0,2.41.48,2.52,2.52,0,0,0,.72-.39l1.66,1.45.6-.68L116,28.26a2.38,2.38,0,0,0,.33-1.41,2.43,2.43,0,0,0-.83-1.68,2.46,2.46,0,0,0-2.41-.47A2.4,2.4,0,0,0,112.07,25.4Zm2.86.46a1.53,1.53,0,0,1,.53,1.06,1.55,1.55,0,0,1-3.09.2,1.58,1.58,0,0,1,.38-1.12,1.56,1.56,0,0,1,2.18-.14Z" transform="translate(5.78 1.16)"/><text class="cls-34" transform="translate(72.17 30.39)"><tspan class="cls-35">R</tspan><tspan x="2.98" y="0">epo</tspan><tspan class="cls-36" x="11.89" y="0">r</tspan><tspan x="13.82" y="0">t A </tspan><tspan class="cls-35" x="21.34" y="0">D</tspan><tspan class="cls-37" x="25.03" y="0">e</tspan><tspan class="cls-38" x="27.78" y="0">a</tspan><tspan x="30.41" y="0">th</tspan></text></g></g></g></g></g></svg>