<svg xmlns="http://www.w3.org/2000/svg" xmlns:xlink="http://www.w3.org/1999/xlink" viewBox="0 0 173.17 147.1"><defs><style>.cls-1,.cls-17,.cls-18,.cls-20,.cls-34{fill:none;}.cls-2{clip-path:url(#clip-path);}.cls-3{fill:#d4f3ff;}.cls-4{fill:#b9e2d0;}.cls-5{fill:#c7cfcb;}.cls-6{fill:#969182;}.cls-7{fill:#f8c7a3;}.cls-8{fill:#3e5486;}.cls-9{fill:#b0b0b0;}.cls-10{fill:#bebebd;}.cls-11{fill:#daaf9a;}.cls-12{fill:#f0c9b7;}.cls-13{fill:#00a99d;}.cls-14{fill:#412a74;}.cls-15{fill:#fbfbfb;}.cls-16{fill:#39827d;}.cls-17{stroke:#247d6c;stroke-width:0.5px;}.cls-17,.cls-18,.cls-20,.cls-34{stroke-miterlimit:10;}.cls-18{stroke:#0071bc;}.cls-19{fill:#d9ae8e;}.cls-20{stroke:#2e3192;stroke-linecap:round;}.cls-21{fill:#e6e6e6;}.cls-22{fill:#723e2b;}.cls-23{fill:#95553d;}.cls-24{fill:#5e7280;}.cls-25{fill:#96523e;}.cls-26{fill:#733e2c;}.cls-27{fill:#e3b696;}.cls-28{fill:#6585f5;}.cls-29{fill:#a67c52;}.cls-30{fill:#ebf4ff;opacity:0.34;}.cls-31{fill:#247d6c;}.cls-32{fill:#f5f5f5;}.cls-33{fill:#7f9af7;}.cls-34{stroke:#1b1464;stroke-width:2px;opacity:0.22;}</style><clipPath id="clip-path" transform="translate(25.32 15.82)"><circle class="cls-1" cx="58.66" cy="58.66" r="58.66"/></clipPath></defs><g id="Layer_2" data-name="Layer 2"><g id="bereavementgroup"><g id="bereavement7"><g class="cls-2"><rect class="cls-3" x="2.04" y="9.15" width="171.13" height="136.91"/><path class="cls-4" d="M147.86,130.24H-23.27l0-74.94c83.78-12.64,72.46,5.12,170.9,0Z" transform="translate(25.32 15.82)"/><rect class="cls-5" y="123.52" width="171.13" height="23.57"/><path class="cls-4" d="M22.93,4.72C22.82,8.08,25.66,13.65,30,16c2.66,1.44,4.48.93,8.32,3.26A28.39,28.39,0,0,1,44,24c4.48,4.49,3.87,5.7,6.09,7,4.33,2.59,11.48.86,15.41-2.8.77-.72,2.38-3.38,5.6-8.69,2.94-4.84,2.94-5.14,3.92-6.16,3.87-4.05,7.35-3.14,9.24-5.6,3-3.95-.15-13.79-5.65-18.69C63.55-24.31,23.34-7.42,22.93,4.72Z" transform="translate(25.32 15.82)"/><path class="cls-6" d="M50.31,67.27c-.71-17.8-.49-34.45,2.35-47.9L39.65-.82,53.56,9.47l2.08-25.15,3,19.85,12.41-8.3L58.66,10.74c-5.84,22.89-3.81,38.62,4.71,56.17C57.82,71.17,56,71.46,50.31,67.27Z" transform="translate(25.32 15.82)"/><g id="bereavement6"><path class="cls-7" d="M26.6,107.76c.92.45,2.37.88,3,.21.27-.27.35-.65.34-1.75,0-.34,0-.4,0-.64v0h0v0L43.16,86l-7.82-.79c-3.68,6.55-6.73,12.72-7.66,17.57l-.51.67.09-.15c-.17.13-.35.29-.55.47C25.79,104.76,25,107,26.6,107.76Z" transform="translate(25.32 15.82)"/><path class="cls-8" d="M30,105.53h0v0Z" transform="translate(25.32 15.82)"/><path class="cls-8" d="M31.85,111.28c-.45-1.59-1.35-4.4-1.88-5.7.66,6-7,1.13-2.9-2.21C19.1,104.2,32.28,121.69,31.85,111.28Z" transform="translate(25.32 15.82)"/><path class="cls-7" d="M44.58,112.56c1,0,2.53-.18,2.87-1.07.14-.36,0-.74-.42-1.73l-.27-.58,0,0h0l0,0,0,0,3.92-23.27-7.44,2.51c-.65,7.49-.89,14.36.27,19.17l-.19.82c0-.06,0-.11,0-.17l-.31.65C42.61,110.16,42.81,112.51,44.58,112.56Z" transform="translate(25.32 15.82)"/><path class="cls-8" d="M46.73,109.14v0l0,0Z" transform="translate(25.32 15.82)"/><path class="cls-8" d="M50.82,113.6c-1.07-1.26-3-3.45-4.06-4.42,3.06,5.16-5.9,3.92-3.55-.81C36.29,112.42,55.51,122.9,50.82,113.6Z" transform="translate(25.32 15.82)"/><polygon class="cls-9" points="38.77 123.88 41.88 119.32 41.88 98.64 38.77 98.64 38.77 123.88"/><rect class="cls-10" x="130.91" y="98.64" width="5.11" height="25.53"/><polygon class="cls-9" points="127.54 120.46 130.94 124.16 130.94 98.92 127.54 98.92 127.54 120.46"/><rect class="cls-10" x="33.94" y="98.64" width="4.87" height="25.24"/><rect class="cls-11" x="25.77" y="94.41" width="115.56" height="3.41"/><rect class="cls-10" x="38.31" y="56.39" width="6.96" height="36.04"/><rect class="cls-10" x="122.88" y="56.39" width="6.96" height="36.53"/><polygon class="cls-12" points="141.28 94.48 25.95 94.48 32.23 91.31 134.75 91.31 141.28 94.48"/><rect class="cls-12" x="32.61" y="59" width="102.52" height="6.43"/><rect class="cls-12" x="32.61" y="68.91" width="102.52" height="6.43"/><rect class="cls-12" x="32.61" y="79.04" width="102.52" height="6.43"/><rect class="cls-11" x="18.52" y="99.51" width="130.79" height="3.44"/><polygon class="cls-12" points="149.49 99.58 18.46 99.58 24.74 96.39 142.97 96.39 149.49 99.58"/><path class="cls-13" d="M20,70.48c-1.37,2.81-1.45,5.09-.53,6.94,1.94,3.56,9.29,7.1,14,8.85L32.32,90.1c2.39.6,1.19.49,4.89.53a39.57,39.57,0,0,0,13.51-2.2,8.35,8.35,0,0,0,.16-5.63c-.67-1.91-2-3-7.5-7.32-1.4-1.08-3.13-2.41-5.14-3.94Z" transform="translate(25.32 15.82)"/><path class="cls-14" d="M36,22.54a7.25,7.25,0,0,0-5.36-1c-5.91,1.47-9.22,13-5.71,17.78C26.16,41,28.15,41.65,30.24,45A17.87,17.87,0,0,1,32,48.79l8.7,2.26A19.07,19.07,0,0,1,39,42.22c.18-2.92,1-3.59,1.64-8.14s1.09-7.64-.74-9.69A6.28,6.28,0,0,0,36,22.54Z" transform="translate(25.32 15.82)"/><path class="cls-15" d="M39.14,42.14,39,68.73c-5.26,2.7-11.59,2.43-18.68.08l.1-26.67C27.35,39,33.54,39.26,39.14,42.14Z" transform="translate(25.32 15.82)"/><path class="cls-16" d="M39.05,66.12,39,70.39c-5.86,2-12.25,1.6-19-.38l.06-4.46A35.81,35.81,0,0,0,39.05,66.12Z" transform="translate(25.32 15.82)"/><path class="cls-13" d="M27.07,40.05c.46,3.88.76,8.12,1,12.61.22,3.58.39,6.23.35,9.7a62,62,0,0,1-1,10.21,8.27,8.27,0,0,1-7.91-2l1.16-28.89A22.21,22.21,0,0,1,27.07,40.05Z" transform="translate(25.32 15.82)"/><path class="cls-13" d="M34.3,40.25c-.2,3.42-.33,7-.38,10.69q-.08,6.2.16,11.87c0,3.85.15,5.8.2,9.65l4.88-1,.15-29.69A13,13,0,0,0,34.3,40.25Z" transform="translate(25.32 15.82)"/><path class="cls-17" d="M28.43,66.38c-.41,2.57-1.08,5.89-.76,6.27a9,9,0,0,1-8.08-2.05" transform="translate(25.32 15.82)"/><path class="cls-17" d="M39.16,71.47l-4.84,1c-.41-13.61-.81-25.05,0-32.05" transform="translate(25.32 15.82)"/><path class="cls-17" d="M28.32,59.39c-.19-6.34-.5-12.8-1.19-18.56" transform="translate(25.32 15.82)"/><line class="cls-18" x1="64.45" y1="77.85" x2="63.99" y2="63.64"/><polyline class="cls-17" points="52.17 68.73 52.05 68.31 49.68 68.34 49.67 68.61"/><path class="cls-13" d="M36.13,42.9c-1.69,2-.72,4.2.77,14.4a9.36,9.36,0,0,0,1.47,3.85,3.38,3.38,0,0,0,6.24-1A84.77,84.77,0,0,0,40.4,43a2.72,2.72,0,0,0-1.75-1.43C37.45,41.38,36.43,42.55,36.13,42.9Z" transform="translate(25.32 15.82)"/><path class="cls-13" d="M20.77,41.49c-2.39,1-2.53,3.43-5.75,13.22a9.25,9.25,0,0,0-.41,4.1,3.39,3.39,0,0,0,6,1.89,85,85,0,0,0,3.89-17.23,2.66,2.66,0,0,0-.92-2C22.62,40.72,21.19,41.31,20.77,41.49Z" transform="translate(25.32 15.82)"/><path class="cls-13" d="M15.13,60.78c.93,2.34,2.95,2.38,11.16,5.19a6.54,6.54,0,0,0,1.57.34c.75.07,1.66.32,1.82-.1a16.76,16.76,0,0,0,1.25-6.11,59.4,59.4,0,0,0-14.36-3.17,2,2,0,0,0-1.64,1A3.74,3.74,0,0,0,15.13,60.78Z" transform="translate(25.32 15.82)"/><path class="cls-13" d="M23.75,48.36,21.7,57.63l9.09,2.47a18.39,18.39,0,0,1-1.26,6.33,36,36,0,0,1-10.18-2.77" transform="translate(25.32 15.82)"/><path class="cls-14" d="M38.53,32.94c.89.26,1.26,2.26,1.35,2.7.49,2.59-.9,3.6-.66,7a28.22,28.22,0,0,1,.39,3.3c0,2-.43,2.19-.24,3.39.31,2,1.6,2.35,1.45,3.74a2.54,2.54,0,0,1-1,1.67,2.05,2.05,0,0,1-3.09-.34c-.28-.57,0-1.12-.46-1.77-.27-.4-.45-.32-.8-.66-.63-.59-.63-1.4-1.16-3.05a19.83,19.83,0,0,0-.75-1.94C32.3,43.47,36.27,32.3,38.53,32.94Z" transform="translate(25.32 15.82)"/><path class="cls-7" d="M27.39,34.2l-.13,6.37a4.85,4.85,0,0,0,.84.88,3.63,3.63,0,0,0,2.24,1.07c.34.39,1.25-.29,1.69-.4s1.4,0,1.5-.15c0-1.68-.71-2.53-.73-4.21Z" transform="translate(25.32 15.82)"/><path class="cls-7" d="M28.63,31.39c-.45-1.3-1.9-2.27-2.57-1.93s-.66,2.47.27,3.76c.07.09.94,1.28,1.66,1.07S29,32.53,28.63,31.39Z" transform="translate(25.32 15.82)"/><path class="cls-19" d="M33.09,40.91c-2.57-2-4.92-4-5.21-5.91l4.94,3.27A14.16,14.16,0,0,1,33.09,40.91Z" transform="translate(25.32 15.82)"/><path class="cls-7" d="M36.52,23.82c3.9,1.25,2.91,14-2.53,14.43-3,.34-5.35-.64-6.61-4.06.18-2,.68-2.63,1.13-2.85.19-.09.37-.11.79-.31a6.34,6.34,0,0,0,1.23-.82c1.25-1,1.44-.65,2-1.29.73-.79.37-1.2,1.09-2s1.19-.57,1.9-1.29A3.93,3.93,0,0,0,36.52,23.82Z" transform="translate(25.32 15.82)"/><path class="cls-19" d="M26.49,30c.69-.11,1.5,2.36,1.48,2.38h0c-.05,0-.49-.25-.66-.09s-.06.12-.07.12a.26.26,0,0,1,.07-.2c.16-.15.55.08.65.15-.13-.23-.8-2-1.38-2.12-.21,0-.44.17-.47.12S26.29,30,26.49,30Z" transform="translate(25.32 15.82)"/><ellipse class="cls-14" cx="57.8" cy="45.9" rx="0.66" ry="0.92"/><ellipse class="cls-14" cx="62.39" cy="45.67" rx="0.66" ry="0.92"/><path class="cls-14" d="M37.5,29.49a1.42,1.42,0,0,0,.9-.46,1,1,0,0,1-1,.11Z" transform="translate(25.32 15.82)"/><path class="cls-14" d="M32,30a1.4,1.4,0,0,1-.9-.45,1,1,0,0,0,1,.11Z" transform="translate(25.32 15.82)"/><polygon class="cls-19" points="59.8 48.84 61.53 48.75 60.73 45.06 60.66 45.09 61.03 48.36 59.83 48.78 59.8 48.84"/><polygon class="cls-14" points="61.1 48.42 60.66 44.96 60.56 44.97 60.89 48.42 61.1 48.42"/><path class="cls-20" d="M37.87,28a1,1,0,0,0-.94-.33" transform="translate(25.32 15.82)"/><path class="cls-21" d="M26.36,40l.83-1.66A9.76,9.76,0,0,0,31,42.54L29.27,44C26.86,42.19,26.33,41.59,26.36,40Z" transform="translate(25.32 15.82)"/><path class="cls-21" d="M31.09,42.54,33,44.24c.65-1.79,1.56-2.45,1.13-4l-1.2-1.58C33.11,39.84,31.79,41.78,31.09,42.54Z" transform="translate(25.32 15.82)"/><circle class="cls-21" cx="56.17" cy="60.38" r="0.37"/><circle class="cls-21" cx="56.06" cy="65.43" r="0.37"/><circle class="cls-21" cx="56.01" cy="71.58" r="0.37"/><polygon class="cls-21" points="57.51 58.68 57.07 82.32 56.98 58.81 56.73 58.52 57.51 58.68"/><circle class="cls-21" cx="56.21" cy="79.89" r="0.37"/><path class="cls-17" d="M23.63,48.67,21.94,57l8.85,3.07a12.9,12.9,0,0,1-1.26,6.33l-10-2.8" transform="translate(25.32 15.82)"/><polyline points="106.81 124.12 105.13 123.74 99.95 125.66 101.74 126.63 106.65 124.77"/><path class="cls-22" d="M65.79,113.53l-.36.28a2.22,2.22,0,0,0,.24.84,2.71,2.71,0,0,0,1.23,1.11,4.91,4.91,0,0,0,1.79.61,7.54,7.54,0,0,0,1.61,0,10.44,10.44,0,0,0,2.41-.29,6.18,6.18,0,0,0,2.81-1.78" transform="translate(25.32 15.82)"/><path class="cls-23" d="M66.14,112.78a.94.94,0,0,0-.3,1.37c3.89,2.93,6.22,2.25,9.47.39a1.86,1.86,0,0,1,1.47-1c1.75-.25,3.36-.59,4.18-1.4a5.34,5.34,0,0,0,.53-3.83,7.37,7.37,0,0,1-4.78,1.82Z" transform="translate(25.32 15.82)"/><polygon class="cls-22" points="106.27 127.66 106.15 128.91 102.71 129.77 102 129.08 106.27 127.66"/><path class="cls-24" d="M78.8,71.39,70.5,83.82l3,25.13c3.56.43,5.56,1.64,8.15-.89-1-8.08-1-20-1.91-23.49l10.9-12.08Z" transform="translate(25.32 15.82)"/><path class="cls-24" d="M86.76,75.63,84.17,86.1,89.41,110c3.55-.1,6.94.86,9-1.32L94.24,86.39l5.13-8.34Z" transform="translate(25.32 15.82)"/><path class="cls-25" d="M90.44,110.06l.08,3.51c-.33,1.67-.3,3.16.6,4.23a6.63,6.63,0,0,0,6.44.25,3.2,3.2,0,0,0,1.14-3.29c0-1.36-1.16-3.09-2.4-4.88Z" transform="translate(25.32 15.82)"/><path class="cls-26" d="M90.65,109.55a16.58,16.58,0,0,0,1,6c1.78.71,3.51,1.05,5-.2a7.85,7.85,0,0,0-.55-5.84A6.14,6.14,0,0,0,90.65,109.55Z" transform="translate(25.32 15.82)"/><path class="cls-7" d="M66.37,68l-.92,1c.25.81-1.37,2.26-2.51,3.54a8.41,8.41,0,0,1-2,2.45.56.56,0,0,1-.3-.07.62.62,0,0,1-.2-.21c-.17-.32.29-.94.55-1.3A9.85,9.85,0,0,0,61.74,72c-1.33,1.39-2.32,2.39-2.56,2.59a.6.6,0,0,1-.4.16.51.51,0,0,1-.54-.46.45.45,0,0,1,.17-.42l2.1-2.66c-1.41,1.32-2.45,2.27-2.74,2.56a.55.55,0,0,1-.49.2.85.85,0,0,1-.25-.15.64.64,0,0,1-.19-.32.52.52,0,0,1,.15-.44c.26-.28,1.19-1.37,2.48-2.86L56.58,72.1c-.07,0-.31.2-.49.1a.56.56,0,0,1-.17-.2,1.13,1.13,0,0,1-.13-.3.56.56,0,0,1,.23-.47c1.51-1.32,2.27-2,2.51-2.16a10.78,10.78,0,0,0,1.32-1.22l-.24-.27a3.29,3.29,0,0,1-2.1-.23c-.43-.42-.64-.75-.32-.83a4,4,0,0,0,2-.48,5.26,5.26,0,0,0,2-.16,2,2,0,0,1,1.49.31,4.9,4.9,0,0,1,.8-.94Z" transform="translate(25.32 15.82)"/><path class="cls-27" d="M59.85,67.85A3.22,3.22,0,0,0,63,69a2.42,2.42,0,0,1-2.76,0,3.12,3.12,0,0,0-1.11-.41" transform="translate(25.32 15.82)"/><polygon class="cls-27" points="84.77 86.29 85.61 87.09 85.71 87 84.79 86.22 84.77 86.29"/><polygon class="cls-27" points="85.92 87.19 86.76 87.99 86.86 87.9 85.94 87.12 85.92 87.19"/><polygon class="cls-27" points="87.15 88.06 87.93 88.6 88 88.51 87.16 88 87.15 88.06"/><polygon class="cls-27" points="83.86 85.24 84.47 85.98 84.57 85.92 83.89 85.19 83.86 85.24"/><path class="cls-24" d="M78.84,72.9l21-.81c.26,3.68.16,6.79-1.66,7.22-6.74,1.77-12.68,1.77-19.86.84Z" transform="translate(25.32 15.82)"/><path class="cls-28" d="M80.36,41.29c-3.6,1.27-2.16,19.35-2.63,31.05,5,3.9,14.44,1.34,22.15-.39l-.14-28C93.06,39.33,86.62,38.73,80.36,41.29Z" transform="translate(25.32 15.82)"/><path class="cls-7" d="M93.35,35.85l-.76,6.61c-1.1.79.17-.06-3.16.75-1,.51-4.8-.07-5-.72l1.53-4Z" transform="translate(25.32 15.82)"/><path class="cls-27" d="M84.74,41.6c5.21-.44,7.61-2.78,7.87-5l-7.45,3.48Z" transform="translate(25.32 15.82)"/><path class="cls-7" d="M80.62,28.07c-.09,4.61.28,8.22,1.29,10.82s4.85,1.47,5.45,1.39c4.31-.63,6.07-4.84,6.15-5a21.46,21.46,0,0,0,.24-8.7c-.46-2.44-.55-4.74-2.4-5.54-2.4-1-6.4-.43-8.56.62C81,22.47,80.68,24.64,80.62,28.07Z" transform="translate(25.32 15.82)"/><ellipse class="cls-14" cx="87.77" cy="30.18" rx="0.7" ry="0.96" transform="matrix(0.99, -0.13, 0.13, 0.99, 22.08, 27.8)"/><ellipse class="cls-14" cx="82.9" cy="30.59" rx="0.7" ry="0.96" transform="translate(21.98 27.16) rotate(-7.67)"/><polygon class="cls-27" points="111.39 49.34 109.55 49.48 109.88 45.55 109.96 45.57 110.03 49.01 111.35 49.27 111.39 49.34"/><polygon class="cls-14" points="109.96 49.08 109.94 45.44 110.05 45.43 110.18 49.05 109.96 49.08"/><path class="cls-20" d="M81.51,28.63A1.56,1.56,0,0,1,83,28.47" transform="translate(25.32 15.82)"/><path class="cls-20" d="M86.8,28a1.52,1.52,0,0,1,1.52-.17" transform="translate(25.32 15.82)"/><path class="cls-29" d="M92.43,29.7l-1.25-.31a7.77,7.77,0,0,1-1-4.24,5.79,5.79,0,0,1,3.56-.5c.56.06.63,1.66.56,3.7Z" transform="translate(25.32 15.82)"/><path class="cls-7" d="M92,30.13c.3-1.41,1.69-2.63,2.44-2.36s1,2.45.24,3.91c0,.11-.81,1.47-1.6,1.35S91.72,31.36,92,30.13Z" transform="translate(25.32 15.82)"/><path class="cls-27" d="M94,28.33c-.74,0-1.25,2.66-1.23,2.67h0c.05,0,.48-.33.68-.18a.45.45,0,0,1,.09.11.28.28,0,0,0-.1-.2c-.19-.13-.57.16-.66.25.11-.26.55-2.21,1.16-2.39.21-.07.49.11.51.05A.63.63,0,0,0,94,28.33Z" transform="translate(25.32 15.82)"/><path class="cls-27" d="M86.85,31a1.73,1.73,0,0,0,2.43.29c-.5.91-1.25,1.12-2.43.06Z" transform="translate(25.32 15.82)"/><path class="cls-27" d="M83.74,31.24c-.34.91-.87,1.2-1.59.82.55.78,1.11.81,1.67-.49Z" transform="translate(25.32 15.82)"/><path class="cls-29" d="M84.94,34c-.28,0-1.79.25-2.2,1.26-.19.47-.15,1.1,0,1.15s.18-.22.46-.28.37.12.6,0,.21-.27.39-.3.29.24.53.24.29-.33.61-.39.39.21.68.15.3-.38.6-.44.47.28.83.22.32-.31.58-.32.56.39.64.34-.06-.8-.47-1.26C87.27,33.35,85.27,33.87,84.94,34Z" transform="translate(25.32 15.82)"/><path class="cls-30" d="M80.05,32A2.59,2.59,0,0,0,84,31.47a2.68,2.68,0,0,0-.31-2.3,11.09,11.09,0,0,0-3.93.53A2.61,2.61,0,0,0,80.05,32Z" transform="translate(25.32 15.82)"/><path class="cls-31" d="M80,32.08h0a2.73,2.73,0,0,1-.33-2.41l0-.07.06,0a11.5,11.5,0,0,1,4-.53h.07l0,.06a2.72,2.72,0,0,1,.32,2.42,2.73,2.73,0,0,1-4.14.55Zm-.11-2.28a2.44,2.44,0,0,0,.31,2.12h0a2.47,2.47,0,0,0,3.71-.5,2.38,2.38,0,0,0-.27-2.12A11,11,0,0,0,79.84,29.8Z" transform="translate(25.32 15.82)"/><path class="cls-30" d="M85.66,31.37A2.85,2.85,0,0,0,90,30.79a2.69,2.69,0,0,0-.31-2.29,8.61,8.61,0,0,0-4.31.58A2.69,2.69,0,0,0,85.66,31.37Z" transform="translate(25.32 15.82)"/><path class="cls-31" d="M85.57,31.45h0A2.78,2.78,0,0,1,85.23,29l0-.05,0,0a8.6,8.6,0,0,1,4.37-.59h.07l0,.06a2.78,2.78,0,0,1,.32,2.41A2.67,2.67,0,0,1,88,32.2,2.61,2.61,0,0,1,85.57,31.45Zm-.11-2.29a2.55,2.55,0,0,0,.3,2.13h0a2.74,2.74,0,0,0,4.1-.55,2.54,2.54,0,0,0-.27-2.12A8.35,8.35,0,0,0,85.46,29.16Z" transform="translate(25.32 15.82)"/><path class="cls-31" d="M85.29,29.54a.88.88,0,0,0-1.32.11l0,.22a.88.88,0,0,1,1.25-.2Z" transform="translate(25.32 15.82)"/><polygon class="cls-31" points="115.23 44.76 117.5 45.35 117.44 45.52 115.33 45.06 115.23 44.76"/><path class="cls-28" d="M82.52,52.27c-2.66,3.81-5.5,8.37-7.46,9.1l-4.79-3.78L79.54,41.7Z" transform="translate(25.32 15.82)"/><path class="cls-32" d="M86.65,43.24l-2.44,2.83c-1.07-2-1.56-3.65-.6-5.86a10.68,10.68,0,0,0,1.56.23C84.74,42.63,85.41,42.94,86.65,43.24Z" transform="translate(25.32 15.82)"/><path class="cls-32" d="M93,38.88c-1.5,3.67-3.58,4.91-6.4,4.35l1.77,4.15c2.72-1.39,5.12-3.57,5.52-6.68Z" transform="translate(25.32 15.82)"/><path class="cls-33" d="M99.71,43.89c2.33,1.37,2.12,3.91,4.05,14.49a9.72,9.72,0,0,1-.17,4.3,3.53,3.53,0,0,1-6.51,1.09A89,89,0,0,1,95.52,45.4a2.81,2.81,0,0,1,1.25-2C97.9,42.83,99.3,43.65,99.71,43.89Z" transform="translate(25.32 15.82)"/><path class="cls-7" d="M91.48,73.08,90.42,75a4.12,4.12,0,0,0-1.84.91,4.57,4.57,0,0,0-1.33,2.16,6.27,6.27,0,0,0-.31,1.58c-.1,1.14-.17,2,.34,2.4s1.31.14,2.08-.36a20.93,20.93,0,0,0,1.82-1.45,19.81,19.81,0,0,0,2.64-2.92l1.11-2.81Z" transform="translate(25.32 15.82)"/><path class="cls-33" d="M103.24,62.85c.65,2.25-1,3.69-6,11.36a8.23,8.23,0,0,1-1.09,1.33c-.57.57-1.16,1.38-1.55,1.21a13.37,13.37,0,0,1-4.71-3.29,75,75,0,0,1,9.86-12.22,2.37,2.37,0,0,1,2-.47C102.74,61.1,103.13,62.45,103.24,62.85Z" transform="translate(25.32 15.82)"/><path class="cls-28" d="M70.82,57l-8.33,8.13c.31,1.87,2.27,3.93,4.25,5a85.22,85.22,0,0,0,9.78-9.77Z" transform="translate(25.32 15.82)"/><path class="cls-22" d="M66.39,112.44c3.09-.75,5.89-1.9,7.5-4.7a2.36,2.36,0,0,1,3,.43c.59.61.46,1.26-.07,1.93-1.38,2.08-3.91,3.24-7.71,3.36C66.06,113.49,65.82,113,66.39,112.44Z" transform="translate(25.32 15.82)"/></g><circle class="cls-34" cx="83.98" cy="74.48" r="58.66"/></g></g></g></g></svg>