<svg xmlns="http://www.w3.org/2000/svg" xmlns:xlink="http://www.w3.org/1999/xlink" viewBox="0 0 117.72 122.79"><defs><style>.cls-1,.cls-10,.cls-23,.cls-24,.cls-39,.cls-41{fill:none;}.cls-2{opacity:0.86;}.cls-3{clip-path:url(#clip-path);}.cls-4{fill:#e8d8e4;}.cls-5{fill:#6585f5;}.cls-6{fill:#f8c7a3;}.cls-7{fill:#e3b696;}.cls-8{fill:#f5f5f5;}.cls-9{fill:#412a74;}.cls-10,.cls-24{stroke:#2e3192;}.cls-10,.cls-23,.cls-24{stroke-linecap:round;}.cls-10,.cls-23,.cls-24,.cls-39,.cls-41{stroke-miterlimit:10;}.cls-11{fill:#a67c52;}.cls-12{fill:#ebf4ff;opacity:0.34;}.cls-13{fill:#247d6c;}.cls-14{fill:#edd6bb;}.cls-15{fill:#fff;}.cls-16{fill:#d8d3ed;}.cls-17{fill:#24244a;}.cls-18{fill:#a17272;}.cls-19{fill:#e89780;}.cls-20{fill:#d68b76;}.cls-21{fill:#555;}.cls-22{fill:#40553b;}.cls-23{stroke:#737373;}.cls-23,.cls-24{stroke-width:0.25px;}.cls-25{fill:#efefef;}.cls-26{fill:#e4a6a3;}.cls-27{fill:#c47f7a;}.cls-28{fill:#f9cdca;}.cls-29{fill:#f9ccca;}.cls-30{fill:#622b29;}.cls-31{fill:#e479e3;}.cls-32{fill:#c455be;}.cls-33{fill:#f99bf4;}.cls-34{fill:#f99bf6;}.cls-35{fill:#611762;}.cls-36{fill:#ededed;}.cls-37{fill:#dedede;}.cls-38{fill:#7f9af7;}.cls-39{stroke:#56518c;stroke-width:0.5px;}.cls-40{fill:#e6e6e6;}.cls-41{stroke:#1b1464;stroke-width:2px;opacity:0.22;}.cls-42,.cls-44{fill:#e34079;}.cls-43{fill:#f2b3c9;}.cls-44{font-size:19.76px;font-family:ArialRoundedMTBold, Arial Rounded MT Bold;}.cls-45{fill:#d69f60;}.cls-46{fill:#c1272d;}.cls-47{fill:#b55558;}</style><clipPath id="clip-path"><circle class="cls-1" cx="57.5" cy="57.5" r="56.5"/></clipPath></defs><g id="Layer_2" data-name="Layer 2"><g id="MainLayer"><g id="stories" class="cls-2"><g id="bereavementgroup"><g id="bereavement1"><g class="cls-3"><circle class="cls-4" cx="57.5" cy="57.5" r="56.5"/><path class="cls-5" d="M40.52,62.85,58.83,78.21l7-8.93C58.62,61.8,51.58,54.7,46.49,52.67Z"/><path class="cls-5" d="M47.48,53.3,46.26,90.47c-9.76,5-20.81,9.65-33.3,4.19l.8-43.2C26.61,45.78,37.72,46.88,47.48,53.3Z"/><path class="cls-6" d="M27.27,39.79l-.9,11.46c1.6,1.69-.26-.16,5.12,2.31,1.43,1.18,8.15,1.45,8.66.42l-1.27-7.35Z"/><path class="cls-7" d="M40,52.36c-8.69-2.45-12-7.21-11.68-11.07l11.48,8.35Z"/><path class="cls-8" d="M36.18,54.52l3.2,5.6c2.49-3.08,3.86-5.67,2.95-9.73-.89-.81-2-1.58-3-1.38C39.29,52.86,38.39,54.43,36.18,54.52Z"/><path class="cls-8" d="M26.79,45c1.33,6.71,4.45,9.5,9.41,9.48L31.84,61c-4.15-3.26-7.5-7.74-7.15-13.14Z"/><path class="cls-6" d="M50.3,31.46c-.85,7.92-2.26,14-4.55,18.25s-8.64,1.47-9.64,1.2c-7.25-2-9.35-9.6-9.44-10a36.42,36.42,0,0,1,1.47-15c1.3-4.09,2-8,5.3-9,4.35-1.26,11.06.66,14.53,2.93C50.81,21.78,50.94,25.57,50.3,31.46Z"/><ellipse class="cls-9" cx="37.59" cy="33.52" rx="1.66" ry="1.21" transform="translate(-4.46 61.25) rotate(-75.12)"/><ellipse class="cls-9" cx="45.84" cy="35.28" rx="1.66" ry="1.21" transform="matrix(0.26, -0.97, 0.97, 0.26, -0.03, 70.53)"/><polygon class="cls-7" points="39.78 39.6 42.9 40.25 43.18 33.44 43.04 33.46 42.18 39.34 39.85 39.49 39.78 39.6"/><polygon class="cls-9" points="42.28 39.47 43.1 33.24 42.91 33.21 41.91 39.37 42.28 39.47"/><path class="cls-10" d="M48.65,32.23a2.66,2.66,0,0,0-2.58-.61"/><path class="cls-10" d="M39.72,30.06a2.65,2.65,0,0,0-2.58-.61"/><path class="cls-11" d="M29.71,31.69l2.21-.27a13.42,13.42,0,0,0,2.64-7,10.1,10.1,0,0,0-6-1.62c-1,0-1.45,2.7-1.77,6.22Z"/><path class="cls-6" d="M30.39,32.52c-.21-2.48-2.33-4.87-3.68-4.58s-2.3,4-1.26,6.67c.08.19,1.08,2.68,2.47,2.64S30.56,34.68,30.39,32.52Z"/><path class="cls-7" d="M27.25,29c1.28.14,1.57,4.82,1.53,4.84v0c-.09-.05-.76-.66-1.13-.46-.1.06-.17.18-.19.17a.54.54,0,0,1,.23-.31c.34-.18.94.4,1.08.57-.14-.47-.48-3.91-1.48-4.35-.35-.15-.86.08-.88,0A1,1,0,0,1,27.25,29Z"/><path class="cls-7" d="M39,35.06a3,3,0,0,1-4.21,0c.66,1.67,1.89,2.18,4.14.63Z"/><path class="cls-7" d="M44.26,36.2c.39,1.64,1.23,2.25,2.55,1.76-1.11,1.21-2.07,1.14-2.76-1.2Z"/><path class="cls-11" d="M41.62,40.61c.47.12,3,.81,3.5,2.64.22.84,0,1.91-.27,2s-.26-.41-.72-.57-.67.12-1-.06-.3-.51-.61-.6-.55.34-.95.29-.44-.63-1-.8-.73.27-1.21.12-.43-.73-.93-.9-.86.39-1.46.21-.49-.6-.94-.68-1,.55-1.17.44S35.14,41.3,36,40.6C37.75,39.06,41.07,40.38,41.62,40.61Z"/><path class="cls-12" d="M50.42,38.31c-1.89,1.69-5.81.65-6.61-1.75-.61-1.85.89-3.7,1-3.87a19,19,0,0,1,6.61,1.76C51.49,34.66,51.87,37,50.42,38.31Z"/><path class="cls-13" d="M46.65,39.18a4.27,4.27,0,0,1-3-2.55c-.64-2,.89-3.87,1.07-4.08l.07-.09h.12a19.45,19.45,0,0,1,6.68,1.78l.1,0,0,.11c.05.27.43,2.69-1.09,4.07h0A4.27,4.27,0,0,1,46.65,39.18Zm-1.72-6.26A4.19,4.19,0,0,0,44,36.49a4.25,4.25,0,0,0,6.25,1.66h0a4.15,4.15,0,0,0,1-3.56A19.07,19.07,0,0,0,44.93,32.92Z"/><path class="cls-12" d="M40.94,36c-2,1.87-6.44.69-7.25-1.93-.56-1.8.81-3.59,1-3.86,2.85.21,5.43.68,7.26,1.92C42,32.49,42.32,34.74,40.94,36Z"/><path class="cls-13" d="M36.81,37a4.58,4.58,0,0,1-3.33-2.79c-.56-1.81.67-3.57,1.06-4.07l.07-.09h.12c3.47.26,5.74.86,7.36,2l.08.06v.09a4.78,4.78,0,0,1-1.09,4.06h0A4.6,4.6,0,0,1,36.81,37Zm-2-6.5A4.34,4.34,0,0,0,33.9,34a4.16,4.16,0,0,0,3,2.5,4.17,4.17,0,0,0,3.87-.67h0a4.35,4.35,0,0,0,1-3.58C40.23,31.27,38.08,30.7,34.82,30.45Z"/><path class="cls-13" d="M42,33a1.52,1.52,0,0,1,2.24.47l-.08.39A1.51,1.51,0,0,0,42,33.2Z"/><polygon class="cls-13" points="34.18 30.93 30.17 31.45 30.23 31.76 33.95 31.42 34.18 30.93"/><polygon class="cls-14" points="4.66 94.73 117.72 61.17 113.01 78.82 102.5 108.39 62.42 122.79 25.55 119.33 4.66 94.73"/><polygon class="cls-15" points="101.86 86.75 72.93 79.55 81.17 38.56 110.1 45.76 101.86 86.75"/><polygon class="cls-16" points="100.42 83.91 75.79 77.77 83.09 41.67 107.73 47.81 100.42 83.91"/><path class="cls-15" d="M98.22,77.62c.12-2.1-.07-2.63.31-3.62s.89-1,1.31-2.1.18-1.73.24-3.21a14.89,14.89,0,0,1,.71-3.73,8.5,8.5,0,0,0-.75-.47,7.88,7.88,0,0,0-5.41-1.78,11,11,0,0,0-2.59.46L88.17,80.85l10.07,2.51C98.22,81,98.19,78.22,98.22,77.62Z"/><path class="cls-17" d="M90.21,61.8A8.06,8.06,0,0,0,82,59L77.62,78.22l8.82,2.2Z"/><path class="cls-18" d="M97.49,52.61c-.4.08-.35.41-1.13,1.09-.34.29-.34.23-1,.76a4.94,4.94,0,0,0-1.09.95c-.38.72.11,1.27-.31,1.9-.27.39-.53.27-.75.68s.06.81-.12,1.45-.47.54-1,1.32a2.73,2.73,0,0,0-.65,1.35c0,.92,2.07,1.39,5.23,2.3,1.89.54,3.41,1,4.32,1.29a1.09,1.09,0,0,0,.63-.65c.18-.53-.28-.88-.17-1.51s.59-.54.77-1.21-.31-1.13,0-1.77c.18-.4.42-.34.52-.73s-.16-.7-.21-1.33.21-.54.27-1.35a5,5,0,0,0-.49-2.34.62.62,0,0,0,0-.11l-.08-.13a3.29,3.29,0,0,0-2.22-1.45c-.48-.08-.43.05-.93,0C98.09,52.91,97.94,52.51,97.49,52.61Z"/><path class="cls-19" d="M99.68,65.31c-1.07.62-1,1.87-2,7a5.37,5.37,0,0,0,0,2.1,1.58,1.58,0,0,0,2.93.66,46.71,46.71,0,0,0,.94-8.94,1.45,1.45,0,0,0-.54-1C100.51,64.83,99.87,65.2,99.68,65.31Z"/><path class="cls-19" d="M97.1,67.41c-.36,0-.58-.4-1.2-1.44-1.35-2.26-1.88-3-1.67-3.24,0,0,.15-.1.38,0a6.3,6.3,0,0,1,4.87,1.38c-.85.66-.89,1.71-1.28,2.21C97.69,67,97.48,67.41,97.1,67.41Z"/><path class="cls-19" d="M99.38,75.37c-.62.87-2.12.48-6,.19-.7-.27-3-.49-3.28-.59-2.77-1.13,0-3.07,2.22-1.69C93.45,74,101.8,71.67,99.38,75.37Z"/><path class="cls-19" d="M95.73,59.82,95.1,63a5.67,5.67,0,0,0,1.7,1.94c.31.32.52.25.67,0L98,62.1Z"/><path class="cls-20" d="M97.68,63.7c-1-1.26-1.82-2.45-1.79-3.43l2,2.15Z"/><path class="cls-19" d="M101.8,56.46c1.27,2.15-.83,6.17-3.06,6.13-1.18,0-2.33-1.2-3-2.77l1.49-4.61C99.14,54.65,101,55.19,101.8,56.46Z"/><ellipse class="cls-21" cx="98.5" cy="58.29" rx="0.47" ry="0.32" transform="translate(27 147.66) rotate(-81.95)"/><ellipse class="cls-21" cx="100.68" cy="58.65" rx="0.47" ry="0.32" transform="translate(28.52 150.13) rotate(-81.95)"/><path class="cls-21" d="M100.92,58.52a.61.61,0,0,0,.46-.14.47.47,0,0,1-.5-.05Z"/><path class="cls-21" d="M98.26,58.2a.74.74,0,0,1-.39-.32c.16.13.32.22.48.16Z"/><polygon class="cls-20" points="99.18 59.97 100.01 60.1 99.96 58.17 99.92 58.18 99.8 59.86 99.2 59.94 99.18 59.97"/><polygon class="cls-22" points="99.83 59.89 99.93 58.12 99.88 58.11 99.73 59.87 99.83 59.89"/><path class="cls-23" d="M101.36,57.74a.64.64,0,0,0-.68-.13"/><path class="cls-19" d="M96.6,58.12c-.1-.69-.7-1.33-1-1.23s-.53,1.17-.21,1.9c0,.06.33.75.69.71S96.69,58.73,96.6,58.12Z"/><path class="cls-20" d="M95.72,57.18c.33,0,.49,1.34.49,1.34h0s-.21-.18-.3-.12,0,.06-.05.06a.18.18,0,0,1,.06-.1c.08,0,.25.1.29.15,0-.13-.2-1.1-.47-1.21-.09,0-.22,0-.23,0A.32.32,0,0,1,95.72,57.18Z"/><path class="cls-23" d="M99,57.27a.66.66,0,0,0-.68-.13"/><path class="cls-19" d="M92.2,63c-1.19.25-1.47,1.46-3.83,6a5,5,0,0,0-.55,2,1.62,1.62,0,0,0,2.62,1.56,44.48,44.48,0,0,0,3.34-8.21,1.47,1.47,0,0,0-.25-1.12A1.43,1.43,0,0,0,92.2,63Z"/><path class="cls-18" d="M99.92,54v1.07l-.07.1a3.5,3.5,0,0,1-1.33,1.21c-.4.19-.77.27-1.46.63a6.36,6.36,0,0,0-.72.45L96.78,55Z"/><path class="cls-18" d="M100,55.1c0,.9-1.89,1.77-3.09,2.31,1.14-.62,2.86-1.6,3-2.46Z"/><path class="cls-18" d="M100,55.07c.81-.19,2.14,1.55,2.11,2.86-.51-2-1.41-2.78-2.21-2.69Z"/><path class="cls-6" d="M86,56.76l-.93,3.05c.29.57-.06-.06,1.12,1,.28.42,1.93.95,2.12.7l.15-2.08Z"/><path class="cls-7" d="M88.4,61c-2-1.25-2.53-2.77-2.21-3.79l2.33,3Z"/><path class="cls-6" d="M91.58,54a15.66,15.66,0,0,1,0,5.26c-.3,1.27-2,1-2.32,1a3.78,3.78,0,0,1-2.95-2.07A11.26,11.26,0,0,1,85.74,54c.08-1.2,0-2.31.77-2.8A5,5,0,0,1,90.3,51C91.12,51.35,91.38,52.37,91.58,54Z"/><ellipse class="cls-9" cx="88.55" cy="55.43" rx="0.47" ry="0.31" transform="translate(31.71 143.08) rotate(-89.08)"/><ellipse class="cls-9" cx="90.71" cy="55.35" rx="0.47" ry="0.31" transform="translate(33.91 145.16) rotate(-89.08)"/><polygon class="cls-7" points="89.46 56.93 90.28 56.9 89.93 55.03 89.9 55.05 90.04 56.7 89.47 56.9 89.46 56.93"/><polygon class="cls-9" points="90.08 56.73 89.9 54.98 89.85 54.99 89.98 56.73 90.08 56.73"/><path class="cls-24" d="M91.22,54.34a.64.64,0,0,0-.68,0"/><path class="cls-24" d="M88.87,54.35a.64.64,0,0,0-.68,0"/><path class="cls-11" d="M86.48,55.46l.53-.22a4.08,4.08,0,0,0,.23-2.09,2.33,2.33,0,0,0-1.59,0c-.24.06-.19.83-.06,1.81Z"/><path class="cls-6" d="M86.7,55.64c-.2-.66-.88-1.17-1.19-1s-.33,1.24.09,1.9c0,0,.43.65.77.55S86.88,56.22,86.7,55.64Z"/><path class="cls-7" d="M85.71,54.89c.32,0,.68,1.21.67,1.21h0s-.23-.13-.31-.05,0,.06,0,.06a.22.22,0,0,1,0-.1c.07-.07.26,0,.3.08-.06-.12-.36-1-.63-1.08-.1,0-.21.08-.22.05S85.61,54.91,85.71,54.89Z"/><path class="cls-7" d="M89,55.75a.73.73,0,0,1-1,.28c.27.41.61.46,1.07-.11Z"/><path class="cls-7" d="M90.37,55.71c.2.42.44.53.74.31-.2.4-.45.44-.76-.14Z"/><path class="cls-11" d="M90,57.08c.13,0,.8,0,1,.49.11.21.12.51.06.55S91,58,90.85,58s-.16.08-.26.05-.11-.12-.19-.12-.11.13-.22.14-.15-.14-.29-.15-.16.12-.29.11-.15-.16-.28-.18S89.13,58,89,58s-.16-.13-.28-.13-.22.22-.26.2,0-.38.14-.63C88.93,56.92,89.83,57.06,90,57.08Z"/><path class="cls-12" d="M92,55.87a1.08,1.08,0,0,1-1.75,0,1.32,1.32,0,0,1,0-1.12,4.48,4.48,0,0,1,1.75,0A1.39,1.39,0,0,1,92,55.87Z"/><path class="cls-13" d="M91.14,56.36a1.08,1.08,0,0,1-.91-.49,1.43,1.43,0,0,1,0-1.18v0h0a4.38,4.38,0,0,1,1.77,0h0v0a1.4,1.4,0,0,1,0,1.17h0A1,1,0,0,1,91.14,56.36Zm-.8-1.59a1.23,1.23,0,0,0,0,1,1,1,0,0,0,1.65,0h0a1.27,1.27,0,0,0,0-1A4.67,4.67,0,0,0,90.34,54.77Z"/><path class="cls-12" d="M89.53,55.88a1.19,1.19,0,0,1-1.92,0,1.47,1.47,0,0,1,0-1.12,3.53,3.53,0,0,1,1.92,0A1.36,1.36,0,0,1,89.53,55.88Z"/><path class="cls-13" d="M88.56,56.41a1.13,1.13,0,0,1-1-.53,1.49,1.49,0,0,1,0-1.18l0,0h0a3.4,3.4,0,0,1,1.94,0h0v0a1.4,1.4,0,0,1,0,1.18h0A1.15,1.15,0,0,1,88.56,56.41Zm-.89-1.63a1.32,1.32,0,0,0,0,1,1,1,0,0,0,.91.48,1,1,0,0,0,.92-.44h0a1.37,1.37,0,0,0,0-1A3.44,3.44,0,0,0,87.67,54.78Z"/><path class="cls-13" d="M89.6,55a.38.38,0,0,1,.59,0v.11a.36.36,0,0,0-.55,0Z"/><polygon class="cls-13" points="87.54 54.95 86.58 55.36 86.61 55.44 87.52 55.1 87.54 54.95"/><path class="cls-17" d="M87.18,65.69l-.32,8.49a5,5,0,0,0,2.73.17c1.08-5.2,2.75-11.9.37-13Z"/><path class="cls-17" d="M81.28,59c-1.12.45-1.22,1.68-2.89,6.54a5.3,5.3,0,0,0-.27,2.07,1.55,1.55,0,0,0,2.74,1.09A46,46,0,0,0,83,60.12a1.44,1.44,0,0,0-.39-1A1.33,1.33,0,0,0,81.28,59Z"/><path class="cls-17" d="M78.55,68.34c.12,1.14,1.07,1.51,4.6,4.14a3.14,3.14,0,0,0,.7.43c.34.16.74.42.88.28a6.19,6.19,0,0,0,1.45-2.29A35.81,35.81,0,0,0,79.78,67a1.06,1.06,0,0,0-.93.13C78.46,67.46,78.53,68.14,78.55,68.34Z"/><path class="cls-6" d="M85.72,71.17l.89.39a1.67,1.67,0,0,1,.89-.21,2,2,0,0,1,1,.41,2.46,2.46,0,0,1,.54.5c.35.39.63.71.55,1s-.41.45-.81.5a8.84,8.84,0,0,1-1,0,8.4,8.4,0,0,1-1.72-.29l-1.16-.72Z"/><polygon class="cls-8" points="85.48 62.05 86.22 66.35 88.18 62.63 87.58 61.46 87.33 61.36 85.48 62.05"/><path class="cls-25" d="M87.33,61.36l.44,1.74a3,3,0,0,0,1.34-2.44c-.26-.06-.45-.45-.68-.55C88.19,61.16,87.88,61.49,87.33,61.36Z"/><path class="cls-25" d="M85.59,58.15c-.09,1.91.51,2.88,1.74,3.21l-1.48,1.46a4.76,4.76,0,0,1-1-4Z"/><path class="cls-5" d="M86.26,62a.94.94,0,0,0,0,.88l-.34,1.72.27,1.84.94-1.87,0-1.48c.39-.37.69-.75.5-1.14s-.77-.47-1.25-.31Z"/><path class="cls-26" d="M96.77,53.69c-.15-.16,0-.45,0-.51s.1-.24.23-.26.26.12.31.24a.47.47,0,0,1-.15.58A.33.33,0,0,1,96.77,53.69Z"/><path class="cls-27" d="M97,53.82c0-.23.3-.31.36-.33a.33.33,0,0,1,.33,0,.43.43,0,0,1-.47.65A.36.36,0,0,1,97,53.82Z"/><path class="cls-28" d="M96.68,53.89c-.2.06-.37-.19-.41-.24a.41.41,0,0,1-.1-.33.32.32,0,0,1,.33-.18.45.45,0,0,1,.39.42A.36.36,0,0,1,96.68,53.89Z"/><path class="cls-26" d="M97,54c.06.21-.18.39-.22.43s-.19.15-.31.1a.38.38,0,0,1-.16-.37.41.41,0,0,1,.39-.4A.34.34,0,0,1,97,54Z"/><path class="cls-29" d="M97.1,53.89c.21,0,.31.29.33.35s.09.24,0,.35a.31.31,0,0,1-.36.07.46.46,0,0,1-.27-.52A.34.34,0,0,1,97.1,53.89Z"/><path class="cls-26" d="M97,53.67c.06-.12.24-.1.27-.09s.15,0,.18.09a.22.22,0,0,1-.07.24.24.24,0,0,1-.33,0A.26.26,0,0,1,97,53.67Z"/><path class="cls-27" d="M96.93,53.82c.13,0,.23.13.25.16s.08.13,0,.21a.19.19,0,0,1-.21.09.26.26,0,0,1-.23-.27A.22.22,0,0,1,96.93,53.82Z"/><path class="cls-28" d="M96.84,53.65c-.07-.11,0-.27,0-.3s.08-.12.16-.12a.2.2,0,0,1,.15.18.26.26,0,0,1-.15.31A.19.19,0,0,1,96.84,53.65Z"/><path class="cls-26" d="M96.83,53.85c-.11.07-.25,0-.28-.07a.24.24,0,0,1-.11-.17.23.23,0,0,1,.17-.17.27.27,0,0,1,.29.18A.24.24,0,0,1,96.83,53.85Z"/><path class="cls-29" d="M96.92,53.91c0,.13-.1.24-.12.27s-.11.09-.19.06-.1-.13-.1-.21.1-.26.22-.25A.2.2,0,0,1,96.92,53.91Z"/><ellipse class="cls-30" cx="96.9" cy="53.77" rx="0.16" ry="0.17" transform="translate(-3.79 7.48) rotate(-4.34)"/><path class="cls-31" d="M95.55,53.45c-.15-.16,0-.45,0-.51s.1-.24.23-.26.26.12.31.24a.48.48,0,0,1-.16.58A.32.32,0,0,1,95.55,53.45Z"/><path class="cls-32" d="M95.76,53.58c0-.23.29-.31.35-.33s.23-.07.33,0a.38.38,0,0,1,0,.41.4.4,0,0,1-.51.24A.36.36,0,0,1,95.76,53.58Z"/><path class="cls-33" d="M95.46,53.65c-.19.06-.37-.19-.4-.24s-.15-.2-.1-.33a.31.31,0,0,1,.33-.18.43.43,0,0,1,.38.42A.34.34,0,0,1,95.46,53.65Z"/><path class="cls-31" d="M95.75,53.78c0,.21-.18.39-.23.43s-.19.15-.31.1a.4.4,0,0,1-.16-.37.43.43,0,0,1,.39-.4A.35.35,0,0,1,95.75,53.78Z"/><path class="cls-34" d="M95.89,53.65c.2,0,.31.29.33.35a.42.42,0,0,1,0,.35.32.32,0,0,1-.37.07.46.46,0,0,1-.26-.52A.33.33,0,0,1,95.89,53.65Z"/><path class="cls-31" d="M95.75,53.43c.06-.12.23-.1.27-.09a.22.22,0,0,1,.18.1.22.22,0,0,1-.07.23.24.24,0,0,1-.33,0A.22.22,0,0,1,95.75,53.43Z"/><path class="cls-32" d="M95.72,53.58c.12,0,.22.13.24.16A.25.25,0,0,1,96,54a.2.2,0,0,1-.21.1.28.28,0,0,1-.22-.28A.2.2,0,0,1,95.72,53.58Z"/><path class="cls-33" d="M95.62,53.41c-.07-.11,0-.26.06-.3s.08-.12.15-.12.14.11.16.18a.26.26,0,0,1-.15.31A.21.21,0,0,1,95.62,53.41Z"/><path class="cls-31" d="M95.61,53.61c-.1.07-.24,0-.27-.07a.24.24,0,0,1-.11-.17.18.18,0,0,1,.16-.16.24.24,0,0,1,.29.17A.22.22,0,0,1,95.61,53.61Z"/><path class="cls-34" d="M95.71,53.67c0,.13-.1.24-.13.27s-.11.09-.18.07-.11-.14-.11-.22a.27.27,0,0,1,.23-.25A.21.21,0,0,1,95.71,53.67Z"/><ellipse class="cls-35" cx="95.68" cy="53.53" rx="0.16" ry="0.17" transform="translate(-3.78 7.39) rotate(-4.34)"/><path class="cls-26" d="M98.88,54c-.15-.17,0-.46,0-.52s.1-.23.23-.25.26.12.31.24a.46.46,0,0,1-.16.57A.3.3,0,0,1,98.88,54Z"/><path class="cls-27" d="M99.08,54.08c0-.22.3-.31.36-.33s.23-.07.33,0a.41.41,0,1,1-.69.3Z"/><path class="cls-28" d="M98.79,54.16c-.2.06-.38-.19-.41-.24a.43.43,0,0,1-.1-.34.33.33,0,0,1,.33-.17.44.44,0,0,1,.39.42A.37.37,0,0,1,98.79,54.16Z"/><path class="cls-26" d="M99.07,54.28c.06.22-.18.4-.22.44s-.2.14-.31.09-.17-.24-.16-.36a.42.42,0,0,1,.39-.41A.35.35,0,0,1,99.07,54.28Z"/><path class="cls-29" d="M99.21,54.15c.2,0,.31.3.33.36a.42.42,0,0,1,0,.35.32.32,0,0,1-.37.06.46.46,0,0,1-.26-.51A.35.35,0,0,1,99.21,54.15Z"/><path class="cls-26" d="M99.07,53.94c.06-.13.24-.1.27-.1s.15,0,.18.1a.22.22,0,0,1-.07.24.24.24,0,0,1-.33,0A.22.22,0,0,1,99.07,53.94Z"/><path class="cls-27" d="M99,54.08c.13,0,.22.13.24.17s.09.13,0,.21a.19.19,0,0,1-.21.09.28.28,0,0,1-.22-.27A.22.22,0,0,1,99,54.08Z"/><path class="cls-28" d="M99,53.91c-.07-.11,0-.26,0-.29s.08-.12.16-.12.14.1.15.18a.26.26,0,0,1-.15.31A.18.18,0,0,1,99,53.91Z"/><path class="cls-26" d="M98.94,54.11c-.11.08-.25,0-.28-.06a.24.24,0,0,1-.11-.18c0-.08.1-.14.17-.16a.24.24,0,0,1,.28.17A.23.23,0,0,1,98.94,54.11Z"/><path class="cls-29" d="M99,54.18c0,.12-.1.24-.12.26a.19.19,0,0,1-.19.07.22.22,0,0,1-.1-.21.25.25,0,0,1,.22-.26A.19.19,0,0,1,99,54.18Z"/><ellipse class="cls-30" cx="99.01" cy="54.03" rx="0.16" ry="0.17" transform="translate(-3.8 7.64) rotate(-4.34)"/><path class="cls-31" d="M97.86,53.86c-.15-.17,0-.46,0-.51s.1-.24.23-.26.26.12.31.24a.48.48,0,0,1-.16.58A.34.34,0,0,1,97.86,53.86Z"/><path class="cls-32" d="M98.06,54c0-.23.3-.32.36-.33a.33.33,0,0,1,.33,0,.38.38,0,0,1,0,.41.4.4,0,0,1-.51.24A.39.39,0,0,1,98.06,54Z"/><path class="cls-33" d="M97.77,54.06c-.2.06-.37-.19-.41-.24a.39.39,0,0,1-.09-.34.32.32,0,0,1,.33-.17.43.43,0,0,1,.38.42A.34.34,0,0,1,97.77,54.06Z"/><path class="cls-31" d="M98.06,54.18c0,.22-.18.4-.23.44s-.19.15-.31.1a.4.4,0,0,1-.16-.37c0-.2.19-.42.39-.4A.33.33,0,0,1,98.06,54.18Z"/><path class="cls-34" d="M98.19,54.05c.21,0,.31.3.34.36a.42.42,0,0,1,0,.35.34.34,0,0,1-.37.07.45.45,0,0,1-.26-.52A.33.33,0,0,1,98.19,54.05Z"/><path class="cls-31" d="M98.06,53.84c.06-.12.23-.1.27-.09a.21.21,0,0,1,.18.09.26.26,0,0,1-.07.24.25.25,0,0,1-.34,0A.23.23,0,0,1,98.06,53.84Z"/><path class="cls-32" d="M98,54c.12,0,.22.13.24.16a.25.25,0,0,1,0,.21c0,.08-.14.1-.21.09a.26.26,0,0,1-.22-.27A.2.2,0,0,1,98,54Z"/><path class="cls-33" d="M97.93,53.82c-.07-.12,0-.27,0-.3s.09-.12.16-.12.14.1.16.18a.26.26,0,0,1-.15.31A.21.21,0,0,1,97.93,53.82Z"/><path class="cls-31" d="M97.92,54c-.1.08-.24,0-.27-.06s-.12-.09-.11-.17.09-.15.16-.17a.25.25,0,0,1,.29.17A.22.22,0,0,1,97.92,54Z"/><path class="cls-34" d="M98,54.08c0,.13-.1.24-.13.27s-.11.09-.18.06a.23.23,0,0,1-.11-.21.26.26,0,0,1,.23-.26A.23.23,0,0,1,98,54.08Z"/><ellipse class="cls-35" cx="97.99" cy="53.94" rx="0.16" ry="0.17" transform="translate(-3.8 7.57) rotate(-4.34)"/><path class="cls-26" d="M101,54.27c-.15-.17,0-.46,0-.52s.1-.23.23-.25.26.12.31.24a.46.46,0,0,1-.16.57A.32.32,0,0,1,101,54.27Z"/><path class="cls-27" d="M101.23,54.39c0-.22.3-.31.36-.33s.23-.07.33,0a.4.4,0,0,1,0,.41.41.41,0,0,1-.51.24A.39.39,0,0,1,101.23,54.39Z"/><path class="cls-28" d="M100.94,54.47c-.2.06-.37-.19-.41-.24a.43.43,0,0,1-.1-.34.34.34,0,0,1,.34-.17.42.42,0,0,1,.38.42A.34.34,0,0,1,100.94,54.47Z"/><path class="cls-26" d="M101.23,54.59c0,.22-.18.4-.23.44s-.19.14-.31.09a.38.38,0,0,1-.16-.36.43.43,0,0,1,.39-.41A.35.35,0,0,1,101.23,54.59Z"/><path class="cls-29" d="M101.36,54.46c.21,0,.31.3.33.36a.39.39,0,0,1,0,.35.3.3,0,0,1-.36.06.44.44,0,0,1-.26-.51A.33.33,0,0,1,101.36,54.46Z"/><path class="cls-26" d="M101.23,54.25c.06-.13.23-.1.27-.1a.22.22,0,0,1,.18.1.27.27,0,0,1-.07.24.25.25,0,0,1-.34,0A.24.24,0,0,1,101.23,54.25Z"/><path class="cls-27" d="M101.2,54.39c.12,0,.22.13.24.17a.24.24,0,0,1,0,.21c0,.08-.14.1-.21.09a.27.27,0,0,1-.22-.27A.21.21,0,0,1,101.2,54.39Z"/><path class="cls-28" d="M101.1,54.22c-.07-.11,0-.26.05-.29s.09-.12.16-.12.14.1.16.18a.26.26,0,0,1-.15.31A.19.19,0,0,1,101.1,54.22Z"/><path class="cls-26" d="M101.09,54.42c-.1.08-.24,0-.27-.06s-.12-.09-.11-.18.09-.14.16-.16a.25.25,0,0,1,.29.17A.22.22,0,0,1,101.09,54.42Z"/><path class="cls-29" d="M101.19,54.49c0,.12-.1.24-.13.26s-.11.1-.18.07a.23.23,0,0,1-.11-.21.26.26,0,0,1,.23-.26A.21.21,0,0,1,101.19,54.49Z"/><ellipse class="cls-30" cx="101.16" cy="54.34" rx="0.16" ry="0.17" transform="translate(-3.82 7.81) rotate(-4.34)"/><path class="cls-31" d="M100,54.17c-.15-.17,0-.46,0-.51s.1-.24.23-.26.26.12.31.24a.49.49,0,0,1-.15.58A.33.33,0,0,1,100,54.17Z"/><path class="cls-32" d="M100.22,54.3c0-.23.3-.32.36-.33a.33.33,0,0,1,.33,0,.43.43,0,0,1-.47.65A.39.39,0,0,1,100.22,54.3Z"/><path class="cls-33" d="M99.93,54.37c-.2.06-.38-.19-.41-.24a.42.42,0,0,1-.1-.34.33.33,0,0,1,.33-.17.45.45,0,0,1,.39.42A.37.37,0,0,1,99.93,54.37Z"/><path class="cls-31" d="M100.21,54.49c.06.22-.18.4-.22.44s-.19.15-.31.1a.38.38,0,0,1-.16-.37c0-.2.18-.42.39-.4A.33.33,0,0,1,100.21,54.49Z"/><path class="cls-34" d="M100.35,54.36c.21,0,.31.3.33.36s.09.24,0,.35a.32.32,0,0,1-.36.07.47.47,0,0,1-.27-.52A.35.35,0,0,1,100.35,54.36Z"/><path class="cls-31" d="M100.21,54.15c.06-.12.24-.1.27-.09s.15,0,.18.09a.22.22,0,0,1-.07.24.23.23,0,0,1-.38-.24Z"/><path class="cls-32" d="M100.18,54.3c.13,0,.23.13.25.16s.08.13,0,.21a.2.2,0,0,1-.21.09.26.26,0,0,1-.23-.27C100.05,54.41,100.1,54.31,100.18,54.3Z"/><path class="cls-33" d="M100.09,54.13c-.07-.12,0-.27,0-.3s.08-.12.16-.12a.2.2,0,0,1,.15.18.26.26,0,0,1-.15.31A.19.19,0,0,1,100.09,54.13Z"/><path class="cls-31" d="M100.08,54.32c-.11.08-.25,0-.28-.06a.24.24,0,0,1-.11-.17.23.23,0,0,1,.17-.17.26.26,0,0,1,.29.17A.23.23,0,0,1,100.08,54.32Z"/><path class="cls-34" d="M100.17,54.39c0,.13-.1.24-.12.27s-.11.09-.19.06-.1-.14-.1-.21a.25.25,0,0,1,.22-.26A.2.2,0,0,1,100.17,54.39Z"/><ellipse class="cls-35" cx="100.15" cy="54.25" rx="0.16" ry="0.17" transform="translate(-3.82 7.73) rotate(-4.34)"/><path class="cls-31" d="M101.91,54.36c-.15-.17,0-.46,0-.51s.1-.24.23-.26.26.12.31.24a.46.46,0,0,1-.16.57A.32.32,0,0,1,101.91,54.36Z"/><path class="cls-32" d="M102.12,54.49c0-.23.29-.32.35-.33a.33.33,0,0,1,.33,0,.38.38,0,0,1,0,.41.4.4,0,0,1-.51.24A.38.38,0,0,1,102.12,54.49Z"/><path class="cls-33" d="M101.82,54.56c-.2.06-.37-.19-.4-.24s-.15-.21-.1-.34a.32.32,0,0,1,.33-.17.42.42,0,0,1,.38.42A.34.34,0,0,1,101.82,54.56Z"/><path class="cls-31" d="M102.11,54.68c0,.22-.18.4-.23.44a.33.33,0,0,1-.31.09.37.37,0,0,1-.16-.36c0-.2.19-.42.39-.41A.35.35,0,0,1,102.11,54.68Z"/><path class="cls-34" d="M102.24,54.55c.21,0,.31.3.34.36a.42.42,0,0,1,0,.35.32.32,0,0,1-.37.06.45.45,0,0,1-.26-.51A.33.33,0,0,1,102.24,54.55Z"/><path class="cls-31" d="M102.11,54.34c.06-.13.23-.1.27-.1a.22.22,0,0,1,.18.1.27.27,0,0,1-.07.24.25.25,0,0,1-.34,0A.24.24,0,0,1,102.11,54.34Z"/><path class="cls-32" d="M102.08,54.48c.12,0,.22.14.24.17a.24.24,0,0,1,.05.21c0,.08-.14.1-.21.09a.26.26,0,0,1-.22-.27A.21.21,0,0,1,102.08,54.48Z"/><path class="cls-33" d="M102,54.32A.28.28,0,0,1,102,54s.08-.12.15-.12.14.1.16.18a.26.26,0,0,1-.15.31A.21.21,0,0,1,102,54.32Z"/><path class="cls-31" d="M102,54.51c-.1.08-.24,0-.27-.06s-.12-.09-.11-.17.09-.15.16-.17a.25.25,0,0,1,.29.17A.22.22,0,0,1,102,54.51Z"/><path class="cls-34" d="M102.07,54.58c0,.12-.1.24-.13.26s-.11.1-.18.07a.23.23,0,0,1-.11-.21.26.26,0,0,1,.23-.26A.21.21,0,0,1,102.07,54.58Z"/><ellipse class="cls-35" cx="102.04" cy="54.43" rx="0.16" ry="0.17" transform="matrix(1, -0.08, 0.08, 1, -3.83, 7.88)"/><polygon class="cls-36" points="81.17 38.56 83.91 38.08 111.93 45.25 110.1 45.76 81.17 38.56"/><polygon class="cls-37" points="111.93 45.25 104.2 85.36 101.86 86.75 110.1 45.76 111.93 45.25"/><path class="cls-38" d="M13.18,51.74C9.57,54.37,10.36,58.32,9,75.32c-1.38,8,6.81,15.05,12,7C20.86,78,25.1,42.28,13.18,51.74Z"/><path class="cls-39" d="M20,52.42c2.41,10.81,2.42,19,1.12,22.67"/><polygon class="cls-15" points="51.47 73.34 53.33 58.25 74.88 59.03 72.86 74.64 51.47 73.34"/><path class="cls-40" d="M72.86,74.65,51.47,73.34C45.39,76.9,43,80.93,42.23,85.17l17.9-.7C60.49,80.67,65.23,77.46,72.86,74.65Z"/><polygon class="cls-6" points="39.54 75.69 47.2 70.73 53.37 70.23 57.75 71.12 57.87 72.64 53.56 72.51 49.89 72.81 53.14 73.04 57.07 73.59 57.05 75.42 50.25 75.58 54.69 76.14 54.5 78.09 50.44 78.42 53.6 78.69 53.06 80.32 49.4 82.55 40.35 82.85 39.54 75.69"/><path class="cls-38" d="M12.71,83.29c1,3.14,11.43,3.61,23.92,3.68,5.52.63,2.83-8.61,2.41-11.84C34.46,75.26,3.43,71.8,12.71,83.29Z"/><path class="cls-39" d="M39,75.13c-7.68-.4-16.35-1.23-19,.53"/><path d="M22.09,64.5C19,66,14.51,65.37,9.73,64l-.32,5.89a14.31,14.31,0,0,0,12.73,1.37A31.79,31.79,0,0,0,22.09,64.5Z"/></g><circle class="cls-41" cx="57.5" cy="57.5" r="56.5"/><path class="cls-42" d="M74.11,24.66l-14.92.05-4.25,4.68-2.49.13L54.83,5.06A3.19,3.19,0,0,1,58,1.86l15.5-.06A3.19,3.19,0,0,1,76.73,5l.07,17A2.71,2.71,0,0,1,74.11,24.66Z"/><path class="cls-43" d="M71.63,24.44l-14.91,0-4.29,4.94V24.51L52.36,4.84a3.19,3.19,0,0,1,3.18-3.2L71,1.58a3.22,3.22,0,0,1,3.22,3.2l.06,17A2.7,2.7,0,0,1,71.63,24.44Z"/><text class="cls-44" transform="translate(58.21 19.19)">?</text><polygon class="cls-11" points="95.61 94.64 72.11 96.26 60.17 90.41 60.09 89.56 83.67 89.76 95.48 93.64 95.61 94.64"/><polygon class="cls-45" points="95.53 93.75 72.02 95.37 60.08 89.52 83.59 87.9 95.53 93.75"/><polygon class="cls-46" points="92.5 93.3 68.99 94.92 57.05 89.07 56.98 88.22 80.56 88.42 92.36 92.31 92.5 93.3"/><polygon class="cls-47" points="92.41 92.42 68.91 94.03 56.97 88.19 80.47 86.57 92.41 92.42"/><polygon class="cls-11" points="94.96 91.51 71.45 93.13 59.52 87.28 59.44 86.43 83.02 86.63 94.83 90.51 94.96 91.51"/><polygon class="cls-45" points="94.87 90.62 71.37 92.24 59.43 86.39 82.93 84.77 94.87 90.62"/><polygon class="cls-15" points="87.55 88.08 77.71 88.76 72.71 86.31 82.55 85.63 87.55 88.08"/><path class="cls-15" d="M52.8,89.06c4.29,4,8.63,7.17,13.08,9l3.36-1.39a62.14,62.14,0,0,1-12.91-8.92Z"/></g></g></g></g></g></svg>