<svg xmlns="http://www.w3.org/2000/svg" xmlns:xlink="http://www.w3.org/1999/xlink" viewBox="0 0 108.93 113.38"><defs><style>.cls-1,.cls-14,.cls-22,.cls-31{fill:none;}.cls-15,.cls-2{fill:#fff;}.cls-3{fill:#5789ba;}.cls-4{fill:#65aff5;}.cls-5{fill:#466f96;}.cls-6{fill:#fafafa;}.cls-7{fill:#31ab94;}.cls-8{fill:#a8a8a8;}.cls-9{fill:#d4d3d6;}.cls-10{fill:#add9d1;}.cls-11{fill:#298f7c;}.cls-12{opacity:0.86;}.cls-13{fill:url(#radial-gradient);}.cls-14{stroke:#1b1464;stroke-width:2px;opacity:0.22;}.cls-14,.cls-22,.cls-31{stroke-miterlimit:10;}.cls-15{font-size:12.14px;font-family:Arial-BoldMT, Arial;font-weight:700;}.cls-16{clip-path:url(#clip-path);}.cls-17{fill:#787878;}.cls-18{fill:#c6c6c6;}.cls-19{fill:#848284;}.cls-20{fill:#555;}.cls-21{fill:#40553b;}.cls-22{stroke:#737373;}.cls-22,.cls-31{stroke-linecap:round;}.cls-23{fill:#4d4d4d;}.cls-24{clip-path:url(#clip-path-2);}.cls-25{fill:#6585f5;}.cls-26{fill:#7f9af7;}.cls-27{fill:#f8c7a3;}.cls-28{fill:#e3b696;}.cls-29{fill:#f5f5f5;}.cls-30{fill:#412a74;}.cls-31{stroke:#2e3192;stroke-width:0.5px;}.cls-32{fill:#a67c52;}.cls-33{fill:#ebf4ff;opacity:0.34;}.cls-34{fill:#247d6c;}</style><radialGradient id="radial-gradient" cx="52.48" cy="52.82" r="51.82" gradientUnits="userSpaceOnUse"><stop offset="0" stop-color="#cedcc8"/><stop offset="0.72" stop-color="#fff"/></radialGradient><clipPath id="clip-path"><polygon class="cls-1" points="48.17 92.72 34.17 92.54 27.1 80.33 35.13 64.1 50.53 65.72 55.09 80.69 48.17 92.72"/></clipPath><clipPath id="clip-path-2"><path class="cls-1" d="M47.58,63.33l-14.16-.18-7-12.28,8.08-16.31c5.94-1.14,11.36-1.15,15.47,1.63l4.58,15Z"/></clipPath><symbol id="hex-connector" data-name="hex-connector" viewBox="0 0 14.01 15.06"><rect class="cls-7" width="14.01" height="15.06"/></symbol><symbol id="hex-plain" data-name="hex-plain" viewBox="0 0 132.05 112.17"><polygon class="cls-7" points="101.86 106.56 91.86 112.14 30.27 5.92 40.13 0 101.18 0.79 132.05 54.07 101.86 106.56"/><polygon class="cls-10" points="91.92 112.17 30.87 111.39 0 58.11 30.18 5.62 91.24 6.4 122.11 59.68 91.92 112.17"/></symbol><symbol id="raised-tick" data-name="raised-tick" viewBox="0 0 40.24 38.15"><path class="cls-11" d="M40.23,17.69c.7,23.58-36.76,23.58-36.76,0S40.93-5.9,40.23,17.69Z"/><path class="cls-7" d="M36.76,20.46C37.46,44.05,0,44.05,0,20.46S36.76-3.82,36.76,20.46Z"/><polygon class="cls-2" points="5.51 21.98 13.24 31.2 31.27 13.89 28.34 11.13 13.38 24.96 8.7 19.44 5.51 21.98"/></symbol><symbol id="hex-green-tick" data-name="hex-green-tick" viewBox="0 0 132.05 112.17"><use width="132.05" height="112.18" xlink:href="#hex-plain"/><use width="40.24" height="38.15" transform="translate(87.72 6.67)" xlink:href="#raised-tick"/></symbol><symbol id="hex-grey" data-name="hex-grey" viewBox="0 0 132.05 112.17"><polygon class="cls-8" points="101.86 106.56 91.86 112.14 30.27 5.92 40.13 0 101.18 0.79 132.05 54.07 101.86 106.56"/><polygon class="cls-9" points="91.92 112.17 30.87 111.39 0 58.11 30.18 5.62 91.24 6.4 122.11 59.68 91.92 112.17"/></symbol><symbol id="hex-blue-clock" data-name="hex-blue-clock" viewBox="0 0 132.05 112.17"><polygon class="cls-3" points="101.86 106.56 91.86 112.14 30.27 5.92 40.13 0 101.18 0.79 132.05 54.07 101.86 106.56"/><polygon class="cls-4" points="91.92 112.17 30.87 111.39 0 58.11 30.18 5.62 91.24 6.4 122.11 59.68 91.92 112.17"/><path class="cls-5" d="M124.71,25.66c.69,23.59-36.77,23.59-36.77,0S125.4,2.08,124.71,25.66Z"/><path class="cls-3" d="M121.24,28.44c.69,23.58-36.77,23.58-36.77,0S121.24,4.16,121.24,28.44Z"/><circle class="cls-6" cx="102.81" cy="28.31" r="13.83"/><path d="M102.8,42.47A14.17,14.17,0,1,1,117,28.31,14.18,14.18,0,0,1,102.8,42.47Zm0-27.67a13.51,13.51,0,1,0,13.51,13.51A13.52,13.52,0,0,0,102.8,14.8Z"/><polygon points="100.83 28.3 108.73 18.43 102.81 28.3 104.78 35.55 100.83 28.3"/><polygon points="102.15 14.47 103.17 17.54 104.12 14.47 102.15 14.47"/><polyline points="104.12 42.14 102.54 42.14 103.14 38.97"/><polyline points="88.97 28.04 88.97 29.62 91.61 28.96"/><polyline points="116.64 26.99 116.64 28.96 113.34 27.65"/></symbol><symbol id="fast-forward" data-name="fast-forward" viewBox="0 0 74.08 30.84"><polygon class="cls-2" points="26.71 15.42 0 0 0 30.84 26.71 15.42"/><polygon class="cls-2" points="50.22 15.42 23.51 0 23.51 30.84 50.22 15.42"/><polygon class="cls-2" points="74.08 15.42 47.37 0 47.37 30.84 74.08 15.42"/></symbol></defs><g id="Layer_2" data-name="Layer 2"><g id="MainLayer"><g id="stories" class="cls-12"><g id="bereavementgroup"><g id="bereavement3"><circle class="cls-13" cx="52.48" cy="52.82" r="51.82"/><use width="14.01" height="15.06" transform="matrix(-0.12, -0.2, -0.25, 0.16, 83.85, 55.58)" xlink:href="#hex-connector"/><circle class="cls-14" cx="52.82" cy="52.82" r="51.82"/><use width="14.01" height="15.06" transform="matrix(-0.12, -0.2, -0.24, 0.15, 57.95, 71.67)" xlink:href="#hex-connector"/><use width="14.01" height="15.06" transform="translate(26.65 73.42) rotate(-58.23) scale(0.23)" xlink:href="#hex-connector"/><use width="14.01" height="15.06" transform="translate(15.24 49.87) scale(0.23)" xlink:href="#hex-connector"/><use width="132.05" height="112.18" transform="translate(0.57 53.25) scale(0.23)" xlink:href="#hex-green-tick"/><use width="14.01" height="15.06" transform="translate(26.26 43.83) rotate(-58.23) scale(0.23)" xlink:href="#hex-connector"/><use width="14.01" height="15.06" transform="translate(41.56 63.27) scale(0.23)" xlink:href="#hex-connector"/><use width="132.05" height="112.18" transform="translate(26.26 37.4) scale(0.23)" xlink:href="#hex-plain"/><use width="132.05" height="112.18" transform="translate(26.88 66.64) scale(0.23)" xlink:href="#hex-grey"/><use width="14.01" height="15.06" transform="matrix(-0.12, -0.2, -0.25, 0.16, 57.05, 42.6)" xlink:href="#hex-connector"/><use width="14.01" height="15.06" transform="translate(67.33 46.89) scale(0.23)" xlink:href="#hex-connector"/><use width="132.05" height="112.18" transform="translate(52.03 21.03) scale(0.23)" xlink:href="#hex-green-tick"/><use width="132.05" height="112.18" transform="translate(52.65 50.26) scale(0.23)" xlink:href="#hex-grey"/><use width="14.01" height="15.06" transform="translate(78.35 40.84) rotate(-58.23) scale(0.23)" xlink:href="#hex-connector"/><use width="132.05" height="112.18" transform="translate(78.35 34.42) scale(0.23)" xlink:href="#hex-blue-clock"/><use width="132.05" height="112.18" transform="translate(0.57 24.01) scale(0.23)" xlink:href="#hex-green-tick"/><use width="74.08" height="30.84" transform="translate(87.62 40.51) rotate(29.9) scale(0.23)" xlink:href="#fast-forward"/><text class="cls-15" transform="translate(58.27 68.45)">UC</text><path class="cls-2" d="M20.43,66.67l-5.61-5.79a.48.48,0,0,0-.65,0L8.56,66.67a.31.31,0,0,0,.25.51h1.27v4.25a.58.58,0,0,0,.61.56H13V69.15a.42.42,0,0,1,.43-.39h2.09a.42.42,0,0,1,.43.39V72H18.3a.58.58,0,0,0,.61-.55V67.18h1.27A.3.3,0,0,0,20.43,66.67Z"/><path class="cls-2" d="M14.36,37.17a.63.63,0,0,1-1.25,0,1.78,1.78,0,1,1,3.55,0,.62.62,0,1,1-1.24,0,.53.53,0,0,0-.53-.53A.52.52,0,0,0,14.36,37.17Zm.53-3.9a3.91,3.91,0,0,0-3.9,3.9.62.62,0,0,0,.62.62.62.62,0,0,0,.62-.62,2.66,2.66,0,0,1,5.32,0c0,1.66-1.58,1.56-1.6,3.18h0a1.14,1.14,0,0,1-1.15,1.15.63.63,0,0,0,0,1.25,2.4,2.4,0,0,0,2.39-2.39c0-.77,1.6-1.07,1.6-3.2A3.91,3.91,0,0,0,14.89,33.27Zm5.95-1.16-.63-.63a.27.27,0,0,0-.37,0l-1.93,1.93a.26.26,0,0,0,0,.38l.62.62a.26.26,0,0,0,.38,0l1.93-1.92a.28.28,0,0,0,0-.38Zm-7.53,6.27a.27.27,0,0,0-.37,0L9.65,41.67a.26.26,0,0,0,0,.38l.62.63a.28.28,0,0,0,.38,0l3.29-3.29a.28.28,0,0,0,0-.38Z"/><g class="cls-16"><path class="cls-17" d="M38.6,67c-.67.29-.48.8-1.59,2.22-.49.62-.51.51-1.54,1.66a8.67,8.67,0,0,0-1.56,2c-.41,1.32.63,2,.12,3.21-.33.75-.83.65-1.06,1.4-.3.93.39,1.29.3,2.4S32.63,81,32,82.44a4.34,4.34,0,0,0-.66,2.45c.4,1.47,4.1,1.42,10,1.61,3.51.11,6.32.26,8,.36a2.05,2.05,0,0,0,.88-1.32c.12-.94-.8-1.31-.84-2.38s.84-1.12.92-2.27-.94-1.71-.68-2.86c.17-.72.61-.72.66-1.39s-.54-1.07-.86-2.07.18-1,0-2.31a7.65,7.65,0,0,0-1.68-3.6l-.13-.15-.17-.18A6,6,0,0,0,43,66.88c-.87.06-.75.25-1.65.3C39.75,67.26,39.35,66.69,38.6,67Z"/><path class="cls-9" d="M46.76,87.13c-1.39,1.69-.52,3.57,1,12.17a8.27,8.27,0,0,0,1.33,3.23,2.87,2.87,0,0,0,5.27-1,72.59,72.59,0,0,0-4-14.42,2.31,2.31,0,0,0-1.51-1.17C47.84,85.82,47,86.83,46.76,87.13Z"/><path class="cls-9" d="M49.39,103.06c1.63,1.38,3.15.6,10.4-.56a5.4,5.4,0,0,0,1.31-.37c.59-.25,1.37-.43,1.32-.81a14.13,14.13,0,0,0-1.5-5.06,50.77,50.77,0,0,0-12,3.35,1.73,1.73,0,0,0-.83,1.4A3.19,3.19,0,0,0,49.39,103.06Z"/><path class="cls-18" d="M32.8,86.35a21.17,21.17,0,0,1,4.37-1.8,14.78,14.78,0,0,1,10.1.7c.46.21,1,.21,1.47.46a23.81,23.81,0,0,0,.08,6.34c.42,2.42,1,3.4.72,5.31s-1.18,1.92-1.55,3.92c-.32,1.76.21,2.55.74,6,.27,1.73.39,3.14.44,4.06a16,16,0,0,1-7.27,2,25,25,0,0,1-8.53-1.54Z"/><path class="cls-9" d="M43.15,91.18c-.62.14-1.15-.41-2.6-1.85-3.17-3.11-4.35-4.1-4.07-4.58.07-.11.23-.22.65-.21,3.57-1,5.84-1.12,9,.27-1.25,1.4-.94,3.12-1.44,4.1C44,90.2,43.82,91,43.15,91.18Z"/><path class="cls-9" d="M38.07,79.43l0,5.39a9.73,9.73,0,0,0,3.65,2.47c.67.39,1,.18,1.16-.32l-.12-4.75Z"/><path class="cls-19" d="M42.86,84.93c-2.26-1.63-4.06-3.24-4.35-4.84l4.29,2.67Z"/><path class="cls-9" d="M47.5,71.53c3,3,.74,10.34-3.18,11.16-2.08.44-4.51-1-6.26-3.27l1-8.08C42.22,69.67,45.73,69.77,47.5,71.53Z"/><ellipse class="cls-20" cx="42.38" cy="75.82" rx="0.57" ry="0.78" transform="translate(-1.95 1.12) rotate(-1.48)"/><ellipse class="cls-20" cx="46.33" cy="75.52" rx="0.57" ry="0.78" transform="translate(-1.94 1.22) rotate(-1.48)"/><path class="cls-20" d="M46.69,75.21a1.16,1.16,0,0,0,.76-.4.88.88,0,0,1-.89.11Z"/><path class="cls-20" d="M41.92,75.77a1.21,1.21,0,0,1-.78-.36.9.9,0,0,0,.89.07Z"/><polygon class="cls-19" points="44.16 78.27 45.66 78.15 44.88 75.04 44.82 75.07 45.21 77.84 44.18 78.21 44.16 78.27"/><polygon class="cls-21" points="45.27 77.88 44.82 74.96 44.73 74.97 45.09 77.89 45.27 77.88"/><path class="cls-22" d="M47.19,73.77a1.29,1.29,0,0,0-1.25.07"/><path class="cls-9" d="M39,76.32c-.41-1.09-1.69-1.89-2.26-1.57s-.51,2.1.32,3.16c.06.08.84,1.07,1.46.87S39.36,77.27,39,76.32Z"/><path class="cls-19" d="M37.12,75.15c.59-.11,1.34,2,1.33,2h0s-.44-.2-.57-.06a.29.29,0,0,0-.06.1.22.22,0,0,1,.06-.17c.13-.13.47.06.56.11-.13-.19-.74-1.69-1.24-1.76-.18,0-.38.15-.4.11S36.94,75.18,37.12,75.15Z"/><path class="cls-22" d="M42.88,74a1.27,1.27,0,0,0-1.25.06"/><path class="cls-9" d="M33,85.94c-2,.89-2.06,3-4.57,11.32a7.91,7.91,0,0,0-.26,3.48,2.87,2.87,0,0,0,5.15,1.47,71.24,71.24,0,0,0,2.92-14.67,2.26,2.26,0,0,0-.82-1.72A2.69,2.69,0,0,0,33,85.94Z"/><path class="cls-17" d="M43.34,68.3,43.72,70l-.09.19a6.05,6.05,0,0,1-1.89,2.49c-.63.48-1.26.76-2.33,1.62a10.14,10.14,0,0,0-1.11,1l-.1-4.16Z"/><path class="cls-17" d="M43.87,70.05c.29,1.46-2.67,3.62-4.58,5,1.77-1.47,4.44-3.74,4.29-5.18Z"/><path class="cls-17" d="M43.8,70c1.35-.63,4.28,1.65,4.69,3.79-1.58-3-3.45-4-4.81-3.47Z"/></g><path class="cls-23" d="M46.2,90.71l-1.32,2.2a.88.88,0,0,0,0,.79q.1.18.24.18a.28.28,0,0,0,.22-.16l1.34-2.23Z"/><path class="cls-23" d="M48.46,92.91l-1.32-2.2.29-.54a4.84,4.84,0,0,0,.59-2c0-1.29-.61-1.87-1.35-1.87s-1.35.58-1.35,1.87a4.69,4.69,0,0,0,.59,2c.1.2.2.39.29.54l.47.78L48,93.72a.28.28,0,0,0,.22.16q.14,0,.24-.18A.88.88,0,0,0,48.46,92.91Zm-1.79-3-.27-.5A3.53,3.53,0,0,1,46,88.15c0-.67.31-.74.7-.74s.7.07.7.74a3.51,3.51,0,0,1-.43,1.28C46.85,89.62,46.75,89.8,46.67,89.94Z"/><g class="cls-24"><path class="cls-25" d="M48.6,54.48c.84,2.88,1.55,10.45,2.27,17.46-5.21,3-11.48,2.7-18.48.1L30.08,54.48C36.93,51,43.05,51.3,48.6,54.48Z"/><path class="cls-26" d="M49.62,63.25,49.71,72l8.7-4.36c-3.91-5.8-8.42-13-9.86-13.15A30.79,30.79,0,0,1,49.62,63.25Z"/><path class="cls-27" d="M37.07,46.76,36.93,54c.91.87-.15-.09,2.89,1.11.82.58,4.54.53,4.78,0l-.92-4Z"/><path class="cls-28" d="M44,54.14c-4.29,0-6.42-2.75-6.85-5.69L43.49,52Z"/><path class="cls-29" d="M42.43,55.49l1.93,3a5.9,5.9,0,0,0,.86-5.59c-.38-.24-.77-.77-1.3-.82C44,54.24,43.63,55.4,42.43,55.49Z"/><path class="cls-29" d="M37,50.57c.91,3.67,2.7,5.07,5.45,4.92l-2.22,3.67c-2.37-1.69-4.34-4-4.34-7Z"/><path class="cls-27" d="M48.32,41.57c.28,4.11.12,7.35-.67,9.71s-4.26,1.53-4.8,1.48c-3.87-.36-5.63-4-5.71-4.21a19,19,0,0,1-.61-7.75c.3-2.2.27-4.26,1.89-5.06,2.1-1,5.69-.66,7.66.17C47.7,36.6,48.11,38.51,48.32,41.57Z"/><ellipse class="cls-30" cx="42.03" cy="43.78" rx="0.86" ry="0.63" transform="translate(-5.09 82.02) rotate(-85.23)"/><ellipse class="cls-30" cx="46.39" cy="43.92" rx="0.86" ry="0.63" transform="translate(-1.24 86.5) rotate(-85.23)"/><polygon class="cls-28" points="43.69 46.67 45.34 46.72 44.87 43.23 44.8 43.25 44.9 46.32 43.72 46.61 43.69 46.67"/><polygon class="cls-30" points="44.96 46.38 44.81 43.13 44.71 43.13 44.76 46.36 44.96 46.38"/><path class="cls-31" d="M47.54,42.11A1.4,1.4,0,0,0,46.17,42"/><path class="cls-31" d="M42.8,41.82a1.37,1.37,0,0,0-1.37-.08"/><path class="cls-32" d="M37.85,43.56l1.1-.34a6.89,6.89,0,0,0,.7-3.82,5.18,5.18,0,0,0-3.19-.29c-.5.08-.5,1.51-.34,3.33Z"/><path class="cls-27" d="M38.27,43.92c-.33-1.24-1.63-2.27-2.29-2s-.81,2.24,0,3.51c0,.09.79,1.27,1.49,1.12S38.56,45,38.27,43.92Z"/><path class="cls-28" d="M36.35,42.41c.66,0,1.24,2.31,1.22,2.32h0c-.05,0-.45-.27-.61-.13a.33.33,0,0,0-.08.11.25.25,0,0,1,.08-.19c.16-.12.52.12.6.2-.11-.23-.59-2-1.14-2.08-.19-.05-.43.12-.45.07S36.16,42.43,36.35,42.41Z"/><path class="cls-28" d="M42.88,44.43a1.54,1.54,0,0,1-2.15.37c.49.79,1.16.94,2.17-.06Z"/><path class="cls-28" d="M45.67,44.54c.35.8.83,1,1.46.66-.46.72-1,.77-1.52-.36Z"/><path class="cls-32" d="M44.72,47c.26,0,1.62.14,2,1,.18.4.18,1,0,1s-.17-.18-.42-.23-.33.13-.54.07-.2-.23-.36-.25-.25.22-.46.23-.28-.28-.56-.32-.34.21-.6.17-.29-.33-.56-.37-.41.28-.73.24-.3-.26-.53-.27-.49.38-.56.34,0-.72.37-1.15C42.62,46.58,44.43,47,44.72,47Z"/><path class="cls-33" d="M49,45.05a2.32,2.32,0,0,1-3.53-.29,2.33,2.33,0,0,1,.18-2.07,9.94,9.94,0,0,1,3.52.3A2.33,2.33,0,0,1,49,45.05Z"/><path class="cls-34" d="M47.16,45.84a2.22,2.22,0,0,1-1.79-1,2.45,2.45,0,0,1,.18-2.17l0,0h.06a10,10,0,0,1,3.56.3l.06,0,0,.05a2.45,2.45,0,0,1-.19,2.17h0A2.23,2.23,0,0,1,47.16,45.84Zm-1.44-3a2.14,2.14,0,0,0-.15,1.9,2.2,2.2,0,0,0,3.34.28h0a2.13,2.13,0,0,0,.17-1.9A9.82,9.82,0,0,0,45.72,42.8Z"/><path class="cls-33" d="M44,44.74a2.54,2.54,0,0,1-3.87-.32,2.37,2.37,0,0,1,.18-2.06,7.75,7.75,0,0,1,3.86.32A2.37,2.37,0,0,1,44,44.74Z"/><path class="cls-34" d="M41.94,45.59A2.36,2.36,0,0,1,40,44.47a2.43,2.43,0,0,1,.18-2.16l0-.06h.06a7.58,7.58,0,0,1,3.93.33l0,0v0a2.44,2.44,0,0,1-.19,2.16h0A2.33,2.33,0,0,1,41.94,45.59Zm-1.6-3.13a2.26,2.26,0,0,0-.15,1.91,2.43,2.43,0,0,0,3.68.31h0A2.28,2.28,0,0,0,44,42.76,7.67,7.67,0,0,0,40.34,42.46Z"/><path class="cls-34" d="M44.21,43.09a.8.8,0,0,1,1.19,0v.2a.78.78,0,0,0-1.12-.12Z"/><polygon class="cls-34" points="40.06 42.77 38.06 43.39 38.12 43.54 39.98 43.04 40.06 42.77"/><path class="cls-26" d="M27.86,55.93c-1.25,2-.24,3.85,2.46,12.78.48,1.64.29,1.88,1,2.79,1.74,2.22,6.27,1.5,6.47-1.3C36.45,65.38,34,61,31.33,55.93c-.19-.25-.24-1.5-1.11-1.5A3.28,3.28,0,0,0,27.86,55.93Z"/><path class="cls-26" d="M32.78,71.79a2.86,2.86,0,0,0,.77.68c.39.29,2,1.3,6.8,1.74,0,0,1.21.09,3.72.14a9.44,9.44,0,0,0,1.06,0c.48,0,.87-.09,1.11-.14.91-1.5.77-3.38.58-5.36-1.93,0-4,0-6.13-.09-2.6-.15-5.06-.39-7.33-.68a1.89,1.89,0,0,0-1.26,1.21A3.09,3.09,0,0,0,32.78,71.79Z"/></g><text class="cls-15" transform="translate(57.59 39.56)">UC</text></g></g></g></g></g></svg>