<svg xmlns="http://www.w3.org/2000/svg" xmlns:xlink="http://www.w3.org/1999/xlink" viewBox="0 0 134.98 115.67"><defs><style>.cls-1,.cls-14{fill:none;}.cls-15,.cls-17,.cls-2,.cls-32{fill:#fff;}.cls-3{fill:#5789ba;}.cls-4{fill:#65aff5;}.cls-5{fill:#466f96;}.cls-6{fill:#fafafa;}.cls-7{fill:#31ab94;}.cls-8{fill:#a0a7cb;}.cls-9{fill:#bfc3db;}.cls-10{fill:#298f7c;}.cls-11{fill:#add9d1;}.Anon-H\/3PZcblQb0\={fill:#b879b0;}.Anon-jY41dALBae4\={fill:#cda1c8;}.cls-12{opacity:0.86;}.cls-13{fill:url(#radial-gradient);}.cls-14{stroke:#1b1464;stroke-miterlimit:10;stroke-width:2px;opacity:0.22;}.cls-15{font-size:11.58px;}.cls-15,.cls-17{font-family:Arial-BoldMT, Arial;font-weight:700;}.cls-16{letter-spacing:-0.04em;}.cls-17{font-size:11.19px;}.cls-18{letter-spacing:-0.02em;}.cls-19{clip-path:url(#clip-path);}.cls-20{clip-path:url(#clip-path-2);}.cls-21{fill:#7a3c73;}.cls-22{fill:#8a4482;}.cls-23{fill:#fda48b;}.cls-24{fill:#412a74;}.cls-25{fill:#bf6156;}.cls-26{fill:#b8a8a7;}.cls-27{fill:#e0857b;}.cls-28{clip-path:url(#clip-path-3);}.cls-29{fill:#7d78ca;}.cls-30{fill:#625da2;}.cls-31{fill:#57538c;}.cls-32{opacity:0.18;}.cls-33{fill:#1b1464;}</style><radialGradient id="radial-gradient" cx="71.17" cy="57.84" r="56.84" gradientUnits="userSpaceOnUse"><stop offset="0" stop-color="#c9b8c2"/><stop offset="1" stop-color="#fff"/></radialGradient><clipPath id="clip-path"><polygon class="cls-1" points="46.13 61.02 31.9 60.9 24.75 48.63 31.75 34.09 45.88 34.27 53.03 48.99 46.13 61.02"/></clipPath><clipPath id="clip-path-2"><polygon class="cls-1" points="31.98 61.07 46.13 61 53.27 48.62 45.15 32.32 29.59 33.95 24.98 48.98 31.98 61.07"/></clipPath><clipPath id="clip-path-3"><polygon class="cls-1" points="98.97 56.46 84.72 56.28 77.52 43.99 85.7 27.67 101.37 29.3 106.01 44.35 98.97 56.46"/></clipPath><symbol id="hex-connector" data-name="hex-connector" viewBox="0 0 14.01 15.06"><rect class="cls-7" width="14.01" height="15.06"/></symbol><symbol id="hex-plain" data-name="hex-plain" viewBox="0 0 132.05 112.17"><polygon class="cls-7" points="101.86 106.56 91.86 112.14 30.27 5.92 40.13 0 101.18 0.79 132.05 54.07 101.86 106.56"/><polygon class="cls-11" points="91.92 112.17 30.87 111.39 0 58.11 30.18 5.62 91.24 6.4 122.11 59.68 91.92 112.17"/></symbol><symbol id="raised-tick" data-name="raised-tick" viewBox="0 0 40.24 38.15"><path class="cls-10" d="M40.23,17.69c.7,23.58-36.76,23.58-36.76,0S40.93-5.9,40.23,17.69Z"/><path class="cls-7" d="M36.76,20.46C37.46,44.05,0,44.05,0,20.46S36.76-3.82,36.76,20.46Z"/><polygon class="cls-2" points="5.51 21.98 13.24 31.2 31.27 13.89 28.34 11.13 13.38 24.96 8.7 19.44 5.51 21.98"/></symbol><symbol id="hex-green-tick" data-name="hex-green-tick" viewBox="0 0 132.05 112.17"><use width="132.05" height="112.18" xlink:href="#hex-plain"/><use width="40.24" height="38.15" transform="translate(87.72 6.67)" xlink:href="#raised-tick"/></symbol><symbol id="hex-data" data-name="hex-data" viewBox="0 0 132.05 112.17"><polygon class="cls-8" points="101.86 106.56 91.86 112.14 30.27 5.92 40.13 0 101.18 0.79 132.05 54.07 101.86 106.56"/><polygon class="cls-9" points="91.92 112.17 30.87 111.39 0 58.11 30.18 5.62 91.24 6.4 122.11 59.68 91.92 112.17"/><path class="cls-10" d="M128,24.36c.7,23.59-36.76,23.59-36.76,0S128.65.78,128,24.36Z"/><path class="cls-7" d="M124.48,27.14c.7,23.58-36.76,23.58-36.76,0S124.48,2.86,124.48,27.14Z"/><rect class="cls-2" x="97" y="17.83" width="3.01" height="18.36"/><rect class="cls-2" x="98.74" y="33.13" width="17.1" height="3.06"/><rect class="cls-2" x="113.32" y="28.55" width="2.52" height="6.84"/><rect class="cls-2" x="108.39" y="17.83" width="7.15" height="1.9"/><polygon class="cls-2" points="113.99 25.25 113.99 17.83 115.84 17.83 115.84 25.25 113.99 25.25"/><polygon class="cls-2" points="105.58 26.55 113.05 18.91 114.36 20.25 106.89 27.89 105.58 26.55"/><polygon class="cls-2" points="105.58 20.34 105.58 17.83 98.74 17.83 98.74 20.34 105.58 20.34"/></symbol><symbol id="hex-blue-clock" data-name="hex-blue-clock" viewBox="0 0 132.05 112.17"><polygon class="cls-3" points="101.86 106.56 91.86 112.14 30.27 5.92 40.13 0 101.18 0.79 132.05 54.07 101.86 106.56"/><polygon class="cls-4" points="91.92 112.17 30.87 111.39 0 58.11 30.18 5.62 91.24 6.4 122.11 59.68 91.92 112.17"/><path class="cls-5" d="M124.71,25.66c.69,23.59-36.77,23.59-36.77,0S125.4,2.08,124.71,25.66Z"/><path class="cls-3" d="M121.24,28.44c.69,23.58-36.77,23.58-36.77,0S121.24,4.16,121.24,28.44Z"/><circle class="cls-6" cx="102.81" cy="28.31" r="13.83"/><path d="M102.8,42.47A14.17,14.17,0,1,1,117,28.31,14.18,14.18,0,0,1,102.8,42.47Zm0-27.67a13.51,13.51,0,1,0,13.51,13.51A13.52,13.52,0,0,0,102.8,14.8Z"/><polygon points="100.83 28.3 108.73 18.43 102.81 28.3 104.78 35.55 100.83 28.3"/><polygon points="102.15 14.47 103.17 17.54 104.12 14.47 102.15 14.47"/><polyline points="104.12 42.14 102.54 42.14 103.14 38.97"/><polyline points="88.97 28.04 88.97 29.62 91.61 28.96"/><polyline points="116.64 26.99 116.64 28.96 113.34 27.65"/></symbol><symbol id="fast-forward" data-name="fast-forward" viewBox="0 0 74.08 30.84"><polygon class="cls-2" points="26.71 15.42 0 0 0 30.84 26.71 15.42"/><polygon class="cls-2" points="50.22 15.42 23.51 0 23.51 30.84 50.22 15.42"/><polygon class="cls-2" points="74.08 15.42 47.37 0 47.37 30.84 74.08 15.42"/></symbol><symbol id="logo-nhs" data-name="logo-nhs" viewBox="0 0 492.25 170.43"><path id="path10" class="cls-2" d="M186.92,0,152.41,162.06H98.25L64.2,49.91h-.47L41.09,162.06H0L34.79,0H89.15l33.37,112.4H123L145.86,0ZM354,2.79,320.13,164.85H276.51L291,95.43h-51.6l-14.46,69.42H181.32L215.17,2.79h43.61L246,64.8h51.55l12.85-62ZM492.25,10,481.73,42.24c-8.41-3.91-19.84-7.41-35.93-7.41-17.26,0-31.27,2.53-31.27,15.57,0,23,63.23,14.4,63.23,63.62,0,44.78-41.78,56.41-79.57,56.41-16.79,0-36.18-4-50.39-8.38l10.27-33c8.6,5.57,25.91,9.29,40.12,9.29,13.54,0,34.76-2.55,34.76-19.28,0-26-63.23-16.26-63.23-62,0-41.81,36.88-54.35,72.58-54.35,20.09,0,39,2.11,49.95,7.18"/></symbol><symbol id="hex-purple-security" data-name="hex-purple-security" viewBox="0 0 132.05 112.17"><polygon class="Anon-H/3PZcblQb0=" points="101.86 106.56 91.86 112.14 30.27 5.92 40.13 0 101.18 0.79 132.05 54.07 101.86 106.56"/><polygon class="Anon-jY41dALBae4=" points="91.92 112.17 30.87 111.39 0 58.11 30.18 5.62 91.24 6.4 122.11 59.68 91.92 112.17"/><use width="40.24" height="38.15" transform="translate(87.72 6.67)" xlink:href="#raised-tick"/><path class="cls-2" d="M31.14,30.41a23.91,23.91,0,1,0,33.75-2A23.92,23.92,0,0,0,31.14,30.41ZM62.55,57.9a17.55,17.55,0,1,1-1.48-24.76A17.55,17.55,0,0,1,62.55,57.9Z"/><polygon class="cls-2" points="96.26 79.51 88.82 87.89 67.28 68.78 74.71 60.4 96.26 79.51"/><polygon class="cls-2" points="73.69 62.45 68.99 67.75 64.33 63.61 69.03 58.31 73.69 62.45"/></symbol><symbol id="symbol-health" data-name="symbol-health" viewBox="0 0 20.73 20.73"><circle class="cls-2" cx="10.37" cy="10.37" r="10.37"/><rect class="cls-7" x="7.85" y="3.01" width="4.29" height="14.97"/><polygon class="cls-7" points="2.73 12.66 2.73 8.42 17.7 8.42 17.7 12.66 2.73 12.66"/></symbol></defs><g id="Layer_2" data-name="Layer 2"><g id="MainLayer"><g id="stories" class="cls-12"><g id="caregroup"><g id="care4"><circle class="cls-13" cx="71.17" cy="57.84" r="56.84"/><circle class="cls-14" cx="71.17" cy="57.84" r="56.84"/><use width="14.01" height="15.06" transform="matrix(0.13, 0.2, -0.2, 0.13, 55.42, 66.01)" xlink:href="#hex-connector"/><use width="14.01" height="15.06" transform="matrix(-0.12, -0.2, -0.32, 0.2, 57.2, 40.7)" xlink:href="#hex-connector"/><use width="132.05" height="112.18" transform="translate(51.42 46.87) scale(0.23)" xlink:href="#hex-green-tick"/><use width="132.05" height="112.18" transform="translate(0 77.71) scale(0.23)" xlink:href="#hex-data"/><use width="14.01" height="15.06" transform="matrix(0.12, -0.2, 0.2, 0.12, 77.61, 67.24)" xlink:href="#hex-connector"/><use width="14.01" height="15.06" transform="translate(92.92 56.46) scale(0.23)" xlink:href="#hex-connector"/><use width="132.05" height="112.18" transform="translate(77.47 30.32) scale(0.23)" xlink:href="#hex-plain"/><use width="132.05" height="112.18" transform="translate(78.09 59.87) scale(0.23)" xlink:href="#hex-green-tick"/><use width="14.01" height="15.06" transform="matrix(0.12, -0.2, 0.2, 0.12, 104.06, 50.35)" xlink:href="#hex-connector"/><use width="132.05" height="112.18" transform="translate(104.06 43.85) scale(0.23)" xlink:href="#hex-blue-clock"/><use width="74.08" height="30.84" transform="matrix(0.23, 0.13, -0.13, 0.23, 112.48, 49)" xlink:href="#fast-forward"/><text class="cls-15" transform="translate(84.27 77.71)">C<tspan class="cls-16" x="8.36" y="0">A</tspan></text><use width="492.25" height="170.43" transform="translate(5.52 88.48) scale(0.04)" xlink:href="#logo-nhs"/><use width="132.05" height="112.18" transform="translate(50.59 17.81) scale(0.23)" xlink:href="#hex-purple-security"/><use width="14.01" height="15.06" transform="matrix(0.12, -0.2, 0.2, 0.12, 76.78, 38.18)" xlink:href="#hex-connector"/><use width="132.05" height="112.18" transform="translate(24.61 34.74) scale(0.23)" xlink:href="#hex-plain"/><text class="cls-17" transform="translate(57.57 65.04)">PI<tspan class="cls-18" x="10.57" y="0">P</tspan></text><g class="cls-19"><g class="cls-20"><polyline class="cls-21" points="29.34 51.05 26 52.8 30.84 61.31 47.37 61.66 51.15 53.07 46.72 51.37"/><path class="cls-22" d="M28.94,53c2.6,5.67,4.17,6.81,10,9.07,4.72-3.16,7.66-4,8.58-9.78A7.92,7.92,0,0,0,45.71,49c.92-5.61-.07-9.8-2.35-13-3.33-2.92-6.58-2.43-9.78.17a23.16,23.16,0,0,0-3.1,13C28.47,51.43,28.94,50.56,28.94,53Z"/><path class="cls-23" d="M44.64,43.68a17.91,17.91,0,0,0-3.62-6A22.56,22.56,0,0,0,34.22,45a5.44,5.44,0,0,0,1.72,3.67A5.23,5.23,0,0,0,40.27,50C42.72,49.52,44.72,46.92,44.64,43.68Z"/><ellipse class="cls-24" cx="37.68" cy="42.39" rx="0.65" ry="0.89"/><ellipse class="cls-24" cx="42.22" cy="42.17" rx="0.65" ry="0.89"/><path class="cls-24" d="M42.65,41.83a1.34,1.34,0,0,0,.88-.44,1,1,0,0,1-1,.11Z"/><path class="cls-24" d="M37.16,42.33a1.41,1.41,0,0,1-.88-.44,1,1,0,0,0,1,.1Z"/><polygon class="cls-25" points="39.66 45.24 41.37 45.14 40.58 41.58 40.51 41.61 40.88 44.77 39.69 45.17 39.66 45.24"/><polygon class="cls-24" points="40.94 44.83 40.51 41.49 40.41 41.5 40.74 44.83 40.94 44.83"/><path class="cls-21" d="M45.71,49c-.51,1.75-1.25,3.14-2.84,3.17,1.77.59,2.92-.66,3.82-1.85Z"/><path class="cls-21" d="M30.49,49.12a5.33,5.33,0,0,0,4,3.09c-1.12.45-3.12-.65-4.88-2Z"/><path class="cls-25" d="M36.92,44c.78-.12,1.45-.29,1.44-.79"/><path class="cls-25" d="M43.11,44c-.69-.14-1.3-.32-1.28-.89"/><path class="cls-26" d="M41.09,37.6l-3.16,3c-.36.39-.63.71-.82.93a5,5,0,0,1-1.4,1.35l-.36.16a1.09,1.09,0,0,1-.14-.71c.06-.34.3-.55.79-.93a18.31,18.31,0,0,0,1.63-1.27,6.53,6.53,0,0,0,.75-1.1A4.19,4.19,0,0,1,41.09,37.6Z"/><path class="cls-27" d="M38.69,43.22l.42.1c-.34,1.1-1.42,1.28-2.73,1.18C37.62,44.31,38.71,44,38.69,43.22Z"/><path class="cls-27" d="M41.61,43.19l-.33.1c.27,1.05,1.12,1.22,2.16,1.12C42.45,44.23,41.59,44,41.61,43.19Z"/></g></g><g class="cls-28"><polyline class="cls-29" points="101.62 46.43 104.98 48.18 100.1 56.7 83.46 57.05 79.66 48.45 84.11 46.74"/><path class="cls-30" d="M102,48.36c-2.62,5.68-4.2,6.82-10.09,9.08-4.75-3.17-7.71-4-8.64-9.8a7.77,7.77,0,0,1,1.85-3.27c-.93-5.62.06-9.81,2.36-13,3.35-2.92,6.62-2.43,9.85.17a23.08,23.08,0,0,1,3.12,13.06C102.5,46.81,102,45.93,102,48.36Z"/><path class="cls-23" d="M86.21,39.05a17.9,17.9,0,0,1,3.65-6,22.83,22.83,0,0,1,6.84,7.35,5.3,5.3,0,0,1-6.09,5C88.14,44.89,86.13,42.28,86.21,39.05Z"/><ellipse class="cls-24" cx="93.22" cy="37.76" rx="0.66" ry="0.89"/><ellipse class="cls-24" cx="88.65" cy="37.53" rx="0.66" ry="0.89"/><path class="cls-24" d="M88.22,37.19a1.34,1.34,0,0,1-.89-.44,1,1,0,0,0,1,.11Z"/><path class="cls-24" d="M93.74,37.69a1.48,1.48,0,0,0,.9-.44,1.07,1.07,0,0,1-1,.1Z"/><polygon class="cls-25" points="91.23 40.6 89.5 40.51 90.3 36.95 90.37 36.97 90 40.14 91.2 40.54 91.23 40.6"/><polygon class="cls-24" points="89.93 40.19 90.37 36.85 90.47 36.86 90.14 40.19 89.93 40.19"/><path class="cls-31" d="M85.14,44.37c.51,1.75,1.25,3.14,2.85,3.17-1.78.59-2.93-.65-3.84-1.85Z"/><path class="cls-31" d="M100.47,44.49a5.39,5.39,0,0,1-4.08,3.09c1.14.46,3.14-.65,4.92-2Z"/><ellipse class="cls-32" cx="87.75" cy="37.99" rx="2.31" ry="2.29"/><path class="cls-33" d="M87.75,40.41A2.42,2.42,0,1,1,90.19,38,2.43,2.43,0,0,1,87.75,40.41Zm0-4.57A2.16,2.16,0,1,0,89.92,38,2.17,2.17,0,0,0,87.75,35.84Z"/><ellipse class="cls-32" cx="93.4" cy="37.85" rx="2.31" ry="2.29"/><path class="cls-33" d="M93.4,40.27a2.42,2.42,0,1,1,2.45-2.42A2.43,2.43,0,0,1,93.4,40.27Zm0-4.57a2.16,2.16,0,1,0,2.18,2.15A2.17,2.17,0,0,0,93.4,35.7Z"/><path class="cls-33" d="M89.91,37.26a2.17,2.17,0,0,1,1.31,0l-.06.33a1.91,1.91,0,0,0-1.16,0Z"/></g><use width="14.01" height="15.06" transform="matrix(0.13, 0.2, -0.2, 0.13, 29.38, 81.88)" xlink:href="#hex-connector"/><use width="132.05" height="112.18" transform="translate(26.42 63.5) scale(0.23)" xlink:href="#hex-green-tick"/><use width="20.73" height="20.73" transform="translate(33.95 69.62) scale(0.68)" xlink:href="#symbol-health"/></g></g></g></g></g></svg>