<svg xmlns="http://www.w3.org/2000/svg" xmlns:xlink="http://www.w3.org/1999/xlink" viewBox="0 0 118.82 129.15"><defs><style>.cls-1,.cls-3,.cls-7{fill:none;}.cls-2{opacity:0.86;}.cls-3{stroke:#1b1464;stroke-width:2px;opacity:0.22;}.cls-3,.cls-7{stroke-miterlimit:10;}.cls-4{clip-path:url(#clip-path);}.cls-5{fill:url(#linear-gradient);}.cls-6{fill:#7d78ca;}.cls-7{stroke:#56518c;stroke-width:0.5px;}.cls-15,.cls-8{fill:#fff;}.cls-9{fill:#e6e6e6;}.cls-10{fill:#fda48b;}.cls-11{fill:#625da2;}.cls-12{fill:#412a74;}.cls-13{fill:#bf6156;}.cls-14{fill:#57538c;}.cls-15{opacity:0.18;}.cls-16{fill:#1b1464;}</style><clipPath id="clip-path" transform="translate(5.44 5.44)"><circle class="cls-1" cx="53.97" cy="53.97" r="52.25"/></clipPath><linearGradient id="linear-gradient" x1="59.41" y1="118.82" x2="59.41" gradientUnits="userSpaceOnUse"><stop offset="0" stop-color="#c98bc2"/><stop offset="1" stop-color="#fff"/></linearGradient></defs><g id="Layer_2" data-name="Layer 2"><g id="MainLayer"><g id="stories" class="cls-2"><g id="caregroup"><g id="care2"><circle class="cls-3" cx="59.41" cy="59.41" r="52.97"/><g class="cls-4"><circle class="cls-5" cx="59.41" cy="59.41" r="59.41"/><path class="cls-6" d="M60.76,50.73c-4,4.56-1.69,9.8,1.79,33.61.64,4.38,2,6.44,3.44,9,3.56,6.29,13.06,4.71,14.57-2.37C79.15,78.15,77.42,61.2,70.42,47.81c-.39-.75-1.49.13-3.77-.21C63.83,47.18,61.46,49.91,60.76,50.73Z" transform="translate(5.44 5.44)"/><path class="cls-6" d="M68.83,95.82c4.4,3.91,8.64,1.88,28.72-.82a14.73,14.73,0,0,0,3.65-.93c1.62-.64,3.79-1.06,3.69-2.12a38.86,38.86,0,0,0-3.78-14.06A140,140,0,0,0,67.8,86.26a4.8,4.8,0,0,0-2.37,3.82C65.41,92.77,68,95.12,68.83,95.82Z" transform="translate(5.44 5.44)"/><path class="cls-6" d="M68,48.55l-.39,70.07c-12.28,7.1-27.06,6.41-43.61.22-7.66-22.26-3.41-46.32.24-70.29C40.5,40.3,55,40.94,68,48.55Z" transform="translate(5.44 5.44)"/><path class="cls-6" d="M18.7,48c-4.84,3.53-3.77,8.82-5.57,31.6-.34,4.19.53,6.35,1.38,9C16.6,95,26.18,95.29,29.2,89a178.56,178.56,0,0,0-.86-39.05c-.24-.76-1.08-3.09-3.23-3.82C22.46,45.21,19.57,47.32,18.7,48Z" transform="translate(5.44 5.44)"/><path class="cls-7" d="M27.86,48.86c1.27,12.11,2.83,25,1.51,30.37" transform="translate(5.44 5.44)"/><path class="cls-7" d="M67.67,91.6c1.79-14.2,2.26-27.49-.22-38.77" transform="translate(5.44 5.44)"/><polygon class="cls-8" points="75.44 82.33 77.92 62.12 106.79 63.16 104.09 84.08 75.44 82.33"/><path class="cls-9" d="M98.65,78.64,70,76.89c-8.15,4.76-11.37,10.16-12.38,15.84l24-.92C82.08,86.71,88.42,82.41,98.65,78.64Z" transform="translate(5.44 5.44)"/><polygon class="cls-10" points="59.45 85.48 69.71 78.84 77.97 78.16 83.84 79.36 84.01 81.4 78.23 81.22 73.31 81.63 77.67 81.92 82.94 82.67 82.9 85.11 73.8 85.33 79.75 86.08 79.49 88.69 74.05 89.14 78.29 89.5 77.56 91.69 72.65 94.67 60.53 95.07 59.45 85.48"/><path class="cls-6" d="M18.07,90.22c3.5,4.73,8.07,3.61,28.28,5.09a15.19,15.19,0,0,0,3.76-.17c1.72-.29,3.93-.26,4-1.32a38.87,38.87,0,0,0-.82-14.53A138.86,138.86,0,0,0,19,80.66a4.76,4.76,0,0,0-3.1,3.24C15.34,86.53,17.44,89.37,18.07,90.22Z" transform="translate(5.44 5.44)"/><path class="cls-7" d="M17.35,92.3C28.2,94,45.36,96,54,95.36a30.26,30.26,0,0,0-.67-16.07c-10.29-.54-21.9-1.65-25.48.71" transform="translate(5.44 5.44)"/></g><path class="cls-11" d="M20,53.7c6.26,13.73,17.31,18.13,31.38,23.6,11.36-7.66,17.19-15.83,19.4-29.89-1-3.4-3.35-7.14-6.29-11,2.21-13.58-.16-23.71-5.65-31.48C50.79-2.19,43-1,35.24,5.29A56.25,56.25,0,0,0,27.8,36.86C23,42.26,20,47.84,20,53.7Z" transform="translate(5.44 5.44)"/><path class="cls-10" d="M62,25.27C61.18,19.38,59.76,13.81,56.91,9,49,12.5,42,16.74,36.91,22.59a13.13,13.13,0,0,0,2,9.6,12.47,12.47,0,0,0,9.4,5.48C54.3,38,60.44,32.93,62,25.27Z" transform="translate(5.44 5.44)"/><ellipse class="cls-12" cx="46.46" cy="18.38" rx="2.15" ry="1.57" transform="translate(23.34 64.82) rotate(-76.72)"/><ellipse class="cls-12" cx="57.21" cy="20.37" rx="2.15" ry="1.57" transform="translate(29.69 76.81) rotate(-76.72)"/><path class="cls-12" d="M58.4,19.8a3.29,3.29,0,0,0,2.31-.54,2.49,2.49,0,0,1-2.46-.33Z" transform="translate(5.44 5.44)"/><path class="cls-12" d="M45.27,17.94c-.64-.09-1.24-.73-1.83-1.52a2.51,2.51,0,0,0,2.35.81Z" transform="translate(5.44 5.44)"/><polygon class="cls-13" points="54.95 31.62 59.01 32.34 59.14 23.52 58.95 23.55 58.05 31.2 55.05 31.48 54.95 31.62"/><polygon class="cls-12" points="58.19 31.36 59.02 23.26 58.78 23.22 57.7 31.25 58.19 31.36"/><path class="cls-14" d="M64.44,36.37c-1.22,4.24-3,7.59-6.82,7.67,4.25,1.43,7-1.58,9.17-4.48Z" transform="translate(5.44 5.44)"/><path class="cls-14" d="M27.81,36.66c1.07,3.41,6.31,7.5,9.74,7.48-2.72,1.1-7.52-1.58-11.76-4.8Z" transform="translate(5.44 5.44)"/><circle class="cls-15" cx="64.5" cy="27.39" r="5.53"/><path class="cls-16" d="M53.36,20.61a5.85,5.85,0,1,1,4.35,7A5.86,5.86,0,0,1,53.36,20.61Zm.63.14a5.2,5.2,0,1,0,6.26-3.86A5.21,5.21,0,0,0,54,20.75Z" transform="translate(5.44 5.44)"/><circle class="cls-15" cx="51.43" cy="23.95" r="5.53"/><path class="cls-16" d="M40.29,17.17a5.85,5.85,0,1,1,4.35,7A5.86,5.86,0,0,1,40.29,17.17Zm.63.15a5.2,5.2,0,1,0,6.26-3.87A5.21,5.21,0,0,0,40.92,17.32Z" transform="translate(5.44 5.44)"/><path class="cls-16" d="M54.42,19a5.1,5.1,0,0,0-3.06-.64l0,.81a4.7,4.7,0,0,1,2.7.65Z" transform="translate(5.44 5.44)"/></g></g></g></g></g></svg>