<svg xmlns="http://www.w3.org/2000/svg" xmlns:xlink="http://www.w3.org/1999/xlink" viewBox="0 0 152.14 118.97"><defs><style>.cls-1,.cls-18,.cls-21,.cls-24,.cls-28,.cls-34,.cls-36,.cls-5{fill:none;}.cls-1{stroke:#1b1464;stroke-width:2px;opacity:0.22;}.cls-1,.cls-18,.cls-21,.cls-24,.cls-26,.cls-28,.cls-34,.cls-36,.cls-5,.cls-6{stroke-miterlimit:10;}.cls-2{fill:url(#linear-gradient);}.cls-3{fill:#31ab94;}.cls-4{fill:#afd9d1;}.cls-5,.cls-6{stroke:#412a74;}.cls-13,.cls-26,.cls-6,.cls-9{fill:#fff;}.cls-7{fill:#412a74;}.cls-8{fill:#f3c173;}.cls-9{font-size:8.3px;font-family:Arial-Black, Arial;font-weight:800;}.cls-10{opacity:0.32;}.cls-11{fill:#e6e6e6;}.cls-12{fill:#8277ab;}.cls-14{fill:#716794;}.cls-15{fill:#ed1c24;}.cls-16{fill:#fcee21;}.cls-17{fill:#8cc63f;}.cls-18,.cls-26{stroke:#efeeee;}.cls-19{fill:#fba3ba;}.cls-20{fill:#e493a5;}.cls-21{stroke:#ff7bac;}.cls-21,.cls-36{stroke-width:0.5px;}.cls-22{fill:#f8c7a3;}.cls-23{fill:#e3b696;}.cls-24{stroke:#2e3192;stroke-linecap:round;}.cls-25{fill:#3c3378;}.cls-27{fill:#50b9a5;}.cls-28{stroke:#fff;}.cls-29{fill:#fbcbd8;}.cls-30{fill:#ee786b;}.cls-31{fill:#d66c60;}.cls-32{fill:#c9665a;}.cls-33{fill:#bf6156;}.cls-34{stroke:#c969b8;stroke-width:0.25px;}.cls-35{fill:#e6d8d8;}.cls-36{stroke:#c7b299;}.cls-37{fill:#d84da0;}.cls-38{fill:#d4aa8c;}.cls-39{fill:#f5f5f5;}.cls-40{fill:#e6b897;}.cls-41{fill:#6b5a91;}</style><linearGradient id="linear-gradient" x1="80.91" y1="108.38" x2="80.91" y2="1.8" gradientUnits="userSpaceOnUse"><stop offset="0" stop-color="#b7d5f4"/><stop offset="0.21" stop-color="#c0daf5"/><stop offset="0.57" stop-color="#dae9f9"/><stop offset="0.98" stop-color="#fff"/></linearGradient></defs><g id="Layer_2" data-name="Layer 2"><g id="MainLayer"><g id="childgroup"><g id="children4"><circle class="cls-1" cx="80.91" cy="55.09" r="54.09"/><circle class="cls-2" cx="80.91" cy="55.09" r="53.29"/><g id="children4-2" data-name="children4"><path class="cls-3" d="M61,71.82H91.8L94,77.93l1.5-.08,0-6V49.55a4.28,4.28,0,0,0-4.29-4.28H61a4,4,0,0,0-4,4V67.81A4,4,0,0,0,61,71.82Z"/><path class="cls-4" d="M59.46,71.82H90.22l3.72,6,0-6V49.55a4.28,4.28,0,0,0-4.28-4.28H59.42a4,4,0,0,0-4,4V67.81A4,4,0,0,0,59.46,71.82Z"/><polyline class="cls-5" points="65 63.27 74.64 50.97 85.49 63.83"/><circle class="cls-6" cx="65.38" cy="63" r="5.53"/><path class="cls-7" d="M65.26,62.1a1.69,1.69,0,0,0,1.57-1.77,1.64,1.64,0,0,0-1.57-1.73,1.69,1.69,0,0,0-1.56,1.77A1.64,1.64,0,0,0,65.26,62.1Z"/><path class="cls-7" d="M67.61,66.44A.42.42,0,0,0,68,66a2.88,2.88,0,0,0-2.74-3,3,3,0,0,0-2.73,3.09.41.41,0,0,0,.39.44Z"/><circle class="cls-6" cx="83.72" cy="63.05" r="5.53"/><path class="cls-7" d="M83.65,62.12a1.69,1.69,0,0,0,1.56-1.77,1.64,1.64,0,0,0-1.56-1.73,1.69,1.69,0,0,0-1.57,1.77A1.64,1.64,0,0,0,83.65,62.12Z"/><path class="cls-7" d="M86,66.46a.42.42,0,0,0,.39-.44,2.87,2.87,0,0,0-2.73-3,3,3,0,0,0-2.74,3.1.41.41,0,0,0,.39.43Z"/><circle class="cls-8" cx="74.46" cy="52.6" r="5.53"/><text class="cls-9" transform="translate(71.66 55.27)">£</text><rect class="cls-10" x="81.93" y="48.96" width="7.5" height="1.01"/><rect class="cls-10" x="82.67" y="51.16" width="5.8" height="1.01"/><rect class="cls-10" x="84.2" y="53.37" width="3.02" height="1.01"/><rect class="cls-10" x="59.5" y="48.96" width="7.5" height="1.01"/><rect class="cls-10" x="60.23" y="51.16" width="5.8" height="1.01"/><rect class="cls-10" x="61.76" y="53.37" width="3.02" height="1.01"/><path class="cls-11" d="M112.69,8.07,146.38,2a4.05,4.05,0,0,1,4.78,3.91l1,47.33a6.16,6.16,0,0,1-6.62,6.27l-36.38-2.76a5,5,0,0,1-4.65-5.47l3.28-37.78A6,6,0,0,1,112.69,8.07Z"/><path class="cls-12" d="M149.38,8l1.81.37L151,5c-.52-2.27-2.08-2.69-3.66-3.08L145.18,2Z"/><path class="cls-13" d="M110.79,8.23l33.7-6.1A4,4,0,0,1,149.26,6l1,47.33a6.16,6.16,0,0,1-6.63,6.26l-36.38-2.75a5.05,5.05,0,0,1-4.65-5.47l3.28-37.78A6,6,0,0,1,110.79,8.23Z"/><path class="cls-14" d="M105.7,15.16,149.38,8l-.07-2a4.08,4.08,0,0,0-4.81-3.9L110.37,8.3a5.48,5.48,0,0,0-4.49,4.9Z"/><ellipse class="cls-15" cx="109.33" cy="11.53" rx="1.76" ry="1.29" transform="translate(52.42 105.59) rotate(-64.84)"/><ellipse class="cls-16" cx="113.74" cy="10.75" rx="1.76" ry="1.29" transform="translate(55.65 109.13) rotate(-64.84)"/><ellipse class="cls-17" cx="118.32" cy="10.18" rx="1.76" ry="1.29" transform="translate(58.8 112.94) rotate(-64.84)"/><path class="cls-18" d="M146.53,59.22l-37.64-1.89A8.43,8.43,0,0,1,105.64,56a9.26,9.26,0,0,1-1.86-1.84c-1.45-2-1.78-5.29-.78-8.77"/><path class="cls-19" d="M119.34,28.6c2.1,2.42.9,5.21-1,17.85a11.67,11.67,0,0,1-1.83,4.78A4.2,4.2,0,0,1,108.82,50a105.49,105.49,0,0,1,5.23-21.28,3.34,3.34,0,0,1,2.16-1.76C117.71,26.71,119,28.17,119.34,28.6Z"/><path class="cls-19" d="M115.48,27.45l.2,21.44c6.52,3.78,14.37,3.41,23.17.12l-.13-21.56C130.1,23.06,122.42,23.4,115.48,27.45Z"/><path class="cls-19" d="M138.39,26.86c3,1.23,3.12,4.26,7.13,16.4a11.77,11.77,0,0,1,.5,5.09,4.2,4.2,0,0,1-7.48,2.34,105.36,105.36,0,0,1-4.84-21.37,3.36,3.36,0,0,1,1.14-2.55C136.08,25.9,137.85,26.64,138.39,26.86Z"/><path class="cls-20" d="M116.72,27.77a3.48,3.48,0,0,1-.83-2.37,3.71,3.71,0,0,1,2.57-3.15c5.58-1,11.19-2.45,16.44.72,1,.63.84-.46,1.12,2.18.18,1.68-1,.57-1.63.89C127.34,29.46,122.47,35.89,116.72,27.77Z"/><line class="cls-21" x1="133.8" y1="30.36" x2="137.13" y2="46.16"/><line class="cls-21" x1="115.67" y1="52.13" x2="115.79" y2="31.54"/><path class="cls-19" d="M116.72,26.86a3.48,3.48,0,0,1-.83-2.37,3.71,3.71,0,0,1,2.57-3.15c5.58-1,11.19-2.45,16.44.72,1,.63,3.22,2.22,3.51,4.86.18,1.68-3.24-1.25-3.92-1C126.68,29.33,121,34.87,116.72,26.86Z"/><path class="cls-20" d="M123.62,29c5.4-1.95,8.57-2.19,11.13-5-5.24-4.67-10.45-4.54-16.45-.54C118.55,25.84,120.39,26.9,123.62,29Z"/><path class="cls-22" d="M129.68,18l.14,7.37a13.14,13.14,0,0,1-4.89,3.49c-.9.56-1.36.29-1.6-.39V21.94Z"/><path class="cls-23" d="M123.33,25.64c3-2.3,5.43-4.57,5.77-6.76l-5.77,3.8Z"/><path class="cls-22" d="M115.6,6.23c0,.43.07,1,.12,1.67.71,9.73,1,11.66,2.5,13.14a6,6,0,0,0,3,1.6c2.9.54,6.14-1.32,8.44-4.69L128.08,7a38.29,38.29,0,0,0-12.48-.72Z"/><ellipse class="cls-7" cx="123.67" cy="13.18" rx="0.78" ry="1.07"/><ellipse class="cls-7" cx="118.26" cy="12.92" rx="0.78" ry="1.07"/><polygon class="cls-23" points="121.31 16.59 119.27 16.48 120.21 12.21 120.3 12.25 119.86 16.04 121.28 16.52 121.31 16.59"/><polygon class="cls-7" points="119.78 16.1 120.3 12.1 120.42 12.11 120.03 16.1 119.78 16.1"/><path class="cls-24" d="M117,10.56a1.72,1.72,0,0,1,1.7,0"/><path class="cls-24" d="M122.92,10.69a1.72,1.72,0,0,1,1.7,0"/><path class="cls-25" d="M125.32,7.1a6,6,0,0,0,2.4,4.9,5.41,5.41,0,0,0,.38,3.7c3-.72,4.37-3.11,4.32-6.9A4.21,4.21,0,0,0,130,5.56a3.24,3.24,0,0,0,1-.51c.09-.07.65-.5.58-.62s-.52,0-2.41.73a4.5,4.5,0,0,0,.6-1.63c0-.24.09-.59,0-.62s-.36.31-1.09,1.83l-5-2.59a10.13,10.13,0,0,0-4,0c-4,1.33-4.33,4-4,7l1.77-2.64L117,9.28C120.35,10.08,123.34,9.91,125.32,7.1Z"/><path class="cls-22" d="M128.93,13.83c.53-1.51,2.24-2.64,3-2.23s.77,2.85-.32,4.34c-.08.1-1.11,1.48-2,1.23S128.46,15.14,128.93,13.83Z"/><path class="cls-23" d="M131.45,12.16c-.81-.12-1.77,2.73-1.75,2.75h0c.06,0,.58-.29.77-.1s.08.14.09.13a.35.35,0,0,0-.09-.23c-.18-.17-.65.1-.76.18.16-.27.94-2.35,1.63-2.46.24,0,.52.2.55.14S131.69,12.2,131.45,12.16Z"/><path class="cls-19" d="M122.27,31a14.25,14.25,0,0,1,13.19-7.66l1,2.94C132.54,25.19,127.66,28.35,122.27,31Z"/><path class="cls-20" d="M124.7,29.19c1,3.78,1.9,7.56.64,10.86.21.37.37.44.43-.08,1.47-3.41.2-7.22-.76-11Z"/><path class="cls-20" d="M122.68,29.45c-.86,3.78-1.71,7.55-.58,10.86-.19.37-.33.44-.38-.08-1.32-3.42-.18-7.22.68-11Z"/><path class="cls-13" d="M106.14,45.35c.36,0,40.54.67,40.54.67l.1,11-40.59-1.84Z"/><polyline class="cls-18" points="150.11 46.15 103 45.35 105.7 15.16"/><polygon class="cls-3" points="139.65 49.37 139.65 54.31 143.06 54.56 143.79 56.35 144.38 54.48 145.77 54.64 145.61 49.56 139.65 49.37"/><polygon class="cls-3" points="115.3 52.94 115.53 49.18 119.4 49.29 119.3 50.32 120.59 49.65 120.36 53.18 119.22 52.34 119.12 53.38 115.3 52.94"/><path class="cls-3" d="M108.11,49.33a2.07,2.07,0,0,1,1.45-1.77A2,2,0,0,1,110.1,50a5.88,5.88,0,0,1-2.9,4.14,1.78,1.78,0,0,1-1.93-.2,2.31,2.31,0,0,1,1.16-2.2,1.24,1.24,0,0,1,.65,1,3.85,3.85,0,0,0,2-2.87A2.21,2.21,0,0,1,108.11,49.33Z"/><line class="cls-26" x1="112.15" y1="57.15" x2="112.98" y2="45.32"/><polygon class="cls-3" points="132.26 50.57 132.28 49.44 127 49.42 127 50.23 129.63 51.58 132.26 50.57"/><polygon class="cls-3" points="126.99 50.96 126.97 54.33 132.21 54.55 132.25 51.32 129.51 52.32 126.99 50.96"/><line class="cls-26" x1="123.2" y1="58.07" x2="123.8" y2="45.88"/><line class="cls-26" x1="135.78" y1="58.99" x2="136.27" y2="45.92"/><path class="cls-3" d="M102.86,40.67l-.33-12.1L106.4,25l-4,.12-16.57.46a1.87,1.87,0,0,0-1.81,1.91L84.42,41a2.34,2.34,0,0,0,2.39,2.26l14-.39A2.09,2.09,0,0,0,102.86,40.67Z"/><path class="cls-4" d="M101.29,40.73,101,28.62,104.82,25l-4,.13-16.57.46a1.85,1.85,0,0,0-1.81,1.91L82.85,41a2.31,2.31,0,0,0,2.38,2.25l14-.38A2.1,2.1,0,0,0,101.29,40.73Z"/><circle class="cls-27" cx="91.82" cy="34.35" r="5.53"/><polyline class="cls-28" points="88.44 34.79 90.3 36.68 94.95 31.57"/><path class="cls-11" d="M39.45,11.34,5.75,5.24A4.05,4.05,0,0,0,1,9.15L0,56.48a6.17,6.17,0,0,0,6.62,6.27L43,60a5.05,5.05,0,0,0,4.65-5.47L44.37,16.74A6,6,0,0,0,39.45,11.34Z"/><path class="cls-12" d="M2.76,11.3l-1.82.37.17-3.41C1.63,6,3.19,5.56,4.77,5.17L7,5.3Z"/><path class="cls-13" d="M41.35,11.49,7.65,5.39A4.06,4.06,0,0,0,2.87,9.3l-1,47.33A6.16,6.16,0,0,0,8.52,62.9l36.39-2.75a5.06,5.06,0,0,0,4.65-5.48L46.27,16.89A6,6,0,0,0,41.35,11.49Z"/><path class="cls-14" d="M46.44,18.43,2.76,11.3l.06-2a4.09,4.09,0,0,1,4.81-3.9l34.14,6.18a5.5,5.5,0,0,1,4.49,4.9Z"/><ellipse class="cls-15" cx="6.02" cy="8.71" rx="1.29" ry="1.76" transform="translate(-3.13 3.39) rotate(-25.16)"/><ellipse class="cls-16" cx="10.32" cy="9.46" rx="1.29" ry="1.76" transform="translate(-3.04 5.29) rotate(-25.16)"/><ellipse class="cls-17" cx="14.97" cy="10.15" rx="1.29" ry="1.76" transform="translate(-2.9 7.33) rotate(-25.16)"/><path class="cls-18" d="M5.61,62.49l37.63-1.9a8.16,8.16,0,0,0,3.25-1.36,9.17,9.17,0,0,0,1.87-1.84c1.45-2,1.78-5.3.78-8.77"/><path class="cls-29" d="M33.52,32c12,8.71,13.43,19.15,6.75,22.48-5.52,3.19-17.37,2.11-24.8-.68C11.89,48.55,6,37.25,13.86,32,21.15,28.34,27.64,28.62,33.52,32Z"/><path class="cls-7" d="M29.34,9A8.33,8.33,0,0,0,23,8.28c-4.43,1.52-6.95,7-6.11,11.06s4.89,5.73,4.13,7.59-4.65.37-7.08,3.12a6.1,6.1,0,0,0-1,6.58,5.43,5.43,0,0,0,2.55,2.27c-1.07-3.6-.61-4.9,0-5.42.83-.68,2,0,3.43-.79A5.11,5.11,0,0,0,21.24,30a9.64,9.64,0,0,0,3.69-.13c4.42-1.05,6.61-5.05,7.24-6.2,2.58-4.73,3-11.83-.26-14A4.27,4.27,0,0,0,29.34,9Z"/><path class="cls-30" d="M21.27,23.41l-.13,6.68A5.42,5.42,0,0,0,22,31a5.68,5.68,0,0,0,3.06,1.19,1.43,1.43,0,0,0,1.35.48,6.22,6.22,0,0,0,1.4-1.14c0-1.76-.76-2.65-.78-4.41Z"/><path class="cls-30" d="M21.53,19c0-1.44-1.08-2.94-1.88-2.85S18.1,18.35,18.55,20c0,.12.48,1.62,1.29,1.67S21.51,20.29,21.53,19Z"/><path class="cls-31" d="M27.37,30.45c-2.75-2.08-5.27-4.22-5.57-6.2l5.28,3.43A14.64,14.64,0,0,1,27.37,30.45Z"/><path class="cls-30" d="M33,14.78c3.78,2.8-2,15-8,13.18-3.36-.86-5.58-2.79-5.7-6.65l2.53-4A15.59,15.59,0,0,0,33,14.78Z"/><path class="cls-7" d="M33.44,14.21c-2,3.64-5.74,4.24-10,4,4.58-.58,8.61-1.52,9.22-4.68Z"/><path class="cls-32" d="M19.91,16.81c.73.15.64,2.88.62,2.89h0c-.05,0-.41-.43-.63-.33-.06,0-.11.09-.12.09a.35.35,0,0,1,.15-.18c.21-.08.52.29.59.39-.05-.27-.06-2.29-.61-2.6-.19-.1-.5,0-.51,0A.6.6,0,0,1,19.91,16.81Z"/><ellipse class="cls-7" cx="25.88" cy="19.16" rx="0.97" ry="0.7" transform="translate(-1.07 36.77) rotate(-69.69)"/><ellipse class="cls-7" cx="30.56" cy="20.63" rx="0.97" ry="0.7" transform="translate(0.6 42.13) rotate(-69.69)"/><path class="cls-7" d="M31.12,20.44a1.47,1.47,0,0,0,1.06-.11,1.12,1.12,0,0,1-1.08-.28Z"/><path class="cls-7" d="M25.37,18.89c-.28-.07-.51-.39-.73-.78a1.12,1.12,0,0,0,1,.49Z"/><polygon class="cls-33" points="26.8 22.8 28.58 23.34 29.12 19.42 29.03 19.42 28.21 22.78 26.86 22.74 26.8 22.8"/><polygon class="cls-7" points="28.26 22.86 29.08 19.3 28.98 19.27 28.05 22.78 28.26 22.86"/><path class="cls-24" d="M32,19.1a1.06,1.06,0,0,0-.82-.67"/><path class="cls-7" d="M33.69,11.65c2.59,3.24,1.68,6.94-.2,10.77,1.25-4.45,1.95-8.52-.72-10.32Z"/><path class="cls-7" d="M33.39,12c2.42,5.2.53,9.4-2.52,13.32,2.44-5,4.14-9.74,1.32-13.18Z"/><path class="cls-19" d="M21,30.22l.13-2c.66,2.5,1.24,3.33,4,3.94l-1.84,1.91C20.72,32.93,20.84,33,21,30.22Z"/><path class="cls-19" d="M25.07,32.15l2,1.79c.68-1.88,1.82-2.48,1.37-4.06l-1.26-1.77C27.37,29.29,25.8,31.35,25.07,32.15Z"/><path class="cls-34" d="M33.76,38.56A6.31,6.31,0,0,1,36.2,44"/><path class="cls-29" d="M8.6,36.76c-1.45,2.29-.09,4.47,3.06,14.81a10,10,0,0,0,2.13,3.77,3.56,3.56,0,0,0,6.32-2c-1.58-5.56-4.43-10.67-7.51-16.52C12.36,36.48,12,35,11,35,9.73,35,8.86,36.35,8.6,36.76Z"/><path class="cls-30" d="M30.53,52a6.23,6.23,0,0,1,3.16.15c1.73.59,3.55,2.22,3.08,3.49-.31.82-1.47,1.24-2.23,1.51a6,6,0,0,1-4.47-.25,6.79,6.79,0,0,1-1.92-1.2Z"/><path class="cls-29" d="M14.3,55.17c1.46,2.2,3.54,1.81,12.57,2.94a6.49,6.49,0,0,0,1.69,0c.77-.09,1.77,0,1.84-.5a17.33,17.33,0,0,0,0-6.54A62.33,62.33,0,0,0,15,50.9a2.16,2.16,0,0,0-1.47,1.38A4,4,0,0,0,14.3,55.17Z"/><path class="cls-34" d="M16.25,41.38c1.26,3.6,2.39,7,2.26,8.85a37.14,37.14,0,0,1,11.76,1.59"/><path class="cls-13" d="M46,48.62c-.35.05-40.54.66-40.54.66l-.1,11,40.59-1.84Z"/><polyline class="cls-18" points="2.02 49.42 49.14 48.62 46.44 18.43"/><polygon class="cls-3" points="12.49 52.63 12.48 57.58 9.08 57.83 8.34 59.61 7.76 57.75 6.36 57.91 6.52 52.83 12.49 52.63"/><polygon class="cls-3" points="19.87 53.84 19.86 52.71 25.13 52.69 25.14 53.5 22.5 54.84 19.87 53.84"/><polygon class="cls-3" points="25.14 54.23 25.17 57.6 19.92 57.82 19.88 54.59 22.63 55.59 25.14 54.23"/><polygon class="cls-3" points="36.83 56.21 36.6 52.45 32.74 52.56 32.84 53.59 31.54 52.92 31.78 56.45 32.91 55.61 33.02 56.65 36.83 56.21"/><path class="cls-3" d="M44,52.59a2.08,2.08,0,0,0-1.46-1.77A2,2,0,0,0,42,53.21a5.94,5.94,0,0,0,2.91,4.15,1.78,1.78,0,0,0,1.93-.2A2.3,2.3,0,0,0,45.71,55a1.22,1.22,0,0,0-.65,1,3.81,3.81,0,0,1-2-2.86A2.19,2.19,0,0,0,44,52.59Z"/><line class="cls-26" x1="39.99" y1="60.42" x2="39.16" y2="48.59"/><line class="cls-26" x1="28.94" y1="61.34" x2="28.33" y2="49.14"/><line class="cls-26" x1="16.35" y1="62.26" x2="15.86" y2="49.19"/><path class="cls-3" d="M48.83,32.53l-.1-12-4-3.44,4,0,15.87-.13a2.58,2.58,0,0,1,2.59,2.56l.1,12.5a2.58,2.58,0,0,1-2.56,2.61L51,34.69A2.18,2.18,0,0,1,48.83,32.53Z"/><path class="cls-4" d="M47.25,32.53l-.1-12-4-3.44,4,0L63,16.91a2.59,2.59,0,0,1,2.6,2.56l.1,12.5a2.59,2.59,0,0,1-2.57,2.61l-13.68.11A2.18,2.18,0,0,1,47.25,32.53Z"/><circle class="cls-27" cx="56.26" cy="25.8" r="5.53"/><polyline class="cls-28" points="52.86 26.12 54.66 28.07 59.48 23.13"/><path class="cls-11" d="M119.55,118.94l-44.46-6.76c-2-.31-3.84-2.92-2.84-4.72,4.88-8.81,10.46-17.24,15.34-26a8.72,8.72,0,0,1,2.22-2.1,8.35,8.35,0,0,1,1.36-.73l30-.26a3,3,0,0,1,3,3l-1.15,34.75A3,3,0,0,1,119.55,118.94Z"/><path class="cls-13" d="M118.66,117,74.2,110.25a3,3,0,0,1-2.14-4.34L86.7,79.49a8.9,8.9,0,0,1,2.22-2.1,8.35,8.35,0,0,1,1.36-.73l30-.26a3,3,0,0,1,3,3L122,114.19A3,3,0,0,1,118.66,117Z"/><path class="cls-14" d="M123.16,80.24l0-.56A3.18,3.18,0,0,0,120,76.4l-28.58.13a5.24,5.24,0,0,0-4.55,2.69l-.18.33Z"/><line class="cls-18" x1="122.45" y1="105.24" x2="75.14" y2="100.06"/><ellipse class="cls-15" cx="90.67" cy="78.09" rx="1.03" ry="0.67" transform="translate(-28.92 74.06) rotate(-38.81)"/><ellipse class="cls-16" cx="93.84" cy="78.13" rx="1.03" ry="0.67" transform="translate(-28.25 76.06) rotate(-38.81)"/><ellipse class="cls-17" cx="97.33" cy="78.17" rx="1.03" ry="0.67" transform="translate(-27.5 78.26) rotate(-38.81)"/><line class="cls-18" x1="106.75" y1="115.33" x2="108.8" y2="104.03"/><line class="cls-18" x1="93.24" y1="113.33" x2="96.55" y2="102.67"/><line class="cls-18" x1="81.24" y1="111.44" x2="85.6" y2="101.66"/><path class="cls-35" d="M99.25,89.17c-.76,2.55-3.25,3-13,7.29a9.81,9.81,0,0,1-4.17.86,3.5,3.5,0,0,1-2.57-6A88,88,0,0,1,96.82,85.5a2.78,2.78,0,0,1,2.2.73C99.85,87.18,99.39,88.71,99.25,89.17Z"/><path class="cls-35" d="M80.53,96.84c-2.5-.71-2.75-2.77-6.5-10.9a6,6,0,0,1-.52-1.58c-.14-.75-.5-1.66-.08-1.88a17.38,17.38,0,0,1,6.13-1.92A61.49,61.49,0,0,1,84.33,95a2.11,2.11,0,0,1-.86,1.79A3.85,3.85,0,0,1,80.53,96.84Z"/><path class="cls-35" d="M94.12,86.46,90,109.24c5,3.7,11.58,4.1,19.14,2.17l4.19-22.86C106.61,84.15,100.23,83.74,94.12,86.46Z"/><path class="cls-35" d="M113.12,88c2.33,1.28,2.2,3.8,4.42,14.2a9.62,9.62,0,0,1,0,4.25,3.49,3.49,0,0,1-6.4,1.26A88.42,88.42,0,0,1,109,89.64a2.8,2.8,0,0,1,1.18-2C111.3,87,112.7,87.8,113.12,88Z"/><path class="cls-35" d="M116.71,108c-1.22,2.29-3.29,2.1-12,4.08a6.53,6.53,0,0,1-1.65.17c-.77,0-1.74.14-1.86-.31a17.44,17.44,0,0,1-.6-6.4,62.08,62.08,0,0,1,15.08-1.66,2.13,2.13,0,0,1,1.57,1.22A3.87,3.87,0,0,1,116.71,108Z"/><path class="cls-36" d="M109.16,92.88a101.64,101.64,0,0,0,1.13,11.21,60.23,60.23,0,0,0-9.71,1.4,28.83,28.83,0,0,0,.72,6.6,32.16,32.16,0,0,0,9.72-1.5"/><path class="cls-37" d="M100.16,88.74c-.11,1-.21,2,.29,2.44l-3.16,20.4,1.81,2.91,2-2.92L102,91.28c.52-.12.85-1.2,1.14-2.42a2.44,2.44,0,0,0-2.9-.25"/><path class="cls-22" d="M110,81.46l-2.09,6.23c-1.22.53.17,0-3.22.07-1,.3-4.61-1.06-4.65-1.72l2.31-3.58Z"/><path class="cls-38" d="M100.45,85.24c5.13.65,7.93-1.12,8.63-3.22l-7.91,1.83Z"/><path class="cls-22" d="M101.09,70.52c-2.19,4-3.52,7.33-3.82,10.06s3.58,3.51,4.14,3.71c4.06,1.43,7.53-1.46,7.69-1.6a21,21,0,0,0,4.19-7.5c.72-2.35,1.27-4.14.44-6-1.23-2.67-4.9-4.14-7.78-3.37C104.08,66.36,102.71,67.54,101.09,70.52Z"/><ellipse class="cls-7" cx="106.39" cy="75.64" rx="0.95" ry="0.69" transform="translate(-0.97 149.89) rotate(-70.08)"/><ellipse class="cls-7" cx="101.94" cy="73.77" rx="0.95" ry="0.69" transform="translate(-2.15 144.47) rotate(-70.08)"/><polygon class="cls-23" points="103.38 77.78 101.7 77.07 103.79 73.78 103.85 73.83 102.33 76.88 103.38 77.71 103.38 77.78"/><polygon class="cls-7" points="102.24 76.9 103.89 73.71 103.99 73.75 102.45 76.98 102.24 76.9"/><path class="cls-24" d="M101.61,71.42A1.54,1.54,0,0,1,103,72"/><path class="cls-24" d="M106.52,73.31a1.53,1.53,0,0,1,1.41.56"/><path class="cls-23" d="M105.23,75.9a1.69,1.69,0,0,0,2,1.36c-.86.58-1.6.41-2.15-1.05Z"/><path class="cls-23" d="M102.38,74.72q-1.08,1-1.77,0c.12.92.6,1.21,1.69.33Z"/><path class="cls-39" d="M101.79,87.58l-2.32,2.86c-1.12-2-1.66-3.56-.77-5.77a8.18,8.18,0,0,0,1.54.18C99.89,87,100.55,87.32,101.79,87.58Z"/><path class="cls-39" d="M109,84.32c-2.2,3.24-4.47,4-7.08,2.88l.85,4.38c2.92-.79,5.69-2.39,6.71-5.32Z"/><path class="cls-40" d="M101.61,69.87c2.3-2.33,3.17-2.63,3.51-2.41s-.08,1.15.45,1.7c.85.9,2.9-.68,4.45.33a2.89,2.89,0,0,1,1,1.43,5,5,0,0,1-.24,4l-.91,3.83,2.64-1.5A12.33,12.33,0,0,0,114,73.7a7,7,0,0,0,.17-3.39,6,6,0,0,0-1.93-3.07A7,7,0,0,0,107,65.66C103.3,66.14,101.69,69.68,101.61,69.87Z"/><path class="cls-22" d="M110.1,77.52c.91-1.1,2.69-1.53,3.22-1s-.22,2.63-1.58,3.54c-.1.07-1.39.91-2,.44S109.31,78.48,110.1,77.52Z"/><path class="cls-23" d="M112.72,76.89c-.64-.35-2.3,1.75-2.29,1.77h0c.06,0,.58-.07.68.15,0,.06,0,.14,0,.14a.26.26,0,0,0,0-.22c-.1-.2-.57-.12-.69-.09.21-.17,1.5-1.68,2.11-1.56.21,0,.38.32.42.28S112.91,77,112.72,76.89Z"/><path class="cls-40" d="M100.54,78.31a2.88,2.88,0,0,1,3.13,1c.66.93.24,2,.87,2.28.1.06.47.22,1.29-.21,2.06-1.08,4.11-4.44,4.76-5.55l-.24,1.29a9,9,0,0,0-2,6,8,8,0,0,1-3.47,1.44,8.8,8.8,0,0,1-4.2-.44,4.94,4.94,0,0,1-2.51-1.28,4.26,4.26,0,0,1-.93-3l.27-1a1.87,1.87,0,0,0,1.39.54C99.67,79.35,99.78,78.62,100.54,78.31Z"/><ellipse class="cls-7" cx="111.29" cy="79.04" rx="2.57" ry="1.8" transform="translate(-8.15 145.13) rotate(-64.34)"/><ellipse class="cls-41" cx="111.66" cy="79.28" rx="2.57" ry="1.8" transform="translate(-8.15 145.6) rotate(-64.34)"/><polygon class="cls-41" points="110.73 80.48 108.22 81.72 104.7 81.75 104.65 82.06 108.18 82.23 110.92 80.79 110.73 80.48"/><rect class="cls-7" x="103.31" y="81.49" width="1.74" height="1.2" rx="0.52" transform="translate(22.18 -22.16) rotate(13.58)"/><path class="cls-7" d="M112.63,76.84a8.62,8.62,0,0,0,.82-5.24,7.37,7.37,0,0,0-5.45-6l-.23-.05a7.59,7.59,0,0,1,5.2,6.09,7.85,7.85,0,0,1-1,5.1Z"/><polygon class="cls-13" points="89.01 101.7 119.83 105.09 118.66 117.01 85.7 112.06 89.01 101.7"/><polygon class="cls-3" points="112.49 106.93 111.89 111.23 115.31 111.76 115.84 113.32 116.53 111.89 118.11 112.08 118.52 107.66 112.49 106.93"/><polygon class="cls-3" points="99.59 106.08 99.41 106.84 101.78 108.15 104.76 107.45 104.9 106.77 99.59 106.08"/><polygon class="cls-3" points="99.2 107.64 101.54 108.98 104.55 108.45 104 111.11 98.45 110.38 99.2 107.64"/><polygon class="cls-3" points="88.17 105.19 92.1 105.7 91.9 106.56 93.34 106.01 92.23 109.22 91.24 108.36 90.94 109.19 86.77 108.64 88.17 105.19"/><path class="cls-3" d="M77.62,106.69a3.53,3.53,0,0,0,2.67-2,.74.74,0,0,1-.7-.51,3,3,0,0,1,2.22-1.65,1.93,1.93,0,0,1,.21,1.59A8.25,8.25,0,0,1,77.43,108a2.46,2.46,0,0,1-1.82.13.72.72,0,0,1-.5-.75,3.3,3.3,0,0,1,2.11-1.6A1.09,1.09,0,0,1,77.62,106.69Z"/></g></g></g></g></g></svg>