<svg xmlns="http://www.w3.org/2000/svg" xmlns:xlink="http://www.w3.org/1999/xlink" viewBox="0 0 83.77 83.77"><defs><style>.cls-1,.cls-11,.cls-19{fill:none;}.cls-2{fill:#31ab94;}.cls-3{fill:#d59532;}.cls-4{fill:#faaf3b;}.cls-5{font-size:72.76px;}.cls-12,.cls-5,.cls-8{fill:#fff;}.cls-12,.cls-5{font-family:Arial-BoldMT, Arial;font-weight:700;}.cls-6{fill:#add9d1;}.cls-7{fill:#298f7c;}.cls-9{opacity:0.86;}.cls-10{fill:url(#radial-gradient);}.cls-11{stroke:#1b1464;stroke-width:2px;opacity:0.22;}.cls-11,.cls-19{stroke-miterlimit:10;}.cls-12{font-size:14.68px;}.cls-13{clip-path:url(#clip-path);}.cls-14{fill:#fba3ba;}.cls-15{fill:#e493a5;}.cls-16{fill:#f8c7a3;}.cls-17{fill:#e3b696;}.cls-18{fill:#412a74;}.cls-19{stroke:#2e3192;stroke-linecap:round;}.cls-20{fill:#3c3378;}.cls-21{clip-path:url(#clip-path-2);}.cls-22{fill:#fbcbd8;}.cls-23{fill:#ee786b;}.cls-24{fill:#d66c60;}.cls-25{fill:#c9665a;}.cls-26{fill:#bf6156;}.cls-27{fill:#eeb2ab;}.cls-28{fill:#d4b6d0;}.cls-29{fill:#b879b0;}.cls-30{fill:#bf4747;}.cls-31{fill:#ff5f5f;}.cls-32{fill:#fcffba;}.cls-33{fill:#ad817c;}</style><radialGradient id="radial-gradient" cx="41.88" cy="41.88" r="40.88" gradientUnits="userSpaceOnUse"><stop offset="0" stop-color="#b7d5f4"/><stop offset="1" stop-color="#fff"/></radialGradient><clipPath id="clip-path"><polygon class="cls-1" points="67.54 36.84 56.02 36.69 50.19 26.63 55.89 14.72 67.41 14.87 73.24 26.93 67.54 36.84"/></clipPath><clipPath id="clip-path-2"><polygon class="cls-1" points="25.05 38.18 13.53 38.03 7.71 27.98 14.32 14.62 27 15.95 30.75 28.27 25.05 38.18"/></clipPath><symbol id="hex-connector" data-name="hex-connector" viewBox="0 0 14.01 15.06"><rect class="cls-2" width="14.01" height="15.06"/></symbol><symbol id="hex-plain" data-name="hex-plain" viewBox="0 0 132.05 112.17"><polygon class="cls-2" points="101.86 106.56 91.86 112.14 30.27 5.92 40.13 0 101.18 0.79 132.05 54.07 101.86 106.56"/><polygon class="cls-6" points="91.92 112.17 30.87 111.39 0 58.11 30.18 5.62 91.24 6.4 122.11 59.68 91.92 112.17"/></symbol><symbol id="raised-tick" data-name="raised-tick" viewBox="0 0 40.24 38.15"><path class="cls-7" d="M40.23,17.69c.7,23.58-36.76,23.58-36.76,0S40.93-5.9,40.23,17.69Z"/><path class="cls-2" d="M36.76,20.46C37.46,44.05,0,44.05,0,20.46S36.76-3.82,36.76,20.46Z"/><polygon class="cls-8" points="5.51 21.98 13.24 31.2 31.27 13.89 28.34 11.13 13.38 24.96 8.7 19.44 5.51 21.98"/></symbol><symbol id="hex-green-tick" data-name="hex-green-tick" viewBox="0 0 132.05 112.17"><use width="132.05" height="112.18" xlink:href="#hex-plain"/><use width="40.24" height="38.15" transform="translate(87.72 6.67)" xlink:href="#raised-tick"/></symbol><symbol id="hex-orange-pound" data-name="hex-orange-pound" viewBox="0 0 132.05 112.17"><polygon class="cls-3" points="101.86 106.56 91.86 112.14 30.27 5.92 40.13 0 101.18 0.79 132.05 54.07 101.86 106.56"/><polygon class="cls-4" points="91.92 112.17 30.87 111.39 0 58.11 30.18 5.62 91.24 6.4 122.11 59.68 91.92 112.17"/><use width="40.24" height="38.15" transform="translate(82.52 9.36)" xlink:href="#raised-tick"/><text class="cls-5" transform="translate(42.6 82.92)">£</text></symbol></defs><g id="Layer_2" data-name="Layer 2"><g id="MainLayer"><g id="stories" class="cls-9"><g id="childgroup"><g id="children5"><g id="care4"><circle class="cls-10" cx="41.88" cy="41.88" r="40.88"/><circle class="cls-11" cx="41.88" cy="41.88" r="40.88"/><use width="14.01" height="15.06" transform="matrix(0.1, 0.16, -0.16, 0.1, 31.9, 43.91)" xlink:href="#hex-connector"/><use width="132.05" height="112.18" transform="translate(29.47 29.07) scale(0.19)" xlink:href="#hex-green-tick"/><use width="14.01" height="15.06" transform="translate(50.43 45.36) rotate(-58.23) scale(0.19)" xlink:href="#hex-connector"/><use width="14.01" height="15.06" transform="translate(62.68 36.73) scale(0.19)" xlink:href="#hex-connector"/><use width="132.05" height="112.18" transform="translate(50.31 15.82) scale(0.19)" xlink:href="#hex-plain"/><use width="132.05" height="112.18" transform="translate(50.81 39.46) scale(0.19)" xlink:href="#hex-green-tick"/><use width="14.01" height="15.06" transform="translate(71.59 31.85) rotate(-58.23) scale(0.19)" xlink:href="#hex-connector"/><text class="cls-12" transform="translate(58.65 55.21)">£</text><use width="132.05" height="112.18" transform="translate(7.79 17.21) scale(0.19)" xlink:href="#hex-plain"/><use width="132.05" height="112.18" transform="translate(8.11 40.14) scale(0.19)" xlink:href="#hex-green-tick"/><g class="cls-13"><path class="cls-14" d="M58.13,33.12c1.36,1.57.58,3.38-.62,11.58a7.55,7.55,0,0,1-1.18,3.1,2.72,2.72,0,0,1-5-.81A67.71,67.71,0,0,1,54.7,33.18,2.16,2.16,0,0,1,56.1,32C57.07,31.89,57.89,32.84,58.13,33.12Z"/><path class="cls-14" d="M55.62,31.46l.14,13.41c4.23,1.36,9.32,1.23,15,0L70.7,31.46A25.44,25.44,0,0,0,55.62,31.46Z"/><path class="cls-14" d="M70.49,32c1.92.8,2,2.76,4.62,10.64a7.57,7.57,0,0,1,.33,3.3,2.73,2.73,0,0,1-4.86,1.52,68.54,68.54,0,0,1-3.13-13.87,2.16,2.16,0,0,1,.74-1.65A2.57,2.57,0,0,1,70.49,32Z"/><path class="cls-15" d="M56.43,32.58A2.22,2.22,0,0,1,55.9,31a2.39,2.39,0,0,1,1.66-2c3.62-.66,7.26-1.59,10.66.47.68.41.55-.3.73,1.41.12,1.09-.62.37-1.06.58C63.32,33.68,60.16,37.84,56.43,32.58Z"/><path class="cls-14" d="M56.43,32a2.22,2.22,0,0,1-.53-1.54,2.38,2.38,0,0,1,1.66-2c3.62-.66,7.26-1.59,10.66.47A4.45,4.45,0,0,1,70.5,32c.12,1.09-2.1-.81-2.54-.62C62.89,33.59,59.22,37.18,56.43,32Z"/><path class="cls-15" d="M60.91,33.36c3.5-1.27,5.56-1.42,7.22-3.28-3.4-3-6.78-2.94-10.67-.35C57.62,31.33,58.81,32,60.91,33.36Z"/><path class="cls-16" d="M64.84,26.22,64.93,31a8.69,8.69,0,0,1-3.17,2.26c-.59.36-.89.19-1-.25V28.79Z"/><path class="cls-17" d="M60.72,31.2c2-1.49,3.52-3,3.74-4.38l-3.74,2.45Z"/><path class="cls-16" d="M55.71,18.61c0,.27,0,.64.07,1.08.47,6.31.64,7.56,1.62,8.53a4,4,0,0,0,2,1c1.88.35,4-.85,5.48-3l-1-7.13a24.49,24.49,0,0,0-8.09-.47Z"/><ellipse class="cls-18" cx="60.94" cy="23.12" rx="0.5" ry="0.69"/><ellipse class="cls-18" cx="57.43" cy="22.94" rx="0.5" ry="0.69"/><polygon class="cls-17" points="59.41 25.33 58.09 25.26 58.7 22.49 58.75 22.51 58.47 24.97 59.39 25.28 59.41 25.33"/><polygon class="cls-18" points="58.42 25.01 58.75 22.42 58.83 22.42 58.58 25.01 58.42 25.01"/><path class="cls-19" d="M56.63,21.42a1.08,1.08,0,0,1,1.1,0"/><path class="cls-19" d="M60.45,21.5a1.08,1.08,0,0,1,1.1,0"/><path class="cls-20" d="M62,19.17a4,4,0,0,0,1.55,3.18,3.47,3.47,0,0,0,.26,2.4c1.95-.47,2.83-2,2.8-4.48a2.74,2.74,0,0,0-1.55-2.1,2,2,0,0,0,.64-.33c.06-.05.42-.32.38-.4s-.33,0-1.57.47a3,3,0,0,0,.4-1.06c0-.15.06-.38,0-.4s-.23.2-.7,1.19L60.94,16a6.72,6.72,0,0,0-2.57,0c-2.6.86-2.8,2.62-2.59,4.53l1.15-1.71-.33,1.8C58.78,21.11,60.73,21,62,19.17Z"/><path class="cls-16" d="M64.35,23.53c.35-1,1.46-1.71,2-1.44s.5,1.85-.21,2.81c0,.07-.72,1-1.27.8S64.05,24.39,64.35,23.53Z"/><path class="cls-17" d="M66,22.45c-.53-.08-1.15,1.77-1.14,1.79h0s.38-.19.5-.07a.3.3,0,0,1,.06.09.19.19,0,0,0,0-.15c-.12-.11-.43.06-.5.12.1-.18.61-1.53,1.06-1.6.16,0,.34.13.35.09S66.14,22.48,66,22.45Z"/><path class="cls-14" d="M60,34.7a9.26,9.26,0,0,1,8.56-5l.65,1.91C66.7,30.91,63.53,33,60,34.7Z"/><path class="cls-15" d="M61.61,33.5c.61,2.45,1.23,4.9.41,7,.14.24.24.28.28,0,1-2.22.13-4.69-.49-7.13Z"/><path class="cls-15" d="M60.3,33.67c-.56,2.45-1.11,4.9-.38,7-.12.24-.21.29-.25-.05-.85-2.21-.11-4.68.44-7.12Z"/></g><g class="cls-21"><path class="cls-22" d="M26,32.47c5.85,3.05,2.82,9-.12,14.94-3.73,1.52-8.22,1.37-13.24.05-4.21-4.65-5.88-9.51.07-15A18,18,0,0,1,26,32.47Z"/><circle class="cls-14" cx="20.1" cy="34.52" r="0.26"/><circle class="cls-14" cx="20.02" cy="38.1" r="0.26"/><circle class="cls-14" cx="19.99" cy="42.45" r="0.26"/><ellipse class="cls-14" cx="19.97" cy="41.85" rx="0.26" ry="0.18"/><polygon class="cls-14" points="21.05 32.68 20.84 47.37 20.67 32.74 20.49 32.6 21.05 32.68"/><ellipse class="cls-14" cx="19.9" cy="45.14" rx="0.26" ry="0.18"/><path class="cls-18" d="M23.15,17.4A5.6,5.6,0,0,0,18.87,17a6.92,6.92,0,0,0-4.14,7.47c.58,2.78,3.31,3.88,2.8,5.13s-3.14.25-4.78,2.11a4.13,4.13,0,0,0-.66,4.45,3.63,3.63,0,0,0,1.72,1.53c-.72-2.43-.41-3.31,0-3.66s1.33,0,2.32-.54a3.4,3.4,0,0,0,1.53-1.82,6.53,6.53,0,0,0,2.49-.09c3-.71,4.47-3.42,4.89-4.19,1.75-3.2,2-8-.17-9.49A3,3,0,0,0,23.15,17.4Z"/><path class="cls-23" d="M17.7,27.17l-.09,4.52a3.45,3.45,0,0,0,.6.62,3.86,3.86,0,0,0,2.07.81,1,1,0,0,0,.92.32,4.44,4.44,0,0,0,.94-.76c0-1.19-.52-1.79-.53-3Z"/><path class="cls-23" d="M18.6,25.18c-.33-.92-1.38-1.61-1.86-1.37s-.47,1.75.19,2.66c.05.07.69.92,1.21.76S18.88,26,18.6,25.18Z"/><path class="cls-24" d="M21.82,31.93c-1.86-1.4-3.56-2.85-3.77-4.19l3.58,2.32A9.27,9.27,0,0,1,21.82,31.93Z"/><path class="cls-23" d="M24.85,19.81c3,.89,2.27,10-2,10.23-2.33.24-4.18-.45-5.17-2.88L18.36,24A10.51,10.51,0,0,0,24.85,19.81Z"/><path class="cls-18" d="M25,19.33c-.4,2.78-2.64,4-5.4,4.89,2.77-1.45,5.1-3,4.75-5.13Z"/><path class="cls-25" d="M17.05,24.16c.5-.08,1.08,1.67,1.07,1.68h0s-.35-.18-.47-.06a.28.28,0,0,0-.05.08.17.17,0,0,1,.05-.14c.11-.11.4.06.47.11-.1-.17-.58-1.44-1-1.51-.15,0-.32.12-.34.09S16.91,24.18,17.05,24.16Z"/><ellipse class="cls-18" cx="21.38" cy="24.24" rx="0.48" ry="0.65"/><ellipse class="cls-18" cx="24.7" cy="24.08" rx="0.48" ry="0.65"/><path class="cls-18" d="M25,23.83a1,1,0,0,0,.65-.32.79.79,0,0,1-.75.08Z"/><path class="cls-18" d="M21,24.2a1,1,0,0,1-.64-.33.74.74,0,0,0,.75.08Z"/><polygon class="cls-26" points="22.83 26.34 24.08 26.27 23.5 23.65 23.45 23.67 23.72 26 22.85 26.29 22.83 26.34"/><polygon class="cls-18" points="23.77 26.03 23.45 23.58 23.38 23.59 23.62 26.03 23.77 26.03"/><path class="cls-19" d="M25.27,22.77a.74.74,0,0,0-.68-.24"/><path class="cls-18" d="M24.58,17.66c2.4,1.44,2.69,4,2.4,6.86-.25-3.11-.77-5.85-2.88-6.36Z"/><path class="cls-18" d="M24.46,17.92C27.21,20.65,27,23.75,26,27c.38-3.72.34-7.14-2.26-8.66Z"/><path class="cls-14" d="M17.54,31.78l.09-1.35c.45,1.68.84,2.25,2.72,2.66l-1.24,1.29C17.33,33.6,17.41,33.62,17.54,31.78Z"/><path class="cls-14" d="M20.26,33.08l1.34,1.21c.46-1.27,1.22-1.68.92-2.74l-.85-1.2C21.82,31.15,20.76,32.54,20.26,33.08Z"/></g><path class="cls-27" d="M40.76,35.12a5.09,5.09,0,0,0-3.23,1.11A5.5,5.5,0,0,0,36,41.46c0,.2.79,3.3,3.69,4.07a5.36,5.36,0,0,0,5.92-2.6,5.53,5.53,0,0,0-1.22-6.69A5.42,5.42,0,0,0,40.76,35.12Z"/><path class="cls-28" d="M41.79,32.79a.75.75,0,0,1,.6-.39.73.73,0,0,1,.67.51.8.8,0,0,1,1,.22.63.63,0,0,1,0,.77.65.65,0,0,1,.4.78.58.58,0,0,1-.54.39.62.62,0,0,1-.32.77.66.66,0,0,1-.6,0,.85.85,0,0,1-1,.46.86.86,0,0,1-.36-.57.51.51,0,0,1-.58-.22.57.57,0,0,1,0-.58.75.75,0,0,1-.46-.61.86.86,0,0,1,.23-.58.67.67,0,0,1-.05-.62C40.8,32.81,41.31,32.61,41.79,32.79Z"/><path class="cls-27" d="M45.89,39.67a1.38,1.38,0,0,1,1.44,1.22,1.13,1.13,0,0,1-1.73.89"/><path class="cls-29" d="M36.13,38c3.4-1.22,7-.08,10.31,1.77a3.19,3.19,0,0,0,0-1,7.35,7.35,0,0,0-.22-1.18,4.27,4.27,0,0,0-.72-1.31,6.06,6.06,0,0,0-4.16-2c-.54-.05-3-.18-4.34,1.52A6.61,6.61,0,0,0,36.13,38Z"/><path class="cls-28" d="M36.08,38.05c3.4-1.22,7-.08,10.31,1.78a.7.7,0,0,0,0-.48C45,37.66,36.74,35.43,36.08,38.05Z"/><path class="cls-30" d="M38.66,42.43a.67.67,0,0,1,.68,0,2.29,2.29,0,0,0,1.46.12c.46-.11.56.08.75.14s.45.73.16,1.11a2.61,2.61,0,0,1-3.2-.05C38.13,43.28,38.37,42.48,38.66,42.43Z"/><path class="cls-31" d="M38.53,42.51a.67.67,0,0,1,.68,0,2.31,2.31,0,0,0,1.47.12c.46-.11.55.08.74.14s.45.73.16,1.11a2.61,2.61,0,0,1-3.2,0C38,43.36,38.24,42.56,38.53,42.51Z"/><path class="cls-8" d="M40.8,44.3a1,1,0,1,1-.95-1A1,1,0,0,1,40.8,44.3Zm-1-.7A.69.69,0,0,0,39.77,45a.69.69,0,0,0,.72-.66A.68.68,0,0,0,39.83,43.6Z"/><circle class="cls-32" cx="39.88" cy="43.51" r="0.68"/><path class="cls-33" d="M46.86,40.28c-.34-.07-.78,1.1-.78,1.11h0s.25-.11.32,0,0,.06,0,.06a.13.13,0,0,0,0-.1c-.07-.08-.27,0-.32.06s.43-1,.73-1c.1,0,.21.09.22.07S47,40.3,46.86,40.28Z"/><ellipse class="cls-18" cx="37.85" cy="40.08" rx="0.76" ry="0.55" transform="translate(-3.73 76.28) rotate(-87.67)"/><path class="cls-18" d="M37.5,39.77a1.15,1.15,0,0,1-.73-.4.87.87,0,0,0,.87.12Z"/><path class="cls-19" d="M37.25,38.52a.86.86,0,0,1,.8-.24"/><ellipse class="cls-18" cx="42.19" cy="40.26" rx="0.76" ry="0.55" transform="matrix(0.04, -1, 1, 0.04, 0.26, 80.78)"/><path class="cls-18" d="M42.57,40a1.2,1.2,0,0,0,.77-.34.9.9,0,0,1-.88,0Z"/><path class="cls-19" d="M42.92,38.75a.83.83,0,0,0-.77-.3"/><text class="cls-12" transform="translate(15.64 55.39)">£</text><use width="132.05" height="112.18" transform="translate(29.07 52.79) scale(0.19)" xlink:href="#hex-orange-pound"/></g></g></g></g></g></g></svg>