<svg xmlns="http://www.w3.org/2000/svg" xmlns:xlink="http://www.w3.org/1999/xlink" viewBox="0 0 135.14 104.67"><defs><style>.cls-1,.cls-11,.cls-19,.cls-33,.cls-41{fill:none;}.cls-2,.cls-39{fill:#31ab94;}.cls-3{fill:#add9d1;}.Anon-H\/3PZcblQb0\={fill:#b879b0;}.Anon-jY41dALBae4\={fill:#cda1c8;}.cls-12,.cls-34,.cls-4{fill:#fff;}.cls-5{fill:#e34079;}.cls-6{fill:#f2b3c9;}.cls-7{fill:#b53360;}.cls-8{fill:#298f7c;}.cls-9{opacity:0.86;}.cls-10{fill:url(#radial-gradient);}.cls-11{stroke:#1b1464;stroke-width:2px;opacity:0.22;}.cls-11,.cls-19,.cls-33,.cls-34,.cls-35,.cls-36,.cls-37,.cls-38,.cls-39,.cls-40,.cls-41{stroke-miterlimit:10;}.cls-12{font-size:16.57px;font-family:Arial-BoldMT, Arial;font-weight:700;}.cls-13{clip-path:url(#clip-path);}.cls-14{fill:#fba3ba;}.cls-15{fill:#e493a5;}.cls-16{fill:#f8c7a3;}.cls-17{fill:#e3b696;}.cls-18{fill:#412a74;}.cls-19{stroke:#2e3192;stroke-linecap:round;}.cls-20{fill:#3c3378;}.cls-21{clip-path:url(#clip-path-2);}.cls-22{fill:#fbcbd8;}.cls-23{fill:#ee786b;}.cls-24{fill:#d66c60;}.cls-25{fill:#c9665a;}.cls-26{fill:#bf6156;}.cls-27{fill:#eeb2ab;}.cls-28{fill:#d4b6d0;}.cls-29{fill:#bf4747;}.cls-30{fill:#ff5f5f;}.cls-31{fill:#fcffba;}.cls-32{fill:#ad817c;}.cls-33{stroke:#29abe2;}.cls-34,.cls-35,.cls-36,.cls-37,.cls-38,.cls-39,.cls-40,.cls-41{stroke:#4b9c4c;stroke-width:0.5px;}.cls-35{fill:url(#linear-gradient);}.cls-36{fill:url(#linear-gradient-2);}.cls-37{fill:url(#linear-gradient-3);}.cls-40{fill:url(#linear-gradient-4);}</style><radialGradient id="radial-gradient" cx="52.34" cy="52.34" r="51.34" gradientUnits="userSpaceOnUse"><stop offset="0" stop-color="#b7d5f4"/><stop offset="1" stop-color="#fff"/></radialGradient><clipPath id="clip-path"><polygon class="cls-1" points="80.72 50 67.71 49.83 61.14 38.48 67.57 25.03 80.58 25.2 87.15 38.82 80.72 50"/></clipPath><clipPath id="clip-path-2"><polygon class="cls-1" points="32.76 51.52 19.75 51.35 13.17 40 20.64 24.92 34.95 26.42 39.19 40.34 32.76 51.52"/></clipPath><linearGradient id="linear-gradient" x1="91.25" y1="97.11" x2="105.38" y2="90.04" gradientTransform="translate(3.09 -51.62) rotate(1.22)" gradientUnits="userSpaceOnUse"><stop offset="0.56" stop-color="#fff"/><stop offset="1" stop-color="#add9d1"/></linearGradient><linearGradient id="linear-gradient-2" x1="885.34" y1="527.95" x2="909.72" y2="527.95" gradientTransform="translate(-527.08 -779.07) rotate(20.87)" xlink:href="#linear-gradient"/><linearGradient id="linear-gradient-3" x1="887.26" y1="554.83" x2="908.74" y2="554.83" gradientTransform="translate(-527.08 -779.07) rotate(20.87)" xlink:href="#linear-gradient"/><linearGradient id="linear-gradient-4" x1="1410.11" y1="708.75" x2="1410.19" y2="708.67" gradientTransform="translate(-699.41 -1287.29) rotate(32.36)" xlink:href="#linear-gradient"/><symbol id="hex-connector" data-name="hex-connector" viewBox="0 0 14.01 15.06"><rect class="cls-2" width="14.01" height="15.06"/></symbol><symbol id="hex-plain" data-name="hex-plain" viewBox="0 0 132.05 112.17"><polygon class="cls-2" points="101.86 106.56 91.86 112.14 30.27 5.92 40.13 0 101.18 0.79 132.05 54.07 101.86 106.56"/><polygon class="cls-3" points="91.92 112.17 30.87 111.39 0 58.11 30.18 5.62 91.24 6.4 122.11 59.68 91.92 112.17"/></symbol><symbol id="raised-tick" data-name="raised-tick" viewBox="0 0 40.24 38.15"><path class="cls-8" d="M40.23,17.69c.7,23.58-36.76,23.58-36.76,0S40.93-5.9,40.23,17.69Z"/><path class="cls-2" d="M36.76,20.46C37.46,44.05,0,44.05,0,20.46S36.76-3.82,36.76,20.46Z"/><polygon class="cls-4" points="5.51 21.98 13.24 31.2 31.27 13.89 28.34 11.13 13.38 24.96 8.7 19.44 5.51 21.98"/></symbol><symbol id="hex-green-tick" data-name="hex-green-tick" viewBox="0 0 132.05 112.17"><use width="132.05" height="112.18" xlink:href="#hex-plain"/><use width="40.24" height="38.15" transform="translate(87.72 6.67)" xlink:href="#raised-tick"/></symbol><symbol id="hex-red-deny" data-name="hex-red-deny" viewBox="0 0 132.05 112.17"><polygon class="cls-5" points="101.86 106.56 91.86 112.14 30.27 5.92 40.13 0 101.18 0.79 132.05 54.07 101.86 106.56"/><polygon class="cls-6" points="91.92 112.17 30.87 111.39 0 58.11 30.18 5.62 91.24 6.4 122.11 59.68 91.92 112.17"/><path class="cls-7" d="M124.71,25.3c.69,23.58-36.77,23.58-36.77,0S125.4,1.71,124.71,25.3Z"/><path class="cls-5" d="M121.24,28.07c.69,23.59-36.77,23.59-36.77,0S121.24,3.79,121.24,28.07Z"/><rect class="cls-4" x="92.44" y="25.3" width="22.3" height="5.16"/></symbol><symbol id="hex-purple-security" data-name="hex-purple-security" viewBox="0 0 132.05 112.17"><polygon class="Anon-H/3PZcblQb0=" points="101.86 106.56 91.86 112.14 30.27 5.92 40.13 0 101.18 0.79 132.05 54.07 101.86 106.56"/><polygon class="Anon-jY41dALBae4=" points="91.92 112.17 30.87 111.39 0 58.11 30.18 5.62 91.24 6.4 122.11 59.68 91.92 112.17"/><use width="40.24" height="38.15" transform="translate(87.72 6.67)" xlink:href="#raised-tick"/><path class="cls-4" d="M31.14,30.41a23.91,23.91,0,1,0,33.75-2A23.92,23.92,0,0,0,31.14,30.41ZM62.55,57.9a17.55,17.55,0,1,1-1.48-24.76A17.55,17.55,0,0,1,62.55,57.9Z"/><polygon class="cls-4" points="96.26 79.51 88.82 87.89 67.28 68.78 74.71 60.4 96.26 79.51"/><polygon class="cls-4" points="73.69 62.45 68.99 67.75 64.33 63.61 69.03 58.31 73.69 62.45"/></symbol><symbol id="symbol-health" data-name="symbol-health" viewBox="0 0 20.73 20.73"><circle class="cls-4" cx="10.37" cy="10.37" r="10.37"/><rect class="cls-2" x="7.85" y="3.01" width="4.29" height="14.97"/><polygon class="cls-2" points="2.73 12.66 2.73 8.42 17.7 8.42 17.7 12.66 2.73 12.66"/></symbol></defs><g id="Layer_2" data-name="Layer 2"><g id="MainLayer"><g id="stories" class="cls-9"><g id="childgroup"><g id="children3"><g id="care4"><circle class="cls-10" cx="52.34" cy="52.34" r="51.34"/><circle class="cls-11" cx="52.34" cy="52.34" r="51.34"/><use width="14.01" height="15.06" transform="translate(40.48 57.99) rotate(56.8) scale(0.21)" xlink:href="#hex-connector"/><use width="14.01" height="15.06" transform="matrix(-0.11, -0.18, -0.29, 0.18, 41.52, 34.44)" xlink:href="#hex-connector"/><use width="132.05" height="112.18" transform="translate(37.74 41.23) scale(0.21)" xlink:href="#hex-green-tick"/><use width="14.01" height="15.06" transform="matrix(0.11, -0.18, 0.18, 0.11, 61.4, 59.62)" xlink:href="#hex-connector"/><use width="14.01" height="15.06" transform="translate(75.24 49.89) scale(0.21)" xlink:href="#hex-connector"/><use width="132.05" height="112.18" transform="translate(61.27 26.28) scale(0.21)" xlink:href="#hex-plain"/><use width="132.05" height="112.18" transform="translate(61.84 52.97) scale(0.21)" xlink:href="#hex-red-deny"/><use width="14.01" height="15.06" transform="matrix(0.11, -0.18, 0.18, 0.11, 85.3, 44.37)" xlink:href="#hex-connector"/><text class="cls-12" transform="translate(69.68 70.74)">£</text><use width="132.05" height="112.18" transform="translate(37 14.98) scale(0.21)" xlink:href="#hex-purple-security"/><use width="14.01" height="15.06" transform="matrix(0.11, -0.18, 0.18, 0.11, 60.65, 33.37)" xlink:href="#hex-connector"/><use width="132.05" height="112.18" transform="translate(13.27 27.84) scale(0.21)" xlink:href="#hex-plain"/><use width="132.05" height="112.18" transform="translate(13.63 53.73) scale(0.21)" xlink:href="#hex-green-tick"/><use width="20.73" height="20.73" transform="translate(20.2 59.41) scale(0.61)" xlink:href="#symbol-health"/><g class="cls-13"><path class="cls-14" d="M70.1,45.8c1.54,1.78.66,3.82-.7,13.08a8.68,8.68,0,0,1-1.33,3.5,3.08,3.08,0,0,1-5.67-.92,77.34,77.34,0,0,1,3.83-15.58,2.42,2.42,0,0,1,1.58-1.29C68.9,44.42,69.83,45.48,70.1,45.8Z"/><path class="cls-14" d="M67.27,43.93l.15,15.14c4.78,1.53,10.53,1.38,17,0l-.1-15.19A28.72,28.72,0,0,0,67.27,43.93Z"/><path class="cls-14" d="M84.05,44.53c2.17.9,2.29,3.12,5.22,12a8.53,8.53,0,0,1,.37,3.73A3.08,3.08,0,0,1,84.16,62a77.13,77.13,0,0,1-3.54-15.65,2.42,2.42,0,0,1,.83-1.86A2.88,2.88,0,0,1,84.05,44.53Z"/><path class="cls-15" d="M68.18,45.2a2.51,2.51,0,0,1-.6-1.74,2.69,2.69,0,0,1,1.88-2.31c4.08-.74,8.19-1.79,12,.53.77.46.62-.34.83,1.59.13,1.23-.71.42-1.2.66C76,46.44,72.39,51.14,68.18,45.2Z"/><path class="cls-14" d="M68.18,44.53a2.5,2.5,0,0,1-.6-1.73,2.69,2.69,0,0,1,1.88-2.32c4.08-.74,8.19-1.79,12,.53a5,5,0,0,1,2.57,3.56c.14,1.23-2.37-.91-2.87-.7C75.47,46.34,71.33,50.39,68.18,44.53Z"/><path class="cls-15" d="M73.24,46.07c4-1.42,6.27-1.6,8.15-3.7-3.84-3.41-7.66-3.32-12-.39C69.52,43.78,70.87,44.56,73.24,46.07Z"/><path class="cls-16" d="M77.67,38l.11,5.4A9.73,9.73,0,0,1,74.19,46c-.66.41-1,.22-1.17-.28V40.92Z"/><path class="cls-17" d="M73,43.63c2.22-1.68,4-3.34,4.23-4.94L73,41.46Z"/><path class="cls-16" d="M67.36,29.42c0,.31,0,.73.09,1.23.52,7.12.72,8.53,1.83,9.62a4.45,4.45,0,0,0,2.22,1.17c2.12.39,4.49-1,6.18-3.44L76.5,30a28.08,28.08,0,0,0-9.14-.53Z"/><ellipse class="cls-18" cx="73.27" cy="34.51" rx="0.57" ry="0.78"/><ellipse class="cls-18" cx="69.31" cy="34.32" rx="0.57" ry="0.78"/><polygon class="cls-17" points="71.54 37.01 70.05 36.93 70.74 33.8 70.8 33.83 70.48 36.6 71.52 36.95 71.54 37.01"/><polygon class="cls-18" points="70.42 36.65 70.8 33.72 70.89 33.73 70.6 36.65 70.42 36.65"/><path class="cls-19" d="M68.4,32.59a1.24,1.24,0,0,1,1.25,0"/><path class="cls-19" d="M72.72,32.68a1.25,1.25,0,0,1,1.24,0"/><path class="cls-20" d="M74.48,30.06a4.41,4.41,0,0,0,1.75,3.58,3.94,3.94,0,0,0,.29,2.72c2.21-.53,3.2-2.28,3.16-5.06a3.24,3.24,0,0,0-.55-1.38,3.16,3.16,0,0,0-1.2-1,2.32,2.32,0,0,0,.73-.38c.07-.05.47-.36.43-.45s-.38,0-1.77.53a3.09,3.09,0,0,0,.44-1.19c0-.18.07-.43,0-.45s-.26.22-.8,1.34l-3.69-1.9a7.68,7.68,0,0,0-2.91,0c-2.94,1-3.16,3-2.92,5.12l1.29-1.94-.37,2C70.84,32.24,73,32.12,74.48,30.06Z"/><path class="cls-16" d="M77.12,35c.39-1.1,1.65-1.93,2.22-1.63s.57,2.09-.23,3.18c-.06.08-.82,1.09-1.44.9S76.78,36,77.12,35Z"/><path class="cls-17" d="M79,33.76c-.6-.09-1.29,2-1.28,2h0s.43-.21.57-.08,0,.11.06.1a.22.22,0,0,0-.06-.17c-.14-.12-.48.07-.56.13.12-.19.69-1.72,1.19-1.79.18,0,.38.14.4.1S79.14,33.79,79,33.76Z"/><path class="cls-14" d="M72.25,47.59A10.42,10.42,0,0,1,81.91,42l.73,2.15C79.77,43.31,76.19,45.62,72.25,47.59Z"/><path class="cls-15" d="M74,46.24c.7,2.76,1.4,5.53.47,7.95.16.27.27.32.32-.06,1.08-2.5.14-5.29-.56-8Z"/><path class="cls-15" d="M72.54,46.42c-.62,2.77-1.24,5.54-.42,8-.14.27-.24.32-.28-.06-1-2.5-.13-5.29.5-8Z"/></g><g class="cls-21"><path class="cls-22" d="M33.8,45.07c6.61,3.45,3.18,10.18-.14,16.87-4.2,1.71-9.27,1.55-14.94.06-4.76-5.26-6.64-10.74.08-16.93A20.35,20.35,0,0,1,33.8,45.07Z"/><circle class="cls-14" cx="27.16" cy="47.38" r="0.29"/><circle class="cls-14" cx="27.07" cy="51.42" r="0.29"/><circle class="cls-14" cx="27.04" cy="56.34" r="0.29"/><ellipse class="cls-14" cx="27.01" cy="55.66" rx="0.29" ry="0.21"/><polygon class="cls-14" points="28.24 45.31 28 61.89 27.81 45.38 27.61 45.22 28.24 45.31"/><ellipse class="cls-14" cx="26.94" cy="59.37" rx="0.29" ry="0.21"/><path class="cls-18" d="M30.61,28.06a6.33,6.33,0,0,0-4.84-.51c-3.37,1.16-5.3,5.34-4.66,8.44s3.73,4.37,3.15,5.78-3.55.29-5.4,2.39a4.66,4.66,0,0,0-.74,5,4.09,4.09,0,0,0,1.95,1.73c-.82-2.75-.47-3.74,0-4.14.63-.51,1.5,0,2.62-.6a3.88,3.88,0,0,0,1.73-2.06,7.46,7.46,0,0,0,2.82-.1c3.37-.81,5-3.86,5.52-4.74,2-3.6,2.27-9-.2-10.7A3.25,3.25,0,0,0,30.61,28.06Z"/><path class="cls-23" d="M24.45,39.09l-.1,5.1a4.06,4.06,0,0,0,3,1.62,1.08,1.08,0,0,0,1,.36,4.82,4.82,0,0,0,1.06-.86c0-1.35-.58-2-.59-3.37Z"/><path class="cls-23" d="M25.47,36.84c-.37-1-1.56-1.82-2.1-1.54s-.53,2,.22,3c.06.08.77,1,1.36.86S25.79,37.75,25.47,36.84Z"/><path class="cls-24" d="M29.11,44.46c-2.1-1.58-4-3.21-4.25-4.73l4,2.62A11,11,0,0,1,29.11,44.46Z"/><path class="cls-23" d="M32.52,30.78c3.45,1,2.57,11.25-2.24,11.55-2.63.27-4.72-.52-5.83-3.25l.75-3.52A11.89,11.89,0,0,0,32.52,30.78Z"/><path class="cls-18" d="M32.72,30.24c-.45,3.13-3,4.56-6.09,5.51C29.75,34.13,32.38,32.39,32,30Z"/><path class="cls-25" d="M23.72,35.69c.57-.09,1.22,1.89,1.21,1.9h0s-.4-.2-.53-.07a.29.29,0,0,0-.06.1.19.19,0,0,1,.06-.16c.12-.12.45.06.52.12-.11-.18-.65-1.62-1.13-1.7-.16,0-.35.14-.37.1S23.56,35.72,23.72,35.69Z"/><ellipse class="cls-18" cx="28.62" cy="35.79" rx="0.54" ry="0.74"/><ellipse class="cls-18" cx="32.36" cy="35.6" rx="0.54" ry="0.74"/><path class="cls-18" d="M32.71,35.32a1.16,1.16,0,0,0,.73-.37.86.86,0,0,1-.85.09Z"/><path class="cls-18" d="M28.18,35.73a1.14,1.14,0,0,1-.73-.36.85.85,0,0,0,.85.08Z"/><polygon class="cls-26" points="30.25 38.15 31.66 38.07 31 35.11 30.95 35.14 31.25 37.76 30.27 38.09 30.25 38.15"/><polygon class="cls-18" points="31.3 37.8 30.95 35.04 30.86 35.04 31.13 37.8 31.3 37.8"/><path class="cls-19" d="M33,34.12a.8.8,0,0,0-.76-.27"/><path class="cls-18" d="M32.22,28.35c2.71,1.63,3,4.52,2.71,7.75-.28-3.51-.86-6.61-3.25-7.19Z"/><path class="cls-18" d="M32.08,28.65c3.11,3.08,2.88,6.58,1.73,10.19.43-4.2.38-8.06-2.54-9.77Z"/><path class="cls-14" d="M24.28,44.29l.1-1.53c.5,1.91.94,2.55,3.07,3l-1.4,1.46C24,46.35,24.13,46.37,24.28,44.29Z"/><path class="cls-14" d="M27.35,45.76l1.51,1.37c.52-1.44,1.38-1.9,1-3.1l-1-1.35C29.11,43.58,27.91,45.15,27.35,45.76Z"/></g><path class="cls-27" d="M50.49,48.06a5.78,5.78,0,0,0-3.64,1.26,6.18,6.18,0,0,0-1.77,5.9c.05.22.9,3.72,4.16,4.59a6,6,0,0,0,6.69-2.92,6.25,6.25,0,0,0-1.38-7.56A6.14,6.14,0,0,0,50.49,48.06Z"/><path class="cls-28" d="M51.65,45.43a.86.86,0,0,1,.68-.44.84.84,0,0,1,.76.58.91.91,0,0,1,1.11.24.74.74,0,0,1,0,.88.71.71,0,0,1,.45.87A.66.66,0,0,1,54,48a.69.69,0,0,1-.36.87.74.74,0,0,1-.68,0,.94.94,0,0,1-1.15.52,1,1,0,0,1-.41-.64.57.57,0,0,1-.65-.25.65.65,0,0,1,0-.65.84.84,0,0,1-.51-.69,1,1,0,0,1,.26-.66.69.69,0,0,1,0-.69C50.53,45.45,51.1,45.23,51.65,45.43Z"/><path class="cls-27" d="M56.28,53.2a1.55,1.55,0,0,1,1.63,1.37,1.28,1.28,0,0,1-1.95,1"/><path class="Anon-H/3PZcblQb0=" d="M45.26,51.33c3.84-1.38,8-.1,11.64,2a3.79,3.79,0,0,0,0-1.11,7.91,7.91,0,0,0-.25-1.33,4.82,4.82,0,0,0-.81-1.47,6.79,6.79,0,0,0-4.7-2.31c-.61-.06-3.44-.22-4.9,1.71A7.64,7.64,0,0,0,45.26,51.33Z"/><path class="cls-28" d="M45.21,51.37c3.83-1.37,7.94-.09,11.64,2a.82.82,0,0,0,0-.55C55.22,50.94,46,48.41,45.21,51.37Z"/><path class="cls-29" d="M48.11,56.32a.74.74,0,0,1,.77,0,2.69,2.69,0,0,0,1.66.14c.52-.14.62.08.84.15s.5.82.18,1.25c-.58.79-2.94.81-3.61,0C47.52,57.27,47.79,56.37,48.11,56.32Z"/><path class="cls-30" d="M48,56.41a.74.74,0,0,1,.77,0,2.67,2.67,0,0,0,1.65.14c.52-.14.63.08.84.15s.51.82.19,1.25c-.58.79-3,.81-3.62-.05C47.38,57.36,47.64,56.46,48,56.41Z"/><path class="cls-4" d="M50.53,58.43a1.1,1.1,0,0,1-1.16,1.07,1.12,1.12,0,1,1,1.16-1.07Zm-1.09-.79a.77.77,0,1,0,.74.8A.76.76,0,0,0,49.44,57.64Z"/><circle class="cls-31" cx="49.5" cy="57.54" r="0.76"/><path class="cls-32" d="M57.37,53.88c-.38-.07-.88,1.25-.87,1.26h0s.28-.13.37,0,0,.06,0,.06a.18.18,0,0,0,0-.11c-.08-.08-.3,0-.36.07C56.59,55,57,54,57.32,54c.12,0,.24.1.26.07S57.48,53.91,57.37,53.88Z"/><ellipse class="cls-18" cx="47.21" cy="53.66" rx="0.86" ry="0.63" transform="translate(-8.33 98.65) rotate(-87.67)"/><path class="cls-18" d="M46.81,53.32a1.33,1.33,0,0,1-.83-.46A1,1,0,0,0,47,53Z"/><path class="cls-19" d="M46.53,51.9a1,1,0,0,1,.9-.27"/><ellipse class="cls-18" cx="52.11" cy="53.86" rx="0.86" ry="0.63" transform="translate(-3.82 103.74) rotate(-87.67)"/><path class="cls-18" d="M52.53,53.55a1.36,1.36,0,0,0,.87-.39,1,1,0,0,1-1,.06Z"/><path class="cls-19" d="M52.93,52.16a1,1,0,0,0-.88-.34"/><polyline class="cls-33" points="62.01 86.82 59.02 92.02 53.02 91.94"/><polyline class="cls-33" points="50.6 91.91 44.6 91.83 41.6 86.64"/><polyline class="cls-33" points="40.32 84.44 37.31 79.25 40.3 74.05"/><polyline class="cls-33" points="41.45 72.05 44.44 66.85 50.44 66.93"/><polyline class="cls-33" points="52.86 66.96 58.86 67.04 61.87 72.23"/><polyline class="cls-33" points="63.14 74.43 66.15 79.62 63.16 84.82"/></g><path class="cls-34" d="M89.29,35.37c1.73,2.7,3.6,2.7,6.13,1.93l2.82-1.53A8.52,8.52,0,0,0,98,28.86L95.68,30c.78,1.7,1.3,3.36.3,4.47-1.77,1.77-3.85,1.76-5.35-.4Z"/><path class="cls-35" d="M111.2,45.89C104.92,44.81,101,41,98.46,35.59A2.26,2.26,0,0,0,95.59,37c3.4,7.7,8.34,11.46,14.76,11.37Z"/><path class="cls-34" d="M129.5,79.09c1.34-2.91.33-4.49-1.68-6.21L125,71.34a8.47,8.47,0,0,0-5.7,3.91l2.22,1.36c1-1.58,2.13-2.9,3.61-2.67,2.44.54,3.56,2.3,2.54,4.72Z"/><path class="cls-36" d="M111.08,32.34c4.26,10.09,11.29,14.26,22.23,10.1,3.88-10.62.09-14.78-5.8-17.17C121.44,23.58,116,26.26,111.08,32.34Z"/><path class="cls-37" d="M108.27,45.35C102.64,57,104.69,75.5,110.6,74.41c5.27-1,15.43-11.13,17.09-21.09C129,45.61,111.09,39.52,108.27,45.35Z"/><path class="cls-38" d="M113.24,31.78c1.38,6,5.32,8.55,10.84,8.51,3.38-5.52,1.11-9.45-2.49-11.24C118.1,28.15,116.23,28.87,113.24,31.78Z"/><ellipse class="cls-39" cx="116.11" cy="32.3" rx="1.6" ry="0.89" transform="translate(44.56 129.28) rotate(-69.13)"/><ellipse class="cls-39" cx="119.12" cy="35.65" rx="1.6" ry="0.89" transform="translate(43.37 134.26) rotate(-69.13)"/><path class="cls-40" d="M125.89,53.31c3.09,6.06,4.15,13,1.81,18.77-1.2,2-2.43.72-3.1-1.07,2-5.85.4-10.41-1.59-16.77C123.36,53.72,125,52.65,125.89,53.31Z"/><path class="cls-34" d="M123.12,57.26a24.32,24.32,0,0,1-8.4,11.84"/><path class="cls-41" d="M111.73,45.42c2.41,4.9,11.86,8.52,13.91,5.92"/></g></g></g></g></g></svg>