<svg xmlns="http://www.w3.org/2000/svg" xmlns:xlink="http://www.w3.org/1999/xlink" viewBox="0 0 146.08 166.19"><defs><style>.cls-1{fill:#8eb9ac;}.cls-2{fill:#95c5b8;}.cls-3{fill:#dcedec;}.cls-4{opacity:0.08;}.cls-5{fill:#2ba197;}.cls-6{fill:#2ba186;}.cls-7{fill:#0086b9;}.cls-8{fill:#35c4b7;}.cls-9{fill:#28947b;}.cls-10{fill:#36ccaa;}.cls-11{fill:#268c84;}.cls-12{fill:#4ca58e;}.cls-13{fill:#69d6c5;}.cls-14{fill:#84e1cd;}.cls-15{fill:#3d9784;}.cls-16{fill:#fff;}</style><symbol id="lego1" data-name="lego1" viewBox="0 0 28.82 24.24"><polygon class="cls-1" points="28.82 18.43 19.03 24.24 19.03 12.11 28.82 6.32 28.82 18.43"/><polygon class="cls-2" points="19.03 24.24 0 18.17 0 6.04 19.03 12.11 19.03 24.24"/><polygon class="cls-3" points="19.03 12.11 0 6.04 9.79 0.25 28.82 6.32 19.03 12.11"/><rect class="cls-2" x="4.28" y="4.37" width="5.56" height="1.67"/><path class="cls-2" d="M9.84,6c0,.69-1.25,1.25-2.78,1.25S4.28,6.73,4.28,6,5.52,4.8,7.06,4.8,9.84,5.35,9.84,6Z"/><path class="cls-3" d="M9.84,4.37c0,.69-1.25,1.25-2.78,1.25S4.28,5.06,4.28,4.37,5.52,3.13,7.06,3.13,9.84,3.68,9.84,4.37Z"/><rect class="cls-2" x="9.28" y="1.25" width="5.56" height="1.67"/><path class="cls-2" d="M14.84,2.92c0,.69-1.25,1.25-2.78,1.25S9.28,3.61,9.28,2.92s1.24-1.25,2.78-1.25S14.84,2.23,14.84,2.92Z"/><path class="cls-3" d="M14.84,1.25c0,.69-1.25,1.24-2.78,1.24S9.28,1.94,9.28,1.25,10.52,0,12.06,0,14.84.56,14.84,1.25Z"/><rect class="cls-2" x="14.44" y="7.69" width="5.56" height="1.67"/><path class="cls-2" d="M20,9.36c0,.69-1.24,1.25-2.78,1.25s-2.77-.56-2.77-1.25,1.24-1.24,2.77-1.24S20,8.68,20,9.36Z"/><path class="cls-3" d="M20,7.69c0,.69-1.24,1.25-2.78,1.25s-2.77-.56-2.77-1.25,1.24-1.24,2.77-1.24S20,7,20,7.69Z"/><rect class="cls-2" x="19.25" y="4.78" width="5.56" height="1.67"/><path class="cls-2" d="M24.81,6.46c0,.68-1.25,1.24-2.78,1.24s-2.78-.56-2.78-1.24S20.49,5.21,22,5.21,24.81,5.77,24.81,6.46Z"/><path class="cls-3" d="M24.81,4.78C24.81,5.47,23.56,6,22,6s-2.78-.56-2.78-1.25S20.49,3.54,22,3.54,24.81,4.1,24.81,4.78Z"/></symbol></defs><g id="Layer_2" data-name="Layer 2"><g id="MainLayer"><g id="greenzone"><g id="legologo"><path class="cls-4" d="M39.73,137.37,2.84,110A7,7,0,0,1,5.22,97.6L89.64,75.28a7,7,0,0,1,6.19,1.32L133.57,107a7,7,0,0,1-2.86,12.29L45.45,138.58A7,7,0,0,1,39.73,137.37Z"/><polygon class="cls-5" points="112.44 127.44 145.98 119.63 146 98.08 112.45 105.9 112.44 127.44"/><polygon class="cls-5" points="78.89 135.26 112.44 127.45 112.45 105.91 78.92 113.72 78.89 135.26"/><polygon class="cls-6" points="112.41 106.01 145.95 98.2 145.97 76.65 112.43 84.47 112.41 106.01"/><polygon class="cls-5" points="78.92 113.92 112.45 106.11 112.48 84.57 78.94 92.38 78.92 113.92"/><polygon class="cls-5" points="112.45 84.88 145.99 77.07 146.01 55.52 112.47 63.34 112.45 84.88"/><polygon class="cls-6" points="78.91 92.7 112.45 84.89 112.47 63.35 78.93 71.16 78.91 92.7"/><polygon class="cls-6" points="112.42 63.45 145.96 55.64 145.98 34.09 112.44 41.9 112.42 63.45"/><polygon class="cls-7" points="61.69 59.53 78.93 71.36 78.95 49.82 61.71 38.01 61.69 59.53"/><polygon class="cls-5" points="78.93 71.36 112.47 63.55 112.49 42.01 78.95 49.82 78.93 71.36"/><polygon class="cls-5" points="112.52 42 146.06 34.19 146.08 12.65 112.54 20.46 112.52 42"/><polygon class="cls-8" points="112.54 20.46 146.08 12.65 128.84 0.83 95.3 8.65 112.54 20.46"/><polygon class="cls-5" points="138.54 9.02 138.53 11.99 128.74 11.12 128.75 8.15 138.54 9.02"/><path class="cls-5" d="M128.74,11.12c0,1.22,2.19,2.41,4.9,2.65s4.89-.56,4.89-1.78-2.19-2.41-4.89-2.65S128.74,9.9,128.74,11.12Z"/><path class="cls-8" d="M128.75,8.15c0,1.23,2.19,2.41,4.89,2.65s4.9-.56,4.9-1.78-2.19-2.41-4.9-2.65S128.75,6.93,128.75,8.15Z"/><polygon class="cls-5" points="129.73 2.69 129.73 5.66 119.94 4.79 119.94 1.82 129.73 2.69"/><path class="cls-5" d="M119.94,4.79c0,1.22,2.19,2.41,4.89,2.65s4.9-.56,4.9-1.78S127.54,3.25,124.84,3,119.94,3.57,119.94,4.79Z"/><path class="cls-8" d="M119.94,1.82c0,1.23,2.19,2.41,4.9,2.65s4.89-.56,4.89-1.78S127.54.28,124.84,0,119.94.6,119.94,1.82Z"/><polygon class="cls-5" points="120.64 13.34 120.63 16.3 110.84 15.44 110.84 12.47 120.64 13.34"/><path class="cls-5" d="M110.84,15.44c0,1.22,2.19,2.41,4.89,2.64s4.9-.55,4.9-1.78-2.19-2.41-4.89-2.65S110.84,14.21,110.84,15.44Z"/><path class="cls-8" d="M110.84,12.47c0,1.22,2.19,2.41,4.9,2.65s4.89-.56,4.9-1.78-2.19-2.41-4.9-2.65S110.85,11.25,110.84,12.47Z"/><polygon class="cls-5" points="112.16 7.42 112.15 10.38 102.36 9.52 102.36 6.55 112.16 7.42"/><path class="cls-5" d="M102.36,9.52c0,1.22,2.19,2.41,4.89,2.65s4.9-.56,4.9-1.78S110,8,107.26,7.74,102.36,8.3,102.36,9.52Z"/><path class="cls-8" d="M102.36,6.55c0,1.23,2.19,2.41,4.9,2.65s4.89-.56,4.9-1.78S110,5,107.26,4.77,102.36,5.33,102.36,6.55Z"/><polygon class="cls-9" points="61.74 37.99 78.98 49.83 79 28.28 61.76 16.47 61.74 37.99"/><polygon class="cls-6" points="78.98 49.83 112.52 42.02 112.54 20.47 79 28.28 78.98 49.83"/><polygon class="cls-10" points="79 28.28 112.54 20.47 95.3 8.66 61.76 16.47 79 28.28"/><polygon class="cls-6" points="105 16.84 104.99 19.81 95.2 18.95 95.2 15.98 105 16.84"/><path class="cls-6" d="M95.2,19c0,1.22,2.19,2.4,4.9,2.64S105,21,105,19.81s-2.19-2.41-4.89-2.65S95.2,17.72,95.2,19Z"/><path class="cls-10" d="M95.2,16c0,1.22,2.19,2.41,4.9,2.65s4.9-.56,4.9-1.79-2.19-2.4-4.9-2.64S95.21,14.75,95.2,16Z"/><polygon class="cls-6" points="96.19 10.52 96.19 13.48 86.4 12.62 86.4 9.65 96.19 10.52"/><path class="cls-6" d="M86.4,12.62c0,1.22,2.19,2.4,4.89,2.64s4.9-.55,4.9-1.78S94,11.07,91.3,10.83,86.4,11.39,86.4,12.62Z"/><path class="cls-10" d="M86.4,9.65c0,1.22,2.19,2.41,4.9,2.65s4.89-.56,4.89-1.79S94,8.11,91.3,7.87,86.4,8.43,86.4,9.65Z"/><polygon class="cls-6" points="87.09 21.16 87.09 24.13 77.3 23.26 77.3 20.29 87.09 21.16"/><path class="cls-6" d="M77.3,23.26c0,1.22,2.19,2.41,4.89,2.65s4.9-.56,4.9-1.78-2.19-2.41-4.89-2.65S77.3,22,77.3,23.26Z"/><path class="cls-10" d="M77.3,20.29c0,1.23,2.19,2.41,4.9,2.65s4.89-.56,4.9-1.78-2.19-2.41-4.9-2.65S77.3,19.07,77.3,20.29Z"/><polygon class="cls-6" points="78.61 15.24 78.61 18.21 68.82 17.34 68.82 14.38 78.61 15.24"/><path class="cls-6" d="M68.82,17.34c0,1.23,2.19,2.41,4.89,2.65s4.9-.56,4.9-1.78-2.19-2.41-4.89-2.65S68.82,16.12,68.82,17.34Z"/><path class="cls-10" d="M68.82,14.38c0,1.22,2.19,2.41,4.9,2.64s4.89-.55,4.89-1.78-2.19-2.41-4.89-2.65S68.82,13.15,68.82,14.38Z"/><polygon class="cls-9" points="28.11 131.24 45.35 143.07 45.38 121.53 28.14 109.72 28.11 131.24"/><polygon class="cls-6" points="45.35 143.07 78.89 135.27 78.92 113.72 45.38 121.53 45.35 143.07"/><polygon class="cls-11" points="28.13 109.9 45.38 121.73 45.4 100.19 28.16 88.38 28.13 109.9"/><polygon class="cls-5" points="45.38 121.73 78.92 113.92 78.94 92.38 45.4 100.19 45.38 121.73"/><polygon class="cls-9" points="28.13 88.68 45.37 100.51 45.39 78.97 28.15 67.16 28.13 88.68"/><polygon class="cls-6" points="45.37 100.51 78.91 92.71 78.93 71.16 45.39 78.97 45.37 100.51"/><polygon class="cls-9" points="28.15 67.34 45.39 79.17 45.41 57.63 28.17 45.82 28.15 67.34"/><polygon class="cls-6" points="45.39 79.17 78.93 71.36 78.95 49.82 45.41 57.63 45.39 79.17"/><polygon class="cls-10" points="45.41 57.63 78.95 49.82 61.71 38.01 28.17 45.82 45.41 57.63"/><polygon class="cls-6" points="71.41 46.19 71.41 49.16 61.62 48.29 61.62 45.32 71.41 46.19"/><path class="cls-6" d="M61.62,48.29c0,1.22,2.19,2.41,4.89,2.65s4.9-.56,4.9-1.78-2.19-2.41-4.9-2.65S61.62,47.07,61.62,48.29Z"/><path class="cls-10" d="M61.62,45.32c0,1.23,2.19,2.41,4.89,2.65s4.9-.56,4.9-1.78-2.19-2.41-4.89-2.65S61.62,44.1,61.62,45.32Z"/><polygon class="cls-6" points="62.61 39.86 62.61 42.83 52.81 41.96 52.82 38.99 62.61 39.86"/><path class="cls-6" d="M52.81,42c0,1.23,2.19,2.41,4.9,2.65s4.89-.56,4.9-1.78-2.19-2.41-4.9-2.65S52.82,40.74,52.81,42Z"/><path class="cls-10" d="M52.82,39c0,1.23,2.19,2.41,4.89,2.65s4.9-.56,4.9-1.78-2.19-2.41-4.9-2.65S52.82,37.77,52.82,39Z"/><polygon class="cls-6" points="53.51 50.51 53.51 53.47 43.72 52.61 43.72 49.64 53.51 50.51"/><path class="cls-6" d="M43.72,52.61c0,1.22,2.19,2.41,4.89,2.64s4.9-.55,4.9-1.78-2.19-2.41-4.9-2.65S43.72,51.38,43.72,52.61Z"/><path class="cls-10" d="M43.72,49.64c0,1.22,2.19,2.41,4.89,2.65s4.9-.56,4.9-1.78-2.19-2.41-4.89-2.65S43.72,48.42,43.72,49.64Z"/><polygon class="cls-6" points="45.03 44.59 45.03 47.55 35.23 46.69 35.24 43.72 45.03 44.59"/><path class="cls-6" d="M35.23,46.69c0,1.22,2.19,2.41,4.9,2.65s4.9-.56,4.9-1.78-2.19-2.41-4.9-2.65S35.24,45.47,35.23,46.69Z"/><path class="cls-10" d="M35.24,43.72c0,1.23,2.19,2.41,4.89,2.65s4.9-.56,4.9-1.78-2.19-2.41-4.89-2.65S35.24,42.5,35.24,43.72Z"/><path class="cls-4" d="M127.55,134.65l-13-8.62-.44.06a8.26,8.26,0,0,0-2.54-.79c-2-.3-3.62.11-3.59.91l0,.71-7.54,1a9.3,9.3,0,0,0-1.82-.47c-2-.29-3.62.11-3.59.91l-1.08-2.87-6.33.81-.66,11.3,18.41,14.74,24.33-4.83Z"/><polygon class="cls-12" points="92.13 140.43 105.17 152.37 104.71 132.88 91.67 120.95 92.13 140.43"/><polygon class="cls-13" points="105.17 152.37 129.86 147.71 129.41 128.21 104.71 132.88 105.17 152.37"/><polygon class="cls-14" points="104.71 132.88 129.41 128.21 116.36 116.29 91.67 120.95 104.71 132.88"/><polygon class="cls-15" points="123.74 124.39 123.8 127.07 116.52 125.59 116.46 122.9 123.74 124.39"/><path class="cls-15" d="M116.52,125.59c0,1.1,1.68,2.33,3.69,2.74s3.61-.15,3.59-1.26-1.68-2.33-3.69-2.74S116.49,124.48,116.52,125.59Z"/><path class="cls-14" d="M116.46,122.9c0,1.11,1.67,2.34,3.68,2.75s3.62-.15,3.6-1.26-1.68-2.34-3.69-2.75S116.43,121.8,116.46,122.9Z"/><polygon class="cls-15" points="117.07 118.03 117.13 120.72 109.86 119.23 109.79 116.55 117.07 118.03"/><path class="cls-15" d="M109.86,119.23c0,1.11,1.67,2.34,3.68,2.75s3.62-.16,3.59-1.27-1.67-2.33-3.68-2.74S109.83,118.12,109.86,119.23Z"/><path class="cls-14" d="M109.79,116.54c0,1.11,1.68,2.34,3.69,2.75s3.62-.15,3.59-1.26-1.68-2.34-3.68-2.75S109.77,115.44,109.79,116.54Z"/><polygon class="cls-15" points="110.56 127.01 110.62 129.69 103.34 128.21 103.28 125.53 110.56 127.01"/><path class="cls-15" d="M103.34,128.21c0,1.11,1.68,2.34,3.69,2.75s3.62-.16,3.59-1.26-1.67-2.34-3.68-2.75S103.32,127.1,103.34,128.21Z"/><path class="cls-14" d="M103.28,125.52c0,1.11,1.68,2.34,3.69,2.75s3.61-.15,3.59-1.26-1.68-2.34-3.69-2.75S103.26,124.42,103.28,125.52Z"/><polygon class="cls-15" points="104.14 121.05 104.2 123.73 96.93 122.25 96.86 119.56 104.14 121.05"/><path class="cls-15" d="M96.93,122.25c0,1.1,1.67,2.33,3.68,2.74s3.62-.15,3.6-1.26-1.68-2.33-3.69-2.74S96.9,121.14,96.93,122.25Z"/><path class="cls-14" d="M96.86,119.56c0,1.11,1.68,2.34,3.69,2.75s3.62-.15,3.59-1.26-1.67-2.34-3.68-2.75S96.84,118.46,96.86,119.56Z"/><polygon class="cls-4" points="45.91 156.64 32.97 146.58 59.78 136.52 45.91 156.64"/><use width="28.82" height="24.24" transform="translate(45.82 128.22) scale(1.57)" xlink:href="#lego1"/><path class="cls-16" d="M51.82,77.34,57.09,76a9.8,9.8,0,0,1,2.71-.38,3.39,3.39,0,0,1,2.12.86,4.67,4.67,0,0,1,1.32,2.13,10.69,10.69,0,0,1,.41,3.48,12.1,12.1,0,0,1-.5,3.35,9.38,9.38,0,0,1-1.58,3.07,7.18,7.18,0,0,1-2,1.72,10.13,10.13,0,0,1-2.56,1l-5.42,1.35Zm2.84,1.86-.18,10.08,2.15-.53a8.42,8.42,0,0,0,1.74-.58,3.87,3.87,0,0,0,1.18-.92,4.67,4.67,0,0,0,.78-1.66,11.4,11.4,0,0,0,.34-2.86,9,9,0,0,0-.24-2.64,2.49,2.49,0,0,0-.8-1.27,1.94,1.94,0,0,0-1.32-.38,12.66,12.66,0,0,0-2.36.44Z"/><path class="cls-16" d="M68,88.48,64.85,74.1l3-.74,2,9.93,2.8-11.11L76,71.33l2.32,10,2.37-11.18,2.91-.72L79.84,85.52l-3.06.76L74.14,75.61l-3,12.09Z"/><path class="cls-16" d="M84.78,84.29l.27-15.22,4.62-1.15a16.14,16.14,0,0,1,3.42-.63,2.72,2.72,0,0,1,2,1A4,4,0,0,1,95.9,71a6,6,0,0,1-1.76,4.28,5.79,5.79,0,0,1-1.51,1.09,18.11,18.11,0,0,1-3,1l-1.88.46-.1,5.75Zm3.1-13.36-.08,4.32,1.58-.4a8.32,8.32,0,0,0,2.28-.8,2.84,2.84,0,0,0,.92-1,2.6,2.6,0,0,0,.34-1.27,1.59,1.59,0,0,0-.43-1.25,1.43,1.43,0,0,0-1.14-.39,13.74,13.74,0,0,0-2.08.41Z"/><path class="cls-16" d="M52,100.67l7.52-1.88a14.22,14.22,0,0,1,3.88-.55,4.86,4.86,0,0,1,3,1.24,6.81,6.81,0,0,1,1.89,3,15.57,15.57,0,0,1,.58,5,17.3,17.3,0,0,1-.71,4.79A13.52,13.52,0,0,1,66,116.66,10.48,10.48,0,0,1,63,119.12a14.21,14.21,0,0,1-3.65,1.37l-7.75,1.93Zm4,2.65-.25,14.41,3.07-.77a11.58,11.58,0,0,0,2.49-.83,5.36,5.36,0,0,0,1.68-1.31,6.39,6.39,0,0,0,1.11-2.37,16.36,16.36,0,0,0,.49-4.09,12.41,12.41,0,0,0-.35-3.77,3.49,3.49,0,0,0-1.13-1.81,2.86,2.86,0,0,0-1.88-.55,17.5,17.5,0,0,0-3.38.63Z"/><path class="cls-16" d="M72.22,117.29l.28-15.75,3.91-1-.28,15.76Zm.32-17.89.06-3.86,3.91-1-.07,3.86Z"/><path class="cls-16" d="M79.78,116.44l4.45-.53c.07.53.23.87.5,1a2.44,2.44,0,0,0,1.74,0,5.53,5.53,0,0,0,2.31-1.06,2.86,2.86,0,0,0,.79-1.25,7.26,7.26,0,0,0,.22-2l0-2.29A7.38,7.38,0,0,1,85.36,114a4.13,4.13,0,0,1-4.67-1.51,8,8,0,0,1-1.27-4.94,11.22,11.22,0,0,1,1.9-6.5,7.77,7.77,0,0,1,4.48-3.2,4.07,4.07,0,0,1,4.47,1.44l0-2.21L94,96.19l-.25,14.14a15.91,15.91,0,0,1-.51,4.27A7.34,7.34,0,0,1,92,117.07a7.61,7.61,0,0,1-2.11,1.75,12.56,12.56,0,0,1-3.29,1.26c-2.51.63-4.27.61-5.3,0A3.3,3.3,0,0,1,79.76,117C79.76,116.81,79.77,116.64,79.78,116.44Zm3.65-10.11a4.91,4.91,0,0,0,.85,3.44,2.14,2.14,0,0,0,2.23.61,4.27,4.27,0,0,0,2.44-1.8,6.71,6.71,0,0,0,1-3.78,4.76,4.76,0,0,0-.88-3.4,2.33,2.33,0,0,0-2.38-.59,3.91,3.91,0,0,0-2.33,1.74A7,7,0,0,0,83.43,106.33Z"/><path class="cls-16" d="M97.59,111l.28-15.75,3.9-1L101.49,110Zm.31-17.89L98,89.23l3.91-1-.07,3.86Z"/><path class="cls-16" d="M112.58,91.56l-.06,3.32-2.67.66-.11,6.35a19.25,19.25,0,0,0,0,2.23.64.64,0,0,0,.34.44.86.86,0,0,0,.66,0,5.78,5.78,0,0,0,1.58-.79l.27,3.15a9.26,9.26,0,0,1-3.09,1.4,4.46,4.46,0,0,1-1.9.09,2,2,0,0,1-1.23-.67,3.09,3.09,0,0,1-.52-1.48,19.71,19.71,0,0,1-.07-2.91l.12-6.87-1.8.45.06-3.33,1.8-.44.05-3.13,4-3.41-.1,5.56Z"/><path class="cls-16" d="M118.16,95l-3.54.2a8.28,8.28,0,0,1,2.12-3.89,9.26,9.26,0,0,1,4.36-2.18,8.44,8.44,0,0,1,3.88-.31A2.71,2.71,0,0,1,126.75,90a8,8,0,0,1,.46,3.6l-.13,4.88a16.94,16.94,0,0,0,.13,3,7.47,7.47,0,0,0,.67,1.94l-3.87,1c-.1-.25-.21-.63-.35-1.13-.06-.23-.11-.39-.13-.46a10.36,10.36,0,0,1-2.17,2.09,7.36,7.36,0,0,1-2.45,1.13,4,4,0,0,1-3.57-.43,3.45,3.45,0,0,1-1.25-3,5.62,5.62,0,0,1,.64-2.53,6,6,0,0,1,1.7-2,16.65,16.65,0,0,1,3.13-1.74,26.64,26.64,0,0,0,3.81-2V93.9c0-.8-.16-1.32-.53-1.57a2.81,2.81,0,0,0-2.09,0,3.41,3.41,0,0,0-1.63.84A4.21,4.21,0,0,0,118.16,95ZM123.32,97a26.24,26.24,0,0,1-2.38,1.23,9.55,9.55,0,0,0-2.15,1.26,2.38,2.38,0,0,0-.79,1.66,1.62,1.62,0,0,0,.59,1.36,1.68,1.68,0,0,0,1.54.25,4.46,4.46,0,0,0,2-1.24,3.81,3.81,0,0,0,1-1.62,9.4,9.4,0,0,0,.19-2.07Z"/><path class="cls-16" d="M130.91,102.68l.39-21.75,3.9-1-.38,21.74Z"/></g></g></g></g></svg>