<svg xmlns="http://www.w3.org/2000/svg" xmlns:xlink="http://www.w3.org/1999/xlink" viewBox="0 0 160.67 162.58"><defs><style>.cls-1,.cls-19,.cls-29,.cls-32,.cls-8{fill:none;}.cls-2{opacity:0.86;}.cls-3{clip-path:url(#clip-path);}.cls-4{fill:url(#linear-gradient);}.cls-5{fill:#fbfbfb;}.cls-6{fill:#7f91d4;}.cls-7{fill:#6473a8;}.cls-8{stroke:#0071bc;}.cls-19,.cls-29,.cls-32,.cls-8{stroke-miterlimit:10;}.cls-9{fill:#412a74;}.cls-10{fill:#e6e6e6;}.cls-11{fill:#a3d68d;}.cls-12{fill:#f4cba8;}.cls-13{fill:#96b489;}.cls-14{fill:#bf4747;}.cls-15{fill:#ff5f5f;}.cls-16{fill:#fff;}.cls-17{fill:#fcffba;}.cls-18{fill:#e3b696;}.cls-19{stroke:#2e3192;stroke-linecap:round;}.cls-20{fill:#ee786b;}.cls-21{fill:#d66c60;}.cls-22{fill:#c9665a;}.cls-23{fill:#bf6156;}.cls-24{fill:#f8c7a3;}.cls-25{fill:#d1ab75;}.cls-26{fill:#fbab42;}.cls-27{fill:#d84da0;}.cls-28{fill:#c1272d;}.cls-29{stroke:#412a74;}.cls-29,.cls-32{stroke-width:2px;}.cls-30{fill:#d9afbb;}.cls-31{fill:#fbcbd8;}.cls-32{stroke:#1b1464;opacity:0.22;}</style><clipPath id="clip-path" transform="translate(15.6 7.86)"><circle class="cls-1" cx="64.73" cy="64.27" r="63.27"/></clipPath><linearGradient id="linear-gradient" x1="81.37" y1="145.31" x2="79.25" y2="-2.83" gradientUnits="userSpaceOnUse"><stop offset="0" stop-color="#eadc97"/><stop offset="0.11" stop-color="#eee2a9"/><stop offset="0.37" stop-color="#f5efce"/><stop offset="0.62" stop-color="#fbf8e9"/><stop offset="0.83" stop-color="#fefdf9"/><stop offset="1" stop-color="#fff"/></linearGradient></defs><g id="Layer_2" data-name="Layer 2"><g id="MainLayer"><g id="stories" class="cls-2"><g id="maternitygroup"><g id="maternity6"><g class="cls-3"><g id="maternity1"><rect class="cls-4" width="160.67" height="145.87"/><path class="cls-5" d="M83.12,44.59l.23,36.53c7.22,3.71,15.92,3.35,25.66.12l-.15-36.65C99.32,40.29,90.81,40.63,83.12,44.59Z" transform="translate(15.6 7.86)"/><path class="cls-6" d="M94.13,81.94l3,40,1.5,31.62c4.49,1.28,8.69,1.5,12.33-.34l-1.1-32.2-1-40.21Z" transform="translate(15.6 7.86)"/><path class="cls-6" d="M84,80.9l-3.38,41.86,2,30.47c4.2,1.7,5.85,2.08,11.78.41l-2.28-30.71,5-39.66Z" transform="translate(15.6 7.86)"/><path class="cls-7" d="M83.24,77.53l.09,5.88c8,2.76,16.83,2.2,26.09-.52l-.08-6.14A49.26,49.26,0,0,1,83.24,77.53Z" transform="translate(15.6 7.86)"/><path class="cls-6" d="M99.83,41.76C99.21,47.1,98.66,52.87,98.28,59,98,64,97.74,67.6,97.79,72.37a129,129,0,0,0,1.35,17.35,13,13,0,0,0,11.67-3.12l-2.42-42.68Z" transform="translate(15.6 7.86)"/><path class="cls-6" d="M89.77,42c.27,4.7.46,9.59.52,14.68q.1,8.52-.22,16.32Q90,80.92,89.9,88.85l-6.83-1.73-.19-43A17.78,17.78,0,0,1,89.77,42Z" transform="translate(15.6 7.86)"/><path class="cls-8" d="M97.83,77.89l1.08,11.94a18.62,18.62,0,0,0,10.14-2.07" transform="translate(15.6 7.86)"/><path class="cls-8" d="M83.07,87.12l6.68,2.08c.56-18.71,1.11-37.43.06-47" transform="translate(15.6 7.86)"/><path class="cls-8" d="M98,68.29c.25-8.7.68-17.59,1.63-25.51" transform="translate(15.6 7.86)"/><line class="cls-8" x1="98.72" y1="79.78" x2="99.36" y2="60.25"/><polyline class="cls-8" points="115.6 67.25 115.75 66.68 119.02 66.71 119.03 67.08"/><path class="cls-6" d="M87.26,45.64c2.32,2.68,1,5.77-1.06,19.78a13,13,0,0,1-2,5.29,4.65,4.65,0,0,1-8.58-1.39,116.42,116.42,0,0,1,5.8-23.57,3.67,3.67,0,0,1,2.39-2C85.45,43.55,86.84,45.16,87.26,45.64Z" transform="translate(15.6 7.86)"/><path class="cls-9" d="M81.76,20.5c-1.58.35-2.26,3.09-2.41,3.7-.87,3.56,1.6,4.95,1.17,9.55-.18,2-.7,2.31-.69,4.53,0,2.71.77,3,.43,4.67-.55,2.68-2.86,3.23-2.59,5.14a3.53,3.53,0,0,0,1.73,2.29c1.89,1.22,4.7.83,5.53-.48.49-.77.06-1.53.82-2.42.47-.55.79-.44,1.42-.9,1.13-.83-.37-4.1,2.08-4.19,1.47-.06,1.58-1.43,1.34-2.68C89.57,34.54,85.8,19.61,81.76,20.5Z" transform="translate(15.6 7.86)"/><circle class="cls-10" cx="110.11" cy="55.78" r="0.5"/><circle class="cls-10" cx="110.25" cy="62.72" r="0.5"/><circle class="cls-10" cx="110.32" cy="71.16" r="0.5"/><polygon class="cls-10" points="108.26 53.44 108.86 85.91 108.99 53.61 109.34 53.23 108.26 53.44"/><circle class="cls-10" cx="110.05" cy="82.58" r="0.5"/><line class="cls-8" x1="98.74" y1="94.89" x2="98.39" y2="63.03"/><path class="cls-11" d="M104.84,68.6c.61-4.15-3.67-7.54-4.84-8.46-2.62-2.08-3.58-1.33-7.51-3.88-3.65-2.38-3.44-3.44-5.76-4.26-3-1.06-7.64-.77-9.65,2s-.41,6.83.48,9c2.92,7.24,9.94,10,11.33,10.59,2.63,1,6.32,2.53,10.25,1C99.66,74.44,104.26,72.55,104.84,68.6Z" transform="translate(15.6 7.86)"/><path class="cls-12" d="M80.62,49.38a4.8,4.8,0,0,1,3.25,0,5.22,5.22,0,0,1,3,4.23,5.36,5.36,0,0,1-2.07,4.8,5.09,5.09,0,0,1-6.14-.52,5.28,5.28,0,0,1-1-6.4A5.17,5.17,0,0,1,80.62,49.38Z" transform="translate(15.6 7.86)"/><path class="cls-13" d="M79,47.59a.75.75,0,0,0-.66-.16.67.67,0,0,0-.45.66.79.79,0,0,0-.83.5.64.64,0,0,0,.26.7.61.61,0,0,0-.12.82.55.55,0,0,0,.6.19.59.59,0,0,0,.53.59.66.66,0,0,0,.54-.21.79.79,0,0,0,1.06.1.81.81,0,0,0,.15-.61.5.5,0,0,0,.45-.38.55.55,0,0,0-.17-.53.69.69,0,0,0,.22-.69.79.79,0,0,0-.37-.45.64.64,0,0,0-.16-.57C79.87,47.31,79.36,47.29,79,47.59Z" transform="translate(15.6 7.86)"/><path class="cls-12" d="M77.4,55.06a1.32,1.32,0,0,0-.93,1.54,1.09,1.09,0,0,0,1.84.28" transform="translate(15.6 7.86)"/><path class="cls-11" d="M85.69,50.56c-3.44-.06-6.37,2.09-8.75,4.77a2.74,2.74,0,0,1-.28-.89,5.85,5.85,0,0,1-.17-1.13,4.08,4.08,0,0,1,.25-1.4,5.72,5.72,0,0,1,3.12-3.12c.47-.21,2.68-1.11,4.37,0A6.48,6.48,0,0,1,85.69,50.56Z" transform="translate(15.6 7.86)"/><path class="cls-13" d="M85.74,50.58c-3.44,0-6.37,2.09-8.75,4.77a.71.71,0,0,1-.19-.42C77.63,53,84.34,48.42,85.74,50.58Z" transform="translate(15.6 7.86)"/><path class="cls-14" d="M84.77,55.32a.64.64,0,0,0-.61.22,2.26,2.26,0,0,1-1.29.56c-.45,0-.47.24-.63.35s-.18.8.2,1a2.48,2.48,0,0,0,2.87-1C85.5,55.92,85,55.28,84.77,55.32Z" transform="translate(15.6 7.86)"/><path class="cls-15" d="M84.91,55.35c-.16,0-.29-.09-.62.22a2.14,2.14,0,0,1-1.28.56c-.45,0-.47.24-.63.35s-.18.8.2,1.06a2.5,2.5,0,0,0,2.87-1C85.64,56,85.18,55.31,84.91,55.35Z" transform="translate(15.6 7.86)"/><path class="cls-16" d="M84,56.44a.94.94,0,0,1,1.22.54A.94.94,0,1,1,84,56.44Zm-.26,1.14a.66.66,0,0,0,.85.37.65.65,0,0,0-.47-1.22A.66.66,0,0,0,83.69,57.58Z" transform="translate(15.6 7.86)"/><circle class="cls-17" cx="99.59" cy="64.54" r="0.64"/><path class="cls-18" d="M76.71,55.9c.29-.16,1.05.76,1,.77h0s-.26,0-.3.07,0,.06,0,.06a.16.16,0,0,1,0-.1c0-.08.26-.05.31,0s-.69-.73-1-.67c-.09,0-.16.14-.18.12S76.63,56,76.71,55.9Z" transform="translate(15.6 7.86)"/><ellipse class="cls-9" cx="84.77" cy="52.95" rx="0.53" ry="0.73" transform="translate(2.19 42.06) rotate(-21.17)"/><path class="cls-9" d="M85,52.57c.21-.06.38-.3.54-.59a.85.85,0,0,1-.75.38Z" transform="translate(15.6 7.86)"/><path class="cls-19" d="M84.83,51.36a.79.79,0,0,0-.79,0" transform="translate(15.6 7.86)"/><ellipse class="cls-9" cx="80.91" cy="54.45" rx="0.53" ry="0.73" transform="translate(1.39 40.76) rotate(-21.17)"/><path class="cls-9" d="M80.49,54.32a1.17,1.17,0,0,1-.8-.08A.85.85,0,0,0,80.5,54Z" transform="translate(15.6 7.86)"/><path class="cls-19" d="M79.79,53.32a.77.77,0,0,1,.61-.51" transform="translate(15.6 7.86)"/><path class="cls-6" d="M108.86,45.5c2.88,1.92,2.42,5.17,4.1,18.88a12.54,12.54,0,0,1-.54,5.5,4.53,4.53,0,0,1-8.42.9,114.23,114.23,0,0,1-.62-23.67,3.57,3.57,0,0,1,1.75-2.45C106.62,44,108.35,45.15,108.86,45.5Z" transform="translate(15.6 7.86)"/><path class="cls-20" d="M91.47,65.82a8,8,0,0,0-3.41-2.17c-2.23-.67-5.34-.32-5.79,1.36-.29,1.08.62,2.37,1.21,3.21a7.6,7.6,0,0,0,4.84,3,8.35,8.35,0,0,0,2.89.16Z" transform="translate(15.6 7.86)"/><path class="cls-6" d="M111,71.89c-2.27,2.51-4.81,1.61-16.44,1.32a8.76,8.76,0,0,1-2.14-.3c-1-.27-2.23-.37-2.24-1a22.44,22.44,0,0,1,1.29-8.25,80,80,0,0,1,19.52,2.71,2.72,2.72,0,0,1,1.59,2C112.71,69.94,111.36,71.44,111,71.89Z" transform="translate(15.6 7.86)"/><path class="cls-9" d="M87.5,15.11a8.89,8.89,0,0,1,5.55-1,9.53,9.53,0,0,1,6.62,5.07,34.4,34.4,0,0,1,3.57,5.07c1.5,2.6,1.68,3.72,1.73,4.21a9.29,9.29,0,0,1-.52,4.14c-.72,1.93-1.63,2.28-1.44,3.29s1.32,1,2.61,2.49.8,2.19,2,4.38,2,2,3,3.83c.42.78,2.15,4.06.52,6.35-1.51,2.12-5.09,1.49-5.58,1.41s-3.66-.67-4.91-3.23c-.73-1.47-.12-2.27-.7-4.53a11.24,11.24,0,0,0-1.88-3.92,12.69,12.69,0,0,1-4.84-.17c-5.78-1.38-8.65-6.62-9.48-8.13-3.38-6.18-3.9-15.49.34-18.37A5.58,5.58,0,0,1,87.5,15.11Z" transform="translate(15.6 7.86)"/><path class="cls-20" d="M98.07,34.05l.18,8.75A6.55,6.55,0,0,1,97.08,44a7.48,7.48,0,0,1-4,1.57,1.85,1.85,0,0,1-1.77.62c-.43-.1-.86-1.78-1-1.92,0-2.3.16-3,.18-5.34Z" transform="translate(15.6 7.86)"/><path class="cls-20" d="M97,28.53c.1-1.89,1.67-3.76,2.7-3.56s1.84,3,1.1,5.05c0,.15-.76,2.07-1.82,2.07S96.88,30.19,97,28.53Z" transform="translate(15.6 7.86)"/><path class="cls-21" d="M90.09,43.27c3.6-2.72,6.9-5.52,7.3-8.12l-6.93,4.49A19,19,0,0,0,90.09,43.27Z" transform="translate(15.6 7.86)"/><path class="cls-20" d="M82.4,22c-5.18,3.33,1.25,19.76,9.31,17.92,4.47-.83,7.54-3.15,8-8.19-1-2.53-2-3.17-2.75-3.27-.31,0-.58,0-1.28-.07a9.47,9.47,0,0,1-2.1-.55c-2.2-.74-2.35-.24-3.45-.83-1.36-.72-1-1.42-2.34-2.14s-2-.24-3.28-.88A5.28,5.28,0,0,1,82.4,22Z" transform="translate(15.6 7.86)"/><path class="cls-22" d="M99.28,25.79c-1,.13-1.09,3.7-1.06,3.71s0,0,0,0,.56-.53.85-.38c.08,0,.13.13.14.13a.4.4,0,0,0-.17-.24c-.27-.13-.71.33-.81.46.09-.36.28-3,1-3.35.26-.12.65.05.67,0S99.56,25.75,99.28,25.79Z" transform="translate(15.6 7.86)"/><ellipse class="cls-9" cx="91.27" cy="28.32" rx="0.92" ry="1.27" transform="translate(11.31 34.93) rotate(-16.49)"/><ellipse class="cls-9" cx="85.03" cy="29.84" rx="0.92" ry="1.27" transform="matrix(0.96, -0.28, 0.28, 0.96, 10.62, 33.22)"/><path class="cls-9" d="M84.31,29.55a2,2,0,0,1-1.38-.24A1.5,1.5,0,0,0,84.37,29Z" transform="translate(15.6 7.86)"/><path class="cls-9" d="M92,28c.37-.08.7-.47,1-1a1.46,1.46,0,0,1-1.35.55Z" transform="translate(15.6 7.86)"/><polygon class="cls-23" points="105.34 40.87 102.97 41.43 102.61 36.25 102.72 36.26 103.5 40.72 105.28 40.79 105.34 40.87"/><polygon class="cls-9" points="103.43 40.82 102.67 36.09 102.81 36.06 103.71 40.74 103.43 40.82"/><path class="cls-19" d="M83.24,27.71a1.39,1.39,0,0,1,1.13-.8" transform="translate(15.6 7.86)"/><path class="cls-10" d="M90.07,42.54l.3-2.55c.85,3.27,1.48,4.3,5.14,5.1L93.1,47.58C89.79,45.15,90,44.67,90.07,42.54Z" transform="translate(15.6 7.86)"/><path class="cls-10" d="M95.34,45.07l2.59,2.34c.89-2.46,2.37-3.25,1.78-5.31l-1.64-2.33C98.35,41.33,96.3,44,95.34,45.07Z" transform="translate(15.6 7.86)"/><path class="cls-20" d="M82.92,69.73a6.82,6.82,0,0,0,2.63-2.19c1.12-1.63,1.63-4.23.39-5-.8-.51-2.07-.11-2.9.15a6.44,6.44,0,0,0-3.71,3.12,7.26,7.26,0,0,0-.87,2.29Z" transform="translate(15.6 7.86)"/><path class="cls-6" d="M76.16,67.66l3.7-3.58a8.43,8.43,0,0,1,4.67,5.7L82,72.58C78.44,72.37,75.82,71.32,76.16,67.66Z" transform="translate(15.6 7.86)"/><path class="cls-24" d="M54.46,45c2.8.11,4.43,3.05,13.41,13.6a17,17,0,0,1,2.89,4.86c1.76,3.87-1.12,7.18-4.39,5.09A152.36,152.36,0,0,1,52.2,49.15a4.48,4.48,0,0,1-.41-2.95C52.28,44.88,54,45,54.46,45Z" transform="translate(15.6 7.86)"/><path class="cls-24" d="M65.74,64.4,55.36,77.31a4.2,4.2,0,0,1-1.47,1,3.78,3.78,0,0,0-2.28-.8c-1.24,0-1.47.74-3.14,1-1.17.17-2-.06-2.18.36s.18.72.2.74c.61.74,2.12.39,2.28.35.86-.21,1.3-.66,1.66-.43a.8.8,0,0,1,.3.61,6.83,6.83,0,0,1-2.32,1.69c-2.12.91-4.48.54-4.59,1.14a.41.41,0,0,0,0,.24c.27.51,1.37.37,1.56.35-.56.18-1.74.61-1.7,1a.44.44,0,0,0,0,.08c.07.15.61.41,5-.5-1.8.36-3.77.87-3.75,1.39a.3.3,0,0,0,.1.18c.72.74,4.15-.4,4.8-.63-1.46.53-3,1.17-3,1.5,0,.06.09.09.14.11,1.84.74,4.71-.71,4.71-.71a11.15,11.15,0,0,0,2.4-1.62A11.49,11.49,0,0,0,56.82,81,25.33,25.33,0,0,0,71.25,65.48Z" transform="translate(15.6 7.86)"/><path class="cls-25" d="M40,15.83a10.94,10.94,0,0,0-5.27,4.35c-1.77,2.95-1,5.47-1.93,10.51-.59,3.16-2.76,5.21-3.52,6.91,3.86,10.08,24.54,11.29,28.4.92-.16-4.87.55-8.44.07-11.4-1.25-7.8-2.56-9.57-3.58-10.6A10.26,10.26,0,0,0,40,15.83Z" transform="translate(15.6 7.86)"/><path class="cls-24" d="M45.24,84.21l-5.64,36.7c-.06,3.34-.24,6-.38,7.78-1.09,13.51-3.37,13.53-2.54,19.43.19,1.33.62,3.53-.6,4.7s-4,.7-4.47.59a3.51,3.51,0,0,1-2.22-1.19c-.83-1.19-.2-2.95,0-3.5,1.43-4.36-.33-7.55-.28-22.56a58.09,58.09,0,0,1,.35-6.28L31.15,79.7Z" transform="translate(15.6 7.86)"/><path class="cls-24" d="M52,84.31l5.36,37.89-.19,30.52c-4.1,1.95-.75,2.3-6.77,1a25.13,25.13,0,0,0,.62-3.54c.77-7.71-2.5-11.84-3.65-21a49.65,49.65,0,0,1-.35-6.81L38.71,83.72Z" transform="translate(15.6 7.86)"/><path class="cls-26" d="M29.7,44.58a38.44,38.44,0,0,1,7.18-2.3A27.83,27.83,0,0,1,53.22,43.6c.75.29,1.64.32,2.38.68a32.26,32.26,0,0,0-.42,4.93A15.92,15.92,0,0,0,55.45,53c.6,2.82,1.62,2.93,1.81,5.24.12,1.5-.12,3.64-1.25,4.22a3.74,3.74,0,0,0-1.17.84,3.46,3.46,0,0,0-.53.78,6.9,6.9,0,0,0-.59,1.55c-.59,2.4.23,3.5,1,8.25.36,2.38.39,12.86.44,14.12a32.8,32.8,0,0,1-12,1.89c-4.29,0-8.49-2.25-13.36-3.79Z" transform="translate(15.6 7.86)"/><path class="cls-24" d="M46.29,51.58c-1,.17-1.85-.61-4.14-2.63-5-4.39-6.88-5.78-6.41-6.42.12-.15.38-.3,1.07-.28a27.91,27.91,0,0,1,16.34,1.32,24.35,24.35,0,0,0-4.26,4.94C47.76,50.26,47.39,51.4,46.29,51.58Z" transform="translate(15.6 7.86)"/><path class="cls-27" d="M54.77,63.29a16.52,16.52,0,0,1-5,1.05,37.5,37.5,0,0,1-20.32-3.7l.1,5C36.38,67.27,44.35,69,50.89,68c1.23-.19,1.75-.19,2.87-.4Z" transform="translate(15.6 7.86)"/><path class="cls-24" d="M31.9,75.5c-.25.53,2.34,1.76,2.34,2.41a3.72,3.72,0,0,1,1.7,1.78c.51,1.15-.06,1.66.44,3.3.34,1.15.9,1.82.6,2.17s-.75.14-.77.13c-1-.25-1.27-1.8-1.3-2-.17-.88.06-1.48-.3-1.71a.86.86,0,0,0-.7,0,6.82,6.82,0,0,0-.57,2.86c0,2.35,1.41,4.37.89,4.73a.38.38,0,0,1-.24,0c-.59,0-.93-1.1-1-1.29.07.6.18,1.86-.23,2h-.09c-.18,0-.64-.39-1.68-4.86.43,1.82.8,3.85.3,4a.29.29,0,0,1-.21,0c-1-.35-1.38-4-1.45-4.7.13,1.57.22,3.31-.12,3.39a.23.23,0,0,1-.17-.08C27.89,86.37,28,83.1,28,83.1a11.49,11.49,0,0,1,.48-2.9,11.7,11.7,0,0,1,2-3.85" transform="translate(15.6 7.86)"/><path class="cls-24" d="M38.54,34.12l-.17,8.76A15.9,15.9,0,0,0,44.19,47c1.06.66,1.61.34,1.9-.46V38.85Z" transform="translate(15.6 7.86)"/><path class="cls-18" d="M46.09,43.24c-3.6-2.72-6.46-5.42-6.86-8l6.86,4.51Z" transform="translate(15.6 7.86)"/><path class="cls-24" d="M54.19,21.7c4.72,4.93.76,16.81-5.64,18-3.4.62-7.27-1.81-10-5.57l1.91-13.06C45.68,18.46,51.38,18.77,54.19,21.7Z" transform="translate(15.6 7.86)"/><ellipse class="cls-9" cx="61.28" cy="36.31" rx="0.92" ry="1.27"/><ellipse class="cls-9" cx="67.7" cy="36" rx="0.92" ry="1.27"/><path class="cls-9" d="M52.71,27.65A2,2,0,0,0,54,27a1.45,1.45,0,0,1-1.46.15Z" transform="translate(15.6 7.86)"/><path class="cls-9" d="M44.94,28.36a2,2,0,0,1-1.25-.63,1.49,1.49,0,0,0,1.46.15Z" transform="translate(15.6 7.86)"/><polygon class="cls-18" points="64.08 40.36 66.5 40.23 65.38 35.16 65.28 35.2 65.8 39.7 64.11 40.27 64.08 40.36"/><polygon class="cls-9" points="65.89 39.78 65.28 35.03 65.14 35.04 65.6 39.78 65.89 39.78"/><path class="cls-19" d="M53.58,25.34a2,2,0,0,0-2,.05" transform="translate(15.6 7.86)"/><path class="cls-24" d="M40.18,29.12c-.64-1.78-2.67-3.13-3.6-2.65s-.92,3.39.37,5.16c.1.12,1.32,1.76,2.33,1.46S40.73,30.68,40.18,29.12Z" transform="translate(15.6 7.86)"/><path class="cls-18" d="M37.18,27.14c1-.15,2.1,3.24,2.08,3.27s0,0,0,0-.69-.34-.92-.12c-.07.07-.09.17-.11.17a.39.39,0,0,1,.11-.28c.22-.2.77.11.9.21-.19-.32-1.11-2.79-1.94-2.92-.28,0-.61.23-.64.17S36.9,27.19,37.18,27.14Z" transform="translate(15.6 7.86)"/><path class="cls-19" d="M46.58,25.48a2,2,0,0,0-2,.06" transform="translate(15.6 7.86)"/><path class="cls-26" d="M54.65,82.56c1.3,15.69,2.22,29.5,3.91,41.53-10.08,2.73-20.32,2.27-30.67-.61L29.7,86Z" transform="translate(15.6 7.86)"/><path class="cls-25" d="M47.56,16.29l.55,2.82-.15.31a10,10,0,0,1-3.18,4c-1,.74-2.07,1.17-3.84,2.52a17.79,17.79,0,0,0-1.85,1.61V20.77Z" transform="translate(15.6 7.86)"/><path class="cls-25" d="M48.35,19.15c.42,2.38-4.48,5.77-7.64,7.91,2.93-2.31,7.36-5.89,7.18-8.23Z" transform="translate(15.6 7.86)"/><path class="cls-25" d="M48.23,19.08c2.22-1,6.88,2.86,7.46,6.36-2.44-4.91-5.43-6.56-7.67-5.84Z" transform="translate(15.6 7.86)"/><path class="cls-28" d="M37.86,26.55a13.62,13.62,0,0,1,1.33-3.84c.43-.81,3.38-6.23,8.3-6.57a8.8,8.8,0,0,1,3.17.42,9.59,9.59,0,0,1,3.5,2.17,15.49,15.49,0,0,1,2.57,3.47.41.41,0,0,1,.05.17l.06.18A11.34,11.34,0,0,0,53.21,19a10.5,10.5,0,0,0-6-1.54c-3.76.47-7.17,4.56-8,10.11Z" transform="translate(15.6 7.86)"/><path class="cls-29" d="M32.53,87.27l4.38-41c-.22-1.8-1.42-4.2-3.17-3.89a5.72,5.72,0,0,0-4,2.9c-2.31,14.87-2.47,32.06-7,39.58" transform="translate(15.6 7.86)"/><path class="cls-24" d="M32.31,43.33c-2.8.12-4.42,3.06-13.4,13.61A17.08,17.08,0,0,0,16,61.8c-1.75,3.87,1.12,7.17,4.39,5.09A150.83,150.83,0,0,0,34.57,47.5,4.32,4.32,0,0,0,35,44.56C34.49,43.24,32.82,43.31,32.31,43.33Z" transform="translate(15.6 7.86)"/><rect class="cls-30" x="20.79" y="86.02" width="18.23" height="17.16" rx="3.92" transform="translate(54.25 201.28) rotate(-167.51)"/><rect class="cls-31" x="17.01" y="85.1" width="18.23" height="17.16" rx="3.97" transform="translate(46.97 198.65) rotate(-167.51)"/><polygon class="cls-30" points="33.37 96.65 40.37 102.59 51.7 101.03 51.37 101.57 40.15 103.68 33.1 97.4 33.37 96.65"/><circle class="cls-30" cx="40.63" cy="101.01" r="0.63"/><path class="cls-24" d="M30.24,79.35A25.73,25.73,0,0,1,15.58,63.51l5.6-1.1L31.73,75.56" transform="translate(15.6 7.86)"/></g></g><circle class="cls-32" cx="79.87" cy="72.14" r="63.27"/></g></g></g></g></g></svg>