<svg xmlns="http://www.w3.org/2000/svg" xmlns:xlink="http://www.w3.org/1999/xlink" viewBox="0 0 142.19 137.27"><defs><style>.cls-1,.cls-26,.cls-30,.cls-35,.cls-50,.cls-53{fill:none;}.cls-2,.cls-40,.cls-49{fill:#fff;}.cls-3{fill:#d14f4f;}.cls-4{fill:#ffcd31;}.cls-5{fill:#b5a9b0;opacity:0.44;}.cls-6{fill:#31ab94;}.cls-7{fill:#add9d1;}.cls-8{fill:#e6e6e6;}.cls-9{fill:#8277ab;}.cls-10{fill:url(#linear-gradient);}.cls-11{fill:#716794;}.cls-12{fill:red;}.cls-13{fill:#fcee21;}.cls-14{fill:#8cc63f;}.cls-15{fill:#efeeee;}.cls-16{opacity:0.86;}.cls-17{clip-path:url(#clip-path);}.cls-18{fill:url(#linear-gradient-2);}.cls-19{fill:#d2ba84;}.cls-20{fill:#d2a4cd;}.cls-21{fill:#c082ba;}.cls-22{fill:#bd6da6;}.cls-23{fill:#f8c7a3;}.cls-24{fill:#3c3378;}.cls-25{fill:#0095bf;}.cls-26{stroke:#2d76ad;}.cls-26,.cls-30,.cls-35,.cls-50,.cls-53{stroke-miterlimit:10;}.cls-27{fill:#e3b696;}.cls-28{fill:#0083a8;}.cls-29{fill:#412a74;}.cls-30{stroke:#2e3192;stroke-linecap:round;}.cls-31{fill:#635f78;}.cls-32{fill:#5f768f;}.cls-33{fill:#f9ffff;}.cls-34{fill:#e0eaf2;}.cls-35{stroke:#1b1464;stroke-width:2px;opacity:0.22;}.cls-36{fill:#b879b0;}.cls-37{fill:#ee786b;}.cls-38{fill:#d66c60;}.cls-39{fill:#c9665a;}.cls-40{opacity:0.18;}.cls-41{fill:#1b1464;}.cls-42{fill:#cc9fc7;}.cls-43{fill:#6b5a91;}.cls-44{fill:#74b0a4;}.cls-45{fill:#88cec1;}.cls-46{fill:#7dbdb1;}.cls-47{fill:#a66ca8;}.cls-48{fill:#b487b4;}.cls-49{font-size:8.53px;font-family:Arial-BoldMT, Arial;font-weight:700;}.cls-50{stroke:#c1272d;stroke-width:0.25px;}.cls-51{fill:#afd9d1;}.cls-52{fill:#50b9a5;}.cls-53{stroke:#fff;}</style><linearGradient id="linear-gradient" x1="43.08" y1="2.87" x2="44.28" y2="83.96" gradientUnits="userSpaceOnUse"><stop offset="0" stop-color="#fff"/><stop offset="1" stop-color="#b1dad2"/></linearGradient><clipPath id="clip-path"><circle class="cls-1" cx="85.98" cy="68.9" r="47.74"/></clipPath><linearGradient id="linear-gradient-2" x1="86.77" y1="123.82" x2="85.15" y2="11.4" gradientUnits="userSpaceOnUse"><stop offset="0.38" stop-color="#cedcc8"/><stop offset="0.42" stop-color="#d4e0ce"/><stop offset="0.65" stop-color="#ebf1e9"/><stop offset="0.85" stop-color="#fafbf9"/><stop offset="1" stop-color="#fff"/></linearGradient><symbol id="service-left-gradient_2" data-name="service-left-gradient 2" viewBox="0 0 86.16 99.82"><path class="cls-8" d="M10.5.59c-4.2-.8-8.7,1.8-8.8,6.2L0,88.59a10.61,10.61,0,0,0,11.4,10.8"/><path class="cls-9" d="M4.9,10.39,1.6,11C.5,2.79,5.2-.91,12.5.19Z"/><path class="cls-2" d="M71.5,11c-54-8.1-67.1-16.5-67.1-.6,0,25.5,0,34.8-1,78.6a10.61,10.61,0,0,0,11.4,10.8L77.7,95a8.7,8.7,0,0,0,8-9.5L80,20.19A10.1,10.1,0,0,0,71.5,11Z"/><polygon class="cls-10" points="4.5 10.49 3.6 76.09 84.7 74.89 80.3 22.79 4.5 10.49"/><path class="cls-11" d="M80.3,22.79l-76-12.3C3.5,5.19,7.2-.91,13.2.29L72.2,11C77.9,12,80.5,17.49,80.3,22.79Z"/><path class="cls-12" d="M31.11,7.7c-1.6-3.5-5.7-1.6-4,1.9S32.81,11.2,31.11,7.7Z"/><path class="cls-13" d="M23.61,6.4c-1.6-3.5-5.7-1.6-4,1.9S25.31,9.9,23.61,6.4Z"/><path class="cls-14" d="M15.51,5.3c-1.6-3.5-5.7-1.6-4,1.9S17.21,8.8,15.51,5.3Z"/><path class="cls-15" d="M11.8,99.49c4.2-.9,67.6-1.9,69.5-5.3,6.2-3,5-12.6,4.2-19.3l-1,.1c1.2,9.1,1.9,19.2-8.7,20.1-1.3.4-62.3,4-63.6,4.2a9.2,9.2,0,0,1-3.1-.7l-.1-.1C9.5,99.09,10.2,99.49,11.8,99.49Z"/><polygon class="cls-15" points="3.6 76.79 85.6 75.39 80.3 22.79 79.4 22.69 84.5 74.39 3.6 75.79 3.6 76.79"/><polygon class="cls-6" points="81.31 80.67 81.24 87 79.81 87.18 78.84 89.49 78.09 87.1 73.41 87.45 73.63 80.89 81.31 80.67"/><polygon class="cls-6" points="34.2 89.34 33.85 82.4 41.74 81.96 41.76 83.77 43.81 82.42 44.15 88.52 42.08 87.26 42.1 89.07 34.2 89.34"/><path class="cls-6" d="M16.32,83.21a4.93,4.93,0,0,1,3.2-4c4.72,4.6-3.2,17.64-9.46,14.06-.26-1.92.76-3.45,2.55-4.86A2.86,2.86,0,0,1,14,90.75c2.43-1.53,4.22-3.45,4.47-6.26A7.48,7.48,0,0,1,16.32,83.21Z"/><polygon class="cls-15" points="69.75 95.23 68.75 95.3 67.25 74.86 68.25 74.78 69.75 95.23"/><polygon class="cls-6" points="55.01 83.03 55.01 81.25 63.53 81.25 63.53 82.56 59.32 84.72 55.01 83.03"/><polygon class="cls-6" points="63.53 83.69 63.62 89.11 55.1 89.49 55.01 84.25 59.5 85.93 63.53 83.69"/><polygon class="cls-15" points="50.65 96.75 49.65 96.8 48.55 75.73 49.55 75.68 50.65 96.75"/><polygon class="cls-15" points="28.9 98.46 27.9 98.5 27.11 75.91 28.11 75.88 28.9 98.46"/></symbol><symbol id="dialog-small" data-name="dialog-small" viewBox="0 0 142.24 162.6"><path class="cls-6" d="M126.6,134.29l-86.82.33L15,161.83.54,162.6,14.41,20.24A18.57,18.57,0,0,1,32.92,1.6l90.22-.34a18.68,18.68,0,0,1,18.74,18.6l.36,98.68A15.69,15.69,0,0,1,126.6,134.29Z"/><path class="cls-7" d="M112.19,133l-86.82.32L.42,162.07V133.44L0,19A18.58,18.58,0,0,1,18.51.33L108.73,0a18.67,18.67,0,0,1,18.74,18.6l.36,98.68A15.7,15.7,0,0,1,112.19,133Z"/></symbol><symbol id="calendar-symbol_2" data-name="calendar-symbol 2" viewBox="0 0 60.71 48.24"><rect class="cls-2" y="2.76" width="60.71" height="45.48"/><rect class="cls-3" y="2.76" width="60.71" height="8.11"/><path class="cls-2" d="M8.17,6.55c0,2.27-3.52,2.27-3.49,0S8.21,4.28,8.17,6.55Z"/><path class="cls-4" d="M6.72.06C4.12-.73,4.3,6.9,6.14,7,8.74,7.8,8.55.17,6.72.06Z"/><path class="cls-2" d="M23.56,6.55a1.75,1.75,0,0,1-3.5,0A1.75,1.75,0,0,1,23.56,6.55Z"/><path class="cls-4" d="M22.1.06c-2.6-.79-2.42,6.84-.58,7C24.12,7.8,23.93.17,22.1.06Z"/><path class="cls-2" d="M41.24,6.55c0,2.27-3.52,2.27-3.49,0S41.28,4.28,41.24,6.55Z"/><path class="cls-4" d="M39.79.06c-2.6-.79-2.42,6.84-.58,7C41.8,7.8,41.62.17,39.79.06Z"/><path class="cls-2" d="M58.16,6.55c0,2.27-3.53,2.27-3.49,0S58.2,4.28,58.16,6.55Z"/><path class="cls-4" d="M56.7.06c-2.59-.79-2.41,6.84-.57,7C58.72,7.8,58.54.17,56.7.06Z"/><path class="cls-5" d="M8,20.16c-5.26.62-7.41-.24-6.43-5.93C6.84,13.61,9,14.47,8,20.16Z"/><path class="cls-5" d="M16.47,20.16c-5.26.62-7.41-.24-6.43-5.93C15.3,13.61,17.45,14.47,16.47,20.16Z"/><path class="cls-5" d="M24.93,20.16c-5.26.62-7.41-.24-6.43-5.93C23.76,13.61,25.91,14.47,24.93,20.16Z"/><path class="cls-5" d="M33.39,20.16c-5.26.62-7.41-.24-6.43-5.93C32.22,13.61,34.37,14.47,33.39,20.16Z"/><path class="cls-5" d="M41.85,20.16c-5.26.62-7.41-.24-6.43-5.93C40.68,13.61,42.83,14.47,41.85,20.16Z"/><path class="cls-5" d="M50.31,20.16c-5.26.62-7.41-.24-6.43-5.93C49.14,13.61,51.29,14.47,50.31,20.16Z"/><path class="cls-5" d="M58.77,20.16c-5.27.62-7.41-.24-6.43-5.93C57.6,13.61,59.75,14.47,58.77,20.16Z"/><path class="cls-5" d="M8.19,28.22C2.93,28.84.78,28,1.76,22.29,7,21.67,9.17,22.53,8.19,28.22Z"/><path class="cls-5" d="M16.65,28.22c-5.26.62-7.41-.24-6.43-5.93C15.49,21.67,17.63,22.53,16.65,28.22Z"/><path class="cls-5" d="M25.11,28.22c-5.26.62-7.41-.24-6.43-5.93C23.94,21.67,26.09,22.53,25.11,28.22Z"/><path class="cls-5" d="M33.57,28.22c-5.26.62-7.41-.24-6.43-5.93C32.4,21.67,34.55,22.53,33.57,28.22Z"/><path class="cls-5" d="M42,28.22c-5.26.62-7.41-.24-6.43-5.93C40.86,21.67,43,22.53,42,28.22Z"/><path class="cls-5" d="M50.49,28.22c-5.26.62-7.41-.24-6.43-5.93C49.32,21.67,51.47,22.53,50.49,28.22Z"/><path class="cls-5" d="M59,28.22c-5.26.62-7.41-.24-6.43-5.93C57.78,21.67,59.93,22.53,59,28.22Z"/><path class="cls-5" d="M8.19,35.91C2.93,36.53.78,35.67,1.76,30,7,29.36,9.17,30.22,8.19,35.91Z"/><path class="cls-5" d="M16.65,35.91c-5.26.62-7.41-.24-6.43-5.93C15.49,29.36,17.63,30.22,16.65,35.91Z"/><path class="cls-5" d="M25.11,35.91c-5.26.62-7.41-.24-6.43-5.93C23.94,29.36,26.09,30.22,25.11,35.91Z"/><path class="cls-5" d="M33.57,35.91c-5.26.62-7.41-.24-6.43-5.93C32.4,29.36,34.55,30.22,33.57,35.91Z"/><path class="cls-5" d="M42,35.91c-5.65.48-7.24.19-6.43-5.93C41.25,29.5,42.84,29.79,42,35.91Z"/><path class="cls-5" d="M50.49,35.91c-5.26.62-7.41-.24-6.43-5.93C49.32,29.36,51.47,30.22,50.49,35.91Z"/><path class="cls-5" d="M59,35.91c-5.26.62-7.41-.24-6.43-5.93C57.78,29.36,59.93,30.22,59,35.91Z"/><path class="cls-5" d="M8.19,43.22C2.93,43.84.78,43,1.76,37.28,7,36.66,9.17,37.52,8.19,43.22Z"/><path class="cls-5" d="M16.65,43.22c-5.64.48-7.24.19-6.43-5.94C15.87,36.8,17.46,37.09,16.65,43.22Z"/><path class="cls-5" d="M25.11,43.22c-5.26.62-7.41-.24-6.43-5.94C23.94,36.66,26.09,37.52,25.11,43.22Z"/><path class="cls-5" d="M33.57,43.22c-5.26.62-7.41-.24-6.43-5.94C32.4,36.66,34.55,37.52,33.57,43.22Z"/><path class="cls-5" d="M42,43.22c-5.26.62-7.41-.24-6.43-5.94C40.86,36.66,43,37.52,42,43.22Z"/></symbol></defs><g id="Layer_2" data-name="Layer 2"><g id="MainLayer"><g id="stories" class="cls-16"><g id="retirementgroup"><g id="retirement2"><g id="rpcust2"><g class="cls-17"><circle class="cls-18" cx="85.98" cy="68.9" r="56.22"/><polygon class="cls-19" points="115.58 103.95 120.2 128.94 117.43 129.73 109.76 103.95 115.58 103.95"/><polygon class="cls-19" points="84.64 111.75 85.7 137 88.48 137.27 90.06 110.43 84.64 111.75"/><polygon class="cls-19" points="92.05 104.75 95.35 126.17 93.37 126.83 87.95 104.75 92.05 104.75"/><path class="cls-20" d="M51.86,109.77c-3.44-8.46-2.38-16.79,2-20a14.26,14.26,0,0,1,7.67-2.38,28.57,28.57,0,0,1,7,1.19c3.84.92,5.56,1.72,7.14.92a4.73,4.73,0,0,0,2-2.64c-3-32.12-.53-45.21,6.08-45.08l11.1.93C92.05,67.86,87.55,90.07,81.73,105Z"/><path class="cls-21" d="M55,111.89c-3.44-8.46-2.38-16.79,2-20a14.26,14.26,0,0,1,7.67-2.38,28.71,28.71,0,0,1,7,1.19c3.83.93,5.55,1.72,7.14.93a4.78,4.78,0,0,0,2-2.64c-3-32.13-.66-45.88,6-45.75l9.91.14c-2.77,25.11-6,48.78-11.76,63.72Z"/><polygon class="cls-22" points="130.65 43.41 94.95 42.74 86.76 101.31 121 110.3 130.65 43.41"/><polyline class="cls-20" points="87.68 117.7 51.86 109.77 49.74 100.91 84.77 107.13 88.08 115.46"/><path class="cls-23" d="M85.27,63.85l3.54-5.73,4.29-5-2.89-3.9c-.11-.42-1.07.16-1.86.53-1.09.12-3.26,2.88-4.15,5a5,5,0,0,0-.06,3.38l-2.64,3A8.21,8.21,0,0,0,85.27,63.85Z"/><path class="cls-24" d="M92.52,48.12l-6.87,6.25a1.27,1.27,0,0,0-.1,1.77l2.9,3.23a1.26,1.26,0,0,0,1.77.1l6.93-6.15a1.25,1.25,0,0,0,.1-1.77l-3-3.33A1.25,1.25,0,0,0,92.52,48.12Z"/><path class="cls-23" d="M87.76,51.32l.62,1.58A12.13,12.13,0,0,1,88,55.14a1.58,1.58,0,0,1-.33.66,1.14,1.14,0,0,1-.68.45.6.6,0,0,1-.42-.06s-.2-.14-.24-.63a2.77,2.77,0,0,1,.16-1.16,3.69,3.69,0,0,0-.43-1.66"/><path class="cls-23" d="M89.22,50.57l.43,1.57a5.82,5.82,0,0,1-.31,2.46,3.89,3.89,0,0,1-.21.51.74.74,0,0,1-.53.4.44.44,0,0,1-.33-.09c-.14-.12-.13-.34-.12-.53s.06-.72.14-1.23a8.08,8.08,0,0,0-.3-1.78"/><path class="cls-23" d="M89.18,50.42c.11.52.23,1,.35,1.58a4.64,4.64,0,0,0-.13,1.2.67.67,0,0,0,.16.54.52.52,0,0,0,.33.09.64.64,0,0,0,.46-.28,1,1,0,0,0,.22-.51c.07-.42.2-1.34.32-2.56,0-.59-.48-.83-.76-1.29"/><path class="cls-25" d="M88.32,74,72.78,75.46l-.94-3.95c7-3.88,15.32-8.87,18-8.92Z"/><path class="cls-25" d="M79.76,70.61l8.72-10-4.9-4.16c-1.33,1.31-2.47,2.4-3.36,3.23-1.92,1.78-4.81,4.39-7.94,7.81-1.63,1.77-2.22,2.56-2.25,3.7a4.29,4.29,0,0,0,2.84,4.07,4.49,4.49,0,0,0,5.4-2.78"/><path class="cls-25" d="M89.93,62.58c-5.42.39-9,21.81-9.78,31.86,10.18-2.78,14.94,9.38,24.59,9.65L114.26,68C105.79,61.12,98.79,59.93,89.93,62.58Z"/><path class="cls-25" d="M115.58,68c2.38,2.64,1.06,5.94-.93,20.09-.26,6.61-8.06,11.63-10.84,4.1C104.87,88.75,107.78,58.61,115.58,68Z"/><path class="cls-25" d="M110.29,95.23c-1.32,2.38-9.65,1.06-19.57-.93-4.49-.52-.92-7.14,0-9.78C94.56,85.31,119.41,87.43,110.29,95.23Z"/><path class="cls-26" d="M108.57,72c-1.45,5-2.78,10.58-2.11,15.6a39.56,39.56,0,0,1-14.68-2.64c-.67,2.59.79,6.2-2.64,8.46"/><line class="cls-26" x1="106.98" y1="72.49" x2="107.78" y2="74.61"/><path class="cls-23" d="M109.63,57.55l-1.72,8.73c-1.59.92.13,0-4.36.66-1.33.66-6.48-.66-6.61-1.59l2.38-5.42Z"/><path class="cls-27" d="M97.2,64.16c7,0,10.58-2.91,11.24-5.82l-9.65,3Z"/><path class="cls-28" d="M99.85,66.54l-3.57,3.7a8.36,8.36,0,0,1,.52-8.06c.67-.13,1.33-.79,2.12-.66C97.86,64.43,98.13,66,99.85,66.54Z"/><path class="cls-28" d="M108.84,61.39c-2.52,4.75-5.43,6.34-9.13,5.15l1.85,5.69c3.84-1.59,7.28-4.23,8.07-8.33Z"/><path class="cls-23" d="M97.73,42.22C93.63,49.62,88,59.14,97.6,61c11,4.1,19.3-11.9,17.45-20C111.35,34,101.83,34,97.73,42.22Z"/><path class="cls-29" d="M105.66,49.88c-.66,1.59-2.38.93-1.85-.79S106.32,48.3,105.66,49.88Z"/><path class="cls-29" d="M99.71,47c-.66,1.58-2.38.92-1.85-.8C98.66,44.86,100.24,45.52,99.71,47Z"/><polygon class="cls-27" points="100.64 52.26 98.39 51.21 101.43 46.84 101.43 46.98 99.32 50.94 100.64 52.13 100.64 52.26"/><polygon class="cls-29" points="99.18 50.94 101.56 46.71 101.7 46.71 99.45 51.07 99.18 50.94"/><path class="cls-30" d="M98.52,43.54a1.69,1.69,0,0,1,1.85.79"/><path class="cls-30" d="M105.13,46.45a1.67,1.67,0,0,1,1.85.79"/><path class="cls-31" d="M110.55,52l-1.19-1.32a22.25,22.25,0,0,1,2.12-6.22,3.65,3.65,0,0,0,.53-2.11c-.27-1.06-1.19-1.46-2.91-2.25A14,14,0,0,1,106.46,39a6.56,6.56,0,0,1-2.12-1.45c-.13-.4-2.11-.13-2.11-.13,0-.27-2-3.18-1.33-3.44.14,0,3.84-.53,3.84-.53.39-.13,1.05.93,3.17,2.12.26.26,1.45,0,2.25.39s1.19,1.19,1.58,1.32a7,7,0,0,1,4.5,6c.13,4.63-1.59,5.16-2.38,8.6Z"/><path class="cls-23" d="M109.76,52.26c4.5-4,6.61.27,2,3.57C109.1,57.82,107.38,55.17,109.76,52.26Z"/><path class="cls-27" d="M113.46,51.47c-.92-.53-3.3,2.25-3.3,2.25s1-.13.92.39c.4-.39-.66-.52-.92-.39.39-.27,2.64-3,3.43-1.59C113.86,52.13,113.73,51.73,113.46,51.47Z"/><path class="cls-27" d="M103.28,49.62c.4,1.32,1.32,2.25,2.51,2-1.19.8-2.11.53-2.9-1.45Z"/><path class="cls-27" d="M99.45,48c-.93.93-1.85.8-2.38-.13.13,1.19.79,1.59,2.38.53Z"/><path class="cls-31" d="M96.94,52a3.65,3.65,0,0,1,4.23,1.72c.79,1.32,0,2.91.79,3.57.13.13.66.39,1.85-.13,3.17-1.33,5.69-7.14,6.61-8.73l.66,2.78a13.67,13.67,0,0,0-3,4.89c-.92,2.11-.66,3-1.72,4.23s-2.77,1.45-4.49,1.72a11.33,11.33,0,0,1-6-.93A6.84,6.84,0,0,1,92.57,59a5,5,0,0,1-1-2.25,3.22,3.22,0,0,1,.39-2.25A43.51,43.51,0,0,0,93.63,50c-.26.66-.79,4,.66,3.7S95.88,52.26,96.94,52Z"/><path class="cls-32" d="M82.13,94c-2.9-1.32-15.2-8-22.74-2.56-8.06,5.68-15.2,19.16-16.92,34.1,3.44,4.23,8.33,4.9,14.28,3,.26-10.7,1.06-16.79,7.8-26.44,4.49-.39,8.33,2,14.14,1.46"/><path class="cls-32" d="M95.61,94.57,93.1,97.48c-2.91-1.33-12.29-7-19.83-1.59-8.06,5.68-15.2,19.17-16.92,34.11,3.44,4.23,8.33,4.89,14.28,3,.26-10.71,1.45-17.45,8.2-27.1,4.49-.4,7.93,2.51,13.74,2.11"/><path class="cls-20" d="M84.25,115.59C80.41,106.47,81.6,97.48,86.36,94a15.18,15.18,0,0,1,8.33-2.51c2.25,0,4.23.53,7.53,1.32,4.1,1.06,6,2,7.67.93A4.64,4.64,0,0,0,112,90.87c-3.31-34.64.92-48.52,7.93-48.39l10.05.66c-3,27.1-7.27,51.3-13.49,67.29Z"/><path class="cls-21" d="M87.55,117.7c-3.83-9.12-2.64-18.11,2.12-21.55A15.17,15.17,0,0,1,98,93.64c2.25,0,4.23.53,7.54,1.32,4.1,1.06,6,2,7.67.93A4.54,4.54,0,0,0,115.31,93c-3.3-34.64-.66-49.44,6.35-49.18,3.57.27,5.82,1.19,7.14-.39,2.38-.53,3.17.39,3.3,2.24-3,27.1-6.08,51-12.42,66.9Z"/><path class="cls-33" d="M81.41,78.41,66.62,77.33c2.51,4.25,4.7,10.28,4.41,13.08l15.15,1C86.59,88.07,84.59,82.32,81.41,78.41Z"/><path class="cls-23" d="M91.25,85.58l-2.77-.27c-1.33-2.51-5.42-2.9-7.54-2-9.39,2.51,7.4,8.73,10.31,7.4Z"/><polygon class="cls-34" points="66.62 77.33 62.81 80.56 77.17 81.58 81.41 78.41 66.62 77.33"/><polygon class="cls-34" points="71.13 90.34 68.54 94.86 82.89 95.88 86.24 91.32 71.13 90.34"/></g><circle class="cls-35" cx="85.98" cy="68.9" r="48.62"/></g><use width="86.16" height="99.82" transform="translate(2.95 16.88) rotate(3.35) scale(0.57)" xlink:href="#service-left-gradient_2"/><g id="rpagent"><path class="cls-29" d="M17.15,42.22h0l.05,0a3.53,3.53,0,0,1,.56-.25l.23-.08a24.66,24.66,0,0,1,6.24-1.66l.28-3.51c-.72-1.58-3.56-3.51-4.05-6.88,0-.14,0-.28,0-.43a6.52,6.52,0,0,1-1.55,4.4c-1.47,2.27-3,3-4,5.8-.34,1-1.38,3.81-.22,5.42a2.85,2.85,0,0,0,.23.26C15.59,43.6,16.22,42.73,17.15,42.22Z"/><path class="cls-36" d="M30.48,42.44l.15,1-5.42,1a19,19,0,0,1-3.84,1.52,94.44,94.44,0,0,1-3.5,12.89l.25.08a62.53,62.53,0,0,1,6.17,1.83l13.39.57c.75-5,7.48-7.23-.44-17.89a19.76,19.76,0,0,0-6.7-2.91,8.83,8.83,0,0,1,.1,1.85A.61.61,0,0,1,30.48,42.44ZM27.87,60.05a.41.41,0,0,1-.38-.43.42.42,0,0,1,.43-.38.39.39,0,0,1,.38.43A.4.4,0,0,1,27.87,60.05Zm.31-5.24a.42.42,0,0,1-.38-.43.4.4,0,0,1,.43-.38.4.4,0,0,1,.38.43A.41.41,0,0,1,28.18,54.81Zm.31-5.25a.39.39,0,0,1-.38-.42.41.41,0,0,1,.43-.39.42.42,0,0,1,.38.43A.4.4,0,0,1,28.49,49.56Z"/><path class="cls-36" d="M18.12,58.88l-.25-.08v0Z"/><path class="cls-36" d="M17.16,42.21h0l.06,0Z"/><path class="cls-36" d="M20.83,42.05a2.83,2.83,0,0,1,.86,2.25c-.1.54-.21,1.08-.32,1.61a19,19,0,0,0,3.84-1.52l5.42-1-.15-1a3.77,3.77,0,0,1-1,.48c-.49.09-1.42.69-1.77.25A4,4,0,0,1,25,42.05a5.23,5.23,0,0,1-.85-1l.06-.86A24.66,24.66,0,0,0,18,41.86,3.16,3.16,0,0,1,20.83,42.05Z"/><path class="cls-29" d="M38.43,25.86c0-.11,0-.23,0-.34l-.18-.41C38.3,25.36,38.37,25.61,38.43,25.86Z"/><path class="cls-29" d="M30.39,39c.05.43.1.85.13,1.27A10.59,10.59,0,0,0,32.47,39l-.2,0A11.59,11.59,0,0,1,30.39,39Z"/><path class="cls-29" d="M22.31,27.3a6,6,0,0,1-.56-2.89L28,18.83a6.06,6.06,0,0,1,2.58.76,8.81,8.81,0,0,1,2.59.19l.23.07a8.48,8.48,0,0,0-2.51-.06,5.92,5.92,0,0,1,2.65,4.15l.64-.48c1.45.52,2.43,2.29,2.89,4.46a2.83,2.83,0,0,1,.7.21c-.11-2.76-.89-5.1-2.93-6.6a4,4,0,0,0-.86-.17l.59-.86a8,8,0,0,1,.93.44l.22-.1.41.49A7.07,7.07,0,0,1,38,23.25a4.89,4.89,0,0,0-1.61-2.47,4.37,4.37,0,0,0-2.59-.84,8.54,8.54,0,0,0-6.44-1.06c-4.46,1.25-7.31,6.37-6.95,10.5,0-.46,0-1,0-1.61Z"/><path class="cls-29" d="M24.52,36.69l.15-1.87h0L23.46,33l-.19,0h-.06a1.75,1.75,0,0,1-.4,0c-1-.06-1.8-1.31-1.71-2.79a2.72,2.72,0,0,1,1.47-2.46c-.09-.16-.18-.32-.26-.49l-1.84.47c0,.62,0,1.15,0,1.61,0,.15,0,.29,0,.43C21,33.18,23.8,35.11,24.52,36.69Z"/><path class="cls-29" d="M25.22,22.47a7.31,7.31,0,0,1,5.39-2.88A6.06,6.06,0,0,0,28,18.83l-6.28,5.58a6,6,0,0,0,.56,2.89l1-.26A9.9,9.9,0,0,1,25.22,22.47Z"/><path class="cls-29" d="M25.63,22.76A8.89,8.89,0,0,0,24,26.88l4-1L28.3,28c1.74-1.25,3.17-2.5,5.27-4.08a5.92,5.92,0,0,0-2.65-4.15A7.51,7.51,0,0,0,25.63,22.76Z"/><path class="cls-29" d="M23.18,27.7a.68.68,0,0,1,.2,0l-.06,0a3.31,3.31,0,0,1,0-.62l-1,.26c.08.17.17.33.26.49a1.33,1.33,0,0,1,.56-.1Z"/><path class="cls-29" d="M23.94,27.73a2.36,2.36,0,0,1,1.33,2,4.1,4.1,0,0,1,.5.59l.06-.19-.15,0-.3-.32.55-.09.06-.2c.87-.53,1.61-1,2.31-1.54L28,25.86l-4,1A5.49,5.49,0,0,0,23.94,27.73Z"/><path class="cls-37" d="M30.54,40.48v0Z"/><path class="cls-37" d="M24.57,37.87a1.3,1.3,0,0,0-.05-1.18l-.28,3.51A19.91,19.91,0,0,1,27,40.07Z"/><path class="cls-37" d="M30.52,41.79l-.16-.13.12.78a.61.61,0,0,0,.16-.11,8.83,8.83,0,0,0-.1-1.85h0A9.53,9.53,0,0,1,30.52,41.79Z"/><path class="cls-37" d="M25,42.05a4,4,0,0,0,2.66,1.12c.35.44,1.28-.16,1.77-.25a3.77,3.77,0,0,0,1-.48l-.12-.78c-.36-.31-.72-.62-1.07-.94a9.07,9.07,0,0,1-1.22.32l-1.07-1a19.91,19.91,0,0,0-2.76.13l-.06.86A5.23,5.23,0,0,0,25,42.05Z"/><path class="cls-37" d="M24.57,37.87,27,40.07c.57,0,1.14,0,1.7.11C27,38.59,25.62,37,25.27,35.56c-.09-.18-.18-.38-.27-.58l-.33-.16-.15,1.87A1.3,1.3,0,0,1,24.57,37.87Z"/><path class="cls-37" d="M27,40.07l1.07,1a9.07,9.07,0,0,0,1.22-.32l-.59-.54C28.14,40.12,27.57,40.08,27,40.07Z"/><path class="cls-37" d="M25.3,30.44a4.15,4.15,0,0,1-.14.81c.08.22.15.43.2.6l.4-1.47-.46-.18A1.92,1.92,0,0,1,25.3,30.44Z"/><path class="cls-37" d="M25.28,32.13l0-.18c-.06-.15-.13-.34-.22-.55a3.05,3.05,0,0,1-.27.61A.63.63,0,0,1,25.28,32.13Z"/><path class="cls-37" d="M24.77,32.11a2,2,0,0,1-.89.78l.85,1.23.54-1.95C25.11,32.1,24.89,32,24.77,32.11Z"/><path class="cls-37" d="M25.76,30.38v0a4.1,4.1,0,0,0-.5-.59,3.4,3.4,0,0,1,0,.45Z"/><path class="cls-38" d="M30.53,40.43c0-.06,0-.13,0-.19h0Z"/><path class="cls-38" d="M30.39,39a10.56,10.56,0,0,0,.11,1.28h0c0-.42-.08-.84-.13-1.27Z"/><path class="cls-38" d="M30.17,40.39v0l.36.07v0l0-.18Z"/><path class="cls-38" d="M30.17,40.41v0h0Z"/><path class="cls-38" d="M30.52,41.79a9.53,9.53,0,0,0,0-1.31l-.36-.07.19,1.25Z"/><path class="cls-38" d="M29.29,40.72c.35.32.71.63,1.07.94l-.19-1.25h0A8,8,0,0,1,29.29,40.72Z"/><path class="cls-38" d="M30.17,40.39l.33-.14A10.56,10.56,0,0,1,30.39,39L30,38.9Z"/><path class="cls-38" d="M25.27,35.56c.35,1.45,1.72,3,3.43,4.62.49.06,1,.13,1.45.22h0L30,38.9A6.19,6.19,0,0,1,25.27,35.56Z"/><path class="cls-38" d="M28.7,40.18l.59.54a8,8,0,0,0,.86-.32C29.67,40.31,29.19,40.24,28.7,40.18Z"/><path class="cls-37" d="M35.83,35.13A14.91,14.91,0,0,1,32.47,39c2.71-.14,4.24-2.77,4.74-5.85a2.25,2.25,0,0,1-.36.06A15.11,15.11,0,0,1,35.83,35.13Z"/><path class="cls-37" d="M35.83,35.13a15.11,15.11,0,0,0,1-1.91,2.54,2.54,0,0,1-.39,0,2.68,2.68,0,0,1-2.32-1.66l.3,1.86h-1.9l0-.07L33.76,33l-.13-3.16a1.9,1.9,0,0,0-.53,0,2.91,2.91,0,0,1,0,.3,2.68,2.68,0,0,1-4.17,2.07L29.8,38l.6.44c0,.2,0,.38,0,.54v0a11.59,11.59,0,0,0,1.88.06l.2,0A14.91,14.91,0,0,0,35.83,35.13Z"/><path class="cls-37" d="M32.47,28.28a2.76,2.76,0,0,1,.58,1.22,2.73,2.73,0,0,1,.57,0v-.14h.11v.13l.06,0v.06l.33.07a2.72,2.72,0,0,1,2-1.64,1.18,1.18,0,0,0-.57-.08,1.18,1.18,0,0,1,.57.08,2.85,2.85,0,0,1,.66-.05c.11,0,.21,0,.32.06-.46-2.17-1.44-3.94-2.89-4.46l-.64.48a6.47,6.47,0,0,1,0,1.17A5.89,5.89,0,0,1,32.47,28.28Z"/><path class="cls-37" d="M33.94,30.34a2.57,2.57,0,0,1,.07-.4l-.14,0Z"/><path class="cls-37" d="M27.83,30.7h-.49a5.85,5.85,0,0,1-1.53-.3,3.48,3.48,0,0,1,.44.91c.36,1.25-.08,2.88-.88,3.06a.88.88,0,0,1-.53-.07l0,0,3,1.71a.59.59,0,0,1,.35,0l.54.15a.62.62,0,0,1,.44.77.64.64,0,0,1-.3.38l.87.64-.86-5.7A2.75,2.75,0,0,1,27.83,30.7Z"/><path class="cls-37" d="M27.26,36.1l.29.21s0,0,0-.05Z"/><path class="cls-37" d="M28.34,28.34a2.7,2.7,0,0,1,2.24-1,2.74,2.74,0,0,1,1.89.94,5.89,5.89,0,0,0,1.15-3.17,6.47,6.47,0,0,0,0-1.17C31.47,25.52,30,26.77,28.3,28Z"/><path class="cls-37" d="M25.93,29.76l1.88-.31a2.72,2.72,0,0,1,.53-1.11l0-.32c-.7.5-1.44,1-2.31,1.54Z"/><path class="cls-37" d="M27.75,29.81l-1.92.34-.06.19a.1.1,0,0,1,0,.05,5.85,5.85,0,0,0,1.53.3h.49a2.86,2.86,0,0,1-.09-.83S27.75,29.83,27.75,29.81Z"/><path class="cls-37" d="M30.39,38.94h0c0-.16,0-.34,0-.54L29.8,38l.1.62Z"/><path class="cls-37" d="M28.46,37.37l-.32-.08,1.76,1.29L29.8,38l-.87-.64A.64.64,0,0,1,28.46,37.37Z"/><path class="cls-37" d="M27.5,36.82a.73.73,0,0,1,0-.36c0-.06.05-.1.07-.15l-.29-.21L25,35c.09.2.18.4.27.58a3.35,3.35,0,0,1-.07-.44Z"/><path class="cls-37" d="M25.45,32.23a1.73,1.73,0,0,1-.12-.28l0,.18Z"/><path class="cls-37" d="M25.36,31.85c.07.24.11.41.11.41h0l-.19-.08-.54,1.95.11.17a.88.88,0,0,0,.53.07c.8-.18,1.24-1.81.88-3.06a3.48,3.48,0,0,0-.44-.91h0Z"/><path class="cls-37" d="M25.76,30.38h0a.1.1,0,0,0,0-.05Z"/><path class="cls-37" d="M30.39,39v0Z"/><path class="cls-37" d="M29.9,38.58l.05.32.44.07v0h0Z"/><path class="cls-37" d="M30,38.9l-.05-.32-1.76-1.29-.22-.06a.64.64,0,0,1-.42-.41l-2.3-1.7a3.35,3.35,0,0,0,.07.44A6.19,6.19,0,0,0,30,38.9Z"/><path class="cls-39" d="M24.84,32a.61.61,0,0,0-.07.1c.12-.08.34,0,.5.06v0A.63.63,0,0,0,24.84,32Z"/><path class="cls-39" d="M25.11,31.4c.09.21.16.4.22.55l0-.1c-.05-.17-.12-.38-.2-.6C25.14,31.3,25.13,31.35,25.11,31.4Z"/><path class="cls-39" d="M25.45,32.23l-.17-.1v0l.19.08h0s0-.17-.11-.41l0,.1A1.73,1.73,0,0,0,25.45,32.23Z"/><path class="cls-38" d="M33.8,29.48v-.06l-.06,0v0Z"/><path class="cls-38" d="M33.94,30.34l-.07-.44h-.11L34,33.05h-.22l-1.19.32,0,.07h1.9l-.3-1.86a2.75,2.75,0,0,1-.21-1.18S33.94,30.36,33.94,30.34Z"/><path class="cls-29" d="M33.74,29.88h-.11L33.76,33l.15,0Z"/><path class="cls-29" d="M33.71,29.45h0v-.13h-.11v.14h.09Z"/><path class="cls-29" d="M34,33.05l-.22-3.16h0L33.91,33l-.15,0H34Z"/><path class="cls-29" d="M33.71,29.47h0v0h0Z"/><path class="cls-29" d="M39.85,30.18A14,14,0,0,0,38,23.25a9.44,9.44,0,0,1,.39,2.27A32.06,32.06,0,0,1,39.85,30.18Z"/><path class="cls-29" d="M35.53,20.94a8,8,0,0,0-.93-.44l-.59.86a4,4,0,0,1,.86.17l-.25-.19Z"/><path class="cls-29" d="M36.16,21.33a11.08,11.08,0,0,1,2.07,3.78l.18.41A9.44,9.44,0,0,0,38,23.25,7.07,7.07,0,0,0,36.16,21.33Z"/><path class="cls-29" d="M38.26,28.42a3.41,3.41,0,0,1,.39.37,11.12,11.12,0,0,0-.22-2.93A15.08,15.08,0,0,1,38.26,28.42Z"/><path class="cls-29" d="M37.26,34.64c.22-.58.42-1.15.6-1.72a1.76,1.76,0,0,1-.37.17C37.42,33.6,37.35,34.12,37.26,34.64Z"/><path class="cls-29" d="M35.75,20.84l-.22.1c.22.12.43.26.63.39Z"/><path class="cls-29" d="M34.87,21.53c2,1.5,2.82,3.84,2.93,6.6a3,3,0,0,1,.46.29,15.08,15.08,0,0,0,.17-2.56c-.06-.25-.13-.5-.2-.75C37.41,23.31,36.35,22,34.87,21.53Z"/><path class="cls-29" d="M38.23,25.11a11.08,11.08,0,0,0-2.07-3.78c-.2-.13-.41-.27-.63-.39l-.91.4.25.19C36.35,22,37.41,23.31,38.23,25.11Z"/><path class="cls-40" d="M37.35,32q0,.45-.09.87a1.52,1.52,0,0,0,.28-.09c.09-.68.16-1.34.21-2C37.63,31.17,37.5,31.57,37.35,32Z"/><path class="cls-40" d="M39,30.69a2.39,2.39,0,0,0-.39-1.44A16.39,16.39,0,0,1,38,32.5,2.4,2.4,0,0,0,39,30.69Z"/><path class="cls-29" d="M37.35,32c.15-.4.28-.8.4-1.21.06-.78.08-1.54.07-2.27a2.7,2.7,0,0,0-.66-.27A14.6,14.6,0,0,1,37.35,32Z"/><path class="cls-40" d="M37.35,32c.15-.4.28-.8.4-1.21.06-.78.08-1.54.07-2.27a2.7,2.7,0,0,0-.66-.27A14.6,14.6,0,0,1,37.35,32Z"/><path class="cls-37" d="M37,32.91a1.64,1.64,0,0,0,.28-.07q.06-.42.09-.87C37.23,32.29,37.11,32.6,37,32.91Z"/><path class="cls-40" d="M37,32.91a1.64,1.64,0,0,0,.28-.07q.06-.42.09-.87C37.23,32.29,37.11,32.6,37,32.91Z"/><path class="cls-37" d="M37.16,28.22a2.57,2.57,0,0,0-.4-.06h-.28s.05,0,.07.07,0,0-.07-.07a2.39,2.39,0,0,0,0,4.77,2.1,2.1,0,0,0,.5,0c.13-.31.25-.62.37-.94A14.6,14.6,0,0,0,37.16,28.22Zm-.87,2c0,.55-.38,1-.78,1s-.69-.49-.66-1,.38-1,.78-.95a.65.65,0,0,1,.5.35,1.34,1.34,0,0,0,.94-.14,2,2,0,0,1-.82.42A1.75,1.75,0,0,1,36.29,30.22Z"/><path class="cls-40" d="M37.16,28.22a2.57,2.57,0,0,0-.4-.06h-.28s.05,0,.07.07,0,0-.07-.07a2.39,2.39,0,0,0,0,4.77,2.1,2.1,0,0,0,.5,0c.13-.31.25-.62.37-.94A14.6,14.6,0,0,0,37.16,28.22Zm-.87,2c0,.55-.38,1-.78,1s-.69-.49-.66-1,.38-1,.78-.95a.65.65,0,0,1,.5.35,1.34,1.34,0,0,0,.94-.14,2,2,0,0,1-.82.42A1.75,1.75,0,0,1,36.29,30.22Z"/><path class="cls-29" d="M35.92,29.45l.21.09a.65.65,0,0,0-.5-.35c-.4,0-.75.4-.78.95s.26,1,.66,1,.74-.4.78-1a1.75,1.75,0,0,0,0-.4.62.62,0,0,1-.19,0Z"/><path class="cls-40" d="M35.92,29.45l.21.09a.65.65,0,0,0-.5-.35c-.4,0-.75.4-.78.95s.26,1,.66,1,.74-.4.78-1a1.75,1.75,0,0,0,0-.4.62.62,0,0,1-.19,0Z"/><path class="cls-29" d="M36.13,29.54a1.18,1.18,0,0,1,.12.28,2,2,0,0,0,.82-.42A1.34,1.34,0,0,1,36.13,29.54Z"/><path class="cls-40" d="M36.13,29.54a1.18,1.18,0,0,1,.12.28,2,2,0,0,0,.82-.42A1.34,1.34,0,0,1,36.13,29.54Z"/><path class="cls-29" d="M35.92,29.45l.14.38a.62.62,0,0,0,.19,0,1.18,1.18,0,0,0-.12-.28Z"/><path class="cls-40" d="M35.92,29.45l.14.38a.62.62,0,0,0,.19,0,1.18,1.18,0,0,0-.12-.28Z"/><path class="cls-29" d="M37.54,32.75A2.38,2.38,0,0,0,38,32.5a16.39,16.39,0,0,0,.64-3.25,2.73,2.73,0,0,0-.42-.48,17.8,17.8,0,0,1-.45,2C37.7,31.41,37.63,32.07,37.54,32.75Z"/><path class="cls-40" d="M37.54,32.75A2.38,2.38,0,0,0,38,32.5a16.39,16.39,0,0,0,.64-3.25,2.73,2.73,0,0,0-.42-.48,17.8,17.8,0,0,1-.45,2C37.7,31.41,37.63,32.07,37.54,32.75Z"/><path class="cls-29" d="M37.75,30.76a17.8,17.8,0,0,0,.45-2,2.66,2.66,0,0,0-.38-.28C37.83,29.22,37.81,30,37.75,30.76Z"/><path class="cls-40" d="M37.75,30.76a17.8,17.8,0,0,0,.45-2,2.66,2.66,0,0,0-.38-.28C37.83,29.22,37.81,30,37.75,30.76Z"/><path class="cls-41" d="M37.23,33a.88.88,0,0,1,0,.16l.28-.07,0-.17A1.57,1.57,0,0,1,37.23,33Z"/><path class="cls-41" d="M39.16,30.7a2.55,2.55,0,0,1-1.24,2l-.06.19a2.68,2.68,0,0,0,.79-4.13c0,.08,0,.15,0,.23A2.54,2.54,0,0,1,39.16,30.7Z"/><path class="cls-41" d="M37.81,28.31a1.09,1.09,0,0,0,0-.18,2.83,2.83,0,0,0-.7-.21l0,.15A2.62,2.62,0,0,1,37.81,28.31Z"/><path class="cls-41" d="M36.91,33.07l-.06.15a2.25,2.25,0,0,0,.36-.06.88.88,0,0,0,0-.16Z"/><path class="cls-41" d="M34.08,30.4a2.7,2.7,0,0,1,.07-.41l-.14,0a2.57,2.57,0,0,0-.07.4l.2,1.23a2.68,2.68,0,0,0,2.32,1.66,2.54,2.54,0,0,0,.39,0l.06-.15-.44,0A2.55,2.55,0,0,1,34.08,30.4Z"/><path class="cls-41" d="M36.12,27.91a1.32,1.32,0,0,1,.2.12,2.26,2.26,0,0,1,.45,0c.12,0,.24,0,.36.06l0-.15c-.11,0-.21-.05-.32-.06A2.85,2.85,0,0,0,36.12,27.91Z"/><path class="cls-41" d="M36.32,28a1.32,1.32,0,0,0-.2-.12,2.72,2.72,0,0,0-2,1.64l.15,0A2.53,2.53,0,0,1,36.32,28Z"/><path class="cls-41" d="M33.93,30.39a2.75,2.75,0,0,0,.21,1.18l-.2-1.23S33.93,30.37,33.93,30.39Z"/><path class="cls-41" d="M38.26,28.42l0,.18a2,2,0,0,1,.4.42c0-.08,0-.15,0-.23A3.41,3.41,0,0,0,38.26,28.42Z"/><path class="cls-41" d="M37.52,32.92l0,.17a1.76,1.76,0,0,0,.37-.17l.06-.19A2.42,2.42,0,0,1,37.52,32.92Z"/><path class="cls-41" d="M38.23,28.6l0-.18a3,3,0,0,0-.46-.29,1.09,1.09,0,0,1,0,.18A2.42,2.42,0,0,1,38.23,28.6Z"/><path class="cls-41" d="M39,30.69a2.4,2.4,0,0,1-1,1.81l-.06.23A2.51,2.51,0,0,0,38.63,29a1.69,1.69,0,0,1,0,.23A2.39,2.39,0,0,1,39,30.69Z"/><path class="cls-41" d="M37.26,32.84l0,.16a1.57,1.57,0,0,0,.29-.08,1,1,0,0,1,0-.17A1.52,1.52,0,0,1,37.26,32.84Z"/><path class="cls-41" d="M37.82,28.49c0-.06,0-.12,0-.18a2.62,2.62,0,0,0-.68-.24l0,.15A2.7,2.7,0,0,1,37.82,28.49Z"/><path class="cls-41" d="M37,32.91a1.11,1.11,0,0,0-.07.16l.32-.07,0-.16A1.64,1.64,0,0,1,37,32.91Z"/><path class="cls-41" d="M36.48,32.94a2.39,2.39,0,0,1,0-4.77,1.07,1.07,0,0,0-.16-.14,2.53,2.53,0,0,0-2,1.56h0l-.12.39h0a2.7,2.7,0,0,0-.07.41,2.55,2.55,0,0,0,2.39,2.69l.44,0a1.11,1.11,0,0,1,.07-.16A2.1,2.1,0,0,1,36.48,32.94Z"/><path class="cls-41" d="M36.76,28.16a2.57,2.57,0,0,1,.4.06l0-.15c-.12,0-.24-.05-.36-.06a2.26,2.26,0,0,0-.45,0,1.07,1.07,0,0,1,.16.14Z"/><path class="cls-41" d="M38.62,29.25a1.69,1.69,0,0,0,0-.23,2,2,0,0,0-.4-.42l0,.17A2.73,2.73,0,0,1,38.62,29.25Z"/><path class="cls-41" d="M37.54,32.75a1,1,0,0,0,0,.17,2.42,2.42,0,0,0,.4-.19L38,32.5A2.38,2.38,0,0,1,37.54,32.75Z"/><path class="cls-41" d="M37.82,28.49a2.66,2.66,0,0,1,.38.28l0-.17a2.42,2.42,0,0,0-.42-.29C37.81,28.37,37.82,28.43,37.82,28.49Z"/><path class="cls-37" d="M31.14,29.59a1.25,1.25,0,0,1,.12.59c0,.54-.38,1-.78.94s-.6-.38-.64-.83a5,5,0,0,1-1.15.32l.18,1.23a2.38,2.38,0,0,0,3.94-1.67,2.35,2.35,0,0,0-.53-1.64A5.74,5.74,0,0,1,31.14,29.59Z"/><path class="cls-40" d="M31.14,29.59a1.25,1.25,0,0,1,.12.59c0,.54-.38,1-.78.94s-.6-.38-.64-.83a5,5,0,0,1-1.15.32l.18,1.23a2.38,2.38,0,0,0,3.94-1.67,2.35,2.35,0,0,0-.53-1.64A5.74,5.74,0,0,1,31.14,29.59Z"/><path class="cls-37" d="M28.14,30.68a2.38,2.38,0,0,0,.73,1.16l-.18-1.23A5.17,5.17,0,0,1,28.14,30.68Z"/><path class="cls-40" d="M28.14,30.68a2.38,2.38,0,0,0,.73,1.16l-.18-1.23A5.17,5.17,0,0,1,28.14,30.68Z"/><path class="cls-37" d="M30.57,27.64a2.4,2.4,0,0,0-2.16,1.12l.28,1.85a5,5,0,0,0,1.15-.32,1.23,1.23,0,0,1,0-.2.24.24,0,0,0,0-.08,1.84,1.84,0,0,1-.82-.53,1.38,1.38,0,0,0,.88.26.78.78,0,0,1,.7-.6.68.68,0,0,1,.54.45,5.74,5.74,0,0,0,1.14-1.06A2.37,2.37,0,0,0,30.57,27.64Z"/><path class="cls-40" d="M30.57,27.64a2.4,2.4,0,0,0-2.16,1.12l.28,1.85a5,5,0,0,0,1.15-.32,1.23,1.23,0,0,1,0-.2.24.24,0,0,0,0-.08,1.84,1.84,0,0,1-.82-.53,1.38,1.38,0,0,0,.88.26.78.78,0,0,1,.7-.6.68.68,0,0,1,.54.45,5.74,5.74,0,0,0,1.14-1.06A2.37,2.37,0,0,0,30.57,27.64Z"/><path class="cls-37" d="M28.41,28.76A2.3,2.3,0,0,0,28,29.89a2.1,2.1,0,0,0,.1.79,5.17,5.17,0,0,0,.55-.07Z"/><path class="cls-40" d="M28.41,28.76A2.3,2.3,0,0,0,28,29.89a2.1,2.1,0,0,0,.1.79,5.17,5.17,0,0,0,.55-.07Z"/><path class="cls-29" d="M30.48,31.12c.4,0,.75-.4.78-.94a1.25,1.25,0,0,0-.12-.59,5.61,5.61,0,0,1-1.3.7C29.88,30.74,30.14,31.1,30.48,31.12Z"/><path class="cls-40" d="M30.48,31.12c.4,0,.75-.4.78-.94a1.25,1.25,0,0,0-.12-.59,5.61,5.61,0,0,1-1.3.7C29.88,30.74,30.14,31.1,30.48,31.12Z"/><path class="cls-29" d="M30.6,29.14a.78.78,0,0,0-.7.6.66.66,0,0,0,.25-.08L30,30l-.13,0a.24.24,0,0,1,0,.08,1.23,1.23,0,0,0,0,.2,5.61,5.61,0,0,0,1.3-.7A.68.68,0,0,0,30.6,29.14Z"/><path class="cls-40" d="M30.6,29.14a.78.78,0,0,0-.7.6.66.66,0,0,0,.25-.08L30,30l-.13,0a.24.24,0,0,1,0,.08,1.23,1.23,0,0,0,0,.2,5.61,5.61,0,0,0,1.3-.7A.68.68,0,0,0,30.6,29.14Z"/><path class="cls-29" d="M29,29.48a1.84,1.84,0,0,0,.82.53,1.07,1.07,0,0,1,.06-.27A1.38,1.38,0,0,1,29,29.48Z"/><path class="cls-40" d="M29,29.48a1.84,1.84,0,0,0,.82.53,1.07,1.07,0,0,1,.06-.27A1.38,1.38,0,0,1,29,29.48Z"/><path class="cls-29" d="M30.15,29.66a.66.66,0,0,1-.25.08,1.07,1.07,0,0,0-.06.27L30,30Z"/><path class="cls-40" d="M30.15,29.66a.66.66,0,0,1-.25.08,1.07,1.07,0,0,0-.06.27L30,30Z"/><path class="cls-41" d="M33,30.18a2.54,2.54,0,0,1-2.68,2.39,2.49,2.49,0,0,1-1.37-.51l0,.2a2.68,2.68,0,0,0,4.17-2.07,2.91,2.91,0,0,0,0-.3l-.15,0A1.22,1.22,0,0,1,33,30.18Z"/><path class="cls-41" d="M32.91,29.53l.14,0a2.76,2.76,0,0,0-.58-1.22.64.64,0,0,1-.1.13A2.44,2.44,0,0,1,32.91,29.53Z"/><path class="cls-41" d="M28,30.69h-.16a2.75,2.75,0,0,0,1.11,1.56l0-.2A2.48,2.48,0,0,1,28,30.69Z"/><path class="cls-41" d="M30.58,27.49a2.5,2.5,0,0,1,1.79.92.64.64,0,0,0,.1-.13,2.74,2.74,0,0,0-1.89-.94,2.7,2.7,0,0,0-2.24,1l0,.2A2.56,2.56,0,0,1,30.58,27.49Z"/><path class="cls-41" d="M27.91,29.44l-.05.35-.11,0s0,0,0,.06a2.86,2.86,0,0,0,.09.83H28a2.2,2.2,0,0,1-.1-.81,2.58,2.58,0,0,1,.48-1.34l0-.2a2.72,2.72,0,0,0-.53,1.11Z"/><path class="cls-41" d="M32.28,28.53a2.35,2.35,0,0,1,.53,1.64,2.38,2.38,0,0,1-3.94,1.67l0,.22a2.49,2.49,0,0,0,1.37.51A2.54,2.54,0,0,0,33,30.18a1.22,1.22,0,0,0,0-.27H32.9l0-.37h.06a2.44,2.44,0,0,0-.54-1.12Z"/><path class="cls-41" d="M28.14,30.68H28a2.48,2.48,0,0,0,.92,1.37l0-.22A2.38,2.38,0,0,1,28.14,30.68Z"/><path class="cls-41" d="M30.57,27.64a2.37,2.37,0,0,1,1.71.89l.09-.12a2.5,2.5,0,0,0-1.79-.92,2.56,2.56,0,0,0-2.21,1.05l0,.22A2.4,2.4,0,0,1,30.57,27.64Z"/><path class="cls-41" d="M28,29.89a2.3,2.3,0,0,1,.37-1.13l0-.22a2.58,2.58,0,0,0-.48,1.34,2.2,2.2,0,0,0,.1.81h.15A2.1,2.1,0,0,1,28,29.89Z"/><path class="cls-41" d="M34,29.94a2.91,2.91,0,0,1,.12-.39l-.33-.07.07.42Z"/><path class="cls-41" d="M33.05,29.5a2.6,2.6,0,0,1,.05.39,1.9,1.9,0,0,1,.53,0v-.41A2.73,2.73,0,0,0,33.05,29.5Z"/><path class="cls-41" d="M33.76,29.89h.11l-.07-.42h-.07Z"/><path class="cls-41" d="M33.71,29.47h-.09v.41h.11Z"/><path class="cls-41" d="M33.71,29.47l0,.41h0l0-.41Z"/><path class="cls-41" d="M34.15,30a1.87,1.87,0,0,1,.13-.4l-.15,0a2.91,2.91,0,0,0-.12.39Z"/><path class="cls-41" d="M34.17,30l.12-.39h0a1.87,1.87,0,0,0-.13.4Z"/><path class="cls-41" d="M32.91,29.53a2.45,2.45,0,0,1,0,.38l.15,0a2.6,2.6,0,0,0-.05-.39Z"/><path class="cls-41" d="M32.9,29.91H33a2.45,2.45,0,0,0,0-.38h-.06Z"/><polygon class="cls-41" points="25.38 29.85 25.68 30.17 25.83 30.15 25.93 29.76 25.38 29.85"/><path class="cls-41" d="M27.81,29.45l-1.88.31-.1.39,1.92-.34A2.25,2.25,0,0,1,27.81,29.45Z"/><path class="cls-41" d="M27.86,29.79l.05-.35h-.1a2.25,2.25,0,0,0-.06.36Z"/><path class="cls-36" d="M10.61,58.7a2.2,2.2,0,0,1,1.82-1q1.77.3,3.48.66l.94-12.14a3.7,3.7,0,0,1-2-1c-.92,2.05-2,5.29-4.07,10.49a10,10,0,0,0-.7,4.35h.23A2.57,2.57,0,0,1,10.61,58.7Z"/><path class="cls-36" d="M16.85,46.24l.3-4c-.93.51-1.56,1.38-2.3,3A3.7,3.7,0,0,0,16.85,46.24Z"/><path class="cls-36" d="M17.77,41.94a3.53,3.53,0,0,0-.56.25l.79-.33Z"/><path class="cls-36" d="M17.87,58.8l-.11,0a54.78,54.78,0,0,0,3.11-11.45,54.78,54.78,0,0,1-3.11,11.45l.11,0a94.44,94.44,0,0,0,3.5-12.89,10.25,10.25,0,0,1-4.52.33l-.94,12.14,1.95.44Z"/><path class="cls-36" d="M21.37,45.91c.11-.53.22-1.07.32-1.61a2.83,2.83,0,0,0-.86-2.25A3.16,3.16,0,0,0,18,41.86l-.79.33-.06,0-.3,4A10.25,10.25,0,0,0,21.37,45.91Z"/><path class="cls-36" d="M17.28,60.41l6.29.27-5.45-1.8-.26-.06C17.67,59.35,17.48,59.89,17.28,60.41Z"/><path class="cls-36" d="M24.29,60.71a62.53,62.53,0,0,0-6.17-1.83l5.45,1.8Z"/><path class="cls-36" d="M15.91,58.38q-1.71-.36-3.48-.66a2.2,2.2,0,0,0-1.82,1,2.57,2.57,0,0,0-.3,1.41l5.45.24Z"/><path class="cls-36" d="M17.28,60.41c.2-.52.39-1.06.58-1.59l-1.95-.44-.15,2Z"/><path class="cls-42" d="M28.54,48.75a.41.41,0,0,0-.43.39.39.39,0,0,0,.38.42.4.4,0,0,0,.43-.38A.42.42,0,0,0,28.54,48.75Z"/><path class="cls-42" d="M28.23,54a.4.4,0,0,0-.43.38.42.42,0,0,0,.38.43.41.41,0,0,0,.43-.38A.4.4,0,0,0,28.23,54Z"/><path class="cls-42" d="M27.92,59.24a.42.42,0,0,0-.43.38.41.41,0,0,0,.38.43.4.4,0,0,0,.43-.38A.39.39,0,0,0,27.92,59.24Z"/><path class="cls-29" d="M23.21,33h.06l.19,0-.05-.07Z"/><path class="cls-29" d="M24.72,29.32a3.57,3.57,0,0,1,.55.43,2.36,2.36,0,0,0-1.33-2,1,1,0,0,0,0,.18l-.57-.23a.68.68,0,0,0-.2,0A2,2,0,0,1,24.72,29.32Z"/><path class="cls-29" d="M25.3,30.44a1.92,1.92,0,0,0,0-.24L24.83,30a2.77,2.77,0,0,1,0,.5v0c.12.25.22.51.32.76A4.15,4.15,0,0,0,25.3,30.44Z"/><path class="cls-29" d="M24.77,32.11h0a.33.33,0,0,0-.08.12.27.27,0,0,1,.09-.21.13.13,0,0,1,.09,0,3.05,3.05,0,0,0,.27-.61c-.09-.22-.19-.45-.3-.67a2.87,2.87,0,0,1-1,2l.12.17A2,2,0,0,0,24.77,32.11Z"/><path class="cls-29" d="M25.27,29.75a3.57,3.57,0,0,0-.55-.43,2.76,2.76,0,0,1,.11.65l.47.23A3.4,3.4,0,0,0,25.27,29.75Z"/><path class="cls-29" d="M25.16,31.25c-.1-.25-.2-.51-.32-.76l0,.24c.11.22.21.45.3.67C25.13,31.35,25.14,31.3,25.16,31.25Z"/><path class="cls-29" d="M24.75,32a.27.27,0,0,0-.09.21.33.33,0,0,1,.08-.12h0a.61.61,0,0,1,.07-.1A.13.13,0,0,0,24.75,32Z"/><path class="cls-43" d="M21.56,30.22a3,3,0,0,1,1.11-2.28l-.1-.15a2.72,2.72,0,0,0-1.47,2.46C21,31.73,21.78,33,22.81,33a1.75,1.75,0,0,0,.4,0C22.21,32.89,21.47,31.67,21.56,30.22Z"/><path class="cls-43" d="M23.18,27.7h-.05a1.33,1.33,0,0,0-.56.1l.1.15A1.7,1.7,0,0,1,23.18,27.7Z"/><path class="cls-43" d="M22.88,32.11l.24-.14c-.36-1.26-.19-2.62.44-2.9h0a5.84,5.84,0,0,1-.92-1.12,3,3,0,0,0-1.11,2.28c-.09,1.45.65,2.67,1.65,2.78l.2-.08Z"/><path class="cls-43" d="M24.72,29.32a2,2,0,0,0-1.54-1.62,1.7,1.7,0,0,0-.51.24,5.84,5.84,0,0,0,.92,1.12A1.39,1.39,0,0,1,24.72,29.32Z"/><path class="cls-43" d="M23.76,32.72a2.87,2.87,0,0,0,1-2c-.23-.43-.48-.8-.74-.86s-.49.15-.52.1.23-.32.45-.35.59.38.84.87v0a2.77,2.77,0,0,0,0-.5,5.82,5.82,0,0,1-1.24-.91h0c-.63.28-.8,1.64-.44,2.9l.09,0Z"/><path class="cls-43" d="M24.72,29.32a1.39,1.39,0,0,0-1.13-.26,5.82,5.82,0,0,0,1.24.91A2.76,2.76,0,0,0,24.72,29.32Z"/><path class="cls-43" d="M24,29.62c-.22,0-.47.29-.45.35s.3-.15.52-.1.51.43.74.86l0-.24C24.59,30,24.3,29.59,24,29.62Z"/><path class="cls-43" d="M24.7,34.22h0a3.8,3.8,0,0,1-1.08-1.11.83.83,0,0,1-.07-.13h-.09l1.19,1.82h0l0-.57Z"/><path class="cls-43" d="M24.71,34.25l0,.57L25,35C24.9,34.75,24.8,34.5,24.71,34.25Z"/><path class="cls-43" d="M23.88,32.89a1,1,0,0,1-.33.09.83.83,0,0,0,.07.13,3.8,3.8,0,0,0,1.08,1.11l0-.1Z"/><path class="cls-43" d="M27.26,36.1l.32.16A.64.64,0,0,1,27.9,36l-3-1.71,0,0-.14-.07h0v0Z"/><path class="cls-43" d="M24.71,34.23v0c.09.25.19.5.29.73l2.26,1.12Z"/><path class="cls-43" d="M24.73,34.12l0,.1.14.07Z"/><path class="cls-43" d="M23.5,32.89l-.09,0,.05.07h.09Z"/><path class="cls-43" d="M23.76,32.72a1.06,1.06,0,0,1-.26.17l.05.09a1,1,0,0,0,.33-.09Z"/><path class="cls-43" d="M22.88,32.11l.53.81.09,0a4.35,4.35,0,0,1-.38-.92Z"/><path class="cls-43" d="M23.21,31.92l-.09,0a4.35,4.35,0,0,0,.38.92,1.06,1.06,0,0,0,.26-.17Z"/><path class="cls-29" d="M27.94,36.44l-.36-.18s0,0,0,.05l1.38,1a.64.64,0,0,0,.3-.38.62.62,0,0,0-.44-.77L28.25,36a.59.59,0,0,0-.35,0l.16.09Z"/><path class="cls-29" d="M27.48,36.46a.73.73,0,0,0,0,.36l.64.47.32.08a.64.64,0,0,0,.47,0l-1.38-1S27.5,36.4,27.48,36.46Z"/><path class="cls-29" d="M27.92,37.23l.22.06-.64-.47A.64.64,0,0,0,27.92,37.23Z"/><path class="cls-29" d="M27.58,36.26l.36.18.12-.31L27.9,36A.64.64,0,0,0,27.58,36.26Z"/><path class="cls-43" d="M33.43,19.85l-.23-.07a8.81,8.81,0,0,0-2.59-.19l.31.2A8.48,8.48,0,0,1,33.43,19.85Z"/><path class="cls-43" d="M25.22,22.47A9.9,9.9,0,0,0,23.33,27l.65-.16a8.89,8.89,0,0,1,1.65-4.12,7.51,7.51,0,0,1,5.29-3l-.31-.2A7.31,7.31,0,0,0,25.22,22.47Z"/><path class="cls-43" d="M23.94,27.73a5.49,5.49,0,0,1,0-.85l-.65.16a3.31,3.31,0,0,0,0,.62l.06,0,.21,0A1.36,1.36,0,0,1,23.94,27.73Z"/><path class="cls-43" d="M23.94,27.73a1.36,1.36,0,0,0-.35-.07l-.21,0,.57.23A1,1,0,0,1,23.94,27.73Z"/><path class="cls-37" d="M56,52.3l1.1-.79c.79.34,2.45-1.07,3.89-2a8.92,8.92,0,0,0,2.73-1.69.61.61,0,0,0,0-.3.67.67,0,0,0-.2-.22c-.3-.2-1,.18-1.39.38a9.28,9.28,0,0,1-1.48.61c1.57-1.13,2.7-2,2.94-2.19a.52.52,0,0,0,.2-.37.59.59,0,0,0-.06-.34.73.73,0,0,0-.35-.24.48.48,0,0,0-.45.12L59.93,47l2.92-2.36c.07-.06.29-.22.25-.46a.52.52,0,0,0-.12-.26.78.78,0,0,0-.3-.22.54.54,0,0,0-.46.1c-.32.22-1.54,1-3.2,2.08l2.23-2.59c0-.06.24-.28.16-.46a.8.8,0,0,0-.18-.19,1.2,1.2,0,0,0-.3-.16.58.58,0,0,0-.5.17c-1.52,1.32-2.28,2-2.49,2.18A9.31,9.31,0,0,1,56.54,46l-.24-.26a3.12,3.12,0,0,0,0-2.07c-.39-.47-.7-.7-.82-.4a3.74,3.74,0,0,1-.71,1.83,4.8,4.8,0,0,1-.39,2,1.78,1.78,0,0,0,.15,1.48,4.8,4.8,0,0,0-1.06.68Z"/><path class="cls-38" d="M56.54,46a3,3,0,0,1,.78,3.2,2.29,2.29,0,0,0,.33-2.69,2.91,2.91,0,0,1-.29-1.12"/><polygon class="cls-38" points="59.26 45.86 59.98 46.76 59.88 46.85 59.19 45.88 59.26 45.86"/><polygon class="cls-38" points="60.04 47.08 60.76 47.98 60.66 48.07 59.97 47.1 60.04 47.08"/><polygon class="cls-38" points="60.79 48.37 61.25 49.2 61.15 49.25 60.73 48.37 60.79 48.37"/><polygon class="cls-38" points="58.29 44.86 58.98 45.54 58.91 45.63 58.24 44.88 58.29 44.86"/><path class="cls-36" d="M33.29,45.6c-1,2.53.73,4.11,5.68,12.65a8,8,0,0,0,2.76,2.81c2.42,1.75,6.17-.7,5.77-3.73a71.22,71.22,0,0,0-10-13.59,2.58,2.58,0,0,0-2.19-.49A3.74,3.74,0,0,0,33.29,45.6Z"/><path class="cls-36" d="M42.5,61.27c2.41.68,3.88-.93,11.87-5.87a8.3,8.3,0,0,0,1.38-1.07c.58-.57,1.43-1.15,1.23-1.55a11.66,11.66,0,0,0-3.28-4.32,72,72,0,0,0-13.05,9.28,2.18,2.18,0,0,0-.42,1.95C40.61,60.74,42.06,61.15,42.5,61.27Z"/><path class="cls-44" d="M26.27,40.6c-2.29,6.28-2.09,13.79-.46,22-1.35.42-3.14,1.53-5.61.17.05-10.14-.58-18.07,1.49-22.32Z"/><path class="cls-45" d="M32.61,39.75c-.82-.22-1.28.48-2.83.71A6.89,6.89,0,0,1,27,40.23a6.56,6.56,0,0,1-2.33-1.13A11.55,11.55,0,0,0,23.21,38a1.61,1.61,0,0,0-2.11.16,2.78,2.78,0,0,0-.93,1.77c0,.57-.48,1-.23,1.44a3.13,3.13,0,0,0,.83.89c1.08.84,2.25.9,4.69,1.37a9.29,9.29,0,0,0,3.87.27c2.52-.13,4.62-1.55,4.37-2.94A1.52,1.52,0,0,0,32.61,39.75Z"/><path class="cls-46" d="M25.79,42.4a19.68,19.68,0,0,1-5.72-2"/><path class="cls-46" d="M33.59,40.57a6.18,6.18,0,0,1-2.05,1.11"/></g><use width="142.24" height="162.6" transform="translate(41.2 2.14) scale(0.21 0.18)" xlink:href="#dialog-small"/><use width="60.71" height="48.24" transform="translate(46.87 7.43) scale(0.27)" xlink:href="#calendar-symbol_2"/><path class="cls-47" d="M72.35,7.81C68.78,13.09,60.56,7.17,64.29,2S76.23,2.74,72.35,7.81Z"/><path class="cls-48" d="M71.15,7.87c-3.57,5.28-11.78-.64-8.06-5.81S75,2.54,71.15,7.87Z"/><text class="cls-49" transform="translate(64.61 7.81) rotate(0.1)">?</text><path class="cls-50" d="M54.53,15.05A1.73,1.73,0,0,0,54,17.16a1.66,1.66,0,0,0,2.21.74c.7-.47.64-1.84,0-2.58a2.14,2.14,0,0,0-2.71-.18"/><g id="dialog"><path class="cls-6" d="M85.59,47.43l.11-13.11L90,30.6l-4.29,0-18-.15a2,2,0,0,0-2,2L65.62,47a2.52,2.52,0,0,0,2.5,2.53l15.18.12A2.28,2.28,0,0,0,85.59,47.43Z"/><path class="cls-51" d="M83.88,47.43,84,34.32l4.33-3.72-4.3,0-18-.15a2,2,0,0,0-2,2L63.92,47a2.51,2.51,0,0,0,2.49,2.53l15.18.12A2.27,2.27,0,0,0,83.88,47.43Z"/><circle class="cls-52" cx="73.88" cy="40.17" r="5.99"/><polyline class="cls-53" points="70.21 40.51 72.15 42.63 77.38 37.28"/></g></g></g></g></g></g></svg>