<?xml version="1.0" encoding="utf-8"?>
<!-- Generator: Adobe Illustrator 26.0.1, SVG Export Plug-In . SVG Version: 6.00 Build 0)  -->
<svg version="1.1" id="Layer_1" xmlns="http://www.w3.org/2000/svg" xmlns:xlink="http://www.w3.org/1999/xlink" x="0px" y="0px"
	 viewBox="0 0 119.5 100.6" style="enable-background:new 0 0 119.5 100.6;" xml:space="preserve">
<style type="text/css">
	.st0{fill:#FFFFFF;}
	.st1{fill:#999999;}
	.st2{fill:#CCCCCC;}
	.st3{fill:#227868;}
	.st4{fill:#FF0000;}
	.st5{fill:#FFFF00;}
	.st6{fill:#39B54A;}
	.st7{opacity:0.86;}
	.st8{clip-path:url(#SVGID_00000129178598821892514630000002814034642304760964_);}
	.st9{fill:url(#SVGID_00000103976639721363061680000017875360741863699341_);}
	.st10{fill:#D4BFA1;}
	.st11{fill:#7E7494;}
	.st12{fill:url(#SVGID_00000170979965418663672510000003041140926757389726_);}
	.st13{fill:#0095BF;}
	.st14{fill:#F8C7A3;}
	.st15{fill:#E3B696;}
	.st16{fill:#0083A8;}
	.st17{fill:#412A74;}
	.st18{fill:none;stroke:#2E3192;stroke-linecap:round;stroke-miterlimit:10;}
	.st19{fill:#635F78;}
	.st20{fill:url(#SVGID_00000183216673179634813880000016800046325171298701_);}
	.st21{fill:none;stroke:#5967A8;stroke-miterlimit:10;}
	.st22{fill:#F5FFE5;}
	.st23{fill:#E0F1C4;}
	.st24{fill:#5D2D56;}
	.st25{opacity:0.27;fill:#C66B8B;enable-background:new    ;}
	.st26{opacity:0.22;fill:none;stroke:#1B1464;stroke-width:2;stroke-miterlimit:10;enable-background:new    ;}
	.st27{font-family:'Arial';font-weight: 700;}
	.st28{font-size:6.3559px;}
	.st29{font-size:4.2373px;}
</style>
<symbol  id="screen-laptop-govuk" viewBox="-98 -55.4 196 110.9">
	<path class="st0" d="M-97.8,55.4V-55.2H98V55.4H-97.8z"/>
	<rect x="-98" y="-55.4" class="st1" width="196" height="11.6"/>
	<rect x="-98" y="-43.6" width="196" height="30.6"/>
	<text transform="matrix(1 0 0 1 -34.7349 -22.1504)" class="st0 st27" style="font-size:18.23px;">GO</text>
	<text transform="matrix(1 0 0 1 -6.3848 -22.1504)" class="st0 st27" style="font-size:18.23px; letter-spacing:-1;">V</text>
	<text transform="matrix(1 0 0 1 4.105 -22.1504)" class="st0 st27" style="font-size:18.23px;">.UK</text>
	<rect x="-85" y="12.2" class="st2" width="165.9" height="4.1"/>
	<rect x="-56.9" y="18.8" class="st2" width="106" height="4.1"/>
	<rect x="-58.3" y="26.7" class="st3" width="113.9" height="21"/>
	<path class="st0" d="M-77.5-38.4l0.8,2l0,0c-0.1,0-0.3,0.1-0.3,0.2c0,0,0,0,0,0l0,0l-1.5-0.5v2.5l1.5-1l0,0c0,0.1,0.1,0.2,0.2,0.2
		c0,0,0,0,0,0l-1,3.1l0,0v0.5c0,0.8,0.8,1.3,1.3,1.5h0.5c0.8-0.1,1.3-0.8,1.3-1.5v-0.5l0,0l-1-3.1c0.1,0,0.3-0.1,0.3-0.2
		c0,0,0,0,0,0l0,0l1.5,1v-2.5l-1.5,0.5l0,0c0-0.1-0.1-0.3-0.2-0.3c0,0,0,0-0.1,0l0,0l0.8-2H-77.5z M-83.6-35.4c-0.6,0-1.1,0.4-1.3,1
		c-0.2,0.8,0,1.3,0.8,1.8c0.8,0.3,1.3,0,1.8-0.8c0.3-0.8,0-1.3-0.8-1.8C-83.1-35.4-83.4-35.4-83.6-35.4z M-68.8-35.4h-0.5
		c-1,0.1-1.7,1.1-1.6,2.1c0.1,1,1.1,1.7,2.1,1.6s1.7-1.1,1.6-2.1C-67.4-34.7-68-35.3-68.8-35.4z M-80.3-34.1c-0.6,0-1.1,0.4-1.3,1
		c-0.2,0.8,0,1.3,0.8,1.8c0.8,0.2,1.3,0,1.8-0.8c0.3-0.8,0-1.3-0.8-1.8C-79.8-34.1-80-34.1-80.3-34.1z M-72.1-34.1h-0.5
		c-1,0.1-1.7,1.1-1.6,2.1c0.1,1,1.1,1.7,2.1,1.6c1-0.1,1.7-1.1,1.6-2.1C-70.7-33.3-71.3-34-72.1-34.1z M-86.7-33.6
		c-0.6,0-1.1,0.4-1.3,1c-0.3,0.8,0,1.3,0.8,1.8c0.8,0.2,1.3,0,1.8-0.8c0.3-0.8,0-1.3-0.8-1.8C-86.2-33.6-86.4-33.6-86.7-33.6z
		 M-65.8-33.6h-0.5c-0.7,0.3-1.1,1-0.8,1.8c0.3,0.7,1,1.1,1.8,0.8c0,0,0,0,0.1,0c0.7-0.2,1.1-1,0.8-1.7
		C-64.6-33.3-65.2-33.7-65.8-33.6L-65.8-33.6z M-87.7-30.1c-0.6,0-1.1,0.4-1.3,1c-0.3,0.8,0,1.3,0.8,1.8c0.8,0.3,1.3,0,1.8-0.8
		c0.2-0.8,0-1.3-0.8-1.8C-87.2-30.1-87.4-30.1-87.7-30.1z M-64.8-30.1h-0.5c-0.7,0.3-1.1,1-0.8,1.8c0.3,0.7,1,1.1,1.8,0.8
		c0,0,0,0,0.1,0c0.7-0.3,1-1.1,0.8-1.8C-64-29.8-64.2-30.1-64.8-30.1z M-82.8-29.8c-1.3,1.3-1,2.8,0.5,4.1c-1-0.5-2.3,0-1.3,1.5
		c0.5-1.3,1.3-1,1.5,0c0.2,0.8-0.3,1.3-1.3,1.5c-0.8,0.2-1.8-0.3-2.6-2c0.5,0,1,0.3,1.3,0.8l-1-3c-0.3,1-0.5,1.3-1,1.5
		c-0.2-0.6-0.2-1.4,0-2l-1.8,0.8c1,1.3,1.8,3.3,2.8,6.4c2.9-0.5,5.9-0.8,8.9-0.8c3,0,6,0.2,8.9,0.8c0.8-3.4,1.5-5.2,2.8-6.5
		l-1.8-0.8c0.2,0.6,0.2,1.4,0,2c-0.4-0.5-0.7-1-1-1.5l-0.5,3c0.3-0.4,0.8-0.6,1.3-0.7c-1,1.8-1.8,2.3-2.5,2
		c-0.7-0.1-1.3-0.8-1.3-1.5c0.3-1,1.3-1.3,1.5,0c1-1.5-0.5-2.3-1.3-1.5c1.3-1.3,1.5-2.5,0.5-4.1c-1.5,1.3-1.5,2.3-1,3.8
		c-1-1.3-2.3-0.5-1.8,1.3c0.8-1,1.5-0.5,1.3,0.8c0,1-1.3,1.5-2.6,1.3c-2-0.3-2-1.5-2-2.8c0.8,0.2,1.5,0.6,2,1.3l0.3-3.3
		c-0.5,0.7-1.4,1.1-2.3,1c0.3-0.9,0.9-1.6,1.5-2.3H-78c0.7,0.7,1.2,1.5,1.5,2.4c-0.9,0-1.7-0.3-2.3-1l0.2,3.3c0.3-0.8,1.1-1.3,2-1.3
		c0,1.3-0.3,2.5-2,2.8c-1.3,0.2-2.5-0.6-2.5-1.4c-0.2-1,0.8-1.5,1.3-0.8c0.5-1.5-1-2.3-1.8-1.3C-81-27.5-81-28.8-82.8-29.8
		L-82.8-29.8z"/>
	<path class="st0" d="M91.7-51.3h-0.8v-1c0-0.2-0.2-0.4-0.4-0.4h-10v6.1h10c0.2,0,0.4-0.2,0.4-0.4v-1h0.8c0.2,0,0.4-0.2,0.4-0.4
		v-2.3C92.1-51.3,91.9-51.3,91.7-51.3z M90.1-47.4h-8.8V-52h8.8V-47.4z M91.3-48.9h-0.4v-1.7h0.4V-48.9z"/>
	<path class="st0" d="M88.6-47.9h-6.9v-3.5h6.9V-47.9z"/>
	<circle class="st4" cx="-89" cy="-50" r="2.8"/>
	<circle class="st5" cx="-79.5" cy="-49.9" r="2.8"/>
	<circle class="st6" cx="-69.6" cy="-49.9" r="2.8"/>
</symbol>
<g>
	<g id="Layer_2_00000141424674028481765010000003523405937735464119_">
		<g id="MainLayer">
			<g id="stories" class="st7">
				<g id="retirementgroup">
					<g id="retirement3">
						<g>
							<defs>
								<circle id="SVGID_1_" cx="48" cy="53.7" r="45.2"/>
							</defs>
							<clipPath id="SVGID_00000161592479846478561100000008184069631583696029_">
								<use xlink:href="#SVGID_1_"  style="overflow:visible;"/>
							</clipPath>
							<g style="clip-path:url(#SVGID_00000161592479846478561100000008184069631583696029_);">
								
									<linearGradient id="SVGID_00000003787155890815490970000008830772360231746460_" gradientUnits="userSpaceOnUse" x1="48.0317" y1="-4.3356" x2="48.0317" y2="99.9267" gradientTransform="matrix(1 0 0 -1 0 101.536)">
									<stop  offset="0.18" style="stop-color:#CEDCC8"/>
									<stop  offset="0.24" style="stop-color:#D4E0CE"/>
									<stop  offset="0.53" style="stop-color:#EBF1E9"/>
									<stop  offset="0.8" style="stop-color:#FAFBF9"/>
									<stop  offset="1" style="stop-color:#FFFFFF"/>
								</linearGradient>
								<circle style="fill:url(#SVGID_00000003787155890815490970000008830772360231746460_);" cx="48" cy="53.7" r="52.1"/>
								<polygon class="st10" points="-0.2,85.9 117.9,68.9 117.9,102.7 13.3,108.7 								"/>
								<path class="st11" d="M44.1,88.8l-15.3-6.4v-1.1h41.6l20.4,5.6l0.1,2.1l-43.1,0.5C46.5,89.5,45.2,89.3,44.1,88.8z"/>
								
									<linearGradient id="SVGID_00000111171283114622483820000013814587426408900523_" gradientUnits="userSpaceOnUse" x1="54.742" y1="58.2006" x2="54.8811" y2="50.6677" gradientTransform="matrix(1 0 0 -1 4.95 137.996)">
									<stop  offset="0.8" style="stop-color:#8D82A6"/>
									<stop  offset="1" style="stop-color:#554E63"/>
								</linearGradient>
								<path style="fill:url(#SVGID_00000111171283114622483820000013814587426408900523_);" d="M44,86.8l-15.3-6.4l41.6-1.1
									L90.8,87l-43.1,0.5C46.4,87.5,45.2,87.2,44,86.8z"/>
								<path class="st13" d="M42.2,54.2L45.6,81c-8,4.6-17.6,4.1-28.3,0.1l-3.6-26.9C24.3,48.9,33.7,49.3,42.2,54.2z"/>
								<polygon class="st13" points="41.2,68.2 58.3,73.6 60.3,69.4 42.1,54.2 								"/>
								<path class="st14" d="M24.5,42.4l-0.2,11.1c1.4,1.3-0.2-0.1,4.4,1.7c1.3,0.9,7,0.8,7.3-0.1L34.6,49L24.5,42.4z"/>
								<path class="st15" d="M35.1,53.7c-6.6-0.1-9.8-4.2-10.5-8.7l9.7,5.5L35.1,53.7z"/>
								<path class="st16" d="M32.7,55.8l3,4.6c1.9-2.4,2.4-5.7,1.3-8.6c-0.6-0.4-1.2-1.2-2-1.3C35.1,53.8,34.5,55.7,32.7,55.8z"/>
								<path class="st16" d="M24.3,48.2c1.4,5.6,4.1,7.8,8.4,7.5l-3.4,5.6c-3.6-2.6-6.7-6.1-6.7-10.7L24.3,48.2z"/>
								<path class="st14" d="M30.1,26.3c-6.3,4.7-10.1,21.2,0.2,25c8.1,4.5,9.8-5.7,11.5-13.6C44.2,29.4,37.1,23.6,30.1,26.3z"/>
								<path class="st17" d="M33.2,38.9c-0.5,1.6-2.2,1-1.7-0.5C32,36.9,33.7,37.5,33.2,38.9z"/>
								<path class="st17" d="M39.2,40.6c-0.5,1.6-2.2,1-1.7-0.5S39.7,39.1,39.2,40.6z"/>
								<polygon class="st15" points="33.7,43.1 35.5,43.1 36.4,38.9 36.5,38.9 36,43.9 33.7,43.2 								"/>
								<polygon class="st17" points="35.3,43.1 36.3,38.7 36.4,38.8 35.5,43.3 								"/>
								<path class="st18" d="M38.6,37.7c0.7-0.2,1.4,0,1.8,0.5"/>
								<path class="st18" d="M32.2,35.7c0.7-0.2,1.4,0,1.9,0.5"/>
								<path class="st19" d="M24.6,34.7c1.4-2.9,0.6-4.4,3.6-7.5c1.8-1.8,4.5-2.3,6.9-1.5c0.6-0.1,1.3-0.1,1.9,0.1
									c0.8,0.3,1.6,1.1,1.9,1.2c2.1,0.5,3.4,0.1,3.6,0.5c0,0,2.3,2.6,2.4,2.7c0.3,0.6-3,1.5-3.1,1.6s-1.3-1.3-1.7-1.3
									c-0.8,0.1-1.7,0-2.5-0.2c-1.3-0.4-1.4-0.5-2.6-0.8c-1.7-0.4-2.7-0.7-3.5-0.2c-0.5,0.5-0.8,1.1-0.9,1.8c-0.5,2-1.3,4-2.4,5.8
									l-1.7,0.1L24.6,34.7z"/>
								<path class="st14" d="M23.5,38.8c-1.3-5.1,3-6.8,3.7-1.3C27,41.2,24.2,42,23.5,38.8z"/>
								<path class="st15" d="M24.4,35.1c1.4-0.4,1.4,2.8,1.5,3.3c-0.1-0.2-0.8-0.8-1-0.2c0.2-0.4,1,0.1,1,0.2
									c0,0.1,0.1-3.5-0.9-3.6C24.7,34.8,24.3,35,24.4,35.1z"/>
								<path class="st15" d="M33.3,40.3c-1.7,1-2.6,0.6-3-0.7c0.8,0.9,2.2,1,3.1,0.2L33.3,40.3z"/>
								<path class="st15" d="M36.9,41.3c0.4,1.8,1.1,1.9,2,1.1c-1,0.3-1.6-0.2-1.8-1.4L36.9,41.3z"/>
								<path class="st19" d="M37.2,48.2c0.7,1.1,2.6-1.6,2.7-2.2c-0.1,0.6-1.2,3.8-1.4,4.3c-0.3,0.7-0.7,1.3-1.3,1.8
									c-0.6,0.5-1.3,0.8-2.1,0.9c-1.2,0.1-2.5-0.1-3.6-0.5c-1.8-0.6-3.5-1.7-4.8-3c-1.1-1-1.9-2.3-2.1-3.8c0-1.5,0.7-2,1.4-4.1
									c0.6-1.8,0.9-3.7,0.8-5.5l2.1-1.6c-0.3,1.8-2,7.3-0.6,10.3c0.6,1.1,1.1,1.3,1.3,1.3c1,0.1,1.3-1.6,2.7-2.1
									c1.5-0.5,3.2,0,4.1,1.3C37.1,46.2,36.5,47.1,37.2,48.2z"/>
								<path class="st13" d="M10.4,56.4c-1.9,3-0.4,5.9,3.8,19.6c0.7,2.5,0.4,2.9,1.6,4.3c2.7,3.4,9.6,2.3,9.9-2
									c-2.1-7.4-5.8-14.1-9.9-21.9c-0.3-0.4-0.4-2.3-1.7-2.3C12.2,54.1,10.7,55.8,10.4,56.4z"/>
								<path class="st14" d="M39.4,76.6c1.4-0.3,2.9-0.2,4.2,0.2c2.3,0.7,4.7,3,4.1,4.6c-0.4,1.1-1.9,1.6-3,2
									c-1.9,0.6-4,0.5-5.9-0.3c-0.9-0.4-1.8-0.9-2.5-1.6L39.4,76.6z"/>
								<path class="st13" d="M17.9,80.8c0.3,0.4,0.7,0.8,1.2,1.1c0.6,0.4,3.1,2,10.4,2.7c0,0,1.9,0.1,5.7,0.2c0.5,0,1.1,0,1.6-0.1
									c0.7-0.1,1.3-0.1,1.7-0.2c1.4-2.3,1.2-5.2,0.9-8.2c-3,0.1-6.1,0-9.4-0.1c-4-0.2-7.8-0.6-11.2-1.1c-0.9,0.3-1.6,1-1.9,1.9
									C16.6,78.2,17,79.7,17.9,80.8z"/>
								
									<linearGradient id="SVGID_00000094584985650409349020000013846830246598407824_" gradientUnits="userSpaceOnUse" x1="64.1012" y1="82.1584" x2="64.7004" y2="51.5132" gradientTransform="matrix(1 0 0 -1 4.95 137.996)">
									<stop  offset="0.43" style="stop-color:#7E7494"/>
									<stop  offset="1" style="stop-color:#625A73"/>
								</linearGradient>
								<path style="fill:url(#SVGID_00000094584985650409349020000013846830246598407824_);" d="M90,54.7H52c-2.8,0-5,2.6-5,5.8
									l-3.6,24.6c-0.1,0.9,0.6,1.7,1.6,1.8h44.8c0.9-0.1,1.6-0.9,1.6-1.8l4-24.4C95.4,57.5,93,54.7,90,54.7z"/>
								<path class="st0" d="M65.8,70.8c0.1,0.9,2.2,1.6,3.8,1.7c1.6,0.1,3.8-0.1,4.2-1.1c0.4-0.9-1.3-1.6-1.1-3.2
									c0.1-1.1,1.1-1.3,0.9-2c-0.4-1.1-3.5-1.9-4.4-1.2c-0.7,0.5,0.4,1.3-0.1,2.7C68.5,69.5,65.7,69.7,65.8,70.8z"/>
								<path class="st0" d="M71.2,65.1c0.5-0.3,0.7-0.9,0.4-1.5c0-0.1-0.1-0.1-0.1-0.2h-0.2l-0.1-0.2c0.2-0.1,0.5-0.2,0.7-0.1
									c0.1,0.1,0.2,0.2,0.2,0.4c0,0,0,0,0,0c0,0.1-0.1,0.1-0.2,0c0,0,0,0,0,0c0.3,0.6,0.2,1.3-0.3,1.7L71.2,65.1z"/>
								<path class="st21" d="M13.6,73.6c0.4,3,1.3,5.9,2.8,7.6c6.9,3,14.5,4.2,22,3.3c1.2-1.1,1.5-3.9,1-8.2
									c-6.6,0.1-12.6-0.1-16.9-1.7c-0.8-4.5-2.3-8.8-4.4-12.8"/>
								<path class="st21" d="M19.7,60.1c-0.5,1.1-0.7,2.3-0.6,3.5"/>
								<path class="st22" d="M42.7,86.1c-1.5,0-2.7,1.6-2.7,3.4c0,1.8,1.2,3.4,2.7,3.4c1.6,0,2.7-1.6,2.7-3.4S44.2,86.1,42.7,86.1z
									 M42.7,91.8c-1.3-0.3-2.1-1.6-1.8-2.8c0.2-0.9,0.9-1.6,1.8-1.8c1.3,0.3,2.1,1.5,1.8,2.8C44.3,90.9,43.6,91.6,42.7,91.8z"/>
								<path class="st22" d="M33.1,85.6c-0.3,4.2-0.4,8.2,2.7,9c0.1,0.1-0.5,0.4,2.2,0.4c2.7,0,2.2-0.1,2.2-0.4
									c3.5-1.5,2.8-5.3,2.7-9H33.1z"/>
								<path class="st23" d="M36.1,94.6c-1-0.2-1.6-0.5-1.6-0.8c-1.6-1.4-1.6-4.8-1.3-8.2h1.4C34.5,89.1,34.5,92.3,36.1,94.6z"/>
								<ellipse class="st22" cx="38.1" cy="85.6" rx="5" ry="1.1"/>
								<path class="st23" d="M41.9,86c0.2,0,0.3-0.2,0.3-0.4c0-0.5-1.9-1-4.1-1c-2.3,0-4.1,0.4-4.1,1c0,0.1,0.1,0.2,0.3,0.4
									c1.2-0.5,2.5-0.7,3.8-0.6C39.3,85.3,40.6,85.5,41.9,86z"/>
								<path class="st24" d="M41.9,86c-1.2-0.5-2.5-0.7-3.8-0.6c-1.3-0.1-2.6,0.1-3.8,0.6c1.2,0.5,2.5,0.7,3.8,0.6
									C39.4,86.6,40.6,86.4,41.9,86z"/>
								<path class="st25" d="M38.2,83.6c-0.3-0.7-0.4-1.5-0.3-2.2c0.3-1.7,1.5-2.2,1.6-3.6c0-1-0.5-1.9-1.3-2.4
									c0.3,0.8,0.4,1.6,0.3,2.4c-0.3,1.7-1.6,2.3-1.6,3.6C37,82.3,37.4,83.1,38.2,83.6z"/>
								<path class="st25" d="M36.7,79.4c0.5-0.8,0.5-1.8-0.1-2.6c-0.3-0.3-0.7-0.5-1.1-0.4c-0.5,0.1-0.8,0.7-0.9,1.1
									c-0.1,0.6,0.1,1.1,0.6,1.5c-0.8-0.3-1.2-1.2-1.1-2c0.1-0.6,0.5-1,1.1-1.3c1.1-0.2,2.2,0.5,2.4,1.6c0.2,0.9-0.3,1.7-1,2.1
									L36.7,79.4z"/>
							</g>
						</g>
						<circle class="st26" cx="48" cy="53.7" r="45.8"/>
						
							<use xlink:href="#screen-laptop-govuk"  width="196" height="110.9" x="-98" y="-55.4" transform="matrix(0.3424 0 0 0.3424 84.7276 20.0645)" style="overflow:visible;"/>
						<text transform="matrix(1 0 0 1 55.2444 22.4325)" class="st27 st28">Y</text>
						<text transform="matrix(1 0 0 1 59.011 22.4325)" class="st27 st28">our State Pension</text>
						<text transform="matrix(1 0 0 1 67.4642 34.1278)" class="st0 st27 st29">Report a Change</text>
					</g>
				</g>
			</g>
		</g>
	</g>
</g>
</svg>
