<svg xmlns="http://www.w3.org/2000/svg" xmlns:xlink="http://www.w3.org/1999/xlink" viewBox="0 0 72.58 71.32"><defs><style>.cls-1{fill:#c79459;}.cls-2{fill:#ebc8c8;}.cls-3{fill:#ebd1d1;}.cls-4{fill:#ffb302;}.cls-5{fill:#424242;}.cls-6{fill:#eb2700;}.cls-7{fill:#a37949;}.cls-8{font-size:8.76px;}.cls-19,.cls-24,.cls-8,.cls-9{fill:#fff;}.cls-19,.cls-24,.cls-8{font-family:Arial-BoldMT, Arial;font-weight:700;}.cls-10{fill:#d14f4f;}.cls-11{fill:#ffd54a;}.cls-12{fill:#b5a9b0;opacity:0.44;}.cls-13{fill:#31ab94;}.cls-14{fill:#a8a8a8;}.cls-15{fill:#d4d3d6;}.cls-16{fill:#add9d1;}.cls-17{fill:#a66ca8;}.cls-18{fill:#b487b4;}.cls-19{font-size:31.57px;}.cls-20{fill:#298f7c;}.cls-21{opacity:0.86;}.cls-22{fill:url(#linear-gradient);}.cls-23,.cls-31{fill:none;stroke-miterlimit:10;}.cls-23{stroke:#1b1464;stroke-width:2px;opacity:0.22;}.cls-24{font-size:10.09px;}.cls-25{letter-spacing:-0.02em;}.cls-26{fill:#3790a8;}.cls-27{fill:#f8c7a3;}.cls-28{fill:#e3b696;}.cls-29{fill:#0083a8;}.cls-30{fill:#412a74;}.cls-31{stroke:#2e3192;stroke-linecap:round;stroke-width:0.25px;}.cls-32{fill:#635f78;}</style><linearGradient id="linear-gradient" x1="36.92" y1="70.66" x2="36.92" y2="1.34" gradientUnits="userSpaceOnUse"><stop offset="0.38" stop-color="#cedcc8"/><stop offset="0.42" stop-color="#d4e0ce"/><stop offset="0.65" stop-color="#ebf1e9"/><stop offset="0.85" stop-color="#fafbf9"/><stop offset="1" stop-color="#fff"/></linearGradient><symbol id="hex-connector" data-name="hex-connector" viewBox="0 0 14.01 15.06"><rect class="cls-13" width="14.01" height="15.06"/></symbol><symbol id="hex-plain" data-name="hex-plain" viewBox="0 0 132.05 112.17"><polygon class="cls-13" points="101.86 106.56 91.86 112.14 30.27 5.92 40.13 0 101.18 0.79 132.05 54.07 101.86 106.56"/><polygon class="cls-16" points="91.92 112.17 30.87 111.39 0 58.11 30.18 5.62 91.24 6.4 122.11 59.68 91.92 112.17"/></symbol><symbol id="raised-tick" data-name="raised-tick" viewBox="0 0 40.24 38.15"><path class="cls-20" d="M40.23,17.69c.7,23.58-36.76,23.58-36.76,0S40.93-5.9,40.23,17.69Z"/><path class="cls-13" d="M36.76,20.46C37.46,44.05,0,44.05,0,20.46S36.76-3.82,36.76,20.46Z"/><polygon class="cls-9" points="5.51 21.98 13.24 31.2 31.27 13.89 28.34 11.13 13.38 24.96 8.7 19.44 5.51 21.98"/></symbol><symbol id="hex-green-tick" data-name="hex-green-tick" viewBox="0 0 132.05 112.17"><use width="132.05" height="112.18" xlink:href="#hex-plain"/><use width="40.24" height="38.15" transform="translate(87.72 6.67)" xlink:href="#raised-tick"/></symbol><symbol id="hex-grey" data-name="hex-grey" viewBox="0 0 132.05 112.17"><polygon class="cls-14" points="101.86 106.56 91.86 112.14 30.27 5.92 40.13 0 101.18 0.79 132.05 54.07 101.86 106.56"/><polygon class="cls-15" points="91.92 112.17 30.87 111.39 0 58.11 30.18 5.62 91.24 6.4 122.11 59.68 91.92 112.17"/></symbol><symbol id="birthday-cake" data-name="birthday-cake" viewBox="0 0 17.6 24.82"><path class="cls-1" d="M.31,13.89v7.67A1.5,1.5,0,0,0,1,23a18.58,18.58,0,0,0,15.45,0,1.54,1.54,0,0,0,.7-1.41v-7.7c0-.75-.38-1.37-.88-1.45L9,11.24h-.2l-7.6,1.19C.69,12.51.31,13.14.31,13.89Z"/><path class="cls-2" d="M15.72,9.54a31.65,31.65,0,0,0-13.8,0A1.89,1.89,0,0,0,0,11.42a1.45,1.45,0,0,0,.21,1.23,1.39,1.39,0,0,0,.49.29,3,3,0,0,1,1.37,1,3.16,3.16,0,0,1,.16,1.18c0,.49,0,.91,0,1.2a.7.7,0,0,0,1.4,0A3.52,3.52,0,0,1,4,13.9a2.2,2.2,0,0,1,.39-.46,2.3,2.3,0,0,1,1.46-.62c1.47,0,1.47,1.23,2.93,1.23s1.46-1.23,2.92-1.23,1.47,1.23,2.93,1.23a2.21,2.21,0,0,0,.69-.11,3.11,3.11,0,0,0,2-1.19,2.22,2.22,0,0,0,.27-1.33A1.88,1.88,0,0,0,15.72,9.54Z"/><path class="cls-3" d="M15.72,9.54a31.65,31.65,0,0,0-13.8,0A1.9,1.9,0,0,0,.15,10.79C1.47,11.48,4.84,12,8.79,12s7.4-.5,8.68-1.19A1.86,1.86,0,0,0,15.72,9.54Z"/><path class="cls-4" d="M7.57,2.43A2.93,2.93,0,0,1,8.89,0a3,3,0,0,1,1.32,2.43c0,1-.59,1.8-1.32,1.8s-1.32-.8-1.32-1.8Z"/><path class="cls-5" d="M8.89,3.43a.34.34,0,0,0-.34.34v1.8h.68V3.77A.34.34,0,0,0,8.89,3.43Z"/><path class="cls-6" d="M9.34,5.12h-.9A.45.45,0,0,0,8,5.57V9.43a1.65,1.65,0,0,0,1.8,0V5.57A.45.45,0,0,0,9.34,5.12Z"/><circle class="cls-7" cx="2.05" cy="19.46" r="0.35"/><circle class="cls-7" cx="14.49" cy="20.81" r="0.35"/><circle class="cls-7" cx="15.99" cy="17.03" r="0.35"/><circle class="cls-7" cx="1.18" cy="16.45" r="0.35"/><circle class="cls-7" cx="5.36" cy="21.34" r="0.35"/><text class="cls-8" transform="translate(3.85 21.52)">66</text></symbol><symbol id="calendar-symbol" data-name="calendar-symbol" viewBox="0 0 60.71 48.24"><rect class="cls-9" y="2.76" width="60.71" height="45.48"/><rect class="cls-10" y="2.76" width="60.71" height="8.11"/><path class="cls-9" d="M8.17,6.55c0,2.27-3.52,2.27-3.49,0S8.21,4.28,8.17,6.55Z"/><path class="cls-11" d="M6.72.06C4.12-.73,4.3,6.9,6.14,7,8.74,7.8,8.55.17,6.72.06Z"/><path class="cls-9" d="M23.56,6.55a1.75,1.75,0,0,1-3.5,0A1.75,1.75,0,0,1,23.56,6.55Z"/><path class="cls-11" d="M22.1.06c-2.6-.79-2.42,6.84-.58,7C24.12,7.8,23.93.17,22.1.06Z"/><path class="cls-9" d="M41.24,6.55c0,2.27-3.52,2.27-3.49,0S41.28,4.28,41.24,6.55Z"/><path class="cls-11" d="M39.79.06c-2.6-.79-2.42,6.84-.58,7C41.8,7.8,41.62.17,39.79.06Z"/><path class="cls-9" d="M58.16,6.55c0,2.27-3.53,2.27-3.49,0S58.2,4.28,58.16,6.55Z"/><path class="cls-11" d="M56.7.06c-2.59-.79-2.41,6.84-.57,7C58.72,7.8,58.54.17,56.7.06Z"/><path class="cls-12" d="M8,20.16c-5.26.62-7.41-.24-6.43-5.93C6.84,13.61,9,14.47,8,20.16Z"/><path class="cls-12" d="M16.47,20.16c-5.26.62-7.41-.24-6.43-5.93C15.3,13.61,17.45,14.47,16.47,20.16Z"/><path class="cls-12" d="M24.93,20.16c-5.26.62-7.41-.24-6.43-5.93C23.76,13.61,25.91,14.47,24.93,20.16Z"/><path class="cls-12" d="M33.39,20.16c-5.26.62-7.41-.24-6.43-5.93C32.22,13.61,34.37,14.47,33.39,20.16Z"/><path class="cls-12" d="M41.85,20.16c-5.26.62-7.41-.24-6.43-5.93C40.68,13.61,42.83,14.47,41.85,20.16Z"/><path class="cls-12" d="M50.31,20.16c-5.26.62-7.41-.24-6.43-5.93C49.14,13.61,51.29,14.47,50.31,20.16Z"/><path class="cls-12" d="M58.77,20.16c-5.27.62-7.41-.24-6.43-5.93C57.6,13.61,59.75,14.47,58.77,20.16Z"/><path class="cls-12" d="M8.19,28.22C2.93,28.84.78,28,1.76,22.29,7,21.67,9.17,22.53,8.19,28.22Z"/><path class="cls-12" d="M16.65,28.22c-5.26.62-7.41-.24-6.43-5.93C15.49,21.67,17.63,22.53,16.65,28.22Z"/><path class="cls-12" d="M25.11,28.22c-5.26.62-7.41-.24-6.43-5.93C23.94,21.67,26.09,22.53,25.11,28.22Z"/><path class="cls-12" d="M33.57,28.22c-5.26.62-7.41-.24-6.43-5.93C32.4,21.67,34.55,22.53,33.57,28.22Z"/><path class="cls-12" d="M42,28.22c-5.26.62-7.41-.24-6.43-5.93C40.86,21.67,43,22.53,42,28.22Z"/><path class="cls-12" d="M50.49,28.22c-5.26.62-7.41-.24-6.43-5.93C49.32,21.67,51.47,22.53,50.49,28.22Z"/><path class="cls-12" d="M59,28.22c-5.26.62-7.41-.24-6.43-5.93C57.78,21.67,59.93,22.53,59,28.22Z"/><path class="cls-12" d="M8.19,35.91C2.93,36.53.78,35.67,1.76,30,7,29.36,9.17,30.22,8.19,35.91Z"/><path class="cls-12" d="M16.65,35.91c-5.26.62-7.41-.24-6.43-5.93C15.49,29.36,17.63,30.22,16.65,35.91Z"/><path class="cls-12" d="M25.11,35.91c-5.26.62-7.41-.24-6.43-5.93C23.94,29.36,26.09,30.22,25.11,35.91Z"/><path class="cls-12" d="M33.57,35.91c-5.26.62-7.41-.24-6.43-5.93C32.4,29.36,34.55,30.22,33.57,35.91Z"/><path class="cls-12" d="M42,35.91c-5.65.48-7.24.19-6.43-5.93C41.25,29.5,42.84,29.79,42,35.91Z"/><path class="cls-12" d="M50.49,35.91c-5.26.62-7.41-.24-6.43-5.93C49.32,29.36,51.47,30.22,50.49,35.91Z"/><path class="cls-12" d="M59,35.91c-5.26.62-7.41-.24-6.43-5.93C57.78,29.36,59.93,30.22,59,35.91Z"/><path class="cls-12" d="M8.19,43.22C2.93,43.84.78,43,1.76,37.28,7,36.66,9.17,37.52,8.19,43.22Z"/><path class="cls-12" d="M16.65,43.22c-5.64.48-7.24.19-6.43-5.94C15.87,36.8,17.46,37.09,16.65,43.22Z"/><path class="cls-12" d="M25.11,43.22c-5.26.62-7.41-.24-6.43-5.94C23.94,36.66,26.09,37.52,25.11,43.22Z"/><path class="cls-12" d="M33.57,43.22c-5.26.62-7.41-.24-6.43-5.94C32.4,36.66,34.55,37.52,33.57,43.22Z"/><path class="cls-12" d="M42,43.22c-5.26.62-7.41-.24-6.43-5.94C40.86,36.66,43,37.52,42,43.22Z"/></symbol><symbol id="raised-question" data-name="raised-question" viewBox="0 0 40.24 42.61"><path class="cls-17" d="M40.23,17.69c.7,23.58-36.76,23.58-36.76,0S40.93-5.9,40.23,17.69Z"/><path class="cls-18" d="M36.76,20.46C37.46,44.05,0,44.05,0,20.46S36.76-3.82,36.76,20.46Z"/><text class="cls-19" transform="translate(8.06 30.73)">?</text></symbol></defs><g id="Layer_2" data-name="Layer 2"><g id="MainLayer"><g id="stories" class="cls-21"><g id="retirementgroup"><g id="retirement1"><circle class="cls-22" cx="36.92" cy="36" r="34.66"/><circle class="cls-23" cx="36.92" cy="35.66" r="34.66"/><use width="14.01" height="15.06" transform="matrix(0.1, 0.16, 0.16, -0.1, 42.94, 38.65)" xlink:href="#hex-connector"/><use width="14.01" height="15.06" transform="matrix(0.1, 0.16, 0.16, -0.1, 21.23, 27.3)" xlink:href="#hex-connector"/><use width="132.05" height="112.18" transform="translate(0 23.82) scale(0.19)" xlink:href="#hex-green-tick"/><use width="14.01" height="15.06" transform="translate(21.23 40.32) rotate(-58.23) scale(0.19)" xlink:href="#hex-connector"/><use width="14.01" height="15.06" transform="translate(42.98 50.87) rotate(-58.23) scale(0.19)" xlink:href="#hex-connector"/><use width="14.01" height="15.06" transform="translate(33.64 31.58) scale(0.19)" xlink:href="#hex-connector"/><use width="132.05" height="112.18" transform="translate(21.11 10.4) scale(0.19)" xlink:href="#hex-plain"/><use width="132.05" height="112.18" transform="translate(21.62 34.35) scale(0.19)" xlink:href="#hex-plain"/><use width="14.01" height="15.06" transform="translate(42.66 26.63) rotate(-58.23) scale(0.19)" xlink:href="#hex-connector"/><use width="14.01" height="15.06" transform="translate(54.52 42.55) scale(0.19)" xlink:href="#hex-connector"/><use width="132.05" height="112.18" transform="translate(42.66 21.37) scale(0.19)" xlink:href="#hex-green-tick"/><use width="132.05" height="112.18" transform="translate(43.17 45.32) scale(0.19)" xlink:href="#hex-grey"/><use width="17.6" height="24.81" transform="translate(49.48 24.05) scale(0.61)" xlink:href="#birthday-cake"/><use width="60.71" height="48.24" transform="translate(27.99 40.85) scale(0.19)" xlink:href="#calendar-symbol"/><use width="40.24" height="42.61" transform="translate(37.53 36) scale(0.16)" xlink:href="#raised-question"/><text class="cls-24" transform="translate(4.32 38.63)">UC</text><text class="cls-24" transform="translate(48.27 59.48)">S<tspan class="cls-25" x="6.73" y="0">P</tspan></text><path class="cls-26" d="M41.79,24.88a2.52,2.52,0,0,0-1.4-.62c-4.84-2.31-9.16-2.06-13.12.23h0a6.07,6.07,0,0,0-2.32,3.56l2,3.45h.73l10.79.16h.1l2.5-4.34,1.16-2A4.22,4.22,0,0,0,41.79,24.88Z"/><path class="cls-27" d="M35.68,19.52l.15,4.63c-.69.64.1,0-2.12.83-.59.45-3.35.4-3.5-.05L30.85,22Z"/><path class="cls-28" d="M30.31,24.29c3.55-.78,5-2.61,5-4.18L30.7,22.72Z"/><path class="cls-29" d="M31.79,25.23l-1.38,2.22a4.34,4.34,0,0,1-.64-4.09c.29-.2.59-.59,1-.59C30.61,24.29,30.9,25.13,31.79,25.23Z"/><path class="cls-29" d="M35.78,21.63c-.69,2.66-2,3.75-4,3.6l1.62,2.66c1.78-1.23,3.2-3,3.16-5.12Z"/><path class="cls-27" d="M27.26,14c-.43,4.36-1.09,10,3.86,8.92,6.05-.37,6.64-9.64,4.09-13.09C31.94,7.33,27.4,9.26,27.26,14Z"/><path class="cls-30" d="M32.58,16c0,.9-.92.89-1,0S32.55,15.1,32.58,16Z"/><path class="cls-30" d="M29.14,15.89c0,.9-.92.89-1,0S29.12,15,29.14,15.89Z"/><polygon class="cls-28" points="30.66 18.15 29.4 18.15 29.91 15.43 29.92 15.48 29.74 17.83 30.64 18.1 30.66 18.15"/><polygon class="cls-30" points="29.7 17.89 29.94 15.38 29.99 15.37 29.84 17.86 29.7 17.89"/><path class="cls-31" d="M27.86,14.49a1,1,0,0,1,1.05,0"/><path class="cls-31" d="M31.57,14.44a1,1,0,0,1,1,0"/><path class="cls-32" d="M35.34,15.94l-.87-.32a11.47,11.47,0,0,1-.34-3.4A1.32,1.32,0,0,0,34,11.15c-.33-.39-.89-.43-1.84-.44-.66,0-.7,0-1.46,0a5.66,5.66,0,0,1-1.36-.28c-.18-.11-1.07.42-1.07.42s-1.62-1-1.38-1.33c0-.06,1.65-1,1.65-1,.16-.18.74.2,2,.31.2,0,.7-.29,1.19-.34s.81.28,1,.24A3.63,3.63,0,0,1,36,10.58c1.08,2.1.41,2.78.71,4.53Z"/><path class="cls-27" d="M35,16.22c1.24-2.82,3.22-1.21,1.71,1.26C35.85,19,34.52,18.12,35,16.22Z"/><path class="cls-28" d="M36.53,15.15c-.52-.1-1.05,1.77-1.05,1.77s.5-.25.56,0c0-.31-.42-.12-.56,0,.16-.23.61-2,1.3-1.52C36.87,15.33,36.73,15.16,36.53,15.15Z"/><path class="cls-28" d="M31.37,16.44a1.17,1.17,0,0,0,1.63.38c-.42.64-.92.69-1.68-.11Z"/><path class="cls-28" d="M29.25,16.42c-.28.61-.7.75-1.17.44.31.54.73.6,1.21-.25Z"/><path class="cls-32" d="M28.93,18.8a1.87,1.87,0,0,1,2.35,0c.65.47.59,1.39,1.11,1.49.06,0,.4,0,.86-.48,1.19-1.29,1.15-4.5,1.3-5.49l.88,1.13a9.41,9.41,0,0,0-.45,3c0,1.2.33,1.59.08,2.34a3.88,3.88,0,0,1-1.77,1.72,6.29,6.29,0,0,1-3,.81,3.75,3.75,0,0,1-2-.3,2.28,2.28,0,0,1-1-.81A2.08,2.08,0,0,1,27,21.05c0-.25-.07-2.09-.09-2.44,0,.35.52,2.05,1.07,1.59S28.45,19.19,28.93,18.8Z"/></g></g></g></g></g></svg>