<svg xmlns="http://www.w3.org/2000/svg" xmlns:xlink="http://www.w3.org/1999/xlink" viewBox="0 0 115.96 109.74"><defs><style>.cls-1,.cls-29,.cls-38,.cls-40,.cls-42,.cls-44{fill:none;}.cls-2{fill:#c79459;}.cls-3{fill:#ebc8c8;}.cls-4{fill:#ebd1d1;}.cls-5{fill:#ffb302;}.cls-6{fill:#424242;}.cls-7{fill:red;}.cls-8{fill:#a37949;}.cls-9{font-size:8.76px;}.cls-13,.cls-18,.cls-45,.cls-47,.cls-9{fill:#fff;}.cls-13,.cls-45,.cls-47,.cls-9{font-family:Arial-BoldMT, Arial;font-weight:700;}.cls-10{fill:#31ab94;}.cls-11{fill:#d59532;}.cls-12{fill:#faaf3b;}.cls-13{font-size:72.76px;}.cls-14{fill:#add9d1;}.cls-15{fill:#e34079;}.cls-16{fill:#f2b3c9;}.cls-17{fill:#b53360;}.cls-19{fill:#298f7c;}.cls-20{opacity:0.86;}.cls-21{clip-path:url(#clip-path);}.cls-22{fill:url(#linear-gradient);}.cls-23{fill:#d4bfa1;}.cls-24{fill:#4f4b5f;}.cls-25{fill:#f8c7a3;}.cls-26{fill:#28947b;}.cls-27{fill:#e3b696;}.cls-28{fill:#412a74;}.cls-29,.cls-40{stroke:#2e3192;}.cls-29,.cls-40,.cls-42{stroke-linecap:round;}.cls-29,.cls-38,.cls-40,.cls-42,.cls-44{stroke-miterlimit:10;}.cls-29,.cls-38,.cls-42{stroke-width:0.25px;}.cls-30{fill:#281d36;}.cls-31{fill:#a63b54;}.cls-32{fill:#d5496c;}.cls-33{fill:#7b6d79;}.cls-34{fill:#32ccf5;}.cls-35{fill:#ffb881;}.cls-36{fill:#f15a24;}.cls-37{fill:#0095bf;}.cls-38{stroke:#2d76ad;}.cls-39{fill:#0083a8;}.cls-41{fill:#635f78;}.cls-42{stroke:#412a74;}.cls-43{opacity:0.06;}.cls-44{stroke:#1b1464;stroke-width:2px;opacity:0.22;}.cls-45{font-size:7.64px;}.cls-46{letter-spacing:-0.02em;}.cls-47{font-size:7.03px;}.cls-48{fill:#3790a8;}</style><clipPath id="clip-path" transform="translate(0 6.34)"><circle class="cls-1" cx="61.09" cy="48.53" r="46.64"/></clipPath><linearGradient id="linear-gradient" x1="61.86" y1="108.48" x2="60.29" y2="-1.25" gradientUnits="userSpaceOnUse"><stop offset="0.38" stop-color="#cedcc8"/><stop offset="0.42" stop-color="#d4e0ce"/><stop offset="0.65" stop-color="#ebf1e9"/><stop offset="0.85" stop-color="#fafbf9"/><stop offset="1" stop-color="#fff"/></linearGradient><symbol id="birthday-cake_2" data-name="birthday-cake 2" viewBox="0 0 17.6 24.82"><path class="cls-2" d="M.31,13.89v7.67A1.5,1.5,0,0,0,1,23a18.58,18.58,0,0,0,15.45,0,1.54,1.54,0,0,0,.7-1.41v-7.7c0-.75-.38-1.37-.88-1.45L9,11.24h-.2l-7.6,1.19C.69,12.51.31,13.14.31,13.89Z"/><path class="cls-3" d="M15.72,9.54a31.65,31.65,0,0,0-13.8,0A1.89,1.89,0,0,0,0,11.42a1.45,1.45,0,0,0,.21,1.23,1.39,1.39,0,0,0,.49.29,3,3,0,0,1,1.37,1,3.16,3.16,0,0,1,.16,1.18c0,.49,0,.91,0,1.2a.7.7,0,0,0,1.4,0A3.52,3.52,0,0,1,4,13.9a2.2,2.2,0,0,1,.39-.46,2.3,2.3,0,0,1,1.46-.62c1.47,0,1.47,1.23,2.93,1.23s1.46-1.23,2.92-1.23,1.47,1.23,2.93,1.23a2.21,2.21,0,0,0,.69-.11,3.11,3.11,0,0,0,2-1.19,2.22,2.22,0,0,0,.27-1.33A1.88,1.88,0,0,0,15.72,9.54Z"/><path class="cls-4" d="M15.72,9.54a31.65,31.65,0,0,0-13.8,0A1.9,1.9,0,0,0,.15,10.79C1.47,11.48,4.84,12,8.79,12s7.4-.5,8.68-1.19A1.86,1.86,0,0,0,15.72,9.54Z"/><path class="cls-5" d="M7.57,2.43A2.93,2.93,0,0,1,8.89,0a3,3,0,0,1,1.32,2.43c0,1-.59,1.8-1.32,1.8s-1.32-.8-1.32-1.8Z"/><path class="cls-6" d="M8.89,3.43a.34.34,0,0,0-.34.34v1.8h.68V3.77A.34.34,0,0,0,8.89,3.43Z"/><path class="cls-7" d="M9.34,5.12h-.9A.45.45,0,0,0,8,5.57V9.43a1.65,1.65,0,0,0,1.8,0V5.57A.45.45,0,0,0,9.34,5.12Z"/><circle class="cls-8" cx="2.05" cy="19.46" r="0.35"/><circle class="cls-8" cx="14.49" cy="20.81" r="0.35"/><circle class="cls-8" cx="15.99" cy="17.03" r="0.35"/><circle class="cls-8" cx="1.18" cy="16.45" r="0.35"/><circle class="cls-8" cx="5.36" cy="21.34" r="0.35"/><text class="cls-9" transform="translate(3.85 21.52)">66</text></symbol><symbol id="hex-connector" data-name="hex-connector" viewBox="0 0 14.01 15.06"><rect class="cls-10" width="14.01" height="15.06"/></symbol><symbol id="hex-plain" data-name="hex-plain" viewBox="0 0 132.05 112.17"><polygon class="cls-10" points="101.86 106.56 91.86 112.14 30.27 5.92 40.13 0 101.18 0.79 132.05 54.07 101.86 106.56"/><polygon class="cls-14" points="91.92 112.17 30.87 111.39 0 58.11 30.18 5.62 91.24 6.4 122.11 59.68 91.92 112.17"/></symbol><symbol id="hex-red-deny" data-name="hex-red-deny" viewBox="0 0 132.05 112.17"><polygon class="cls-15" points="101.86 106.56 91.86 112.14 30.27 5.92 40.13 0 101.18 0.79 132.05 54.07 101.86 106.56"/><polygon class="cls-16" points="91.92 112.17 30.87 111.39 0 58.11 30.18 5.62 91.24 6.4 122.11 59.68 91.92 112.17"/><path class="cls-17" d="M124.71,25.3c.69,23.58-36.77,23.58-36.77,0S125.4,1.71,124.71,25.3Z"/><path class="cls-15" d="M121.24,28.07c.69,23.59-36.77,23.59-36.77,0S121.24,3.79,121.24,28.07Z"/><rect class="cls-18" x="92.44" y="25.3" width="22.3" height="5.16"/></symbol><symbol id="raised-tick" data-name="raised-tick" viewBox="0 0 40.24 38.15"><path class="cls-19" d="M40.23,17.69c.7,23.58-36.76,23.58-36.76,0S40.93-5.9,40.23,17.69Z"/><path class="cls-10" d="M36.76,20.46C37.46,44.05,0,44.05,0,20.46S36.76-3.82,36.76,20.46Z"/><polygon class="cls-18" points="5.51 21.98 13.24 31.2 31.27 13.89 28.34 11.13 13.38 24.96 8.7 19.44 5.51 21.98"/></symbol><symbol id="hex-green-tick" data-name="hex-green-tick" viewBox="0 0 132.05 112.17"><use width="132.05" height="112.18" xlink:href="#hex-plain"/><use width="40.24" height="38.15" transform="translate(87.72 6.67)" xlink:href="#raised-tick"/></symbol><symbol id="hex-orange-pound" data-name="hex-orange-pound" viewBox="0 0 132.05 112.17"><polygon class="cls-11" points="101.86 106.56 91.86 112.14 30.27 5.92 40.13 0 101.18 0.79 132.05 54.07 101.86 106.56"/><polygon class="cls-12" points="91.92 112.17 30.87 111.39 0 58.11 30.18 5.62 91.24 6.4 122.11 59.68 91.92 112.17"/><use width="40.24" height="38.15" transform="translate(82.52 9.36)" xlink:href="#raised-tick"/><text class="cls-13" transform="translate(42.6 82.92)">£</text></symbol></defs><g id="Layer_2" data-name="Layer 2"><g id="MainLayer"><g id="stories" class="cls-20"><g id="retirementgroup"><g id="retirement4"><g class="cls-21"><circle class="cls-22" cx="61.09" cy="54.87" r="54.87"/><polygon class="cls-23" points="16.66 75.29 100.66 86.99 66.49 108.51 15.71 102.09 16.66 75.29"/><path class="cls-24" d="M82.72,10.17a9.08,9.08,0,0,1,4.93,2.71c2.38,2.69,2.92,6.17,3.17,8.19.36,3-.25,4,.68,6.4a29.58,29.58,0,0,0,1.74,3.58,26,26,0,0,1,1.58,2.77,13.85,13.85,0,0,1,.86,3.47c.24,2.08.43,10-3.09,12-6,3.41-21.67-10.77-21-17.37a16.39,16.39,0,0,0,0-4.56c-.35-2.63-1-2.62-1.57-5.34a13.46,13.46,0,0,1,1-8.6,4.56,4.56,0,0,1,.31-.51,8.45,8.45,0,0,1,11.33-2.74Z" transform="translate(0 6.34)"/><path class="cls-25" d="M76.17,34.78C78.08,37,77,39.52,75.3,51a10.71,10.71,0,0,1-1.66,4.36,3.83,3.83,0,0,1-7-1.15,95.83,95.83,0,0,1,4.76-19.37,3,3,0,0,1,2-1.6C74.68,33.06,75.82,34.38,76.17,34.78Z" transform="translate(0 6.34)"/><path class="cls-26" d="M93,33.34a25,25,0,0,0-5.11-2,22.89,22.89,0,0,0-13.43,1.09c-.62.24-1.35.26-2,.56a27.73,27.73,0,0,1,.34,4,12.54,12.54,0,0,1-.23,3.09c-.49,2.32-1.32,2.41-1.48,4.31-.1,1.23.1,3,1,3.47a3,3,0,0,1,1,.68,3.15,3.15,0,0,1,.43.65,5.05,5.05,0,0,1,.48,1.27c.49,2-.18,2.87-.78,6.78-.29,2-2.42,17.71-2.47,18.74,1.91.79,5.47,1.13,9.65,1.75,3.66.51,8.11,1.22,13.47,1.87Z" transform="translate(0 6.34)"/><path class="cls-25" d="M81.22,35.8a9.18,9.18,0,0,0,3.64-1.27c1.32-.72,2.9-1.57,3.09-3a1.76,1.76,0,0,0,0-.19,23.11,23.11,0,0,0-7-.45A22.34,22.34,0,0,0,75.68,32a3.45,3.45,0,0,0,.55,2,4.09,4.09,0,0,0,2.43,1.59A6.18,6.18,0,0,0,81.22,35.8Z" transform="translate(0 6.34)"/><path class="cls-25" d="M68.77,48.43,59.68,58.56a3.69,3.69,0,0,1-1.25.78,3.15,3.15,0,0,0-1.84-.76c-1,0-1.24.54-2.62.66-1,.08-1.63-.14-1.81.19s.12.61.14.62c.46.64,1.72.42,1.85.39.71-.13,1.1-.48,1.38-.28a.67.67,0,0,1,.22.52,5.77,5.77,0,0,1-2,1.28c-1.78.65-3.7.24-3.82.73a.3.3,0,0,0,0,.2c.19.43,1.1.37,1.26.35-.47.13-1.45.42-1.44.78a.17.17,0,0,0,0,.07c.05.13.48.36,4.15-.19-1.49.22-3.13.55-3.14,1a.26.26,0,0,0,.07.15c.56.64,3.42-.15,4-.3-1.22.36-2.56.82-2.51,1.09,0,.05.07.09.11.11,1.47.68,3.89-.38,3.89-.38a9,9,0,0,0,2-1.22,9.37,9.37,0,0,0,2.3-2.66A20.78,20.78,0,0,0,73.25,49.56Z" transform="translate(0 6.34)"/><path class="cls-25" d="M86.68,24.72c.45,2.7.74,5.19.38,6.81a15.24,15.24,0,0,1-5.16,3.76c-.87.54-1.32.28-1.56-.38V28.56Z" transform="translate(0 6.34)"/><path class="cls-27" d="M80.34,30.7c4.07-1.63,6.59-2.27,5.64-5.12l-5.64,3.71Z" transform="translate(0 6.34)"/><path class="cls-25" d="M72.14,17.1c-3.06,4.71,2,13.69,7.31,13.65,2.83,0,5.59-2.57,7.23-6L83.13,14.47C78.5,13.18,74,14.31,72.14,17.1Z" transform="translate(0 6.34)"/><ellipse class="cls-28" cx="80.04" cy="21.25" rx="0.76" ry="1.04" transform="translate(-2.56 21.66) rotate(-10.76)"/><ellipse class="cls-28" cx="74.8" cy="21.98" rx="0.76" ry="1.04" transform="translate(-2.79 20.7) rotate(-10.76)"/><path class="cls-28" d="M74.24,21.68a1.69,1.69,0,0,1-1.11-.31,1.23,1.23,0,0,0,1.2-.11Z" transform="translate(0 6.34)"/><path class="cls-28" d="M80.62,21.06a1.64,1.64,0,0,0,.92-.7,1.2,1.2,0,0,1-1.16.34Z" transform="translate(0 6.34)"/><polygon class="cls-27" points="78.4 31.29 76.42 31.55 76.55 27.29 76.64 27.3 76.91 31.02 78.36 31.22 78.4 31.29"/><polygon class="cls-28" points="76.84 31.1 76.61 27.16 76.72 27.15 77.08 31.05 76.84 31.1"/><path class="cls-29" d="M73.19,19.94a1.66,1.66,0,0,1,1.64-.26" transform="translate(0 6.34)"/><path class="cls-25" d="M84.59,20.94c.23-1.54,1.67-2.93,2.5-2.69s1.26,2.6.49,4.22c-.06.12-.8,1.63-1.66,1.54S84.38,22.29,84.59,20.94Z" transform="translate(0 6.34)"/><path class="cls-27" d="M86.7,18.89c-.8,0-1.19,2.93-1.17,2.95v0s.51-.38.72-.23.1.12.11.11a.32.32,0,0,0-.12-.21c-.21-.12-.61.21-.7.31.1-.28.47-2.42,1.12-2.65.22-.08.53.09.54,0S86.94,18.88,86.7,18.89Z" transform="translate(0 6.34)"/><path class="cls-29" d="M78.86,19a1.67,1.67,0,0,1,1.64-.27" transform="translate(0 6.34)"/><path class="cls-24" d="M76.66,11.71v2.37l.16.23A8.32,8.32,0,0,0,80,17c1,.44,1.86.63,3.49,1.44a15.91,15.91,0,0,1,1.74,1l-1-5.44Z" transform="translate(0 6.34)"/><path class="cls-24" d="M76.46,14.15c0,2,4.5,4,7.38,5.21-2.72-1.42-6.85-3.63-7.06-5.54Z" transform="translate(0 6.34)"/><path class="cls-24" d="M76.54,14.07c-1.93-.43-5.11,3.36-5,6.28,1.21-4.33,3.38-6.13,5.29-5.89Z" transform="translate(0 6.34)"/><path class="cls-25" d="M92.46,32.33c1.93,1.26,1.85,4,3.78,15.23a14.39,14.39,0,0,1,0,4.65c-.39,3.47-3.81,4.6-5.24,1.76a123.37,123.37,0,0,1-1.89-19.64,3.59,3.59,0,0,1,.94-2.26C91,31.35,92.12,32.1,92.46,32.33Z" transform="translate(0 6.34)"/><path class="cls-30" d="M78.56,27.84a2.82,2.82,0,0,0,1.17-.29,2.81,2.81,0,0,0,1-.09s0,.06,0,.08c-.08.34-.56.55-1,.72a3.17,3.17,0,0,1-1.6.34,1.57,1.57,0,0,1-1-.35s-.37-.35-.18-.6a.83.83,0,0,1,.5-.23A1.74,1.74,0,0,0,78.56,27.84Z" transform="translate(0 6.34)"/><path class="cls-31" d="M79.39,27.65c-.06.06.13.28.26.25s.07-.11.16-.14.19.09.29.07.27-.29.14-.4-.72.07-.73.13h0C79.5,27.61,79.42,27.62,79.39,27.65Z" transform="translate(0 6.34)"/><path class="cls-32" d="M78.66,27.51a2.92,2.92,0,0,0,1-.2c.51-.17.64-.31.83-.27a.4.4,0,0,1,.29.42,2.81,2.81,0,0,1-1,.09,2.82,2.82,0,0,1-1.17.29,1.74,1.74,0,0,1-1.08-.42l.22,0C78.15,27.36,78.2,27.52,78.66,27.51Z" transform="translate(0 6.34)"/><path class="cls-33" d="M52.28,51.55,51.11,73.78,75.7,77.15c3.47-7.4,4.1-12.54,1.54-21.06a3.37,3.37,0,0,0-3.47-3.75C66.55,49.53,59.42,50.92,52.28,51.55Z" transform="translate(0 6.34)"/><path class="cls-26" d="M60.4,17l-.23.06c1.12.5,1.89,1.13,2,2h.31A2.85,2.85,0,0,0,60.4,17Z" transform="translate(0 6.34)"/><path class="cls-34" d="M63.72,17.08l.2.06c-1,.51-1.66,1.13-1.75,2H61.9A2.7,2.7,0,0,1,63.72,17.08Z" transform="translate(0 6.34)"/><path class="cls-35" d="M63.35,16.43l.16.07a3.78,3.78,0,0,0-1.33,2.67H62A3.6,3.6,0,0,1,63.35,16.43Z" transform="translate(0 6.34)"/><path class="cls-36" d="M61.15,16.56l-.14.08a4.06,4.06,0,0,1,1.17,2.67h.18A3.78,3.78,0,0,0,61.15,16.56Z" transform="translate(0 6.34)"/><path class="cls-26" d="M62.34,19.14a2.85,2.85,0,0,0-.81-2.8l-.23-.07c.73,1,1.09,1.92.77,2.72" transform="translate(0 6.34)"/><path class="cls-34" d="M61.78,18.94a2.69,2.69,0,0,1,2.59-.89l.15.15a2.76,2.76,0,0,0-2.51.88" transform="translate(0 6.34)"/><path class="cls-35" d="M61.82,19a3.57,3.57,0,0,1,2.55-1.71l.1.14A3.85,3.85,0,0,0,62,19.11" transform="translate(0 6.34)"/><path class="cls-36" d="M62.09,19.32a3.71,3.71,0,0,0,.29-3h-.16a4,4,0,0,1-.28,2.89" transform="translate(0 6.34)"/><path class="cls-37" d="M48.24,54c-8,10.47-12.56,23.51-.5,23.47a41.22,41.22,0,0,0,24.14.25L71.21,54C62.72,49.71,55.15,50,48.24,54Z" transform="translate(0 6.34)"/><path class="cls-25" d="M56.32,74.69l-2.84.24c-1.58-1.84-5.16-1.5-6.74-.34C39.17,78.5,54.57,80.67,56.9,79Z" transform="translate(0 6.34)"/><path class="cls-37" d="M72.79,54.7c2.5,1.83,2,4.83,3,17.23,1,5.66-4.66,11.32-8.41,5.41C67.55,74.34,64.39,48.13,72.79,54.7Z" transform="translate(0 6.34)"/><path class="cls-37" d="M73.79,78.75C73,81,65.8,81.42,57,81.58c-3.91.34-1.93-5.78-1.68-8.11C58.63,73.55,80,70.43,73.79,78.75Z" transform="translate(0 6.34)"/><path class="cls-38" d="M67.55,59.45c-.33,4.66-.5,9.57,1.08,13.64a35.74,35.74,0,0,1-13,.42,9.23,9.23,0,0,0-.51,7.42" transform="translate(0 6.34)"/><line class="cls-38" x1="66.3" y1="66.37" x2="67.38" y2="68.12"/><path class="cls-25" d="M62.47,45.63l.25,7.82c-1.16,1.08.17-.08-3.58,1.42-1,.75-5.66.66-5.91-.09l1.09-5Z" transform="translate(0 6.34)"/><path class="cls-27" d="M53.4,53.7c6-1.33,8.49-4.41,8.41-7.07L54.07,51Z" transform="translate(0 6.34)"/><path class="cls-39" d="M55.9,55.28,53.57,59a7.34,7.34,0,0,1-1.09-6.91c.5-.33,1-1,1.67-1C53.9,53.7,54.4,55.12,55.9,55.28Z" transform="translate(0 6.34)"/><path class="cls-39" d="M62.64,49.21c-1.17,4.49-3.41,6.32-6.74,6.07l2.74,4.5c3-2.08,5.41-5,5.33-8.66Z" transform="translate(0 6.34)"/><path class="cls-25" d="M47.13,37.93c.28,7.4.46,17,8.5,14,10.06-2,8.93-17.64,3.86-22.84C53.45,25.69,46.29,29.94,47.13,37.93Z" transform="translate(0 6.34)"/><path class="cls-28" d="M56.5,40.05c.26,1.5-1.34,1.7-1.68.23S56.25,38.55,56.5,40.05Z" transform="translate(0 6.34)"/><path class="cls-28" d="M50.72,40.65c.26,1.5-1.34,1.7-1.68.23C48.92,39.52,50.49,39.23,50.72,40.65Z" transform="translate(0 6.34)"/><polygon class="cls-27" points="53.77 50.43 51.66 50.72 51.89 46.06 51.92 46.14 52.16 50.11 53.74 50.35 53.77 50.43"/><polygon class="cls-28" points="52.11 50.22 51.95 45.95 52.02 45.92 52.34 50.13 52.11 50.22"/><path class="cls-40" d="M48.25,38.6A1.69,1.69,0,0,1,50,38.34" transform="translate(0 6.34)"/><path class="cls-40" d="M54.45,37.68a1.67,1.67,0,0,1,1.76-.26" transform="translate(0 6.34)"/><path class="cls-41" d="M61.1,39.33,59.57,39a19.64,19.64,0,0,1-1.34-5.61,2.28,2.28,0,0,0-.52-1.76c-.64-.57-1.59-.5-3.19-.3-1.1.12-1.15.23-2.44.32a9.79,9.79,0,0,1-2.35-.15c-.31-.16-1.7.94-1.7.94s-2.93-1.35-2.6-1.91c0-.11,2.53-2.11,2.53-2.11.23-.35,1.29.16,3.37.06.34,0,1.09-.65,1.91-.84.65-.14,1.42.29,1.74.18a6.13,6.13,0,0,1,6,2.4c2.28,3.26,1.32,4.56,2.23,7.42Z" transform="translate(0 6.34)"/><path class="cls-25" d="M60.58,39.87c1.44-5,5.13-2.76,3.16,1.72C62.67,44.34,60.23,43.16,60.58,39.87Z" transform="translate(0 6.34)"/><path class="cls-27" d="M62.92,37.73c-.89,0-1.35,3.2-1.35,3.2s.78-.54,1-.06c0-.53-.74-.1-1,.06.2-.42.56-3.45,1.83-2.84C63.53,38,63.26,37.7,62.92,37.73Z" transform="translate(0 6.34)"/><path class="cls-27" d="M54.57,41.08a2,2,0,0,0,2.82.25c-.56,1.16-1.38,1.36-2.84.19Z" transform="translate(0 6.34)"/><path class="cls-27" d="M51,41.52c-.33,1.08-1,1.4-1.85,1,.64.84,1.35.86,2-.68Z" transform="translate(0 6.34)"/><path class="cls-41" d="M51,45.57A3.2,3.2,0,0,1,55,45c1.2.64,1.3,2.2,2.19,2.24.11.05.68-.06,1.33-1,1.71-2.45.9-7.81.93-9.49l1.73,1.69a15.52,15.52,0,0,0-.06,5.13c.34,2,.9,2.59.65,3.91a6.47,6.47,0,0,1-2.56,3.27,10.56,10.56,0,0,1-4.84,2,6.33,6.33,0,0,1-3.45,0,3.9,3.9,0,0,1-1.81-1.14,3.55,3.55,0,0,1-.81-1.83c-.06-.42-.6-3.49-.71-4.07.11.58,1.33,3.33,2.16,2.42S50.32,46.34,51,45.57Z" transform="translate(0 6.34)"/><path class="cls-18" d="M61.28,23.76a.93.93,0,0,1,.62-1.15,1,1,0,0,1,.34-.06l.27-4-.54,0-.85,1.28a.82.82,0,0,1,.33.4.93.93,0,0,1-.62,1.15,1,1,0,0,1-.83-.09l-2.23,2.91a.92.92,0,0,1,.3.4.94.94,0,0,1-.58,1.2.92.92,0,0,1-.85-.13L55,27.8a19.25,19.25,0,0,0,6.73,3.32l.42-6.8A.87.87,0,0,1,61.28,23.76Zm-1,5a.71.71,0,1,1,.44-.91A.71.71,0,0,1,60.29,28.76Z" transform="translate(0 6.34)"/><path class="cls-26" d="M57.49,25.76a.94.94,0,0,0,.58-1.2.92.92,0,0,0-.3-.4l-1.13,1.47A.92.92,0,0,0,57.49,25.76Z" transform="translate(0 6.34)"/><path class="cls-36" d="M61.9,22.61a.93.93,0,0,0-.62,1.15.87.87,0,0,0,.85.56l.11-1.77A1,1,0,0,0,61.9,22.61Z" transform="translate(0 6.34)"/><circle class="cls-35" cx="60.05" cy="28.09" r="0.72" transform="translate(-5.89 27.63) rotate(-19.18)"/><path class="cls-34" d="M60.83,21.34a.93.93,0,0,0,.62-1.15.82.82,0,0,0-.33-.4L60,21.25A1,1,0,0,0,60.83,21.34Z" transform="translate(0 6.34)"/><path class="cls-25" d="M91.63,51.37,79.72,58a3.17,3.17,0,0,1-1.43.33A3.09,3.09,0,0,0,76.79,57c-1-.36-1.34.11-2.68-.23-.94-.24-1.5-.67-1.78-.41s-.08.61-.07.63c.23.75,1.5.95,1.63,1,.71.11,1.19-.1,1.39.19a.65.65,0,0,1,0,.56,5.64,5.64,0,0,1-2.29.56c-1.9,0-3.58-1-3.85-.55a.38.38,0,0,0,0,.2c0,.47.93.7,1.08.74-.49,0-1.51-.07-1.61.27a.24.24,0,0,0,0,.07c0,.14.34.5,4,1.18-1.48-.28-3.13-.51-3.28-.1a.24.24,0,0,0,0,.17c.31.78,3.28,1,3.84,1-1.27,0-2.68,0-2.72.22a.15.15,0,0,0,.07.13c1.17,1.13,3.8.92,3.8.92A9.82,9.82,0,0,0,76.65,63a9.59,9.59,0,0,0,3-1.76,21.07,21.07,0,0,0,9.51-2.35,20.78,20.78,0,0,0,6.29-5Z" transform="translate(0 6.34)"/><path class="cls-28" d="M53.4,48.5a.82.82,0,0,1,.64.32.66.66,0,0,0,0-.21,1,1,0,1,0-1.48.87.7.7,0,0,1,0-.14A.85.85,0,0,1,53.4,48.5Z" transform="translate(0 6.34)"/><path class="cls-32" d="M54,48.82a.82.82,0,0,0-.64-.32.85.85,0,0,0-.84.84.7.7,0,0,0,0,.14,1,1,0,0,0,.48.13A1,1,0,0,0,54,48.82Z" transform="translate(0 6.34)"/><path class="cls-42" d="M54.79,48.05a1.23,1.23,0,0,1-.21,1.67" transform="translate(0 6.34)"/><path class="cls-18" d="M44.84,78.37,50,82.68a2.82,2.82,0,0,0,1.12-2c0-3.11-7.29-5.62-16.28-5.62s-16.29,2.51-16.29,5.62c0,2.85,6.18,5.21,14.18,5.57l-7.67-5.69Z" transform="translate(0 6.34)"/><path class="cls-18" d="M50,82.68l-5.17-4.31L25.07,80.52l7.67,5.69c.69,0,1.39.05,2.11.05C41.75,86.26,47.63,84.77,50,82.68Z" transform="translate(0 6.34)"/><path class="cls-43" d="M50,82.68l-5.17-4.31L25.07,80.52l7.67,5.69c.69,0,1.39.05,2.11.05C41.75,86.26,47.63,84.77,50,82.68Z" transform="translate(0 6.34)"/><use width="17.6" height="24.81" transform="translate(24.07 59.33) scale(1.21)" xlink:href="#birthday-cake_2"/></g><circle class="cls-44" cx="61.09" cy="54.87" r="47.53"/><g id="retirement1"><use width="14.01" height="15.06" transform="translate(24.88 24.48) scale(0.14 0.16)" xlink:href="#hex-connector"/><use width="14.01" height="15.06" transform="matrix(0.08, 0.12, -0.14, 0.09, 18.24, 20.21)" xlink:href="#hex-connector"/><use width="132.05" height="112.18" transform="translate(16.25 8.76) scale(0.14)" xlink:href="#hex-plain"/><use width="132.05" height="112.18" transform="translate(0 16.68) scale(0.14)" xlink:href="#hex-red-deny"/><use width="14.01" height="15.06" transform="matrix(-0.08, 0.12, 0.14, 0.09, 33.15, 19.07)" xlink:href="#hex-connector"/><use width="132.05" height="112.18" transform="translate(32.43 16.81) scale(0.14)" xlink:href="#hex-green-tick"/><text class="cls-45" transform="translate(36.3 27.92)">S<tspan class="cls-46" x="5.1" y="0">P</tspan></text><text class="cls-47" transform="translate(3.61 27.6)">UC</text><path class="cls-48" d="M31.69,13.16a1.81,1.81,0,0,0-1-.46,9.93,9.93,0,0,0-9.81.17h0a4.58,4.58,0,0,0-1.73,2.66l1.5,2.58h.54l8,.1h.08L31.05,15,32,13.39A2,2,0,0,0,31.69,13.16Z" transform="translate(0 6.34)"/><path class="cls-25" d="M27.13,9.15l.11,3.46c-.52.48.07,0-1.58.63-.45.33-2.51.29-2.62,0L23.52,11Z" transform="translate(0 6.34)"/><path class="cls-27" d="M23.11,12.72c2.66-.59,3.76-2,3.72-3.13l-3.42,1.95Z" transform="translate(0 6.34)"/><path class="cls-39" d="M24.22,13.42l-1,1.66A3.25,3.25,0,0,1,22.71,12c.22-.14.44-.44.74-.44C23.34,12.72,23.56,13.35,24.22,13.42Z" transform="translate(0 6.34)"/><path class="cls-39" d="M27.2,10.73c-.51,2-1.51,2.8-3,2.69l1.21,2a4.68,4.68,0,0,0,2.36-3.83Z" transform="translate(0 6.34)"/><path class="cls-25" d="M20.83,5c-.32,3.26-.81,7.49,2.89,6.67,4.53-.28,5-7.2,3.06-9.78C24.33,0,20.94,1.48,20.83,5Z" transform="translate(0 6.34)"/><path class="cls-28" d="M24.81,6.52c0,.67-.69.67-.75,0S24.79,5.85,24.81,6.52Z" transform="translate(0 6.34)"/><path class="cls-28" d="M22.24,6.44c0,.67-.69.66-.75,0S22.23,5.8,22.24,6.44Z" transform="translate(0 6.34)"/><polygon class="cls-27" points="23.37 14.47 22.43 14.47 22.81 12.44 22.82 12.48 22.69 14.23 23.36 14.43 23.37 14.47"/><polygon class="cls-28" points="22.66 14.28 22.84 12.4 22.88 12.39 22.77 14.25 22.66 14.28"/><path class="cls-29" d="M21.28,5.39a.77.77,0,0,1,.79,0" transform="translate(0 6.34)"/><path class="cls-29" d="M24.05,5.36a.73.73,0,0,1,.79,0" transform="translate(0 6.34)"/><path class="cls-41" d="M26.87,6.48l-.65-.24A8.78,8.78,0,0,1,26,3.69a1,1,0,0,0-.12-.8c-.25-.29-.67-.31-1.38-.32-.49,0-.52,0-1.09,0a4.08,4.08,0,0,1-1-.21c-.13-.09-.8.31-.8.31s-1.21-.77-1-1c0-.05,1.23-.78,1.23-.78s.56.15,1.48.23c.15,0,.52-.22.88-.26s.61.22.75.19a2.74,2.74,0,0,1,2.51,1.41c.8,1.57.3,2.08.53,3.39Z" transform="translate(0 6.34)"/><path class="cls-25" d="M26.61,6.68c.93-2.1,2.41-.9,1.28,1C27.26,8.77,26.26,8.11,26.61,6.68Z" transform="translate(0 6.34)"/><path class="cls-27" d="M27.77,5.89C27.38,5.81,27,7.21,27,7.21s.38-.19.42,0c0-.23-.32-.09-.42,0,.12-.17.45-1.48,1-1.14C28,6,27.92,5.89,27.77,5.89Z" transform="translate(0 6.34)"/><path class="cls-27" d="M23.9,6.85a.89.89,0,0,0,1.23.28c-.32.48-.69.52-1.26-.08Z" transform="translate(0 6.34)"/><path class="cls-27" d="M22.32,6.84c-.21.45-.52.55-.87.32.23.41.54.46.9-.18Z" transform="translate(0 6.34)"/><path class="cls-41" d="M22.08,8.61a1.41,1.41,0,0,1,1.76,0c.49.36.44,1,.83,1.12,0,0,.3,0,.64-.36.89-1,.86-3.37,1-4.1l.66.84a7,7,0,0,0-.33,2.25c0,.89.24,1.19.05,1.75a2.82,2.82,0,0,1-1.32,1.28A4.73,4.73,0,0,1,23.1,12a2.74,2.74,0,0,1-1.51-.23,1.65,1.65,0,0,1-.72-.6,1.51,1.51,0,0,1-.25-.85c0-.19-.06-1.57-.07-1.83,0,.26.39,1.54.8,1.19S21.73,8.91,22.08,8.61Z" transform="translate(0 6.34)"/><use width="132.05" height="112.18" transform="translate(15.86 26) scale(0.14)" xlink:href="#hex-orange-pound"/></g></g></g></g></g></g></svg>