<svg xmlns="http://www.w3.org/2000/svg" xmlns:xlink="http://www.w3.org/1999/xlink" viewBox="0 0 237.99 286.52"><defs><style>.cls-1,.cls-20{fill:none;}.cls-2,.cls-23,.cls-26,.cls-27,.cls-30,.cls-36,.cls-45,.cls-6{fill:#fff;}.cls-2,.cls-32,.cls-44,.cls-45,.cls-46{stroke:#00703c;}.cls-2,.cls-20,.cls-32,.cls-35,.cls-36,.cls-37,.cls-38,.cls-39,.cls-40,.cls-44,.cls-46{stroke-miterlimit:10;}.cls-2,.cls-32,.cls-35,.cls-36,.cls-37,.cls-38,.cls-39,.cls-40,.cls-44,.cls-45,.cls-46{stroke-width:0.75px;}.cls-3{fill:#00703c;}.cls-4{fill:#b4dcd5;}.cls-5{fill:#6585f3;}.cls-7{fill:#d9d9d9;}.cls-8{fill:#bababa;}.cls-9{fill:#31ab94;}.cls-10{fill:#a0a7cb;}.cls-11{fill:#bfc3db;}.cls-12{fill:#298f7c;}.cls-13{fill:#add9d1;}.cls-14{opacity:0.08;}.cls-15{clip-path:url(#clip-path);}.cls-16{fill:#ffb881;}.cls-17{fill:#c6645a;}.cls-18{fill:#a15149;}.cls-19{fill:#412a74;}.cls-20{stroke:#2e3192;}.cls-20,.cls-45{stroke-linecap:round;}.cls-21{fill:#d1d1d1;}.cls-22{fill:#ff9c50;}.cls-23{font-size:21.34px;}.cls-23,.cls-26,.cls-27,.cls-30{font-family:Arial-BoldMT, Arial;}.cls-23,.cls-26,.cls-27,.cls-30,.cls-33{font-weight:700;}.cls-24{letter-spacing:-0.02em;}.cls-25{fill:#e6e6e6;}.cls-26{font-size:12.12px;}.cls-27{font-size:13.95px;}.cls-28{letter-spacing:-0.02em;}.cls-29{fill:#227868;}.cls-30{font-size:14.93px;}.cls-31{letter-spacing:-0.06em;}.cls-33{font-size:5.55px;fill:#2e5932;font-family:Arial-BoldItalicMT, Arial;font-style:italic;}.cls-34{letter-spacing:-0.04em;}.cls-35,.cls-36,.cls-37,.cls-38,.cls-39,.cls-40{stroke:#2c3968;}.cls-35{fill:url(#linear-gradient);}.cls-37{fill:url(#linear-gradient-2);}.cls-38{fill:url(#linear-gradient-3);}.cls-40{fill:url(#linear-gradient-4);}.cls-41{fill:#2c3968;}.cls-42{fill:#4c4687;}.cls-43{fill:#6569ab;}.cls-44{fill:url(#linear-gradient-5);}.cls-45{stroke-linejoin:round;}.cls-46{fill:url(#linear-gradient-6);}</style><clipPath id="clip-path"><polygon class="cls-1" points="80.69 101.81 57.44 96.03 45.03 72.03 57.5 46.96 83.15 55.78 91.53 83.58 80.69 101.81"/></clipPath><linearGradient id="linear-gradient" x1="2736.81" y1="631.22" x2="2752.45" y2="623.39" gradientTransform="matrix(-0.7, -0.71, -0.71, 0.7, 2495.98, 1772.83)" gradientUnits="userSpaceOnUse"><stop offset="0.56" stop-color="#fff"/><stop offset="1" stop-color="#c0c1d9"/></linearGradient><linearGradient id="linear-gradient-2" x1="2693.48" y1="712.01" x2="2721.2" y2="712.01" gradientTransform="matrix(-0.95, -0.31, -0.31, 0.95, 2905.46, 383.64)" xlink:href="#linear-gradient"/><linearGradient id="linear-gradient-3" x1="2695.57" y1="742.7" x2="2720.09" y2="742.7" gradientTransform="matrix(-0.95, -0.31, -0.31, 0.95, 2905.46, 383.64)" xlink:href="#linear-gradient"/><linearGradient id="linear-gradient-4" x1="2713.14" y1="751.38" x2="2713.23" y2="751.29" gradientTransform="matrix(-0.95, -0.31, -0.31, 0.95, 2905.46, 383.64)" xlink:href="#linear-gradient"/><linearGradient id="linear-gradient-5" x1="168.15" y1="-35.69" x2="187.06" y2="-45.15" gradientTransform="matrix(0.87, -0.5, -0.5, -0.87, -137.47, 212.68)" gradientUnits="userSpaceOnUse"><stop offset="0.56" stop-color="#fff"/><stop offset="1" stop-color="#add9d1"/></linearGradient><linearGradient id="linear-gradient-6" x1="1328.23" y1="473.9" x2="1355.56" y2="473.9" gradientTransform="matrix(-0.95, -0.31, -0.31, 0.95, 1481.86, 100.63)" xlink:href="#linear-gradient-5"/><symbol id="hex-connector" data-name="hex-connector" viewBox="0 0 14.01 15.06"><rect class="cls-9" width="14.01" height="15.06"/></symbol><symbol id="hex-plain" data-name="hex-plain" viewBox="0 0 132.05 112.17"><polygon class="cls-9" points="101.86 106.56 91.86 112.14 30.27 5.92 40.13 0 101.18 0.79 132.05 54.07 101.86 106.56"/><polygon class="cls-13" points="91.92 112.17 30.87 111.39 0 58.11 30.18 5.62 91.24 6.4 122.11 59.68 91.92 112.17"/></symbol><symbol id="raised-tick" data-name="raised-tick" viewBox="0 0 40.24 38.15"><path class="cls-12" d="M40.23,17.69c.7,23.58-36.76,23.58-36.76,0S40.93-5.9,40.23,17.69Z"/><path class="cls-9" d="M36.76,20.46C37.46,44.05,0,44.05,0,20.46S36.76-3.82,36.76,20.46Z"/><polygon class="cls-6" points="5.51 21.98 13.24 31.2 31.27 13.89 28.34 11.13 13.38 24.96 8.7 19.44 5.51 21.98"/></symbol><symbol id="hex-green-tick" data-name="hex-green-tick" viewBox="0 0 132.05 112.17"><use width="132.05" height="112.18" xlink:href="#hex-plain"/><use width="40.24" height="38.15" transform="translate(87.72 6.67)" xlink:href="#raised-tick"/></symbol><symbol id="hex-data" data-name="hex-data" viewBox="0 0 132.05 112.17"><polygon class="cls-10" points="101.86 106.56 91.86 112.14 30.27 5.92 40.13 0 101.18 0.79 132.05 54.07 101.86 106.56"/><polygon class="cls-11" points="91.92 112.17 30.87 111.39 0 58.11 30.18 5.62 91.24 6.4 122.11 59.68 91.92 112.17"/><path class="cls-12" d="M128,24.36c.7,23.59-36.76,23.59-36.76,0S128.65.78,128,24.36Z"/><path class="cls-9" d="M124.48,27.14c.7,23.58-36.76,23.58-36.76,0S124.48,2.86,124.48,27.14Z"/><rect class="cls-6" x="97" y="17.83" width="3.01" height="18.36"/><rect class="cls-6" x="98.74" y="33.13" width="17.1" height="3.06"/><rect class="cls-6" x="113.32" y="28.55" width="2.52" height="6.84"/><rect class="cls-6" x="108.39" y="17.83" width="7.15" height="1.9"/><polygon class="cls-6" points="113.99 25.25 113.99 17.83 115.84 17.83 115.84 25.25 113.99 25.25"/><polygon class="cls-6" points="105.58 26.55 113.05 18.91 114.36 20.25 106.89 27.89 105.58 26.55"/><polygon class="cls-6" points="105.58 20.34 105.58 17.83 98.74 17.83 98.74 20.34 105.58 20.34"/></symbol><symbol id="logo-nhs" data-name="logo-nhs" viewBox="0 0 492.25 170.43"><path id="path10" class="cls-6" d="M186.92,0,152.41,162.06H98.25L64.2,49.91h-.47L41.09,162.06H0L34.79,0H89.15l33.37,112.4H123L145.86,0ZM354,2.79,320.13,164.85H276.51L291,95.43h-51.6l-14.46,69.42H181.32L215.17,2.79h43.61L246,64.8h51.55l12.85-62ZM492.25,10,481.73,42.24c-8.41-3.91-19.84-7.41-35.93-7.41-17.26,0-31.27,2.53-31.27,15.57,0,23,63.23,14.4,63.23,63.62,0,44.78-41.78,56.41-79.57,56.41-16.79,0-36.18-4-50.39-8.38l10.27-33c8.6,5.57,25.91,9.29,40.12,9.29,13.54,0,34.76-2.55,34.76-19.28,0-26-63.23-16.26-63.23-62,0-41.81,36.88-54.35,72.58-54.35,20.09,0,39,2.11,49.95,7.18"/></symbol><symbol id="bot-body" data-name="bot-body" viewBox="0 0 27.06 37.35"><path class="cls-2" d="M.4,9.06C2.21,24.06,15.9,41,21,36.14c4.56-4.27,8.14-20.66,3.48-31.49C20.9-3.74-.5,1.56.4,9.06Z"/><path class="cls-3" d="M3.86,6.92C7.59,8.63,19.42,8.25,21.21,4h.07C20.11,9,7.16,9.71,3.86,6.92Z"/><path class="cls-4" d="M19.88,36.42C25,34.24,28.81,15.63,24.16,4.79c-.67-2-4-3.93-5.92-3.86C26.13,5.75,26.05,22.41,19.88,36.42Z"/><path class="cls-3" d="M24.28,13.57c.46,5.55,0,11.83-2.35,16.8l0,0a55.76,55.76,0,0,0,2.39-16.77Z"/></symbol><symbol id="clipboard" data-name="clipboard" viewBox="0 0 15.94 15.44"><path class="cls-5" d="M11.16,15.43.53,14.67A.54.54,0,0,1,0,14L3.89.63A.9.9,0,0,1,4.78,0L15.41.77a.53.53,0,0,1,.5.72L12.05,14.81A.9.9,0,0,1,11.16,15.43Z"/><polygon class="cls-6" points="11.1 14.12 1.27 13.41 4.7 1.59 14.53 2.3 11.1 14.12"/><polygon class="cls-7" points="12.59 3.87 5.69 3.38 5.83 2.89 12.73 3.38 12.59 3.87"/><polygon class="cls-7" points="12.27 4.95 5.37 4.46 5.51 3.97 12.41 4.47 12.27 4.95"/><polygon class="cls-7" points="11.96 6.04 5.06 5.54 5.2 5.05 12.1 5.55 11.96 6.04"/><polygon class="cls-7" points="8.82 7.04 4.71 6.74 4.86 6.25 8.96 6.55 8.82 7.04"/><polygon class="cls-7" points="10.98 9.4 4.09 8.91 4.23 8.42 11.13 8.92 10.98 9.4"/><polygon class="cls-7" points="10.65 10.7 3.76 10.21 3.9 9.72 10.79 10.21 10.65 10.7"/><polygon class="cls-7" points="10.27 11.84 3.37 11.35 3.51 10.86 10.41 11.36 10.27 11.84"/><polygon class="cls-8" points="8.09 0.6 11.39 0.84 10.93 1.5 11.34 3.06 7.32 2.84 8.28 1.41 8.09 0.6"/></symbol></defs><g id="Layer_2" data-name="Layer 2"><g id="MainLayer"><g id="greenzone"><g id="service3"><polygon class="cls-14" points="135.74 185.2 112.31 181.36 99.8 165.17 110.71 152.83 134.13 156.67 146.65 172.86 135.74 185.2"/><polygon class="cls-14" points="176.74 173.27 153.32 169.43 140.8 153.24 151.72 140.9 175.14 144.75 187.66 160.93 176.74 173.27"/><polygon class="cls-14" points="174.32 139.25 150.9 135.4 138.38 119.21 149.29 106.87 172.72 110.72 185.24 126.91 174.32 139.25"/><polygon class="cls-14" points="134.49 151.33 111.06 147.49 98.55 131.3 109.46 118.95 132.89 122.8 145.4 138.99 134.49 151.33"/><polygon class="cls-14" points="130.63 117.39 107.2 113.54 94.69 97.36 105.6 85.02 129.03 88.86 141.54 105.05 130.63 117.39"/><polygon class="cls-14" points="87.35 95.08 63.92 91.23 51.41 75.05 62.32 62.71 85.75 66.55 98.26 82.74 87.35 95.08"/><polygon class="cls-14" points="171.87 105.95 148.44 102.1 135.93 85.91 146.84 73.57 170.26 77.42 182.78 93.61 171.87 105.95"/><polygon class="cls-14" points="217.56 161.51 194.13 157.66 181.62 141.47 192.53 129.13 215.96 132.98 228.47 149.17 217.56 161.51"/><use width="14.01" height="15.06" transform="matrix(0.38, 0.09, 0.01, 0.41, 154.46, 113.75)" xlink:href="#hex-connector"/><use width="14.01" height="15.06" transform="matrix(0.19, -0.3, 0.33, 0.29, 132.55, 127.26)" xlink:href="#hex-connector"/><use width="14.01" height="15.06" transform="matrix(0.19, -0.3, 0.33, 0.29, 88.56, 93.51)" xlink:href="#hex-connector"/><use width="14.01" height="15.06" transform="matrix(0.38, 0.09, 0.01, 0.41, 68.39, 47.62)" xlink:href="#hex-connector"/><use width="132.05" height="112.18" transform="matrix(0.38, 0.09, 0.01, 0.41, 44.28, 47.85)" xlink:href="#hex-plain"/><use width="14.01" height="15.06" transform="matrix(0.19, -0.3, 0.33, 0.29, 86.3, 41.27)" xlink:href="#hex-connector"/><use width="14.01" height="15.06" transform="matrix(0.38, 0.09, 0.01, 0.41, 112.69, 81.43)" xlink:href="#hex-connector"/><use width="132.05" height="112.18" transform="matrix(0.38, 0.09, 0.01, 0.41, 85.95, 29.96)" xlink:href="#hex-green-tick"/><use width="132.05" height="112.18" transform="matrix(0.38, 0.09, 0.01, 0.41, 88.58, 81.66)" xlink:href="#hex-green-tick"/><use width="14.01" height="15.06" transform="matrix(0.19, -0.3, 0.33, 0.29, 129.96, 75.5)" xlink:href="#hex-connector"/><use width="132.05" height="112.18" transform="matrix(0.38, 0.09, 0.01, 0.41, 130.35, 62.86)" xlink:href="#hex-data"/><use width="132.05" height="112.18" transform="matrix(0.38, 0.09, 0.01, 0.41, 42.68, -3.62)" xlink:href="#hex-green-tick"/><g class="cls-15"><path class="cls-16" d="M76.36,84c-2.23,2.25-.8,5.78,1.69,20.85a17.7,17.7,0,0,0,2.18,6c2.2,4.34,7.73,4.68,8.49.55a151.86,151.86,0,0,0-6.53-25.9,5.44,5.44,0,0,0-2.44-2.59C78.09,82.24,76.76,83.59,76.36,84Z"/><path class="cls-16" d="M80.58,83.66l2.54,19c-7,2.67-15.71.21-25.52-5.86L55,77.65C64.3,74.82,72.78,77.2,80.58,83.66Z"/><path class="cls-16" d="M55.31,77.06c-3.22.65-3.29,4.1-7.27,17.07a13.17,13.17,0,0,0-.37,5.74c.35,4.48,5.79,7.48,8.33,4.64A107.14,107.14,0,0,0,60.56,81.1a5.07,5.07,0,0,0-1.35-3.23A4.32,4.32,0,0,0,55.31,77.06Z"/><path class="cls-17" d="M64.41,70.11l.07,9.07c1.32,1.57-.2-.17,4,2.54,1.16,1.14,6.26,2.26,6.58,1.5l-1.44-6.06Z"/><path class="cls-18" d="M74.83,81.9c-6.73-3.14-9.54-7.4-9.56-10.46l9.22,8.25Z"/><path class="cls-17" d="M80.08,63.78c1.11,6.47,1.41,11.47.67,15S74.8,80.23,74,80c-5.7-1.4-8.89-7.51-9-7.8A34.68,34.68,0,0,1,62.78,60c0-3.37.09-5.94,1.89-7.47,2.65-2.27,7.88-1.22,11.19,1.91C78,56.52,79.25,59,80.08,63.78Z"/><ellipse class="cls-19" cx="71.29" cy="65.86" rx="0.88" ry="1.36" transform="translate(-13.81 19.2) rotate(-14)"/><ellipse class="cls-19" cx="77.67" cy="67.03" rx="0.88" ry="1.36" transform="translate(-13.91 20.78) rotate(-14)"/><polygon class="cls-18" points="74.2 70.73 76.61 71.16 75.33 65.62 75.23 65.63 75.89 70.44 74.24 70.64 74.2 70.73"/><polygon class="cls-19" points="75.99 70.55 75.23 65.45 75.09 65.43 75.7 70.48 75.99 70.55"/><path class="cls-20" d="M79,64.46A2.06,2.06,0,0,0,77,64"/><path class="cls-20" d="M72.08,63a2,2,0,0,0-2-.42"/><path class="cls-21" d="M65.16,64.62l1.55-.29a10.38,10.38,0,0,0,.38-5.81c-.94-4.33-.63-5.79.08-6,1.5-.5,5.14,4.25,6.15,3.58.54-.36-.21-1.88.4-2.23.82-.47,3,1.72,3.1,1.62a8.79,8.79,0,0,0-2.56-2.39,10.18,10.18,0,0,0-6.4-1.77,5.76,5.76,0,0,0-4.63,2.54A7.64,7.64,0,0,0,62.44,59c0,1.18,0,2.36,0,3.54Z"/><path class="cls-17" d="M65.83,65.27c-.68-2-2.75-3.88-3.66-3.6s-.81,3.31.54,5.45c.09.16,1.37,2.16,2.37,2.08S66.44,67,65.83,65.27Z"/><path class="cls-18" d="M62.79,62.51c1,.07,2.19,3.87,2.17,3.88l0,0c-.07,0-.7-.51-.92-.33-.06,0-.08.15-.09.14a.32.32,0,0,1,.09-.27c.21-.15.77.3.91.44-.2-.38-1.2-3.17-2-3.49-.28-.12-.6.09-.63,0S62.51,62.49,62.79,62.51Z"/><path class="cls-18" d="M72.64,67.06c-.81,1-1.83,1-3.07.11.85,1.34,1.86,1.72,3.15.38Z"/><path class="cls-18" d="M76.72,67.83c.64,1.32,1.38,1.78,2.24,1.35-.55,1-1.26,1-2.27-.89Z"/><path class="cls-22" d="M72.12,83.12l2.78,4.93c1.68-2.14,2.55-4,1.59-7.41a13.08,13.08,0,0,1-2.06-.47C74.69,83.26,73.78,83.35,72.12,83.12Z"/><path class="cls-22" d="M64.39,74.24c1.45,5.56,4,8.22,7.74,8.87l-2.87,4.6C65.9,84.53,63.08,80.49,63,76.2Z"/></g><text class="cls-23" transform="matrix(0.94, 0.22, 0.03, 1, 54.6, 30.33)">S<tspan class="cls-24" x="14.23" y="0">P</tspan></text><polygon class="cls-6" points="105.15 95.35 100.15 94.17 100.87 117.2 105.87 118.37 105.15 95.35"/><polygon class="cls-6" points="111.84 102.38 106.84 101.21 107.39 118.73 112.39 119.91 111.84 102.38"/><polygon class="cls-6" points="118.57 110.47 113.57 109.29 113.91 120.26 118.91 121.44 118.57 110.47"/><polygon class="cls-6" points="125.17 114.62 120.17 113.44 120.43 121.8 125.43 122.97 125.17 114.62"/><path class="cls-6" d="M111.13,60l1.76-9.12a13.7,13.7,0,0,1,7,8.29c1.67,5.52-.92,10.43-5.73,10.88S104,66.38,102.37,60.87Z"/><path class="cls-25" d="M110,58.6l-10.42.92c-1.93-6.52,1.14-12.31,6.83-12.85a10.77,10.77,0,0,1,5.33.95Z"/><use width="132.05" height="112.18" transform="matrix(0.38, 0.09, 0.01, 0.41, 131.93, 113.56)" xlink:href="#hex-data"/><use width="492.25" height="170.43" transform="matrix(0.06, 0.01, 0, 0.07, 139.6, 83.19)" xlink:href="#logo-nhs"/><text class="cls-26" transform="matrix(0.94, 0.22, 0.03, 1, 139.36, 143.22)">OGDs</text><use width="132.05" height="112.18" transform="matrix(0.38, 0.09, 0.01, 0.41, 174.81, 95.91)" xlink:href="#hex-data"/><text class="cls-26" transform="matrix(0.94, 0.22, 0.03, 1, 182.55, 125.85)">HMRC</text><use width="132.05" height="112.18" transform="matrix(0.38, 0.09, 0.01, 0.41, 89.44, 131.58)" xlink:href="#hex-green-tick"/><text class="cls-27" transform="matrix(0.94, 0.22, 0.03, 1, 98.35, 163.51)">DW<tspan class="cls-28" x="23.24" y="0">P</tspan></text><use width="14.01" height="15.06" transform="matrix(0.38, 0.09, 0.01, 0.41, 114.8, 133.08)" xlink:href="#hex-connector"/><use width="14.01" height="15.06" transform="matrix(0.19, -0.3, 0.33, 0.29, 174.89, 107.71)" xlink:href="#hex-connector"/><use width="132.05" height="112.18" transform="matrix(0.38, 0.09, 0.01, 0.41, -0.74, 15.4)" xlink:href="#hex-green-tick"/><use width="14.01" height="15.06" transform="matrix(0.19, -0.3, 0.33, 0.29, 44.1, 59.94)" xlink:href="#hex-connector"/><g id="objbutton5"><rect class="cls-29" x="150.21" y="174.36" width="87.78" height="67.67" rx="10.53"/><text class="cls-30" transform="translate(156.55 194.2)">Joined Up<tspan x="1.65" y="17.92">&amp; </tspan><tspan class="cls-31" x="16.59" y="17.92">T</tspan><tspan x="24.88" y="17.92">rusted</tspan><tspan x="19.9" y="35.83">Data</tspan></text></g><path class="cls-2" d="M155.61,249.44c-5.11,5.17-11.24,6.35-18,5.21a2.6,2.6,0,0,0-.53,3.63c9.44,1.84,16.18-.33,20.29-6.41Z"/><use width="27.06" height="37.35" transform="translate(148.98 240.91) scale(0.98)" xlink:href="#bot-body"/><ellipse class="cls-14" cx="167.21" cy="282.6" rx="12.01" ry="3.92"/><path class="cls-2" d="M195.05,263.94c-1.21-3.45-3.29-3.93-6.31-3.74l-3.53,1c-1.69,2.75-2.2,5.33-1.55,7.74l2.9-.65c-.43-2.1-.57-4.08.83-5.06,2.42-1.51,4.73-.95,5.84,1.84Z"/><path class="cls-2" d="M144,235.55c10.32,7.06,19.65,6.73,27.59-4-2.82-12.59-9-14.26-16.16-12.92C148.6,220.74,145,226.66,144,235.55Z"/><path class="cls-4" d="M169.26,233.84a24.28,24.28,0,0,0,2-2.33c-2.83-12.59-8.35-13.91-15.48-12.57C161.78,218.08,170.25,225,169.26,233.84Z"/><path class="cls-32" d="M147,232.94c5,4.92,10.39,4.93,15.66,1.48-.15-7.38-4.76-9.75-9.32-9.25C149.44,226.45,148.09,228.3,147,232.94Z"/><ellipse class="cls-9" cx="151.04" cy="231.53" rx="1.01" ry="1.83" transform="translate(-44.27 35.9) rotate(-11.83)"/><ellipse class="cls-9" cx="156.14" cy="231.92" rx="1.01" ry="1.83" transform="translate(-44.24 36.95) rotate(-11.83)"/><text class="cls-33" transform="translate(154.82 255.81) rotate(-1.78)">DW<tspan class="cls-34" x="9.24" y="0">P</tspan></text><path class="cls-2" d="M171.59,245.71c7.35,2.51,13.71,7.32,16.41,13.93.6,2.58-1.41,2.52-3.39,1.59-3.05-6.34-8-8.84-14.64-12.46C169.84,248.06,170.31,245.91,171.59,245.71Z"/><ellipse class="cls-14" cx="96.64" cy="280.7" rx="12.01" ry="3.92"/><path class="cls-35" d="M110.75,253c5.53,3.84,11.44,4.06,17.56,2.13a.66.66,0,0,1,.62.1,2.46,2.46,0,0,1,.89,3,.69.69,0,0,1-.44.44c-8.69,3-15.46,1.95-20.34-3.07a.7.7,0,0,1-.11-.81l.81-1.54A.7.7,0,0,1,110.75,253Z"/><path class="cls-36" d="M69.13,259.16c1.53-2.78,3.55-3,6.33-2.55l.15,0,3.07,1.21a.67.67,0,0,1,.38.36,9.81,9.81,0,0,1,.83,6.95.68.68,0,0,1-.87.43l-1.53-.52a.68.68,0,0,1-.45-.83c.52-1.81.68-3.49-.48-4.5-2.06-1.61-4.22-1.48-5.63.61a.68.68,0,0,1-1,.15l-.63-.48A.68.68,0,0,1,69.13,259.16Z"/><path class="cls-37" d="M122.21,237c-10.75,5.66-19.79,4.31-26.46-6.82a.7.7,0,0,1-.06-.6c4.12-11.89,10.4-12.88,17.27-10.84l.11,0c6.46,2.8,9.38,8.9,9.51,17.58A.7.7,0,0,1,122.21,237Z"/><path class="cls-38" d="M115.78,250.41c-3.3,14.4-18.36,29.41-22.84,24.21-4-4.63-5.78-20.93-.13-31C97.17,235.85,117.44,243.21,115.78,250.41Z"/><path class="cls-39" d="M119.58,234.18c-5.29,4-10.38,3.5-15.08-.18a.73.73,0,0,1-.27-.66c1.06-7,5.73-8.75,10.11-7.83l.17.05c3.58,1.63,4.75,3.55,5.34,7.95A.72.72,0,0,1,119.58,234.18Z"/><path class="cls-40" d="M94.33,244.11a.67.67,0,0,0-.42,0c-7.49,1.74-14.22,5.83-17.58,12.07-.84,2.4,1,2.64,3,2a.69.69,0,0,0,.36-.29c3.63-5.71,8.62-7.7,15.38-10.48a.67.67,0,0,0,.43-.58C95.51,246,95.22,244.52,94.33,244.11Z"/><path class="cls-6" d="M94.06,250.41a27.74,27.74,0,0,0-1,16.54"/><path class="cls-41" d="M94.09,250.42c-1.93,5.35-1.59,11-1,16.52L93,267c-2-5.24-1.2-11.66,1.06-16.54Z"/><path class="cls-41" d="M112.67,248c-4.21,2.51-9.85,1.52-13.94-.82-1.3-.86-2.92-2.16-2.73-3.89h.08c.41,3,4.78,4.3,7.33,5a16.27,16.27,0,0,0,9.26-.27Z"/><path class="cls-2" d="M137.4,254.37l-5.29-1.79a.69.69,0,0,0-.89.48l-1.34,5.2a.69.69,0,0,0,.75.86l6.45-.75a.68.68,0,0,0,.61-.63l.18-2.67A.69.69,0,0,0,137.4,254.37Z"/><path class="cls-36" d="M128.53,255.41l.5,3.07a.7.7,0,0,0,.32.48l3.79,2.31a.7.7,0,0,0,.86-.11l1.53-1.59a.69.69,0,0,0-.47-1.17l-.74,0a.69.69,0,0,1-.5-.23l-1.35-1.55a.69.69,0,0,1,.39-1.13l1.49-.28a.69.69,0,0,0,.26-1.25l-3-2a.7.7,0,0,0-1,.17l-2,2.8A.71.71,0,0,0,128.53,255.41Z"/><path id="path10-2" data-name="path10" class="cls-42" d="M104,251.52l-.91,4.27h-1.43l-.9-3h0l-.6,3H99.07l.92-4.27h1.43l.88,3h0l.6-3Zm4.4.07-.89,4.27h-1.15l.38-1.83h-1.36l-.38,1.83h-1.15l.89-4.27h1.15l-.34,1.64h1.36l.34-1.64Zm3.64.19-.27.85a2.3,2.3,0,0,0-1-.19c-.46,0-.83.06-.83.41,0,.6,1.67.38,1.67,1.67s-1.1,1.49-2.1,1.49a4.62,4.62,0,0,1-1.32-.22l.27-.87a2.17,2.17,0,0,0,1,.25c.36,0,.92-.07.92-.51,0-.69-1.67-.43-1.67-1.63s1-1.44,1.92-1.44a3.56,3.56,0,0,1,1.31.19"/><rect class="cls-43" x="110.03" y="229.67" width="1.72" height="3.49"/><rect class="cls-43" x="114.57" y="229.67" width="1.72" height="3.49"/><path class="cls-2" d="M133.24,255.65l-3.38-1.08.5,2.58c2.12,1.21,4.1,1.76,5.86,1.32"/><use width="15.94" height="15.44" transform="translate(58.92 136.87) scale(1.73)" xlink:href="#clipboard"/><path class="cls-2" d="M31.3,173c.26-3.35,2.14-4.28,5.1-4.84h3.66c2.36,2,3.53,4.19,3.54,6.48l-3,.12c-.14-2-.53-3.74-2.13-4.27-2.74-.75-4.82.3-5.15,3Z"/><path class="cls-44" d="M49.58,150.71c-8,5.07-11.12,11.91-9.2,17.53a2.77,2.77,0,0,1-3.67.11c-.77-8.8,3.68-15.18,10.18-18.3Z"/><path class="cls-45" d="M81.82,153.82c-2.65.29-3.88-1.13-4.56-3.22l2.25-2.09c.07,2,.9,3.24,3,3.07,1.41-1.12,1.79-2.85,1.51-5a6.79,6.79,0,0,1,1.55,1.91,8.37,8.37,0,0,1-.76,4.77Z"/><ellipse class="cls-14" cx="56.03" cy="186.12" rx="12.01" ry="3.92"/><use width="27.06" height="37.35" transform="translate(46.65 141.96) rotate(18.42) scale(0.98)" xlink:href="#bot-body"/><path class="cls-2" d="M84.69,154c-2.76,9.12-10.66,8.13-19.06,5.54-2.57-.63-1.73-2-.1-3,7.49,1.73,14.29,3.59,17-4.93C83.26,151.87,85,153.06,84.69,154Z"/><path class="cls-46" d="M71.57,144.35c-11,5.93-20.25,6.22-27-5.31,4.14-12.22,9.89-13.57,16.84-11.48C68,130.4,71.53,135.41,71.57,144.35Z"/></g></g></g></g></svg>