<svg xmlns="http://www.w3.org/2000/svg" xmlns:xlink="http://www.w3.org/1999/xlink" viewBox="0 0 227.06 106.25"><defs><style>.cls-1,.cls-12,.cls-7{fill:#fff;}.cls-2{fill:#5789ba;}.cls-3{fill:#65aff5;}.cls-4{fill:#466f96;}.cls-5{fill:#fafafa;}.cls-6{fill:#227868;}.cls-7{font-size:14.93px;font-family:Arial-BoldMT, Arial;font-weight:700;}.cls-8{fill:url(#linear-gradient);}.cls-9{fill:#ed1e79;}.cls-10{fill:url(#linear-gradient-2);}.cls-11{fill:url(#linear-gradient-3);}.cls-12,.cls-13,.cls-14,.cls-15,.cls-17,.cls-18,.cls-19{stroke:#00703c;stroke-miterlimit:10;stroke-width:0.75px;}.cls-13{fill:url(#linear-gradient-4);}.cls-14{fill:url(#linear-gradient-5);}.cls-15{fill:url(#linear-gradient-6);}.cls-16{fill:#00703c;}.cls-17{fill:url(#linear-gradient-7);}.cls-19{fill:#31ab94;}</style><linearGradient id="linear-gradient" x1="166.46" y1="76.16" x2="227.06" y2="76.16" gradientUnits="userSpaceOnUse"><stop offset="0" stop-color="#29abe2"/><stop offset="1" stop-color="#b879b0"/></linearGradient><linearGradient id="linear-gradient-2" x1="194.03" y1="81.04" x2="201.48" y2="81.04" xlink:href="#linear-gradient"/><linearGradient id="linear-gradient-3" x1="197.22" y1="69.76" x2="217.38" y2="69.76" gradientUnits="userSpaceOnUse"><stop offset="0" stop-color="#fff" stop-opacity="0"/><stop offset="1" stop-color="#ed1e79" stop-opacity="0.7"/></linearGradient><linearGradient id="linear-gradient-4" x1="63.01" y1="-238.45" x2="82.04" y2="-247.97" gradientTransform="matrix(-0.18, -0.98, -0.98, 0.18, -176.9, 155.74)" gradientUnits="userSpaceOnUse"><stop offset="0.56" stop-color="#fff"/><stop offset="1" stop-color="#add9d1"/></linearGradient><linearGradient id="linear-gradient-5" x1="2342.45" y1="93.46" x2="2366.97" y2="93.46" gradientTransform="matrix(-1, -0.09, -0.09, 1, 2387.3, 165.47)" xlink:href="#linear-gradient-4"/><linearGradient id="linear-gradient-6" x1="110.71" y1="-1991.73" x2="110.8" y2="-1991.82" gradientTransform="matrix(-0.38, -0.68, 0.87, -0.49, 1812.51, -863.25)" xlink:href="#linear-gradient-4"/><linearGradient id="linear-gradient-7" x1="2148.05" y1="480.51" x2="2175.88" y2="480.51" gradientTransform="matrix(-0.95, -0.31, -0.31, 0.95, 2242.63, 220.73)" xlink:href="#linear-gradient-4"/><symbol id="hex-blue-clock" data-name="hex-blue-clock" viewBox="0 0 132.05 112.17"><polygon class="cls-2" points="101.86 106.56 91.86 112.14 30.27 5.92 40.13 0 101.18 0.79 132.05 54.07 101.86 106.56"/><polygon class="cls-3" points="91.92 112.17 30.87 111.39 0 58.11 30.18 5.62 91.24 6.4 122.11 59.68 91.92 112.17"/><path class="cls-4" d="M124.71,25.66c.69,23.59-36.77,23.59-36.77,0S125.4,2.08,124.71,25.66Z"/><path class="cls-2" d="M121.24,28.44c.69,23.58-36.77,23.58-36.77,0S121.24,4.16,121.24,28.44Z"/><circle class="cls-5" cx="102.81" cy="28.31" r="13.83"/><path d="M102.8,42.47A14.17,14.17,0,1,1,117,28.31,14.18,14.18,0,0,1,102.8,42.47Zm0-27.67a13.51,13.51,0,1,0,13.51,13.51A13.52,13.52,0,0,0,102.8,14.8Z"/><polygon points="100.83 28.3 108.73 18.43 102.81 28.3 104.78 35.55 100.83 28.3"/><polygon points="102.15 14.47 103.17 17.54 104.12 14.47 102.15 14.47"/><polyline points="104.12 42.14 102.54 42.14 103.14 38.97"/><polyline points="88.97 28.04 88.97 29.62 91.61 28.96"/><polyline points="116.64 26.99 116.64 28.96 113.34 27.65"/></symbol><symbol id="fast-forward" data-name="fast-forward" viewBox="0 0 74.08 30.84"><polygon class="cls-1" points="26.71 15.42 0 0 0 30.84 26.71 15.42"/><polygon class="cls-1" points="50.22 15.42 23.51 0 23.51 30.84 50.22 15.42"/><polygon class="cls-1" points="74.08 15.42 47.37 0 47.37 30.84 74.08 15.42"/></symbol></defs><g id="Layer_2" data-name="Layer 2"><g id="MainLayer"><g id="greenzone"><g id="service5"><g id="objbutton7"><rect class="cls-6" x="59.63" y="38.58" width="99.32" height="67.67" rx="11.2"/><text class="cls-7" transform="translate(66.31 58.68)">Accelerated <tspan x="11.21" y="17.92">Decision </tspan><tspan x="16.61" y="35.83">Making</tspan></text></g><g id="obj8"><path class="cls-1" d="M177.19,100.21a27.45,27.45,0,1,1,39.38-.62"/><path class="cls-8" d="M219.4,101a30.28,30.28,0,0,0-43.55-42l0,0-.08.12a30.19,30.19,0,0,0-9.29,21.8c0,6.73,3.27,14.51,8.74,20.81l.15-.13h0l5.19-4-1.38-1.85L176.28,98l-.34-.44-.31-.42c-3-4.11-5.62-9.6-6-15.08l3.71,0V79.75l-3.72,0a27.06,27.06,0,0,1,7.12-17.22l4.7,3.52,1.38-1.85-4.43-3.31A27.06,27.06,0,0,1,196,53.79l0,5.1h2.31l0-5.08a27,27,0,0,1,16.72,7l-3.71,2.94,1.38,1.85,4-3.15a27,27,0,0,1,7.23,17.07l-4.5.1v2.3l4.52-.1a27,27,0,0,1-6,16.16l-3.41-3-1.38,1.84,5,4.23.7.65.07-.08.06,0Z"/><path class="cls-9" d="M198.48,82.12l-1.16-2a.53.53,0,0,1,.22-.74l19.15-9.63a.53.53,0,0,1,.69.22h0a.52.52,0,0,1-.16.7l-18,11.65A.52.52,0,0,1,198.48,82.12Z"/><path class="cls-9" d="M194,93.15a1.72,1.72,0,0,0,.31,0,1.09,1.09,0,0,0,.59-.28,1.28,1.28,0,0,0,.38-.75h0a.85.85,0,0,1-1.5-.56,1,1,0,0,1,1-1c.58,0,.93.47.93,1.19a1.81,1.81,0,0,1-.48,1.33,1.42,1.42,0,0,1-.83.38,1.5,1.5,0,0,1-.35,0Zm.14-1.63a.54.54,0,0,0,.54.6.63.63,0,0,0,.56-.29.29.29,0,0,0,0-.14c0-.49-.18-.86-.58-.86S194.17,91.12,194.17,91.52Z"/><path class="cls-9" d="M197.92,92c0,1-.35,1.5-1,1.5S196,93,196,92s.41-1.47,1-1.47S197.92,91.07,197.92,92Zm-1.53,0c0,.73.22,1.15.57,1.15s.58-.46.58-1.18-.18-1.15-.57-1.15S196.39,91.25,196.39,92Z"/><path class="cls-9" d="M200.16,92c0,1-.36,1.5-1,1.5s-.93-.52-.94-1.46.41-1.47,1-1.47S200.16,91.07,200.16,92Zm-1.54,0c0,.73.23,1.15.58,1.15s.58-.46.58-1.18-.18-1.15-.58-1.15S198.62,91.25,198.62,92Z"/><path class="cls-9" d="M201.34,91h0l-.5.26-.07-.29.62-.33h.32v2.83h-.37Z"/><circle class="cls-10" cx="197.75" cy="81.04" r="3.73"/><path class="cls-11" d="M217.38,70c-4.68-7.63-10.73-11.95-19.65-11.1l-.51,21.9Z"/><path class="cls-12" d="M61.25,51.05c-3.35-1.46-3.69-3.57-3.28-6.57L59.19,41c2.87-1.49,5.48-1.81,7.83-1l-.86,2.84c-2.06-.58-4-.86-5.1.47-1.68,2.31-1.29,4.65,1.42,5.95Z"/><path class="cls-13" d="M44.41,25.72c2.54,9.4,8.53,14.81,15,15a2.6,2.6,0,0,1-1.11,3.5C49,41.79,43.88,35.28,42.83,28Z"/><path class="cls-12" d="M7.47,47c1.72-3.23,3.85-3.4,6.8-2.76l3.35,1.48c1.26,3,1.38,5.6.38,7.89l-2.77-1.08c.74-2,1.17-3.94-.07-5.12-2.17-1.85-4.54-1.65-6,1Z"/><path class="cls-14" d="M47.34,28.46c-.1,14.77-11.53,32.7-17,28.6-4.89-3.65-10.18-19.18-6.86-30.22C26,18.3,47.39,21.07,47.34,28.46Z"/><path class="cls-15" d="M14.52,44.79A26.36,26.36,0,0,1,24.3,27.51c2.28-1.34,2.62.22,2.13,2-5.3,4.49-6.68,9.08-8.75,15.42C17.05,45.32,15,45.7,14.52,44.79Z"/><path class="cls-1" d="M43.53,32.36A28.59,28.59,0,0,1,38.06,48"/><path class="cls-16" d="M43.57,32.36C43.45,37.9,42,43.86,38.09,48L38,48c1.28-2.49,2.59-4.9,3.63-7.48a37.74,37.74,0,0,0,1.91-8.11Z"/><path class="cls-16" d="M44.52,27.37c-3.71,3.21-9.44,3.24-13.88,1.65-1.42-.62-3.25-1.61-3.36-3.35h.07c1,2.93,5.44,3.38,8.09,3.61a16.29,16.29,0,0,0,9.08-1.9Z"/><path class="cls-17" d="M50,19.28c-11,5.93-20.25,4.61-27-6.92C27.15.14,33.5-.85,40.45,1.24,47.05,4.08,50,10.34,50,19.28Z"/><path class="cls-18" d="M49.71,17.38A9,9,0,0,1,42.87,19c-.37-.06,1.67-10.74,4.87-10C48.62,10.8,49.23,14.17,49.71,17.38Z"/><ellipse class="cls-19" cx="46.93" cy="14.27" rx="1.83" ry="1.01" transform="translate(18.9 54.52) rotate(-72.06)"/></g><use width="132.05" height="112.18" transform="translate(0 59.26) scale(0.38)" xlink:href="#hex-blue-clock"/><use width="74.08" height="30.84" transform="translate(11.03 76.81) scale(0.38)" xlink:href="#fast-forward"/></g></g></g></g></svg>