<svg xmlns="http://www.w3.org/2000/svg" xmlns:xlink="http://www.w3.org/1999/xlink" viewBox="0 0 278.72 145.06"><defs><style>.cls-1{fill:#c79459;}.cls-2{fill:#ebc8c8;}.cls-3{fill:#ebd1d1;}.cls-4{fill:#ffb302;}.cls-5{fill:#424242;}.cls-6{fill:red;}.cls-7{fill:#a37949;}.cls-8{font-size:8.76px;}.cls-10,.cls-26,.cls-39,.cls-44,.cls-8{fill:#fff;}.cls-26,.cls-8{font-family:Arial-BoldMT, Arial;font-weight:700;}.cls-9{fill:#6585f3;}.cls-11{fill:#d9d9d9;}.cls-12{fill:#bababa;}.cls-13,.cls-33{fill:#31ab94;}.cls-14{fill:#add9d1;}.cls-15{fill:#556080;}.cls-16{fill:#a97c50;}.cls-17{fill:#997046;}.cls-18{fill:#d1a074;}.cls-19{fill:#c7cac7;}.cls-20{fill:#ffcd31;}.cls-21{fill:#ffefb6;}.cls-22{fill:#f9ae63;}.cls-23{fill:#6b82a4;}.cls-24{fill:#aabcda;}.cls-25{fill:#227868;}.cls-26{font-size:14.27px;}.cls-27{opacity:0.05;}.cls-28{opacity:0.08;}.cls-29,.cls-30,.cls-31,.cls-34,.cls-35,.cls-36,.cls-37,.cls-38,.cls-39,.cls-40,.cls-41,.cls-43,.cls-44{stroke:#00703c;stroke-width:0.75px;}.cls-29,.cls-30,.cls-31,.cls-32,.cls-33,.cls-34,.cls-35,.cls-36,.cls-37,.cls-38,.cls-39,.cls-40,.cls-41,.cls-43{stroke-miterlimit:10;}.cls-29{fill:url(#linear-gradient);}.cls-30{fill:url(#linear-gradient-2);}.cls-31{fill:url(#linear-gradient-3);}.cls-32,.cls-33{stroke:#4b9c4c;stroke-width:0.5px;}.cls-34{fill:url(#linear-gradient-4);}.cls-35{fill:url(#linear-gradient-5);}.cls-36{fill:url(#linear-gradient-6);}.cls-37{fill:url(#linear-gradient-7);}.cls-38{fill:url(#linear-gradient-8);}.cls-40{fill:url(#linear-gradient-9);}.cls-41{fill:url(#linear-gradient-10);}.cls-42{fill:#00703c;}.cls-43{fill:url(#linear-gradient-11);}.cls-44{stroke-linecap:round;stroke-linejoin:round;}</style><linearGradient id="linear-gradient" x1="252.35" y1="272.24" x2="264.21" y2="321.62" gradientTransform="translate(-86.97 -255.77) rotate(6.9)" gradientUnits="userSpaceOnUse"><stop offset="0.56" stop-color="#fff"/><stop offset="1" stop-color="#add9d1"/></linearGradient><linearGradient id="linear-gradient-2" x1="388.23" y1="259.68" x2="414.92" y2="259.68" gradientTransform="translate(-230.4 -229.35) rotate(4.48)" xlink:href="#linear-gradient"/><linearGradient id="linear-gradient-3" x1="390.93" y1="288.03" x2="414.45" y2="288.03" gradientTransform="translate(-230.4 -229.35) rotate(4.48)" xlink:href="#linear-gradient"/><linearGradient id="linear-gradient-4" x1="-36.93" y1="-486.67" x2="-27.73" y2="-486.67" gradientTransform="translate(322.9 549.73) rotate(-16.39)" xlink:href="#linear-gradient"/><linearGradient id="linear-gradient-5" x1="-40.21" y1="-502.41" x2="-24.97" y2="-502.41" gradientTransform="translate(322.9 549.73) rotate(-16.39)" xlink:href="#linear-gradient"/><linearGradient id="linear-gradient-6" x1="3012" y1="1037.04" x2="3022.25" y2="1037.04" gradientTransform="translate(1234.39 -2930.35) rotate(91.1)" xlink:href="#linear-gradient"/><linearGradient id="linear-gradient-7" x1="3643.84" y1="-2306.27" x2="3655.7" y2="-2256.89" gradientTransform="translate(4289.29 -1107.84) rotate(-164.22)" xlink:href="#linear-gradient"/><linearGradient id="linear-gradient-8" x1="1260.03" y1="1157.58" x2="1270.08" y2="1157.58" gradientTransform="translate(-19.09 -1610.2) rotate(41.85)" xlink:href="#linear-gradient"/><linearGradient id="linear-gradient-9" x1="471.2" y1="245.31" x2="489.27" y2="236.26" gradientTransform="translate(351.25 592.26) rotate(-144.46)" xlink:href="#linear-gradient"/><linearGradient id="linear-gradient-10" x1="2330.93" y1="160.91" x2="2354.36" y2="160.91" gradientTransform="matrix(1, 0.01, -0.01, 1, -2258.66, -62.73)" xlink:href="#linear-gradient"/><linearGradient id="linear-gradient-11" x1="2202.29" y1="533.02" x2="2228.4" y2="533.02" gradientTransform="translate(-2196.22 36.53) rotate(-12.09)" xlink:href="#linear-gradient"/><symbol id="hex-connector" data-name="hex-connector" viewBox="0 0 14.01 15.06"><rect class="cls-13" width="14.01" height="15.06"/></symbol><symbol id="hex-plain" data-name="hex-plain" viewBox="0 0 132.05 112.17"><polygon class="cls-13" points="101.86 106.56 91.86 112.14 30.27 5.92 40.13 0 101.18 0.79 132.05 54.07 101.86 106.56"/><polygon class="cls-14" points="91.92 112.17 30.87 111.39 0 58.11 30.18 5.62 91.24 6.4 122.11 59.68 91.92 112.17"/></symbol><symbol id="birthday-cake_2" data-name="birthday-cake 2" viewBox="0 0 17.6 24.82"><path class="cls-1" d="M.31,13.89v7.67A1.5,1.5,0,0,0,1,23a18.58,18.58,0,0,0,15.45,0,1.54,1.54,0,0,0,.7-1.41v-7.7c0-.75-.38-1.37-.88-1.45L9,11.24h-.2l-7.6,1.19C.69,12.51.31,13.14.31,13.89Z"/><path class="cls-2" d="M15.72,9.54a31.65,31.65,0,0,0-13.8,0A1.89,1.89,0,0,0,0,11.42a1.45,1.45,0,0,0,.21,1.23,1.39,1.39,0,0,0,.49.29,3,3,0,0,1,1.37,1,3.16,3.16,0,0,1,.16,1.18c0,.49,0,.91,0,1.2a.7.7,0,0,0,1.4,0A3.52,3.52,0,0,1,4,13.9a2.2,2.2,0,0,1,.39-.46,2.3,2.3,0,0,1,1.46-.62c1.47,0,1.47,1.23,2.93,1.23s1.46-1.23,2.92-1.23,1.47,1.23,2.93,1.23a2.21,2.21,0,0,0,.69-.11,3.11,3.11,0,0,0,2-1.19,2.22,2.22,0,0,0,.27-1.33A1.88,1.88,0,0,0,15.72,9.54Z"/><path class="cls-3" d="M15.72,9.54a31.65,31.65,0,0,0-13.8,0A1.9,1.9,0,0,0,.15,10.79C1.47,11.48,4.84,12,8.79,12s7.4-.5,8.68-1.19A1.86,1.86,0,0,0,15.72,9.54Z"/><path class="cls-4" d="M7.57,2.43A2.93,2.93,0,0,1,8.89,0a3,3,0,0,1,1.32,2.43c0,1-.59,1.8-1.32,1.8s-1.32-.8-1.32-1.8Z"/><path class="cls-5" d="M8.89,3.43a.34.34,0,0,0-.34.34v1.8h.68V3.77A.34.34,0,0,0,8.89,3.43Z"/><path class="cls-6" d="M9.34,5.12h-.9A.45.45,0,0,0,8,5.57V9.43a1.65,1.65,0,0,0,1.8,0V5.57A.45.45,0,0,0,9.34,5.12Z"/><circle class="cls-7" cx="2.05" cy="19.46" r="0.35"/><circle class="cls-7" cx="14.49" cy="20.81" r="0.35"/><circle class="cls-7" cx="15.99" cy="17.03" r="0.35"/><circle class="cls-7" cx="1.18" cy="16.45" r="0.35"/><circle class="cls-7" cx="5.36" cy="21.34" r="0.35"/><text class="cls-8" transform="translate(3.85 21.52)">66</text></symbol><symbol id="symbol-briefcase" data-name="symbol-briefcase" viewBox="0 0 24.59 21.77"><path class="cls-15" d="M16.53,7.09a1,1,0,0,1-1-1V1.93L9,2l.06,4.09a1,1,0,1,1-2,0V1.93A1.94,1.94,0,0,1,9,0H15.6a1.94,1.94,0,0,1,1.93,1.93V6.09A1,1,0,0,1,16.53,7.09Z"/><path class="cls-16" d="M23.73,21.77H.85A.85.85,0,0,1,0,20.92V5.67a.86.86,0,0,1,.85-.86H23.73a.87.87,0,0,1,.86.86V20.92A.86.86,0,0,1,23.73,21.77Z"/><path class="cls-17" d="M3.39,4.81H.85A.86.86,0,0,0,0,5.67V20.92a.85.85,0,0,0,.85.85H3.39Z"/><path class="cls-17" d="M23.73,4.81H21.19v17h2.54a.86.86,0,0,0,.86-.85V5.67A.87.87,0,0,0,23.73,4.81Z"/><rect class="cls-18" x="2.97" y="4.81" width="0.85" height="16.96"/><rect class="cls-18" x="20.77" y="4.81" width="0.85" height="16.96"/><rect class="cls-19" x="2.12" y="3.54" width="3.39" height="1.27"/><rect class="cls-19" x="18.9" y="3.53" width="3.39" height="1.27"/></symbol><symbol id="symbol-health" data-name="symbol-health" viewBox="0 0 20.73 20.73"><circle class="cls-10" cx="10.37" cy="10.37" r="10.37"/><rect class="cls-13" x="7.85" y="3.01" width="4.29" height="14.97"/><polygon class="cls-13" points="2.73 12.66 2.73 8.42 17.7 8.42 17.7 12.66 2.73 12.66"/></symbol><symbol id="symbol-wheelchair" data-name="symbol-wheelchair" viewBox="0 0 23.9 28.57"><path class="cls-10" d="M8,0a2.86,2.86,0,0,1,.57,5.66l.29,4.63h6.57v2.28H9l.14,2.29h8l3.56,8,2.31-1L23.9,24l-4.36,1.9,0,0-.05,0-3.81-8.7H6.29v-12A2.85,2.85,0,0,1,8,0Zm.57,28.57A8.57,8.57,0,0,1,5.14,12.14v2.59A6.29,6.29,0,1,0,14.86,20v-.06l1.44,3.77A8.56,8.56,0,0,1,8.57,28.57Z"/></symbol><symbol id="symbol-bulb" data-name="symbol-bulb" viewBox="0 0 4.53 6.86"><path class="cls-20" d="M4.52,2.33A2.29,2.29,0,0,0,2.27,0,2.29,2.29,0,0,0,0,2.33,2.4,2.4,0,0,0,.56,3.86h0l.49.89c.13.24.18.39.39.39H3.05c.22,0,.28-.16.4-.39L4,3.86H4a2.4,2.4,0,0,0,.54-1.53Z"/><path class="cls-21" d="M.15,2.62A2.65,2.65,0,0,1,2.45,0H2.26A2.29,2.29,0,0,0,0,2.33,2.42,2.42,0,0,0,.3,3.5a2.62,2.62,0,0,1-.15-.88Z"/><path class="cls-20" d="M4.52,2.34a2.46,2.46,0,0,0-.35-1.26,2.3,2.3,0,0,1,.07.58A3.16,3.16,0,0,1,.91,4.49l.14.27c.13.24.18.39.39.39H3.05c.22,0,.28-.16.4-.39L4,3.86H4a2.37,2.37,0,0,0,.54-1.52Z"/><path class="cls-22" d="M3.22,2.73h0a.14.14,0,0,0,0-.16.63.63,0,0,0-.73-.24l0,0A.56.56,0,0,0,2,2.29l0,0a.45.45,0,0,0-.28-.06.48.48,0,0,0-.42.39h0A4.54,4.54,0,0,1,1.8,3.81c0,.36,0,1.32,0,1.33H2s0-1,0-1.35A2.21,2.21,0,0,0,1.67,3c-.08-.16-.16-.31-.21-.39a.33.33,0,0,1,.25-.22l.11,0,0,.05a.28.28,0,0,0,.05.34.26.26,0,0,0,.21,0,.2.2,0,0,0,.15-.12.25.25,0,0,0,0-.19.24.24,0,0,0-.06-.11.44.44,0,0,1,.2,0l-.06.1a.28.28,0,0,0,0,.23.23.23,0,0,0,.16.1h0a.21.21,0,0,0,.15-.07.26.26,0,0,0,.07-.2.21.21,0,0,0-.05-.13.46.46,0,0,1,.44.12A4.65,4.65,0,0,0,2.85,3a2.73,2.73,0,0,0-.3.77c0,.36,0,1.31,0,1.35h.18s0-1,0-1.33a3.79,3.79,0,0,1,.49-1.08ZM2,2.69s0,0,0,0a0,0,0,0,1,0,0,.1.1,0,0,1,0-.12l0,0L2,2.62A.08.08,0,0,1,2,2.69Zm.47,0h0l0,0a.09.09,0,0,1,0-.07.1.1,0,0,1,.05-.06.2.2,0,0,1,0,.08A.09.09,0,0,1,2.5,2.7Z"/><path class="cls-23" d="M3.13,5.54H1.4a.18.18,0,0,0-.18.18v.1A.18.18,0,0,0,1.4,6H2c-.17.06-.35.21-.35.38v.07c.14.15.26.41.5.41h.32c.19,0,.32-.2.48-.41V6.38A.47.47,0,0,0,2.58,6h.55a.17.17,0,0,0,.17-.18v-.1a.17.17,0,0,0-.17-.18Z"/><path class="cls-24" d="M3.25,5.54h-2a.18.18,0,0,1-.17-.17V5.26a.18.18,0,0,1,.17-.17h2a.18.18,0,0,1,.18.17v.11A.18.18,0,0,1,3.25,5.54Zm-.1.73v-.1A.18.18,0,0,0,3,6H1.55a.18.18,0,0,0-.18.17v.1a.18.18,0,0,0,.18.18H3a.18.18,0,0,0,.18-.18Z"/></symbol><symbol id="clipboard" data-name="clipboard" viewBox="0 0 15.94 15.44"><path class="cls-9" d="M11.16,15.43.53,14.67A.54.54,0,0,1,0,14L3.89.63A.9.9,0,0,1,4.78,0L15.41.77a.53.53,0,0,1,.5.72L12.05,14.81A.9.9,0,0,1,11.16,15.43Z"/><polygon class="cls-10" points="11.1 14.12 1.27 13.41 4.7 1.59 14.53 2.3 11.1 14.12"/><polygon class="cls-11" points="12.59 3.87 5.69 3.38 5.83 2.89 12.73 3.38 12.59 3.87"/><polygon class="cls-11" points="12.27 4.95 5.37 4.46 5.51 3.97 12.41 4.47 12.27 4.95"/><polygon class="cls-11" points="11.96 6.04 5.06 5.54 5.2 5.05 12.1 5.55 11.96 6.04"/><polygon class="cls-11" points="8.82 7.04 4.71 6.74 4.86 6.25 8.96 6.55 8.82 7.04"/><polygon class="cls-11" points="10.98 9.4 4.09 8.91 4.23 8.42 11.13 8.92 10.98 9.4"/><polygon class="cls-11" points="10.65 10.7 3.76 10.21 3.9 9.72 10.79 10.21 10.65 10.7"/><polygon class="cls-11" points="10.27 11.84 3.37 11.35 3.51 10.86 10.41 11.36 10.27 11.84"/><polygon class="cls-12" points="8.09 0.6 11.39 0.84 10.93 1.5 11.34 3.06 7.32 2.84 8.28 1.41 8.09 0.6"/></symbol></defs><g id="Layer_2" data-name="Layer 2"><g id="MainLayer"><g id="greenzone"><g id="service1"><g id="objbutton3"><rect class="cls-25" x="157.87" y="40.45" width="120.85" height="45.98" rx="10.66"/><text class="cls-26" transform="translate(167.78 59.1)">Understanding <tspan x="-0.82" y="17.12">Circumstances</tspan></text></g><polygon class="cls-27" points="36.83 67.24 29.25 69.02 26.98 65.3 34.23 63.59 33.8 58.47 40.37 58.12 64.22 72.33 84.68 66.74 79.84 46.08 74.89 45.91 38.09 50.05 38.41 55.03 33.54 55.24 33.26 51.8 26.18 46.82 0 50.35 1.04 59.95 13.77 68.42 22.72 66.31 24.9 70.05 16.37 72.06 20.27 88.05 42.06 101.87 63.66 96.78 61.19 78.4 36.83 67.24"/><polygon class="cls-27" points="138.57 74.86 118.12 80.45 92.82 65.38 87.98 44.71 108.44 39.12 133.74 54.19 138.57 74.86"/><use width="14.01" height="15.06" transform="matrix(-0.16, -0.27, -0.36, 0.3, 113.03, 32.98)" xlink:href="#hex-connector"/><use width="14.01" height="15.06" transform="matrix(0.17, -0.35, 0.29, 0.11, 68.16, 44.28)" xlink:href="#hex-connector"/><use width="14.01" height="15.06" transform="matrix(0.17, -0.35, 0.29, 0.11, 104.99, 56.84)" xlink:href="#hex-connector"/><use width="14.01" height="15.06" transform="matrix(-0.16, -0.27, -0.31, 0.27, 74.35, 63.49)" xlink:href="#hex-connector"/><use width="14.01" height="15.06" transform="matrix(0, -0.36, 0.34, -0.09, 51.34, 60.9)" xlink:href="#hex-connector"/><use width="132.05" height="112.18" transform="matrix(-0.34, 0.08, -0.01, 0.36, 76.04, 10.46)" xlink:href="#hex-plain"/><use width="17.6" height="24.81" transform="matrix(1.17, -0.29, -0.02, 1.25, 42.44, 23.29)" xlink:href="#birthday-cake_2"/><use width="132.05" height="112.18" transform="matrix(-0.34, 0.08, -0.01, 0.36, 112.4, 23.57)" xlink:href="#hex-plain"/><use width="132.05" height="112.18" transform="matrix(-0.34, 0.08, -0.01, 0.36, 74.62, 53.92)" xlink:href="#hex-plain"/><use width="24.59" height="21.77" transform="matrix(0.86, -0.21, -0.02, 0.92, 43.42, 72.54)" xlink:href="#symbol-briefcase"/><use width="14.01" height="15.06" transform="matrix(0, -0.32, 0.3, -0.08, 124.68, 42.41)" xlink:href="#hex-connector"/><use width="132.05" height="112.18" transform="matrix(-0.3, 0.08, -0.01, 0.32, 146.92, -3.02)" xlink:href="#hex-plain"/><use width="132.05" height="112.18" transform="matrix(-0.3, 0.08, -0.01, 0.32, 145.55, 35.69)" xlink:href="#hex-plain"/><use width="20.73" height="20.73" transform="matrix(0.91, -0.23, -0.02, 0.97, 118.97, 12.39)" xlink:href="#symbol-health"/><use width="23.9" height="28.57" transform="matrix(0.77, -0.19, -0.01, 0.83, 118.52, 48.51)" xlink:href="#symbol-wheelchair"/><use width="4.52" height="6.86" transform="matrix(3.3, -0.88, 0, 3.54, 84.15, 39.08)" xlink:href="#symbol-bulb"/><g id="obj3"><ellipse class="cls-28" cx="149.16" cy="109.4" rx="11.47" ry="3.75"/><path class="cls-29" d="M138.77,79.46c-2.28.16-4.49-.42-5.3-1.69-1.14-1.77.24-5.27,4.5-6.89l-2.06-1.74c-4.91,2.17-6.58,7-4.68,10.15,1.28,2.15,4.13,3.46,7.22,3.59Z"/><path class="cls-30" d="M136.1,63c7.6,9.29,16.28,11.5,26.49,3.75.79-12.36-4.47-15.56-11.4-16.25C144.29,50.6,139.41,55.09,136.1,63Z"/><path class="cls-31" d="M137.86,76.51c-2.32,14,5.56,32.8,11.43,29.82,5.23-2.65,12.77-16.46,11.44-27.45C159.69,70.38,139,69.51,137.86,76.51Z"/><path class="cls-32" d="M138.2,61.76c3.32,5.88,8.24,7.33,14,5.58,1.85-6.84-1.75-10.27-6.08-11C142.19,56.43,140.45,57.77,138.2,61.76Z"/><ellipse class="cls-33" cx="141.38" cy="61.41" rx="1.75" ry="0.97" transform="translate(69.11 197.56) rotate(-85.52)"/><ellipse class="cls-33" cx="145.58" cy="64" rx="1.75" ry="0.97" transform="translate(70.41 204.14) rotate(-85.52)"/><path class="cls-34" d="M157.14,84.44a26.62,26.62,0,0,1-5.17,15"/><path class="cls-35" d="M141.51,75.51c4.05,4.41,15.1,5.3,16.45,1.93"/><path class="cls-36" d="M137.24,61.15c-3,1.83-3,3.88-2.24,6.67l1.61,3.12a10.38,10.38,0,0,0,8.08-.75l-2.35-1.3c-1.89.82-3.06.72-4.26-.4-1.9-2-1.84-4.25.56-5.85Z"/><path class="cls-37" d="M153.16,85.26c2.28.19,4.37,1.11,5,2.48.86,1.93-1,5.18-5.5,6.12.59.68,1.17,1.36,1.76,2,5.18-1.38,7.58-5.87,6.19-9.3-.93-2.32-3.54-4.06-6.57-4.66Z"/><path class="cls-38" d="M151.83,101.76c2.73-1.18,3-2.9,2.69-5.34l-1-2.82a7.92,7.92,0,0,0-6.38-.83l.69,2.33c1.69-.47,3.28-.7,4.16.39,1.36,1.88,1,3.79-1.17,4.85Z"/></g><ellipse class="cls-28" cx="83.09" cy="141.32" rx="11.47" ry="3.75"/><use width="15.94" height="15.44" transform="matrix(-1.64, -0.17, -0.17, 1.64, 81.71, 93.19)" xlink:href="#clipboard"/><path class="cls-39" d="M104.43,130.25c.08-3.21-1.61-4.28-4.37-5.11l-3.48-.35c-2.44,1.7-3.76,3.64-4,5.81l2.81.41c.33-1.86.87-3.51,2.45-3.86,2.67-.44,4.55.76,4.59,3.4Z"/><path class="cls-40" d="M89.23,107.26c7.13,5.6,9.42,12.4,7,17.56a2.65,2.65,0,0,0,3.47.46c1.6-8.29-2-14.79-7.88-18.39Z"/><path class="cls-41" d="M70.92,107.59c-1.34,14,7.78,32.2,13.41,28.84,5-3,11.55-17.24,9.47-28.06C92.19,100,71.6,100.56,70.92,107.59Z"/><path class="cls-10" d="M74.49,118.05a27.28,27.28,0,0,0,5.94,14.65"/><path class="cls-42" d="M74.53,118.05c.59,5.38,3.2,10.06,5.93,14.62-2-1.56-3.45-4.29-4.36-6.75a22.47,22.47,0,0,1-1.57-7.87Z"/><path class="cls-42" d="M73.76,106.77c3.18,2.12,14.08,3.68,16.44.1l.07,0c-1.91,4.44-13.92,3-16.51-.12Z"/><path class="cls-43" d="M69.28,98.6c9.89,6.71,18.65,7.88,26.19-2.42-2.75-12-8.08-13.86-14.89-12.55C74,85.68,70.19,90.11,69.28,98.6Z"/><path class="cls-39" d="M55.53,107c1.74,8.93,9.35,8.76,17.59,7.13,2.5-.36,1.83-1.72.38-2.8-7.29.91-13.94,2-15.71-6.35C57.11,105.07,55.31,106,55.53,107Z"/><path class="cls-44" d="M58.28,107.06c2.5.55,3.81-.69,4.66-2.61L61,102.24c-.27,1.93-1.18,3-3.14,2.63-1.23-1.2-1.42-2.88-.94-4.87a6.45,6.45,0,0,0-1.67,1.66,7.94,7.94,0,0,0,.27,4.6Z"/></g></g></g></g></svg>