<svg xmlns="http://www.w3.org/2000/svg" xmlns:xlink="http://www.w3.org/1999/xlink" viewBox="0 0 270.17 127.4"><defs><style>.cls-1{fill:#227868;}.cls-2{font-size:14.93px;}.cls-12,.cls-19,.cls-2,.cls-32{fill:#fff;}.cls-2,.cls-32{font-family:Arial-BoldMT, Arial;font-weight:700;}.cls-3{opacity:0.53;}.cls-24,.cls-4,.cls-5,.cls-6,.cls-7{fill:none;}.cls-4,.cls-5,.cls-6,.cls-7{stroke:#00a99d;stroke-width:2px;}.cls-12,.cls-13,.cls-14,.cls-15,.cls-16,.cls-17,.cls-18,.cls-24,.cls-33,.cls-34,.cls-35,.cls-4,.cls-41,.cls-42,.cls-43,.cls-5,.cls-6,.cls-7{stroke-miterlimit:10;}.cls-5{stroke-dasharray:5.93 5.93;}.cls-6{stroke-dasharray:7.13 7.13;}.cls-7{stroke-dasharray:5.03 5.03;}.cls-8{fill:url(#linear-gradient);}.cls-9{fill:url(#linear-gradient-2);}.cls-10{fill:url(#linear-gradient-3);}.cls-11{fill:url(#linear-gradient-4);}.cls-12,.cls-13,.cls-14,.cls-15,.cls-16,.cls-17,.cls-18,.cls-33,.cls-34,.cls-35,.cls-41,.cls-42,.cls-43{stroke:#00703c;stroke-width:0.75px;}.cls-13{fill:url(#linear-gradient-5);}.cls-14{fill:url(#linear-gradient-6);}.cls-15{fill:url(#linear-gradient-7);}.cls-17,.cls-21{fill:#31ab94;}.cls-18{fill:url(#linear-gradient-8);}.cls-20{fill:#00703c;}.cls-22{fill:#add9d1;}.cls-23{fill:#298f7c;}.cls-24{stroke:#fff;}.cls-25{fill:#c79459;}.cls-26{fill:#ebc8c8;}.cls-27{fill:#ebd1d1;}.cls-28{fill:#ffb302;}.cls-29{fill:#424242;}.cls-30{fill:red;}.cls-31{fill:#a37949;}.cls-32{font-size:11.53px;}.cls-33{fill:url(#linear-gradient-9);}.cls-34{fill:url(#linear-gradient-10);}.cls-35{fill:url(#linear-gradient-11);}.cls-36{opacity:0.08;}.cls-37{fill:#4ca58e;}.cls-38{fill:#69d6c5;}.cls-39{fill:#84e1cd;}.cls-40{fill:#3d9784;}.cls-41{fill:url(#linear-gradient-12);}.cls-42{fill:url(#linear-gradient-13);}.cls-43{fill:url(#linear-gradient-14);}</style><linearGradient id="linear-gradient" x1="192.54" y1="192.53" x2="235.73" y2="192.53" gradientTransform="translate(11.48 -205.63) rotate(20.15)" gradientUnits="userSpaceOnUse"><stop offset="0" stop-color="#fff" stop-opacity="0"/><stop offset="1" stop-color="#fff"/></linearGradient><linearGradient id="linear-gradient-2" x1="187.95" y1="225.78" x2="230.37" y2="225.78" xlink:href="#linear-gradient"/><linearGradient id="linear-gradient-3" x1="193.67" y1="179.68" x2="236.87" y2="179.68" xlink:href="#linear-gradient"/><linearGradient id="linear-gradient-4" x1="185.77" y1="210.07" x2="225.66" y2="210.07" xlink:href="#linear-gradient"/><linearGradient id="linear-gradient-5" x1="3314.14" y1="661.28" x2="3330.27" y2="653.21" gradientTransform="matrix(-0.8, -0.6, -0.6, 0.8, 3237.02, 1540.8)" gradientUnits="userSpaceOnUse"><stop offset="0.56" stop-color="#fff"/><stop offset="1" stop-color="#add9d1"/></linearGradient><linearGradient id="linear-gradient-6" x1="3330.33" y1="642.64" x2="3358.15" y2="642.64" xlink:href="#linear-gradient-5"/><linearGradient id="linear-gradient-7" x1="3332.51" y1="673.32" x2="3357.04" y2="673.32" xlink:href="#linear-gradient-5"/><linearGradient id="linear-gradient-8" x1="3350.04" y1="682.06" x2="3350.13" y2="681.97" xlink:href="#linear-gradient-5"/><linearGradient id="linear-gradient-9" x1="6727.31" y1="-7070.65" x2="6740.13" y2="-7083.47" gradientTransform="matrix(0.12, -1.1, 0.84, 0.1, 5165.18, 8188.73)" gradientUnits="userSpaceOnUse"><stop offset="0.56" stop-color="#fff"/><stop offset="1" stop-color="#add9d1"/></linearGradient><linearGradient id="linear-gradient-10" x1="8229.17" y1="1673.92" x2="8252.25" y2="1673.92" gradientTransform="translate(-8323.79 -891.65) rotate(-4.95)" xlink:href="#linear-gradient-9"/><linearGradient id="linear-gradient-11" x1="8214.41" y1="1681.01" x2="8240.61" y2="1681.01" gradientTransform="matrix(1, 0.1, -0.1, 1, -7993.81, -2443.63)" xlink:href="#linear-gradient-9"/><linearGradient id="linear-gradient-12" x1="-571.88" y1="-1515.51" x2="-562.72" y2="-1520.65" gradientTransform="matrix(-0.99, -0.17, -0.15, 0.91, -770.25, 1355.94)" xlink:href="#linear-gradient-9"/><linearGradient id="linear-gradient-13" x1="6548.24" y1="-6695.47" x2="6563.42" y2="-6710.65" gradientTransform="matrix(0.11, 0.9, -1.09, 0.14, -7971.73, -4874.17)" xlink:href="#linear-gradient-9"/><linearGradient id="linear-gradient-14" x1="-533.48" y1="-1599.94" x2="-524.32" y2="-1605.08" gradientTransform="matrix(-0.77, 0.06, 0.08, 0.74, -269.67, 1291.14)" xlink:href="#linear-gradient-9"/></defs><g id="Layer_2" data-name="Layer 2"><g id="MainLayer"><g id="greenzone"><g id="service2"><g id="objbutton4"><rect class="cls-1" x="46.97" width="99.32" height="67.67" rx="10.95"/><text class="cls-2" transform="translate(56.1 19.84)">Life Events <tspan x="10.8" y="17.92">Fed into </tspan><tspan x="10.77" y="35.83">Process</tspan></text></g><g id="obj4"><g class="cls-3"><polyline class="cls-4" points="259.4 122.8 257.38 126.25 253.5 125.29"/><line class="cls-5" x1="247.75" y1="123.86" x2="239.12" y2="121.71"/><polyline class="cls-4" points="236.25 121 232.36 120.03 230.54 116.47"/><line class="cls-6" x1="227.3" y1="110.12" x2="222.44" y2="100.6"/><polyline class="cls-4" points="220.82 97.43 219 93.87 221.02 90.41"/><line class="cls-7" x1="223.56" y1="86.07" x2="227.36" y2="79.55"/><polyline class="cls-4" points="228.63 77.37 230.65 73.92 234.53 74.88"/><line class="cls-5" x1="240.28" y1="76.31" x2="248.91" y2="78.46"/><polyline class="cls-4" points="251.79 79.17 255.67 80.14 257.49 83.7"/><line class="cls-6" x1="260.73" y1="90.05" x2="265.59" y2="99.57"/><polyline class="cls-4" points="267.21 102.74 269.03 106.3 267.01 109.76"/><line class="cls-7" x1="264.48" y1="114.1" x2="260.67" y2="120.63"/></g><polygon class="cls-8" points="167.37 53.86 163.93 58.18 125 43.92 126.64 40.29 167.37 53.86"/><polygon class="cls-9" points="151.3 82.08 143.66 87.47 109.47 72.93 113.78 69.6 151.3 82.08"/><polygon class="cls-10" points="172.86 42.18 169.43 46.5 130.5 32.25 132.14 28.61 172.86 42.18"/><polygon class="cls-11" points="152.29 65.72 144.95 71.21 112.84 57.44 116.98 54.05 152.29 65.72"/><path class="cls-12" d="M198.53,75.81c-3.45,1.22-5.13-.1-6.87-2.57l-1.46-3.36q1.63-4.56,5.06-6.06l1.31,2.67c-1.91,1-3.53,2.11-3.42,3.81.35,2.84,2.23,4.29,5.09,3.4Z"/><path class="cls-13" d="M171.43,69.87c6.41,3.44,12.61,2.76,18.7-.31a2.61,2.61,0,0,1,1.58,3.32c-8.48,4.53-15.57,4.44-21.28-.16Z"/><path class="cls-12" d="M125.41,66.76c2.56-2.61,4.65-2.17,7.31-.72l2.79,2.36c.37,3.22-.26,5.77-1.86,7.68l-2.36-1.82c1.28-1.72,2.24-3.45,1.39-4.93-1.56-2.39-3.89-2.87-6.07-.8Z"/><path class="cls-14" d="M183.65,62.56c-12.34,2-20.66-2.19-23.32-15.28,7.87-10.22,14.2-9.11,20.1-4.89C185.77,47.22,186.5,54.09,183.65,62.56Z"/><path class="cls-15" d="M172.81,73.21C165,85.75,145.9,95.07,143.35,88.7,141.07,83,144.67,67,153.27,59.34,159.92,53.4,176.71,66.93,172.81,73.21Z"/><path class="cls-16" d="M182.05,58.94c-6.64,2.33-11.49.09-14.82-5.26,3.26-6.64,8.44-6.84,12.36-4.46C182.59,52,183,54.28,182.05,58.94Z"/><ellipse class="cls-17" cx="178.31" cy="55.99" rx="1.83" ry="1.01" transform="translate(26.64 165.21) rotate(-53.19)"/><ellipse class="cls-17" cx="173.79" cy="53.85" rx="1.83" ry="1.01" transform="translate(26.55 160.73) rotate(-53.19)"/><path class="cls-18" d="M154.38,60.15c-7.72-.84-15.51.83-20.76,5.69-1.63,2.08.22,2.88,2.41,2.87,5.44-4.46,10.94-4.65,18.53-5.11C155,63,155.46,60.86,154.38,60.15Z"/><path class="cls-19" d="M152.25,66.15A27.79,27.79,0,0,0,146,81.49"/><path class="cls-20" d="M152.28,66.18c-3.56,4.44-5.06,9.87-6.29,15.31h-.07c-.19-5.61,2.65-11.43,6.36-15.31Z"/><path class="cls-20" d="M170.63,70c-4.8,1-9.81-1.75-12.92-5.3-1-1.23-2.07-3-1.32-4.56l.07,0c-.6,3,3.13,5.62,5.32,7.09A16.26,16.26,0,0,0,170.63,70Z"/><g id="singlehex"><polygon class="cls-21" points="220.07 96.13 216.28 96.26 205.52 47.37 209.3 47.1 229.33 58.63 234.72 83.15 220.07 96.13"/><polygon class="cls-22" points="216.29 96.28 196.26 84.75 190.87 60.23 205.52 47.25 225.55 58.78 230.94 83.3 216.29 96.28"/></g><ellipse class="cls-23" cx="228.86" cy="67.37" rx="5.49" ry="7.17" transform="translate(-5.69 111) rotate(-26.94)"/><ellipse class="cls-21" cx="227.5" cy="67.58" rx="5.49" ry="7.17" transform="translate(-5.93 110.4) rotate(-26.94)"/><polyline class="cls-24" points="224.5 66.15 225.65 68.97 231.27 66.61"/><g id="singlehex-2" data-name="singlehex"><path class="cls-25" d="M201.75,68.16l-1.19,10a3,3,0,0,0,.55,2.25c5,5.44,10.43,8.91,16.8,8.86.48,0,.88-.59,1-1.43l1.19-10.07a2.76,2.76,0,0,0-.72-2.4l-7.76-5.73a.64.64,0,0,0-.23-.12l-8.44-2.8C202.38,66.58,201.86,67.18,201.75,68.16Z"/><path class="cls-26" d="M219.18,71.31a38.78,38.78,0,0,0-15-7.91c-1.12-.59-2.17,0-2.33,1.38a2.52,2.52,0,0,0,0,1.73,3,3,0,0,0,.49.66,6.29,6.29,0,0,1,1.34,2.12,5.74,5.74,0,0,1,0,1.62c-.06.67-.13,1.2-.19,1.57a1.4,1.4,0,0,0,.65,1.32.57.57,0,0,0,.88-.51,4.65,4.65,0,0,1,.78-3,2.07,2.07,0,0,1,.49-.38A1.86,1.86,0,0,1,208,70c1.59.83,1.4,2.44,3,3.28s1.78-.77,3.37.07,1.4,2.44,3,3.28a2.24,2.24,0,0,0,.78.25c.91.13,1.75.24,2.31-.44a2.55,2.55,0,0,0,.5-1.58A3.74,3.74,0,0,0,219.18,71.31Z"/><path class="cls-27" d="M219.18,71.31a38.78,38.78,0,0,0-15-7.91,1.45,1.45,0,0,0-2.11.62c1.32,1.65,4.91,4.22,9.2,6.48s8.13,3.59,9.63,3.41A3.69,3.69,0,0,0,219.18,71.31Z"/><path class="cls-28" d="M211.42,57.34a2.63,2.63,0,0,1,1.81-2.42,6,6,0,0,1,1.05,3.93c-.15,1.3-.92,2-1.71,1.6a3.27,3.27,0,0,1-1.15-3.11Z"/><path class="cls-29" d="M212.7,59.41c-.21-.11-.39,0-.42.25L212,62l.73.39L213,60A.67.67,0,0,0,212.7,59.41Z"/><path class="cls-30" d="M212.92,61.87l-1-.51a.37.37,0,0,0-.56.33l-.6,5c.69.78,1.35,1.29,2,1l.6-5A.91.91,0,0,0,212.92,61.87Z"/><ellipse class="cls-31" cx="202.77" cy="76.44" rx="0.35" ry="0.52" transform="translate(-13.8 83.99) rotate(-22.65)"/><ellipse class="cls-31" cx="216.09" cy="85.33" rx="0.35" ry="0.52" transform="translate(-16.2 89.81) rotate(-22.65)"/><ellipse class="cls-31" cx="218.31" cy="81.25" rx="0.35" ry="0.52" transform="translate(-14.45 90.34) rotate(-22.65)"/><ellipse class="cls-31" cx="202.29" cy="72.01" rx="0.35" ry="0.52" transform="translate(-12.13 83.46) rotate(-22.65)"/><ellipse class="cls-31" cx="206.08" cy="80.79" rx="0.35" ry="0.52" transform="translate(-15.22 85.6) rotate(-22.65)"/><text class="cls-32" transform="matrix(0.83, 0.44, -0.12, 0.99, 204.5, 80.29)">66</text></g><path class="cls-12" d="M190.45,69.05a37.12,37.12,0,0,1,3.08-4.84l2.15,2-3.06,4.29"/></g><path class="cls-33" d="M5.41,66.63C9.9,61.11,13.16,57,18.73,56c1.24-1.62,3.79-4.48,1.7-4.67C19,54.16,9.36,58.71,3.51,64.22A2.44,2.44,0,0,0,5.41,66.63Z"/><path class="cls-34" d="M40.81,53.56c3,10.36-2,24.9-6.65,28.35-5.23,3.85-15.85-13.1-15.87-27C18.3,47.93,38.47,45.42,40.81,53.56Z"/><path class="cls-1" d="M21.61,53.38a15.71,15.71,0,0,0,8.45,2.25c2.5,0,6.8-.33,7.77-3l.09,0c-.17,1.58-2,2.5-3.35,3-4.29,1.25-9.57,1-13-2.21Z"/><path class="cls-35" d="M40.53,46.62c-10.22,7.43-18.61,5.06-25.92-4.18C20.13,26.57,42.64,25,40.53,46.62Z"/><path class="cls-16" d="M31.72,46.72C26,48.36,21.19,46.78,18,41,22.13,31.8,35,35.62,31.72,46.72Z"/><path class="cls-17" d="M21.57,41.1c-.29,2.22,1.64,2.48,1.85.21S21.74,38.92,21.57,41.1Z"/><path class="cls-17" d="M26.1,42.55c-.3,2.23,1.64,2.48,1.85.21S26.18,40.33,26.1,42.55Z"/><ellipse class="cls-36" cx="33.05" cy="86.7" rx="11.78" ry="3.2"/><polygon class="cls-37" points="27.83 70.46 19.36 79.37 18.74 65.83 27.21 56.94 27.83 70.46"/><polygon class="cls-38" points="19.36 79.37 2.02 77.32 1.4 63.79 18.74 65.83 19.36 79.37"/><polygon class="cls-39" points="18.74 65.83 1.4 63.79 9.87 54.9 27.21 56.94 18.74 65.83"/><polygon class="cls-40" points="5.15 60.87 5.23 62.73 10.21 61.35 10.12 59.49 5.15 60.87"/><path class="cls-40" d="M10.21,61.35c0,.77-1.05,1.7-2.43,2.08s-2.51.07-2.55-.7,1-1.7,2.43-2.08S10.17,60.58,10.21,61.35Z"/><path class="cls-39" d="M10.12,59.49c0,.77-1,1.7-2.42,2.08s-2.52.06-2.55-.7,1-1.7,2.42-2.08S10.09,58.72,10.12,59.49Z"/><polygon class="cls-40" points="9.46 56.14 9.55 58 14.52 56.62 14.44 54.76 9.46 56.14"/><path class="cls-40" d="M14.52,56.62c0,.77-1,1.7-2.42,2.08s-2.52.07-2.55-.7,1-1.7,2.42-2.08S14.49,55.85,14.52,56.62Z"/><path class="cls-39" d="M14.44,54.76c0,.77-1,1.7-2.43,2.08s-2.51.07-2.55-.7,1-1.7,2.42-2.08S14.4,54,14.44,54.76Z"/><polygon class="cls-40" points="14.41 62.05 14.49 63.91 19.47 62.53 19.38 60.67 14.41 62.05"/><path class="cls-40" d="M19.47,62.53c0,.77-1,1.7-2.43,2.09s-2.51.06-2.55-.71,1-1.7,2.43-2.08S19.43,61.77,19.47,62.53Z"/><path class="cls-39" d="M19.38,60.67c0,.77-1.05,1.7-2.42,2.08s-2.52.07-2.55-.7,1.05-1.7,2.42-2.08S19.35,59.9,19.38,60.67Z"/><polygon class="cls-40" points="18.57 57.61 18.65 59.47 23.63 58.09 23.54 56.23 18.57 57.61"/><path class="cls-40" d="M23.63,58.09c0,.77-1.05,1.7-2.43,2.08s-2.51.07-2.55-.7,1.05-1.7,2.43-2.08S23.59,57.33,23.63,58.09Z"/><path class="cls-39" d="M23.54,56.23c0,.77-1.05,1.7-2.42,2.08s-2.52.07-2.55-.7,1.05-1.7,2.42-2.08S23.51,55.46,23.54,56.23Z"/><path class="cls-41" d="M17.72,67.42a4.58,4.58,0,0,1,4.39.73c.32,2.1.24,4.06-.95,5.45-1.89.38-3.57.35-4.39-.73C16.54,70.67,16.61,68.7,17.72,67.42Z"/><path class="cls-42" d="M37.06,57c-4.38,5.53-7.55,9.62-14.36,11.91-1.19,1.6-1.44,3.32,1.26,2.91A27.64,27.64,0,0,0,40,58.39C40,57.31,37.75,56.8,37.06,57Z"/><path class="cls-43" d="M.64,65.62a3.39,3.39,0,0,1,3.44-.27c.69,1.58,1.06,3.14.48,4.46-1.34.66-2.59,1-3.44.27C.46,68.4.09,66.84.64,65.62Z"/></g></g></g></g></svg>