<?xml version="1.0" encoding="utf-8"?>
<!-- Generator: Adobe Illustrator 26.0.1, SVG Export Plug-In . SVG Version: 6.00 Build 0)  -->
<svg version="1.1" id="Layer_1" xmlns="http://www.w3.org/2000/svg" xmlns:xlink="http://www.w3.org/1999/xlink" x="0px" y="0px"
	 viewBox="0 0 240.1 108.2" style="enable-background:new 0 0 240.1 108.2;" xml:space="preserve">
<style type="text/css">
	.st0{opacity:0.33;}
	.st1{fill:#212123;}
	.st2{fill:#B3B3B3;}
	.st3{fill:#EBEBEB;}
	.st4{fill:#D59532;}
	.st5{fill:#FAAF3B;}
	.st6{fill:#298F7C;}
	.st7{fill:#31AB94;}
	.st8{fill:none;stroke:#FFFFFF;stroke-width:2;stroke-miterlimit:10;}
	.st9{fill:#FFFFFF;}
	.st10{opacity:0.1;enable-background:new    ;}
	.st11{fill:#E6E6E6;}
	.st12{fill:#ED7780;}
	.st13{fill:#5E74AD;}
	.st14{fill:#3A3937;}
	.st15{fill:#FDFDFD;}
	.st16{opacity:8.000000e-02;enable-background:new    ;}
	.st17{fill:#FABE62;}
	.st18{fill:#FBF053;}
	.st19{fill:#7A99A2;}
	.st20{fill:#8FB1BF;}
	.st21{fill:#9CB1A0;}
	.st22{fill:#D8822D;}
	.st23{fill:#EEA352;}
	.st24{fill:#7B6D79;}
	.st25{fill:#BBD0BF;}
	.st26{fill:url(#SVGID_1_);}
	
		.st27{fill:url(#SVGID_00000008124615631314536500000017641509138832068257_);stroke:#00703C;stroke-width:0.75;stroke-miterlimit:10;}
	
		.st28{fill:url(#SVGID_00000049203955205038664930000014006617028474693249_);stroke:#00703C;stroke-width:0.75;stroke-miterlimit:10;}
	.st29{fill:#00703C;}
	
		.st30{fill:url(#SVGID_00000003804449509141430490000018003019222392636850_);stroke:#00703C;stroke-width:0.75;stroke-miterlimit:10;}
	.st31{fill:#FFFFFF;stroke:#00703C;stroke-width:0.75;stroke-miterlimit:10;}
	
		.st32{fill:url(#SVGID_00000002356505665933388610000002330480534915486120_);stroke:#00703C;stroke-width:0.75;stroke-miterlimit:10;}
	
		.st33{fill:url(#SVGID_00000015314637775842798290000006243342719604262039_);stroke:#00703C;stroke-width:0.75;stroke-miterlimit:10;}
	.st34{stroke:#00703C;stroke-width:0.75;stroke-miterlimit:10;}
	.st35{fill:#31AB94;stroke:#00703C;stroke-width:0.75;stroke-miterlimit:10;}
	.st36{opacity:0.46;fill:#00C700;stroke:#00703C;stroke-width:0.25;stroke-miterlimit:10;enable-background:new    ;}
	.st37{fill:#FFFFFF;stroke:#00703C;stroke-width:0.25;stroke-miterlimit:10;}
	.st38{opacity:8.000000e-02;}
	.st39{fill:#EFBD5C;}
	.st40{fill:#8CC0D3;}
	.st41{fill:#227868;}
	.st42{font-family:'Arial';font-weight:700;}
	.st43{font-size:16px;}
</style>
<symbol  id="calculator-button" viewBox="-6.9 -4.4 13.7 8.9">
	<g class="st0">
		<path class="st1" d="M0.7,4.1c-1.1,0.5-2.3,0.4-3.3-0.3l-3.5-2.5c-0.9-0.7-1-1.6-0.1-2.1l4.8-2.7"/>
	</g>
	<path class="st2" d="M6.1,1.4L1.3,4.1C0.3,4.6-1,4.5-2,3.8l-3.5-2.5c-0.9-0.7-1-1.6-0.1-2.1l4.8-2.7C0.3-4,1.5-3.9,2.5-3.2L6-0.7
		C6.9,0,7,0.9,6.1,1.4z"/>
	<path class="st3" d="M6.2,0.8L1.5,3.6C0.4,4-0.9,3.9-1.9,3.2l-3.5-2.5c-0.9-0.7-1-1.6-0.1-2.1l4.8-2.7c1.1-0.5,2.3-0.4,3.3,0.3
		l3.5,2.5C7.1-0.6,7.1,0.3,6.2,0.8z"/>
</symbol>
<g id="Layer_2_00000052825945564300209470000010871312262152881325_">
	<g id="MainLayer">
		<g id="greenzone">
			<g id="service4">
				<g id="obj7">
					<g id="singlehex">
						<polygon class="st4" points="11.3,102.5 15,104.6 38.1,64.9 34.4,62.7 11.6,62.9 0,82.9 						"/>
						<polygon class="st5" points="15,104.6 37.9,104.3 49.4,84.4 38.1,64.8 15.3,65 3.7,85 						"/>
					</g>
					<circle class="st6" cx="38.3" cy="71.3" r="6.4"/>
					<circle class="st7" cx="39.6" cy="72.2" r="6.4"/>
					<polyline class="st8" points="36.2,72.4 38.1,74.4 43.1,69.3 					"/>
					<path class="st9" d="M24.7,82.6h2c0.6,0,1.2,0.1,1.8,0.2c0.4,0.2,0.7,0.6,0.6,1.1c0,0.4-0.1,0.7-0.4,0.9
						c-0.3,0.2-0.7,0.4-1.1,0.4h-2.4v0.2c0,0.9-0.2,1.8-0.6,2.5c-0.6,1-1.3,2-2.2,2.9l0.9-0.2c0.3-0.1,0.6-0.1,1-0.2
						c0.4-0.1,0.8-0.1,1.2-0.1c0.9,0,1.7,0.1,2.6,0.2c0.7,0.1,1.5,0.2,2.2,0.2c0.6,0,1.2-0.1,1.7-0.3c0.4-0.1,0.8-0.2,1.1-0.3
						c0.4,0,0.8,0.2,1.1,0.5c0.3,0.3,0.5,0.7,0.4,1.2c0,0.8-0.5,1.5-1.3,1.8c-0.9,0.4-1.8,0.6-2.8,0.6c-1.7-0.2-3.4-0.5-5.1-1
						l-0.4-0.1c-0.2-0.1-0.4-0.1-0.6-0.1c-0.3,0-0.6-0.1-0.9-0.1c-0.3,0-0.7,0.1-1,0.2l-1.5,0.6c-0.5,0.2-1,0.4-1.5,0.4
						c-0.4,0-0.7-0.2-1-0.5c-0.3-0.3-0.5-0.8-0.5-1.2c0-0.2,0.1-0.4,0.2-0.6c0.2-0.3,0.3-0.5,0.6-0.7c0.3-0.3,0.6-0.6,1.2-1.1
						c0.5-0.5,0.9-1,1.2-1.7c0.3-0.7,0.5-1.4,0.5-2.1c0-0.4-0.1-0.8-0.1-1.2h-1.2c-0.5,0-1,0-1.5-0.2c-0.4-0.2-0.6-0.6-0.5-1
						c0-0.9,0.6-1.3,1.8-1.3h0.8c-0.4-1.1-0.6-2.2-0.7-3.4c0-1.1,0.3-2.1,0.8-3c0.6-0.9,1.3-1.6,2.3-2.1c1.1-0.5,2.2-0.8,3.4-0.8
						c1,0,2,0.1,2.9,0.4c0.8,0.3,1.5,0.8,2.1,1.4c1,0.9,1.6,2.2,1.6,3.6c0,0.5-0.2,0.9-0.5,1.2c-0.3,0.3-0.8,0.5-1.3,0.5
						c-0.9,0-1.7-0.6-1.8-1.5c-0.2-0.8-0.5-1.5-1.1-2.1c-0.5-0.5-1.2-0.7-1.9-0.7c-0.8,0-1.5,0.3-2,0.8c-0.5,0.6-0.8,1.3-0.8,2.1
						c0,0.5,0.1,1,0.2,1.5C24.2,81,24.4,81.7,24.7,82.6z"/>
					<polygon class="st10" points="27.4,84 34.6,98.6 34.1,100.4 36.4,104.4 37.9,104.3 39.5,101.6 37.7,97.7 36,97.7 28.5,83 					
						"/>
					<path class="st11" d="M47.8,93.7L27.5,84c-0.5-0.8-0.2-1.1,0.6-1.2l20.4,9.8C48.8,93.1,48.3,93.4,47.8,93.7z"/>
					<polygon class="st12" points="40.3,89.9 48.1,93.3 49.4,96.1 41.6,92.8 					"/>
					<polygon class="st12" points="48.4,92.5 50.8,91.9 42.8,87.8 41,89 					"/>
				</g>
				<path class="st13" d="M143.5,34.3L113.1,48c-2,0.8-4.3,0.2-5.8-1.4l-10.6-13c-1.1-1.1-1.1-2.8,0-3.8c0.3-0.3,0.6-0.5,0.9-0.6
					l30.3-13.7c2-0.8,4.3-0.2,5.8,1.4l10.6,13c1,1.1,1,2.8-0.1,3.8C144.1,34,143.8,34.2,143.5,34.3z"/>
				<polygon class="st14" points="138.4,22.5 101.3,39.1 97.9,35 135,18.3 				"/>
				<path class="st15" d="M138.8,29.9l-28.1,12.7c-0.7,0.3-1.5,0.1-2-0.5l0,0c-0.4-0.4-0.4-1,0-1.4c0.1-0.1,0.2-0.1,0.3-0.2
					l28.1-12.7c0.7-0.3,1.5-0.1,2.1,0.5l0,0c0.4,0.4,0.3,1-0.1,1.4C139,29.8,138.9,29.9,138.8,29.9z"/>
				<path class="st16" d="M161.3,22.2c-1.8-2.7-4.2-4.9-7.1-6.3c-3.3-3.2-7.1-5.5-10.7-8.1c-3.9-2.7-15.3,8.3-11.4,11.5
					c1.5,1.9,3.5,3.4,5.8,4.3c1.6,2.2,3.7,3.2,5.6,4.3c1,1.9,2.6,1.8,3.7,3.1c0.8,1.6,2.4,3.5,3.9,3.7C157.3,41.9,171,25,161.3,22.2
					z"/>
				<path class="st17" d="M171.2,34.1c-0.8,7.6-22.6,7.4-18.8-3.2C154.4,23.8,174.4,24.6,171.2,34.1z"/>
				<path class="st18" d="M171.2,30.9c0.2,6.6-19.1,6.6-18.8,0C152.1,24.4,171.5,24.4,171.2,30.9z"/>
				<path class="st17" d="M170.6,30.1c-0.8,7.6-22.6,7.4-18.8-3.2C153.8,19.7,173.8,20.5,170.6,30.1z"/>
				<path class="st18" d="M170.6,26.9c0.2,6.6-19.1,6.6-18.8,0C151.5,20.3,170.9,20.3,170.6,26.9z"/>
				<path class="st17" d="M171.6,25.9c-0.8,7.6-22.6,7.4-18.8-3.2C154.8,15.5,174.7,16.3,171.6,25.9z"/>
				<path class="st18" d="M171.6,22.7c0.2,6.6-19.1,6.6-18.8,0C152.5,16.1,171.8,16.1,171.6,22.7z"/>
				<path class="st17" d="M170.9,21.8c-0.8,7.6-22.6,7.4-18.8-3.2C154.1,11.5,174.1,12.3,170.9,21.8z"/>
				<path class="st18" d="M170.9,18.6c0.2,6.6-19.1,6.6-18.8,0C151.8,12,171.2,12,170.9,18.6z"/>
				<path class="st17" d="M170.6,17.3c-0.8,7.6-22.6,7.4-18.8-3.2C153.8,7,173.8,7.8,170.6,17.3z"/>
				<path class="st18" d="M170.6,14.1c0.2,6.6-19.1,6.6-18.8,0C151.5,7.5,170.9,7.5,170.6,14.1z"/>
				<path class="st17" d="M170,13.2c-0.8,7.6-22.6,7.4-18.8-3.2C153.2,2.9,173.1,3.7,170,13.2z"/>
				<path class="st18" d="M170,10c0.2,6.6-19.1,6.6-18.8,0C150.9,3.4,170.2,3.4,170,10z"/>
				<path class="st17" d="M169.6,8.1c-0.8,7.6-22.6,7.4-18.8-3.2C152.8-2.2,172.8-1.4,169.6,8.1z"/>
				<path class="st18" d="M169.6,4.9c0.2,6.6-19.1,6.6-18.8,0C150.5-1.7,169.9-1.7,169.6,4.9z"/>
				<path class="st19" d="M210.4,74.3l-29.3,17.1c-2.7,1.6-7.3,1.1-10.2-0.9l-36.6-26.1c-2.9-2.1-3.3-8.4-0.6-9.9l30.1-16.8
					c2.8-1.6,7.3-1.1,10.2,0.9l36.9,25.9C213.8,66.6,213.1,72.7,210.4,74.3z"/>
				<path class="st16" d="M206.1,74.7l-29.3,17c-2.7,1.6-7.3,1.1-10.2-0.9L130,64.7c-2.9-2.1-3.3-8.4-0.6-9.9l30.1-16.8
					c2.8-1.6,7.3-1.2,10.2,0.9l36.9,25.9C209.5,67,208.8,73.2,206.1,74.7z"/>
				<path class="st20" d="M210.6,70.4l-29.3,17.1c-2.7,1.6-7.3,1.1-10.2-0.9l-36.6-26.1c-2.9-2.1-3-5-0.3-6.6L164,36.9
					c2.8-1.5,7.3-1.1,10.2,0.9l36.1,26C213.2,65.9,213.3,68.8,210.6,70.4z"/>
				<g class="st0">
					<path class="st1" d="M206,69.7l-4.6,2.6c-1.1,0.5-2.3,0.4-3.2-0.3l-3.4-2.5c-0.9-0.7-1-1.6-0.1-2.1l4.6-2.6
						c1.1-0.5,2.3-0.4,3.2,0.3l3.5,2.5C206.9,68.3,206.9,69.2,206,69.7z"/>
				</g>
				<path class="st21" d="M172.6,45.8L145,61.5c-1.1,0.5-2.3,0.4-3.2-0.3l-4.3-3.1c-0.9-0.7-1-1.6-0.1-2.1l27.6-15.7
					c1.1-0.5,2.3-0.4,3.2,0.3l4.3,3.1C173.4,44.4,173.4,45.3,172.6,45.8z"/>
				<path class="st22" d="M206.7,69.7l-4.7,2.6c-1.1,0.5-2.3,0.4-3.2-0.3l-3.4-2.5c-0.9-0.7-1-1.6-0.1-2.1l4.6-2.6
					c1.1-0.5,2.3-0.4,3.2,0.3l3.4,2.5C207.5,68.3,207.5,69.2,206.7,69.7z"/>
				<path class="st23" d="M206.8,69.1l-4.6,2.6c-1.1,0.5-2.3,0.4-3.2-0.3l-3.4-2.5c-0.9-0.7-1-1.6-0.1-2.1l4.6-2.6
					c1.1-0.5,2.3-0.4,3.2,0.3l3.4,2.5C207.6,67.7,207.7,68.6,206.8,69.1z"/>
				<path class="st24" d="M172.7,44.6l-27.6,15.7c-1,0.5-2.3,0.4-3.2-0.2l-4.3-3.1c-0.9-0.7-1-1.6-0.1-2.1l27.6-15.7
					c1.1-0.5,2.3-0.4,3.2,0.3l4.3,3.1C173.5,43.1,173.6,44.1,172.7,44.6z"/>
				<path class="st25" d="M172.7,45l-27.6,15.7c-1.1,0.5-2.3,0.4-3.2-0.3l-4.3-3.1c-0.9-0.7-1-1.6-0.1-2.1l27.6-15.7
					c1.1-0.5,2.3-0.4,3.2,0.3l4.3,3.1C173.5,43.6,173.6,44.5,172.7,45z"/>
				<g>
					
						<linearGradient id="SVGID_1_" gradientUnits="userSpaceOnUse" x1="1268.16" y1="1022.6055" x2="1244.61" y2="1022.6055" gradientTransform="matrix(0.86 -0.49 -0.9 -0.65 -4.8876 1330.2885)">
						<stop  offset="0" style="stop-color:#FFFFFF"/>
						<stop  offset="0.72" style="stop-color:#F4F4F4"/>
					</linearGradient>
					<path class="st26" d="M156.1,44.6l-18.6,10.5c-0.9,0.5-0.9,1.5,0,2.2l4.3,3.1c1,0.7,2.3,0.8,3.3,0.2l10.9-6.2L156.1,44.6z"/>
				</g>
				<g>
					<defs>
						<rect id="SVGID_00000078751436718721972130000009646693694481237157_" x="178.1" y="52.5" width="13.4" height="8.7"/>
					</defs>
					<clipPath id="SVGID_00000001655364229358915440000005050651460765862551_">
						<use xlink:href="#SVGID_00000078751436718721972130000009646693694481237157_"  style="overflow:visible;"/>
					</clipPath>
					<g style="clip-path:url(#SVGID_00000001655364229358915440000005050651460765862551_);">
						
							<use xlink:href="#calculator-button"  width="13.7" height="8.9" x="-6.9" y="-4.4" transform="matrix(0.98 0 0 0.98 184.6103 56.6907)" style="overflow:visible;"/>
					</g>
				</g>
				<g>
					<defs>
						<rect id="SVGID_00000082333446598153621090000007003792946414063546_" x="186.1" y="58.3" width="13.4" height="8.7"/>
					</defs>
					<clipPath id="SVGID_00000073714077423035667190000016655977173203125143_">
						<use xlink:href="#SVGID_00000082333446598153621090000007003792946414063546_"  style="overflow:visible;"/>
					</clipPath>
					<g style="clip-path:url(#SVGID_00000073714077423035667190000016655977173203125143_);">
						
							<use xlink:href="#calculator-button"  width="13.7" height="8.9" x="-6.9" y="-4.4" transform="matrix(0.98 0 0 0.98 192.6003 62.5007)" style="overflow:visible;"/>
					</g>
				</g>
				<g>
					<defs>
						<rect id="SVGID_00000044863319221677500800000014151244648037581232_" x="159.5" y="53" width="13.4" height="8.7"/>
					</defs>
					<clipPath id="SVGID_00000181804969447514631920000003530857792570667449_">
						<use xlink:href="#SVGID_00000044863319221677500800000014151244648037581232_"  style="overflow:visible;"/>
					</clipPath>
					<g style="clip-path:url(#SVGID_00000181804969447514631920000003530857792570667449_);">
						
							<use xlink:href="#calculator-button"  width="13.7" height="8.9" x="-6.9" y="-4.4" transform="matrix(0.98 0 0 0.98 165.9603 57.2207)" style="overflow:visible;"/>
					</g>
				</g>
				<g>
					<defs>
						<rect id="SVGID_00000052097432262740594000000014032445995558230436_" x="148.6" y="59.2" width="13.4" height="8.7"/>
					</defs>
					<clipPath id="SVGID_00000086666023506827936400000000199214034373613953_">
						<use xlink:href="#SVGID_00000052097432262740594000000014032445995558230436_"  style="overflow:visible;"/>
					</clipPath>
					
						<g transform="matrix(1 0 0 1 0 3.814697e-06)" style="clip-path:url(#SVGID_00000086666023506827936400000000199214034373613953_);">
						
							<use xlink:href="#calculator-button"  width="13.7" height="8.9" x="-6.9" y="-4.4" transform="matrix(0.98 0 0 0.98 155.0903 63.4007)" style="overflow:visible;"/>
					</g>
				</g>
				<g>
					<defs>
						<rect id="SVGID_00000116225872650730020880000013729674571241565339_" x="170.1" y="46.8" width="13.4" height="8.7"/>
					</defs>
					<clipPath id="SVGID_00000132080882578358952000000008857388768347023038_">
						<use xlink:href="#SVGID_00000116225872650730020880000013729674571241565339_"  style="overflow:visible;"/>
					</clipPath>
					<g style="clip-path:url(#SVGID_00000132080882578358952000000008857388768347023038_);">
						
							<use xlink:href="#calculator-button"  width="13.7" height="8.9" x="-6.9" y="-4.4" transform="matrix(0.98 0 0 0.98 176.5503 51.0207)" style="overflow:visible;"/>
					</g>
				</g>
				<g>
					<defs>
						<rect id="SVGID_00000089571927835560836550000003169911371766549643_" x="175.2" y="64.5" width="13.4" height="8.7"/>
					</defs>
					<clipPath id="SVGID_00000118382583071227715300000002998514327522254736_">
						<use xlink:href="#SVGID_00000089571927835560836550000003169911371766549643_"  style="overflow:visible;"/>
					</clipPath>
					<g style="clip-path:url(#SVGID_00000118382583071227715300000002998514327522254736_);">
						
							<use xlink:href="#calculator-button"  width="13.7" height="8.9" x="-6.9" y="-4.4" transform="matrix(0.98 0 0 0.98 181.6903 68.6807)" style="overflow:visible;"/>
					</g>
				</g>
				<g>
					<defs>
						<rect id="SVGID_00000149349456303258825880000001700846732707145369_" x="167.3" y="58.8" width="13.4" height="8.7"/>
					</defs>
					<clipPath id="SVGID_00000085251223632548490560000013091811341814140846_">
						<use xlink:href="#SVGID_00000149349456303258825880000001700846732707145369_"  style="overflow:visible;"/>
					</clipPath>
					<g style="clip-path:url(#SVGID_00000085251223632548490560000013091811341814140846_);">
						
							<use xlink:href="#calculator-button"  width="13.7" height="8.9" x="-6.9" y="-4.4" transform="matrix(0.98 0 0 0.98 173.7603 62.9507)" style="overflow:visible;"/>
					</g>
				</g>
				<g>
					<defs>
						<rect id="SVGID_00000147911623307492252390000005465911002249102224_" x="156.4" y="65" width="13.4" height="8.7"/>
					</defs>
					<clipPath id="SVGID_00000106865612831884682170000014424941585840610971_">
						<use xlink:href="#SVGID_00000147911623307492252390000005465911002249102224_"  style="overflow:visible;"/>
					</clipPath>
					<g style="clip-path:url(#SVGID_00000106865612831884682170000014424941585840610971_);">
						
							<use xlink:href="#calculator-button"  width="13.7" height="8.9" x="-6.9" y="-4.4" transform="matrix(0.98 0 0 0.98 162.8403 69.1307)" style="overflow:visible;"/>
					</g>
				</g>
				<g>
					<defs>
						<rect id="SVGID_00000083796597240851250510000013688158135857274286_" x="164.3" y="70.6" width="13.4" height="8.7"/>
					</defs>
					<clipPath id="SVGID_00000172419671217223727800000001839188859952636074_">
						<use xlink:href="#SVGID_00000083796597240851250510000013688158135857274286_"  style="overflow:visible;"/>
					</clipPath>
					<g style="clip-path:url(#SVGID_00000172419671217223727800000001839188859952636074_);">
						
							<use xlink:href="#calculator-button"  width="13.7" height="8.9" x="-6.9" y="-4.4" transform="matrix(0.98 0 0 0.98 170.8103 74.8007)" style="overflow:visible;"/>
					</g>
				</g>
				<g>
					<defs>
						<rect id="SVGID_00000097473296096388909210000015168199735361195173_" x="172.3" y="76.3" width="13.4" height="8.7"/>
					</defs>
					<clipPath id="SVGID_00000052068543370808928970000004882123523921300413_">
						<use xlink:href="#SVGID_00000097473296096388909210000015168199735361195173_"  style="overflow:visible;"/>
					</clipPath>
					<g style="clip-path:url(#SVGID_00000052068543370808928970000004882123523921300413_);">
						
							<use xlink:href="#calculator-button"  width="13.7" height="8.9" x="-6.9" y="-4.4" transform="matrix(0.98 0 0 0.98 178.8003 80.5207)" style="overflow:visible;"/>
					</g>
				</g>
				<g>
					<defs>
						<rect id="SVGID_00000150802766167743363920000005759751393928788659_" x="183.4" y="70" width="13.4" height="8.7"/>
					</defs>
					<clipPath id="SVGID_00000003819507669905410230000009714859652396571828_">
						<use xlink:href="#SVGID_00000150802766167743363920000005759751393928788659_"  style="overflow:visible;"/>
					</clipPath>
					<g style="clip-path:url(#SVGID_00000003819507669905410230000009714859652396571828_);">
						
							<use xlink:href="#calculator-button"  width="13.7" height="8.9" x="-6.9" y="-4.4" transform="matrix(0.98 0 0 0.98 189.8903 74.2207)" style="overflow:visible;"/>
					</g>
				</g>
				
					<linearGradient id="SVGID_00000120527162803431159430000010524232832643095966_" gradientUnits="userSpaceOnUse" x1="-1295.217" y1="1401.4144" x2="-1274.8671" y2="1411.6045" gradientTransform="matrix(-4.712313e-03 -1 -1 4.712313e-03 1611.8127 -1227.0974)">
					<stop  offset="0.56" style="stop-color:#FFFFFF"/>
					<stop  offset="1" style="stop-color:#ADD9D1"/>
				</linearGradient>
				
					<path style="fill:url(#SVGID_00000120527162803431159430000010524232832643095966_);stroke:#00703C;stroke-width:0.75;stroke-miterlimit:10;" d="
					M213.8,47.5c-0.8,10.4-6.1,17.2-12.8,18.7c-0.4,1.5,0.4,3,1.9,3.5c9.3-4.4,13.4-12.2,13-20.1L213.8,47.5z"/>
				
					<linearGradient id="SVGID_00000037664465537894900860000004192507994936158648_" gradientUnits="userSpaceOnUse" x1="-873.1764" y1="201.515" x2="-846.9625" y2="201.515" gradientTransform="matrix(0.8806 -0.4739 -0.4739 -0.8806 1075.647 -169.3169)">
					<stop  offset="0.56" style="stop-color:#FFFFFF"/>
					<stop  offset="1" style="stop-color:#ADD9D1"/>
				</linearGradient>
				
					<path style="fill:url(#SVGID_00000037664465537894900860000004192507994936158648_);stroke:#00703C;stroke-width:0.75;stroke-miterlimit:10;" d="
					M205.1,55.3c6.3,14.5,25,27.4,28.7,21c3.3-5.6,2-23.1-5.8-32.6C221.9,36.4,202,48.1,205.1,55.3z"/>
				<path class="st9" d="M210.5,57.6c2.6,5.4,6.7,10,11.9,13.1"/>
				<path class="st29" d="M210.5,57.6c2.7,5.4,7.2,9.4,11.9,13.1v0.1C216.9,68.2,212.7,62.9,210.5,57.6L210.5,57.6z"/>
				<path class="st29" d="M207.4,53c4.2,0.5,15.9-4,16.2-8.8h0.1c0.3,1.8-1.1,3.2-2.3,4.3C217.8,51.6,212.1,54.1,207.4,53L207.4,53z
					"/>
				
					<linearGradient id="SVGID_00000137114992813510605350000001519240472629938328_" gradientUnits="userSpaceOnUse" x1="1525.5835" y1="-530.7914" x2="1534.7935" y2="-526.1814" gradientTransform="matrix(0.9333 -0.3592 -0.3592 -0.9333 -1418.6841 127.509)">
					<stop  offset="0.56" style="stop-color:#FFFFFF"/>
					<stop  offset="1" style="stop-color:#ADD9D1"/>
				</linearGradient>
				
					<polygon style="fill:url(#SVGID_00000137114992813510605350000001519240472629938328_);stroke:#00703C;stroke-width:0.75;stroke-miterlimit:10;" points="
					197.4,69.9 202,65.5 205.2,67.8 200.7,72.2 				"/>
				<path class="st31" d="M226.3,79c1-3.8-0.5-5.5-3.3-7.1l-3.7-1.3c-3.2,1.4-5.2,3.4-6.1,5.9l2.9,1.2c0.9-2.1,2-3.9,3.8-4
					c3.1,0.1,4.8,2,4,5.2L226.3,79z"/>
				
					<linearGradient id="SVGID_00000175320270230629772140000017850570787399974046_" gradientUnits="userSpaceOnUse" x1="-1424.7882" y1="2003.4529" x2="-1424.6882" y2="2003.543" gradientTransform="matrix(0.74 -0.24 0.3 0.95 663.2492 -2192.8491)">
					<stop  offset="0.56" style="stop-color:#FFFFFF"/>
					<stop  offset="1" style="stop-color:#ADD9D1"/>
				</linearGradient>
				
					<path style="fill:url(#SVGID_00000175320270230629772140000017850570787399974046_);stroke:#00703C;stroke-width:0.75;stroke-miterlimit:10;" d="
					M222.4,72.1c4.3-6,6.1-13.4,5-20.6c-0.8-2.7-2.2-1.8-3.2,0c0.9,7.4-1.4,12-4.4,18.5C220,70.7,221.4,72.5,222.4,72.1z"/>
				
					<linearGradient id="SVGID_00000123430724993718163820000010560783702763344564_" gradientUnits="userSpaceOnUse" x1="-382.1882" y1="-199.6973" x2="-352.4313" y2="-199.6973" gradientTransform="matrix(0.8223 -0.569 -0.569 -0.8223 395.0893 -337.5639)">
					<stop  offset="0.56" style="stop-color:#FFFFFF"/>
					<stop  offset="1" style="stop-color:#ADD9D1"/>
				</linearGradient>
				
					<path style="fill:url(#SVGID_00000123430724993718163820000010560783702763344564_);stroke:#00703C;stroke-width:0.75;stroke-miterlimit:10;" d="
					M196.4,47c13.1,2.7,22.2-1.5,25.5-15.4c-8-11.2-14.8-10.3-21.3-6C194.8,30.5,193.7,37.8,196.4,47z"/>
				<path class="st34" d="M196.1,45c2.5,0.8,5.2,0.7,7.5-0.5c0.4-0.2-5-10.5-8.1-8.8C195.2,37.9,195.6,41.5,196.1,45z"/>
				<ellipse transform="matrix(0.8223 -0.569 0.569 0.8223 11.9158 119.9358)" class="st35" cx="198" cy="40.9" rx="1.1" ry="2"/>
				<ellipse class="st16" cx="225.6" cy="84.4" rx="14.5" ry="3.9"/>
				<path class="st36" d="M202.9,35.6c-0.8-4-3.8-7.2-5.3-6.9c-1.9,1.9-2.6,5.5-3.4,8.3c-5,1-9.4,2.5-12.5,5
					C187.9,46.4,191.5,43.2,202.9,35.6z"/>
				<path class="st37" d="M195,34.9c7-1,17.4-5,21.6-9.9l1.6,1.2c-2.2,3.1-7.8,9-23.8,10.5C194.4,36.1,194.7,35.5,195,34.9z"/>
				<path class="st16" d="M146.6,34.3c-0.1-0.3-0.3-0.5-0.4-0.7c-0.6-1.3-1.7-2.3-2.9-3c-5.4-4.6-22.5,1.4-17.4,6.4l0,0
					c0.7,1.5,1.9,2.7,3.3,3.5c0.1,0.2,0.3,0.4,0.5,0.5l0,0c4.5,9.7,25.4,3,20.3-3.4c-0.6-1.3-1.7-2.3-2.9-3
					C146.9,34.5,146.7,34.4,146.6,34.3z"/>
				<path class="st17" d="M150.3,40.6c-0.8,7.6-22.7,7.4-18.8-3.2C133.5,30.3,153.5,31.1,150.3,40.6z"/>
				<path class="st18" d="M150.3,37.4c0.2,6.6-19.1,6.6-18.8,0C131.2,30.8,150.6,30.8,150.3,37.4z"/>
				<path class="st17" d="M150.4,35.6c-0.8,7.6-22.7,7.4-18.8-3.2C133.6,25.3,153.5,26,150.4,35.6z"/>
				<path class="st18" d="M150.4,32.4c0.2,6.6-19.1,6.6-18.8,0C131.3,25.8,150.6,25.8,150.4,32.4z"/>
				<g class="st38">
					<path d="M125.3,27.1l-18.8,23.4c-1.1,1.4-3.7,1.7-5.6,0.5l-15.7-9.1c-2-1.2-2.6-3.2-1.5-4.7l18.8-23.4c1.2-1.4,3.7-1.6,5.6-0.5
						l15.7,9.1C125.8,23.6,126.4,25.6,125.3,27.1z"/>
				</g>
				<path class="st13" d="M123.8,26.7L105,50c-1.1,1.4-3.7,1.7-5.6,0.5l-15.6-9.1c-2-1.1-2.6-3.2-1.5-4.7l18.8-23.4
					c1.2-1.4,3.7-1.6,5.6-0.5l15.7,9.1C124.3,23.2,125,25.2,123.8,26.7z"/>
				<path class="st39" d="M93.9,38l-2,2.5c-0.6,0.6-1.6,0.7-2.3,0.2L88,39.8c-0.8-0.5-1.1-1.3-0.6-1.9l2-2.5
					c0.6-0.6,1.6-0.7,2.3-0.2l1.5,0.9c0.7,0.2,1,1,0.8,1.7C94,37.9,93.9,37.9,93.9,38z"/>
				<path class="st40" d="M100.8,40.7l-3.4,4.2c-0.3,0.3-0.9,0.4-1.3,0.1l-0.5-0.3c-0.4-0.1-0.5-0.6-0.4-0.9c0,0,0-0.1,0.1-0.1
					l3.4-4.2c0.3-0.3,0.9-0.4,1.3-0.1l0.5,0.3C101,39.9,101.1,40.4,100.8,40.7z"/>
				<path class="st40" d="M108.3,39.5l-6.4,8c-0.3,0.3-0.7,0.3-1.1,0.1l-0.4-0.2c-0.3-0.1-0.5-0.5-0.3-0.8c0,0,0-0.1,0-0.1l6.5-8
					c0.3-0.3,0.7-0.3,1.1-0.1l0.4,0.2C108.4,38.9,108.5,39.3,108.3,39.5z"/>
				<path class="st40" d="M120.2,24.8l-6.4,8c-0.3,0.3-0.7,0.3-1.1,0.1l-0.4-0.2c-0.4-0.2-0.5-0.6-0.3-0.9l6.5-8
					c0.3-0.3,0.7-0.3,1.1-0.1l0.4,0.2C120.2,24,120.4,24.4,120.2,24.8C120.2,24.7,120.2,24.8,120.2,24.8z"/>
				<path class="st40" d="M105.9,34.4l-3.4,4.2c-0.3,0.3-0.9,0.4-1.3,0.1l-0.5-0.3c-0.4-0.3-0.6-0.7-0.3-1l3.4-4.2
					c0.3-0.3,0.9-0.4,1.3-0.1l0.5,0.3C106,33.7,106.1,34.1,105.9,34.4z"/>
				<path class="st40" d="M110.8,28.3l-3.4,4.2c-0.3,0.3-0.9,0.4-1.3,0.1l-0.5-0.3c-0.4-0.2-0.5-0.6-0.4-0.9c0,0,0-0.1,0-0.1
					l3.4-4.2c0.3-0.3,0.9-0.4,1.3-0.1l0.5,0.3C111,27.5,111.1,27.9,110.8,28.3z"/>
				<path class="st40" d="M115.8,22.1l-3.4,4.2c-0.3,0.3-0.9,0.4-1.3,0.1l-0.5-0.3c-0.4-0.2-0.6-0.7-0.3-1l3.4-4.2
					c0.3-0.3,0.9-0.4,1.3-0.1l0.5,0.3C115.8,21.3,116,21.7,115.8,22.1C115.8,22.1,115.8,22.1,115.8,22.1z"/>
				<path class="st40" d="M106.6,16.8l-3.4,4.2c-0.3,0.3-0.9,0.4-1.3,0.1l-0.5-0.3c-0.4-0.1-0.5-0.6-0.4-0.9c0,0,0-0.1,0.1-0.1
					l3.4-4.2c0.3-0.3,0.9-0.4,1.3-0.1l0.5,0.3C106.7,16,106.9,16.5,106.6,16.8z"/>
				<g id="objbutton8">
					<path class="st41" d="M64.1,57.9h80c5.3,0,9.6,4.3,9.6,9.7v30.9c0,5.3-4.3,9.7-9.6,9.7h-80c-5.3,0-9.6-4.3-9.6-9.7V67.6
						C54.5,62.2,58.8,57.9,64.1,57.9z"/>
				</g>
				<text transform="matrix(0.9999 -9.999500e-03 9.999500e-03 0.9999 74.7295 76.0494)" class="st9 st42 st43">Smarter </text>
				<text transform="matrix(0.9999 -9.999500e-03 9.999500e-03 0.9999 67.8587 94.0399)" class="st9 st42 st43">Payments</text>
			</g>
		</g>
	</g>
</g>
</svg>
