<svg xmlns="http://www.w3.org/2000/svg" xmlns:xlink="http://www.w3.org/1999/xlink" viewBox="0 0 112.97 133.36"><defs><style>.cls-1,.cls-41,.cls-60{fill:none;}.cls-2{opacity:0.38;}.cls-3,.cls-7{fill:#d2f7f2;}.cls-3,.cls-4,.cls-5,.cls-6,.cls-7{stroke:#31ab94;}.cls-3,.cls-41,.cls-5,.cls-6,.cls-60{stroke-miterlimit:10;}.cls-4{fill:#add9d1;stroke-linecap:round;}.cls-4,.cls-7{stroke-linejoin:round;}.cls-5{fill:#bee1db;}.cls-6{fill:#a7d1c9;}.cls-8{clip-path:url(#clip-path);}.cls-9{fill:url(#linear-gradient);}.cls-10{fill:#915e7c;}.cls-11{fill:#e4e3ea;}.cls-12{fill:#f8c7a3;}.cls-13{fill:#40485b;}.cls-14{fill:#2b303d;}.cls-15{fill:#858585;}.cls-16{fill:#5e5e5e;}.cls-17,.cls-33,.cls-62,.cls-70,.cls-72{fill:#fff;}.cls-18{fill:#24244a;}.cls-19{fill:#95abab;}.cls-20{fill:#b3b3b3;}.cls-21{fill:#363c5c;}.cls-22{fill:#535c82;}.cls-23{fill:#5d6791;}.cls-24{fill:#e8e0d8;}.cls-25{fill:#c9c3bc;}.cls-26{fill:#d84da0;}.cls-27{fill:#ff7bac;}.cls-28{fill:#e3b696;}.cls-29{fill:#542578;}.cls-30,.cls-73{fill:#412a74;}.cls-31{fill:#2e3192;}.cls-32{fill:#ff9c50;}.cls-33{opacity:0.18;}.cls-34{fill:#d66c60;}.cls-35{fill:#ffe36a;}.cls-36{fill:#ffefb6;}.cls-37{fill:#ffd900;}.cls-38{fill:#f9ae63;}.cls-39{fill:#6b82a4;}.cls-40{fill:#aabcda;}.cls-41{stroke:#bfbbb8;stroke-width:0.25px;}.cls-42{fill:#d4bfa1;}.cls-43{fill:#b3a187;}.cls-44{fill:#6585f3;}.cls-45{fill:#ffad41;}.cls-46{fill:#ff9811;}.cls-47{fill:#804c09;}.cls-48{fill:#bd720d;}.cls-49{fill:#ff5023;}.cls-50{fill:#bd3c1a;}.cls-51{fill:#ffe98f;}.cls-52{fill:#ffda44;}.cls-53{fill:#91dc5a;}.cls-54{fill:#64c37d;}.cls-55{fill:#97805c;}.cls-56{fill:#66757f;}.cls-57{fill:#ccd6dd;}.cls-58{fill:#f5f8fa;}.cls-59{fill:#807573;}.cls-60{stroke:#1b1464;stroke-width:2px;opacity:0.22;}.cls-61{fill:#31ab94;}.cls-62{font-size:3.96px;}.cls-62,.cls-70,.cls-72{font-family:ArialRoundedMTBold, Arial Rounded MT Bold;}.cls-63{letter-spacing:-0.03em;}.cls-64{letter-spacing:-0.13em;}.cls-65{letter-spacing:0em;}.cls-66{fill:#e3427b;}.cls-67{fill:#b0d9d2;}.cls-68{fill:#b0b0b0;}.cls-69{fill:url(#linear-gradient-2);}.cls-70{font-size:1.25px;}.cls-71{fill:#fbb03b;}.cls-72{font-size:1.13px;}.cls-73{font-size:3.28px;font-family:Arial-BoldMT, Arial;font-weight:700;}.cls-74{letter-spacing:-0.04em;}.cls-75{letter-spacing:0em;}</style><clipPath id="clip-path"><circle class="cls-1" cx="55.34" cy="59.06" r="46.52"/></clipPath><linearGradient id="linear-gradient" x1="55.73" y1="13.32" x2="55.65" y2="114.17" gradientUnits="userSpaceOnUse"><stop offset="0" stop-color="#fff"/><stop offset="1" stop-color="#cfa484"/></linearGradient><linearGradient id="linear-gradient-2" x1="37.36" y1="3.84" x2="66.25" y2="3.84" gradientUnits="userSpaceOnUse"><stop offset="0.43" stop-color="#7e7494"/><stop offset="1" stop-color="#625a73"/></linearGradient></defs><g id="Layer_2" data-name="Layer 2"><g id="MainLayer"><g id="workgroup"><g id="work1"><g class="cls-2"><polygon class="cls-3" points="23.18 7.25 36.54 0.52 42.74 1.57 41.48 7.92 31.73 12.81 23.41 12.18 23.18 7.25"/><polygon class="cls-3" points="22.21 7.71 8.83 2.21 2.66 4.46 8.02 11.72 22.31 17.4 22.21 7.71"/><path class="cls-4" d="M23.48,3.83,22.17,1.46,21,3.86l.23,48.84a2.72,2.72,0,0,0,3.06-.05Z"/><polygon class="cls-5" points="21.01 8.78 6.97 2.86 0.8 5.11 6.16 12.37 21.11 18.48 21.01 8.78"/><polygon class="cls-6" points="23.45 8.87 38.24 0.85 44.45 1.9 43.18 8.26 33.44 13.15 23.5 13.84 23.45 8.87"/><polygon class="cls-6" points="23.21 9.51 38.76 13.23 43.65 20.2 38.99 23.55 23.15 18.77 23.21 9.51"/><polygon class="cls-7" points="39.72 12.49 38.76 13.23 43.65 20.2 44.6 19.46 39.72 12.49"/><polygon class="cls-7" points="23.21 9.51 24.17 8.77 39.72 12.49 38.76 13.23 23.21 9.51"/></g><g class="cls-8"><circle class="cls-9" cx="55.69" cy="59.06" r="54.9"/><path class="cls-10" d="M9.42,83.94l-.5,11.89,18.2,4.94.05,10.49,8.36.09c.93-7.26,3.94-14.8.2-16.35L19.82,84.33Z"/><path class="cls-11" d="M74.75,56.85c1.27,1.92.14,3.79-2.37,12.61a8.39,8.39,0,0,1-1.75,3.23,3,3,0,0,1-5.39-1.63A75.66,75.66,0,0,1,71,56.42a2.36,2.36,0,0,1,1.7-1.05C73.77,55.35,74.52,56.5,74.75,56.85Z"/><path class="cls-11" d="M69.43,73.48c-1.86,1.26-3.36.28-10.81-1.75a5.51,5.51,0,0,1-1.33-.54c-.58-.32-1.38-.59-1.29-1a14.75,14.75,0,0,1,2.14-5.13A53.31,53.31,0,0,1,70.3,69.92,1.84,1.84,0,0,1,71,71.48,3.34,3.34,0,0,1,69.43,73.48Z"/><path class="cls-12" d="M59.64,66.83l-3.79-9.06L53.2,62.45l3.62,6.76A3.1,3.1,0,0,0,59.64,66.83Z"/><path class="cls-13" d="M55.94,66.59l5.69,1.18a.51.51,0,0,0,.45-.14l0,0a.49.49,0,0,0,.13-.46l-2.08-9.45a.49.49,0,0,0-.42-.39l-4.92-.61a.51.51,0,0,0-.38.11l-.23.19a.52.52,0,0,0-.17.47l1.51,8.72A.49.49,0,0,0,55.94,66.59Z"/><path class="cls-14" d="M56.21,67.05l4.69.62a.69.69,0,0,0,.78-.84l-1.89-8.61a.69.69,0,0,0-.6-.54l-4.69-.63a.71.71,0,0,0-.78.85l1.9,8.6A.7.7,0,0,0,56.21,67.05Z"/><ellipse class="cls-15" cx="58.75" cy="58.7" rx="0.49" ry="0.65" transform="translate(-20.69 34.47) rotate(-28.01)"/><ellipse class="cls-16" cx="58.76" cy="58.68" rx="0.29" ry="0.39" transform="translate(-20.68 34.47) rotate(-28.01)"/><ellipse class="cls-17" cx="58.76" cy="58.68" rx="0.22" ry="0.29" transform="translate(-20.68 34.47) rotate(-28.01)"/><path class="cls-12" d="M56,67.46a10.72,10.72,0,0,1-3.23-4l-.44-3.55a2.86,2.86,0,0,1,1.76-1.58c.62-.13,1.54,0,1.63.35a.24.24,0,0,1,0,.18c-.2.32-1.08,0-1.61.35a1.11,1.11,0,0,0-.42.84,2.78,2.78,0,0,0,.56.58,4.37,4.37,0,0,1,1.74-.14c1.15.15,2.3.83,2.18,1.16a.23.23,0,0,1-.07.08c-.5.37-2-.31-2.19-.41l-1.66.22a5.71,5.71,0,0,1,1.61,0c1,.2,2.21.75,2.12,1a.15.15,0,0,1,0,.06c-.31.33-1.94-.14-2.43-.29H54.18a5.93,5.93,0,0,1,1.7.39c.71.28.72.47.71.53a.33.33,0,0,1-.07.14c-.2.17-.67,0-1.33-.22A9.41,9.41,0,0,0,54.08,63C53.93,64,55,65.79,56,67.46Z"/><rect class="cls-18" x="70.63" y="65.46" width="23" height="10.01" transform="translate(164.27 140.93) rotate(-180)"/><rect class="cls-19" x="40.69" y="108.89" width="14.45" height="1.83" transform="translate(-71.86 112.44) rotate(-67.68)"/><polygon class="cls-19" points="71.73 104.09 50.52 103.83 50.54 102 69.9 102.24 69.82 62.97 78.35 62.97 78.35 64.8 71.65 64.8 71.73 104.09"/><path class="cls-19" d="M49.86,117.64,49.43,83.7a5.16,5.16,0,0,1,5.14-5.23l16-.07v1.83l-16,.07a3.27,3.27,0,0,0-2.36,1,3.31,3.31,0,0,0-1,2.38l.43,33.94Z"/><rect class="cls-20" x="71.78" y="85.44" width="0.61" height="34.01" transform="translate(-31.17 173.36) rotate(-89.35)"/><rect class="cls-20" x="71.78" y="85.44" width="0.61" height="34.01" transform="translate(-31.17 173.36) rotate(-89.35)"/><rect class="cls-20" x="53.01" y="101.89" width="38.15" height="0.61" transform="translate(-31.33 172.52) rotate(-89.02)"/><rect class="cls-20" x="71.46" y="83.25" width="0.61" height="37.24" transform="translate(-51.13 81.25) rotate(-45.31)"/><rect class="cls-20" x="71.78" y="83.12" width="0.61" height="38.15" transform="translate(-33.03 34.44) rotate(-22)"/><rect class="cls-20" x="53.12" y="102.16" width="37.41" height="0.61" transform="translate(-52.14 85.41) rotate(-47.14)"/><rect class="cls-20" x="53.01" y="101.89" width="38.15" height="0.61" transform="translate(-49.41 131.85) rotate(-68.52)"/><rect class="cls-20" x="54.44" y="102.14" width="34.14" height="0.61" transform="translate(-32.91 33.85) rotate(-21.78)"/><rect class="cls-20" x="71.57" y="85.16" width="0.61" height="34.19" transform="translate(-50.8 126.19) rotate(-65.93)"/><path class="cls-21" d="M71.93,123.11c-10,0-18.07-9.35-18.07-20.86S62,81.39,71.93,81.39,90,90.75,90,102.25,81.89,123.11,71.93,123.11Zm0-39.28c-8.62,0-15.63,8.27-15.63,18.42s7,18.42,15.63,18.42,15.63-8.26,15.63-18.42S80.55,83.83,71.93,83.83Z"/><path class="cls-21" d="M71.93,123.11c-10,0-18.07-9.35-18.07-20.86S62,81.39,71.93,81.39,90,90.75,90,102.25,81.89,123.11,71.93,123.11Zm0-39.28c-8.62,0-15.63,8.27-15.63,18.42s7,18.42,15.63,18.42,15.63-8.26,15.63-18.42S80.55,83.83,71.93,83.83Z"/><path class="cls-20" d="M72.16,120.39c-8.74,0-15.85-8.24-15.85-18.37s7.11-18.37,15.85-18.37S88,91.89,88,102,80.9,120.39,72.16,120.39Zm0-35.52c-8.06,0-14.63,7.69-14.63,17.15s6.57,17.15,14.63,17.15,14.63-7.7,14.63-17.15S80.23,84.87,72.16,84.87Z"/><rect x="50.77" y="77.55" width="19.32" height="1.69" transform="translate(120.86 156.79) rotate(-180)"/><rect x="74.97" y="62.87" width="6.05" height="2.05" transform="translate(155.99 127.78) rotate(-180)"/><ellipse class="cls-18" cx="50.97" cy="117.93" rx="2.97" ry="3.46"/><path class="cls-21" d="M51,123.07a5.17,5.17,0,0,1,0-10.28,5.17,5.17,0,0,1,0,10.28Zm0-6.92c-.7,0-1.29.82-1.29,1.78s.59,1.79,1.29,1.79,1.3-.82,1.3-1.79S51.68,116.15,51,116.15Z"/><polygon class="cls-22" points="76.23 82 78.29 91.46 52.95 91.58 52.71 83.94 76.23 82"/><path class="cls-23" d="M89.43,82.59c1.33,5.92-.14,8.71-3.86,9l-18.82-.24-4.24-5.82Z"/><path class="cls-11" d="M71.89,56c-1.31,1.06,0,17,.16,26.82,5,2.72,10.93,2.46,17.62.09.72-8.86,1.13-18-.1-26.91C83,52.87,77.18,53.12,71.89,56Z"/><path class="cls-11" d="M91.14,57.64c.9,2-.42,3.64-4,11.71A8.1,8.1,0,0,1,85,72.17a2.83,2.83,0,0,1-4.78-2.35,73,73,0,0,1,7.46-13.15,2.23,2.23,0,0,1,1.74-.76C90.44,56.06,91,57.27,91.14,57.64Z"/><path class="cls-11" d="M81.38,72.27a2.58,2.58,0,0,1-1-1.16,26.11,26.11,0,0,1-1.57-4.46,56.15,56.15,0,0,1-1.68-6.84c-.11-.77-.41-1.53.15-1.76A12.32,12.32,0,0,1,82.47,57a65.87,65.87,0,0,1,2.19,14,2.1,2.1,0,0,1-.9,1.57A2.48,2.48,0,0,1,81.38,72.27Z"/><rect class="cls-18" x="49.78" y="91.58" width="44.72" height="3.74" transform="translate(144.28 186.9) rotate(-180)"/><path class="cls-23" d="M68.57,91l1.94,19.87c-2.82,1.45-5.89-.31-8.91-.29L60.39,89.83c-.11-2.27.6-3.66,2.06-4.25Z"/><path class="cls-22" d="M57,90.9,55.82,111c-2.2.76-5.23.15-8.73-.38l1.3-23a4.11,4.11,0,0,1,4.32-3.68Z"/><path class="cls-24" d="M70.53,116.11l-.33-4.52h-6l-4.34,1.06c-2.73-.1-3.83.83-3.55,2.63l3.95.63Z"/><path class="cls-24" d="M54.89,115.78l-.33-4.52h-6l-4.34,1.06c-2.73-.1-3.83.83-3.55,2.64l3.95.62Z"/><rect x="42.85" y="115.91" width="11.26" height="1.69" transform="translate(96.97 233.51) rotate(-180)"/><rect class="cls-19" x="63.41" y="109.27" width="14.64" height="1.83" transform="translate(-58.41 131.82) rotate(-66.81)"/><rect x="62.41" y="115.95" width="11.47" height="1.69" transform="translate(136.29 233.58) rotate(-180)"/><polygon class="cls-19" points="94.7 104.09 73.49 103.83 73.51 102 92.87 102.24 92.79 62.97 101.32 62.97 101.32 64.8 94.62 64.8 94.7 104.09"/><path class="cls-19" d="M72.83,117.64,72.39,83.7A5.14,5.14,0,0,1,73.88,80a5.09,5.09,0,0,1,3.66-1.54l16-.07v1.83l-16,.07a3.35,3.35,0,0,0-3.33,3.38l.44,33.94Z"/><rect class="cls-20" x="94.74" y="85.44" width="0.61" height="34.01" transform="translate(-8.46 196.33) rotate(-89.35)"/><rect class="cls-20" x="94.74" y="85.44" width="0.61" height="34.01" transform="translate(-8.46 196.33) rotate(-89.35)"/><rect class="cls-20" x="75.97" y="101.89" width="38.15" height="0.61" transform="translate(-8.75 195.48) rotate(-89.02)"/><rect class="cls-20" x="94.43" y="83.25" width="0.61" height="37.24" transform="translate(-44.31 97.58) rotate(-45.31)"/><rect class="cls-20" x="94.75" y="83.12" width="0.61" height="38.15" transform="translate(-31.36 43.04) rotate(-22)"/><rect class="cls-20" x="76.09" y="102.16" width="37.41" height="0.61" transform="translate(-44.79 102.25) rotate(-47.14)"/><rect class="cls-20" x="75.97" y="101.89" width="38.15" height="0.61" transform="translate(-34.85 153.22) rotate(-68.52)"/><rect class="cls-20" x="77.41" y="102.14" width="34.14" height="0.61" transform="translate(-31.27 42.37) rotate(-21.78)"/><rect class="cls-20" x="94.54" y="85.16" width="0.61" height="34.19" transform="translate(-37.2 147.16) rotate(-65.93)"/><path class="cls-21" d="M94.9,123.11c-10,0-18.08-9.35-18.08-20.86S84.93,81.39,94.9,81.39,113,90.75,113,102.25,104.86,123.11,94.9,123.11Zm0-39.28c-8.62,0-15.64,8.27-15.64,18.42s7,18.42,15.64,18.42,15.63-8.26,15.63-18.42S103.52,83.83,94.9,83.83Z"/><path class="cls-21" d="M94.9,123.11c-10,0-18.08-9.35-18.08-20.86S84.93,81.39,94.9,81.39,113,90.75,113,102.25,104.86,123.11,94.9,123.11Zm0-39.28c-8.62,0-15.64,8.27-15.64,18.42s7,18.42,15.64,18.42,15.63-8.26,15.63-18.42S103.52,83.83,94.9,83.83Z"/><path class="cls-20" d="M95.13,120.39c-8.74,0-15.85-8.24-15.85-18.37s7.11-18.37,15.85-18.37S111,91.89,111,102,103.87,120.39,95.13,120.39Zm0-35.52c-8.06,0-14.63,7.69-14.63,17.15s6.57,17.15,14.63,17.15,14.63-7.7,14.63-17.15S103.2,84.87,95.13,84.87Z"/><rect x="73.74" y="77.55" width="19.32" height="1.69" transform="translate(166.8 156.79) rotate(-180)"/><rect x="97.94" y="62.87" width="6.05" height="2.05" transform="translate(201.93 127.78) rotate(-180)"/><ellipse class="cls-18" cx="73.94" cy="117.93" rx="2.97" ry="3.46"/><path class="cls-21" d="M73.94,123.07a5.17,5.17,0,1,1,4.65-5.14A4.92,4.92,0,0,1,73.94,123.07Zm0-6.92c-.7,0-1.29.82-1.29,1.78s.59,1.79,1.29,1.79,1.29-.82,1.29-1.79S74.64,116.15,73.94,116.15Z"/><path class="cls-25" d="M16.44,133.27l.34-4.52h6l4.33,1.06c2.73-.1,3.84.83,3.56,2.63l-4,.63Z"/><path class="cls-26" d="M23.39,57.13l-.15,26.71c-4.68,2.7-8.56,2.7-14.87.34-2.13-.9-3.32-9.27,1.19-22C12.71,57.92,16.89,53.52,23.39,57.13Z"/><path class="cls-27" d="M23.4,74.86l-.3,0A60.61,60.61,0,0,0,23,60.08l.3,0A60.19,60.19,0,0,1,23.4,74.86Z"/><path class="cls-24" d="M5,133.36l.33-4.52h6l4.33,1.06c2.73-.1,3.83.83,3.56,2.64l-4,.62Z"/><path class="cls-12" d="M82.94,49.12l.11,5.61a10,10,0,0,1-3.72,2.65c-.69.43-1,.23-1.22-.29V52.15Z"/><path class="cls-28" d="M78.11,55c2.31-1.74,4.13-3.47,4.39-5.14l-4.39,2.89Z"/><polygon class="cls-29" points="71.72 45.61 72.99 45.6 73 45.92 71.73 45.9 71.72 45.61"/><path class="cls-12" d="M71.93,41.2c0,.32.08.76.13,1.27.74,7.38,1,8.84,2.17,9.94a4.62,4.62,0,0,0,2.34,1.15c2.22.35,4.64-1.13,6.32-3.75l-1.45-8.32a28.81,28.81,0,0,0-9.51-.29Z"/><ellipse class="cls-30" cx="78.16" cy="46.13" rx="0.59" ry="0.81" transform="translate(-1.24 2.17) rotate(-1.58)"/><ellipse class="cls-30" cx="73.85" cy="46.29" rx="0.59" ry="0.81" transform="translate(-1.25 2.05) rotate(-1.58)"/><polygon class="cls-28" points="76.49 48.96 74.94 48.92 75.56 45.65 75.63 45.68 75.38 48.57 76.47 48.9 76.49 48.96"/><polygon class="cls-30" points="75.32 48.62 75.63 45.57 75.72 45.57 75.5 48.61 75.32 48.62"/><path class="cls-31" d="M74.43,44.61a.14.14,0,0,1-.11,0,1.13,1.13,0,0,0-1.15,0,.14.14,0,0,1-.2-.07.15.15,0,0,1,.06-.2,1.43,1.43,0,0,1,1.44,0,.16.16,0,0,1,.06.21A.14.14,0,0,1,74.43,44.61Z"/><path class="cls-31" d="M78.92,44.58a.14.14,0,0,1-.11,0,1.13,1.13,0,0,0-1.15,0,.15.15,0,0,1-.21-.07.14.14,0,0,1,.07-.2,1.43,1.43,0,0,1,1.43,0,.15.15,0,0,1,.06.21A.13.13,0,0,1,78.92,44.58Z"/><path class="cls-32" d="M81.65,48.05l-.24-2.75a14.91,14.91,0,0,1-1.15-1.78c-.39-.71-.23-1.22-.45-1.81A3.4,3.4,0,0,1,77,41.17a5.05,5.05,0,0,1-2.29.58A10.32,10.32,0,0,1,73,41.54c-.34-.06-.63-.13-.84-.18a.44.44,0,0,1-.19.35c-.29.14-.72-.32-.8-.41a1.67,1.67,0,0,1-.33-.55A2.84,2.84,0,0,1,71,38.22a2.54,2.54,0,0,1,3.33-.12,2.95,2.95,0,0,1,4.64.33,3.11,3.11,0,0,1,2.22-.37,3.27,3.27,0,0,1,2.31,3,.85.85,0,0,1,1.09.52c.66,1.27.21,3.07-.23,4.87Z"/><path class="cls-12" d="M81.63,46.65c.37-1.15,1.65-2,2.26-1.76s.65,2.16-.15,3.31c-.06.08-.82,1.16-1.47,1S81.3,47.66,81.63,46.65Z"/><path class="cls-28" d="M83.51,45.33c-.62-.07-1.28,2.12-1.27,2.13h0s.44-.23.59-.09.06.1.07.1a.27.27,0,0,0-.07-.18c-.15-.12-.49.09-.58.16.12-.21.67-1.81,1.19-1.9.18,0,.4.13.42.09S83.69,45.36,83.51,45.33Z"/><path class="cls-33" d="M80.2,46.75a5,5,0,0,1-3.78.1l0-1.73a8.4,8.4,0,0,1,3.77-.1Z"/><path class="cls-29" d="M78.38,47.27a5.59,5.59,0,0,1-2-.33l-.07,0,0-1.87.08,0a8.7,8.7,0,0,1,3.84-.11l.09,0,0,1.87-.07,0A4.54,4.54,0,0,1,78.38,47.27Zm-1.84-.48a4.74,4.74,0,0,0,3.54-.1l0-1.6a8.47,8.47,0,0,0-3.55.1Z"/><path class="cls-33" d="M75.13,46.92a4.1,4.1,0,0,1-3.34.09l0-1.63a5.38,5.38,0,0,1,3.33-.1Z"/><path class="cls-29" d="M73.52,47.41a4.8,4.8,0,0,1-1.77-.31l-.06,0,0-1.76.07,0a5.52,5.52,0,0,1,3.4-.09l.07,0,0,1.75-.06,0A3.87,3.87,0,0,1,73.52,47.41ZM71.89,47A3.94,3.94,0,0,0,75,46.87l0-1.52a5.27,5.27,0,0,0-3.13.09Z"/><polygon class="cls-29" points="80.22 45.27 82.64 45.26 82.24 45.62 80.23 45.63 80.22 45.27"/><path class="cls-29" d="M75.08,45.62a1.25,1.25,0,0,1,1.29,0v.23a1.15,1.15,0,0,0-1.29,0Z"/><path class="cls-12" d="M81,57.86a25.31,25.31,0,0,0-1.27-5.21,7.22,7.22,0,0,0,1-2.65.73.73,0,0,0-.85-.21,4.87,4.87,0,0,0-1.43,2.4,5.38,5.38,0,0,0-2.37-1.91,4.51,4.51,0,0,0-2.9,0,1.08,1.08,0,0,0,.24,1.11c-.26.34-.38.67,0,1a.68.68,0,0,0-.22,1c-.41.17-.52.4-.22.73L77,56.79l1,1.74Z"/><path class="cls-12" d="M81,57.86a24.39,24.39,0,0,0-1.24-5.33A4.52,4.52,0,0,0,80.7,50a.93.93,0,0,0-.85-.21,4.26,4.26,0,0,0-1.43,2.4,4.21,4.21,0,0,0-4.69-2.08"/><path class="cls-34" d="M81,57.86a23.45,23.45,0,0,0-1.24-5.32v0A4.56,4.56,0,0,0,80.67,50a.93.93,0,0,0-.8-.18,4.09,4.09,0,0,0-1.41,2.37l0,.08,0-.07a4.19,4.19,0,0,0-4.65-2.06l0-.07a4.23,4.23,0,0,1,4.69,2,4.14,4.14,0,0,1,1.42-2.34h0a1,1,0,0,1,.88.22h0v0a4.55,4.55,0,0,1-.93,2.53,24,24,0,0,1,1.24,5.33Z"/><path class="cls-35" d="M84.37,30.32a2.63,2.63,0,1,0-5.26,0,2.72,2.72,0,0,0,.64,1.77h0l.58,1c.15.28.2.46.45.46h1.88c.25,0,.32-.19.46-.46l.61-1h0a2.72,2.72,0,0,0,.64-1.77Z"/><path class="cls-36" d="M79.28,30.65a3.08,3.08,0,0,1,2.68-3h-.23a2.68,2.68,0,0,0-2.63,2.72,2.8,2.8,0,0,0,.35,1.35,3.12,3.12,0,0,1-.17-1Z"/><path class="cls-37" d="M84.37,30.32A2.75,2.75,0,0,0,84,28.87a3,3,0,0,1,.08.67c0,1.78-1.72,3.23-3.88,3.29l.17.31c.15.28.2.46.45.46h1.88c.25,0,.32-.19.46-.46l.61-1h0a2.77,2.77,0,0,0,.64-1.78Z"/><path class="cls-38" d="M82.85,30.78h0a.18.18,0,0,0,.06-.19.75.75,0,0,0-.85-.27h0a.75.75,0,0,0-.55-.06l-.06,0a.54.54,0,0,0-.82.38h0A5,5,0,0,1,81.19,32c0,.42,0,1.54,0,1.55h.21s0-1.14,0-1.56a2.72,2.72,0,0,0-.35-.9c-.1-.19-.19-.36-.25-.45a.34.34,0,0,1,.3-.25.25.25,0,0,1,.12,0l0,.06a.33.33,0,0,0,.07.4.29.29,0,0,0,.24.05.26.26,0,0,0,.17-.15.26.26,0,0,0,0-.21.33.33,0,0,0-.07-.13.39.39,0,0,1,.24,0,.41.41,0,0,0-.07.11.29.29,0,0,0,0,.27A.21.21,0,0,0,82,31h0a.25.25,0,0,0,.18-.08.29.29,0,0,0,.08-.23.47.47,0,0,0-.06-.15.56.56,0,0,1,.51.14,4.87,4.87,0,0,0-.28.49,3,3,0,0,0-.35.9c0,.42,0,1.52,0,1.56h.21s0-1.13,0-1.55a4.49,4.49,0,0,1,.57-1.26Zm-1.38-.05,0,0h-.06a.13.13,0,0,1,0-.15s0,0,0,0a.24.24,0,0,1,.06.11S81.48,30.71,81.47,30.73Zm.55,0,0,0a0,0,0,0,1,0,0,.1.1,0,0,1,0-.09.13.13,0,0,1,.06-.07.18.18,0,0,1,0,.09A.07.07,0,0,1,82,30.74Z"/><path class="cls-39" d="M82.74,34.05h-2a.22.22,0,0,0-.21.21v.12a.21.21,0,0,0,.21.2h.65c-.19.07-.4.25-.4.44v.08c.16.18.3.48.58.48h.37c.22,0,.37-.23.56-.48V35a.55.55,0,0,0-.38-.44h.63a.2.2,0,0,0,.21-.2v-.12a.21.21,0,0,0-.21-.21Z"/><path class="cls-40" d="M82.89,34.05H80.58a.2.2,0,0,1-.2-.2v-.12a.21.21,0,0,1,.2-.21h2.31a.21.21,0,0,1,.2.21v.12A.2.2,0,0,1,82.89,34.05Zm-.12.86v-.12a.21.21,0,0,0-.21-.21H80.91a.21.21,0,0,0-.21.21v.12a.21.21,0,0,0,.21.2h1.65a.2.2,0,0,0,.21-.2Z"/><path class="cls-41" d="M85.22,58.7c-1.36,2-1.92,4.71-2.16,7.73a31.46,31.46,0,0,0-1.56-8.82,36.37,36.37,0,0,1-4.09,1.09c.31,5.89.31,12.92,1.78,14.6a6.44,6.44,0,0,0,4.67.74c2.56-1.23,4.29-6.21,6.1-10.86"/><polygon class="cls-42" points="25.21 72.93 57.5 72.78 83.09 93.61 15.59 93.95 25.21 72.93"/><rect class="cls-43" x="15.59" y="93.61" width="67.5" height="3.73"/><path class="cls-26" d="M20.61,58c-1.51,1.74-.64,3.74.69,12.82a8.25,8.25,0,0,0,1.31,3.43,3,3,0,0,0,5.55-.9A75.43,75.43,0,0,0,24.41,58a2.41,2.41,0,0,0-1.55-1.27C21.78,56.6,20.88,57.64,20.61,58Z"/><path class="cls-26" d="M23.69,75.14c1.68,1.5,3.29.72,11-.31A5.41,5.41,0,0,0,36,74.48c.62-.25,1.44-.41,1.41-.81A15,15,0,0,0,36,68.31,53.5,53.5,0,0,0,23.3,71.5,1.85,1.85,0,0,0,22.39,73,3.33,3.33,0,0,0,23.69,75.14Z"/><path class="cls-12" d="M36.91,72.73l1.19-.22c.49.59,2.39.07,3.92-.16A7.67,7.67,0,0,0,44.89,72a.48.48,0,0,0,.09-.26.66.66,0,0,0-.06-.25c-.15-.29-.86-.24-1.26-.23a8.92,8.92,0,0,1-1.43-.08c1.72-.32,3-.59,3.24-.66a.6.6,0,0,0,.32-.23.83.83,0,0,0,.09-.3.61.61,0,0,0-.18-.34.39.39,0,0,0-.4-.08l-3.06.28,3.3-.81a.5.5,0,0,0,.39-.28.46.46,0,0,0,0-.26.56.56,0,0,0-.14-.3.44.44,0,0,0-.41-.1l-3.4.47,2.85-1.28c.07,0,.31-.13.32-.32a.7.7,0,0,0-.07-.22,1.07,1.07,0,0,0-.17-.25.46.46,0,0,0-.46,0c-1.75.49-2.63.73-2.88.83a9.74,9.74,0,0,1-1.59.4l-.08-.32a3,3,0,0,0,.87-1.7c-.11-.54-.26-.86-.48-.66A3.46,3.46,0,0,1,39,66.26a4.71,4.71,0,0,1-1.13,1.47,1.76,1.76,0,0,0-.5,1.29,4.14,4.14,0,0,0-1.12.14Z"/><path class="cls-28" d="M40,67.7a2.9,2.9,0,0,1-.71,3,2.2,2.2,0,0,0,1.38-2.09,2.51,2.51,0,0,1,.24-1"/><polygon class="cls-28" points="42.18 68.68 42.37 69.72 42.26 69.75 42.12 68.67 42.18 68.68"/><polygon class="cls-28" points="42.29 70 42.49 71.04 42.37 71.07 42.23 69.99 42.29 70"/><polygon class="cls-28" points="42.35 71.36 42.37 72.23 42.27 72.24 42.3 71.34 42.35 71.36"/><polygon class="cls-28" points="41.83 67.48 42.09 68.31 42 68.36 41.78 67.48 41.83 67.48"/><path class="cls-26" d="M10.67,62.33C8.81,63.68,9.19,65.82,8.4,75a8.55,8.55,0,0,0,.49,3.64,3,3,0,0,0,5.62.39,76.2,76.2,0,0,0-.16-15.72,2.4,2.4,0,0,0-1.22-1.59A2.84,2.84,0,0,0,10.67,62.33Z"/><path class="cls-26" d="M9.73,79.77c1.29,1.83,3,1.45,10.73,2.2a5.64,5.64,0,0,0,1.43,0c.66-.1,1.51-.07,1.56-.47a14.92,14.92,0,0,0-.17-5.54,53,53,0,0,0-13.1.19A1.83,1.83,0,0,0,9,77.34,3.39,3.39,0,0,0,9.73,79.77Z"/><path class="cls-12" d="M15.3,52.48l-.11,5.67A10.12,10.12,0,0,0,19,60.84c.69.43,1,.23,1.23-.3v-5Z"/><path class="cls-28" d="M20.19,58.39c-2.34-1.76-4.19-3.51-4.45-5.2l4.45,2.92Z"/><path class="cls-12" d="M24.27,43.24c3.84,1.12,2.86,12.51-2.49,12.84-2.93.31-5.25-.57-6.49-3.61L16.53,44C19.54,43.36,21.93,46.38,24.27,43.24Z"/><ellipse class="cls-30" cx="19.93" cy="48.81" rx="0.6" ry="0.82"/><ellipse class="cls-30" cx="24.09" cy="48.6" rx="0.6" ry="0.82"/><path class="cls-30" d="M24.48,48.29a1.28,1.28,0,0,0,.81-.41,1,1,0,0,1-.94.1Z"/><path class="cls-30" d="M19.45,48.75a1.33,1.33,0,0,1-.82-.41,1,1,0,0,0,.95.1Z"/><polygon class="cls-28" points="21.74 51.43 23.31 51.34 22.58 48.06 22.52 48.09 22.85 51 21.76 51.37 21.74 51.43"/><polygon class="cls-30" points="22.92 51.05 22.52 47.97 22.43 47.98 22.73 51.05 22.92 51.05"/><path class="cls-31" d="M23.73,47a.16.16,0,0,1-.13-.08.16.16,0,0,1,0-.21,1.49,1.49,0,0,1,1.46,0,.16.16,0,0,1-.14.28,1.14,1.14,0,0,0-1.16,0Z"/><polygon class="cls-44" points="23.9 40.34 28.01 42.27 29.16 45.99 26.11 44.06 27.12 45.88 23.48 46.41 17.6 44.9 17.55 47.25 16.57 49.71 16.2 48.42 15.64 51.36 12.7 47.08 13.82 44.73 12.65 44.25 13.71 44.23 12.51 42.16 14.07 43.44 14.36 41.34 17.24 38.57 16.9 40.2 22.25 37.84 27.51 40.7 23.9 40.34"/><path class="cls-12" d="M16.36,49.24c-.41-1.16-1.73-2-2.33-1.72s-.6,2.2.24,3.34c.06.09.85,1.15,1.51,1S16.72,50.25,16.36,49.24Z"/><path class="cls-28" d="M14.42,48c.62-.1,1.35,2.1,1.34,2.11h0c-.05,0-.45-.22-.6-.07a.44.44,0,0,0-.06.1.24.24,0,0,1,.06-.18c.14-.13.5.08.59.14-.12-.21-.72-1.81-1.26-1.89-.18,0-.39.15-.42.11S14.23,48,14.42,48Z"/><path class="cls-31" d="M19.2,47.07a.15.15,0,0,1-.14-.07.16.16,0,0,1,.06-.21,1.44,1.44,0,0,1,1.45,0,.14.14,0,0,1,.07.2.14.14,0,0,1-.2.07,1.16,1.16,0,0,0-1.17,0A.1.1,0,0,1,19.2,47.07Z"/><ellipse class="cls-17" cx="55.22" cy="79.07" rx="8.66" ry="2.81"/><path class="cls-45" d="M60,76c0-.18-.09-.37-.13-.55a3.3,3.3,0,0,0-3.42-2.28,17.65,17.65,0,0,1-2.3,0,3.3,3.3,0,0,0-3.42,2.28c0,.18-.09.37-.13.55A20.45,20.45,0,0,0,60,76Z"/><path class="cls-46" d="M55.34,73.24c-.38,0-.77,0-1.15,0a3.3,3.3,0,0,0-3.42,2.28c0,.18-.09.37-.13.55a20.13,20.13,0,0,0,4.7.55Z"/><path class="cls-47" d="M52.55,74.71a.28.28,0,1,1-.08.55.28.28,0,0,1-.27-.32A.29.29,0,0,1,52.55,74.71Z"/><path class="cls-47" d="M54.15,74a.3.3,0,0,1,.29.3.29.29,0,0,1-.32.26.28.28,0,1,1,0-.56Z"/><path class="cls-48" d="M58.12,74.71a.3.3,0,0,1,.36.23.32.32,0,0,1-.63.09A.31.31,0,0,1,58.12,74.71Z"/><path class="cls-48" d="M56.52,74a.29.29,0,0,1,.32.26.28.28,0,0,1-.28.3.29.29,0,0,1-.32-.26A.29.29,0,0,1,56.52,74Z"/><path class="cls-48" d="M55.34,74.92a.29.29,0,0,1,.31.28.29.29,0,0,1-.31.28A.3.3,0,0,1,55,75.2.31.31,0,0,1,55.34,74.92Z"/><path class="cls-47" d="M55.34,74.92a.31.31,0,0,0-.32.28.3.3,0,0,0,.32.28"/><path class="cls-49" d="M59.1,76.53a20.66,20.66,0,0,1-7.52,0,1,1,0,0,0-1.2.6c-.11.45.29.94.9,1.05a22.17,22.17,0,0,0,8.12,0c.61-.11,1-.6.9-1.05A1,1,0,0,0,59.1,76.53Z"/><path class="cls-50" d="M55.34,76.88a20.63,20.63,0,0,1-3.76-.35,1,1,0,0,0-1.2.6c-.11.45.29.94.9,1.05a22.15,22.15,0,0,0,4.06.38Z"/><path class="cls-45" d="M60.07,78.42c.1.35-.23.75-.73.86a18.61,18.61,0,0,1-8,0c-.5-.11-.83-.51-.73-.86h0a.82.82,0,0,1,1-.43,17.24,17.24,0,0,0,7.43,0,.83.83,0,0,1,1,.43Z"/><path class="cls-46" d="M55.34,78.4A17.31,17.31,0,0,1,51.62,78a.82.82,0,0,0-1,.43c-.1.35.22.75.73.86a18.64,18.64,0,0,0,4,.44Z"/><path class="cls-51" d="M51.88,76.87a21,21,0,0,0,3.46,0,21,21,0,0,0,3.46,0,21.24,21.24,0,0,1-3.46,2.25A20.81,20.81,0,0,1,51.88,76.87Z"/><path class="cls-52" d="M51.88,76.87a21,21,0,0,0,3.46,0v2.24A20.81,20.81,0,0,1,51.88,76.87Z"/><path class="cls-53" d="M60.74,76a.47.47,0,0,1-.4.54,20.88,20.88,0,0,1-10,0,.46.46,0,0,1-.4-.54h0a.49.49,0,0,1,.6-.28,20,20,0,0,0,9.6,0,.49.49,0,0,1,.6.28Z"/><path class="cls-54" d="M55.34,76.32a20,20,0,0,1-4.8-.59.49.49,0,0,0-.6.28.47.47,0,0,0,.4.54,21.12,21.12,0,0,0,5,.61Z"/><ellipse class="cls-17" cx="32.65" cy="80.35" rx="8.66" ry="2.81"/><path class="cls-45" d="M37.47,77.3c0-.18-.09-.36-.13-.54a3.28,3.28,0,0,0-3.42-2.28,17.65,17.65,0,0,1-2.3,0,3.28,3.28,0,0,0-3.42,2.28c0,.18-.09.36-.13.54A20.18,20.18,0,0,0,37.47,77.3Z"/><path class="cls-46" d="M32.77,74.51l-1.15,0a3.28,3.28,0,0,0-3.42,2.28c0,.18-.09.36-.13.54a20.19,20.19,0,0,0,4.7.55Z"/><path class="cls-47" d="M30,76a.31.31,0,0,1,.27.33.32.32,0,0,1-.63-.1A.32.32,0,0,1,30,76Z"/><path class="cls-47" d="M31.59,75.31a.3.3,0,0,1,.28.3.29.29,0,0,1-.32.26.28.28,0,0,1-.28-.3A.29.29,0,0,1,31.59,75.31Z"/><path class="cls-48" d="M35.56,76a.31.31,0,0,1,.35.23.3.3,0,0,1-.27.33.29.29,0,1,1-.08-.56Z"/><path class="cls-48" d="M34,75.31a.29.29,0,0,1,.31.26.28.28,0,0,1-.28.3.29.29,0,0,1-.32-.26A.31.31,0,0,1,34,75.31Z"/><path class="cls-48" d="M32.77,76.19a.32.32,0,0,1,.32.28.3.3,0,0,1-.32.28.29.29,0,0,1-.31-.28A.3.3,0,0,1,32.77,76.19Z"/><path class="cls-47" d="M32.77,76.19a.3.3,0,0,0-.31.28.28.28,0,0,0,.31.28"/><path class="cls-49" d="M36.53,77.81a20.66,20.66,0,0,1-7.52,0,1,1,0,0,0-1.2.6c-.11.45.29.94.9,1a22.17,22.17,0,0,0,8.12,0c.61-.11,1-.6.9-1A1,1,0,0,0,36.53,77.81Z"/><path class="cls-50" d="M32.77,78.15A20.7,20.7,0,0,1,29,77.81a1,1,0,0,0-1.2.6c-.11.45.29.94.9,1a22.14,22.14,0,0,0,4.06.37Z"/><path class="cls-45" d="M37.5,79.7c.1.35-.22.75-.73.86a18.61,18.61,0,0,1-8,0c-.5-.12-.83-.51-.73-.86h0a.83.83,0,0,1,1-.43,17.2,17.2,0,0,0,7.42,0,.83.83,0,0,1,1,.43Z"/><path class="cls-46" d="M32.77,79.67a17.2,17.2,0,0,1-3.71-.4.83.83,0,0,0-1,.43c-.1.35.23.75.73.86a18.63,18.63,0,0,0,4,.43Z"/><path class="cls-51" d="M29.31,78.14a20,20,0,0,0,3.46,0,20,20,0,0,0,3.46,0,19.62,19.62,0,0,1-3.46,2.25A20,20,0,0,1,29.31,78.14Z"/><path class="cls-52" d="M29.31,78.14a20,20,0,0,0,3.46,0v2.24A20,20,0,0,1,29.31,78.14Z"/><path class="cls-53" d="M38.17,77.29a.46.46,0,0,1-.4.53,20.63,20.63,0,0,1-10,0,.47.47,0,0,1-.4-.53h0A.47.47,0,0,1,28,77a20,20,0,0,0,9.6,0,.47.47,0,0,1,.6.28Z"/><path class="cls-54" d="M32.77,77.59A20,20,0,0,1,28,77a.47.47,0,0,0-.6.28.46.46,0,0,0,.4.53,20.61,20.61,0,0,0,5,.61Z"/><polygon class="cls-55" points="64.44 116.79 70.96 116.68 70.96 97.23 64.44 97.34 64.44 116.79"/><rect class="cls-55" x="30.94" y="97.28" width="4.83" height="20.3"/><path class="cls-56" d="M43.38,86c0,.38-.46.76-1,.76a.94.94,0,0,1-1-.76c0-.56.76-.51,1-.51S43.38,85.48,43.38,86Z"/><path class="cls-57" d="M43.16,87.05h-1.6a.26.26,0,0,0-.25.21l-.42,2.54a.25.25,0,0,0,.21.29h0a3.66,3.66,0,0,0,2.45,0,.26.26,0,0,0,.25-.26v0l-.43-2.54A.25.25,0,0,0,43.16,87.05Z"/><path class="cls-58" d="M42.53,87.31h-.86a.12.12,0,0,0-.12.1l-.38,2.28a.12.12,0,0,0,.1.15h0a2.42,2.42,0,0,0,1.3.24Zm.65.1a.12.12,0,0,0-.12-.1h-.31l.09,2.77a.94.94,0,0,0,.6-.24.12.12,0,0,0,.12-.12v0Z"/><ellipse class="cls-57" cx="41.98" cy="85.72" rx="0.15" ry="0.08"/><ellipse class="cls-57" cx="42.74" cy="85.72" rx="0.15" ry="0.08"/><ellipse class="cls-57" cx="42.36" cy="85.97" rx="0.15" ry="0.08"/><path class="cls-56" d="M43.25,87.05H41.48v-.31c0-.11.08-.16.19-.16h1.39c.1,0,.19,0,.19.16Z"/><path class="cls-57" d="M43.06,86.55H41.67a.2.2,0,0,0-.18.12h1.75A.2.2,0,0,0,43.06,86.55Zm-1.58.25h1.77v.13H41.48Zm0,.25h1.77v.07H41.48Z"/><path class="cls-56" d="M47,85.88a.94.94,0,0,1-1,.76c-.56,0-1-.38-1-.76,0-.56.76-.51,1-.51S47,85.32,47,85.88Z"/><path class="cls-57" d="M46.82,86.9h-1.6a.25.25,0,0,0-.25.21l-.43,2.53a.27.27,0,0,0,.21.3h0a3.66,3.66,0,0,0,2.45,0,.25.25,0,0,0,.25-.25v0l-.42-2.53A.26.26,0,0,0,46.82,86.9Z"/><path class="cls-59" d="M46.19,87.15h-.87a.12.12,0,0,0-.12.11l-.38,2.28a.12.12,0,0,0,.1.14h0a2.55,2.55,0,0,0,1.3.23Zm.64.11a.12.12,0,0,0-.12-.11H46.4l.09,2.77a1,1,0,0,0,.6-.23.13.13,0,0,0,.13-.13v0Z"/><ellipse class="cls-57" cx="45.99" cy="85.6" rx="0.15" ry="0.08"/><path class="cls-56" d="M46.9,86.9H45.13v-.32c0-.1.08-.16.19-.16h1.39c.11,0,.19.06.19.16Z"/><path class="cls-57" d="M46.71,86.39H45.32a.19.19,0,0,0-.18.13h1.75A.19.19,0,0,0,46.71,86.39Zm-1.58.25H46.9v.13H45.13Zm0,.26H46.9V87H45.13Z"/></g><circle class="cls-60" cx="55.34" cy="59.06" r="47.41"/><polygon class="cls-17" points="37.26 46.89 62.43 46.89 66.11 50.77 66.35 46.89 66.35 2.08 37.26 2.08 37.26 46.89"/><rect class="cls-61" x="39.56" y="13.17" width="23.99" height="22.14"/><path class="cls-17" d="M50.83,16.31l.33,1.12h0l-.08.09h0l-.83-.28v1.31l.83-.47h0a.38.38,0,0,0,.09.09l-.48,1.54h0a1,1,0,0,0,0,.25.81.81,0,0,0,.67.81h.22a.81.81,0,0,0,.67-.81,1,1,0,0,0,0-.25h0l-.48-1.54a.38.38,0,0,0,.09-.09h0l.83.47V17.24l-.83.28h0l-.08-.09h0L52,16.31h-1.2Zm-3,1.68a.65.65,0,0,0-.6.43.71.71,0,0,0,.35.91.64.64,0,0,0,.86-.38.71.71,0,0,0-.36-.91A.56.56,0,0,0,47.84,18ZM55,18a.58.58,0,0,0-.26.05.72.72,0,0,0-.36.91.64.64,0,0,0,.86.38.7.7,0,0,0,.36-.91A.67.67,0,0,0,55,18Zm-5.53.56a.65.65,0,0,0-.6.43.71.71,0,0,0,.35.91.64.64,0,0,0,.86-.38.71.71,0,0,0-.36-.91A.43.43,0,0,0,49.5,18.55Zm3.86,0a.45.45,0,0,0-.25.05.71.71,0,0,0-.36.91.64.64,0,0,0,.86.38A.72.72,0,0,0,54,19,.66.66,0,0,0,53.36,18.55Zm-7,.37a.66.66,0,0,0-.6.43.71.71,0,0,0,.35.91.64.64,0,0,0,.86-.38A.71.71,0,0,0,46.6,19,.45.45,0,0,0,46.35,18.92Zm10.17,0a.47.47,0,0,0-.26,0,.71.71,0,0,0-.36.91.64.64,0,0,0,.86.38.72.72,0,0,0,.36-.91A.67.67,0,0,0,56.52,18.92ZM45.91,20.68a.67.67,0,0,0-.6.44.71.71,0,0,0,.36.9.64.64,0,0,0,.86-.37.72.72,0,0,0-.36-.92A.58.58,0,0,0,45.91,20.68Zm11,0a.56.56,0,0,0-.25.05.72.72,0,0,0-.36.92.64.64,0,0,0,.86.37.7.7,0,0,0,.35-.9A.65.65,0,0,0,57,20.68Zm-8.66.19A1.46,1.46,0,0,0,48.5,23c-.44-.26-1.12,0-.72.88.21-.54.66-.42.75.05a.67.67,0,0,1-.53.79c-.33.07-.85-.18-1.26-1.12a1.28,1.28,0,0,1,.7.32L47,22.37a1.81,1.81,0,0,1-.39.86,1.83,1.83,0,0,1,0-1l-.89.34A9.38,9.38,0,0,1,47,25.9a31.38,31.38,0,0,1,8.8,0,9.17,9.17,0,0,1,1.32-3.35l-.9-.34a1.85,1.85,0,0,1,0,1,1.91,1.91,0,0,1-.4-.86l-.43,1.53a1.22,1.22,0,0,1,.7-.32c-.42.94-.93,1.19-1.27,1.12a.68.68,0,0,1-.53-.79c.1-.47.55-.59.75-.05.4-.87-.27-1.14-.71-.88a1.47,1.47,0,0,0,.21-2.11,1.53,1.53,0,0,0-.43,2.07c-.44-.53-1.13-.24-.88.62.32-.52.74-.19.67.31s-.59.78-1.26.72c-1-.09-1-.8-1-1.38.24-.05.66.18,1,.73l.14-1.63a1.47,1.47,0,0,1-1.15.53,4.71,4.71,0,0,1,.74-1.16H50.48a4.71,4.71,0,0,1,.74,1.16,1.45,1.45,0,0,1-1.15-.53l.13,1.63c.36-.55.79-.78,1-.73,0,.58-.09,1.29-1,1.38a1.08,1.08,0,0,1-1.26-.72c-.07-.5.36-.83.67-.31.25-.86-.44-1.15-.88-.62a1.53,1.53,0,0,0-.42-2.07Z"/><text class="cls-62" transform="translate(44.04 31.57) scale(0.94 1)">G<tspan class="cls-63" x="3.13" y="0">O</tspan><tspan class="cls-64" x="6.17" y="0">V</tspan><tspan class="cls-65" x="8.39" y="0">.UK</tspan></text><path class="cls-66" d="M42.26,37.39c-.46,0-.75.54-.82.54s-.33-.54-.81-.54a.91.91,0,0,0-.86.9A1.07,1.07,0,0,0,40,39a4.59,4.59,0,0,0,1.49,1.31A4.67,4.67,0,0,0,42.93,39a1.14,1.14,0,0,0,.19-.68.91.91,0,0,0-.86-.9"/><polygon class="cls-67" points="52.15 39.52 51.43 39.52 51.45 40.14 50.66 39.54 49.1 39.52 49.1 37.35 52.15 37.35 52.15 39.52"/><line class="cls-17" x1="62.07" y1="36.91" x2="62.02" y2="39.51"/><polygon class="cls-68" points="62.16 39.51 61.89 39.51 61.93 36.9 62.2 36.91 62.16 39.51"/><polygon class="cls-68" points="63.74 40.03 60.47 40.03 60.47 38.62 60.73 38.62 60.73 39.75 63.48 39.75 63.48 38.62 63.74 38.62 63.74 40.03"/><rect class="cls-67" x="39.38" y="41.89" width="16.13" height="1.72"/><rect class="cls-69" x="37.36" y="2.11" width="28.9" height="3.46"/><rect class="cls-17" x="38.74" y="4.14" width="0.38" height="0.54"/><rect class="cls-17" x="39.25" y="3.74" width="0.38" height="0.94"/><rect class="cls-17" x="39.76" y="3.22" width="0.38" height="1.46"/><rect class="cls-17" x="40.27" y="2.79" width="0.38" height="1.89"/><path class="cls-17" d="M43.65,3.84a.09.09,0,0,1-.07,0,.66.66,0,0,0-1,0,.1.1,0,0,1-.14,0,.12.12,0,0,1,0-.16.87.87,0,0,1,1.26,0,.12.12,0,0,1,0,.16A.09.09,0,0,1,43.65,3.84Z"/><path class="cls-17" d="M43.38,4.12a.09.09,0,0,1-.07,0,.31.31,0,0,0-.44,0,.1.1,0,0,1-.14,0,.11.11,0,0,1,0-.15.52.52,0,0,1,.36-.16.5.5,0,0,1,.36.16.11.11,0,0,1,0,.15A.09.09,0,0,1,43.38,4.12Z"/><ellipse class="cls-17" cx="43.09" cy="4.33" rx="0.13" ry="0.14"/><path class="cls-17" d="M43.92,3.54a.11.11,0,0,1-.07,0,1,1,0,0,0-1.52,0,.1.1,0,0,1-.14,0,.11.11,0,0,1,0-.15,1.25,1.25,0,0,1,.9-.4,1.29,1.29,0,0,1,.91.4.14.14,0,0,1,0,.15A.11.11,0,0,1,43.92,3.54Z"/><path class="cls-17" d="M65.13,3.33h-.2V3.07A.09.09,0,0,0,64.84,3h-2.2a.09.09,0,0,0-.09.09V4.34a.09.09,0,0,0,.09.1h2.2a.09.09,0,0,0,.09-.1V4.09h.2a.09.09,0,0,0,.09-.1V3.42A.09.09,0,0,0,65.13,3.33Zm-.38.92h-2V3.16h2ZM65,3.9h-.11V3.52H65Z"/><rect class="cls-17" x="62.81" y="3.27" width="1.61" height="0.86" rx="0.1"/><text class="cls-70" transform="translate(59.17 4.2) scale(0.94 1)">87%</text><polygon class="cls-17" points="56.4 38.99 58.42 36.89 57.8 39.96 57.29 39.05 56.4 38.99"/><path class="cls-68" d="M57.86,40.34l-.65-1.16-1.11-.07,2.55-2.64Zm-1.15-1.47.66,0,.38.67.45-2.26Z"/><ellipse class="cls-71" cx="45.82" cy="38.83" rx="1.38" ry="1.47"/><ellipse cx="45.29" cy="38.4" rx="0.11" ry="0.12"/><ellipse cx="46.33" cy="38.36" rx="0.11" ry="0.12"/><path class="cls-17" d="M44.93,39.06a5.3,5.3,0,0,0,1.82,0,1,1,0,0,1-.92.74C45.46,39.83,45.16,39.57,44.93,39.06Z"/><text class="cls-72" transform="translate(50.34 4.15) scale(0.94 1)">11:55</text><text class="cls-73" transform="translate(38.3 11.02)">SPONSORED<tspan class="cls-74" x="20.93" y="0"> </tspan><tspan class="cls-75" x="21.72" y="0">AD</tspan></text><path class="cls-12" d="M23.41,77.42l2.07-.19a4,4,0,0,1,1.73-1,9.64,9.64,0,0,1,3.58.88,2.85,2.85,0,0,1,.51,4,15.27,15.27,0,0,1-3.54.67A24.82,24.82,0,0,1,23.2,81Z"/></g></g></g></g></svg>