<svg xmlns="http://www.w3.org/2000/svg" xmlns:xlink="http://www.w3.org/1999/xlink" viewBox="0 0 152.3 155.58"><defs><style>.cls-1,.cls-41,.cls-45{fill:none;}.cls-2{fill:#31ab94;}.cls-3{fill:#a0a7cb;}.cls-4{fill:#bfc3db;}.cls-5{fill:#298f7c;}.cls-30,.cls-42,.cls-46,.cls-6{fill:#fff;}.cls-7{fill:#add9d1;}.cls-8{fill:#e34079;}.cls-9{fill:#f2b3c9;}.cls-10{fill:#b53360;}.cls-11{opacity:0.86;}.cls-12{clip-path:url(#clip-path);}.cls-13{fill:url(#linear-gradient);}.cls-14{fill:#f8c7a3;}.cls-15{fill:#ee786b;}.cls-16{fill:#24244a;}.cls-17{fill:#95abab;}.cls-18{fill:#b3b3b3;}.cls-19{fill:#363c5c;}.cls-20{fill:#535c82;}.cls-21{fill:#5d6791;}.cls-22{fill:#cbcad0;}.cls-23{fill:#1b1464;}.cls-24{fill:#b4aa94;}.cls-25{fill:#e3b696;}.cls-26{fill:#542578;}.cls-27{fill:#412a74;}.cls-28{fill:#2e3192;}.cls-29{fill:#ff9c50;}.cls-30{opacity:0.18;}.cls-31{fill:#e4e3ea;}.cls-32{fill:#7f91d4;}.cls-33{fill:#fbfbfb;}.cls-34{fill:#6473a8;}.cls-35{fill:#0071bc;}.cls-36{fill:#d66c60;}.cls-37{fill:#c9665a;}.cls-38{fill:#bf6156;}.cls-39{fill:#e6e6e6;}.cls-40{fill:#576391;}.cls-41{stroke:#1b1464;stroke-width:2px;opacity:0.22;}.cls-41,.cls-45{stroke-miterlimit:10;}.cls-42{font-size:6.82px;}.cls-42,.cls-46{font-family:Arial-BoldMT, Arial;font-weight:700;}.cls-43{letter-spacing:-0.04em;}.cls-44{clip-path:url(#clip-path-2);}.cls-45{stroke:#2e3192;stroke-linecap:round;stroke-width:0.25px;}.cls-46{font-size:5.74px;}</style><clipPath id="clip-path" transform="translate(35.31 -1.73)"><circle class="cls-1" cx="52.18" cy="68.33" r="51.18"/></clipPath><linearGradient id="linear-gradient" x1="76.15" y1="155.58" x2="76.15" y2="3.27" gradientUnits="userSpaceOnUse"><stop offset="0" stop-color="#c5dce0"/><stop offset="1" stop-color="#fff"/></linearGradient><clipPath id="clip-path-2" transform="translate(35.31 -1.73)"><polygon class="cls-1" points="21.18 21.56 10.64 21.42 5.31 12.22 11.36 0 22.96 1.22 26.39 12.49 21.18 21.56"/></clipPath><symbol id="hex-connector" data-name="hex-connector" viewBox="0 0 14.01 15.06"><rect class="cls-2" width="14.01" height="15.06"/></symbol><symbol id="hex-data" data-name="hex-data" viewBox="0 0 132.05 112.17"><polygon class="cls-3" points="101.86 106.56 91.86 112.14 30.27 5.92 40.13 0 101.18 0.79 132.05 54.07 101.86 106.56"/><polygon class="cls-4" points="91.92 112.17 30.87 111.39 0 58.11 30.18 5.62 91.24 6.4 122.11 59.68 91.92 112.17"/><path class="cls-5" d="M128,24.36c.7,23.59-36.76,23.59-36.76,0S128.65.78,128,24.36Z"/><path class="cls-2" d="M124.48,27.14c.7,23.58-36.76,23.58-36.76,0S124.48,2.86,124.48,27.14Z"/><rect class="cls-6" x="97" y="17.83" width="3.01" height="18.36"/><rect class="cls-6" x="98.74" y="33.13" width="17.1" height="3.06"/><rect class="cls-6" x="113.32" y="28.55" width="2.52" height="6.84"/><rect class="cls-6" x="108.39" y="17.83" width="7.15" height="1.9"/><polygon class="cls-6" points="113.99 25.25 113.99 17.83 115.84 17.83 115.84 25.25 113.99 25.25"/><polygon class="cls-6" points="105.58 26.55 113.05 18.91 114.36 20.25 106.89 27.89 105.58 26.55"/><polygon class="cls-6" points="105.58 20.34 105.58 17.83 98.74 17.83 98.74 20.34 105.58 20.34"/></symbol><symbol id="hex-red-deny" data-name="hex-red-deny" viewBox="0 0 132.05 112.17"><polygon class="cls-8" points="101.86 106.56 91.86 112.14 30.27 5.92 40.13 0 101.18 0.79 132.05 54.07 101.86 106.56"/><polygon class="cls-9" points="91.92 112.17 30.87 111.39 0 58.11 30.18 5.62 91.24 6.4 122.11 59.68 91.92 112.17"/><path class="cls-10" d="M124.71,25.3c.69,23.58-36.77,23.58-36.77,0S125.4,1.71,124.71,25.3Z"/><path class="cls-8" d="M121.24,28.07c.69,23.59-36.77,23.59-36.77,0S121.24,3.79,121.24,28.07Z"/><rect class="cls-6" x="92.44" y="25.3" width="22.3" height="5.16"/></symbol><symbol id="hex-plain" data-name="hex-plain" viewBox="0 0 132.05 112.17"><polygon class="cls-2" points="101.86 106.56 91.86 112.14 30.27 5.92 40.13 0 101.18 0.79 132.05 54.07 101.86 106.56"/><polygon class="cls-7" points="91.92 112.17 30.87 111.39 0 58.11 30.18 5.62 91.24 6.4 122.11 59.68 91.92 112.17"/></symbol></defs><g id="Layer_2" data-name="Layer 2"><g id="MainLayer"><g id="stories" class="cls-11"><g id="workgroup"><g id="work6"><g class="cls-12"><g id="care6"><circle class="cls-13" cx="76.15" cy="79.42" r="76.15"/><path class="cls-14" d="M40.54,74.82l-.74-4.16,3.3-.38,2.56-1.16,1.67,2.07,3,2.48c.43.36-.18.91-.64,1a1.23,1.23,0,0,1-1.08.87.93.93,0,0,1-1.06.67c0,.33-.2.52-.65.42L42.37,75,42,74.49Z" transform="translate(35.31 -1.73)"/><path class="cls-15" d="M52.31,68.35,53,72.29l-1.81.29a3,3,0,0,1-.87,1.08l-4.52-3.72Z" transform="translate(35.31 -1.73)"/><path class="cls-15" d="M49.06,69.27l-2.55-.22a5.92,5.92,0,0,0-2.1,1.2l-.89,1.83a1,1,0,0,0,1,.45,2.31,2.31,0,0,0,1.19-1.36,4.85,4.85,0,0,0,2.48-.35" transform="translate(35.31 -1.73)"/><ellipse class="cls-15" cx="44.14" cy="75.51" rx="0.92" ry="0.64" transform="translate(-7.77 80.3) rotate(-63.96)"/><ellipse class="cls-15" cx="45.18" cy="75.99" rx="0.76" ry="0.53" transform="translate(-7.62 81.5) rotate(-63.96)"/><ellipse class="cls-15" cx="45.99" cy="76.39" rx="0.61" ry="0.42" transform="translate(-7.52 82.45) rotate(-63.96)"/><ellipse class="cls-15" cx="43.16" cy="74.95" rx="0.76" ry="0.53" transform="translate(-7.81 79.1) rotate(-63.96)"/><path class="cls-6" d="M41.44,75.41H39.37V70.14h2.07A8.1,8.1,0,0,1,41.44,75.41Z" transform="translate(35.31 -1.73)"/><rect class="cls-16" x="42.47" y="76.9" width="23.12" height="10.07"/><rect class="cls-17" x="52.18" y="115.94" width="1.84" height="14.52" transform="translate(-7.49 27.66) rotate(-22.31)"/><polygon class="cls-17" points="64.48 115.73 64.56 76.24 57.82 76.24 57.82 74.4 66.4 74.4 66.32 113.87 85.78 113.64 85.8 115.48 64.48 115.73"/><path class="cls-17" d="M51.15,131.08l-1.84,0,.43-34.11a3.29,3.29,0,0,0-1-2.39,3.34,3.34,0,0,0-2.38-1l-16.08-.06V91.64l16.08.06A5.21,5.21,0,0,1,51.58,97Z" transform="translate(35.31 -1.73)"/><rect class="cls-18" x="11.72" y="115.5" width="34.18" height="0.61" transform="translate(34.02 -1.39) rotate(-0.64)"/><rect class="cls-18" x="11.72" y="115.5" width="34.18" height="0.61" transform="translate(34.02 -1.39) rotate(-0.64)"/><rect class="cls-18" x="28.51" y="96.38" width="0.61" height="38.35" transform="translate(33.34 -1.21) rotate(-0.98)"/><rect class="cls-18" x="10.42" y="114.92" width="37.43" height="0.61" transform="translate(-37.29 52.06) rotate(-44.68)"/><rect class="cls-18" x="9.64" y="115.24" width="38.35" height="0.61" transform="translate(-53.8 97.27) rotate(-68.01)"/><rect class="cls-18" x="28.76" y="97.02" width="0.61" height="37.6" transform="translate(-35.71 48.97) rotate(-42.86)"/><rect class="cls-18" x="28.51" y="96.38" width="0.61" height="38.35" transform="translate(-4.99 16.85) rotate(-21.48)"/><rect class="cls-18" x="29.08" y="98.65" width="0.61" height="34.31" transform="translate(-53.74 98.39) rotate(-68.22)"/><rect class="cls-18" x="11.84" y="115.3" width="34.36" height="0.61" transform="translate(-9.3 20.15) rotate(-24.06)"/><path class="cls-19" d="M29,136.58c-10,0-18.17-9.41-18.17-21s8.15-21,18.17-21,18.16,9.41,18.16,21S39,136.58,29,136.58ZM29,97.1c-8.67,0-15.71,8.3-15.71,18.51s7,18.52,15.71,18.52,15.71-8.31,15.71-18.52S37.63,97.1,29,97.1Z" transform="translate(35.31 -1.73)"/><path class="cls-19" d="M29,136.58c-10,0-18.17-9.41-18.17-21s8.15-21,18.17-21,18.16,9.41,18.16,21S39,136.58,29,136.58ZM29,97.1c-8.67,0-15.71,8.3-15.71,18.51s7,18.52,15.71,18.52,15.71-8.31,15.71-18.52S37.63,97.1,29,97.1Z" transform="translate(35.31 -1.73)"/><path class="cls-18" d="M28.73,133.84c-8.78,0-15.93-8.28-15.93-18.47S20,96.91,28.73,96.91s15.93,8.28,15.93,18.46S37.51,133.84,28.73,133.84Zm0-35.7c-8.11,0-14.7,7.73-14.7,17.23s6.59,17.24,14.7,17.24,14.7-7.73,14.7-17.24S36.84,98.14,28.73,98.14Z" transform="translate(35.31 -1.73)"/><rect x="66.13" y="89.06" width="19.42" height="1.7"/><rect x="55.14" y="74.3" width="6.08" height="2.06"/><ellipse class="cls-16" cx="85.34" cy="129.65" rx="2.99" ry="3.48"/><path class="cls-19" d="M50,136.54a5.19,5.19,0,0,1,0-10.33,5.19,5.19,0,0,1,0,10.33Zm0-7c-.71,0-1.3.82-1.3,1.79s.59,1.79,1.3,1.79,1.3-.82,1.3-1.79S50.73,129.58,50,129.58Z" transform="translate(35.31 -1.73)"/><polygon class="cls-20" points="59.96 93.53 57.89 103.03 83.35 103.16 83.6 95.48 59.96 93.53"/><path class="cls-21" d="M11.38,95.84c-1.34,6,.14,8.76,3.88,9l18.91-.24,4.26-5.85Z" transform="translate(35.31 -1.73)"/><path class="cls-21" d="M26.08,69.88c-1.61,1.78-.78,3.58.29,12a6.47,6.47,0,0,0,.37,1.53A7.74,7.74,0,0,0,27.61,85c1.08,1.46,4.35,3.86,5.63,3,.34-.24.59-.74.24-4a62.19,62.19,0,0,0-1.33-7.26,27.15,27.15,0,0,0-2.75-7.38,1.67,1.67,0,0,0-1-.78C27.41,68.31,26.29,69.65,26.08,69.88Z" transform="translate(35.31 -1.73)"/><path class="cls-22" d="M27.86,69c1.31,1.06,1.19,17.29,1,27.14-5,2.74-11,2.47-17.71.09-.73-8.91-1.14-18.12.1-27C17.82,66,22.54,66,27.86,69Z" transform="translate(35.31 -1.73)"/><path class="cls-17" d="M29.11,88.22l-.3,0a67.37,67.37,0,0,0-.46-15.69l.3-.06A67.61,67.61,0,0,1,29.11,88.22Z" transform="translate(35.31 -1.73)"/><path class="cls-23" d="M19.56,70a3.77,3.77,0,0,0,.69,2l.23,20.39,1.32,1.6,1.6-2.13-1.69-20a4,4,0,0,0,.36-2.26l-2.33.18Z" transform="translate(35.31 -1.73)"/><path class="cls-21" d="M11.24,69.15a89.93,89.93,0,0,0-.1,27.05,21.94,21.94,0,0,0,9.61,2.09,68.65,68.65,0,0,0,.39-12.44,67.25,67.25,0,0,0-1.5-10.69l-2.4-8.22Z" transform="translate(35.31 -1.73)"/><path class="cls-21" d="M23.47,98c-.32-2.33-.64-5.32-.83-8.81-.22-4.08-.17-7.16-.13-9.33.11-6.28.17-9.41.57-10.41a2.91,2.91,0,0,0,.16-1.57,1.84,1.84,0,0,0-.46-.83,24.06,24.06,0,0,1,5.54,1.53c2.36,5.4,1.46,16.58.93,27.47C27.19,97.11,25.11,98,23.47,98Z" transform="translate(35.31 -1.73)"/><rect class="cls-16" x="41.6" y="103.16" width="44.94" height="3.76"/><path class="cls-21" d="M32.34,104.26l-2,20c2.84,1.46,6,.93,9,1l1.14-22.06c.11-2.27-.61-3.67-2.08-4.26Z" transform="translate(35.31 -1.73)"/><path class="cls-20" d="M44,104.2l1.53,20.54c2.22.76,5.26.15,8.78-.38L52.63,100.9a4.13,4.13,0,0,0-4.35-3.69Z" transform="translate(35.31 -1.73)"/><path class="cls-24" d="M30.37,129.54l.34-4.54h6l4.35,1.06c2.75-.1,3.86.84,3.58,2.65l-4,.63Z" transform="translate(35.31 -1.73)"/><path class="cls-24" d="M46.09,129.21l.34-4.54h6l4.35,1.06c2.75-.1,3.86.84,3.58,2.65l-4,.63Z" transform="translate(35.31 -1.73)"/><rect x="82.19" y="127.61" width="11.32" height="1.7"/><rect class="cls-17" x="29.26" y="116.23" width="1.84" height="14.71" transform="translate(-10.9 20.13) rotate(-23.18)"/><rect x="62.32" y="127.65" width="11.53" height="1.7"/><polygon class="cls-17" points="41.39 115.73 41.47 76.24 34.74 76.24 34.74 74.4 43.32 74.4 43.24 113.87 62.69 113.64 62.72 115.48 41.39 115.73"/><path class="cls-17" d="M28.07,131.08l-1.84,0,.43-34.11a3.36,3.36,0,0,0-3.34-3.4L7.24,93.48V91.64l16.08.06A5.21,5.21,0,0,1,28.5,97Z" transform="translate(35.31 -1.73)"/><rect class="cls-18" x="-11.36" y="115.5" width="34.18" height="0.61" transform="translate(34.01 -1.65) rotate(-0.64)"/><rect class="cls-18" x="-11.36" y="115.5" width="34.18" height="0.61" transform="translate(34.01 -1.65) rotate(-0.64)"/><rect class="cls-18" x="5.42" y="96.38" width="0.61" height="38.35" transform="translate(33.33 -1.61) rotate(-0.98)"/><rect class="cls-18" x="-12.67" y="114.92" width="37.43" height="0.61" transform="translate(-43.96 35.83) rotate(-44.68)"/><rect class="cls-18" x="-13.45" y="115.24" width="38.35" height="0.61" transform="translate(-68.24 75.86) rotate(-68.01)"/><rect class="cls-18" x="5.68" y="97.02" width="0.61" height="37.6" transform="translate(-41.87 33.27) rotate(-42.86)"/><rect class="cls-18" x="5.42" y="96.38" width="0.61" height="38.35" transform="translate(-6.59 8.39) rotate(-21.47)"/><rect class="cls-18" x="5.99" y="98.65" width="0.61" height="34.31" transform="translate(-68.26 76.96) rotate(-68.22)"/><rect class="cls-18" x="-11.25" y="115.3" width="34.36" height="0.61" transform="translate(-11.31 10.74) rotate(-24.06)"/><path class="cls-19" d="M5.88,136.58c-10,0-18.16-9.41-18.16-21s8.15-21,18.16-21,18.17,9.41,18.17,21S15.9,136.58,5.88,136.58Zm0-39.48c-8.66,0-15.71,8.3-15.71,18.51s7.05,18.52,15.71,18.52,15.71-8.31,15.71-18.52S14.55,97.1,5.88,97.1Z" transform="translate(35.31 -1.73)"/><path class="cls-19" d="M5.88,136.58c-10,0-18.16-9.41-18.16-21s8.15-21,18.16-21,18.17,9.41,18.17,21S15.9,136.58,5.88,136.58Zm0-39.48c-8.66,0-15.71,8.3-15.71,18.51s7.05,18.52,15.71,18.52,15.71-8.31,15.71-18.52S14.55,97.1,5.88,97.1Z" transform="translate(35.31 -1.73)"/><path class="cls-18" d="M5.65,133.84c-8.79,0-15.93-8.28-15.93-18.47S-3.14,96.91,5.65,96.91s15.93,8.28,15.93,18.46S14.43,133.84,5.65,133.84Zm0-35.7c-8.11,0-14.71,7.73-14.71,17.23s6.6,17.24,14.71,17.24,14.7-7.73,14.7-17.24S13.75,98.14,5.65,98.14Z" transform="translate(35.31 -1.73)"/><rect x="43.05" y="89.06" width="19.42" height="1.7"/><rect x="32.06" y="74.3" width="6.08" height="2.06"/><ellipse class="cls-16" cx="62.26" cy="129.65" rx="2.99" ry="3.48"/><path class="cls-19" d="M26.94,136.54a5.19,5.19,0,0,1,0-10.33,5.19,5.19,0,0,1,0,10.33Zm0-7c-.7,0-1.3.82-1.3,1.79s.6,1.79,1.3,1.79,1.3-.82,1.3-1.79S27.65,129.58,26.94,129.58Z" transform="translate(35.31 -1.73)"/><path class="cls-14" d="M17.9,62.21l-.11,5.63c.68.79.1.42,2.33,1.49a2.43,2.43,0,0,0,2.57-.66l.07-3.42Z" transform="translate(35.31 -1.73)"/><path class="cls-25" d="M22.76,68.08c-2.32-1.76-4.16-3.49-4.42-5.17l4.42,2.9Z" transform="translate(35.31 -1.73)"/><polygon class="cls-26" points="63.01 54.86 61.77 55.16 61.83 55.48 63.07 55.15 63.01 54.86"/><path class="cls-14" d="M26.43,52.34c.05.32.11.75.18,1.27,1.05,7.38,1.16,8.86.27,10.22a4.62,4.62,0,0,1-2,1.68c-2.08.88-4.8,0-7.07-2.13l-.58-8.48a29.1,29.1,0,0,1,4.9-1.77A28.06,28.06,0,0,1,26.43,52.34Z" transform="translate(35.31 -1.73)"/><ellipse class="cls-27" cx="21.53" cy="58.65" rx="0.59" ry="0.82" transform="translate(23.37 4.17) rotate(-12.24)"/><ellipse class="cls-27" cx="25.78" cy="57.76" rx="0.59" ry="0.82" transform="translate(23.66 5.05) rotate(-12.24)"/><polygon class="cls-25" points="59.16 59.28 60.67 58.87 59.27 55.83 59.21 55.87 60.15 58.63 59.17 59.22 59.16 59.28"/><polygon class="cls-27" points="60.22 58.67 59.19 55.76 59.1 55.79 60.04 58.7 60.22 58.67"/><path class="cls-28" d="M24.81,56.27a.21.21,0,0,1-.12-.05.17.17,0,0,1,0-.22,1.48,1.48,0,0,1,1.41-.35.16.16,0,0,1,.11.19A.15.15,0,0,1,26,56a1.17,1.17,0,0,0-1.12.28A.21.21,0,0,1,24.81,56.27Z" transform="translate(35.31 -1.73)"/><path class="cls-28" d="M20.42,57.32a.16.16,0,0,1-.11,0,.16.16,0,0,1,0-.22,1.45,1.45,0,0,1,1.4-.35.16.16,0,0,1,.12.19.16.16,0,0,1-.19.11,1.13,1.13,0,0,0-1.12.27A.16.16,0,0,1,20.42,57.32Z" transform="translate(35.31 -1.73)"/><path class="cls-29" d="M18.59,61.35l-.43-2.73a16.78,16.78,0,0,0,.7-2c.21-.79-.07-1.24,0-1.87a3.41,3.41,0,0,0,2.67-1.22,5,5,0,0,0,2.37,0,10.9,10.9,0,0,0,1.57-.6c.32-.14.58-.28.77-.38.11.25.24.29.28.29.31.07.62-.48.68-.59a1.38,1.38,0,0,0,.18-.62,2.83,2.83,0,0,0-.72-2.43,2.57,2.57,0,0,0-3.29.68,2.95,2.95,0,0,0-4.44,1.44,3.06,3.06,0,0,0-2.26.17A3.27,3.27,0,0,0,15.13,55c-.49,0-.87.2-.94.77-.34,1.4.53,3.05,1.39,4.7Z" transform="translate(35.31 -1.73)"/><path class="cls-14" d="M18.27,60c-.64-1-2.1-1.61-2.62-1.18s-.12,2.26.94,3.19c.07.07,1.07.94,1.67.61S18.84,60.89,18.27,60Z" transform="translate(35.31 -1.73)"/><path class="cls-25" d="M16.12,59.15c.59-.22,1.76,1.76,1.75,1.77h0c-.05,0-.48-.12-.6,0s0,.11,0,.11a.24.24,0,0,1,0-.19c.11-.15.5,0,.59,0-.16-.17-1.08-1.6-1.61-1.57-.19,0-.36.23-.39.19S16,59.22,16.12,59.15Z" transform="translate(35.31 -1.73)"/><path class="cls-30" d="M19.69,59.74a4.9,4.9,0,0,0,3.71-.81L23,57.23a8.43,8.43,0,0,0-3.71.81Z" transform="translate(35.31 -1.73)"/><path class="cls-26" d="M19.66,59.83h-.07L19.19,58l.08,0A8.88,8.88,0,0,1,23,57.13h.09l.4,1.84-.06,0a5.64,5.64,0,0,1-1.88.8A4.64,4.64,0,0,1,19.66,59.83Zm3.28-2.5a8.47,8.47,0,0,0-3.49.75l.34,1.58a4.79,4.79,0,0,0,3.49-.76Z" transform="translate(35.31 -1.73)"/><path class="cls-30" d="M24.69,58.69A4.12,4.12,0,0,0,28,58l-.35-1.61a5.39,5.39,0,0,0-3.27.71Z" transform="translate(35.31 -1.73)"/><path class="cls-26" d="M24.66,58.78H24.6L24.22,57l.07,0a5.55,5.55,0,0,1,3.34-.72h.07L28.08,58l-.06,0a4.78,4.78,0,0,1-1.65.73A4,4,0,0,1,24.66,58.78Zm2.87-2.33a5.4,5.4,0,0,0-3.08.67l.32,1.49a4,4,0,0,0,3.08-.67Z" transform="translate(35.31 -1.73)"/><polygon class="cls-26" points="54.64 56.57 52.27 57.15 52.74 57.4 54.71 56.93 54.64 56.57"/><path class="cls-26" d="M24.42,57.41a1.24,1.24,0,0,0-1.27.27l.05.23a1.16,1.16,0,0,1,1.27-.27Z" transform="translate(35.31 -1.73)"/><path class="cls-31" d="M17.76,66.15c.76,1.79,1.77,3,3.22,3.28l-1.13,2.34a8.67,8.67,0,0,1-2.55-4.65Z" transform="translate(35.31 -1.73)"/><path class="cls-31" d="M21,69.48l1.26,2,.81-2.93L22.78,67A2.39,2.39,0,0,1,21,69.48Z" transform="translate(35.31 -1.73)"/><path class="cls-21" d="M31.36,83.83,48.73,86c1.29,1.83,1.17,3.58-1.16,5.2-7.1-.73-18.09.76-17.52-4.34Z" transform="translate(35.31 -1.73)"/><path class="cls-21" d="M10.82,69.54c2.13-1.45,12.42,4.5,13.34,5,5.82-.72,11.32-2,16-4.73a16.42,16.42,0,0,1,.56,6.67c-3.18,2.63-10.14,3.61-17,4.63C17.44,77.37,13.2,75,11.61,74.37a3.13,3.13,0,0,1-1.38-1,2.6,2.6,0,0,1,.59-3.83Z" transform="translate(35.31 -1.73)"/><path class="cls-32" d="M66.81,70.3c-1.2,2.22-3.21,2-11.7,3.88a5.86,5.86,0,0,1-1.6.16c-.75,0-.66.29-.78-.16-.54-2.07-1.8-4.3-1.56-6.37a59.74,59.74,0,0,1,14.65-1.52,2.07,2.07,0,0,1,1.52,1.19A3.75,3.75,0,0,1,66.81,70.3Z" transform="translate(35.31 -1.73)"/><path class="cls-33" d="M69.15,51l.17,26.63c5.27,2.7,11.61,2.44,18.71.08L87.92,51C81,47.82,74.76,48.06,69.15,51Z" transform="translate(35.31 -1.73)"/><path class="cls-32" d="M77.18,78.18l2.2,29.17,1.09,23.06c3.28.93,6.34,1.09,9-.26l-.8-23.47L88,77.37Z" transform="translate(35.31 -1.73)"/><path class="cls-32" d="M69.79,77.43l-2.47,30.51,1.43,22.21c3.07,1.25,4.27,1.53,8.59.31l-1.66-22.39L79.3,79.15Z" transform="translate(35.31 -1.73)"/><path class="cls-34" d="M69.25,75l.06,4.28c5.86,2,12.27,1.61,19-.38l-.06-4.47A35.93,35.93,0,0,1,69.25,75Z" transform="translate(35.31 -1.73)"/><path class="cls-32" d="M81.34,48.89c-.46,3.89-.85,8.1-1.13,12.6-.23,3.58-.39,6.24-.36,9.71a93.9,93.9,0,0,0,1,12.65,9.45,9.45,0,0,0,8.5-2.27L87.58,50.47Z" transform="translate(35.31 -1.73)"/><path class="cls-32" d="M74,49.06c.2,3.43.34,7,.38,10.71.06,4.14,0,8.11-.16,11.89L74.1,83.22l-5-1.26L69,50.6A13,13,0,0,1,74,49.06Z" transform="translate(35.31 -1.73)"/><path class="cls-35" d="M81.84,84.15a11.56,11.56,0,0,1-1.19-.06l-.12,0-.8-8.82.3,0,.78,8.58A13.57,13.57,0,0,0,88,82.28l.14.28A14.69,14.69,0,0,1,81.84,84.15Z" transform="translate(35.31 -1.73)"/><path class="cls-35" d="M74.14,83.66l-.19,0-4.88-1.51.1-.29,4.67,1.45c.4-13.36.8-27.11,0-34.07l.31,0c.76,7,.35,20.88,0,34.29Z" transform="translate(35.31 -1.73)"/><path class="cls-35" d="M80.15,68.23h-.31C80,63.31,80.27,56,81,49.62l.31,0C80.57,56.05,80.29,63.32,80.15,68.23Z" transform="translate(35.31 -1.73)"/><polygon class="cls-35" points="116.93 60.06 116.63 59.98 116.78 59.44 119.43 59.47 119.43 59.89 119.13 59.9 119.13 59.77 117.01 59.75 116.93 60.06"/><path class="cls-32" d="M72.23,52.18c1.4,2.17.12,4.26-2.8,14.16a9.41,9.41,0,0,1-2,3.62,3.39,3.39,0,0,1-6-1.89A85,85,0,0,1,68,51.65a2.71,2.71,0,0,1,1.93-1.16C71.14,50.48,72,51.79,72.23,52.18Z" transform="translate(35.31 -1.73)"/><path class="cls-32" d="M87.66,50.77c2.39,1,2.52,3.44,5.76,13.25a9.41,9.41,0,0,1,.4,4.11,3.39,3.39,0,0,1-6,1.89,85.23,85.23,0,0,1-3.91-17.26,2.7,2.7,0,0,1,.93-2.06C85.79,50,87.23,50.6,87.66,50.77Z" transform="translate(35.31 -1.73)"/><path class="cls-27" d="M68.06,33.34c-1.16.25-1.65,2.25-1.75,2.69-.64,2.6,1.16,3.61.85,7-.14,1.45-.51,1.69-.51,3.31,0,2,.56,2.2.32,3.4-.41,2-2.09,2.36-1.89,3.75a2.56,2.56,0,0,0,1.26,1.67c1.38.89,3.43.6,4-.35.36-.56,0-1.11.6-1.76.34-.4.58-.33,1-.66.82-.6.82-1.41,1.51-3.06a19.73,19.73,0,0,1,1-1.95C76.17,43.88,71,32.69,68.06,33.34Z" transform="translate(35.31 -1.73)"/><path class="cls-27" d="M72.25,29.41a6.49,6.49,0,0,1,4-.74,7,7,0,0,1,4.83,3.7,24.91,24.91,0,0,1,2.6,3.69A8,8,0,0,1,85,39.13a6.86,6.86,0,0,1-.38,3c-.52,1.41-1.18,1.67-1,2.4s1,.75,1.9,1.81S86,48,87,49.56s1.47,1.43,2.19,2.79c.3.57,1.56,3,.38,4.63s-3.71,1.09-4.08,1-2.66-.49-3.58-2.35c-.52-1.08-.08-1.66-.5-3.31A8.08,8.08,0,0,0,80,49.49a9.13,9.13,0,0,1-3.52-.12c-4.22-1-6.31-4.82-6.91-5.93-2.47-4.51-2.85-11.29.24-13.39A4.13,4.13,0,0,1,72.25,29.41Z" transform="translate(35.31 -1.73)"/><path class="cls-15" d="M80,43.21l.13,6.39a4.94,4.94,0,0,1-.85.88,5.36,5.36,0,0,1-2.92,1.14c-.35.38-.64.1-1.1,0-.31-.08-.74-.84-.83-1,0-1.68,0-2.2.05-3.88Z" transform="translate(35.31 -1.73)"/><path class="cls-15" d="M78.68,40.4c.47-1.3,1.95-2.28,2.63-1.93S82,40.94,81,42.23c-.06.09-1,1.29-1.7,1.07S78.28,41.54,78.68,40.4Z" transform="translate(35.31 -1.73)"/><path class="cls-36" d="M74.49,49.89c2.63-2,4.67-4,5-5.88l-5,3.28A12.51,12.51,0,0,0,74.49,49.89Z" transform="translate(35.31 -1.73)"/><path class="cls-15" d="M69.85,32.81c-4.31,1.26-3.21,14.08,2.81,14.46,3.29.34,5.91-.65,7.3-4.07-.2-2-.75-2.63-1.25-2.85-.2-.09-.41-.11-.88-.32a6.53,6.53,0,0,1-1.35-.82c-1.39-1-1.59-.65-2.24-1.29s-.41-1.2-1.19-2-1.33-.57-2.11-1.29A3.89,3.89,0,0,1,69.85,32.81Z" transform="translate(35.31 -1.73)"/><path class="cls-37" d="M80.87,39c-.71-.11-1.53,2.36-1.51,2.38h0s.5-.25.67-.09a.31.31,0,0,1,.07.12.26.26,0,0,0-.07-.2c-.16-.15-.56.08-.66.15.14-.23.81-2,1.41-2.12.21,0,.45.16.47.11S81.07,39,80.87,39Z" transform="translate(35.31 -1.73)"/><ellipse class="cls-27" cx="110.06" cy="37.35" rx="0.67" ry="0.92"/><ellipse class="cls-27" cx="105.38" cy="37.12" rx="0.67" ry="0.92"/><path class="cls-27" d="M69.62,38.49a1.42,1.42,0,0,1-.91-.45,1.08,1.08,0,0,0,1.06.11Z" transform="translate(35.31 -1.73)"/><path class="cls-27" d="M75.29,39a1.44,1.44,0,0,0,.91-.46,1.08,1.08,0,0,1-1.06.11Z" transform="translate(35.31 -1.73)"/><polygon class="cls-38" points="108.02 40.31 106.25 40.21 107.07 36.51 107.14 36.54 106.77 39.83 108 40.24 108.02 40.31"/><polygon class="cls-27" points="106.7 39.88 107.14 36.41 107.25 36.42 106.91 39.88 106.7 39.88"/><path class="cls-28" d="M69.26,37.14a.15.15,0,0,1-.11,0,.17.17,0,0,1,0-.22,1.19,1.19,0,0,1,1.1-.37.15.15,0,0,1,.12.18.15.15,0,0,1-.18.12.85.85,0,0,0-.81.28A.13.13,0,0,1,69.26,37.14Z" transform="translate(35.31 -1.73)"/><path class="cls-39" d="M74.22,49.46l.13-1.91c.62,2.38,1.17,3.18,3.84,3.76l-1.75,1.82C74,51.36,74.19,51,74.22,49.46Z" transform="translate(35.31 -1.73)"/><path class="cls-39" d="M78.07,51.3,80,53c.65-1.8,1.73-2.37,1.3-3.88l-1.19-1.69C80.26,48.57,78.77,50.54,78.07,51.3Z" transform="translate(35.31 -1.73)"/><circle class="cls-39" cx="112.78" cy="51.65" r="0.37"/><circle class="cls-39" cx="112.88" cy="56.71" r="0.37"/><circle class="cls-39" cx="112.93" cy="62.87" r="0.37"/><polygon class="cls-39" points="111.43 49.95 111.87 73.62 111.96 50.07 112.21 49.79 111.43 49.95"/><circle class="cls-39" cx="112.73" cy="71.19" r="0.37"/><rect class="cls-35" x="68.89" y="58.66" width="0.31" height="23.23" transform="translate(34.54 -0.96) rotate(-0.63)"/><path class="cls-40" d="M79.71,93.07H98.32a1,1,0,0,1,1,1v12.5a1,1,0,0,1-1,1H80a1.8,1.8,0,0,1-1.8-1.8V94.62a1.56,1.56,0,0,1,1.56-1.56Z" transform="translate(17.44 17.53) rotate(-11.26)"/><path class="cls-34" d="M82.85,92.5h17.48a1.91,1.91,0,0,1,1.91,1.91v10.52a2.05,2.05,0,0,1-2.05,2.05H83A1.95,1.95,0,0,1,81.07,105V94.28a1.78,1.78,0,0,1,1.78-1.78Z" transform="translate(17.61 18.09) rotate(-11.26)"/><path class="cls-34" d="M85.53,94.21a2.8,2.8,0,0,1-.22-1.95c.61-2.23,4.62-3.82,7.12-2.5a4.33,4.33,0,0,1,2,2.46l-1.58.37a2.2,2.2,0,0,0-.6-1.6c-1.39-1.29-5.16-.21-5.53,1.36a1.77,1.77,0,0,0,.41,1.4Z" transform="translate(35.31 -1.73)"/><path class="cls-15" d="M89.34,82.91l-.15,3.46-1.68.73-.92,4.66c1.27,1,3.39.74,5.78.07a6.35,6.35,0,0,0,.07-4.41,5.19,5.19,0,0,0-.43-.85l.7-3.94Z" transform="translate(35.31 -1.73)"/><polygon class="cls-32" points="122.49 66.02 122.09 84.47 129.27 83.6 129.11 66.26 122.49 66.02"/></g></g><circle class="cls-41" cx="87.49" cy="66.61" r="51.18"/><use width="14.01" height="15.06" transform="translate(63.03 23.22) rotate(56.8) scale(0.17)" xlink:href="#hex-connector"/><use width="132.05" height="112.18" transform="translate(41.27 21.88) scale(0.17)" xlink:href="#hex-data"/><use width="132.05" height="112.18" transform="translate(60.34 9.76) scale(0.17)" xlink:href="#hex-red-deny"/><text class="cls-42" transform="translate(64.06 22.23)">ES<tspan class="cls-43" x="9.1" y="0">A</tspan></text><use width="132.05" height="112.18" transform="translate(40.67 0.61) scale(0.17)" xlink:href="#hex-plain"/><use width="14.01" height="15.06" transform="translate(59.83 15.52) rotate(-58.23) scale(0.17)" xlink:href="#hex-connector"/><g class="cls-44"><path class="cls-31" d="M21.48,15.67c1,.77.47,6,.32,13.13-3.63,2-5.94,1.37-10.84-.36C10.43,22,7.64,22.17,8.53,15.67,13.33,13.35,17.61,13.53,21.48,15.67Z" transform="translate(35.31 -1.73)"/><path class="cls-31" d="M20.08,16.48c-1.1,1.27-.47,2.74.51,9.38a6.12,6.12,0,0,0,.95,2.52,2.21,2.21,0,0,0,4.07-.66,55.16,55.16,0,0,0-2.75-11.18,1.7,1.7,0,0,0-1.13-.93C20.94,15.49,20.28,16.25,20.08,16.48Z" transform="translate(35.31 -1.73)"/><path class="cls-14" d="M13.39,10.61l-.08,4.1A7.29,7.29,0,0,0,16,16.66c.5.31.75.16.89-.22V12.82Z" transform="translate(35.31 -1.73)"/><path class="cls-25" d="M16.93,14.88c-1.69-1.28-3-2.54-3.22-3.76l3.22,2.11Z" transform="translate(35.31 -1.73)"/><polygon class="cls-26" points="56.66 5.98 55.73 6.04 55.74 6.27 56.67 6.2 56.66 5.98"/><path class="cls-14" d="M21,4.5c0,.23,0,.55,0,.93-.2,5.43-.31,6.51-1.12,7.37a3.41,3.41,0,0,1-1.66.94c-1.6.36-3.44-.61-4.79-2.44l.67-6.15a20.36,20.36,0,0,1,3.74-.64A20.13,20.13,0,0,1,21,4.5Z" transform="translate(35.31 -1.73)"/><ellipse class="cls-27" cx="16.66" cy="8.39" rx="0.43" ry="0.59" transform="translate(35.02 -1.12) rotate(-2.07)"/><ellipse class="cls-27" cx="19.82" cy="8.3" rx="0.43" ry="0.59" transform="translate(35.03 -1.01) rotate(-2.07)"/><polygon class="cls-25" points="53.33 8.65 54.47 8.55 53.85 6.2 53.81 6.21 54.13 8.32 53.34 8.61 53.33 8.65"/><polygon class="cls-27" points="54.17 8.35 53.8 6.13 53.74 6.14 54.03 8.36 54.17 8.35"/><path class="cls-45" d="M20.28,6.94a.93.93,0,0,0-.94.06" transform="translate(35.31 -1.73)"/><path class="cls-45" d="M17,7.12a1,1,0,0,0-.94.06" transform="translate(35.31 -1.73)"/><path class="cls-29" d="M14.2,10l.05-2A11.82,11.82,0,0,0,15,6.58c.25-.54.11-.9.24-1.34a2.52,2.52,0,0,0,2.07-.53A3.47,3.47,0,0,0,19,5a8.18,8.18,0,0,0,1.2-.22c.25-.06.46-.13.6-.17a.35.35,0,0,0,.16.24c.22.09.51-.27.57-.33a1.29,1.29,0,0,0,.21-.42,2.07,2.07,0,0,0-.21-1.85,1.86,1.86,0,0,0-2.44.07,2.23,2.23,0,0,0-1.78-.6A2.19,2.19,0,0,0,15.74,2.8a2.23,2.23,0,0,0-1.64-.17,2.4,2.4,0,0,0-1.56,2.28c-.35,0-.64,0-.76.43-.43,1,0,2.26.39,3.56Z" transform="translate(35.31 -1.73)"/><path class="cls-14" d="M14.15,8.93c-.32-.82-1.3-1.42-1.73-1.18s-.37,1.61.26,2.41c.05.06.65.81,1.12.65S14.44,9.66,14.15,8.93Z" transform="translate(35.31 -1.73)"/><path class="cls-25" d="M12.72,8.06c.44-.09,1,1.48,1,1.49h0s-.33-.14-.43,0a.25.25,0,0,0,0,.08.13.13,0,0,1,0-.13c.1-.1.36,0,.43.08-.1-.14-.57-1.28-1-1.33-.14,0-.29.12-.3.09S12.58,8.08,12.72,8.06Z" transform="translate(35.31 -1.73)"/><path class="cls-30" d="M15.2,8.94A3.64,3.64,0,0,0,18,8.84l0-1.27a6.15,6.15,0,0,0-2.76.1Z" transform="translate(35.31 -1.73)"/><path class="cls-26" d="M15.17,9l-.05,0,0-1.36.06,0a6.38,6.38,0,0,1,2.81-.1H18l.05,1.37L18,8.9a4.18,4.18,0,0,1-1.45.34A3.65,3.65,0,0,1,15.17,9Zm2.67-1.38a6.19,6.19,0,0,0-2.6.1l0,1.17a3.55,3.55,0,0,0,2.6-.09Z" transform="translate(35.31 -1.73)"/><path class="cls-30" d="M18.92,8.83a3,3,0,0,0,2.44-.09l0-1.2a4,4,0,0,0-2.45.09Z" transform="translate(35.31 -1.73)"/><path class="cls-26" d="M18.89,8.89l-.05,0,0-1.29h.05a4,4,0,0,1,2.49-.09h.05l.05,1.29-.05,0a3.42,3.42,0,0,1-1.28.31A2.87,2.87,0,0,1,18.89,8.89Zm2.35-1.3A3.89,3.89,0,0,0,19,7.67l0,1.11a2.91,2.91,0,0,0,2.29-.08Z" transform="translate(35.31 -1.73)"/><polygon class="cls-26" points="50.44 6.13 48.66 6.24 48.97 6.48 50.45 6.4 50.44 6.13"/><path class="cls-26" d="M18.89,7.88a.92.92,0,0,0-.95,0v.17a.88.88,0,0,1,.95,0Z" transform="translate(35.31 -1.73)"/><path class="cls-31" d="M7.88,16.38c-1.09,1.51-.31,3.07,1.17,10.37a6.93,6.93,0,0,0,1.2,2.71,2.35,2.35,0,0,0,4.29-1.09,62.9,62.9,0,0,0-3.69-12.18,1.85,1.85,0,0,0-1.27-.93C8.73,15.2,8.08,16.1,7.88,16.38Z" transform="translate(35.31 -1.73)"/></g><text class="cls-46" transform="translate(43.62 34.48)">HMRC</text></g></g></g></g></g></svg>