<svg xmlns="http://www.w3.org/2000/svg" xmlns:xlink="http://www.w3.org/1999/xlink" viewBox="0 0 134.23 153.7"><defs><style>.cls-1,.cls-21,.cls-30,.cls-35{fill:none;}.cls-2{opacity:0.86;}.cls-3{clip-path:url(#clip-path);}.cls-4{fill:url(#linear-gradient);}.cls-5{fill:#24244a;}.cls-6{fill:#95abab;}.cls-7{fill:#b3b3b3;}.cls-8{fill:#363c5c;}.cls-9{fill:#535c82;}.cls-10{fill:#5d6791;}.cls-11{fill:#e4e3ea;}.cls-12{fill:#e8e0d8;}.cls-13{fill:#f8c7a3;}.cls-14{fill:#949494;}.cls-15{fill:#e3b696;}.cls-16{fill:#542578;}.cls-17{fill:#412a74;}.cls-18{fill:#2e3192;}.cls-19{fill:#ff9c50;}.cls-20,.cls-24,.cls-42{fill:#fff;}.cls-20{opacity:0.18;}.cls-21{stroke:#1b1464;stroke-width:2px;opacity:0.22;}.cls-21,.cls-30,.cls-35,.cls-42{stroke-miterlimit:10;}.cls-22{fill:#e6e6e6;}.cls-23{fill:#8277ab;}.cls-25{fill:url(#linear-gradient-2);}.cls-26{fill:#716794;}.cls-27{fill:#ed1c24;}.cls-28{fill:#fcee21;}.cls-29{fill:#8cc63f;}.cls-30,.cls-42{stroke:#efeeee;}.cls-31{fill:#e6d8d8;}.cls-32{fill:#d84da0;}.cls-33{fill:#fda48b;}.cls-34{fill:#d68a76;}.cls-35{stroke:#2e3192;stroke-linecap:round;}.cls-36{fill:#f5f5f5;}.cls-37{fill:#e6b897;}.cls-38{fill:#8a4482;}.cls-39{fill:#6e3667;}.cls-40{fill:#6b5a91;}.cls-41{fill:#31ab94;}.cls-43{fill:#afd9d1;}.cls-44{fill:#abb2b9;}.cls-45{fill:#596066;}.cls-46{fill:#3e4347;}.cls-47{fill:#ffcd31;}.cls-48{fill:#816a1a;}.cls-49{fill:#c6a026;}</style><clipPath id="clip-path" transform="translate(15.21)"><circle class="cls-1" cx="42.98" cy="61.95" r="41.07"/></clipPath><linearGradient id="linear-gradient" x1="58.2" y1="106.95" x2="58.2" y2="16.95" gradientUnits="userSpaceOnUse"><stop offset="0" stop-color="#cfbdb0"/><stop offset="1" stop-color="#fff"/></linearGradient><linearGradient id="linear-gradient-2" x1="95.29" y1="7.83" x2="95.29" y2="40.52" gradientTransform="translate(10.02 19.59) rotate(-11.26)" gradientUnits="userSpaceOnUse"><stop offset="0" stop-color="#fff"/><stop offset="1" stop-color="#afd9d1"/></linearGradient></defs><g id="Layer_2" data-name="Layer 2"><g id="MainLayer"><g id="stories" class="cls-2"><g id="workgroup"><g id="work5"><g class="cls-3"><circle class="cls-4" cx="58.2" cy="61.95" r="45"/><rect class="cls-5" x="28.42" y="68.96" width="33.81" height="14.72"/><rect class="cls-6" x="79.05" y="123.52" width="2.69" height="21.23" transform="translate(-29.7 40.57) rotate(-22.32)"/><polygon class="cls-6" points="60.6 125.73 91.78 125.36 91.75 122.67 63.3 123.01 63.42 65.3 50.87 65.3 50.87 67.99 60.72 67.99 60.6 125.73"/><path class="cls-6" d="M77.54,145.65l.63-49.88a7.58,7.58,0,0,0-7.56-7.69L47.1,88v2.69l23.51.09a4.92,4.92,0,0,1,4.89,5l-.64,49.88Z" transform="translate(15.21)"/><rect class="cls-7" x="19.89" y="122.87" width="49.98" height="0.9" transform="translate(13.82 0.51) rotate(-0.65)"/><rect class="cls-7" x="19.89" y="122.87" width="49.98" height="0.9" transform="translate(13.82 0.51) rotate(-0.65)"/><rect class="cls-7" x="44.43" y="94.91" width="0.9" height="56.08" transform="translate(13.12 0.78) rotate(-0.98)"/><rect class="cls-7" x="17.98" y="122.02" width="54.74" height="0.9" transform="translate(-57.81 67.29) rotate(-44.69)"/><rect class="cls-7" x="16.84" y="122.5" width="56.08" height="0.9" transform="translate(-70.72 118.5) rotate(-68)"/><rect class="cls-7" x="44.8" y="95.85" width="0.9" height="54.98" transform="translate(-56.61 63.72) rotate(-42.86)"/><rect class="cls-7" x="44.43" y="94.91" width="0.9" height="56.08" transform="translate(-26.69 24.97) rotate(-21.48)"/><rect class="cls-7" x="45.26" y="98.23" width="0.9" height="50.18" transform="translate(-70.55 120.01) rotate(-68.22)"/><rect class="cls-7" x="20.05" y="122.59" width="50.25" height="0.9" transform="translate(-31.03 29.12) rotate(-24.07)"/><path class="cls-8" d="M18.54,123c0-16.91,11.92-30.66,26.56-30.66S71.67,106.13,71.67,123,59.75,153.7,45.1,153.7,18.54,139.94,18.54,123Zm3.59,0c0,14.92,10.31,27.07,23,27.07s23-12.15,23-27.07S57.77,96,45.1,96,22.13,108.11,22.13,123Z" transform="translate(15.21)"/><path class="cls-8" d="M18.54,123c0-16.91,11.92-30.66,26.56-30.66S71.67,106.13,71.67,123,59.75,153.7,45.1,153.7,18.54,139.94,18.54,123Zm3.59,0c0,14.92,10.31,27.07,23,27.07s23-12.15,23-27.07S57.77,96,45.1,96,22.13,108.11,22.13,123Z" transform="translate(15.21)"/><path class="cls-7" d="M21.46,122.69c0-14.89,10.45-27,23.3-27s23.29,12.11,23.29,27-10.45,27-23.29,27S21.46,137.58,21.46,122.69Zm1.8,0c0,13.9,9.64,25.21,21.5,25.21s21.5-11.31,21.5-25.21-9.65-25.21-21.5-25.21S23.26,108.79,23.26,122.69Z" transform="translate(15.21)"/><rect x="63.02" y="86.73" width="28.39" height="2.48"/><rect x="46.95" y="65.15" width="8.89" height="3.01"/><ellipse class="cls-5" cx="91.11" cy="146.08" rx="4.37" ry="5.09"/><path class="cls-8" d="M69.07,146.08c0-4.16,3.06-7.55,6.83-7.55s6.83,3.39,6.83,7.55-3.06,7.56-6.83,7.56S69.07,150.25,69.07,146.08Zm4.93,0c0,1.42.87,2.62,1.9,2.62s1.9-1.2,1.9-2.62-.87-2.62-1.9-2.62S74,144.66,74,146.08Z" transform="translate(15.21)"/><polygon class="cls-9" points="53.99 93.27 50.96 107.17 88.2 107.35 88.56 96.12 53.99 93.27"/><path class="cls-10" d="M19.39,94.13c-2,8.71.2,12.81,5.67,13.22L52.71,107,59,98.44Z" transform="translate(15.21)"/><path class="cls-11" d="M43.31,54.33c1.92,1.55,1.92,25.78,1.62,40.19-7.29,4-16.07,3.61-25.9.13-1.06-13-1.66-26.49.14-39.55C28.81,50.46,35.54,50.05,43.31,54.33Z" transform="translate(15.21)"/><path class="cls-6" d="M45.32,83c.65-8.26.38-17.53-.68-23.07L44.2,60c1,5.51,1.32,14.73.67,22.95Z" transform="translate(15.21)"/><path class="cls-11" d="M15.2,58.43c-2.33,2.28-1.42,5.2-.86,18.18-.33,5.92,6.05,11,9.14,4.38-.31-8.06-.79-18.14-3.26-26.37C18.76,54.26,15.61,58,15.2,58.43Z" transform="translate(15.21)"/><rect class="cls-5" x="27.15" y="107.35" width="65.72" height="5.49"/><path class="cls-10" d="M50,106.44l-2.85,29.2c4.15,2.13,8.66-.46,13.09-.42l1.78-30.45c.17-3.32-.88-5.37-3-6.24Z" transform="translate(15.21)"/><path class="cls-9" d="M67,106.35l1.77,29.54c3.24,1.11,7.69.23,12.82-.56l-1.9-33.8c-.85-4.1-3.32-5.26-6.35-5.41Z" transform="translate(15.21)"/><path class="cls-12" d="M47.16,143.4l.49-6.64h8.82l6.37,1.55c4-.14,5.63,1.23,5.22,3.88l-5.8.92Z" transform="translate(15.21)"/><path class="cls-12" d="M70.14,142.92l.49-6.64h8.82l6.37,1.55c4-.14,5.64,1.23,5.23,3.88l-5.8.92Z" transform="translate(15.21)"/><rect x="86.5" y="143.11" width="16.56" height="2.48"/><rect class="cls-6" x="45.53" y="123.95" width="2.69" height="21.51" transform="translate(-34.03 29.33) rotate(-23.19)"/><rect x="57.45" y="143.16" width="16.86" height="2.48"/><polygon class="cls-6" points="26.85 125.73 58.03 125.36 57.99 122.67 29.54 123.01 29.66 65.3 17.12 65.3 17.12 67.99 26.96 67.99 26.85 125.73"/><path class="cls-6" d="M43.79,145.65l.63-49.88a7.6,7.6,0,0,0-7.57-7.69L13.34,88v2.69l23.51.09a4.92,4.92,0,0,1,4.89,5l-.63,49.88Z" transform="translate(15.21)"/><rect class="cls-7" x="-13.87" y="122.87" width="49.98" height="0.9" transform="translate(13.82 0.13) rotate(-0.65)"/><rect class="cls-7" x="-13.87" y="122.87" width="49.98" height="0.9" transform="translate(13.82 0.13) rotate(-0.65)"/><rect class="cls-7" x="10.67" y="94.91" width="0.9" height="56.08" transform="translate(13.11 0.21) rotate(-0.98)"/><rect class="cls-7" x="-15.78" y="122.02" width="54.74" height="0.9" transform="translate(-67.56 43.55) rotate(-44.69)"/><rect class="cls-7" x="-16.92" y="122.5" width="56.08" height="0.9" transform="translate(-91.83 87.21) rotate(-68)"/><rect class="cls-7" x="11.05" y="95.85" width="0.9" height="54.98" transform="translate(-65.62 40.75) rotate(-42.86)"/><rect class="cls-7" x="10.67" y="94.91" width="0.9" height="56.08" transform="translate(-29.03 12.61) rotate(-21.48)"/><rect class="cls-7" x="11.51" y="98.23" width="0.9" height="50.18" transform="translate(-91.78 88.66) rotate(-68.22)"/><rect class="cls-7" x="-13.7" y="122.59" width="50.25" height="0.9" transform="translate(-33.97 15.35) rotate(-24.07)"/><path class="cls-8" d="M-15.21,123c0-16.91,11.91-30.66,26.56-30.66S37.91,106.13,37.91,123,26,153.7,11.35,153.7-15.21,139.94-15.21,123Zm3.58,0c0,14.92,10.31,27.07,23,27.07s23-12.15,23-27.07S24,96,11.35,96-11.63,108.11-11.63,123Z" transform="translate(15.21)"/><path class="cls-8" d="M-15.21,123c0-16.91,11.91-30.66,26.56-30.66S37.91,106.13,37.91,123,26,153.7,11.35,153.7-15.21,139.94-15.21,123Zm3.58,0c0,14.92,10.31,27.07,23,27.07s23-12.15,23-27.07S24,96,11.35,96-11.63,108.11-11.63,123Z" transform="translate(15.21)"/><path class="cls-7" d="M-12.29,122.69c0-14.89,10.45-27,23.29-27s23.3,12.11,23.3,27-10.45,27-23.3,27S-12.29,137.58-12.29,122.69Zm1.79,0c0,13.9,9.65,25.21,21.5,25.21s21.5-11.31,21.5-25.21S22.86,97.48,11,97.48-10.5,108.79-10.5,122.69Z" transform="translate(15.21)"/><rect x="29.26" y="86.73" width="28.39" height="2.48"/><rect x="13.2" y="65.15" width="8.89" height="3.01"/><ellipse class="cls-5" cx="57.36" cy="146.08" rx="4.37" ry="5.09"/><path class="cls-8" d="M35.31,146.08c0-4.16,3.07-7.55,6.83-7.55S49,141.92,49,146.08s-3.07,7.56-6.84,7.56S35.31,150.25,35.31,146.08Zm4.94,0c0,1.42.86,2.62,1.89,2.62s1.9-1.2,1.9-2.62-.87-2.62-1.9-2.62S40.25,144.66,40.25,146.08Z" transform="translate(15.21)"/><path class="cls-13" d="M49.28,53.11l-4.73-7.9-5.77-6.92,4-5.28a6.51,6.51,0,0,1,2.53.76c1.49.18,4.4,4,5.59,6.87a6.94,6.94,0,0,1,0,4.61l3.55,4.09A11.24,11.24,0,0,1,49.28,53.11Z" transform="translate(15.21)"/><path class="cls-14" d="M40.81,32.15l9.28,8.67a1.71,1.71,0,0,1,.09,2.41l-4,4.37a1.72,1.72,0,0,1-2.42.11l-9.36-8.53a1.72,1.72,0,0,1-.12-2.42l4.1-4.51A1.72,1.72,0,0,1,40.81,32.15Z" transform="translate(15.21)"/><path class="cls-13" d="M46.11,35.94l-.88,2.15a17.17,17.17,0,0,0,.43,3.06,2.31,2.31,0,0,0,.45.91,1.52,1.52,0,0,0,.92.62.74.74,0,0,0,.57-.06c.06,0,.28-.19.35-.86a3.76,3.76,0,0,0-.2-1.59l.61-2.26" transform="translate(15.21)"/><path class="cls-13" d="M44.13,34.88,43.51,37a7.88,7.88,0,0,0,.37,3.36c.09.25.18.48.28.7a1.05,1.05,0,0,0,.72.56.64.64,0,0,0,.45-.12c.2-.16.19-.47.17-.73s-.06-1-.16-1.67l.42-2.26" transform="translate(15.21)"/><path class="cls-13" d="M44.09,34.58l-.42,2.26a6.61,6.61,0,0,1,.17,1.64.89.89,0,0,1-.24.73.63.63,0,0,1-.45.12.92.92,0,0,1-.63-.39,1.54,1.54,0,0,1-.29-.7c-.09-.58-.24-1.84-.38-3.5a3.41,3.41,0,0,1,.86-1.87" transform="translate(15.21)"/><path class="cls-11" d="M39.25,63.16l15,11.28,4.65-8c-6-5.63-11.85-11-15.86-12.25Z" transform="translate(15.21)"/><path class="cls-11" d="M49.64,65l-4.1-16.72L53,46.22c.73,2.29,1.39,4.23,1.91,5.72,1.11,3.2,2.84,7.92,4.41,13.72.81,3,1,4.29.47,5.64a5.06,5.06,0,0,1-5.2,3.14C52,74,50,71.29,50.25,68.08" transform="translate(15.21)"/><path class="cls-13" d="M39,84c.75-.14,1,.73,2.28,1s1.47-.39,2.95-.56A6.82,6.82,0,0,1,49,86c.71.59,1.62,1.34,1.48,2.09-.26,1.34-3.7,1.91-6.1,1.73a16.16,16.16,0,0,1-4.49-1.3c-1.67-.62-2.07-.94-2.28-1.41A2.52,2.52,0,0,1,39,84Z" transform="translate(15.21)"/><path class="cls-11" d="M22.26,80.16C30,80.82,38.1,81.39,41.05,83l-2.58,5.11C30.06,88,23,86.33,17.12,83.15Z" transform="translate(15.21)"/><path class="cls-13" d="M28.92,45l-1.14,7.76a21.08,21.08,0,0,0,6.45,4.38,1.52,1.52,0,0,0,2.22-.91L36,49.39Z" transform="translate(15.21)"/><path class="cls-15" d="M36.28,53.54C32.89,51,29.94,48.43,29.57,46L36,50.22Z" transform="translate(15.21)"/><polygon class="cls-16" points="58.6 35.99 56.9 36.78 57.08 37.21 58.77 36.39 58.6 35.99"/><path class="cls-13" d="M40.36,30.26c.16.44.37,1,.62,1.77,3.6,10.28,4.19,12.38,3.3,14.58a6.86,6.86,0,0,1-2.4,3C39.15,51.44,35,51,31.13,48.55l-3.25-12a42.48,42.48,0,0,1,12.48-6.3Z" transform="translate(15.21)"/><ellipse class="cls-17" cx="35.13" cy="40.7" rx="0.87" ry="1.19" transform="translate(1.9 17.38) rotate(-23.5)"/><ellipse class="cls-17" cx="40.97" cy="38.22" rx="0.87" ry="1.19" transform="translate(3.37 19.51) rotate(-23.5)"/><polygon class="cls-15" points="54.34 43.43 56.38 42.4 53.51 38.45 53.44 38.52 55.57 42.21 54.33 43.33 54.34 43.43"/><polygon class="cls-17" points="55.69 42.24 53.37 38.37 53.25 38.43 55.43 42.35 55.69 42.24"/><path class="cls-18" d="M39.15,36.36a.19.19,0,0,0,.14-.09,1.69,1.69,0,0,1,1.53-.72.22.22,0,0,0,.24-.21.23.23,0,0,0-.22-.23,2.12,2.12,0,0,0-1.91.89.24.24,0,0,0,0,.32A.21.21,0,0,0,39.15,36.36Z" transform="translate(15.21)"/><path class="cls-18" d="M33.17,39.11A.2.2,0,0,0,33.3,39a1.69,1.69,0,0,1,1.54-.71.23.23,0,0,0,.23-.22.22.22,0,0,0-.22-.23,2.13,2.13,0,0,0-1.91.9.22.22,0,0,0,.05.31A.23.23,0,0,0,33.17,39.11Z" transform="translate(15.21)"/><path class="cls-19" d="M31.69,45.42l-1.4-3.79a21.17,21.17,0,0,0,.42-3.1c.08-1.19-.45-1.76-.52-2.69a5,5,0,0,0,3.47-2.5,7.14,7.14,0,0,0,3.4-.65,15,15,0,0,0,2.08-1.31c.43-.3.77-.57,1-.76.22.32.42.34.48.34.46,0,.76-.88.81-1a2.55,2.55,0,0,0,.09-.94c-.05-.42-.27-2.58-1.74-3.29s-3.41,0-4.52,1.92a4.46,4.46,0,0,0-3.77.18,4.56,4.56,0,0,0-2.2,3.15,4.49,4.49,0,0,0-3.18.88,4.83,4.83,0,0,0-1.23,5.41c-.68.19-1.18.53-1.12,1.36-.09,2.11,1.63,4.23,3.34,6.35Z" transform="translate(15.21)"/><path class="cls-13" d="M30.85,43.56c-1.22-1.31-3.48-1.7-4.11-.94s.48,3.27,2.26,4.31c.13.07,1.81,1,2.57.39S31.91,44.7,30.85,43.56Z" transform="translate(15.21)"/><path class="cls-15" d="M27.52,43c.77-.49,3,2,3,2h0c-.07,0-.72,0-.84.24a.88.88,0,0,0,0,.18.33.33,0,0,1,0-.28c.11-.26.71-.19.86-.16-.28-.2-2-2-2.77-1.79-.26.07-.44.43-.49.39S27.29,43.12,27.52,43Z" transform="translate(15.21)"/><path class="cls-20" d="M32.81,42.79a7.23,7.23,0,0,0,5.09-2.21l-1-2.34a12.49,12.49,0,0,0-5.09,2.22Z" transform="translate(15.21)"/><path class="cls-16" d="M32.79,42.94h-.1l-1.1-2.51.11-.08a12.73,12.73,0,0,1,5.17-2.25l.13,0,1.09,2.52-.08.07a8.21,8.21,0,0,1-2.46,1.69A7,7,0,0,1,32.79,42.94Zm4-4.53A12.31,12.31,0,0,0,32,40.49l.94,2.16a7,7,0,0,0,4.78-2.09Z" transform="translate(15.21)"/><path class="cls-20" d="M39.67,39.86a6,6,0,0,0,4.5-2l-1-2.21a7.92,7.92,0,0,0-4.5,1.95Z" transform="translate(15.21)"/><path class="cls-16" d="M39.65,40h-.09l-1-2.37.09-.07a8,8,0,0,1,4.58-2h.11l1,2.38-.07.06a6.92,6.92,0,0,1-2.16,1.53A6,6,0,0,1,39.65,40Zm3.46-4.16a7.9,7.9,0,0,0-4.23,1.84l.89,2A5.79,5.79,0,0,0,44,37.89Z" transform="translate(15.21)"/><polygon class="cls-16" points="47.08 40.83 43.84 42.33 44.59 42.56 47.29 41.33 47.08 40.83"/><path class="cls-16" d="M38.92,38.11a1.8,1.8,0,0,0-1.74.74l.13.31a1.7,1.7,0,0,1,1.75-.74Z" transform="translate(15.21)"/></g><circle class="cls-21" cx="58.2" cy="61.95" r="41.98"/><path class="cls-22" d="M78.05,11.05,105.44.24a3.5,3.5,0,0,1,4.69,2.5l8.76,39.75a5.3,5.3,0,0,1-4.53,6.4L83.21,52.67a4.34,4.34,0,0,1-4.84-3.83L74.8,16.43A5.17,5.17,0,0,1,78.05,11.05Z" transform="translate(15.21)"/><path class="cls-23" d="M109,4.85h1.59L109.86,2c-.82-1.83-2.2-1.93-3.6-2L104.43.5Z" transform="translate(15.21)"/><path class="cls-24" d="M76.47,11.5,103.87.7a3.48,3.48,0,0,1,4.68,2.49l8.77,39.75a5.3,5.3,0,0,1-4.54,6.4L81.64,53.13a4.35,4.35,0,0,1-4.84-3.84L73.23,16.88A5.16,5.16,0,0,1,76.47,11.5Z" transform="translate(15.21)"/><polygon class="cls-25" points="124.17 4.85 131.18 36.79 91.46 44.06 88.56 18.2 124.17 4.85"/><path class="cls-26" d="M73.34,18.2,109,4.85l-.39-1.68A3.51,3.51,0,0,0,103.88.69L76.13,11.63a4.73,4.73,0,0,0-3,4.88Z" transform="translate(15.21)"/><ellipse class="cls-27" cx="75.8" cy="14.53" rx="1.52" ry="1.11" transform="translate(58.7 84.62) rotate(-76.1)"/><ellipse class="cls-28" cx="79.38" cy="13.13" rx="1.52" ry="1.11" transform="translate(62.78 87.04) rotate(-76.1)"/><ellipse class="cls-29" cx="83.15" cy="11.88" rx="1.52" ry="1.11" transform="translate(66.85 89.74) rotate(-76.1)"/><path class="cls-30" d="M76.14,44.11c.4,2.88.34,6.21,1.89,7.63a7.36,7.36,0,0,0,1.85,1.19,6.94,6.94,0,0,0,3.24.29l30.93-4.13,1.37-.6" transform="translate(15.21)"/><path class="cls-31" d="M89,25.69c2,1.55,1.49,3.88,2,13.93a9.17,9.17,0,0,1-.68,4,3.31,3.31,0,0,1-6.17.23,83.06,83.06,0,0,1,.77-17.24,2.65,2.65,0,0,1,1.4-1.69C87.41,24.49,88.6,25.41,89,25.69Z" transform="translate(15.21)"/><path class="cls-31" d="M85.79,25.39l3.77,21.43c5.61,1.92,11.62.42,17.9-3.47l-3.72-21.53C96.42,19.76,90.54,21.2,85.79,25.39Z" transform="translate(15.21)"/><path class="cls-31" d="M105.41,22.53c2.07,1.44,1.69,3.8,2.74,13.81a9.13,9.13,0,0,1-.47,4,3.31,3.31,0,0,1-6.15.55,83.06,83.06,0,0,1-.14-17.25,2.65,2.65,0,0,1,1.31-1.77C103.79,21.41,105,22.27,105.41,22.53Z" transform="translate(15.21)"/><path class="cls-32" d="M91.89,25.73c.18.92.37,1.83,1,2.13l2.94,19.33,2.45,2.11,1-3.21-5-18.57c.43-.26.42-1.33.35-2.51a2.32,2.32,0,0,0-2.7.6" transform="translate(15.21)"/><path class="cls-33" d="M96.69,15.64l1.36,6.07c-.73,1,.12-.1-2.57,1.64-.68.74-4.26,1.4-4.61.89l.11-4Z" transform="translate(15.21)"/><path class="cls-34" d="M90.84,23.36c4.48-2,5.88-4.79,5.42-6.84l-5.52,5.36Z" transform="translate(15.21)"/><path class="cls-33" d="M83.09,12.74c1.06,4.19,2.27,7.36,3.81,9.46s4.75.14,5.27-.08c3.73-1.62,4.3-5.85,4.32-6.06a19.92,19.92,0,0,0-1.91-7.91c-1-2.09-1.77-3.7-3.52-4.42C88.49,2.66,85,4,83.49,6.38,82.51,7.93,82.31,9.63,83.09,12.74Z" transform="translate(15.21)"/><ellipse class="cls-17" cx="90.07" cy="12.9" rx="0.65" ry="0.9" transform="translate(17.26 35.92) rotate(-22.81)"/><ellipse class="cls-17" cx="85.78" cy="14.46" rx="0.65" ry="0.9" transform="translate(16.31 34.38) rotate(-22.81)"/><polygon class="cls-34" points="104.56 16.32 102.94 16.9 102.28 13.27 102.36 13.27 103.26 16.36 104.52 16.27 104.56 16.32"/><polygon class="cls-17" points="103.21 16.44 102.31 13.16 102.4 13.13 103.41 16.36 103.21 16.44"/><path class="cls-35" d="M84,13a1.43,1.43,0,0,1,1.34-.52" transform="translate(15.21)"/><path class="cls-35" d="M88.67,11.2A1.43,1.43,0,0,1,90,10.68" transform="translate(15.21)"/><path class="cls-34" d="M89.44,13.83a1.6,1.6,0,0,0,2.25-.34c-.22.95-.85,1.32-2.17.65Z" transform="translate(15.21)"/><path class="cls-34" d="M86.69,14.83c-.08.91-.49,1.3-1.23,1.14.68.56,1.19.46,1.39-.85Z" transform="translate(15.21)"/><path class="cls-36" d="M93,24.22l-1.28,3.25c-1.57-1.46-2.51-2.74-2.33-5a8.34,8.34,0,0,0,1.44-.28C91.16,24.27,91.85,24.34,93,24.22Z" transform="translate(15.21)"/><path class="cls-36" d="M97.34,18.41c-.19,3.7-1.65,5.43-4.32,5.8l2.84,3.13c2-2.06,3.43-4.72,2.83-7.59Z" transform="translate(15.21)"/><path class="cls-37" d="M83,12c.1-3.1.52-3.86.9-3.93s.68.86,1.4.9c1.17.08,1.58-2.33,3.31-2.63a2.67,2.67,0,0,1,1.64.33,4.61,4.61,0,0,1,2.39,2.92l1.84,3.25.86-2.74a11.51,11.51,0,0,0-1.3-3.36A6.51,6.51,0,0,0,92,4.22a5.65,5.65,0,0,0-3.31-.89A6.57,6.57,0,0,0,84.1,5.56,7,7,0,0,0,83,12Z" transform="translate(15.21)"/><path class="cls-17" d="M87.72,18.51a2.76,2.76,0,0,1,2.84-1.3c1.06.23,1.42,1.21,2.07,1,.11,0,.47-.16.76-1,.74-2.08,0-5.73-.26-6.92l.67,1.05a9.38,9.38,0,0,0,1,3.45c.66,1.24,1.24,1.58,1.29,2.53a4.15,4.15,0,0,1-1.25,2.72,8.54,8.54,0,0,1-3.21,2.39,5.7,5.7,0,0,1-2.57.72,3,3,0,0,1-1.57-.36,2.72,2.72,0,0,1-1-1.1c-.16-.3-1.17-2.29-1.33-2.59.21.39,1.65,2,2.16,1.18C87.72,19.74,87.39,19.22,87.72,18.51Z" transform="translate(15.21)"/><path class="cls-38" d="M83.53,14.57l1.16-2.18c.57-1.05,1.15-2.08,1.72-3.09,1.06.32,2.15.64,3.27.94,1.4.38,2.76.71,4.08,1a4.27,4.27,0,0,0,2-2.5c.54-2.27-1.54-4.5-3.41-5.37-2.27-1.05-4.5-.24-5.8.24s-5.07,1.85-5.59,5.11S83.3,14.38,83.53,14.57Z" transform="translate(15.21)"/><path class="cls-33" d="M93.86,11.82c-.07-1.34.89-2.79,1.63-2.73s1.54,2,1.18,3.48c0,.11-.38,1.53-1.13,1.61S93.93,13,93.86,11.82Z" transform="translate(15.21)"/><path class="cls-34" d="M95.28,9.7c-.67.17-.48,2.7-.46,2.71v0s.36-.41.57-.33c.06,0,.11.09.11.08s-.05-.12-.14-.15-.48.28-.54.38c0-.26,0-2.13.47-2.44.17-.11.46,0,.47-.07S95.48,9.65,95.28,9.7Z" transform="translate(15.21)"/><polygon class="cls-39" points="100.5 7.94 108.78 10.47 102.4 8.01 100.5 7.94"/><polygon class="cls-39" points="103.06 6.92 108.19 8.49 104.24 6.97 103.06 6.92"/><polygon class="cls-39" points="100.83 8.85 98.46 14.14 100.03 9.8 100.83 8.85"/><polygon class="cls-39" points="99.29 8.55 97.82 11.83 98.8 9.14 99.29 8.55"/><path class="cls-39" d="M86.75,4.66a6.45,6.45,0,0,1,4.08-.53A6.67,6.67,0,0,1,95,7.19,5.83,5.83,0,0,0,90.3,3.67,5.53,5.53,0,0,0,86.75,4.66Z" transform="translate(15.21)"/><ellipse class="cls-17" cx="96.26" cy="12.04" rx="1.71" ry="2.44" transform="translate(14.71 19.02) rotate(-11.26)"/><ellipse class="cls-40" cx="96.68" cy="12.01" rx="1.71" ry="2.44" transform="matrix(0.98, -0.2, 0.2, 0.98, 14.73, 19.1)"/><polygon class="cls-40" points="111.87 13.44 110.68 15.81 108.02 17.84 108.17 18.1 110.93 16.22 112.19 13.57 111.87 13.44"/><rect class="cls-40" x="91.5" y="17.71" width="1.65" height="1.14" rx="0.46" transform="translate(15.52 38.07) rotate(-23.34)"/><path class="cls-17" d="M96,9.61a8.08,8.08,0,0,0-2.36-4.43,7,7,0,0,0-7.52-1.43l-.2.09a7.18,7.18,0,0,1,7.39,1.65,7.38,7.38,0,0,1,2.15,4.43Z" transform="translate(15.21)"/><path class="cls-31" d="M105.11,41.62a3.34,3.34,0,0,1-1.63,1,33.06,33.06,0,0,1-5.81,1c-3.32.24-4.93.75-8.77.67-1,0-2,.2-2.16-.55a18.41,18.41,0,0,1-.34-7.14c5.51-.63,11.43-.08,17.71.61a2.63,2.63,0,0,1,1.77,1.45A3.26,3.26,0,0,1,105.11,41.62Z" transform="translate(15.21)"/><path class="cls-24" d="M78.79,43.59c.3,0,34.3-6.25,34.3-6.25L115,46.6,80.48,51.86Z" transform="translate(15.21)"/><polyline class="cls-30" points="131.21 36.88 91.35 44.11 88.56 18.2"/><polygon class="cls-41" points="122.93 41.35 123.76 45.51 126.68 45.16 127.6 46.54 127.78 44.86 128.98 44.76 127.99 40.51 122.93 41.35"/><polygon class="cls-41" points="103 48.45 102.56 45.24 105.84 44.69 105.93 45.57 106.91 44.78 107.3 47.8 106.2 47.28 106.29 48.18 103 48.45"/><path class="cls-41" d="M81.11,46.61A1.79,1.79,0,0,1,82,44.87a1.74,1.74,0,0,1,.86,1.92,5.11,5.11,0,0,1-1.76,4,1.53,1.53,0,0,1-1.66.15,2,2,0,0,1,.61-2,1.06,1.06,0,0,1,.72.77A3.3,3.3,0,0,0,82,46.9,2,2,0,0,1,81.11,46.61Z" transform="translate(15.21)"/><line class="cls-42" x1="101.04" y1="52.53" x2="99.76" y2="42.41"/><polygon class="cls-41" points="116.91 43.6 116.73 42.65 112.27 43.51 112.4 44.2 114.85 44.89 116.91 43.6"/><polygon class="cls-41" points="112.52 44.82 113.07 47.66 117.53 46.97 117.02 44.24 114.87 45.54 112.52 44.82"/><line class="cls-42" x1="110.52" y1="51.45" x2="108.98" y2="41.06"/><line class="cls-42" x1="121.29" y1="50.11" x2="119.5" y2="39.01"/><path class="cls-41" d="M76.87,38.34,77,27.93l3.43-3H77l-14.25-.11a1.6,1.6,0,0,0-1.62,1.59L61,38a2,2,0,0,0,2,2l12,.1A1.81,1.81,0,0,0,76.87,38.34Z" transform="translate(15.21)"/><path class="cls-43" d="M75.52,38.34l.08-10.41L79,25H75.63l-14.26-.11a1.59,1.59,0,0,0-1.61,1.59L59.66,38a2,2,0,0,0,2,2l12.05.1A1.82,1.82,0,0,0,75.52,38.34Z" transform="translate(15.21)"/><path class="cls-44" d="M66.87,36.7h0Z" transform="translate(15.21)"/><path class="cls-44" d="M66.78,36.6l0,0Z" transform="translate(15.21)"/><path class="cls-44" d="M68,36.71l0,0Z" transform="translate(15.21)"/><path class="cls-44" d="M68.14,36.6l0,0Z" transform="translate(15.21)"/><path class="cls-45" d="M63.32,32.5V34c0,3.08,8.3,3.08,8.3,0V32.5Z" transform="translate(15.21)"/><path class="cls-46" d="M74.09,31.44l-6.61,3-6.61-3,6.61-3Z" transform="translate(15.21)"/><path class="cls-47" d="M67.46,31.31l-3.31,1.5a.15.15,0,0,0-.09.13v1.5a.12.12,0,1,0,.23,0V33.05c1-.44,3.12-1.41,3.21-1.46s.09-.33,0-.28" transform="translate(15.21)"/><ellipse class="cls-47" cx="79.39" cy="34.41" rx="0.42" ry="0.53"/><path class="cls-47" d="M64.17,37.28c.23,0,.42-.11.42-.27v-2.6h-.83V37c0,.16.19.27.41.27" transform="translate(15.21)"/><path class="cls-48" d="M64.46,34.48s0,0,0,0v2.73s0,0,.07,0l0-2.71" transform="translate(15.21)"/><path class="cls-48" d="M64.29,34.55h-.05v2.73l.08,0,0-2.71" transform="translate(15.21)"/><path class="cls-48" d="M64.11,34.55h0l0,2.71h.09V34.55" transform="translate(15.21)"/><path class="cls-48" d="M63.93,34.5s0,0,0,0l-.06,2.69s.06,0,.09,0V34.5" transform="translate(15.21)"/><ellipse class="cls-49" cx="82.77" cy="31.4" rx="0.44" ry="0.29"/><path class="cls-13" d="M86.46,37.2l-2-.12c-.65-.35-2.05-1.1-3.7-1.9a3.89,3.89,0,0,0-1.62-.43,3.39,3.39,0,0,0-1,.14,12.33,12.33,0,0,0-3.24,1.52c-.73,1.16-1.25,2-1.39,2.25,0,.07-.13.22-.07.33a.23.23,0,0,0,.16.13.47.47,0,0,0,.33,0,1.31,1.31,0,0,0,.37-.18,7.71,7.71,0,0,0,1.28-1.81l2.4-.47-1.17,2.52c.07.3.22.49.55.45a1.27,1.27,0,0,0,1.17.89c.21.58.55.93,1.13.91l2.51-.68c.77.5,1.36.79,1.54.58,1.08-.79,1.33-.75,3.26-.74C86.4,39.57,86.87,38.44,86.46,37.2Z" transform="translate(15.21)"/></g></g></g></g></g></svg>