<?xml version="1.0" encoding="utf-8"?>
<!-- Generator: Adobe Illustrator 26.0.1, SVG Export Plug-In . SVG Version: 6.00 Build 0)  -->
<svg version="1.1" id="Layer_1" xmlns="http://www.w3.org/2000/svg" xmlns:xlink="http://www.w3.org/1999/xlink" x="0px" y="0px"
	 viewBox="0 0 34 34" style="enable-background:new 0 0 34 34;" xml:space="preserve">
<style type="text/css">
	.st0{fill:#2BA197;}
</style>
<desc>Created with Sketch.</desc>
<g id="icons">
	<g id="ui-gambling-website-lined-icnos-casinoshunter" transform="translate(-83.000000, -1905.000000)">
		<g id="_x34_" transform="translate(50.000000, 1871.000000)">
			<path id="home" class="st0" d="M35.5,50.8c-1.1,0-2-0.9-2-1.9c0-0.5,0.2-1,0.6-1.4l14.5-13c0.8-0.7,2-0.7,2.7,0l14.5,13
				c0.8,0.7,0.8,1.9,0.1,2.7c-0.4,0.4-0.9,0.6-1.5,0.6H64v13.4c0,2.1-1.8,3.8-4,3.8h-4c-1.7,0-3-1.3-3-3v-6.5l0,0
				c0-1-0.8-1.8-1.9-1.9l-0.1,0h-2c-1.1,0-1.9,0.8-2,1.8l0,0.1V65c0,1.7-1.3,3-3,3h-4l0,0c-2.2,0-4-1.7-4-3.8V50.8H35.5z"/>
		</g>
	</g>
</g>
<polygon class="st0" points="-45.4,41.3 -11.9,33.5 -11.9,12 -45.4,19.8 "/>
</svg>
