<?xml version="1.0" encoding="utf-8"?>
<!-- Generator: Adobe Illustrator 26.3.1, SVG Export Plug-In . SVG Version: 6.00 Build 0)  -->
<svg version="1.1" id="Layer_1" xmlns="http://www.w3.org/2000/svg" xmlns:xlink="http://www.w3.org/1999/xlink" x="0px" y="0px"
	 viewBox="0 0 200 200" style="enable-background:new 0 0 200 200;" xml:space="preserve">
<style type="text/css">
	.st0{fill:#5789BA;}
	.st1{fill:#65AFF5;}
	.st2{fill:#466F96;}
	.st3{fill:#FAFAFA;}
	.st4{fill:#FFFFFF;}
</style>
<polygon class="st0" points="151.8,176.2 137.3,184.2 48.4,30.8 62.6,22.3 150.8,23.4 195.3,100.4 "/>
<polygon class="st1" points="137.4,184.3 49.2,183.2 4.7,106.2 48.2,30.4 136.4,31.6 181,108.5 "/>
<path class="st2" d="M184.7,59.4c1,34.1-53.1,34.1-53.1,0S185.7,25.3,184.7,59.4z"/>
<path class="st0" d="M179.7,63.4c1,34.1-53.1,34.1-53.1,0S179.7,28.3,179.7,63.4z"/>
<g>
	<circle class="st3" cx="153.1" cy="63.2" r="20"/>
	<path d="M153.1,83.6c-11.3,0-20.4-9.2-20.4-20.5s9.2-20.5,20.4-20.5c11.3,0,20.5,9.2,20.5,20.5S164.4,83.6,153.1,83.6z M153.1,43.7
		c-10.7,0-19.5,8.8-19.5,19.5s8.8,19.5,19.5,19.5c10.8,0,19.5-8.8,19.5-19.5S163.9,43.7,153.1,43.7z"/>
</g>
<polygon points="150.3,63.2 161.7,48.9 153.1,63.2 156,73.6 "/>
<polygon points="152.2,43.2 153.7,47.6 155,43.2 "/>
<polyline points="155,83.2 152.7,83.2 153.6,78.6 "/>
<polyline points="133.1,62.8 133.1,65.1 136.9,64.1 "/>
<polyline points="173.1,61.3 173.1,64.1 168.3,62.2 "/>
<polygon class="st4" points="79.8,109.6 41.2,87.4 41.2,131.9 "/>
<polygon class="st4" points="113.8,109.6 75.2,87.4 75.2,131.9 "/>
<polygon class="st4" points="148.2,109.6 109.7,87.4 109.7,131.9 "/>
</svg>
