<?xml version="1.0" encoding="utf-8"?>
<!-- Generator: Adobe Illustrator 26.3.1, SVG Export Plug-In . SVG Version: 6.00 Build 0)  -->
<svg version="1.1" id="Layer_1" xmlns="http://www.w3.org/2000/svg" xmlns:xlink="http://www.w3.org/1999/xlink" x="0px" y="0px"
	 viewBox="0 0 200 200" style="enable-background:new 0 0 200 200;" xml:space="preserve">
<style type="text/css">
	.st0{fill:#D2F7F2;stroke:#31AB94;stroke-miterlimit:10;}
	.st1{fill:#ADD9D1;stroke:#31AB94;stroke-linecap:round;stroke-linejoin:round;stroke-miterlimit:10;}
	.st2{fill:#BEE1DB;stroke:#31AB94;stroke-miterlimit:10;}
	.st3{fill:#A7D1C9;stroke:#31AB94;stroke-miterlimit:10;}
	.st4{fill:#D2F7F2;stroke:#31AB94;stroke-linejoin:round;stroke-miterlimit:10;}
	.st5{fill:#298F7C;}
	.st6{fill:#31AB94;}
	.st7{fill:none;stroke:#FFFFFF;stroke-miterlimit:10;}
</style>
<polygon class="st0" points="100.6,57.9 158.2,28.8 185,33.3 179.6,60.8 137.5,81.9 101.6,79.1 "/>
<polygon class="st0" points="96.4,59.8 38.6,36.1 12,45.8 35.1,77.1 96.8,101.7 "/>
<path class="st1" d="M101.9,43.1l-5.7-10.2L91,43.2l-0.8,148c4.9,2.6,9.4,2.7,13.2-0.2L101.9,43.1z"/>
<polygon class="st2" points="91.2,64.4 30.6,38.9 4,48.6 27.1,80 91.7,106.3 "/>
<polygon class="st3" points="101.7,64.9 165.6,30.2 192.4,34.8 186.9,62.2 144.8,83.3 101.9,86.3 "/>
<polygon class="st3" points="100.7,67.6 167.8,83.7 188.9,113.7 168.8,128.2 100.5,107.5 "/>
<polygon class="st4" points="172,80.4 167.8,83.7 188.9,113.7 193,110.5 "/>
<polygon class="st4" points="100.7,67.6 104.8,64.4 172,80.4 167.8,83.7 "/>
<ellipse transform="matrix(0.7456 -0.6664 0.6664 0.7456 -27.7373 129.6248)" class="st5" cx="155.9" cy="101.1" rx="11.4" ry="14.8"/>
<ellipse transform="matrix(0.7456 -0.6664 0.6664 0.7456 -29.174 128.1708)" class="st6" cx="153.3" cy="102.3" rx="11.4" ry="14.8"/>
<polyline class="st7" points="146.5,101 150.3,106.1 160.3,98.3 "/>
</svg>
