<?xml version="1.0" encoding="utf-8"?>
<!-- Generator: Adobe Illustrator 26.3.1, SVG Export Plug-In . SVG Version: 6.00 Build 0)  -->
<svg version="1.1" id="Layer_1" xmlns="http://www.w3.org/2000/svg" xmlns:xlink="http://www.w3.org/1999/xlink" x="0px" y="0px"
	 viewBox="0 0 200 200" style="enable-background:new 0 0 200 200;" xml:space="preserve">
<style type="text/css">
	.st0{fill:#D59532;}
	.st1{fill:#FAAF3B;}
	.st2{fill:#298F7C;}
	.st3{fill:#31AB94;}
	.st4{fill:#FFFFFF;}
	.st5{font-family:'Arial';font-weight: 700;}
	.st6{font-size:107.0069px;}
</style>
<polygon class="st0" points="152.7,178.5 138,186.7 47.4,30.5 61.9,21.8 151.7,22.9 197.1,101.3 "/>
<polygon class="st1" points="138.1,186.7 48.3,185.6 2.9,107.2 47.3,30 137.1,31.2 182.5,109.6 "/>
<path class="st2" d="M183.4,61.6c1,34.7-54.1,34.7-54.1,0S184.4,26.9,183.4,61.6z"/>
<path class="st3" d="M178.3,65.6c1,34.7-54.1,34.7-54.1,0S178.3,29.9,178.3,65.6z"/>
<polygon class="st4" points="132.4,67.9 143.7,81.4 170.2,56 165.9,51.9 143.9,72.2 137,64.1 "/>
<text transform="matrix(1 0 0 1 65.5591 143.7181)" class="st4 st5 st6">£</text>
</svg>
