<?xml version="1.0" encoding="utf-8"?>
<!-- Generator: Adobe Illustrator 26.0.1, SVG Export Plug-In . SVG Version: 6.00 Build 0)  -->
<svg version="1.1" id="Layer_1" xmlns="http://www.w3.org/2000/svg" xmlns:xlink="http://www.w3.org/1999/xlink" x="0px" y="0px"
	 viewBox="0 0 34 34" style="enable-background:new 0 0 34 34;" xml:space="preserve">
<style type="text/css">
	.st0{fill:#2BA197;}
</style>
<desc>Created with Sketch.</desc>
<path class="st0" d="M-1.1,17"/>
<path class="st0" d="M73.2,8.1L64,16.6c-2.8,2.6-7.1,2.4-9.7-0.4l0,0c-2.6-2.8-2.4-7.1,0.4-9.7L63.9-2c2.8-2.6,7.1-2.4,9.7,0.4l0,0
	C76.2,1.1,76,5.5,73.2,8.1z"/>
<path class="st0" d="M13.3,17L27.8,5c3.4-3.1-2.3-6.8-5-4.2c-23.6,20.3-23.5,12,0,32.3c2.7,2.6,8.5-1.1,5-4.2
	C27.8,29,13.3,17,13.3,17z"/>
</svg>
