<?xml version="1.0" encoding="utf-8"?>
<!-- Generator: Adobe Illustrator 26.0.1, SVG Export Plug-In . SVG Version: 6.00 Build 0)  -->
<svg version="1.1" id="dwp-digital-logo" xmlns="http://www.w3.org/2000/svg" xmlns:xlink="http://www.w3.org/1999/xlink" x="0px"
	 y="0px" viewBox="0 0 250 250" style="enable-background:new 0 0 250 250;" xml:space="preserve">
<style type="text/css">
	.st0{fill:#411CD3;}
	.st1{fill:#007B8D;}
	.st2{fill:#EB0058;}
	.st3{fill:#5D9F05;}
	.st4{fill:#DC29D8;}
	.st5{fill:#FF5F00;}
</style>
<path class="st0" d="M187.1,206.5c-13.2,20.1-36,33.4-61.9,33.4c-25.5,0-48-13-61.3-33.4H187.1z"/>
<path class="st1" d="M89.7,33.8c-24.4,1.3-46.9,14.3-59.6,36.4c-12.9,22.4-12.8,48.8-2,70.3L89.7,33.8z"/>
<path class="st2" d="M161.1,33.8c24.1,1.3,47,14.4,60,36.8c12.8,22.1,12.8,48.1,1.8,69.8L161.1,33.8z"/>
<path class="st3" d="M180.5,154.1H218L139.4,18.3c-2.9-5-8.4-8.2-14.2-8.2c-5.8,0-11.3,3.1-14.2,8.2l-4.5,7.9L180.5,154.1z"/>
<path class="st4" d="M227.6,170.9L223,163h-37.4H75.2h0l-18.7,32.4h156.9c5.8,0,11.3-3.1,14.2-8.2
	C230.5,182.2,230.5,175.9,227.6,170.9"/>
<path class="st5" d="M101.5,35L23,170.9c-2.9,5-2.9,11.3,0,16.4c2.9,5,8.4,8.2,14.2,8.2h9.1l73.9-128.1L101.5,35z"/>
</svg>
