<?xml version="1.0" encoding="utf-8"?>
<!-- Generator: Adobe Illustrator 26.3.1, SVG Export Plug-In . SVG Version: 6.00 Build 0)  -->
<svg version="1.1" id="Layer_1" xmlns="http://www.w3.org/2000/svg" xmlns:xlink="http://www.w3.org/1999/xlink" x="0px" y="0px"
	 viewBox="0 0 200 200" style="enable-background:new 0 0 200 200;" xml:space="preserve">
<style type="text/css">
	.st0{fill:#B879B0;}
	.st1{fill:#CDA1C8;}
	.st2{fill:#298F7C;}
	.st3{fill:#31AB94;}
	.st4{fill:#FFFFFF;}
</style>
<g>
	<g>
		<polygon class="st0" points="152.6,177.7 137.9,185.9 47.6,30.1 62,21.4 151.6,22.6 196.8,100.7 		"/>
		<polygon class="st1" points="138,186 48.4,184.8 3.2,106.7 47.4,29.7 137,30.8 182.2,109 		"/>
	</g>
</g>
<path class="st2" d="M190.8,57.2c1,34.6-53.9,34.6-53.9,0S191.8,22.6,190.8,57.2z"/>
<path class="st3" d="M185.7,61.2c1,34.6-53.9,34.6-53.9,0S185.7,25.6,185.7,61.2z"/>
<polygon class="st4" points="139.9,63.5 151.2,77 177.7,51.6 173.4,47.6 151.4,67.8 144.6,59.7 "/>
<path class="st4" d="M48.8,66c-12.9,14.5-11.5,36.6,3,49.5s36.6,11.5,49.5-3s11.5-36.6-3-49.5S61.7,51.6,48.8,66z M94.9,106.4
	c-9.4,10.6-25.7,11.6-36.3,2.2C48,99.1,47,82.8,56.4,72.2c9.4-10.6,25.7-11.6,36.3-2.2C103.4,79.5,104.3,95.7,94.9,106.4z"/>
<rect x="114.9" y="109.1" transform="matrix(0.6637 -0.748 0.748 0.6637 -55.978 135.8482)" class="st4" width="16.4" height="42.2"/>
<rect x="99.2" y="109.3" transform="matrix(0.6637 -0.748 0.748 0.6637 -50.0765 116.3711)" class="st4" width="10.4" height="9.1"/>
</svg>
