<?xml version="1.0" encoding="utf-8"?>
<!-- Generator: Adobe Illustrator 26.3.1, SVG Export Plug-In . SVG Version: 6.00 Build 0)  -->
<svg version="1.1" id="Layer_1" xmlns="http://www.w3.org/2000/svg" xmlns:xlink="http://www.w3.org/1999/xlink" x="0px" y="0px"
	 viewBox="0 0 200 200" style="enable-background:new 0 0 200 200;" xml:space="preserve">
<style type="text/css">
	.st0{fill:#A0A7CB;}
	.st1{fill:#BFC3DB;}
	.st2{fill:#FFFFFF;}
	.st3{fill:#298F7C;}
	.st4{fill:#31AB94;}
</style>
<polygon class="st0" points="152.8,179.7 138,187.9 47.4,31.5 61.9,22.8 151.8,24 197.2,102.4 "/>
<polygon class="st1" points="138.1,188 48.2,186.8 2.8,108.4 47.2,31.1 137.1,32.2 182.6,110.7 "/>
<g id="XMLID_1122_">
	<path id="XMLID_1123_" class="st2" d="M93.5,119.5c-1,0-1.9,0.8-1.9,1.9v8c0,1,0.8,1.9,1.9,1.9s1.9-0.8,1.9-1.9v-8
		C95.4,120.4,94.5,119.5,93.5,119.5z"/>
	<path id="XMLID_1245_" class="st2" d="M71.8,99.7H53.2V75.9c4.2-0.9,7.4-4.6,7.4-9.1c0-5.1-4.2-9.3-9.3-9.3s-9.3,4.2-9.3,9.3
		c0,4.5,3.2,8.2,7.4,9.1v25.6c0,1,0.8,1.9,1.9,1.9h20.3v3.9h-6.1c-1,0-1.9,0.8-1.9,1.9V122H48.9c-1,0-1.9,0.8-1.9,1.9
		c0,1,0.8,1.9,1.9,1.9h14.8v8.5c0,5.1,4.2,9.3,9.3,9.3h8.8c0,0.1,0,0.1,0,0.2v8.1H60.5c-0.9-4.2-4.6-7.4-9.1-7.4
		c-5.1,0-9.3,4.2-9.3,9.3s4.2,9.3,9.3,9.3c4.5,0,8.2-3.2,9.1-7.4h23.1c1,0,1.9-0.8,1.9-1.9v-9.9c0-0.1,0-0.1,0-0.2h28.6
		c5.1,0,9.3-4.2,9.3-9.3v-8.5h5.5v28.5H115c-0.9-4.2-4.6-7.4-9.1-7.4c-5.1,0-9.3,4.2-9.3,9.3c0,5.1,4.2,9.3,9.3,9.3
		c4.5,0,8.2-3.2,9.1-7.4h15.7c1,0,1.9-0.8,1.9-1.9v-32.2c0-1-0.8-1.9-1.9-1.9h-7.3v-5.7h19.7c1,0,1.9-0.8,1.9-1.9s-0.8-1.9-1.9-1.9
		h-19.7v-3.5c0-1-0.8-1.9-1.9-1.9h-6.1v-3.9h20.9c1,0,1.9-0.8,1.9-1.9v-8.2c4.2-0.9,7.4-4.6,7.4-9.1c0-5.1-4.2-9.3-9.3-9.3
		s-9.3,4.2-9.3,9.3c0,4.5,3.2,8.2,7.4,9.1v6.4h-19.1v-2.4c0-12.1-9.8-21.9-21.9-21.9c-7.4,0-14,3.7-18,9.4V63.7h18.8
		c0.9,4.2,4.6,7.4,9.1,7.4c5.1,0,9.3-4.2,9.3-9.3s-4.2-9.3-9.3-9.3c-4.5,0-8.2,3.2-9.1,7.4H73.7c-1,0-1.9,0.8-1.9,1.9V99.7z
		 M130.7,84.2c0-3.1,2.5-5.6,5.6-5.6s5.6,2.5,5.6,5.6c0,3.1-2.5,5.6-5.6,5.6C133.2,89.8,130.7,87.3,130.7,84.2z M103.4,56.3
		c3.1,0,5.6,2.5,5.6,5.6c0,3.1-2.5,5.6-5.6,5.6s-5.6-2.5-5.6-5.6C97.9,58.8,100.4,56.3,103.4,56.3z M45.8,66.8
		c0-3.1,2.5-5.6,5.6-5.6c3.1,0,5.6,2.5,5.6,5.6c0,3.1-2.5,5.6-5.6,5.6S45.8,69.9,45.8,66.8z M51.4,159.2c-3.1,0-5.6-2.5-5.6-5.6
		c0-3.1,2.5-5.6,5.6-5.6c3.1,0,5.6,2.5,5.6,5.6C56.9,156.7,54.4,159.2,51.4,159.2z M75.4,97.2c0-10,8.1-18.1,18.1-18.1
		s18.1,8.1,18.1,18.1v10h-5.1V98c0-7.2-5.9-13.1-13.1-13.1c-7.2,0-13.1,5.9-13.1,13.1v9.2h-5.1V97.2L75.4,97.2z M102.9,107.3H84.2
		V98c0-5.2,4.2-9.3,9.3-9.3c5.2,0,9.3,4.2,9.3,9.3V107.3z M119.7,134.2c0,3.1-2.5,5.6-5.6,5.6H72.9c-3.1,0-5.6-2.5-5.6-5.6V111h52.3
		V134.2z M105.9,161.7c-3.1,0-5.6-2.5-5.6-5.6c0-3.1,2.5-5.6,5.6-5.6s5.6,2.5,5.6,5.6C111.5,159.2,109,161.7,105.9,161.7z"/>
</g>
<path class="st3" d="M191.2,58.7c1,34.7-54.1,34.7-54.1,0S192.2,23.9,191.2,58.7z"/>
<path class="st4" d="M186.1,62.8c1,34.7-54.1,34.7-54.1,0S186.1,27,186.1,62.8z"/>
<rect x="145.6" y="49.1" class="st2" width="4.4" height="27"/>
<rect x="148.2" y="71.6" class="st2" width="25.2" height="4.5"/>
<rect x="169.6" y="64.8" class="st2" width="3.7" height="10.1"/>
<rect x="162.4" y="49.1" class="st2" width="10.5" height="2.8"/>
<rect x="166.5" y="53.2" transform="matrix(-1.836970e-16 1 -1 -1.836970e-16 226.5073 -117.4703)" class="st2" width="10.9" height="2.7"/>
<polygon class="st2" points="158.2,61.9 169.2,50.6 171.2,52.6 160.2,63.9 "/>
<rect x="151.4" y="45.9" transform="matrix(-1.836970e-16 1 -1 -1.836970e-16 204.1177 -102.302)" class="st2" width="3.7" height="10.1"/>
</svg>
