<?xml version="1.0" encoding="utf-8"?>
<!-- Generator: Adobe Illustrator 26.0.1, SVG Export Plug-In . SVG Version: 6.00 Build 0)  -->
<svg version="1.1" id="Layer_1" xmlns="http://www.w3.org/2000/svg" xmlns:xlink="http://www.w3.org/1999/xlink" x="0px" y="0px"
	 viewBox="0 0 200 200" style="enable-background:new 0 0 200 200;" xml:space="preserve">
<style type="text/css">
	.st0{fill:#C79459;}
	.st1{fill:#EBC8C8;}
	.st2{fill:#EBD1D1;}
	.st3{fill:#FFB302;}
	.st4{fill:#424242;}
	.st5{fill:#FF0000;}
	.st6{fill:#A37949;}
	.st7{fill:#FFFFFF;}
	.st8{fill:#00703C;}
	.st9{fill:#B4DCD5;}
	.st10{fill:#6585F3;}
	.st11{fill:#D9D9D9;}
	.st12{fill:#BABABA;}
	.st13{fill:#31AB94;}
	.st14{fill:#ADD9D1;}
	.st15{fill:#556080;}
	.st16{fill:#A97C50;}
	.st17{fill:#997046;}
	.st18{fill:#D1A074;}
	.st19{fill:#C7CAC7;}
	.st20{opacity:5.000000e-02;}
	.st21{opacity:8.000000e-02;}
	.st22{fill:#FFFFFF;stroke:#00703C;stroke-width:0.75;stroke-miterlimit:10;}
	.st23{stroke:#4B9C4C;stroke-width:0.5;stroke-miterlimit:10;}
	.st24{fill:#31AB94;stroke:#4B9C4C;stroke-width:0.5;stroke-miterlimit:10;}
	.st25{fill:url(#SVGID_1_);stroke:#00703C;stroke-width:0.75;stroke-miterlimit:10;}
	
		.st26{fill:url(#SVGID_00000114059197399458616100000018213032229732722361_);stroke:#00703C;stroke-width:0.75;stroke-miterlimit:10;}
	
		.st27{fill:url(#SVGID_00000043451915553733628490000003289000899661874597_);stroke:#00703C;stroke-width:0.75;stroke-miterlimit:10;}
	.st28{fill:#FFFFFF;stroke:#00703C;stroke-width:0.75;stroke-linecap:round;stroke-linejoin:round;stroke-miterlimit:10;}
</style>
<symbol  id="birthday-cake_2" viewBox="-8.8 -12.4 17.6 24.8">
	<path class="st0" d="M-8.5-1.5v-7.7c0-0.7,0.3-1.2,0.7-1.4c4.8-2,9.9-2.5,15.4,0c0.4,0.2,0.7,0.8,0.7,1.4v7.7C8.4-0.7,8-0.1,7.5,0
		L0.2,1.2c-0.1,0-0.1,0-0.2,0L-7.6,0C-8.1-0.1-8.5-0.7-8.5-1.5z"/>
	<path class="st1" d="M6.9,2.9c-4.7,1-9.3,1-13.8,0c-1,0-1.9-0.8-1.9-1.9c-0.1-0.4-0.1-0.9,0.2-1.2c0.1-0.1,0.2-0.2,0.5-0.3
		c0.6-0.3,1.1-0.6,1.4-1c0.1-0.2,0.1-0.5,0.2-1.2c0-0.5,0-0.9,0-1.2c0-0.4,0.3-0.7,0.7-0.7c0.4,0,0.7,0.3,0.7,0.7
		c-0.1,0.4-0.2,1.5,0.4,2.4C-4.6-1.2-4.4-1.1-4.4-1c0.1,0.1,0.7,0.6,1.5,0.6c1.5,0,1.5-1.2,2.9-1.2c1.5,0,1.5,1.2,2.9,1.2
		c1.5,0,1.5-1.2,2.9-1.2c0.3,0,0.5,0.1,0.7,0.1c0.8,0.3,1.5,0.5,2,1.2C8.6-0.2,8.9,0.3,8.8,1C8.8,2,7.9,2.9,6.9,2.9z"/>
	<g>
		<path class="st2" d="M6.9,2.9c-4.7,1-9.3,1-13.8,0c-0.8,0-1.5-0.5-1.8-1.2C-7.3,0.9-4,0.4,0,0.4c4,0,7.4,0.5,8.7,1.2
			C8.4,2.4,7.7,2.9,6.9,2.9z"/>
	</g>
	<path class="st3" d="M-1.2,10c0,1,0.5,2,1.3,2.4c0.8-0.5,1.3-1.5,1.3-2.4c0-1-0.6-1.8-1.3-1.8S-1.2,9-1.2,10L-1.2,10z"/>
	<path class="st4" d="M0.1,9c-0.2,0-0.3-0.2-0.3-0.3V6.8h0.7v1.8C0.4,8.8,0.3,9,0.1,9z"/>
	<path class="st5" d="M0.5,7.3h-0.9c-0.2,0-0.5-0.2-0.5-0.5l0-3.9C-0.1,2.7,0.5,2.6,1,3l0,3.9C1,7.1,0.8,7.3,0.5,7.3z"/>
	<circle class="st6" cx="-6.8" cy="-7.1" r="0.3"/>
	<circle class="st6" cx="5.7" cy="-8.4" r="0.3"/>
	<circle class="st6" cx="7.2" cy="-4.6" r="0.3"/>
	<circle class="st6" cx="-7.6" cy="-4" r="0.3"/>
	<circle class="st6" cx="-3.4" cy="-8.9" r="0.3"/>
	<text transform="matrix(1 0 0 -1 -4.9482 -9.1113)" class="st7" style="font-family:'Arial-BoldMT'; font-size:8.7557px;">66</text>
</symbol>
<symbol  id="bot-body" viewBox="-13.5 -18.7 27.1 37.3">
	<g>
		<path class="st7" d="M-13.1,9.6c1.8-15,15.5-31.9,20.6-27.1C12.1-13.2,15.6,3.2,11,14C7.4,22.4-14,17.1-13.1,9.6z"/>
		<path class="st8" d="M5.3-18.7c-0.6,0-1.2,0.1-1.8,0.4C-2.9-16-12-2.7-13.5,9.6c-0.5,3.8,4.4,6.9,9.4,8.3c6,1.6,13.4,1.2,15.4-3.7
			c4.7-11,1.2-27.5-3.6-31.9C7.1-18.4,6.3-18.7,5.3-18.7z M-12.8,9.7C-11.3-2.1-2.3-15.4,3.8-17.6c1.4-0.5,2.6-0.4,3.5,0.4
			c4.5,4.2,7.9,20.5,3.4,31.1c-1.9,4.4-8.9,4.8-14.6,3.2C-8.6,15.9-13.2,13.1-12.8,9.7z"/>
	</g>
	<g>
		<path class="st8" d="M-9.7,11.8c3.7-1.7,15.6-1.3,17.3,2.9c0,0,0.1,0,0.1,0C6.6,9.7-6.4,9-9.7,11.8L-9.7,11.8z"/>
	</g>
	<path class="st9" d="M6.3-17.7c5.1,2.2,8.9,20.8,4.3,31.6c-0.7,2-4,3.9-6,3.9C12.5,12.9,12.5-3.7,6.3-17.7z"/>
	<path class="st8" d="M10.8,5.1c0.5-5.6,0-11.8-2.4-16.8c0,0,0,0,0,0C9.9-6.3,10.9-0.5,10.8,5.1L10.8,5.1z"/>
</symbol>
<symbol  id="clipboard" viewBox="-8 -7.7 15.9 15.4">
	<path class="st10" d="M3.2-7.7L-7.4-7c-0.4,0-0.6,0.4-0.5,0.7l3.9,13.3C-4,7.5-3.6,7.7-3.2,7.7L7.4,7c0.4,0,0.6-0.4,0.5-0.7
		L4.1-7.1C4-7.5,3.6-7.7,3.2-7.7z"/>
	<polygon class="st7" points="3.1,-6.4 -6.7,-5.7 -3.3,6.1 6.6,5.4 	"/>
	<polygon class="st11" points="4.6,3.8 -2.3,4.3 -2.1,4.8 4.8,4.3 	"/>
	<polygon class="st11" points="4.3,2.8 -2.6,3.3 -2.5,3.7 4.4,3.3 	"/>
	<polygon class="st11" points="4,1.7 -2.9,2.2 -2.8,2.7 4.1,2.2 	"/>
	<polygon class="st11" points="0.9,0.7 -3.3,1 -3.1,1.5 1,1.2 	"/>
	<polygon class="st11" points="3,-1.7 -3.9,-1.2 -3.7,-0.7 3.2,-1.2 	"/>
	<polygon class="st11" points="2.7,-3 -4.2,-2.5 -4.1,-2 2.8,-2.5 	"/>
	<polygon class="st11" points="2.3,-4.1 -4.6,-3.6 -4.5,-3.1 2.4,-3.6 	"/>
	<polygon class="st12" points="0.1,7.1 3.4,6.9 3,6.2 3.4,4.7 -0.6,4.9 0.3,6.3 	"/>
</symbol>
<symbol  id="hex-connector_2" viewBox="-7 -7.5 14 15.1">
	<rect x="-7" y="-7.5" class="st13" width="14" height="15.1"/>
</symbol>
<symbol  id="hex-plain" viewBox="-66 -56.1 132 112.2">
	<polygon class="st13" points="35.8,-50.5 25.8,-56 -35.8,50.2 -25.9,56.1 35.2,55.3 66,2 	"/>
	<polygon class="st14" points="25.9,-56.1 -35.2,-55.3 -66,-2 -35.8,50.5 25.2,49.7 56.1,-3.6 	"/>
</symbol>
<symbol  id="symbol-briefcase" viewBox="-12.3 -10.9 24.6 21.8">
	<path class="st15" d="M4.2,3.8c-0.6,0-1,0.4-1,1V9l-6.5-0.1l0.1-4.1c0-0.6-0.4-1-1-1s-1,0.4-1,1V9c0,1.1,0.9,1.9,1.9,1.9h6.6
		c1.1,0,1.9-0.9,1.9-1.9V4.8C5.2,4.2,4.8,3.8,4.2,3.8z"/>
	<path class="st16" d="M11.4-10.9h-22.9c-0.5,0-0.9,0.4-0.9,0.9V5.2c0,0.5,0.4,0.9,0.9,0.9h22.9c0.5,0,0.9-0.4,0.9-0.9V-10
		C12.3-10.5,11.9-10.9,11.4-10.9z"/>
	<path class="st17" d="M-8.9,6.1h-2.5c-0.5,0-0.9-0.4-0.9-0.9V-10c0-0.5,0.4-0.9,0.9-0.9h2.5V6.1z"/>
	<path class="st17" d="M11.4,6.1H8.9v-17h2.5c0.5,0,0.9,0.4,0.9,0.9V5.2C12.3,5.7,11.9,6.1,11.4,6.1z"/>
	<rect x="-9.3" y="-10.9" class="st18" width="0.8" height="17"/>
	<rect x="8.5" y="-10.9" class="st18" width="0.8" height="17"/>
	<rect x="-10.2" y="6.1" class="st19" width="3.4" height="1.3"/>
	<rect x="6.6" y="6.1" class="st19" width="3.4" height="1.3"/>
</symbol>
<symbol  id="symbol-health" viewBox="-10.4 -10.4 20.7 20.7">
	<circle class="st7" cx="0" cy="0" r="10.4"/>
	<rect x="-2.5" y="-7.6" class="st13" width="4.3" height="15"/>
	
		<rect x="-2.3" y="-7.7" transform="matrix(-1.836970e-16 1 -1 -1.836970e-16 -0.3229 -2.605759e-02)" class="st13" width="4.2" height="15"/>
</symbol>
<symbol  id="symbol-wheelchair" viewBox="-11.9 -14.3 23.9 28.6">
	<path class="st7" d="M-3.9,14.3c1.6,0,2.9-1.3,2.9-2.9c0-1.4-1-2.5-2.3-2.8L-3.1,4h6.6V1.7h-6.4l0.1-2.3h8l3.6-8l2.3,1l0.9-2.1
		l-4.4-1.9l0,0l-0.1,0L3.7-2.9h-9.4v12c-0.7,0.5-1.1,1.4-1.1,2.3C-6.8,13-5.5,14.3-3.9,14.3z M-3.4-14.3c-4.7,0-8.6,3.8-8.6,8.6
		c0,3.5,2.1,6.5,5.1,7.9v-2.6c-1.7-1.1-2.9-3.1-2.9-5.3c0-3.5,2.8-6.3,6.3-6.3s6.3,2.8,6.3,6.3l0,0.1l1.4-3.8
		C3-12.3,0-14.3-3.4-14.3z"/>
</symbol>
<g id="service1">
	<g>
		<path class="st20" d="M47.3,119.4L38,122l-2.8-5.4l8.9-2.5l-0.5-7.5l8-0.5l29.2,20.8l25-8.2l-5.9-30.3c-1.6-1.5-47.8,5.5-51.1,5.8
			l0.4,7.3l-6,0.3l-0.3-5l-15.2-9.7L2.2,94.7l1.3,14.1l15.6,12.4l10.9-3.1l2.7,5.5l-10.4,2.9l4.8,23.4l26.6,20.3l26.4-7.5l-3-26.9
			L47.3,119.4z"/>
		<polygon class="st20" points="137.9,117.9 107.9,126.1 70.9,104 63.8,73.7 93.7,65.6 130.8,87.6 		"/>
		
			<use xlink:href="#hex-connector_2"  width="14" height="15.1" x="-7" y="-7.5" transform="matrix(0.2531 -0.5155 -0.4214 -0.1553 95.7496 83.8725)" style="overflow:visible;"/>
		
			<use xlink:href="#hex-connector_2"  width="14" height="15.1" x="-7" y="-7.5" transform="matrix(-0.2369 -0.3935 0.4572 -0.39 94.7721 114.6403)" style="overflow:visible;"/>
		
			<use xlink:href="#hex-connector_2"  width="14" height="15.1" x="-7" y="-7.5" transform="matrix(2.470424e-03 -0.5225 -0.4916 0.1297 69.875 106.0243)" style="overflow:visible;"/>
		
			<use xlink:href="#hex-plain"  width="132" height="112.2" x="-66" y="-56.1" transform="matrix(-0.4915 0.1224 9.314397e-03 -0.5243 69.3698 74.2561)" style="overflow:visible;"/>
		
			<use xlink:href="#birthday-cake_2"  width="17.6" height="24.8" x="-8.8" y="-12.4" transform="matrix(1.7177 -0.4277 3.255334e-02 -1.8323 69.7453 71.7836)" style="overflow:visible;"/>
		
			<use xlink:href="#hex-plain"  width="132" height="112.2" x="-66" y="-56.1" transform="matrix(-0.4915 0.1224 9.314397e-03 -0.5243 67.2985 137.9155)" style="overflow:visible;"/>
		
			<use xlink:href="#symbol-briefcase"  width="24.6" height="21.8" x="-12.3" y="-10.9" transform="matrix(1.2633 -0.3146 2.394158e-02 -1.3476 69.8242 138.5181)" style="overflow:visible;"/>
		
			<use xlink:href="#hex-connector_2"  width="14" height="15.1" x="-7" y="-7.5" transform="matrix(2.225163e-03 -0.4707 -0.4428 0.1168 120.8826 66.195)" style="overflow:visible;"/>
		
			<use xlink:href="#hex-plain"  width="132" height="112.2" x="-66" y="-56.1" transform="matrix(-0.4427 0.1102 8.389673e-03 -0.4722 120.4276 37.5807)" style="overflow:visible;"/>
		
			<use xlink:href="#hex-plain"  width="132" height="112.2" x="-66" y="-56.1" transform="matrix(-0.4427 0.1102 8.389673e-03 -0.4722 118.4129 94.2942)" style="overflow:visible;"/>
		
			<use xlink:href="#symbol-health"  width="20.7" height="20.7" x="-10.4" y="-10.4" transform="matrix(1.3369 -0.3329 2.533613e-02 -1.4261 122.7624 37.7294)" style="overflow:visible;"/>
		
			<use xlink:href="#symbol-wheelchair"  width="23.9" height="28.6" x="-11.9" y="-14.3" transform="matrix(1.1352 -0.2827 2.151366e-02 -1.2109 121.7763 93.2327)" style="overflow:visible;"/>
	</g>
	<g id="obj3">
		<path class="st21" d="M192.9,160.9c0.6,6.7-32.6,6.7-32.1,0C160.3,154.1,193.5,154.1,192.9,160.9z"/>
		<g>
			<path class="st22" d="M162.3,119c-9.5,1-11.1-7.8-1.1-12c-1-0.8-1.9-1.6-2.9-2.4c-12.2,5.6-8.5,19.2,3.5,19.2L162.3,119z"/>
			
				<use xlink:href="#bot-body"  width="27.1" height="37.3" x="-13.5" y="-18.7" transform="matrix(1.2484 0.4406 0.4406 -1.2484 173.9333 132.8156)" style="overflow:visible;"/>
			<path class="st22" d="M158.6,96c10.6,13,22.8,16.1,37,5.2C198.1,70.4,166.1,73.2,158.6,96z"/>
			<path class="st23" d="M161.5,94.2c4.6,8.2,11.5,10.3,19.6,7.8C185.6,86.2,167.1,81.1,161.5,94.2z"/>
			<path class="st24" d="M167.3,93.9c-0.2,3.2-3,3-2.7-0.2C164.8,90.5,167.6,90.7,167.3,93.9z"/>
			<path class="st24" d="M173.2,97.5c-0.2,3.2-3,3-2.7-0.2C170.7,94.1,173.5,94.3,173.2,97.5z"/>
			<path class="st22" d="M160.2,93.4c-6.1,3.4-3.5,9.2-0.9,13.7c4.1,1.4,8.3,0.5,11.3-1l-3.3-1.8c-6,3.3-11-5.4-5.2-8.7L160.2,93.4z
				"/>
			<path class="st22" d="M185.3,127.9c9.6,0.4,9.8,9.5-0.7,12c0.8,0.9,1.6,1.9,2.5,2.8c12.9-3.6,12.9-17.2,1-19
				C186.2,124.7,185.2,126,185.3,127.9z"/>
			<path class="st22" d="M183.4,151c5.5-2.1,4-7.3,2.4-11.4c-3.3-1.7-6.2-2.1-8.9-1.2l1,3.2c5.8-2.8,9.9,4.6,4.2,7.3L183.4,151z"/>
		</g>
	</g>
	<g>
		<path class="st21" d="M111.6,189.2c-0.5,6.4,30.8,6.4,30.3,0C142.4,182.9,111,182.9,111.6,189.2z"/>
		
			<use xlink:href="#clipboard"  width="15.9" height="15.4" x="-8" y="-7.7" transform="matrix(-2.1695 -0.2225 0.2225 -2.1695 105.8823 140.6538)" style="overflow:visible;"/>
		<path class="st22" d="M154.9,174.6c0.5-6.1-5.8-7-10.4-7.2c-3.2,2.2-5,4.8-5.3,7.7l3.7,0.5c-0.1-6.7,9.3-6.9,9.3-0.6L154.9,174.6z
			"/>
		
			<linearGradient id="SVGID_1_" gradientUnits="userSpaceOnUse" x1="-2683.3569" y1="2857.4385" x2="-2659.4949" y2="2845.4934" gradientTransform="matrix(-0.8137 -0.5813 0.5813 -0.8137 -3681.6147 924.7498)">
			<stop  offset="0.5575" style="stop-color:#FFFFFF"/>
			<stop  offset="1" style="stop-color:#ADD9D1"/>
		</linearGradient>
		<path class="st25" d="M134.8,144.3c9.4,7.4,12.4,16.4,9.3,23.2c1.7,1.6,3.2,1.3,4.6,0.6c2.1-10.9-2.7-19.5-10.4-24.3L134.8,144.3z
			"/>
		
			<linearGradient id="SVGID_00000075879520853365158200000008473570022647611528_" gradientUnits="userSpaceOnUse" x1="2363.4734" y1="183.5919" x2="2394.415" y2="183.5919" gradientTransform="matrix(1 9.111888e-03 -9.111888e-03 1 -2251.3384 -44.8121)">
			<stop  offset="0.5575" style="stop-color:#FFFFFF"/>
			<stop  offset="1" style="stop-color:#ADD9D1"/>
		</linearGradient>
		
			<path style="fill:url(#SVGID_00000075879520853365158200000008473570022647611528_);stroke:#00703C;stroke-width:0.75;stroke-miterlimit:10;" d="
			M110.7,144.7c-1.8,18.6,10.3,42.5,17.7,38.1c6.6-4,15.3-22.8,12.5-37C138.7,134.7,111.5,135.4,110.7,144.7z"/>
		<g>
			<path class="st7" d="M115.4,158.5c0.7,7.6,3.6,13.9,7.8,19.3"/>
			<path class="st8" d="M115.4,158.5c0.7,7.1,4,13.4,7.8,19.3c0,0-0.1,0-0.1,0C118.2,172.8,115.6,165.3,115.4,158.5L115.4,158.5z"/>
		</g>
		<g>
			<path class="st8" d="M114.4,143.6c5,3,11.2,3.6,16.9,2.8c1.8-0.4,3.9-0.8,4.8-2.6c0,0,0.1,0,0.1,0c-0.7,2-2.9,2.7-4.8,3.2
				C125.9,148,118.6,147.4,114.4,143.6L114.4,143.6z"/>
		</g>
		
			<linearGradient id="SVGID_00000078729951725975582150000006013651785476163508_" gradientUnits="userSpaceOnUse" x1="2360.0627" y1="1003.0274" x2="2394.5652" y2="1003.0274" gradientTransform="matrix(0.9778 -0.2094 0.2094 0.9778 -2409.8726 -356.5259)">
			<stop  offset="0.5575" style="stop-color:#FFFFFF"/>
			<stop  offset="1" style="stop-color:#ADD9D1"/>
		</linearGradient>
		
			<path style="fill:url(#SVGID_00000078729951725975582150000006013651785476163508_);stroke:#00703C;stroke-width:0.75;stroke-miterlimit:10;" d="
			M108.5,132.8c13.1,8.9,24.6,10.4,34.6-3.2C137.9,101.7,109.9,111.2,108.5,132.8z"/>
		<path class="st22" d="M90.3,143.9c2.3,11.8,12.3,11.6,23.2,9.4c3.3-0.5,2.4-2.3,0.5-3.7c-9.6,1.2-18.4,2.7-20.8-8.4
			C92.4,141.4,90,142.6,90.3,143.9z"/>
		<path class="st28" d="M94,144c3.3,0.7,5-0.9,6.1-3.5l-2.6-2.9c-0.4,2.5-1.6,4-4.1,3.5c-1.6-1.6-1.9-3.8-1.2-6.4
			c-3.3,2.1-2.8,5-1.9,8.3L94,144z"/>
	</g>
</g>
</svg>
